<svg width="30" height="30" viewBox="0 0 30 30" fill="none" xmlns="http://www.w3.org/2000/svg">
<g clip-path="url(#clip0_1_9655)">
<path d="M20.1563 17.3438C22.1251 18 23.9063 19.6875 24.4688 22.125C25.1251 24.5625 24.1876 27.5625 22.5001 28.875C21.3751 29.8125 19.9688 30 18.5626 30C15.2813 30 12.0001 28.875 8.71881 27.6563C7.59381 27.2813 6.56256 26.9062 5.53131 26.1562C4.59381 25.4062 3.75006 24.2812 3.56256 22.875C3.37506 21 4.40631 19.125 5.81256 18.0938C8.15631 16.4063 10.6876 15.75 13.2188 15.75C15.4688 15.8438 18.0938 16.5938 20.1563 17.3438Z" fill="#293338"/>
<path d="M19.3125 17.5314C21.0937 18.0939 22.6875 19.5939 23.25 21.6564C23.8125 23.8127 23.0625 26.3439 21.4687 27.5627C20.4375 28.3127 19.125 28.5939 17.9062 28.5939C14.9062 28.5939 12 27.5627 8.99997 26.5314C8.06247 26.1564 7.03121 25.8752 6.18746 25.2189C5.34371 24.5627 4.59371 23.5314 4.40621 22.4064C4.21871 20.7189 5.15622 19.1252 6.46871 18.2814C8.62496 16.8752 10.875 16.3127 13.125 16.3127C15.0937 16.2189 17.4375 16.9689 19.3125 17.5314Z" fill="#425763"/>
<path d="M12.0938 20.3438L13.4063 22.4062C13.5 22.5 13.5 22.6875 13.4063 22.875L10.5938 27.375C10.5938 27.375 7.6875 26.9062 7.21875 26.0625L7.78125 20.625L9.09375 19.125L12.0938 20.3438Z" fill="#E8CCAA"/>
<path d="M24.3575 11.9386C24.3778 6.34673 19.8611 1.79719 14.2692 1.77692C8.67729 1.75666 4.12775 6.27335 4.10749 11.8652C4.08723 17.4571 8.60392 22.0067 14.1958 22.0269C19.7877 22.0472 24.3372 17.5305 24.3575 11.9386Z" fill="#293338"/>
<path d="M7.59375 2.43737C7.59375 2.43737 8.625 -0.281385 15.375 0.0936154C17.8125 0.0936154 26.3438 4.96861 24.8438 13.9686C24.8438 13.9686 23.4375 18.4686 21 18.2811C21 18.2811 21.75 17.6249 20.8125 15.2811C19.875 12.9374 18.8438 11.6249 17.3438 10.9686C15.8438 10.3124 7.59375 2.43737 7.59375 2.43737Z" fill="#72402A"/>
<path d="M20.7188 8.625C23.1005 8.625 25.0313 6.69423 25.0313 4.3125C25.0313 1.93077 23.1005 0 20.7188 0C18.337 0 16.4062 1.93077 16.4062 4.3125C16.4062 6.69423 18.337 8.625 20.7188 8.625Z" fill="#72402A"/>
<path d="M20.3438 7.875C22.2595 7.875 23.8125 6.32199 23.8125 4.40625C23.8125 2.49051 22.2595 0.9375 20.3438 0.9375C18.428 0.9375 16.875 2.49051 16.875 4.40625C16.875 6.32199 18.428 7.875 20.3438 7.875Z" fill="#89563A"/>
<path d="M23.96 10.9518C23.9803 5.35991 19.4636 0.810368 13.8717 0.790106C8.27983 0.769844 3.73029 5.28653 3.71003 10.8784C3.68977 16.4703 8.20646 21.0198 13.7983 21.0401C19.3902 21.0604 23.9398 16.5437 23.96 10.9518Z" fill="#A67A65"/>
<path d="M23.5313 10.2188C23.5313 15.6563 19.125 20.0625 13.6875 19.9688C8.25 19.875 3.9375 15.5625 3.9375 10.125C3.9375 4.6875 8.34375 0.84375 13.7812 0.84375C19.2188 0.9375 23.5313 4.78125 23.5313 10.2188Z" fill="#E5A98C"/>
<path d="M23.4855 9.96502C23.5044 4.73557 19.4064 0.481366 14.3323 0.46298C9.25818 0.444594 5.12943 4.66899 5.11048 9.89844C5.09153 15.1279 9.18956 19.3821 14.2637 19.4005C19.3378 19.4189 23.4665 15.1945 23.4855 9.96502Z" fill="#E8CCAA"/>
<path d="M18.4481 11.2606C18.4618 7.48094 15.4928 4.40609 11.8167 4.39277C8.14054 4.37945 5.14933 7.4327 5.13564 11.2124C5.12194 14.9921 8.09094 18.067 11.7671 18.0803C15.4432 18.0936 18.4344 15.0403 18.4481 11.2606Z" fill="#FAEACF"/>
<path d="M14.9769 11.9931C14.9789 11.4236 14.5609 10.9604 14.0431 10.9585C13.5254 10.9566 13.1039 11.4168 13.1019 11.9863C13.0998 12.5559 13.5179 13.0191 14.0356 13.021C14.5534 13.0229 14.9748 12.5627 14.9769 11.9931Z" fill="#425763"/>
<path d="M14.3721 11.5653C14.3727 11.41 14.2892 11.2838 14.1856 11.2834C14.0821 11.283 13.9977 11.4086 13.9971 11.564C13.9966 11.7193 14.08 11.8455 14.1836 11.8459C14.2871 11.8463 14.3716 11.7207 14.3721 11.5653Z" fill="white"/>
<path d="M7.72932 10.373C7.73139 9.80346 7.31333 9.34023 6.79556 9.33836C6.27779 9.33648 5.85639 9.79667 5.85432 10.3662C5.85226 10.9358 6.27032 11.399 6.78809 11.4009C7.30585 11.4027 7.72726 10.9425 7.72932 10.373Z" fill="#425763"/>
<path d="M7.12407 9.94521C7.12463 9.78988 7.04114 9.66365 6.93758 9.66328C6.83403 9.6629 6.74963 9.78852 6.74907 9.94385C6.7485 10.0992 6.83199 10.2254 6.93555 10.2258C7.0391 10.2262 7.1235 10.1005 7.12407 9.94521Z" fill="white"/>
<path d="M20.4375 11.7185C20.4375 11.7185 21.2813 11.0623 21.9375 11.3435C22.5938 11.6248 22.5 13.6873 20.8125 13.9685L20.4375 11.7185Z" fill="#FAEACF"/>
<path d="M12 16.5C12 16.5 11.0625 16.4062 10.4063 15.8437C9.75 15.2812 9.09375 15.375 9 15.4687C8.90625 15.5625 8.71875 15.2812 8.4375 15.1875C8.25 15.0938 7.875 15.0938 7.875 15.1875C7.875 15.2812 8.15625 15.8437 8.15625 15.8437C8.15625 15.8437 8.25 16.2187 8.15625 16.5C8.0625 16.6875 8.15625 17.3438 8.8125 17.5312C9.46875 17.7188 10.0313 17.625 10.3125 17.4375C10.5938 17.25 12 16.5 12 16.5Z" fill="#931655"/>
<path d="M14.3438 0.656184C14.3438 0.656184 13.125 3.93743 10.9687 4.59368C8.8125 5.24993 4.6875 7.12493 4.03125 9.74993C4.03125 9.74993 5.0625 -0.937566 14.3438 0.656184Z" fill="#89563A"/>
<path d="M11.1562 2.71875C11.1562 2.71875 13.4063 10.2188 22.0312 11.625L23.8125 11.5313L18.5625 3.1875C18.6562 3.09375 14.3438 0.656251 11.1562 2.71875Z" fill="#89563A"/>
<path d="M10.5938 10.9688L17.8125 13.0312C17.8125 13.0312 16.3125 15.1875 14.25 15C12.1875 14.9063 11.0625 13.0313 10.5938 10.9688Z" stroke="#425763" stroke-width="0.678937" stroke-miterlimit="10"/>
<path d="M3.75 9.09375L10.2187 10.9688C10.2187 10.9688 8.90625 12.8438 7.03125 12.75C5.15625 12.6563 4.21875 10.875 3.75 9.09375Z" stroke="#425763" stroke-width="0.678937" stroke-miterlimit="10"/>
<path d="M11.9062 1.12517C11.9062 1.12517 13.125 0.0939161 15.2812 0.187666C17.4375 0.281416 25.2188 4.21892 23.9062 12.2814C23.9062 12.2814 23.1563 15.6564 22.125 17.0627C22.125 17.0627 21.0938 16.1252 20.25 14.0627C19.4063 12.0002 18.4687 10.7814 17.1562 10.2189C15.8437 9.65641 11.9062 1.12517 11.9062 1.12517Z" fill="#89563A"/>
<path d="M12.5625 2.53125C12.5625 2.53125 14.1563 9.84375 23.1563 10.9688C23.1563 10.9688 23.1562 2.15625 14.25 1.3125C14.25 1.3125 12.5625 1.875 12.5625 2.53125Z" fill="#B57555"/>
<path d="M17.8125 13.125L19.7813 12.6562" stroke="#425763" stroke-width="0.678937" stroke-miterlimit="10"/>
<path d="M14.1562 2.90614C14.1562 2.90614 10.125 2.06239 8.0625 3.56239C8.0625 3.56239 10.2188 -0.656361 15.1875 1.49989L14.1562 2.90614Z" fill="#B57555"/>
<path d="M10.0312 27.75L11.625 25.5L13.9688 21.75L12.5625 21.5625L14.4375 21.75L15.375 23.8125L11.9063 28.125L10.0312 27.75Z" fill="#293338"/>
<path d="M7.5 26.4375L9.28125 25.3125L9.5625 26.9063C9.5625 27 8.625 26.8125 7.5 26.4375Z" fill="#A67A65"/>
<path opacity="0.5" d="M19.5 19.9687C19.5 19.9687 21.0938 23.0625 20.0625 24.8438L17.625 29.0625C17.625 29.0625 20.5313 30.5625 22.2188 28.2188C23.9063 25.875 25.5938 21.1875 21.6563 18.6562L19.5 19.9687Z" fill="#293338"/>
<path d="M20.25 12.9376L22.125 17.0626C22.125 17.0626 23.7187 15.0939 24.2812 13.1251C24.8437 11.1564 20.25 12.9376 20.25 12.9376Z" fill="#72402A"/>
<path d="M15.5625 2.625C15.5625 2.625 19.0312 2.8125 20.25 5.15625C21.4687 7.5 21.4687 9 21.4687 9L17.9062 5.90625L15.5625 2.625Z" fill="#D69274"/>
</g>
<defs>
<clipPath id="clip0_1_9655">
<rect width="30" height="30" fill="white"/>
</clipPath>
</defs>
</svg>
