<svg width="64" height="64" viewBox="0 0 64 64" fill="none" xmlns="http://www.w3.org/2000/svg">
<path d="M20.0261 21.6369C19.9101 21.814 19.8453 22.0156 19.8375 22.2223C19.8297 22.429 19.879 22.6345 19.9812 22.8187C20.3854 23.5455 20.9625 24.1751 21.668 24.6582C21.91 24.823 22.1665 24.9681 22.4346 25.092C22.7027 24.9681 22.9593 24.823 23.2012 24.6582C23.9068 24.1751 24.484 23.5454 24.8881 22.8185L24.8905 22.8142C24.9995 22.6336 25.0566 22.43 25.0566 22.2233C25.0566 22.0166 24.9996 21.8131 24.8906 21.6324L24.8893 21.6303C24.8078 21.4895 24.6873 21.3709 24.5394 21.2873C24.3921 21.2041 24.2234 21.159 24.0508 21.1572C23.8558 21.1622 23.667 21.2198 23.5068 21.3224C23.3461 21.4255 23.2214 21.5693 23.1465 21.7356L23.145 21.7391L23.0399 21.956L20.0261 21.6369ZM20.0261 21.6369L20.0299 21.6303L20.0261 21.6369ZM20.0261 21.6369L20.0299 21.6303L20.0261 21.6369ZM20.0299 21.6303C20.1115 21.4895 20.232 21.3709 20.3798 21.2873C20.5271 21.2041 20.6958 21.159 20.8685 21.1572C21.0635 21.1622 21.2523 21.2198 21.4125 21.3224C21.5732 21.4255 21.6978 21.5693 21.7727 21.7356M20.0299 21.6303L21.7727 21.7356L20.0299 21.6303ZM21.7727 21.7356L21.7744 21.7391L21.7727 21.7356ZM21.7727 21.7356L21.7744 21.7391L21.7727 21.7356ZM21.7744 21.7391L21.8793 21.956L21.7744 21.7391ZM21.7744 21.7391L21.8793 21.956L21.7744 21.7391ZM21.8793 21.956C21.9312 22.0633 22.0141 22.1532 22.117 22.2155C22.2197 22.278 22.3387 22.3108 22.4596 22.3108C22.5806 22.3108 22.6995 22.278 22.8023 22.2155C22.9052 22.1532 22.9881 22.0633 23.0399 21.956H21.8793ZM20.9667 25.662L20.9682 25.663C21.3604 25.9209 21.7821 26.1359 22.2252 26.3043C22.3755 26.3607 22.5433 26.3609 22.6936 26.3044L22.6942 26.3042C23.1382 26.135 23.5612 25.9201 23.9556 25.6634L23.9579 25.6618C24.8261 25.0715 25.5377 24.2982 26.0359 23.4027C26.2475 23.0339 26.3547 22.6189 26.3463 22.1985C26.3379 21.778 26.2143 21.3673 25.9882 21.0063C25.7915 20.6823 25.5088 20.4134 25.1691 20.2259C24.8292 20.0382 24.4435 19.9383 24.0507 19.9354H24.0494C23.7276 19.9362 23.4096 20.003 23.1174 20.1313C22.8715 20.2392 22.6487 20.3886 22.4596 20.5721C22.2706 20.3886 22.0477 20.2392 21.8019 20.1313C21.5097 20.003 21.1917 19.9362 20.8699 19.9354H20.8686C20.4757 19.9383 20.0901 20.0382 19.7501 20.2259C19.4104 20.4134 19.1278 20.6823 18.9311 21.0063C18.705 21.3673 18.5814 21.778 18.573 22.1985C18.5646 22.6189 18.6717 23.0339 18.8833 23.4027C19.3818 24.2997 20.0955 25.0732 20.9667 25.662Z" fill="#213A52"/>
<path d="M20.0261 21.6369C19.9101 21.814 19.8453 22.0156 19.8375 22.2223C19.8297 22.429 19.879 22.6345 19.9812 22.8187C20.3854 23.5455 20.9625 24.1751 21.668 24.6582C21.91 24.823 22.1665 24.9681 22.4346 25.092C22.7027 24.9681 22.9593 24.823 23.2012 24.6582C23.9068 24.1751 24.484 23.5454 24.8881 22.8185L24.8905 22.8142C24.9995 22.6336 25.0566 22.43 25.0566 22.2233C25.0566 22.0166 24.9996 21.8131 24.8906 21.6324L24.8893 21.6303C24.8078 21.4895 24.6873 21.3709 24.5394 21.2873C24.3921 21.2041 24.2234 21.159 24.0508 21.1572C23.8558 21.1622 23.667 21.2198 23.5068 21.3224C23.3461 21.4255 23.2214 21.5693 23.1465 21.7356L23.145 21.7391L23.0399 21.956M20.0261 21.6369L23.0399 21.956M20.0261 21.6369L20.0299 21.6303M23.0399 21.956C22.9881 22.0633 22.9052 22.1532 22.8023 22.2155C22.6995 22.278 22.5806 22.3108 22.4596 22.3108C22.3387 22.3108 22.2197 22.278 22.117 22.2155C22.0141 22.1532 21.9312 22.0633 21.8793 21.956M23.0399 21.956H21.8793M20.0299 21.6303C20.1115 21.4895 20.232 21.3709 20.3798 21.2873C20.5271 21.2041 20.6958 21.159 20.8685 21.1572C21.0635 21.1622 21.2523 21.2198 21.4125 21.3224C21.5732 21.4255 21.6978 21.5693 21.7727 21.7356M20.0299 21.6303L21.7727 21.7356M21.7727 21.7356L21.7744 21.7391L21.8793 21.956M20.9667 25.662L20.9682 25.663C21.3604 25.9209 21.7821 26.1359 22.2252 26.3043C22.3755 26.3607 22.5433 26.3609 22.6936 26.3044L22.6942 26.3042C23.1382 26.135 23.5612 25.9201 23.9556 25.6634L23.9579 25.6618C24.8261 25.0715 25.5377 24.2982 26.0359 23.4027C26.2475 23.0339 26.3547 22.6189 26.3463 22.1985C26.3379 21.778 26.2143 21.3673 25.9882 21.0063C25.7915 20.6823 25.5088 20.4134 25.1691 20.2259C24.8292 20.0382 24.4435 19.9383 24.0507 19.9354H24.0494C23.7276 19.9362 23.4096 20.003 23.1174 20.1313C22.8715 20.2392 22.6487 20.3886 22.4596 20.5721C22.2706 20.3886 22.0477 20.2392 21.8019 20.1313C21.5097 20.003 21.1917 19.9362 20.8699 19.9354H20.8686C20.4757 19.9383 20.0901 20.0382 19.7501 20.2259C19.4104 20.4134 19.1278 20.6823 18.9311 21.0063C18.705 21.3673 18.5814 21.778 18.573 22.1985C18.5646 22.6189 18.6717 23.0339 18.8833 23.4027C19.3818 24.2997 20.0955 25.0732 20.9667 25.662Z" stroke="#213A52" stroke-width="0.278261"/>
<path d="M20.0261 30.4958C19.9101 30.6729 19.8453 30.8745 19.8375 31.0812C19.8297 31.2879 19.879 31.4934 19.9812 31.6775C20.3854 32.4044 20.9625 33.0341 21.668 33.5171C21.91 33.6819 22.1665 33.827 22.4346 33.9509C22.7027 33.827 22.9593 33.6819 23.2012 33.5171C23.9068 33.0341 24.484 32.4043 24.8881 31.6774L24.8905 31.6731C24.9995 31.4926 25.0566 31.2889 25.0566 31.0822C25.0566 30.8756 24.9996 30.672 24.8906 30.4913L24.8893 30.4892C24.8078 30.3485 24.6873 30.2297 24.5394 30.1462C24.3921 30.063 24.2234 30.0179 24.0508 30.0161C23.8558 30.0211 23.667 30.0787 23.5068 30.1814C23.3461 30.2844 23.2214 30.4281 23.1465 30.5945L23.145 30.598L23.0399 30.8149L20.0261 30.4958ZM20.0261 30.4958L20.0299 30.4892L20.0261 30.4958ZM20.0261 30.4958L20.0299 30.4892L20.0261 30.4958ZM20.0299 30.4892C20.1115 30.3485 20.232 30.2297 20.3798 30.1462C20.5271 30.063 20.6958 30.0179 20.8685 30.0161C21.0635 30.0211 21.2523 30.0787 21.4125 30.1814C21.5732 30.2844 21.6978 30.4281 21.7727 30.5945M20.0299 30.4892L21.7727 30.5945L20.0299 30.4892ZM21.7727 30.5945L21.7744 30.598L21.7727 30.5945ZM21.7727 30.5945L21.7744 30.598L21.7727 30.5945ZM21.7744 30.598L21.8793 30.8149L21.7744 30.598ZM21.7744 30.598L21.8793 30.8149L21.7744 30.598ZM21.8793 30.8149C21.9312 30.9222 22.0141 31.012 22.117 31.0745C22.2197 31.1369 22.3387 31.1697 22.4596 31.1697C22.5806 31.1697 22.6995 31.1369 22.8023 31.0745C22.9052 31.012 22.9881 30.9222 23.0399 30.8149H21.8793ZM20.9667 34.5209L20.9682 34.5219C21.3604 34.7798 21.7821 34.9949 22.2252 35.1631C22.3755 35.2196 22.5433 35.2198 22.6936 35.1633L22.6942 35.1631C23.1382 34.9939 23.5612 34.779 23.9556 34.5223L23.9579 34.5207C24.8261 33.9303 25.5377 33.1572 26.0359 32.2616C26.2475 31.8927 26.3547 31.4779 26.3463 31.0574C26.3379 30.6369 26.2143 30.2262 25.9882 29.8653C25.7915 29.5412 25.5088 29.2724 25.1691 29.0848C24.8292 28.8971 24.4435 28.7971 24.0507 28.7944L24.0494 28.7943C23.7276 28.7951 23.4096 28.8619 23.1174 28.9902C22.8715 29.0981 22.6487 29.2475 22.4596 29.431C22.2706 29.2475 22.0477 29.0981 21.8019 28.9902C21.5097 28.8619 21.1917 28.7951 20.8699 28.7943L20.8686 28.7944C20.4757 28.7971 20.0901 28.8971 19.7501 29.0848C19.4104 29.2724 19.1278 29.5412 18.9311 29.8653C18.705 30.2262 18.5814 30.6369 18.573 31.0574C18.5646 31.4779 18.6717 31.8927 18.8833 32.2616C19.3818 33.1586 20.0955 33.9321 20.9667 34.5209Z" fill="#213A52"/>
<path d="M20.0261 30.4958C19.9101 30.6729 19.8453 30.8745 19.8375 31.0812C19.8297 31.2879 19.879 31.4934 19.9812 31.6775C20.3854 32.4044 20.9625 33.0341 21.668 33.5171C21.91 33.6819 22.1665 33.827 22.4346 33.9509C22.7027 33.827 22.9593 33.6819 23.2012 33.5171C23.9068 33.0341 24.484 32.4043 24.8881 31.6774L24.8905 31.6731C24.9995 31.4926 25.0566 31.2889 25.0566 31.0822C25.0566 30.8756 24.9996 30.672 24.8906 30.4913L24.8893 30.4892C24.8078 30.3485 24.6873 30.2297 24.5394 30.1462C24.3921 30.063 24.2234 30.0179 24.0508 30.0161C23.8558 30.0211 23.667 30.0787 23.5068 30.1814C23.3461 30.2844 23.2214 30.4281 23.1465 30.5945L23.145 30.598L23.0399 30.8149M20.0261 30.4958L23.0399 30.8149M20.0261 30.4958L20.0299 30.4892M23.0399 30.8149C22.9881 30.9222 22.9052 31.012 22.8023 31.0745C22.6995 31.1369 22.5806 31.1697 22.4596 31.1697C22.3387 31.1697 22.2197 31.1369 22.117 31.0745C22.0141 31.012 21.9312 30.9222 21.8793 30.8149M23.0399 30.8149H21.8793M20.0299 30.4892C20.1115 30.3485 20.232 30.2297 20.3798 30.1462C20.5271 30.063 20.6958 30.0179 20.8685 30.0161C21.0635 30.0211 21.2523 30.0787 21.4125 30.1814C21.5732 30.2844 21.6978 30.4281 21.7727 30.5945M20.0299 30.4892L21.7727 30.5945M21.7727 30.5945L21.7744 30.598L21.8793 30.8149M20.9667 34.5209L20.9682 34.5219C21.3604 34.7798 21.7821 34.9949 22.2252 35.1631C22.3755 35.2196 22.5433 35.2198 22.6936 35.1633L22.6942 35.1631C23.1382 34.9939 23.5612 34.779 23.9556 34.5223L23.9579 34.5207C24.8261 33.9303 25.5377 33.1572 26.0359 32.2616C26.2475 31.8927 26.3547 31.4779 26.3463 31.0574C26.3379 30.6369 26.2143 30.2262 25.9882 29.8653C25.7915 29.5412 25.5088 29.2724 25.1691 29.0848C24.8292 28.8971 24.4435 28.7971 24.0507 28.7944L24.0494 28.7943C23.7276 28.7951 23.4096 28.8619 23.1174 28.9902C22.8715 29.0981 22.6487 29.2475 22.4596 29.431C22.2706 29.2475 22.0477 29.0981 21.8019 28.9902C21.5097 28.8619 21.1917 28.7951 20.8699 28.7943L20.8686 28.7944C20.4757 28.7971 20.0901 28.8971 19.7501 29.0848C19.4104 29.2724 19.1278 29.5412 18.9311 29.8653C18.705 30.2262 18.5814 30.6369 18.573 31.0574C18.5646 31.4779 18.6717 31.8927 18.8833 32.2616C19.3818 33.1586 20.0955 33.9321 20.9667 34.5209Z" stroke="#213A52" stroke-width="0.278261"/>
<path d="M20.0261 39.3548C19.9101 39.5319 19.8453 39.7335 19.8375 39.9402C19.8297 40.1469 19.879 40.3524 19.9812 40.5365C20.3854 41.2633 20.9625 41.893 21.668 42.376C21.91 42.5409 22.1665 42.686 22.4346 42.8099C22.7027 42.686 22.9593 42.5409 23.2012 42.3761C23.9068 41.893 24.484 41.2633 24.8881 40.5364L24.8905 40.5321C24.9995 40.3514 25.0566 40.1479 25.0566 39.9412C25.0566 39.7345 24.9996 39.531 24.8906 39.3503L24.8893 39.3482C24.8078 39.2074 24.6873 39.0888 24.5394 39.0052C24.3921 38.922 24.2234 38.8769 24.0508 38.8751C23.8558 38.88 23.667 38.9377 23.5068 39.0403C23.3461 39.1434 23.2214 39.2872 23.1465 39.4535L23.145 39.457L23.0399 39.6739L20.0261 39.3548ZM20.0261 39.3548L20.0299 39.3482L20.0261 39.3548ZM20.0261 39.3548L20.0299 39.3482L20.0261 39.3548ZM20.0299 39.3482C20.1115 39.2074 20.232 39.0888 20.3798 39.0052C20.5271 38.922 20.6958 38.8769 20.8685 38.8751C21.0635 38.88 21.2523 38.9377 21.4125 39.0403C21.5732 39.1434 21.6978 39.2872 21.7727 39.4535M20.0299 39.3482L21.7727 39.4535L20.0299 39.3482ZM21.7727 39.4535L21.7744 39.457L21.7727 39.4535ZM21.7727 39.4535L21.7744 39.457L21.7727 39.4535ZM21.7744 39.457L21.8793 39.6739L21.7744 39.457ZM21.7744 39.457L21.8793 39.6739L21.7744 39.457ZM21.8793 39.6739C21.9312 39.7812 22.0141 39.871 22.117 39.9334C22.2197 39.9959 22.3387 40.0287 22.4596 40.0287C22.5806 40.0287 22.6995 39.9959 22.8023 39.9334C22.9052 39.8711 22.9881 39.7812 23.0399 39.6739H21.8793ZM20.9667 43.3799L20.9682 43.3809C21.3604 43.6388 21.7821 43.8538 22.2252 44.0222C22.3755 44.0786 22.5433 44.0788 22.6936 44.0223L22.6942 44.0221C23.1382 43.8529 23.5612 43.638 23.9556 43.3813L23.9579 43.3797C24.8261 42.7893 25.5377 42.0161 26.0359 41.1206C26.2475 40.7518 26.3547 40.3368 26.3463 39.9164C26.3379 39.4959 26.2143 39.0852 25.9882 38.7242C25.7915 38.4002 25.5088 38.1313 25.1691 37.9438C24.8292 37.7561 24.4435 37.6561 24.0507 37.6533H24.0494C23.7276 37.6541 23.4096 37.7209 23.1174 37.8492C22.8715 37.9571 22.6487 38.1065 22.4596 38.29C22.2706 38.1065 22.0477 37.9571 21.8019 37.8492C21.5097 37.7209 21.1917 37.6541 20.8699 37.6533H20.8686C20.4757 37.6561 20.0901 37.7561 19.7501 37.9438C19.4104 38.1313 19.1278 38.4002 18.9311 38.7242C18.705 39.0852 18.5814 39.4959 18.573 39.9164C18.5646 40.3368 18.6717 40.7518 18.8833 41.1206C19.3818 42.0176 20.0955 42.7911 20.9667 43.3799Z" fill="#213A52"/>
<path d="M20.0261 39.3548C19.9101 39.5319 19.8453 39.7335 19.8375 39.9402C19.8297 40.1469 19.879 40.3524 19.9812 40.5365C20.3854 41.2633 20.9625 41.893 21.668 42.376C21.91 42.5409 22.1665 42.686 22.4346 42.8099C22.7027 42.686 22.9593 42.5409 23.2012 42.3761C23.9068 41.893 24.484 41.2633 24.8881 40.5364L24.8905 40.5321C24.9995 40.3514 25.0566 40.1479 25.0566 39.9412C25.0566 39.7345 24.9996 39.531 24.8906 39.3503L24.8893 39.3482C24.8078 39.2074 24.6873 39.0888 24.5394 39.0052C24.3921 38.922 24.2234 38.8769 24.0508 38.8751C23.8558 38.88 23.667 38.9377 23.5068 39.0403C23.3461 39.1434 23.2214 39.2872 23.1465 39.4535L23.145 39.457L23.0399 39.6739M20.0261 39.3548L23.0399 39.6739M20.0261 39.3548L20.0299 39.3482M23.0399 39.6739C22.9881 39.7812 22.9052 39.8711 22.8023 39.9334C22.6995 39.9959 22.5806 40.0287 22.4596 40.0287C22.3387 40.0287 22.2197 39.9959 22.117 39.9334C22.0141 39.871 21.9312 39.7812 21.8793 39.6739M23.0399 39.6739H21.8793M20.0299 39.3482C20.1115 39.2074 20.232 39.0888 20.3798 39.0052C20.5271 38.922 20.6958 38.8769 20.8685 38.8751C21.0635 38.88 21.2523 38.9377 21.4125 39.0403C21.5732 39.1434 21.6978 39.2872 21.7727 39.4535M20.0299 39.3482L21.7727 39.4535M21.7727 39.4535L21.7744 39.457L21.8793 39.6739M20.9667 43.3799L20.9682 43.3809C21.3604 43.6388 21.7821 43.8538 22.2252 44.0222C22.3755 44.0786 22.5433 44.0788 22.6936 44.0223L22.6942 44.0221C23.1382 43.8529 23.5612 43.638 23.9556 43.3813L23.9579 43.3797C24.8261 42.7893 25.5377 42.0161 26.0359 41.1206C26.2475 40.7518 26.3547 40.3368 26.3463 39.9164C26.3379 39.4959 26.2143 39.0852 25.9882 38.7242C25.7915 38.4002 25.5088 38.1313 25.1691 37.9438C24.8292 37.7561 24.4435 37.6561 24.0507 37.6533H24.0494C23.7276 37.6541 23.4096 37.7209 23.1174 37.8492C22.8715 37.9571 22.6487 38.1065 22.4596 38.29C22.2706 38.1065 22.0477 37.9571 21.8019 37.8492C21.5097 37.7209 21.1917 37.6541 20.8699 37.6533H20.8686C20.4757 37.6561 20.0901 37.7561 19.7501 37.9438C19.4104 38.1313 19.1278 38.4002 18.9311 38.7242C18.705 39.0852 18.5814 39.4959 18.573 39.9164C18.5646 40.3368 18.6717 40.7518 18.8833 41.1206C19.3818 42.0176 20.0955 42.7911 20.9667 43.3799Z" stroke="#213A52" stroke-width="0.278261"/>
<path d="M30.6087 23.6522H43.1304" stroke="#213A52" stroke-width="2.22609" stroke-linecap="round" stroke-linejoin="round"/>
<path d="M30.6087 32H43.1304" stroke="#213A52" stroke-width="2.22609" stroke-linecap="round" stroke-linejoin="round"/>
<path d="M30.6087 40.3478H43.1304" stroke="#213A52" stroke-width="2.22609" stroke-linecap="round" stroke-linejoin="round"/>
</svg>
