<svg width="30" height="30" viewBox="0 0 30 30" fill="none" xmlns="http://www.w3.org/2000/svg">
<g clip-path="url(#clip0_1_12280)">
<path d="M15.6562 25.3125L7.78125 24.6562V22.4062L15.6562 22.875V25.3125ZM22.3125 0.65625L24.1875 0.75L26.625 1.5C27.2812 1.6875 27.6562 2.25 27.6562 3V21.9375C27.6562 22.6875 27.1875 23.25 26.5312 23.5312L24 24.375L22.5937 24.4688L22.3125 0.65625Z" fill="#09212F"/>
<path d="M17.4375 27.6562L6.46875 26.4375C6.09375 26.4375 5.71875 25.9688 5.71875 25.5V24.8437C5.71875 24.375 6.09375 24 6.46875 24L17.3438 24.8437C17.9062 24.8437 18.2812 25.3125 18.2812 25.875V26.625C18.375 27.2812 17.9062 27.6562 17.4375 27.6562Z" fill="#09212F"/>
<path d="M14.8125 25.2188L8.34375 24.75V22.4062L14.8125 22.7812V25.2188Z" fill="#19485B"/>
<path d="M24.6562 2.24994L2.15625 4.87493C1.59375 4.96868 1.21875 5.43744 1.21875 5.99994V20.6249C1.21875 21.1874 1.6875 21.6562 2.15625 21.6562L24.6562 22.8749C25.5 22.9687 26.25 22.4062 26.25 21.6562V3.28119C26.25 2.62494 25.5938 2.06244 24.6562 2.24994Z" fill="#2A4B5C"/>
<path d="M22.3125 0.656182L1.125 3.56243C0.65625 3.65618 0.1875 4.21868 0.1875 4.87493V21.6562C0.1875 22.3124 0.5625 22.8749 1.125 22.8749L22.3125 24.4687C23.1562 24.5624 23.8125 23.9062 23.8125 23.0624V1.96868C23.8125 1.12493 23.1562 0.562432 22.3125 0.656182Z" fill="#09212F"/>
<path d="M22.4062 1.59372L1.875 4.12497C1.3125 4.21872 0.9375 4.78122 0.9375 5.34372V21.1875C0.9375 21.75 1.3125 22.3125 1.875 22.3125L22.4062 23.625C23.1562 23.7187 23.8125 23.0625 23.8125 22.3125V2.81247C23.8125 2.06247 23.1562 1.49997 22.4062 1.59372Z" fill="#3383AB"/>
<path d="M20.9062 3.28125L2.8125 5.34375C2.4375 5.34375 2.15625 5.71875 2.15625 6.1875V20.3438C2.15625 20.8125 2.4375 21.0938 2.8125 21.1875L21 22.0312C21.5625 22.0312 21.9375 21.6562 21.9375 21.0938V4.21875C21.9375 3.65625 21.4688 3.28125 20.9062 3.28125Z" fill="url(#paint0_linear_1_12280)"/>
<path d="M6.84375 6.65625V19.6875L17.4375 12.75L6.84375 6.65625Z" fill="#FAFDFF"/>
<path d="M6.46875 24.4688V25.5937L17.0625 26.5312V25.4063L6.46875 24.4688Z" fill="#3383AB"/>
<mask id="mask0_1_12280" style="mask-type:luminance" maskUnits="userSpaceOnUse" x="2" y="3" width="20" height="20">
<path d="M20.9062 3.28125L2.8125 5.34375C2.4375 5.34375 2.15625 5.71875 2.15625 6.1875V20.3438C2.15625 20.8125 2.4375 21.0938 2.8125 21.1875L21 22.0312C21.5625 22.0312 21.9375 21.6562 21.9375 21.0938V4.21875C21.9375 3.65625 21.4688 3.28125 20.9062 3.28125Z" fill="white"/>
</mask>
<g mask="url(#mask0_1_12280)">
<path d="M4.68751 25.7811C3.46876 25.0311 2.81251 23.3436 3.46876 21.5624C3.65626 20.9999 4.87501 19.4061 5.15626 19.0311C6.28126 18.0936 11.25 17.0624 15.2813 19.8749C16.0313 20.4374 16.5938 21.2811 16.875 22.4061V22.4999C17.4375 25.4061 16.5 27.6561 13.9688 27.6561C11.25 27.7499 6.93751 26.9999 4.68751 25.7811Z" fill="#913A3A"/>
<path d="M3.75018 9.75C3.75018 9.75 1.96893 14.1562 4.21893 15.75L4.59393 12.5625L3.75018 9.75ZM20.2502 12.5625C20.2502 14.0625 19.0314 15.2812 17.6252 15.375C16.2189 15.4688 15.0002 14.4375 15.0002 13.0312C15.0002 11.625 16.1252 10.3125 17.5314 10.2188C19.1252 10.0312 20.2502 11.0625 20.2502 12.5625Z" fill="#8E4028"/>
<path d="M18.1875 8.24995C17.25 6.37495 14.8125 4.49995 11.8125 4.4062C10.875 4.31245 9.65621 4.4062 8.06246 4.87495C2.34371 6.6562 3.56246 12.4687 3.56246 12.4687C4.49996 10.9687 6.46871 9.8437 9.93746 9.6562C11.4375 9.56245 12.4687 9.0937 13.2187 8.43745C14.1562 9.56245 15.375 11.8125 15.2812 15.75C15.2812 15.75 15.4687 17.3437 17.8125 17.1562C17.8125 17.1562 17.625 16.0312 18 15.1875C18.2812 14.5312 19.2187 10.3125 18.1875 8.24995Z" fill="#8E4028"/>
<path d="M19.7812 13.1249C19.7812 14.5311 18.6562 15.7499 17.25 15.8436C15.8437 15.9374 14.8125 14.9061 14.8125 13.5936C14.8125 12.2811 15.9375 11.0624 17.25 10.8749C18.6562 10.7811 19.7812 11.7186 19.7812 13.1249Z" fill="#E8A554"/>
<path d="M21.2813 17.9999C21.2813 20.4374 19.5 22.4061 17.3438 22.4999C15.1875 22.5936 13.5 20.8124 13.5 18.4686C13.5 16.2186 15.1875 14.1561 17.25 13.9686C19.5 13.7811 21.2813 15.5624 21.2813 17.9999Z" fill="#E8A554"/>
<path d="M7.96875 17.9061C7.96875 19.5936 6.75 21.0936 5.15625 21.1873C3.65625 21.2811 2.4375 19.9686 2.4375 18.2811C2.4375 16.5936 3.65625 15.1873 5.15625 14.9998C6.75 14.9061 7.96875 16.2186 7.96875 17.9061Z" fill="#8E4028"/>
<path d="M20.9062 17.8125C20.9062 19.9688 19.125 21.8438 16.9688 21.9375C14.8125 22.0313 13.2188 20.4375 13.2188 18.2813C13.2188 16.2188 14.9062 14.3438 16.9688 14.1563C19.125 14.0625 20.9062 15.6563 20.9062 17.8125Z" fill="#FFEFAB"/>
<path d="M19.4062 12.6563C19.4062 14.0626 18.2812 15.2813 16.875 15.3751C15.5625 15.4688 14.4375 14.4376 14.4375 13.1251C14.4375 11.8126 15.5625 10.5938 16.875 10.4063C18.1875 10.2188 19.4062 11.2501 19.4062 12.6563ZM8.25 17.7188C8.25 19.2188 7.125 20.4376 5.8125 20.5313C4.5 20.6251 3.375 19.5001 3.375 18.0938C3.375 16.6876 4.40625 15.4688 5.71875 15.2813C7.125 15.1876 8.25 16.2188 8.25 17.7188Z" fill="#FFEFAB"/>
<path d="M4.78126 24.9375C3.56251 24.1875 2.90626 22.5 3.56251 20.7188C3.75001 20.1563 4.96876 18.4688 5.25001 18.1875C6.37501 17.25 11.3438 16.125 15.375 18.9375C16.125 19.5 16.6875 20.3438 16.9688 21.4688V21.5625C17.5313 24.4688 16.5938 26.8125 14.0625 26.8125C11.3438 26.9063 7.03126 26.25 4.78126 24.9375Z" fill="#BD5E8F"/>
<path d="M4.87497 23.3437C3.74997 22.7812 4.12497 21.3749 4.68747 19.8749C4.87497 19.3124 5.43747 18.8437 5.71872 18.5624C6.74997 17.7187 11.1562 16.7812 15 19.1249C15.75 19.5937 16.2187 20.3437 16.4062 21.1874V21.2812C16.9687 23.6249 15.1875 25.7812 13.0312 25.4999C10.5937 25.1249 6.93747 24.3749 4.87497 23.3437Z" fill="#E8A554"/>
<path d="M4.78117 23.3437C3.74992 22.7812 4.78117 22.0312 5.34367 20.5312C5.53117 19.9687 6.56242 18.8437 6.84367 18.5624C7.78117 17.7187 10.1249 16.7812 13.4062 19.1249C13.9687 19.5937 14.4374 20.3437 14.6249 21.1874V21.2812C15.0937 23.6249 13.8749 25.4062 12.0937 25.1249C9.93742 24.8437 6.56242 24.3749 4.78117 23.3437Z" fill="#FFD097"/>
<path d="M12.5625 19.125C12.5625 19.125 13.3125 21.375 11.625 22.3125C11.625 22.3125 15.75 22.6875 16.9688 21.9375C16.9688 21.9375 17.3438 19.4063 13.9688 18.4688L12.5625 19.125ZM6 18.1875C6 18.1875 5.15625 18.8438 4.40625 20.25L5.25 20.8125L5.4375 21C5.4375 21 6 19.5938 6.9375 18.9375L6 18.1875Z" fill="#BD5E8F"/>
<path d="M4.78111 19.9688C4.78111 19.9688 5.43736 22.4062 16.7811 21.8438L15.6561 24.8438C15.6561 24.8438 12.6561 25.5 8.71861 24.5625C5.15611 23.8125 3.74986 23.5312 4.78111 19.9688Z" fill="#8E4028"/>
<path d="M4.12509 21C4.21884 20.7187 4.50009 20.625 4.68759 20.7188C5.43759 21.2813 7.59384 22.3125 12.1876 22.6875C13.3126 22.7813 14.8126 22.6875 16.7813 22.125C16.7813 22.125 16.8751 22.5938 16.7813 23.1563C16.5938 24.5625 15.2813 25.5937 13.8751 25.6875C12.2813 25.6875 10.7813 25.6875 8.62509 25.125C5.25009 24.375 3.37509 24 4.12509 21Z" fill="#E090A1"/>
<path d="M17.4375 12.2812C17.4375 16.3124 14.1563 19.7812 10.4063 19.9687C6.75 20.1562 3.9375 17.2499 3.9375 13.4999C3.9375 9.74994 6.75 6.37494 10.4063 5.81244C14.25 5.34369 17.4375 8.15619 17.4375 12.2812Z" fill="#8E4028"/>
<path d="M17.1562 11.7187C17.1562 15.6562 13.9688 19.0312 10.3125 19.2187C6.75 19.4062 4.03125 16.5937 4.03125 13.0312C4.03125 9.37494 6.75 6.0937 10.3125 5.62495C13.9688 5.06245 17.1562 7.7812 17.1562 11.7187Z" fill="#E8A554"/>
<path d="M17.0625 11.5312C17.0625 15.2812 14.1562 18.4687 10.6875 18.6562C7.40625 18.8437 4.78125 16.125 4.78125 12.6562C4.78125 9.28123 6.5625 6.09373 10.6875 5.53123C14.1562 5.15623 17.0625 7.78123 17.0625 11.5312Z" fill="#E8BD89"/>
<path d="M13.5 12.8436C13.5 15.5624 11.4375 17.8124 9 17.9999C6.5625 18.0936 4.6875 16.1249 4.6875 13.5936C4.6875 11.0624 6.5625 8.71864 8.90625 8.43739C11.4375 8.15614 13.5 10.1249 13.5 12.8436Z" fill="#FFD097"/>
<path d="M4.40625 12.4688C4.40625 12.4688 4.59375 11.4375 6.75 11.25C8.90625 10.9688 12.0938 10.9687 13.5 9.28125L12.9375 8.90625C12.9375 8.90625 11.5313 9.84375 9.375 10.125C7.21875 10.4063 4.5 11.25 4.40625 11.5313C4.125 11.625 4.40625 12.4688 4.40625 12.4688Z" fill="#E8A554"/>
<path d="M11.0625 13.5936C11.0625 13.9686 10.7812 14.3436 10.5 14.4374C10.125 14.4374 9.9375 14.1561 9.9375 13.7811C9.9375 13.4061 10.2187 13.0311 10.5 12.9374C10.7812 12.8436 11.0625 13.1249 11.0625 13.5936Z" fill="#8E4028"/>
<path d="M10.6875 13.3125C10.6875 13.4062 10.5937 13.5 10.5 13.5C10.4062 13.5 10.3125 13.4062 10.3125 13.3125C10.3125 13.2187 10.4062 13.125 10.5 13.125C10.6875 13.125 10.6875 13.2187 10.6875 13.3125Z" fill="white"/>
<path d="M6.28125 13.2186C6.28125 13.5936 6 13.9686 5.71875 13.9686C5.4375 13.9686 5.15625 13.6874 5.15625 13.3124C5.15625 12.9374 5.4375 12.5624 5.71875 12.5624C6 12.4686 6.28125 12.7499 6.28125 13.2186Z" fill="#8E4028"/>
<path d="M5.90625 12.9375C5.90625 13.0312 5.8125 13.125 5.71875 13.125C5.71875 13.125 5.625 13.125 5.625 12.9375C5.625 12.8437 5.71875 12.75 5.8125 12.75C5.8125 12.75 5.90625 12.8437 5.90625 12.9375Z" fill="white"/>
<path d="M7.59375 21.5625C7.59375 21.5625 7.875 20.8125 8.53125 20.3438C8.53125 20.3438 8.15625 21.1875 8.15625 21.75L7.59375 21.5625Z" fill="#8E4028"/>
<path d="M10.5938 22.875C10.5938 22.875 13.875 22.9687 13.5 19.5C13.5 19.5 14.4375 18.8437 15.1875 19.5C15.9375 20.1562 17.1562 20.8125 16.6875 23.0625C16.6875 23.0625 11.0625 24 10.5938 22.875ZM5.625 21.75C5.625 21.75 5.15625 21.0938 5.53125 20.25C5.90625 19.4062 6.5625 18.8438 6.5625 18.8438L6 18.375C6 18.375 4.40625 19.4062 4.125 21.0937L5.625 21.75Z" fill="#E090A1"/>
<path d="M8.53141 23.3438C8.53141 23.3438 11.4377 22.6875 12.8439 23.5313C12.8439 23.5313 13.2189 24.1875 12.8439 24.375C12.4689 24.5625 9.84391 23.3437 8.53141 23.7187C8.62516 23.7187 8.34391 23.4375 8.53141 23.3438ZM4.78141 21.9375C4.78141 21.9375 6.84391 21.9375 7.59391 22.7812C7.59391 22.7812 7.78141 23.25 7.50016 23.3438C7.21891 23.4375 5.71891 22.2187 4.78141 22.3125C4.78141 22.2187 4.68766 22.0312 4.78141 21.9375Z" fill="#E8A2A2"/>
<path d="M14.25 7.4063C14.25 7.4063 13.125 10.1251 9.9375 10.2188C6.9375 10.3126 4.78125 11.0626 3.9375 12.4688C3.9375 12.4688 3.9375 7.12505 8.34375 5.81255C12.9375 4.31255 14.25 6.6563 14.25 7.4063Z" fill="#FFEFAB"/>
<path d="M12.1875 8.34388C12.75 8.81263 14.9062 10.9689 14.7188 15.8439C14.7188 15.8439 14.9063 17.3439 16.9688 17.1564C16.9688 17.1564 16.7812 16.1251 17.1562 15.3751C17.5312 14.6251 18.2813 10.7814 17.3438 8.90638C16.4063 7.03138 14.0625 5.25013 11.25 5.34388" fill="#FFEFAB"/>
<path d="M14.5312 13.3125C14.5312 13.3125 15.2813 12.75 15.6563 13.125C16.3125 13.6875 15.75 14.8125 14.5312 15.0938V13.3125Z" fill="#E8BD89"/>
<path d="M12.75 9.5625C12.75 9.5625 14.3437 11.25 14.5312 13.2188C14.5312 13.2188 14.3437 10.125 12.9375 9.09375L12.75 9.5625ZM15.0937 14.7188C15.0937 14.7188 14.9062 16.4063 15.9375 17.0625C15.9375 17.0625 15.375 17.25 14.9062 16.6875C14.4375 16.125 14.5312 14.9062 14.5312 14.9062L15.0937 14.7188Z" fill="#E8A554"/>
<path d="M6.75 7.31249C6.75 7.31249 9.75 5.34374 12.2813 6.09374C12.2813 6.09374 13.125 7.03124 11.1562 7.49999C9.28125 7.87499 9.28125 6.74999 6.75 7.31249ZM18.5625 15.75C18.5625 15.75 19.7812 18 17.8125 19.6875C17.5312 19.875 17.5312 20.25 17.625 20.5312C17.8125 20.9062 18.4688 21 18.75 20.625C19.5938 19.5 20.7187 17.4375 18.5625 15.75ZM17.25 11.1562C17.25 11.1562 18.375 12.375 17.5313 13.6875C17.5313 13.6875 17.5313 14.25 17.9063 14.25C18.2813 14.25 18.75 13.9687 18.6562 13.5C18.6562 13.0312 18.75 11.25 17.25 11.1562Z" fill="white"/>
<path d="M9.5625 16.6875C9.5625 16.6875 8.90625 16.6875 8.34375 16.4063C7.78125 16.125 7.3125 16.2188 7.21875 16.2188C7.125 16.2188 6.9375 16.125 6.84375 16.0313C6.65625 15.9375 6.46875 16.0313 6.46875 16.125C6.46875 16.2188 6.75 16.5938 6.75 16.5938C6.75 16.5938 6.84375 16.875 6.84375 17.0625C6.84375 17.25 6.9375 17.7188 7.5 17.7188C8.0625 17.8125 8.4375 17.625 8.625 17.5313C8.8125 17.4375 9.5625 16.6875 9.5625 16.6875Z" fill="#BD5E8F"/>
</g>
<path d="M21.844 22.0313C22.1252 22.0313 25.3127 22.3126 27.3752 25.8751C27.9377 26.9063 27.5627 28.2188 26.5315 28.5938C24.2815 29.5313 20.2502 30.6563 15.844 27.8438C14.9065 27.2813 14.6252 25.7813 15.2815 24.8438C16.4065 23.5313 18.469 21.7501 21.844 22.0313Z" fill="#09212F"/>
<path d="M21.7499 22.7812C22.0312 22.7812 24.6562 22.9687 26.5312 25.8749C26.9999 26.6249 26.6249 27.7499 25.7812 28.0312C23.9062 28.7812 20.3437 29.5312 16.5937 27.2812C15.8437 26.8124 15.6562 25.7812 16.2187 25.0312C17.0624 23.9062 18.8437 22.5937 21.7499 22.7812Z" fill="#A2B6BA"/>
<path d="M21.7501 22.8749C21.9376 22.8749 24.1876 23.0624 25.5939 25.4062C25.9689 26.0624 25.6876 26.9062 25.0314 27.1874C23.4376 27.7499 20.5314 28.4062 17.5314 26.6249C16.8751 26.2499 16.6876 25.3124 17.1564 24.7499C17.9064 23.8124 19.4064 22.6874 21.7501 22.8749Z" fill="#87999B"/>
<path d="M21.5625 26.5312C26.1188 26.5312 29.8125 22.8376 29.8125 18.2812C29.8125 13.7249 26.1188 10.0312 21.5625 10.0312C17.0062 10.0312 13.3125 13.7249 13.3125 18.2812C13.3125 22.8376 17.0062 26.5312 21.5625 26.5312Z" fill="#09212F"/>
<path d="M21.5625 25.3125C25.6011 25.3125 28.875 22.0386 28.875 18C28.875 13.9614 25.6011 10.6875 21.5625 10.6875C17.5239 10.6875 14.25 13.9614 14.25 18C14.25 22.0386 17.5239 25.3125 21.5625 25.3125Z" fill="#A2B6BA"/>
<path d="M21.8437 24.1875C25.5717 24.1875 28.5938 21.1654 28.5938 17.4375C28.5938 13.7096 25.5717 10.6875 21.8437 10.6875C18.1158 10.6875 15.0938 13.7096 15.0938 17.4375C15.0938 21.1654 18.1158 24.1875 21.8437 24.1875Z" fill="#CBDEE4"/>
<path d="M25.6875 17.0625C26.5159 17.0625 27.1875 16.3909 27.1875 15.5625C27.1875 14.7341 26.5159 14.0625 25.6875 14.0625C24.8591 14.0625 24.1875 14.7341 24.1875 15.5625C24.1875 16.3909 24.8591 17.0625 25.6875 17.0625Z" fill="#4A6370"/>
<path d="M25.7812 16.4062C26.299 16.4062 26.7188 15.9865 26.7188 15.4688C26.7188 14.951 26.299 14.5312 25.7812 14.5312C25.2635 14.5312 24.8438 14.951 24.8438 15.4688C24.8438 15.9865 25.2635 16.4062 25.7812 16.4062Z" fill="#4ED154"/>
<path d="M20.3438 14.6249C20.3438 14.6249 20.9062 11.9999 22.875 11.0624C23.1562 10.9687 23.0625 10.7812 22.7812 10.6874H22.4062C22.125 10.6874 19.875 10.5937 18.8438 14.6249H20.3438Z" fill="#A2B6BA"/>
<path d="M23.9087 19.1795C24.0783 16.5961 22.2891 14.3753 19.9124 14.2193C17.5356 14.0632 15.4714 16.0309 15.3018 18.6143C15.1321 21.1977 16.9213 23.4185 19.2981 23.5746C21.6748 23.7306 23.739 21.7629 23.9087 19.1795Z" fill="#4A6370"/>
<path d="M23.0068 18.8606C23.1357 16.8972 21.7742 15.2093 19.9658 15.0906C18.1574 14.9718 16.587 16.4672 16.458 18.4306C16.3291 20.394 17.6906 22.0819 19.499 22.2006C21.3073 22.3193 22.8778 20.824 23.0068 18.8606Z" fill="#3587C4"/>
<path d="M22.493 18.7015C22.5981 17.0998 21.4687 15.7216 19.9704 15.6232C18.472 15.5248 17.1721 16.7435 17.0669 18.3452C16.9617 19.9469 18.0911 21.3251 19.5895 21.4235C21.0879 21.5219 22.3878 20.3032 22.493 18.7015Z" fill="#4DA3EC"/>
<path d="M21.4318 17.2518C21.459 16.8385 21.104 16.4786 20.639 16.4481C20.174 16.4176 19.775 16.7279 19.7479 17.1412C19.7207 17.5546 20.0757 17.9144 20.5407 17.9449C21.0057 17.9755 21.4047 17.6651 21.4318 17.2518Z" fill="white"/>
<path d="M22.0311 12.6563C22.3124 12.375 22.6874 12 23.1561 11.7188C23.3436 11.625 23.5311 11.625 23.7186 11.625C24.0936 11.8125 24.8436 12.0938 25.6874 12.6563C26.1561 13.0313 25.8749 13.7813 25.3124 13.6875C24.5624 13.5938 23.5311 13.5 22.4999 13.5938C21.9374 13.5938 21.6561 12.9375 22.0311 12.6563Z" fill="#E1F0F4"/>
</g>
<defs>
<linearGradient id="paint0_linear_1_12280" x1="6.57806" y1="18.7292" x2="25.3495" y2="1.07128" gradientUnits="userSpaceOnUse">
<stop stop-color="#57BAC9"/>
<stop offset="1" stop-color="#ABEFFF"/>
</linearGradient>
<clipPath id="clip0_1_12280">
<rect width="30" height="30" fill="white"/>
</clipPath>
</defs>
</svg>
