<svg width="30" height="30" viewBox="0 0 30 30" fill="none" xmlns="http://www.w3.org/2000/svg">
<g clip-path="url(#clip0_1_16804)">
<path d="M12.4499 18.1687C12.7445 19.7388 12.8014 21.3443 12.6187 22.9312C12.2905 25.3125 12.3093 25.1531 12.3093 25.1531C12.3093 25.1531 15.6468 24.6 16.7812 23.325C17.9155 22.05 19.303 17.4469 19.303 17.4469L17.953 15.9375L12.4499 18.1687Z" fill="#8E4028"/>
<path d="M27.1874 15.6657C26.8625 18.5084 25.4238 21.1062 23.1867 22.8899C20.9497 24.6736 18.0966 25.4976 15.253 25.1813C9.37491 24.497 5.99991 19.1251 7.10616 13.2563C8.02491 8.37197 13.0218 3.7501 18.9562 4.41572C24.8905 5.08135 27.8999 9.73134 27.1874 15.6657Z" fill="#8E4028"/>
<path d="M27.1124 15.347C26.4562 21.047 20.3624 27.2626 14.8405 26.597C9.31866 25.9314 6.44991 18.7501 7.09679 13.0501C7.74366 7.35011 11.4374 3.09386 18.2905 3.88136C19.6232 4.0536 20.9088 4.48699 22.0738 5.15672C23.2388 5.82645 24.2602 6.71938 25.0796 7.78438C25.8991 8.84937 26.5004 10.0655 26.8492 11.3632C27.198 12.6609 27.2875 14.0147 27.1124 15.347Z" fill="#8E4028"/>
<path d="M21.486 16.1482C21.9627 11.9971 19.084 8.25706 15.0563 7.79461C11.0287 7.33215 7.37724 10.3224 6.90061 14.4735C6.42398 18.6246 9.30266 22.3646 13.3303 22.8271C17.358 23.2895 21.0094 20.2993 21.486 16.1482Z" fill="#8E4028"/>
<path d="M23.9904 14.4469C23.9904 14.4469 24.4966 17.5594 23.4373 18.75C22.3779 19.9406 26.5685 20.625 26.5685 20.625C26.5685 20.625 28.2373 17.2875 27.881 15.3844C27.5248 13.4812 23.9904 14.4469 23.9904 14.4469Z" fill="#8E4028"/>
<path d="M20.0252 22.4063C21.4502 22.5 18.5346 26.7 16.8752 27.1875C15.0586 27.6432 13.1518 27.5913 11.3627 27.0375C10.1908 26.4938 7.73457 22.1907 7.36895 20.8594C6.9377 19.3313 6.73145 18.4407 6.73145 18.4407C6.73145 18.4407 7.0502 18.6563 7.84707 19.1438C9.1877 19.9219 12.2814 21.9469 20.0252 22.4063Z" fill="#8E4028"/>
<path d="M14.5874 18.8624C14.5874 18.8624 16.9687 18.1124 18.3374 18.8624C18.3374 18.8624 18.9937 19.5843 18.6187 19.7999C18.2437 20.0155 17.7749 20.428 17.4562 20.053C16.6422 19.3754 15.642 18.9603 14.5874 18.8624Z" fill="#8E4028"/>
<path d="M9.19696 17.1094C9.19696 17.1094 8.66258 15.5156 7.53758 15.4219C7.53758 15.4219 6.74071 15.6375 6.75008 15.9656C6.75946 16.2937 6.68446 16.7812 7.09696 16.65C7.83017 16.519 8.5854 16.6842 9.19696 17.1094Z" fill="#8E4028"/>
<path d="M19.4905 22.5L22.903 21.0938L23.503 22.7625C22.0922 24.5595 20.155 25.8706 17.9624 26.5125L19.4905 22.5Z" fill="#8E4028"/>
<path d="M11.7656 16.7063L13.7062 17.1282L14.0156 15.7313L11.7844 15.3L11.7656 16.7063Z" fill="#8E4028"/>
<path d="M14.9155 14.0625C15.4283 13.729 16.0052 13.5067 16.6091 13.4098C17.213 13.3129 17.8305 13.3436 18.4218 13.5C20.2968 14.0625 21.7968 15.7875 20.8968 16.1156C19.9968 16.4437 19.528 15.7125 19.1249 15.0468C18.7218 14.3812 17.2499 13.7812 15.8249 14.9437C15.8249 15 14.9999 14.7093 14.9155 14.0625Z" fill="#8E4028"/>
<path d="M22.4157 8.1657C18.0657 6.60945 11.6063 5.4657 8.14697 9.37507C9.74314 10.1138 11.4114 10.6856 13.1251 11.0813L14.3063 10.6126C18.1876 8.8032 22.3313 9.90007 24.8157 10.9313C24.6517 10.3185 24.3504 9.75097 23.9346 9.27181C23.5188 8.79266 22.9994 8.4144 22.4157 8.1657Z" fill="#8E4028"/>
<path d="M26.6812 7.39685L25.6781 11.0437C25.6781 11.0437 19.9687 7.49997 14.8312 9.8156L13.8281 10.2C13.8281 10.2 8.65306 9.26247 8.27806 8.24997C7.95862 7.77142 7.75213 7.22653 7.67417 6.65647C7.59622 6.08641 7.64884 5.50609 7.82806 4.95935C8.1414 5.59185 8.39864 6.25062 8.59681 6.9281C8.59681 6.9281 8.67181 3.6656 11.0249 2.66247C11.0249 2.66247 10.6593 3.01872 10.8281 4.44372C10.8281 4.44372 15.0281 1.32185 17.9906 1.40622C17.2272 2.12712 16.7593 3.10626 16.6781 4.1531C18.8664 3.34569 21.2137 3.06311 23.5312 3.3281C23.2203 3.99535 22.8058 4.6092 22.3031 5.14685C23.8178 5.78391 25.2814 6.53612 26.6812 7.39685Z" fill="#8E4028"/>
<path d="M22.8843 10.2L21.0093 12.075C22.1762 14.0783 22.7333 16.3785 22.6124 18.6937L27.6843 16.2843L26.8968 10.4625C26.8968 10.4625 24.8249 10.3125 22.8843 10.2Z" fill="#8E4028"/>
<path d="M21.853 17.4656C21.928 17.4656 24.3562 17.0906 24.3562 17.0906L24.4593 17.7375L21.8718 19.1625L22.1249 17.8125L21.853 17.4656Z" fill="#8E4028"/>
<path d="M26.5596 11.4563L21.8721 12.0563C21.8721 12.0563 22.1908 11.6907 22.4908 13.0969C22.4908 13.0969 25.4252 13.3594 25.5752 13.3594C25.7252 13.3594 27.1314 13.0032 27.1314 13.0032L26.5596 11.4563Z" fill="#8E4028"/>
<path d="M23.1563 3.3374C21.8352 4.21725 20.354 4.82884 18.797 5.1374L22.8563 6.49678C21.5312 6.78317 20.1918 6.9991 18.8438 7.14365C18.017 7.19757 17.1957 7.31669 16.3876 7.4999L22.1532 8.35303C22.1532 8.35303 17.6907 8.40928 15.6938 9.50615C15.6938 9.50615 21.1876 8.34365 25.6782 11.053L26.4095 10.7624L28.0032 8.01553C26.701 7.15653 25.2881 6.47845 23.8032 5.9999L22.6501 5.50303C22.6501 5.50303 23.2688 3.92803 23.5313 3.3374H23.1563Z" fill="#8E4028"/>
<path d="M28.0125 7.99692L23.25 7.8938L25.6031 9.04692L21.0469 9.2438C21.0469 9.2438 23.3531 9.55317 24.3094 11.1188L25.0594 11.3719L26.7563 10.9688L28.0125 7.99692Z" fill="#8E4028"/>
<path d="M7.79053 7.26562C8.61601 7.90187 9.57937 8.33538 10.603 8.53125L16.6874 9.02813L13.9687 10.2375C13.9687 10.2375 9.73115 9.62813 8.9624 9.02813C8.43409 8.54481 8.03181 7.93978 7.79053 7.26562Z" fill="#8E4028"/>
<path d="M11.747 2.89697C11.747 2.89697 11.0532 5.42822 11.6907 7.06885C10.9877 6.10358 10.6012 4.94412 10.5845 3.7501C10.6648 3.50425 10.8201 3.28975 11.0286 3.13673C11.2371 2.98371 11.4884 2.89986 11.747 2.89697Z" fill="#8E4028"/>
<path d="M15.9375 1.81885C15.9375 1.81885 13.2 2.75635 12.2625 4.15322C11.7349 4.80324 11.4617 5.62291 11.4937 6.45947C11.7871 5.57679 12.3472 4.80697 13.0969 4.25635C14.1321 3.55282 15.0849 2.73519 15.9375 1.81885Z" fill="#8E4028"/>
<path d="M21.103 3.63762C21.178 3.63762 18.0187 3.56262 16.0687 5.01574C15.039 5.80172 13.948 6.50396 12.8062 7.11574L16.6405 5.71887C16.6405 5.71887 19.5468 3.75012 21.103 3.63762Z" fill="#8E4028"/>
<path d="M24.4782 18.9187C24.4782 18.9187 26.1188 17.7749 26.9532 17.9812C27.7876 18.1874 28.5938 22.1156 25.472 22.4249C22.3501 22.7343 24.4782 18.9187 24.4782 18.9187Z" fill="#8E4028"/>
<path d="M24.3752 19.2468C24.3752 19.2468 26.4002 16.9968 27.4033 17.2031C28.4064 17.4093 29.0627 22.6874 25.3596 22.9687C21.6564 23.2499 24.3752 19.2468 24.3752 19.2468Z" fill="#8E4028"/>
<path d="M24.7498 18.6937C25.3736 18.2941 26.0911 18.0646 26.831 18.0281C27.5435 18.1781 28.0873 21.7031 25.4435 21.8625C22.7998 22.0218 24.7498 18.6937 24.7498 18.6937Z" fill="#8E4028"/>
<path d="M24.3748 18.9562C25.0006 18.5608 25.7169 18.3317 26.456 18.2905C27.1685 18.4405 27.7123 21.9749 25.0685 22.1249C22.4248 22.2749 24.3748 18.9562 24.3748 18.9562Z" fill="#8E4028"/>
<path d="M14.6437 25.5001C13.4437 26.7751 10.6124 26.0063 10.7812 24.8157L14.6437 25.5001Z" fill="#8E4028"/>
<path d="M17.8125 22.8282C17.2587 23.0029 16.6858 23.1099 16.1062 23.147C13.8458 23.1406 11.5969 22.8252 9.42188 22.2095C9.71034 22.4051 10.0263 22.5568 10.3594 22.6595C10.6461 23.1147 10.8316 23.6263 10.9031 24.1595C10.6781 24.1595 10.4719 24.3001 10.1156 24.1595C11.5828 24.9507 13.2675 25.2435 14.9156 24.9938C16.0895 24.5202 17.1835 23.8688 18.1594 23.0626C18.0362 22.9963 17.92 22.9178 17.8125 22.8282Z" fill="#8E4028"/>
<path d="M18.2999 22.7156C18.2334 22.6708 18.1707 22.6206 18.1124 22.5656H18.178C18.1083 22.5358 18.0422 22.498 17.9812 22.4531C17.388 22.7214 16.7544 22.8893 16.1062 22.95C13.8316 22.9799 11.5703 22.5988 9.43115 21.825V22.2187C9.73902 22.428 10.082 22.5805 10.4437 22.6687C10.6894 23.2007 10.8173 23.7795 10.8187 24.3656C10.547 24.3275 10.2799 24.2615 10.0218 24.1687C11.5312 25.2843 15.2249 25.7812 16.1437 25.3875C16.8468 25.0781 17.1749 24.1124 18.2812 22.7062L18.2999 22.7156Z" fill="#8E4028"/>
<path d="M10.7812 22.8468C10.9839 23.2463 11.1171 23.6775 11.175 24.1218V24.1874C11.3464 24.2597 11.5216 24.3223 11.7 24.3749C12.2921 24.5686 12.901 24.7067 13.5188 24.7874C13.9404 24.8625 14.3721 24.8625 14.7937 24.7874C15.3596 24.5795 15.9004 24.3091 16.4062 23.9812C16.7625 23.7562 17.1 23.5312 17.4375 23.2874C17.0064 23.3829 16.5665 23.4331 16.125 23.4374C14.3306 23.4283 12.5422 23.2272 10.7906 22.8374L10.7812 22.8468Z" fill="#8E4028"/>
<path d="M10.7812 22.8469C10.8393 23.0793 10.9275 23.3031 11.0437 23.5125C11.2248 23.6107 11.4128 23.6953 11.6063 23.7657C11.4974 23.7774 11.3958 23.8254 11.3175 23.9019C11.2393 23.9784 11.1891 24.079 11.175 24.1875C12.0375 24.525 14.5969 25.0032 15.4594 24.7125C15.7629 24.6356 16.0581 24.5288 16.3406 24.3938C15.9491 24.2858 15.5516 24.2013 15.15 24.1407C15.6122 24.1203 16.0652 24.0055 16.4812 23.8032C16.6485 23.6957 16.7818 23.5429 16.8656 23.3625C16.6178 23.4056 16.3671 23.4307 16.1156 23.4375C14.3218 23.4269 12.534 23.229 10.7812 22.8469Z" fill="#8E4028"/>
<path d="M10.8936 23.1938C10.9342 23.3043 10.9844 23.4109 11.0436 23.5126C11.2246 23.6107 11.4126 23.6953 11.6061 23.7657C11.4973 23.7774 11.3956 23.8254 11.3173 23.9019C11.2391 23.9785 11.1889 24.0791 11.1748 24.1876C12.2634 24.6276 13.4328 24.8321 14.6061 24.7876C14.8718 24.4965 15.0391 24.1292 15.0842 23.7376C13.6742 23.6775 12.2721 23.4956 10.8936 23.1938Z" fill="#8E4028"/>
<path d="M20.1374 20.3345C19.2383 20.2538 18.3342 20.419 17.5218 20.8126C16.8093 20.8528 16.0952 20.7671 15.4124 20.5595C13.8281 19.4157 14.4749 17.747 15.4124 16.6407C15.6094 16.3972 15.8683 16.2113 16.1619 16.1024C16.4556 15.9935 16.7731 15.9658 17.0812 16.022C18.2633 16.1861 19.4063 16.5607 20.4562 17.1282C20.7562 17.8689 21.0562 20.0532 20.1187 20.3251L20.1374 20.3345Z" fill="#8E4028"/>
<path d="M20.1375 20.3345C19.3191 20.3153 18.5074 20.4853 17.7656 20.8313C17.0505 20.7997 16.3463 20.6443 15.6843 20.372C15.3363 19.8797 15.1761 19.2789 15.2329 18.6787C15.2896 18.0785 15.5596 17.5184 15.9937 17.1001C16.9312 16.922 19.9031 17.4657 20.5031 18.1407C20.682 18.4965 20.743 18.8999 20.6773 19.2927C20.6115 19.6854 20.4225 20.047 20.1375 20.3251V20.3345Z" fill="#8E4028"/>
<path d="M15.2905 18.3563C15.5449 17.6839 15.9305 17.0688 16.4249 16.5469C17.3624 16.3594 19.4905 16.425 20.0905 17.0906C20.3684 17.7133 20.579 18.3639 20.7187 19.0313C19.6124 19.9688 15.7687 20.025 15.328 18.5063C15.3248 18.4563 15.3248 18.4062 15.328 18.3563H15.2905Z" fill="#8E4028"/>
<path d="M20.0811 17.8126C20.248 17.9866 20.3781 18.1926 20.4634 18.4181C20.5488 18.6437 20.5878 18.8841 20.5779 19.1251C20.5509 19.5723 20.3529 19.9919 20.0248 20.297C19.409 20.3018 18.7979 20.4063 18.2154 20.6063C17.8969 20.4634 17.629 20.2276 17.4467 19.9298C17.2644 19.6321 17.1762 19.2863 17.1936 18.9376C17.2146 18.538 17.3754 18.1585 17.6479 17.8655C17.9204 17.5724 18.2872 17.3845 18.6842 17.3345C19.1663 17.4408 19.6349 17.6012 20.0811 17.8126Z" fill="#8E4028"/>
<path d="M18.9377 18.0657C19.1375 18.0717 19.3309 18.1373 19.4932 18.254C19.6554 18.3708 19.7791 18.5333 19.8484 18.7208C19.9177 18.9083 19.9293 19.1122 19.8819 19.3064C19.8345 19.5006 19.7301 19.6762 19.5822 19.8106C19.4343 19.9451 19.2496 20.0323 19.0518 20.0611C18.854 20.0898 18.6521 20.0588 18.472 19.9721C18.2919 19.8853 18.1419 19.7467 18.0411 19.5741C17.9403 19.4015 17.8934 19.2027 17.9064 19.0032C17.921 18.7429 18.0372 18.4987 18.2301 18.3234C18.4231 18.148 18.6772 18.0555 18.9377 18.0657Z" fill="#8E4028"/>
<path d="M10.6217 14.8969C11.039 16.3465 10.8812 17.9013 10.1811 19.2375C9.60052 19.4383 8.97801 19.486 8.37366 19.376C7.76932 19.2659 7.20356 19.0019 6.73105 18.6094C6.38418 17.2125 6.58105 15.225 7.58418 14.25C7.80505 14.0376 8.07462 13.8825 8.36932 13.7984C8.66401 13.7142 8.97483 13.7036 9.27458 13.7674C9.57432 13.8313 9.85385 13.9676 10.0887 14.1645C10.3235 14.3614 10.5065 14.6129 10.6217 14.8969Z" fill="#8E4028"/>
<path d="M10.6313 15.3281C11.0324 16.7399 10.9194 18.2482 10.3125 19.5844C9.13053 19.6437 7.96163 19.3144 6.98439 18.6469C6.8202 17.975 6.81965 17.2736 6.98278 16.6015C7.14592 15.9294 7.46797 15.3062 7.92189 14.7844C8.11412 14.5887 8.35213 14.4439 8.61437 14.3633C8.87661 14.2827 9.1548 14.2688 9.42379 14.3228C9.69277 14.3768 9.94404 14.497 10.1549 14.6725C10.3657 14.8481 10.5294 15.0734 10.6313 15.3281Z" fill="#8E4028"/>
<path d="M10.6596 15.7124C10.8715 16.2415 10.9394 16.8173 10.8564 17.3812C9.91895 18.5531 7.10645 18.3937 7.10645 16.1343C7.25924 15.6141 7.53961 15.1404 7.92207 14.7562C8.7752 13.9218 10.2096 14.5499 10.6596 15.7124Z" fill="#8E4028"/>
<path d="M9.68455 15.3939C10.1365 15.4721 10.5401 15.7235 10.8097 16.0947C11.0793 16.4658 11.1936 16.9273 11.1283 17.3814C11.1283 18.2439 10.472 19.2564 9.46892 19.2001C9.01757 19.1219 8.61477 18.8701 8.34669 18.4987C8.07862 18.1272 7.96658 17.6656 8.03455 17.2126C8.08142 16.3407 8.6908 15.3376 9.68455 15.3939Z" fill="#8E4028"/>
<path d="M9.64685 16.1719C9.90945 16.2222 10.1423 16.3725 10.2962 16.5911C10.4501 16.8097 10.5131 17.0796 10.4718 17.3438C10.4849 17.6087 10.3944 17.8684 10.2194 18.0679C10.0445 18.2673 9.79878 18.3909 9.53435 18.4125C9.27135 18.3666 9.03711 18.2188 8.8826 18.001C8.7281 17.7833 8.66583 17.5134 8.70935 17.25C8.69617 16.984 8.7864 16.7232 8.96115 16.5223C9.1359 16.3213 9.38161 16.1958 9.64685 16.1719Z" fill="#8E4028"/>
<path d="M9.89043 15.1874C10.0024 15.1838 10.1139 15.2036 10.2178 15.2454C10.3218 15.2873 10.4158 15.3504 10.494 15.4306C10.5722 15.5109 10.6328 15.6065 10.6719 15.7115C10.7111 15.8165 10.7279 15.9285 10.7214 16.0403C10.7148 16.1522 10.6851 16.2614 10.6339 16.3611C10.5828 16.4608 10.5115 16.5488 10.4245 16.6194C10.3375 16.6899 10.2367 16.7416 10.1286 16.7711C10.0205 16.8006 9.90747 16.8072 9.79668 16.7905C9.6847 16.7942 9.57319 16.7744 9.46927 16.7325C9.36535 16.6907 9.2713 16.6276 9.19312 16.5473C9.11493 16.4671 9.05433 16.3714 9.01518 16.2665C8.97603 16.1615 8.95919 16.0495 8.96573 15.9376C8.97227 15.8258 9.00205 15.7165 9.05317 15.6168C9.10429 15.5172 9.17563 15.4292 9.26263 15.3586C9.34964 15.288 9.4504 15.2363 9.55849 15.2069C9.66658 15.1774 9.77963 15.1708 9.89043 15.1874Z" fill="#8E4028"/>
<path d="M19.622 17.1563C19.7782 17.1802 19.9241 17.249 20.042 17.3542C20.1599 17.4595 20.2446 17.5968 20.286 17.7493C20.3273 17.9019 20.3234 18.0631 20.2748 18.2135C20.2262 18.3639 20.1349 18.4969 20.0121 18.5964C19.8893 18.6959 19.7402 18.7575 19.583 18.7739C19.4258 18.7902 19.2673 18.7605 19.1266 18.6884C18.986 18.6163 18.8693 18.5049 18.7908 18.3677C18.7123 18.2305 18.6754 18.0735 18.6845 17.9157C18.7127 17.6927 18.826 17.4892 19.0007 17.3477C19.1753 17.2062 19.3979 17.1376 19.622 17.1563Z" fill="#8E4028"/>
<path d="M13.5564 15.9376C13.3116 17.2412 13.2203 18.569 13.2846 19.8938C13.2846 19.8938 17.8408 21.5251 21.6096 20.3626L22.5002 17.8126C22.5002 17.8126 17.8127 15.7501 13.5564 15.9376ZM20.9721 20.5126C17.8127 21.4032 13.8658 19.9126 13.8658 19.9126C13.8089 18.6585 13.8811 17.4019 14.0814 16.1626C17.6533 16.0782 21.8064 18.3938 21.8064 18.3938L20.9721 20.5126Z" fill="#8E4028"/>
<path d="M13.575 15.6375C13.2946 17.0538 13.1751 18.4974 13.2187 19.9406C13.2187 19.9406 17.85 21.6937 21.6562 20.5312L22.8281 17.6062C22.8281 17.6062 17.8125 15.4593 13.575 15.6375ZM20.9906 20.2125C17.8312 21.0937 13.8844 19.6125 13.8844 19.6125C13.8299 18.4507 13.9117 17.2865 14.1281 16.1437C16.8132 16.2487 19.4579 16.8329 21.9375 17.8687L20.9906 20.2125Z" fill="#8E4028"/>
<path d="M15.3374 14.2687L14.8687 13.9593C14.8687 13.9593 16.7437 11.6249 18.8905 12.9187C21.0374 14.2124 21.0843 15.4031 21.0843 15.4031C21.0843 15.4031 18.3843 12 15.3374 14.2687Z" fill="#8E4028"/>
<path d="M5.11895 15.6L6.5627 15.2343V14.8593C6.07574 14.7744 5.57777 14.7744 5.09082 14.8593L5.11895 15.6Z" fill="#8E4028"/>
<path d="M7.63115 14.6344L5.30615 14.5781L5.6249 17.9437L7.14365 18.5625C7.14365 18.5625 6.85303 15.4125 7.63115 14.6344Z" fill="#B79576"/>
<path d="M12.6749 17.9532C12.9532 19.4336 13.007 20.9475 12.8343 22.4438C12.5249 24.6845 12.5437 24.5345 12.5437 24.5345C12.5437 24.5345 15.6843 24.0188 16.7531 22.8188C17.8218 21.6188 19.1343 17.2688 19.1343 17.2688L17.8593 15.8345L12.6749 17.9532Z" fill="#FCC097"/>
<path d="M26.5033 16.0218C25.8658 21.6468 20.8783 25.1999 15.3095 24.5531C9.74079 23.9062 6.72204 18.7499 7.77204 13.1999C8.27837 10.7149 9.68263 8.5036 11.7165 6.9886C13.7503 5.4736 16.2711 4.76116 18.797 4.98744C24.3752 5.62494 27.1877 10.4249 26.5033 16.0218Z" fill="#E8BD89"/>
<path d="M26.4845 15.2906C25.8751 20.6625 20.1282 26.5406 14.9157 25.9218C9.70324 25.3031 7.01261 18.4968 7.63136 13.125C8.25011 7.75308 11.6251 4.5187 18.0845 5.25933C23.2876 5.84995 27.1032 9.9187 26.4845 15.2906Z" fill="#E8BD89"/>
<path d="M21.184 16.0475C21.6335 12.133 18.9205 8.60637 15.1243 8.17049C11.3281 7.73462 7.88633 10.5546 7.43687 14.4691C6.98741 18.3836 9.70046 21.9102 13.4966 22.3461C17.2928 22.782 20.7346 19.962 21.184 16.0475Z" fill="#FFD097"/>
<path d="M23.5404 14.4469C23.5404 14.4469 24.0186 17.3813 23.0529 18.5344C22.0873 19.6875 25.9779 20.2313 25.9779 20.2313C25.9779 20.2313 27.5436 17.0906 27.2061 15.2906C26.8686 13.4906 23.5404 14.4469 23.5404 14.4469Z" fill="#63310F"/>
<path d="M19.8095 21.9374C21.1501 22.0218 18.4032 25.9968 16.8657 26.428C15.1514 26.8507 13.3533 26.7891 11.672 26.2499C10.5751 25.7343 8.2501 21.6843 7.92197 20.4374C7.79039 19.9013 7.6308 19.3724 7.44385 18.853C7.44385 18.853 7.67822 18.853 8.4376 19.2843C9.64697 20.0624 12.5157 21.5624 19.8095 21.9374Z" fill="#D8B18B"/>
<path d="M14.6812 18.6094C14.6812 18.6094 16.9312 17.8969 18.2249 18.6094C18.2249 18.6094 18.8437 19.2844 18.4874 19.4906C18.1312 19.6969 17.6905 20.0813 17.3999 19.725C16.6284 19.085 15.6799 18.6957 14.6812 18.6094Z" fill="#343F3D"/>
<path d="M9.59992 16.9501C9.59992 16.9501 9.10305 15.4501 8.04367 15.3657C8.04367 15.3657 7.29367 15.572 7.30305 15.872C7.31242 16.172 7.23742 16.6407 7.6218 16.5282C7.96302 16.4637 8.31366 16.4678 8.65329 16.5402C8.99291 16.6127 9.31472 16.752 9.59992 16.9501Z" fill="#343F3D"/>
<path d="M8.1377 10.6781C8.1377 10.6781 8.93457 9.23438 11.7096 10.4719L10.4158 7.5C9.38414 8.26991 8.60167 9.32624 8.16582 10.5375" fill="#E5895B"/>
<path d="M12.0842 12.8718L14.0154 13.4062L13.4061 20.4187L10.8936 20.2593L12.0842 12.8718Z" fill="#D8B18B"/>
<path d="M19.3127 22.003L22.5002 20.6812L23.0627 22.2562C21.7324 23.9471 19.9065 25.1796 17.8408 25.7812L19.3127 22.003Z" fill="#B79576"/>
<path d="M12.0283 16.575L13.8471 16.9688L14.1471 15.6563L12.0471 15.2532L12.0283 16.575Z" fill="#343F3D"/>
<path d="M15 14.0626C15.4823 13.7481 16.0251 13.5381 16.5934 13.4461C17.1618 13.3541 17.7431 13.382 18.3 13.5282C20.1 14.0626 21.4875 15.6844 20.6438 15.9938C19.8 16.3032 19.35 15.6188 18.975 14.9907C18.6 14.3626 17.2406 13.8001 15.8531 14.8969C15.8437 14.9251 15.0844 14.6907 15 14.0626Z" fill="#63310F"/>
<path d="M22.0594 8.52189C17.9625 7.05939 11.6063 5.62501 8.34375 9.37501C9.94932 10.1192 11.6068 10.7459 13.3031 11.25L14.4188 10.8094C18.0656 9.10314 21.9188 10.1344 24.3094 11.1C24.1525 10.5287 23.8687 10.0001 23.4791 9.55376C23.0895 9.10737 22.6042 8.75465 22.0594 8.52189Z" fill="#63310F"/>
<path d="M26.0814 7.79997L25.1439 11.2406C25.1439 11.2406 19.7626 7.87497 14.9251 10.0781L13.9876 10.4437C13.9876 10.4437 9.11263 9.50622 8.75638 8.56872C8.45641 8.11864 8.26257 7.60631 8.18949 7.07038C8.11641 6.53446 8.166 5.98893 8.33451 5.47497C8.62845 6.07811 8.86997 6.70543 9.05638 7.34997C9.05638 7.34997 9.13138 4.27497 11.3439 3.33747C11.3439 3.33747 11.0064 3.66559 11.1658 5.00622C11.1658 5.00622 14.1845 2.00622 16.9689 2.08122C16.2877 2.84084 15.873 3.80198 15.7876 4.81872C18.1568 4.04944 20.6547 3.75632 23.1376 3.95622C22.8406 4.58669 22.445 5.16582 21.9658 5.67184C23.3907 6.27341 24.7668 6.98493 26.0814 7.79997Z" fill="url(#paint0_linear_1_16804)"/>
<path d="M22.5002 10.4438L20.7471 12.1876C21.8479 14.0704 22.3726 16.2347 22.2564 18.4126L27.0377 16.1532L26.2502 10.6876C26.2502 10.6876 24.3752 10.5095 22.5002 10.4438Z" fill="#63310F"/>
<path d="M21.5625 17.2874C21.6375 17.2874 23.925 16.9312 23.925 16.9312L24.0188 17.5499L21.5625 18.8905L21.7969 17.5687L21.5625 17.2874Z" fill="#343F3D"/>
<path d="M25.9688 11.625L21.5625 12.1875C21.5625 12.1875 21.8719 11.85 22.1531 13.1719C22.1531 13.1719 24.9187 13.4156 25.0594 13.4156C25.2 13.4156 26.25 13.125 26.25 13.125L25.9688 11.625Z" fill="url(#paint1_linear_1_16804)"/>
<path d="M22.7533 3.97495C21.5088 4.80376 20.1136 5.38028 18.6471 5.67183L22.5002 6.94683C21.2619 7.21884 20.0102 7.42538 18.7502 7.56558C17.9742 7.61553 17.2031 7.72523 16.4439 7.8937L21.8721 8.69995C21.8721 8.69995 17.6721 8.74683 15.7783 9.77808C15.7783 9.77808 20.9627 8.6812 25.1533 11.2406L25.8471 10.9593L27.0939 8.2687C25.9407 7.48733 24.6766 6.88372 23.3439 6.47808L22.2564 6.00933C22.2564 6.00933 22.8377 4.52808 23.0908 3.96558L22.7533 3.97495Z" fill="#B85A1B"/>
<path d="M27.3374 8.36255L22.8468 8.2688L25.0687 9.37505L20.7749 9.56255C21.9763 9.70822 23.0748 10.3129 23.8405 11.25L24.553 11.4938L26.1562 11.1094L27.3374 8.36255Z" fill="#63310F"/>
<path d="M8.27832 7.6687C9.05117 8.27396 9.95768 8.68543 10.9221 8.8687L16.6502 9.33745L14.0627 10.4718C14.0627 10.4718 10.0689 9.90933 9.3752 9.33745C8.87987 8.8782 8.50346 8.30555 8.27832 7.6687Z" fill="#B85A1B"/>
<path d="M11.2501 3.3374C10.9121 4.62496 10.9121 5.97797 11.2501 7.26553C10.5813 6.35073 10.2172 5.24871 10.2095 4.11553C10.2835 3.89556 10.4227 3.70332 10.6086 3.56434C10.7944 3.42536 11.0182 3.34621 11.2501 3.3374Z" fill="#B85A1B"/>
<path d="M15.9377 2.54053C15.9377 2.54053 13.3596 3.42178 12.4783 4.74365C11.9818 5.35709 11.7253 6.13009 11.7564 6.91865C12.0308 6.08476 12.5584 5.35722 13.2658 4.8374C14.2423 4.17776 15.139 3.40698 15.9377 2.54053Z" fill="#FFBA7B"/>
<path d="M20.8221 4.25623C19.1504 4.24113 17.5077 4.6924 16.0783 5.55935C15.1104 6.2877 14.0851 6.93668 13.0127 7.49998L16.6221 6.1781C16.6221 6.1781 19.3596 4.34998 20.8221 4.25623Z" fill="#FFBA7B"/>
<path d="M24.0093 18.6562C24.0093 18.6562 25.5468 17.5874 26.3437 17.7187C27.1405 17.8499 27.8905 21.6187 24.9374 21.9093C21.9843 22.1999 24.0093 18.6562 24.0093 18.6562Z" fill="#63310F"/>
<path d="M23.8877 18.9656C23.8877 18.9656 25.7627 16.8468 26.7002 17.0437C27.6377 17.2406 28.3127 22.2093 24.8252 22.4718C21.3377 22.7343 23.8877 18.9656 23.8877 18.9656Z" fill="#E8BD89"/>
<path d="M24.2625 18.4406C24.8586 18.061 25.5439 17.8445 26.25 17.8125C26.925 17.9437 27.4312 21.2719 24.9469 21.4219C22.4625 21.5719 24.2625 18.4406 24.2625 18.4406Z" fill="#C18053"/>
<path d="M23.9342 18.6938C24.5219 18.3181 25.1971 18.1016 25.8936 18.0657C26.5686 18.2063 27.0749 21.5344 24.5905 21.6844C22.1061 21.8344 23.9342 18.6938 23.9342 18.6938Z" fill="#CE9D67"/>
<path d="M14.7376 24.8531C13.6032 26.0625 10.9407 25.3312 11.1001 24.2156L14.7376 24.8531Z" fill="#FFBC8F"/>
<path d="M17.747 22.3406C17.2213 22.509 16.6763 22.6098 16.1251 22.6406C13.9975 22.6306 11.8812 22.331 9.83447 21.75C10.0935 21.9312 10.3778 22.0734 10.6782 22.1719C10.9512 22.6005 11.1272 23.0837 11.1938 23.5875C10.9876 23.5875 10.7907 23.7187 10.4532 23.5875C11.84 24.3458 13.4391 24.6227 15.0001 24.375C16.1115 23.9384 17.1464 23.3276 18.0657 22.5656C17.9503 22.5046 17.8432 22.4289 17.747 22.3406Z" fill="#9A4C18"/>
<path d="M18.1781 22.2375L18 22.0969H18.0656C17.999 22.0669 17.936 22.0291 17.8781 21.9844C17.3284 22.2404 16.7384 22.399 16.1344 22.4532C13.9908 22.4815 11.8598 22.1226 9.84375 21.3938V21.7688C10.1293 21.963 10.4466 22.1058 10.7812 22.1907C11.009 22.6912 11.1273 23.2345 11.1281 23.7844C10.876 23.7497 10.6279 23.69 10.3875 23.6063C11.8031 24.6563 15.2812 25.125 16.1437 24.75C16.8094 24.4594 17.0813 23.55 18.1594 22.2282L18.1781 22.2375Z" fill="#63310F"/>
<path d="M11.0999 22.3594C11.292 22.7345 11.4158 23.1409 11.4655 23.5594V23.625L11.9624 23.8031C12.5202 23.9875 13.0949 24.1163 13.678 24.1875C14.0749 24.258 14.4811 24.258 14.878 24.1875C15.4137 23.995 15.9262 23.7434 16.4062 23.4375C16.7437 23.2312 17.0624 23.0156 17.3437 22.7906C16.9344 22.8881 16.517 22.9478 16.0968 22.9687C14.4064 22.9624 12.7217 22.7738 11.0718 22.4062L11.0999 22.3594Z" fill="#792936"/>
<path d="M11.1001 22.3594C11.1548 22.5795 11.24 22.7909 11.3532 22.9875C11.5217 23.0822 11.6972 23.1636 11.8782 23.2313C11.7752 23.2408 11.6783 23.2849 11.6035 23.3564C11.5286 23.4278 11.4801 23.5225 11.4657 23.625C12.7622 24.075 14.1395 24.2444 15.5063 24.1219C15.7926 24.0421 16.0717 23.9386 16.3407 23.8125C16.2001 23.7375 15.4032 23.625 15.2157 23.5781C15.6516 23.5572 16.0788 23.4488 16.472 23.2594C16.629 23.1602 16.7529 23.0166 16.8282 22.8469C16.5959 22.8869 16.3608 22.9088 16.1251 22.9125C14.4351 22.9093 12.7504 22.7238 11.1001 22.3594Z" fill="url(#paint2_linear_1_16804)"/>
<path d="M11.25 22.6875C11.2867 22.7936 11.3371 22.8945 11.4 22.9875C11.5685 23.0822 11.744 23.1636 11.925 23.2312C11.8219 23.2408 11.7251 23.2849 11.6503 23.3564C11.5754 23.4278 11.5268 23.5225 11.5125 23.625C12.539 24.0382 13.6412 24.2299 14.7469 24.1875C14.9959 23.9143 15.1532 23.5702 15.1969 23.2031C13.869 23.1431 12.5487 22.9706 11.25 22.6875Z" fill="url(#paint3_linear_1_16804)"/>
<path d="M19.922 19.997C19.0745 19.9204 18.2221 20.076 17.4563 20.447C16.7824 20.4786 16.1078 20.3994 15.4595 20.2126C13.9688 19.1251 14.6157 17.5501 15.4595 16.5095C15.6506 16.2814 15.8989 16.1083 16.1789 16.0078C16.459 15.9073 16.7607 15.8831 17.0532 15.9376C18.1664 16.0912 19.2429 16.4437 20.2313 16.9782C20.522 17.6813 20.7938 19.7345 19.9126 19.997H19.922Z" fill="#343F3D"/>
<path d="M19.9221 19.997C19.1501 19.9792 18.3841 20.1362 17.6815 20.4564C17.0048 20.4309 16.3381 20.2849 15.7127 20.0251C15.3871 19.5602 15.2376 18.9946 15.2908 18.4295C15.3441 17.8644 15.5966 17.3367 16.0034 16.9407C16.9409 16.772 19.4721 17.2595 20.0346 17.8782C20.2129 18.2168 20.2754 18.6044 20.2128 18.9819C20.1502 19.3594 19.9658 19.706 19.6877 19.9689L19.9221 19.997Z" fill="url(#paint4_linear_1_16804)"/>
<path d="M15.3467 18.1218C15.5893 17.4893 15.9522 16.9098 16.4154 16.4155C17.3529 16.2468 19.3029 16.303 19.8654 16.9311C20.0809 17.5369 20.2226 18.1665 20.2873 18.8061C19.2561 19.7436 15.7967 19.7436 15.3842 18.2624C15.3788 18.2157 15.3788 18.1685 15.3842 18.1218H15.3467Z" fill="white"/>
<path d="M17.6718 17.5875C17.2496 17.388 16.8062 17.237 16.3499 17.1375C16.0038 17.1909 15.6842 17.355 15.4391 17.6052C15.1939 17.8553 15.0363 18.1782 14.9899 18.5253C14.9435 18.8725 15.0107 19.2254 15.1815 19.5312C15.3523 19.837 15.6175 20.0793 15.9374 20.2218C16.4829 20.0321 17.0568 19.937 17.6343 19.9406C17.9416 19.6506 18.129 19.2558 18.1593 18.8343C18.1663 18.6044 18.1267 18.3754 18.043 18.1611C17.9592 17.9468 17.8329 17.7517 17.6718 17.5875Z" fill="#343F3D"/>
<path d="M10.9501 14.8688C11.3405 16.2339 11.1929 17.6967 10.5376 18.9563C9.96684 19.1651 9.35334 19.2299 8.75152 19.1449C8.14971 19.0598 7.57818 18.8276 7.08762 18.4688C6.92448 17.737 6.93002 16.9777 7.10382 16.2484C7.27762 15.5191 7.61512 14.8389 8.09074 14.2594C8.29293 14.047 8.54617 13.8901 8.82629 13.8034C9.10641 13.7168 9.40406 13.7034 9.69083 13.7645C9.97761 13.8256 10.2439 13.9592 10.4644 14.1525C10.6848 14.3458 10.8521 14.5924 10.9501 14.8688Z" fill="#343F3D"/>
<path d="M10.9593 15.2718C11.3356 16.6036 11.2259 18.0259 10.6499 19.2843C9.52803 19.3397 8.41966 19.0197 7.49992 18.3749C7.34246 17.7438 7.33861 17.0842 7.48868 16.4513C7.63875 15.8184 7.93837 15.2307 8.36242 14.7374C8.54567 14.5462 8.77447 14.4045 9.02738 14.3257C9.2803 14.2469 9.54906 14.2336 9.80853 14.287C10.068 14.3404 10.3097 14.4588 10.5109 14.631C10.7122 14.8032 10.8665 15.0237 10.9593 15.2718Z" fill="url(#paint5_linear_1_16804)"/>
<path d="M10.9783 15.6374C11.1803 16.133 11.2482 16.673 11.1752 17.2031C10.2377 18.3093 7.64082 18.1406 7.62207 16.0406C7.76161 15.5493 8.02279 15.1011 8.38144 14.7374C9.20644 13.9499 10.5564 14.5406 10.9783 15.6374Z" fill="white"/>
<path d="M10.0687 15.3374C10.4939 15.4133 10.8731 15.651 11.1266 16.0007C11.3801 16.3504 11.4882 16.7847 11.4281 17.2124C11.4281 18.028 10.7999 18.9749 9.86243 18.9187C9.43725 18.8428 9.05804 18.605 8.80454 18.2554C8.55103 17.9057 8.44296 17.4713 8.50306 17.0437C8.49253 16.6119 8.64978 16.193 8.94175 15.8748C9.23371 15.5566 9.63766 15.364 10.0687 15.3374Z" fill="#343F3D"/>
<path d="M10.022 16.0688C10.1477 16.0868 10.2684 16.1302 10.3769 16.1963C10.4853 16.2623 10.5792 16.3497 10.6528 16.4532C10.7265 16.5566 10.7783 16.674 10.8053 16.7981C10.8322 16.9222 10.8336 17.0504 10.8095 17.1751C10.8199 17.3044 10.8033 17.4344 10.7609 17.5569C10.7184 17.6795 10.651 17.7919 10.5629 17.887C10.4748 17.9822 10.3679 18.0581 10.249 18.1098C10.13 18.1615 10.0017 18.188 9.87198 18.1876C9.74628 18.1696 9.62555 18.1262 9.51711 18.0602C9.40866 17.9941 9.31478 17.9067 9.24113 17.8033C9.16749 17.6998 9.11564 17.5825 9.08871 17.4584C9.06178 17.3343 9.06034 17.206 9.08448 17.0813C9.07682 16.8234 9.17078 16.5727 9.34612 16.3833C9.52147 16.194 9.76418 16.081 10.022 16.0688Z" fill="#343F3D"/>
<path d="M10.2563 15.1407C10.4038 15.1628 10.5418 15.2274 10.6532 15.3266C10.7647 15.4258 10.8449 15.5552 10.8841 15.6992C10.9232 15.8432 10.9197 15.9954 10.8738 16.1374C10.8279 16.2794 10.7416 16.4049 10.6256 16.4988C10.5096 16.5926 10.3688 16.6506 10.2203 16.6657C10.0719 16.6809 9.92225 16.6525 9.78967 16.5841C9.65708 16.5156 9.54728 16.4101 9.47365 16.2803C9.40002 16.1505 9.36575 16.0021 9.37502 15.8532C9.39864 15.6424 9.50439 15.4494 9.66935 15.316C9.83431 15.1826 10.0452 15.1196 10.2563 15.1407Z" fill="#FFFFFC"/>
<path d="M16.5843 16.9782C16.7293 17.0021 16.8642 17.0674 16.9727 17.1664C17.0812 17.2654 17.1587 17.3937 17.1958 17.5358C17.2329 17.678 17.228 17.8278 17.1816 17.9672C17.1352 18.1065 17.0495 18.2295 16.9346 18.3211C16.8198 18.4127 16.6809 18.4691 16.5347 18.4833C16.3885 18.4976 16.2413 18.4691 16.111 18.4014C15.9806 18.3337 15.8727 18.2296 15.8003 18.1018C15.7279 17.974 15.6941 17.828 15.7031 17.6813C15.7289 17.4722 15.8357 17.2816 16.0004 17.1501C16.1651 17.0187 16.3747 16.957 16.5843 16.9782Z" fill="#FFFFFC"/>
<path d="M13.7061 15.8438C13.4784 17.0799 13.3934 18.3382 13.453 19.5937C13.453 19.5937 17.7561 21.1313 21.3092 20.0344L22.153 17.6625C19.4819 16.5144 16.613 15.8967 13.7061 15.8438ZM20.6999 20.1562C17.7186 20.9906 14.0061 19.5844 14.0061 19.5844C13.9528 18.4054 14.0219 17.2241 14.2124 16.0594C17.578 15.975 21.4874 18.1687 21.4874 18.1687L20.6999 20.1562Z" fill="white"/>
<path d="M5.12793 14.9437C5.21991 15.9545 5.38599 16.9572 5.6248 17.9437C7.51686 19.1134 9.79128 19.497 11.9623 19.0124L12.2904 15.7218C12.2904 15.7218 7.4248 14.1749 5.12793 14.9437ZM11.5217 19.1249C8.76543 19.8562 5.89668 18.1874 5.89668 18.1874C5.64874 17.071 5.46718 15.9409 5.35293 14.803C7.36856 14.278 11.7373 16.528 11.7373 16.528L11.5217 19.1249Z" fill="white"/>
<path d="M13.7252 15.5719C13.4638 16.9053 13.3506 18.2636 13.3877 19.6219C13.3877 19.6219 17.7565 21.2719 21.3096 20.1844L22.4159 17.3719C22.4159 17.3719 17.719 15.3938 13.7252 15.5719ZM20.719 19.875C17.7377 20.7094 14.0252 19.3125 14.0252 19.3125C13.9724 18.2169 14.0479 17.1188 14.2502 16.0406C16.7836 16.1373 19.2792 16.6865 21.619 17.6625L20.719 19.875Z" fill="#343F3D"/>
<path d="M5.0625 14.5688C5.14991 15.7442 5.3159 16.9124 5.55937 18.0657C6.49561 18.6841 7.5458 19.1096 8.64848 19.3173C9.75116 19.525 10.8842 19.5106 11.9812 19.275L12.2813 15.3563C12.2813 15.3563 7.37812 13.8 5.0625 14.5688ZM11.5312 18.75C8.71875 19.4813 5.85 17.8125 5.85 17.8125C5.62985 16.8591 5.47945 15.8909 5.4 14.9157C7.43438 14.3813 11.7562 15.7594 11.7562 15.7594L11.5312 18.75Z" fill="#343F3D"/>
<path d="M15.3938 14.2782L14.9438 13.9782C14.9438 13.9782 16.7532 11.7844 18.6938 13.0407C20.6345 14.2969 20.7657 15.3844 20.7657 15.3844C20.7657 15.3844 18.2626 12.1875 15.3938 14.2782Z" fill="url(#paint6_linear_1_16804)"/>
<path d="M7.93105 14.2876L7.2373 13.4344C7.2373 13.4344 8.38105 11.1282 10.6686 11.6251C12.5436 12.0282 12.6467 11.5782 13.0967 14.7938C12.4671 14.0596 11.5782 13.5969 10.6156 13.5026C9.65301 13.4083 8.69119 13.6895 7.93105 14.2876Z" fill="url(#paint7_linear_1_16804)"/>
<path d="M5.76572 15.5251L7.13447 15.1782V14.8407C6.67827 14.7643 6.21255 14.7643 5.75635 14.8407L5.76572 15.5251Z" fill="#E8BD89"/>
<path d="M22.7061 20.2593C22.7061 20.2593 22.8936 22.0499 24.0561 22.4718L24.1029 22.678L23.3154 22.8937C23.3154 22.8937 22.3404 22.2187 22.7061 20.2593Z" fill="#8E4028"/>
<path d="M7.50018 19.0781C7.45155 19.5595 7.29708 20.0241 7.04783 20.4388C6.79859 20.8535 6.46073 21.2079 6.05846 21.4766C5.65619 21.7454 5.19946 21.9219 4.72098 21.9935C4.2425 22.0651 3.75412 22.0299 3.2908 21.8906C2.29784 21.5764 1.44642 20.9241 0.884611 20.0472C0.322802 19.1702 0.0861472 18.124 0.215803 17.0906C0.261116 16.6112 0.411129 16.1475 0.655251 15.7323C0.899374 15.3171 1.23165 14.9606 1.62863 14.6879C2.02561 14.4152 2.47762 14.233 2.95273 14.1541C3.42784 14.0752 3.91449 14.1015 4.3783 14.2313C5.38887 14.5378 6.25762 15.1935 6.82946 16.0813C7.4013 16.9691 7.63902 18.0313 7.50018 19.0781Z" fill="#282828"/>
<path d="M11.4846 13.7063L13.2096 13.725L12.5158 16.3313L10.9971 16.05L11.4846 13.7063Z" fill="#282828"/>
<path d="M3.38428 14.0625L8.6624 13.4343C8.6624 13.4343 11.7843 16.1343 11.6155 16.1062C11.4468 16.0781 5.79365 16.7531 5.79365 16.7531L3.38428 14.0625Z" fill="#282828"/>
<path d="M6.1126 16.3782L5.05322 26.625L11.3438 23.7844L12.6376 15.7688L6.1126 16.3782Z" fill="#282828"/>
<path d="M3.47828 26.4L1.44391 25.3875C1.00736 25.1738 0.64771 24.8301 0.414372 24.4037C0.181035 23.9773 0.0854604 23.4892 0.140781 23.0063L1.25641 15L7.30328 16.7438L6.05641 25.3125C5.87828 26.5406 4.68766 26.9156 3.47828 26.4Z" fill="#282828"/>
<path d="M8.34375 13.4906L9.525 12.4875C9.60293 12.3984 9.71057 12.3408 9.82787 12.3253C9.94516 12.3097 10.0641 12.3374 10.1625 12.4031L12.975 12.9656C13.0697 13.0242 13.1501 13.1032 13.2104 13.1967C13.2708 13.2903 13.3096 13.3961 13.3239 13.5065C13.3383 13.6169 13.3279 13.7292 13.2935 13.835C13.2591 13.9409 13.2015 14.0378 13.125 14.1187L10.8469 16.2L8.34375 13.4906Z" fill="#282828"/>
<path d="M10.8938 14.2032L12.7407 13.5845L12.0376 15.5626L10.1626 15.7501L10.8938 14.2032Z" fill="#97A9AF"/>
<path d="M3.75 14.775L8.68125 14.2031C8.68125 14.2031 10.8094 15.9375 10.6594 15.9375C10.5094 15.9375 5.74688 16.875 5.74688 16.875L3.75 14.775Z" fill="#E4E8EA"/>
<path d="M5.74678 16.8937L4.93115 25.5469L10.7437 23.1469L12.0843 15.4219L5.74678 16.8937Z" fill="#7D9093"/>
<path d="M3.98461 25.3126L2.32524 24.8626C1.9378 24.6986 1.61075 24.4185 1.38912 24.0608C1.1675 23.7032 1.0622 23.2857 1.08774 22.8657L2.17524 15.1313L7.23774 17.0063L6.97524 24.0188C6.80649 25.1251 5.02524 25.7813 3.98461 25.3126Z" fill="#BACCD3"/>
<path d="M7.16263 19.2C7.12121 19.6302 6.98501 20.0458 6.76382 20.4169C6.54263 20.7881 6.24194 21.1057 5.88338 21.3469C5.52482 21.588 5.11728 21.7467 4.69007 21.8115C4.26287 21.8764 3.82659 21.8458 3.41263 21.7219C2.52418 21.4416 1.76242 20.8581 1.26037 20.0733C0.758316 19.2885 0.547861 18.3523 0.66575 17.4282C0.704949 16.9963 0.839384 16.5785 1.05939 16.2048C1.27939 15.831 1.57948 15.5107 1.93808 15.2669C2.29669 15.023 2.70488 14.8617 3.1333 14.7945C3.56171 14.7273 3.9997 14.7559 4.41575 14.8782C5.31268 15.1544 6.08184 15.7411 6.58524 16.5332C7.08865 17.3252 7.29335 18.2707 7.16263 19.2Z" fill="#445C7F"/>
<path d="M6.56245 18.8906C6.52802 19.2567 6.41278 19.6105 6.22505 19.9266C6.03732 20.2427 5.78178 20.5132 5.47685 20.7185C5.17193 20.9239 4.82522 21.0591 4.46175 21.1142C4.09827 21.1694 3.72708 21.1432 3.37495 21.0375C2.6182 20.7996 1.96945 20.3027 1.54256 19.6341C1.11568 18.9655 0.93795 18.1679 1.04058 17.3813C1.07495 17.0175 1.18885 16.6657 1.37423 16.3507C1.55961 16.0358 1.81193 15.7655 2.11334 15.5589C2.41475 15.3523 2.75788 15.2145 3.11846 15.1551C3.47903 15.0958 3.84824 15.1165 4.19995 15.2156C4.9655 15.4487 5.62333 15.9462 6.05607 16.6193C6.4888 17.2924 6.66827 18.0974 6.56245 18.8906Z" fill="#668BC6"/>
<path d="M5.86899 18.7499C5.84696 19.0316 5.76155 19.3047 5.61915 19.5487C5.47675 19.7927 5.28105 20.0014 5.04665 20.1592C4.81226 20.317 4.54524 20.4197 4.26556 20.4598C3.98587 20.4998 3.70074 20.4762 3.43149 20.3906C2.8511 20.2063 2.3543 19.8233 2.02849 19.3088C1.70268 18.7944 1.56874 18.1815 1.65024 17.5781C1.67296 17.2985 1.75809 17.0277 1.89937 16.7854C2.04065 16.5432 2.23446 16.3357 2.46655 16.1783C2.69864 16.0208 2.96308 15.9175 3.24041 15.8758C3.51774 15.8341 3.80088 15.8552 4.06899 15.9374C4.65286 16.1181 5.15392 16.4997 5.48339 17.0145C5.81286 17.5293 5.94946 18.1441 5.86899 18.7499Z" fill="#70D2F9"/>
<path d="M5.79361 17.6718C5.77944 17.8072 5.73597 17.9378 5.66623 18.0547C5.59648 18.1715 5.50212 18.2718 5.38972 18.3485C5.27731 18.4252 5.14955 18.4766 5.01531 18.4989C4.88107 18.5213 4.74357 18.5142 4.61236 18.4781C4.33114 18.3899 4.09021 18.2051 3.93232 17.9562C3.77443 17.7074 3.70979 17.4107 3.74986 17.1187C3.76403 16.9833 3.8075 16.8527 3.87725 16.7358C3.947 16.619 4.04135 16.5187 4.15376 16.442C4.26616 16.3653 4.39392 16.3139 4.52816 16.2916C4.6624 16.2692 4.7999 16.2763 4.93111 16.3124C5.21234 16.4006 5.45327 16.5854 5.61115 16.8343C5.76904 17.0831 5.83368 17.3798 5.79361 17.6718Z" fill="white"/>
<path d="M8.61572 14.2032L9.81572 13.2657C9.89455 13.1803 10.0018 13.1265 10.1174 13.1144C10.233 13.1023 10.3491 13.1328 10.4438 13.2001L12.7313 13.5938L10.472 15.6563L8.61572 14.2032Z" fill="#D5DEE2"/>
<path d="M5.7188 23.9437C5.70413 24.0627 5.66534 24.1774 5.6048 24.2809C5.54426 24.3843 5.46325 24.4744 5.36671 24.5455C5.27018 24.6165 5.16016 24.6672 5.04338 24.6943C4.9266 24.7214 4.80553 24.7244 4.68755 24.7031C4.44624 24.6574 4.23247 24.5189 4.09222 24.3173C3.95197 24.1157 3.89643 23.8671 3.93755 23.6249C3.95104 23.5063 3.98873 23.3918 4.04829 23.2884C4.10785 23.1849 4.18801 23.0948 4.28381 23.0236C4.37961 22.9524 4.489 22.9017 4.60522 22.8745C4.72143 22.8473 4.84199 22.8443 4.95943 22.8656C5.20247 22.9091 5.41854 23.0467 5.56072 23.2485C5.70289 23.4504 5.7597 23.7002 5.7188 23.9437Z" fill="#474747"/>
<path d="M5.49378 23.9061C5.4825 23.9946 5.45332 24.0797 5.40802 24.1565C5.36273 24.2333 5.30227 24.3 5.23034 24.3527C5.1584 24.4053 5.0765 24.4427 4.98962 24.4627C4.90275 24.4826 4.81272 24.4846 4.72503 24.4686C4.54566 24.4322 4.38719 24.3282 4.28246 24.1781C4.17773 24.028 4.13479 23.8433 4.16253 23.6624C4.17144 23.5735 4.19866 23.4875 4.24246 23.4097C4.28626 23.3318 4.3457 23.2639 4.41703 23.2102C4.48837 23.1565 4.57005 23.1181 4.65694 23.0975C4.74383 23.0769 4.83405 23.0745 4.92191 23.0905C5.10375 23.127 5.26459 23.232 5.37107 23.3839C5.47755 23.5357 5.52149 23.7228 5.49378 23.9061Z" fill="#F91919"/>
<path d="M5.30644 23.5782C5.30299 23.6054 5.29416 23.6316 5.28046 23.6554C5.26675 23.6791 5.24846 23.6999 5.22663 23.7165C5.20481 23.7331 5.17991 23.7451 5.15337 23.752C5.12683 23.7588 5.09919 23.7603 5.07207 23.7564C5.01669 23.743 4.96806 23.71 4.93528 23.6634C4.9025 23.6168 4.8878 23.5599 4.89394 23.5032C4.89584 23.4745 4.90402 23.4466 4.91789 23.4213C4.93176 23.3961 4.95099 23.3742 4.97423 23.3573C4.99747 23.3403 5.02415 23.3286 5.05239 23.323C5.08064 23.3175 5.10975 23.3182 5.13769 23.3251C5.19357 23.3364 5.24269 23.3694 5.27432 23.4168C5.30594 23.4643 5.31749 23.5223 5.30644 23.5782Z" fill="white"/>
<path d="M8.8499 16.9687C8.83314 17.1057 8.77742 17.2351 8.68935 17.3415C8.60128 17.4478 8.48456 17.5267 8.35303 17.5687C8.12803 17.5687 7.9874 17.3812 8.04365 17.0906C8.05856 16.9542 8.11248 16.8251 8.19895 16.7187C8.28543 16.6123 8.40077 16.5331 8.53115 16.4906C8.75615 16.4531 8.89678 16.6687 8.8499 16.9687Z" fill="#97A9AF"/>
<path d="M10.1249 17.1844C10.1063 17.3222 10.0488 17.4518 9.95912 17.5581C9.86945 17.6644 9.75135 17.7429 9.61865 17.7844C9.39365 17.7844 9.25303 17.6063 9.30928 17.3063C9.32374 17.1684 9.37862 17.0379 9.46703 16.9312C9.55543 16.8244 9.67341 16.7462 9.80615 16.7063C10.0312 16.6688 10.1718 16.875 10.1249 17.1844Z" fill="#97A9AF"/>
<path d="M11.4936 17.4749C11.4772 17.6135 11.4205 17.7442 11.3305 17.8509C11.2405 17.9576 11.1212 18.0354 10.9873 18.0749C10.7623 18.0749 10.6217 17.8874 10.6779 17.5874C10.6924 17.4495 10.7473 17.319 10.8357 17.2123C10.9241 17.1055 11.0421 17.0273 11.1748 16.9874C11.3998 16.9499 11.5498 17.1655 11.4936 17.4749Z" fill="#97A9AF"/>
<path d="M6.35645 16.4812L6.8252 15.7687L9.9002 15.2344L10.4627 15.6563L6.35645 16.4812Z" fill="white"/>
<path d="M7.26582 18.5813L7.93145 18.8063L7.09707 24.6563L6.35645 24.9375L7.26582 18.5813Z" fill="#BACCD3"/>
<path d="M11.5592 18.4407L7.93105 18.8063L7.09668 24.6563L10.7436 23.1469L11.5592 18.4407Z" fill="#97A9AF"/>
<path d="M11.7562 24.75L8.00619 23.7187C7.69039 23.6323 7.41303 23.4418 7.21904 23.1781C7.02506 22.9143 6.92583 22.5928 6.93744 22.2656C6.95183 21.8958 7.10772 21.5456 7.37291 21.2874C7.6381 21.0291 7.99233 20.8826 8.36244 20.8781L12.6093 20.7937C12.8382 20.7892 13.0649 20.8392 13.2707 20.9396C13.4765 21.0399 13.6554 21.1878 13.7928 21.371C13.9302 21.5541 14.022 21.7673 14.0608 21.993C14.0995 22.2186 14.084 22.4503 14.0156 22.6687C13.8675 23.1521 13.6729 23.6199 13.4343 24.0656C13.2735 24.3529 13.0199 24.5771 12.715 24.7015C12.4101 24.8258 12.0721 24.8429 11.7562 24.75Z" fill="#8E4028"/>
<path d="M11.428 26.6812L7.67799 25.6499C7.35434 25.571 7.06734 25.3839 6.86447 25.1197C6.66159 24.8555 6.55502 24.5299 6.56237 24.1968C6.57899 23.8277 6.73558 23.4788 7.0003 23.2211C7.26501 22.9633 7.61796 22.8161 7.98737 22.8093L12.2436 22.7249C12.4719 22.7225 12.6975 22.7738 12.9022 22.8748C13.1069 22.9757 13.2849 23.1235 13.4219 23.3061C13.5588 23.4887 13.6508 23.701 13.6904 23.9258C13.73 24.1506 13.7161 24.3815 13.6499 24.5999C13.4987 25.0836 13.3009 25.5514 13.0592 25.9968C12.9017 26.2756 12.656 26.4942 12.3607 26.6181C12.0654 26.742 11.7373 26.7642 11.428 26.6812Z" fill="#8E4028"/>
<path d="M10.7906 29.2124L7.04064 28.1906C6.72398 28.1057 6.44564 27.9156 6.2514 27.6515C6.05716 27.3874 5.95859 27.065 5.97189 26.7374C5.97837 26.3711 6.12299 26.0207 6.3768 25.7565C6.63061 25.4923 6.97487 25.3337 7.34064 25.3124L11.5969 25.2281C11.8258 25.2235 12.0525 25.2735 12.2583 25.3739C12.4641 25.4743 12.643 25.6221 12.7804 25.8053C12.9178 25.9884 13.0096 26.2017 13.0483 26.4273C13.0871 26.653 13.0716 26.8846 13.0031 27.1031C12.8545 27.5862 12.6598 28.0539 12.4219 28.4999C12.27 28.7851 12.0262 29.0105 11.7302 29.1398C11.4341 29.2692 11.1031 29.2947 10.7906 29.2124Z" fill="#8E4028"/>
<path d="M11.1467 26.3814L8.14669 25.5657C7.89766 25.4982 7.67877 25.3485 7.52559 25.1408C7.37242 24.9332 7.29395 24.6799 7.30294 24.422C7.31488 24.1276 7.43908 23.8489 7.65003 23.6432C7.86099 23.4374 8.14269 23.3203 8.43732 23.3157L11.7936 23.2501C11.976 23.2476 12.1565 23.2884 12.3201 23.3692C12.4838 23.45 12.6259 23.5685 12.7348 23.715C12.8437 23.8614 12.9163 24.0316 12.9466 24.2115C12.9769 24.3915 12.9641 24.5761 12.9092 24.7501C12.7871 25.1324 12.6302 25.5027 12.4404 25.8564C12.3119 26.0733 12.1157 26.2421 11.8821 26.3369C11.6484 26.4317 11.3901 26.4474 11.1467 26.3814Z" fill="#FFD097"/>
<path d="M11.7283 23.9907L8.72831 23.1844C8.47852 23.1151 8.2594 22.9635 8.10631 22.7543C7.95322 22.5451 7.8751 22.2904 7.88456 22.0313C7.89638 21.741 8.01828 21.466 8.22549 21.2623C8.4327 21.0586 8.70968 20.9413 9.00018 20.9344L12.3658 20.8688C12.5482 20.8657 12.7287 20.9063 12.8922 20.9871C13.0557 21.068 13.1975 21.1867 13.3058 21.3335C13.414 21.4803 13.4856 21.6509 13.5145 21.831C13.5435 22.0111 13.5289 22.1955 13.4721 22.3688C13.3533 22.7389 13.1994 23.0967 13.0127 23.4376C12.8924 23.6612 12.7001 23.8375 12.4669 23.9379C12.2337 24.0384 11.9734 24.0569 11.7283 23.9907Z" fill="#FFD097"/>
<path d="M10.4721 28.3969L7.50021 27.9937C7.25117 27.9262 7.03229 27.7765 6.87911 27.5688C6.72593 27.3612 6.64747 27.1079 6.65646 26.85C6.66829 26.5572 6.79117 26.2798 7.00014 26.0743C7.20911 25.8689 7.48847 25.7506 7.78146 25.7437L11.1377 25.6781C11.3228 25.672 11.5067 25.7106 11.6737 25.7907C11.8408 25.8707 11.9861 25.9898 12.0974 26.1378C12.2087 26.2859 12.2826 26.4586 12.313 26.6413C12.3435 26.824 12.3294 27.0114 12.2721 27.1875C12.15 27.5698 11.9931 27.9401 11.8033 28.2937C11.5502 28.725 10.969 28.5281 10.4721 28.3969Z" fill="#FFD097"/>
<path d="M8.09082 22.5657L13.1439 22.9219C13.1923 22.9797 13.2263 23.0482 13.2432 23.1216C13.2601 23.1951 13.2593 23.2715 13.241 23.3446C13.2228 23.4178 13.1874 23.4855 13.138 23.5424C13.0885 23.5993 13.0263 23.6437 12.9564 23.6719C12.4127 24 8.5877 23.2313 8.5877 23.2313C8.39237 23.0332 8.22518 22.8093 8.09082 22.5657Z" fill="#D8B18B"/>
<path d="M7.20947 24.9094L12.2626 25.2657C12.3107 25.3241 12.3443 25.3932 12.3605 25.4671C12.3768 25.5411 12.3752 25.6178 12.356 25.691C12.3368 25.7643 12.3004 25.8319 12.25 25.8883C12.1995 25.9448 12.1364 25.9884 12.0657 26.0157C11.522 26.3438 7.70635 25.5844 7.70635 25.5844C7.51173 25.3823 7.34466 25.1553 7.20947 24.9094Z" fill="#D8B18B"/>
<path d="M6.91895 27.4968L11.9721 27.8531C12.0202 27.9115 12.0538 27.9806 12.07 28.0545C12.0862 28.1285 12.0847 28.2052 12.0655 28.2784C12.0462 28.3517 12.0099 28.4193 11.9594 28.4757C11.909 28.5322 11.8458 28.5758 11.7752 28.6031C11.2502 28.9312 7.41582 28.125 7.41582 28.125C7.2232 27.9384 7.05612 27.7272 6.91895 27.4968Z" fill="#BF916B"/>
<path d="M16.6031 26.4281L16.1719 26.8875L17.8125 28.3312L29.0906 19.4156L27.6656 17.1094L16.6031 26.4281Z" fill="#9A4C18"/>
<path d="M28.9876 22.2937C28.5236 24.2803 27.3502 26.0291 25.6878 27.2116C24.0254 28.3941 21.9884 28.9289 19.9595 28.7155C19.046 28.6396 18.1624 28.3533 17.3779 27.8792C16.5933 27.4051 15.9291 26.756 15.4371 25.9825C14.945 25.2091 14.6386 24.3323 14.5416 23.4208C14.4447 22.5093 14.5599 21.5877 14.8783 20.728C15.4859 18.9578 16.6649 17.4399 18.2297 16.4132C19.7945 15.3864 21.6562 14.909 23.522 15.0562C24.3831 15.1062 25.2231 15.3427 25.9838 15.7494C26.7445 16.1561 27.4077 16.7233 27.9276 17.4117C28.4474 18.1 28.8115 18.8931 28.9945 19.7361C29.1775 20.579 29.1752 21.4517 28.9876 22.2937Z" fill="#9A4C18"/>
<path d="M29.8594 23.653C29.3886 25.5668 28.2353 27.243 26.6161 28.3667C24.997 29.4904 23.0233 29.9845 21.0657 29.7561C20.1848 29.6953 19.3299 29.431 18.5684 28.9839C17.8069 28.5369 17.1595 27.9193 16.677 27.1797C16.1945 26.4401 15.8902 25.5987 15.7879 24.7216C15.6857 23.8445 15.7882 22.9556 16.0876 22.1249C16.7056 20.4237 17.8672 18.9736 19.3924 17.9992C20.9177 17.0247 22.7217 16.5801 24.5251 16.7343C25.3543 16.7762 26.1646 16.9973 26.9001 17.3823C27.6357 17.7674 28.2791 18.3073 28.7861 18.9648C29.293 19.6223 29.6515 20.3819 29.8368 21.1912C30.0221 22.0005 30.0298 22.8404 29.8594 23.653Z" fill="#9A4C18"/>
<path d="M17.7095 26.822L19.322 27.947L28.5938 20.2032L27.4313 18.2251L17.7095 26.822Z" fill="#F49937"/>
<path d="M29.0627 23.5968C28.6723 25.2098 27.7106 26.6266 26.3558 27.585C25.001 28.5434 23.3448 28.9783 21.6939 28.8093C20.9492 28.7479 20.2286 28.5161 19.5878 28.1319C18.947 27.7476 18.403 27.2212 17.998 26.5933C17.593 25.9654 17.3377 25.2528 17.252 24.5105C17.1662 23.7683 17.2522 23.0162 17.5033 22.3125C18.0004 20.8519 18.9696 19.5984 20.258 18.7497C21.5464 17.9009 23.0807 17.5052 24.6189 17.625C25.3255 17.6707 26.0137 17.8696 26.6358 18.2077C27.2579 18.5459 27.7991 19.0152 28.2218 19.5833C28.6445 20.1514 28.9386 20.8045 29.0838 21.4976C29.229 22.1906 29.2218 22.9069 29.0627 23.5968Z" fill="#F49937"/>
<path d="M28.1249 22.153C27.7096 23.8802 26.6813 25.3979 25.2311 26.4239C23.7809 27.4499 22.0075 27.9144 20.2406 27.7312C19.444 27.6646 18.6733 27.4158 17.9883 27.0038C17.3032 26.5919 16.722 26.0279 16.2898 25.3555C15.8575 24.683 15.5857 23.9202 15.4953 23.1259C15.405 22.3317 15.4985 21.5273 15.7687 20.7749C16.3016 19.2175 17.3364 17.881 18.7107 16.975C20.0849 16.069 21.7211 15.6447 23.3624 15.7687C24.1195 15.8144 24.8574 16.0248 25.5247 16.3851C26.192 16.7455 26.7727 17.2471 27.2262 17.855C27.6796 18.4629 27.995 19.1624 28.1502 19.9048C28.3055 20.6471 28.2968 21.4144 28.1249 22.153Z" fill="#FFEDC0"/>
<path d="M27.628 22.3594C27.2358 23.9714 26.2737 25.387 24.9194 26.3451C23.565 27.3031 21.9098 27.7389 20.2592 27.5719C19.5153 27.5087 18.7958 27.2758 18.156 26.891C17.5162 26.5063 16.973 25.98 16.5684 25.3526C16.1637 24.7253 15.9082 24.0134 15.8216 23.2719C15.7349 22.5304 15.8194 21.7788 16.0686 21.075C16.5625 19.6143 17.5297 18.3601 18.8168 17.5111C20.104 16.662 21.6376 16.2666 23.1748 16.3875C23.8823 16.432 24.5715 16.6299 25.1948 16.9675C25.818 17.3051 26.3603 17.7743 26.784 18.3425C27.2077 18.9107 27.5027 19.5643 27.6484 20.258C27.7942 20.9517 27.7872 21.6687 27.628 22.3594Z" fill="#FFD766"/>
<path d="M26.3155 22.2186C26.0068 23.4607 25.2627 24.5507 24.2184 25.2905C23.1741 26.0303 21.8989 26.3707 20.6248 26.2499C20.0489 26.2036 19.4912 26.0264 18.9941 25.732C18.497 25.4375 18.0737 25.0335 17.7564 24.5507C17.439 24.068 17.236 23.5191 17.1629 22.946C17.0897 22.3729 17.1483 21.7907 17.3342 21.2436C17.714 20.094 18.4678 19.1048 19.4754 18.4336C20.4831 17.7624 21.6864 17.448 22.8936 17.5405C23.447 17.5715 23.9867 17.7249 24.4737 17.9895C24.9608 18.2541 25.3831 18.6233 25.7104 19.0707C26.0376 19.5181 26.2616 20.0324 26.3662 20.5768C26.4708 21.1211 26.4535 21.6818 26.3155 22.2186Z" fill="#FFEDC0"/>
<path d="M26.447 21.5625C26.1354 22.7852 25.3976 23.8564 24.3664 24.5834C23.3351 25.3104 22.0783 25.6454 20.822 25.5282C20.253 25.4892 19.7003 25.321 19.206 25.0362C18.7118 24.7514 18.289 24.3576 17.9699 23.8848C17.6508 23.412 17.4437 22.8727 17.3645 22.3078C17.2852 21.7429 17.3359 21.1674 17.5127 20.625C17.8873 19.4844 18.6346 18.5028 19.6343 17.8379C20.6341 17.1731 21.8284 16.8637 23.0252 16.9594C23.5705 16.9927 24.1019 17.1446 24.5824 17.4048C25.0628 17.6649 25.4806 18.0268 25.8065 18.4652C26.1325 18.9037 26.3587 19.4081 26.4693 19.9431C26.5799 20.4781 26.5723 21.0308 26.447 21.5625Z" fill="#F49937"/>
<path d="M25.6033 22.1344C25.3357 23.1754 24.705 24.0865 23.8249 24.7036C22.9448 25.3207 21.8733 25.6031 20.8033 25.5C20.3162 25.465 19.8436 25.3191 19.4214 25.0736C18.9993 24.8281 18.6388 24.4893 18.3675 24.0833C18.0962 23.6772 17.9212 23.2145 17.8559 22.7305C17.7906 22.2466 17.8368 21.7541 17.9908 21.2906C18.3029 20.3148 18.936 19.4734 19.7871 18.9031C20.6382 18.3329 21.6572 18.0675 22.6783 18.15C23.1504 18.1755 23.6109 18.3053 24.0268 18.5302C24.4426 18.755 24.8034 19.0693 25.0832 19.4504C25.3629 19.8315 25.5547 20.2699 25.6446 20.734C25.7346 21.1981 25.7205 21.6764 25.6033 22.1344Z" fill="#FFD766"/>
<path d="M23.3436 17.8125L23.6717 20.175L26.0998 21.1031L23.6061 22.3969L23.1373 25.0219L21.2342 23.2781L18.4404 23.9156L19.8842 21.5437L18.7498 19.4344L21.4029 19.6687L23.3436 17.8125Z" fill="#F49937"/>
</g>
<defs>
<linearGradient id="paint0_linear_1_16804" x1="8.12826" y1="6.66559" x2="26.0814" y2="6.66559" gradientUnits="userSpaceOnUse">
<stop stop-color="#F38C05"/>
<stop offset="1" stop-color="#B85A1B"/>
</linearGradient>
<linearGradient id="paint1_linear_1_16804" x1="21.525" y1="12.5156" x2="26.2875" y2="12.5156" gradientUnits="userSpaceOnUse">
<stop stop-color="#F38C05"/>
<stop offset="1" stop-color="#B85A1B"/>
</linearGradient>
<linearGradient id="paint2_linear_1_16804" x1="15.6853" y1="25.2439" x2="16.3815" y2="25.283" gradientUnits="userSpaceOnUse">
<stop stop-color="#BDD6DE"/>
<stop offset="1" stop-color="white"/>
</linearGradient>
<linearGradient id="paint3_linear_1_16804" x1="15.9262" y1="22.8314" x2="16.8873" y2="22.8854" gradientUnits="userSpaceOnUse">
<stop stop-color="white"/>
<stop offset="1" stop-color="#BDD6DE"/>
</linearGradient>
<linearGradient id="paint4_linear_1_16804" x1="3.68479" y1="-3.17558" x2="3.58767" y2="-2.18408" gradientUnits="userSpaceOnUse">
<stop stop-color="#BDD6DE"/>
<stop offset="1" stop-color="white"/>
</linearGradient>
<linearGradient id="paint5_linear_1_16804" x1="-4.8867" y1="-4.43331" x2="-5.0637" y2="-3.52188" gradientUnits="userSpaceOnUse">
<stop stop-color="#BDD6DE"/>
<stop offset="1" stop-color="white"/>
</linearGradient>
<linearGradient id="paint6_linear_1_16804" x1="14.9438" y1="13.9875" x2="20.8126" y2="13.9875" gradientUnits="userSpaceOnUse">
<stop stop-color="#F38C05"/>
<stop offset="1" stop-color="#B85A1B"/>
</linearGradient>
<linearGradient id="paint7_linear_1_16804" x1="7.2373" y1="13.1719" x2="13.0967" y2="13.1719" gradientUnits="userSpaceOnUse">
<stop stop-color="#F38C05"/>
<stop offset="1" stop-color="#B85A1B"/>
</linearGradient>
<clipPath id="clip0_1_16804">
<rect width="30" height="30" fill="white"/>
</clipPath>
</defs>
</svg>
