<svg width="8" height="5" viewBox="0 0 8 5" fill="none" xmlns="http://www.w3.org/2000/svg">
<path fill-rule="evenodd" clip-rule="evenodd" d="M3.59143 4.61486C3.64637 4.66955 3.7116 4.71281 3.78335 4.74215C3.8551 4.77149 3.93196 4.78632 4.00948 4.78579C4.08699 4.78525 4.16364 4.76937 4.23498 4.73905C4.30633 4.70873 4.37096 4.66458 4.42514 4.60914L7.81771 1.22686C7.87508 1.17258 7.92083 1.10721 7.95216 1.03472C7.9835 0.962223 7.99977 0.884118 8 0.805142C7.99948 0.689997 7.96514 0.577543 7.90123 0.481758C7.83733 0.385973 7.74668 0.311082 7.64056 0.266393C7.53444 0.221704 7.41753 0.209189 7.30435 0.230403C7.19118 0.251617 7.08673 0.305625 7.004 0.385713L7.00229 0.383428L4.016 3.34914L1.008 0.386285L1.00571 0.388571C0.923886 0.305583 0.819222 0.248812 0.705036 0.225479C0.590851 0.202145 0.472305 0.213305 0.36448 0.257538C0.256655 0.30177 0.164424 0.377077 0.0995206 0.473878C0.0346171 0.570678 -2.54305e-05 0.684597 1.40065e-08 0.801142C1.40065e-08 0.971428 0.0742857 1.12171 0.190286 1.22857L3.59029 4.61714L3.59143 4.61486Z" fill="#0E0E0E"/>
</svg>
