<svg width="24" height="24" viewBox="0 0 24 24" fill="none" xmlns="http://www.w3.org/2000/svg">
<g clip-path="url(#clip0_1_96)">
<path d="M23.2723 0.214294H0.415161V23.0714H23.2723V0.214294Z" fill="white" fill-opacity="0.01"/>
<path fill-rule="evenodd" clip-rule="evenodd" d="M11.8438 22.4355C17.805 22.4355 22.6374 17.6031 22.6374 11.6418C22.6374 5.68069 17.805 0.848206 11.8438 0.848206C5.88266 0.848206 1.05017 5.68069 1.05017 11.6418C1.05017 17.6031 5.88266 22.4355 11.8438 22.4355Z" fill="#D9D9D9"/>
<path d="M16.5649 6.93664C16.8016 7.17332 16.8125 7.55037 16.5973 7.79981L16.5649 7.83456L12.7004 11.6988L16.468 15.4668C16.716 15.7148 16.716 16.1168 16.468 16.3647C16.2313 16.6014 15.8543 16.6121 15.6049 16.397L15.5702 16.3647L11.8024 12.5966L8.03482 16.3647C7.78686 16.6127 7.38486 16.6127 7.13691 16.3647C6.90022 16.128 6.88947 15.751 7.10463 15.5015L7.13691 15.4668L10.9046 11.6988L7.03997 7.83456C6.79202 7.5866 6.79202 7.18459 7.03997 6.93664C7.27666 6.69996 7.65371 6.6892 7.90315 6.90436L7.93788 6.93664L11.8024 10.8008L15.6671 6.93664C15.915 6.68868 16.3171 6.68868 16.5649 6.93664Z" fill="white"/>
</g>
<defs>
<clipPath id="clip0_1_96">
<rect width="24" height="24" fill="white"/>
</clipPath>
</defs>
</svg>
