<svg width="30" height="30" viewBox="0 0 30 30" fill="none" xmlns="http://www.w3.org/2000/svg">
<g clip-path="url(#clip0_1_15042)">
<path d="M9.65625 4.6875L13.7812 4.5L13.875 5.71875L9.46875 6.1875L9.65625 4.6875Z" fill="#6D9FA8"/>
<path d="M26.4375 18.1875C26.5313 14.625 24.2813 11.8125 21.2813 11.5312C20.9063 8.62499 18.75 6.74999 16.2188 7.03124C15.4688 7.12499 14.8125 7.40624 14.1563 7.78124C13.2188 5.62499 11.25 4.40624 9.09377 4.68749C6.09377 5.15624 3.65627 8.43749 3.46877 12.1875V12.9375C1.59377 13.6875 0.18752 16.0312 2.03303e-05 18.6562C-0.0937297 21.6562 1.50002 24.2812 3.84377 24.4687H4.40627L19.6875 25.0312H20.25C23.625 25.0312 26.3438 22.0312 26.4375 18.1875Z" fill="#6D9FA8"/>
<path d="M29.9063 18.2813C30 14.7188 27.75 12.0001 24.8438 11.7188C24.4688 8.90632 22.3125 6.93757 19.7813 7.21882C19.0313 7.31257 18.375 7.59382 17.8125 7.96882C16.875 5.90632 15 4.68757 12.8438 4.96882C9.84377 5.34382 7.40627 8.71882 7.21877 12.3751V13.1251C5.34377 13.8751 3.93752 16.1251 3.84377 18.7501C3.75002 21.7501 5.34377 24.2813 7.59377 24.5626H8.06252L23.1563 25.2188H23.7188C27 25.0313 29.8125 22.0313 29.9063 18.2813Z" fill="#6D9FA8"/>
<path d="M30.0003 17.3439C30.094 13.9689 27.9378 11.2502 25.1253 10.9689C24.7503 8.25015 22.6878 6.37515 20.344 6.6564C19.6878 6.75015 19.0315 6.93765 18.3753 7.31265C17.4378 5.3439 15.6565 4.12515 13.6878 4.4064C10.7815 4.87515 8.43775 8.06265 8.344 11.6252V12.2814C6.56275 13.0314 5.25025 15.1877 5.1565 17.6252C5.06275 20.5314 6.56275 22.9689 8.719 23.1564H9.094L23.5315 23.8127H24.094C27.2815 23.8127 29.9065 21.0002 30.0003 17.3439Z" fill="#6D9FA8"/>
<path d="M9.5625 5.625L13.6875 5.4375L13.7812 6.65625L9.375 7.21875L9.5625 5.625Z" fill="#9BC3CC"/>
<path d="M16.5 6.84375L20.5312 6.75L20.625 7.875L16.3125 8.4375L16.5 6.84375Z" fill="#6D9FA8"/>
<path d="M15.5625 7.78125L19.5938 7.59375L19.6875 8.8125L15.375 9.28125L15.5625 7.78125Z" fill="#9BC3CC"/>
<path d="M28.6875 17.8124C28.7813 14.5311 26.7188 11.9999 24 11.8124C23.625 9.1874 21.6563 7.4999 19.4063 7.6874C18.75 7.78115 18.0938 7.96865 17.5313 8.34365C16.6875 6.46865 14.9063 5.34365 13.0313 5.6249C10.3125 5.90615 8.15627 8.90615 7.96877 12.2811V12.9374C6.28127 13.5936 4.96877 15.6561 4.87502 18.0936C4.78127 20.8124 6.18752 23.1561 8.34377 23.4374H8.71877L22.5 23.9999H23.0625C26.0625 23.9999 28.5938 21.1874 28.6875 17.8124Z" fill="#9BC3CC"/>
<path d="M25.406 17.9061C25.4998 14.6249 23.3435 12.0936 20.6248 11.8124C20.2498 9.1874 18.281 7.40615 15.9373 7.6874C15.281 7.78115 14.6248 7.96865 14.0623 8.34365C13.2185 6.46865 11.4373 5.34365 9.46852 5.6249C6.65602 5.9999 4.40602 8.9999 4.31227 12.4686V13.1249C2.62477 13.8749 1.31227 15.9374 1.21852 18.2811C1.12477 20.9999 2.62477 23.3436 4.68727 23.6249H5.06227L19.031 24.1874H19.5935C22.781 24.1874 25.3123 21.4686 25.406 17.9061Z" fill="#B9DAE4"/>
<path d="M23.6248 18.094C23.7186 15.2815 21.8436 13.0315 19.4998 12.844C19.2186 10.594 17.5311 9.09402 15.4686 9.28152C14.9061 9.37527 14.3436 9.56277 13.8748 9.84402C13.1248 8.25027 11.6248 7.21902 9.93734 7.50027C7.59359 7.87527 5.62484 10.4065 5.53109 13.3128V13.8753C4.03109 14.4378 2.90609 16.3128 2.81234 18.2815C2.71859 20.6253 4.03109 22.6878 5.81234 22.8753H6.18734L18.1873 23.4378H18.7498C21.2811 23.4378 23.5311 21.094 23.6248 18.094Z" fill="white"/>
<path d="M23.6248 18.094C23.7186 15.2815 21.8436 13.0315 19.4998 12.844C19.2186 10.594 17.5311 9.09402 15.4686 9.28152C14.9061 9.37527 14.3436 9.56277 13.8748 9.84402C13.1248 8.25027 11.6248 7.21902 9.93734 7.50027C7.59359 7.87527 5.62484 10.4065 5.53109 13.3128V13.8753C4.03109 14.4378 2.90609 16.3128 2.81234 18.2815C2.71859 20.6253 4.03109 22.6878 5.81234 22.8753H6.18734L18.1873 23.4378H18.7498C21.2811 23.4378 23.5311 21.094 23.6248 18.094Z" fill="white"/>
<path d="M22.3125 25.0313H21.75L17.5313 24.8438H16.9688C16.2188 24.8438 15.5625 24.1875 15.5625 23.3438V21.5625C15.5625 20.8125 16.2188 20.1563 16.9688 20.1563H17.1562C17.3437 20.1563 17.4375 20.0625 17.4375 19.875V13.9688C17.4375 13.7813 17.3437 13.6875 17.1562 13.6875H16.9688C16.125 13.6875 15.4688 13.0313 15.4688 12.2813V10.5C15.4688 9.75 16.125 9.09375 16.875 9L22.7812 8.8125C23.625 8.8125 24.2812 9.46875 24.2812 10.2188V12C24.2812 12.8438 23.625 13.5 22.7812 13.5H22.5938C22.4063 13.5 22.2188 13.6875 22.2188 13.875V19.875C22.2188 20.0625 22.4063 20.25 22.5938 20.25H22.7812C23.625 20.25 24.2812 20.9063 24.2812 21.75V23.5313C24.2812 23.9063 24.0938 24.2813 23.8125 24.5625C23.5312 24.8438 23.1562 24.9375 22.7812 24.9375L22.3125 25.0313Z" fill="#295163"/>
<path d="M22.875 9.46875C23.3438 9.46875 23.8125 9.84375 23.8125 10.3125V12.0937C23.8125 12.5625 23.3438 13.0312 22.875 13.0312H22.6875C22.125 13.0312 21.75 13.4062 21.75 13.9687V19.9687C21.75 20.4375 22.125 20.9062 22.6875 20.9062H22.875C23.4375 20.9062 23.8125 21.2812 23.8125 21.8437V23.625C23.8125 24.0938 23.4375 24.4688 22.875 24.4688H21.75L18.0937 24.375H16.9688C16.5 24.375 16.125 24 16.125 23.4375V21.5625C16.125 21.0938 16.5 20.7188 16.9688 20.7188H17.1562C17.625 20.7188 18 20.3438 18 19.875V13.9687C18 13.5 17.625 13.125 17.1562 13.125H16.9688C16.5 13.125 16.125 12.75 16.125 12.2812V10.5C16.125 10.0312 16.5 9.65625 16.9688 9.5625L22.875 9.46875ZM22.875 8.25L16.875 8.53125C15.75 8.53125 14.9062 9.46875 14.9062 10.5938V12.375C14.9062 13.5 15.75 14.3438 16.875 14.3438V19.6875C16.3125 19.6875 15.8438 19.875 15.4688 20.25C15.0938 20.625 14.9062 21.0938 14.9062 21.6562V23.4375C14.9062 24.5625 15.75 25.4063 16.875 25.5L18 25.5938L21.6563 25.6875H22.875C24 25.6875 24.9375 24.75 24.9375 23.7188V21.9375C24.9375 20.8125 24 19.875 22.875 19.875V14.3438C24 14.3438 24.9375 13.4062 24.9375 12.2812V10.3125C24.9375 9.1875 24 8.25 22.875 8.25Z" fill="#295163"/>
<path d="M20.8125 25.0313H20.25L15.9375 24.8438H15.375C14.625 24.8438 13.9687 24.1875 13.9687 23.3438V21.5625C13.9687 20.8125 14.625 20.1563 15.375 20.1563H15.5625C15.75 20.1563 15.8437 20.0625 15.8437 19.875V13.9688C15.8437 13.7813 15.75 13.6875 15.5625 13.6875H15.375C14.5312 13.6875 13.875 13.0313 13.875 12.2813V10.5C13.875 9.75 14.5312 9.09375 15.2812 9L21.1875 8.8125C22.0313 8.8125 22.6875 9.46875 22.6875 10.2188V12C22.6875 12.8438 22.0313 13.5 21.1875 13.5H21C20.8125 13.5 20.625 13.6875 20.625 13.875V19.875C20.625 20.0625 20.8125 20.25 21 20.25H21.1875C22.0313 20.25 22.6875 20.9063 22.6875 21.75V23.5313C22.6875 23.9063 22.5 24.2813 22.2188 24.5625C21.9375 24.8438 21.5625 24.9375 21.1875 24.9375L20.8125 25.0313Z" fill="#B9DAE4"/>
<path d="M21.375 9.46875C21.8437 9.46875 22.3125 9.84375 22.3125 10.3125V12.0937C22.3125 12.5625 21.8437 13.0312 21.375 13.0312H21.1875C20.625 13.0312 20.25 13.4062 20.25 13.9687V19.9687C20.25 20.4375 20.625 20.9062 21.1875 20.9062H21.375C21.9375 20.9062 22.3125 21.2812 22.3125 21.8437V23.625C22.3125 24.0938 21.9375 24.4688 21.375 24.4688H20.25L16.5938 24.375H15.4687C15 24.375 14.625 24 14.625 23.4375V21.5625C14.625 21.0938 15 20.7188 15.4687 20.7188H15.6563C16.125 20.7188 16.5 20.3438 16.5 19.875V13.9687C16.5 13.5 16.125 13.125 15.6563 13.125H15.4687C15 13.125 14.625 12.75 14.625 12.2812V10.5C14.625 10.0312 15 9.65625 15.4687 9.5625L21.375 9.46875ZM21.375 8.25L15.375 8.4375C14.25 8.4375 13.4062 9.375 13.4062 10.5V12.2812C13.4062 13.4062 14.25 14.25 15.375 14.25V19.5937C14.8125 19.5937 14.3437 19.7812 13.9687 20.1562C13.5937 20.5312 13.4062 21 13.4062 21.5625V23.3437C13.4062 24.4687 14.25 25.3125 15.375 25.4062L16.5 25.5L20.1562 25.5938H21.375C22.5 25.5938 23.4375 24.6563 23.4375 23.625V21.8437C23.4375 20.7187 22.5 19.7812 21.375 19.7812V14.25C22.5 14.25 23.4375 13.3125 23.4375 12.1875V10.3125C23.4375 9.1875 22.5 8.25 21.375 8.25Z" fill="#295163"/>
<path d="M21.0938 12V10.6875C21.0938 10.3125 20.8125 10.0312 20.4375 10.0312L16.125 10.2187C15.75 10.2187 15.4688 10.5 15.4688 10.875V12.1875C15.4688 12.5625 15.75 12.8438 16.125 12.8438H16.3125C16.6875 12.8438 16.9688 13.125 16.9688 13.5V20.1562C16.9688 20.5312 16.6875 20.8125 16.3125 20.8125H16.125C15.75 20.8125 15.4688 21.0938 15.4688 21.4688V22.7812C15.4688 23.1562 15.75 23.4375 16.125 23.4375H16.9688L19.6875 23.5313H20.5312C20.9062 23.5313 21.1875 23.25 21.1875 22.875V21.5625C21.1875 21.1875 20.9062 20.9062 20.5312 20.9062H20.3438C19.9688 20.9062 19.6875 20.625 19.6875 20.25V13.5C19.6875 13.125 19.9688 12.8438 20.3438 12.8438H20.5312C20.8125 12.6562 21.0938 12.375 21.0938 12Z" fill="white"/>
<path d="M7.59357 22.7812C6.93732 22.7812 6.28107 22.125 6.28107 21.4688V17.9063H5.34357C4.87482 17.9063 4.49982 17.625 4.31232 17.25C4.12482 16.875 4.12482 16.3125 4.40607 16.0313L8.34357 10.6875C8.53107 10.4062 8.90607 10.2188 9.28107 10.2188C9.65607 10.2188 10.0311 10.4062 10.2186 10.6875L14.3436 16.0313C14.6248 16.4063 14.7186 16.875 14.4373 17.3438C14.2498 17.8125 13.7811 18 13.3123 18H12.2811V21.75C12.2811 22.125 12.1873 22.4063 11.9061 22.6875C11.6248 22.9688 11.3436 23.0625 10.9686 23.0625L7.59357 22.7812Z" fill="#295163"/>
<path d="M9.37496 10.6875C9.56246 10.6875 9.74996 10.7812 9.84371 10.9688L13.9687 16.3125C14.3437 16.7812 13.9687 17.3438 13.4062 17.3438H11.8125V21.6563C11.8125 22.0313 11.5312 22.4062 11.0625 22.4062L7.59371 22.3125C7.21871 22.3125 6.84371 21.9375 6.84371 21.5625V17.4375H5.34371C4.87496 17.4375 4.59371 16.875 4.87496 16.4062L8.81246 11.0625C8.99996 10.7813 9.18746 10.6875 9.37496 10.6875ZM9.37496 9.5625C8.81246 9.5625 8.24996 9.84375 7.96871 10.3125L4.03121 15.6563C3.65621 16.2188 3.56246 16.875 3.84371 17.5313C4.12496 18.0938 4.78121 18.4688 5.43746 18.4688H5.81246V21.4688C5.81246 22.5 6.65621 23.3438 7.59371 23.3438L11.0625 23.4375C12.0937 23.4375 12.9375 22.5938 12.9375 21.5625V18.4688H13.4062C14.0625 18.4688 14.7187 18.0938 15 17.4375C15.2812 16.7813 15.1875 16.125 14.8125 15.5625L10.6875 10.2187C10.4062 9.84375 9.93746 9.5625 9.37496 9.5625Z" fill="#295163"/>
<path d="M6.46857 22.125C5.81232 22.125 5.15607 21.4688 5.15607 20.8125V17.25H4.21857C3.74982 17.25 3.37482 16.9688 3.18732 16.5938C2.99982 16.2188 2.99982 15.6562 3.28107 15.375L7.21857 10.0312C7.49982 9.5625 7.87482 9.375 8.24982 9.375C8.62482 9.375 8.99982 9.5625 9.18732 9.84375L13.3123 15.1875C13.5936 15.5625 13.6873 16.0313 13.4061 16.5C13.2186 16.9688 12.7498 17.1562 12.2811 17.1562H11.2498V20.9062C11.2498 21.2812 11.1561 21.5625 10.8748 21.8437C10.5936 22.125 10.3123 22.2188 9.93732 22.2188L6.46857 22.125Z" fill="#67A567"/>
<path d="M8.24996 9.9375C8.43746 9.9375 8.62496 10.0312 8.71871 10.2188L12.8437 15.5625C13.2187 16.0313 12.8437 16.5938 12.2812 16.5938H10.6875V20.9062C10.6875 21.2812 10.4062 21.6563 9.93746 21.6563L6.46871 21.5625C6.09371 21.5625 5.71871 21.1875 5.71871 20.8125V16.6875H4.21871C3.74996 16.6875 3.46871 16.125 3.74996 15.6563L7.68746 10.3125C7.87496 10.0313 8.06246 9.9375 8.24996 9.9375ZM8.24996 8.8125C7.68746 8.8125 7.12496 9.09375 6.84371 9.5625L2.90621 14.9062C2.53121 15.4688 2.43746 16.125 2.71871 16.7812C2.99996 17.3438 3.65621 17.7188 4.31246 17.7188H4.68746V20.7188C4.68746 21.75 5.53121 22.5938 6.46871 22.5938L9.93746 22.6875C10.9687 22.6875 11.8125 21.8438 11.8125 20.8125V17.7188H12.2812C12.9375 17.7188 13.5937 17.3438 13.875 16.6875C14.1562 16.0312 14.0625 15.375 13.6875 14.8125L9.56246 9.46875C9.28121 9.09375 8.81246 8.8125 8.24996 8.8125Z" fill="#295163"/>
<path opacity="0.47" d="M11.1562 15.8437L8.4375 11.8125L5.34375 15.75H7.21875V21.0938H9.1875L9.09375 15.75L11.1562 15.8437Z" fill="#97DD97"/>
</g>
<defs>
<clipPath id="clip0_1_15042">
<rect width="30" height="30" fill="white"/>
</clipPath>
</defs>
</svg>
