<svg width="21" height="18" viewBox="0 0 21 18" fill="none" xmlns="http://www.w3.org/2000/svg">
<path d="M0.108476 6.04934L9.14345 17.266L5.04568 6.04934H0.108476ZM5.84962 6.04934L10.2171 18L14.6676 6.04934H5.84962ZM11.1893 17.5549L20.4574 6.04934H15.4756L11.1893 17.5549ZM16.9233 0H11.0778L15.0853 4.93213L16.9233 0ZM14.4041 5.29304L10.283 0.223036L6.16288 5.29203H14.4041V5.29304ZM9.48814 0H3.63852L5.45322 4.96559L9.48916 0H9.48814ZM3.00895 0.478513L0 5.29406H4.76891L3.00895 0.477499V0.478513ZM20.5649 5.29304L17.5539 0.473444L15.7575 5.29304H20.5649Z" fill="white"/>
</svg>
