<svg width="30" height="30" viewBox="0 0 30 30" fill="none" xmlns="http://www.w3.org/2000/svg">
<g clip-path="url(#clip0_1_11305)">
<path d="M16.5001 18.1875C16.9688 18.1875 21.7501 18.2813 25.2188 23.5312C26.1563 25.0312 25.6876 27 24.1876 27.75C20.8126 29.3438 14.8126 31.5 7.87507 27.6562C6.46882 26.8125 5.81257 24.5625 6.75007 23.1563C8.34382 21 11.3438 18.0937 16.5001 18.1875Z" fill="#4A6370"/>
<path d="M16.4061 19.4062C16.7811 19.4062 20.9061 19.5 23.9061 23.625C24.7499 24.75 24.2811 26.4375 22.9686 27C20.1561 28.3125 14.8124 29.7187 8.90615 26.7187C7.6874 26.0625 7.3124 24.4687 8.0624 23.3437C9.46865 21.5625 11.9999 19.3125 16.4061 19.4062Z" fill="#A2B6BA"/>
<path d="M16.4062 19.5937C16.7812 19.5937 20.0625 19.6875 22.5 23.0625C23.1562 24 22.7812 25.3125 21.75 25.7812C19.4062 26.8125 15.0937 28.0312 10.3125 25.5937C9.28125 25.0312 9 23.8125 9.65625 22.875C10.6875 21.375 12.75 19.5 16.4062 19.5937Z" fill="#87999B"/>
<path d="M15.6563 25.0313C22.5943 25.0313 28.2188 19.4068 28.2188 12.4688C28.2188 5.53067 22.5943 -0.09375 15.6563 -0.09375C8.71817 -0.09375 3.09375 5.53067 3.09375 12.4688C3.09375 19.4068 8.71817 25.0313 15.6563 25.0313Z" fill="#4A6370"/>
<path d="M15.6563 23.25C21.8177 23.25 26.8125 18.2552 26.8125 12.0938C26.8125 5.93232 21.8177 0.9375 15.6563 0.9375C9.49482 0.9375 4.5 5.93232 4.5 12.0938C4.5 18.2552 9.49482 23.25 15.6563 23.25Z" fill="#A2B6BA"/>
<path d="M16.125 21.4688C21.8204 21.4688 26.4375 16.8517 26.4375 11.1562C26.4375 5.46081 21.8204 0.84375 16.125 0.84375C10.4296 0.84375 5.8125 5.46081 5.8125 11.1562C5.8125 16.8517 10.4296 21.4688 16.125 21.4688Z" fill="#CBDEE4"/>
<path d="M22.0911 10.7491C23.7462 10.7491 25.088 9.40739 25.088 7.75228C25.088 6.09716 23.7462 4.75542 22.0911 4.75542C20.436 4.75542 19.0942 6.09716 19.0942 7.75228C19.0942 9.40739 20.436 10.7491 22.0911 10.7491Z" fill="#4A6370"/>
<path d="M22.0908 9.81627C23.1775 9.81627 24.0585 8.9353 24.0585 7.84856C24.0585 6.76183 23.1775 5.88086 22.0908 5.88086C21.004 5.88086 20.123 6.76183 20.123 7.84856C20.123 8.9353 21.004 9.81627 22.0908 9.81627Z" fill="#51C86E"/>
<path d="M13.5938 7.125C13.5938 7.125 14.1562 3.09375 17.1562 1.5C17.5312 1.21875 17.4375 0.9375 17.0625 0.9375H16.5C16.0313 0.9375 12.6562 1.125 11.4375 7.3125L13.5938 7.125Z" fill="#A2B6BA"/>
<path d="M19.4682 13.606C19.4825 9.67096 16.5139 6.47019 12.8378 6.45687C9.16162 6.44355 6.16995 9.62273 6.1557 13.5578C6.14144 17.4928 9.10999 20.6936 12.7861 20.7069C16.4623 20.7202 19.4539 17.541 19.4682 13.606Z" fill="#4A6370"/>
<path d="M18.0593 13.2861C18.0701 10.283 15.8124 7.84036 13.0165 7.83023C10.2205 7.8201 7.94513 10.2463 7.93425 13.2494C7.92337 16.2524 10.1811 18.6951 12.9771 18.7052C15.773 18.7154 18.0484 16.2891 18.0593 13.2861Z" fill="#3587C4"/>
<path d="M17.2326 13.0799C17.2416 10.5947 15.3601 8.57309 13.0302 8.56465C10.7002 8.55621 8.80412 10.5641 8.79511 13.0494C8.78611 15.5346 10.6676 17.5562 12.9976 17.5646C15.3275 17.5731 17.2236 15.5652 17.2326 13.0799Z" fill="#4DA3EC"/>
<path d="M15.3501 11.0104C15.3526 10.3373 14.8089 9.78971 14.1358 9.78727C13.4627 9.78483 12.9151 10.3285 12.9126 11.0016C12.9102 11.6747 13.4539 12.2223 14.127 12.2248C14.8001 12.2272 15.3477 11.6835 15.3501 11.0104Z" fill="white"/>
<path d="M15.897 3.56014C16.2887 3.16849 16.6803 2.69852 17.2287 2.30687C17.3853 2.15021 17.6203 2.07188 17.8553 2.15021C18.4036 2.30687 19.3436 2.62019 20.5185 3.32516C21.1452 3.71681 20.8318 4.73509 20.1269 4.65676C19.1086 4.57843 17.9336 4.57843 16.5237 4.73509C15.8187 4.89175 15.4271 4.10845 15.897 3.56014Z" fill="#E1F0F4"/>
</g>
<defs>
<clipPath id="clip0_1_11305">
<rect width="30" height="30" fill="white"/>
</clipPath>
</defs>
</svg>
