<svg width="30" height="30" viewBox="0 0 30 30" fill="none" xmlns="http://www.w3.org/2000/svg">
<g clip-path="url(#clip0_1_14957)">
<path d="M15 0.374648C10.6875 -0.937852 6.1875 1.31215 4.96875 5.3434L3 11.8121C8.25 13.1246 13.5 14.9059 18.75 16.5934L20.7188 10.1246C21.9375 5.99965 19.4063 1.68715 15 0.374648Z" fill="#4F1C21"/>
<path d="M2.99996 11.9062L1.03121 18.375C-0.187542 22.4063 2.34371 26.8125 6.65621 28.125C10.9687 29.4375 15.5625 27.1875 16.7812 23.1563L18.75 16.6875C13.5 14.9062 8.24996 13.125 2.99996 11.9062Z" fill="#4F1C21"/>
<path d="M18.7597 16.6202C19.312 14.7859 16.2231 12.234 11.8604 10.9204C7.49769 9.60679 3.51329 10.0289 2.96098 11.8632C2.40867 13.6976 5.49761 16.2494 9.86031 17.563C14.223 18.8766 18.2074 18.4545 18.7597 16.6202Z" fill="#4F1C21"/>
<path d="M14.5312 1.78082C10.875 0.655822 7.125 2.71832 6 6.37457L4.21875 12.1871C8.625 13.2183 12.9375 14.7183 17.25 16.1246L19.0312 10.3121C20.1562 6.74957 18.0938 2.90582 14.5312 1.78082Z" fill="#DD575E"/>
<path d="M4.21881 12.1875L2.53131 17.9063C1.40631 21.5625 3.46881 25.3125 7.12506 26.4375C10.7813 27.5625 14.5313 25.5 15.6563 21.8437L17.3438 16.125C12.9376 14.7188 8.62506 13.2188 4.21881 12.1875Z" fill="#D8D8D8"/>
<path d="M5.62506 11.5312L3.93756 17.25C2.81256 20.9062 4.87506 24.6562 8.53131 25.7812C12.1876 26.9062 15.9376 24.8438 17.0626 21.1875L18.7501 15.4687C14.3438 14.0625 10.0313 12.5625 5.62506 11.5312Z" fill="#F9F9F9"/>
<path d="M17.3571 16.1215C17.8497 14.4855 15.3152 12.2759 11.6961 11.1862C8.07706 10.0965 4.7439 10.5394 4.2513 12.1754C3.7587 13.8114 6.2932 16.0211 9.91227 17.1107C13.5313 18.2004 16.8645 17.7575 17.3571 16.1215Z" fill="#DD575E"/>
<path d="M5.4375 12.4685C5.4375 12.4685 6.65625 15.1873 9.75 14.9998L12.375 5.43727C12.375 5.43727 13.125 3.56227 15.2812 3.65602C15.2812 3.65602 9.28125 1.49977 7.21875 5.99977L5.4375 12.4685Z" fill="#F97D89"/>
<path d="M18.4688 4.96875L17.3437 10.5L16.125 14.25L18.4688 12.8438L19.4062 9.09375C19.4062 9.09375 19.5 6.375 18.4688 4.96875Z" fill="#C14C57"/>
<path d="M12.0937 20.0625L8.90625 22.5938L9.46875 25.5938L29.8125 20.0625L29.1563 16.7812L12.0937 20.0625Z" fill="#18303F"/>
<path d="M14.8125 17.4377L10.125 22.6877C8.53123 24.4689 9.37498 27.2814 11.7187 27.8439L18.5625 29.5314C20.7187 30.0939 22.9687 29.3439 24.375 27.7502L29.0625 22.5002C30.6562 20.7189 29.8125 17.9064 27.4687 17.3439L20.625 15.6564C18.4687 15.0939 16.2187 15.8439 14.8125 17.4377Z" fill="#18303F"/>
<path d="M14.3437 14.8127L9.65623 20.0627C8.06248 21.8439 8.90623 24.6564 11.25 25.2189L18.0937 26.9064C20.25 27.4689 22.5 26.7189 23.9062 25.1252L28.5937 19.8752C30.1875 18.0939 29.3437 15.2814 27 14.7189L20.1562 13.0314C18.0937 12.4689 15.8437 13.2189 14.3437 14.8127Z" fill="#18303F"/>
<path d="M13.2188 20.0625L10.5938 22.2188L11.0625 24.75L28.125 20.0625L27.5625 17.3438L13.2188 20.0625Z" fill="#36648E"/>
<path d="M15.5623 17.9062L11.6248 22.3125C10.3123 23.8125 11.0623 26.1562 12.9373 26.625L18.6561 28.125C20.4373 28.5937 22.3123 28.0312 23.5311 26.625L27.4686 22.2187C28.7811 20.7187 28.0311 18.375 26.1561 17.9062L20.4373 16.4062C18.6561 15.9375 16.7811 16.5 15.5623 17.9062Z" fill="#36648E"/>
<path d="M15.1873 15.75L11.2498 20.1562C9.93732 21.6562 10.6873 24 12.5623 24.4687L18.2811 25.9687C20.0623 26.4375 21.9373 25.875 23.1561 24.4687L27.0936 20.0625C28.4061 18.5625 27.6561 16.2187 25.7811 15.75L20.0623 14.25C18.2811 13.7812 16.4061 14.3437 15.1873 15.75Z" fill="#4A7DB4"/>
<path d="M15.7498 16.7808L12.8435 20.0621C11.906 21.1871 12.3748 22.8746 13.8748 23.2496L18.0935 24.2808C19.406 24.6558 20.8123 24.1871 21.7498 23.1558L24.656 19.8746C25.5935 18.7496 25.1248 17.0621 23.6248 16.6871L19.406 15.6558C18.0935 15.3746 16.6873 15.7496 15.7498 16.7808Z" fill="#72AADD"/>
</g>
<defs>
<clipPath id="clip0_1_14957">
<rect width="30" height="30" fill="white"/>
</clipPath>
</defs>
</svg>
