<svg width="30" height="30" viewBox="0 0 30 30" fill="none" xmlns="http://www.w3.org/2000/svg">
<g clip-path="url(#clip0_1_17272)">
<path d="M6.84375 2.43756C6.375 2.71881 6 3.46881 6.375 3.93756C5.8125 3.65631 4.96875 4.03131 4.875 4.68756C4.78125 5.06256 4.875 5.43756 4.6875 5.71881C4.59375 5.90631 4.40625 5.90631 4.3125 6.09381C4.125 6.28131 4.03125 6.65631 4.125 6.93756C4.21875 7.21881 4.5 7.40631 4.78125 7.50006C4.3125 7.50006 3.9375 7.87506 3.84375 8.25006C3.75 8.71881 3.9375 9.18756 4.3125 9.37506C3.9375 9.56256 3.65625 9.84381 3.65625 10.3126C3.65625 10.6876 3.84375 11.0626 4.125 11.3438C3.9375 11.6251 4.03125 12.0938 4.21875 12.3751C4.40625 12.7501 4.6875 12.9376 4.96875 13.2188C5.25 13.5001 5.625 13.8751 6 14.0626C6.375 14.2501 6.9375 14.4376 7.3125 14.2501C7.875 14.0626 8.34375 13.5001 8.625 13.0313C9.375 12.0001 10.0313 10.8751 10.4063 9.65631C10.875 8.43756 11.0625 7.21881 10.9687 5.90631C10.875 5.34381 10.7813 4.78131 10.4063 4.31256C10.125 3.93756 9.75 3.56256 9.46875 3.18756C9.1875 2.90631 8.90625 2.43756 8.4375 2.34381C7.96875 2.25006 7.3125 2.25006 6.84375 2.43756Z" fill="#4A3531"/>
<path d="M20.1564 18.6562C22.0314 19.2187 23.7189 20.8125 24.2814 22.9687C24.8439 25.2187 24.0939 27.8437 22.4064 29.0625C21.2814 29.9062 19.9689 30.0937 18.6564 30.0937C15.5626 30.0937 12.3751 29.0625 9.28136 28.0312C8.25011 27.6562 7.21886 27.2812 6.28136 26.625C5.34386 25.9687 4.59386 24.9375 4.40636 23.7187C4.21886 22.0312 5.25011 20.3437 6.56261 19.5C8.81261 18 11.2501 17.4375 13.5939 17.4375C15.6564 17.25 18.1876 18 20.1564 18.6562Z" fill="#305472"/>
<path d="M19.875 17.2502C21.5625 17.8127 23.25 19.4064 23.7187 21.5627C24.2812 23.8127 23.5312 26.4377 21.9375 27.6564C20.9062 28.5002 19.5937 28.6877 18.375 28.6877C15.4687 28.6877 12.4687 27.6564 9.56246 26.6252C8.62496 26.2502 7.59371 25.8752 6.74996 25.2189C5.90621 24.5627 5.15621 23.5314 5.06246 22.3127C4.87496 20.6252 5.81246 18.9377 7.12496 18.0939C9.28121 16.5939 11.5312 16.0314 13.7812 16.0314C15.5625 15.9377 18 16.5939 19.875 17.2502Z" fill="#997567"/>
<path d="M21.1143 24.8139C21.7373 22.8932 21.1643 20.9865 19.8345 20.5552C18.5048 20.1239 16.9218 21.3314 16.2989 23.2522C15.6759 25.1729 16.2489 27.0796 17.5786 27.5109C18.9084 27.9421 20.4913 26.7347 21.1143 24.8139Z" fill="#A88378"/>
<path d="M23.2317 11.5268C23.2499 6.5045 19.1932 2.41834 14.1709 2.40014C9.14854 2.38194 5.06238 6.4386 5.04418 11.4609C5.02598 16.4833 9.08264 20.5694 14.105 20.5876C19.1273 20.6058 23.2135 16.5492 23.2317 11.5268Z" fill="#4A3531"/>
<path d="M22.8264 10.8349C22.844 5.96785 18.9128 2.00806 14.0458 1.99043C9.17879 1.97279 5.219 5.90399 5.20137 10.771C5.18373 15.638 9.11492 19.5978 13.9819 19.6154C18.8489 19.6331 22.8087 15.7019 22.8264 10.8349Z" fill="#7A594F"/>
<path d="M22.8053 10.6008C22.8224 5.88912 19.1426 2.05617 14.5862 2.03966C10.0299 2.02315 6.3224 5.82934 6.30533 10.541C6.28825 15.2527 9.96806 19.0856 14.5244 19.1022C19.0808 19.1187 22.7883 15.3125 22.8053 10.6008Z" fill="#7A594F"/>
<path d="M18.2426 11.7383C18.255 8.32104 15.5788 5.54107 12.2651 5.52906C8.95135 5.51706 6.25502 8.27756 6.24264 11.6948C6.23025 15.1121 8.90651 17.8921 12.2202 17.9041C15.5339 17.9161 18.2303 15.1556 18.2426 11.7383Z" fill="#997567"/>
<path d="M15.0908 12.4544C15.0927 11.9366 14.7164 11.5155 14.2504 11.5138C13.7845 11.5121 13.4052 11.9305 13.4033 12.4482C13.4014 12.966 13.7777 13.3871 14.2437 13.3888C14.7096 13.3905 15.0889 12.9721 15.0908 12.4544Z" fill="#362826"/>
<path d="M8.59422 10.9656C8.59609 10.4478 8.21985 10.0267 7.75386 10.025C7.28787 10.0233 6.90859 10.4417 6.90672 10.9595C6.90484 11.4772 7.28108 11.8983 7.74707 11.9C8.21306 11.9017 8.59234 11.4834 8.59422 10.9656Z" fill="#362826"/>
<path d="M8.0308 10.6557C8.03137 10.5003 7.94788 10.3741 7.84432 10.3737C7.74077 10.3734 7.65637 10.499 7.6558 10.6543C7.65524 10.8096 7.73873 10.9359 7.84228 10.9362C7.94584 10.9366 8.03024 10.811 8.0308 10.6557Z" fill="white"/>
<path d="M12.4688 16.5C12.4688 16.5 11.625 16.4063 11.0625 15.9375C10.5 15.4688 9.9375 15.5625 9.75 15.5625C9.65625 15.5625 9.46875 15.375 9.28125 15.2812C9.09375 15.1875 8.8125 15.1875 8.8125 15.2812C8.8125 15.375 9.09375 15.8438 9.09375 15.8438C9.09375 15.8438 9.1875 16.2188 9.09375 16.4063C9 16.5938 9.09375 17.1563 9.75 17.3438C10.4062 17.5313 10.875 17.4375 11.1562 17.25C11.3438 17.1563 12.4688 16.5 12.4688 16.5Z" fill="#4A3531"/>
<path d="M13.5937 10.7812C13.6875 10.9687 13.9687 10.9687 14.1562 10.9687L17.0625 10.7812C17.1562 10.7812 17.3437 10.7812 17.4375 10.6875C17.5312 10.5937 17.4375 10.4062 17.3437 10.3125C17.25 10.2187 17.0625 10.2187 16.9687 10.2187C16.2187 10.125 15.5625 10.125 14.8125 10.2187C14.5312 10.125 13.3125 10.125 13.5937 10.7812ZM8.625 9.5625H8.90625C9 9.5625 9.09375 9.46875 9.09375 9.28125C9.09375 9.09375 8.90625 9 8.71875 8.90625C8.34375 8.8125 7.875 8.53125 7.3125 8.34375C7.21875 8.34375 7.03125 8.25 6.9375 8.25C6.84375 8.25 6.65625 8.34375 6.65625 8.53125C6.65625 8.71875 6.84375 8.8125 7.03125 8.90625C7.21875 9 7.5 9.09375 7.78125 9.1875C8.0625 9.375 8.34375 9.46875 8.625 9.5625Z" fill="#362826"/>
<path d="M17.0623 9C16.8748 9 16.6873 9.09375 16.5935 9C16.406 9 16.2185 8.90625 16.031 8.8125L13.6873 7.5C13.4998 7.40625 13.2185 7.21875 13.031 7.03125C12.281 7.875 10.781 7.78125 10.1248 6.9375C9.84352 7.21875 9.46852 7.21875 9.09352 7.125C8.81227 7.03125 8.53102 6.75 8.34352 6.46875C8.06227 6.46875 7.78102 6.5625 7.40602 6.5625C7.21852 6.09375 7.31227 5.4375 7.68727 5.0625C7.21852 5.25 6.65602 4.96875 6.56227 4.5C6.46852 4.21875 6.56227 3.84375 6.65602 3.5625C6.74977 3.1875 6.93727 2.90625 7.03102 2.53125C7.12477 2.15625 7.31227 1.78125 7.59352 1.59375C7.87477 1.40625 8.34352 1.40625 8.71852 1.3125C9.28102 1.21875 9.74977 0.75 10.2185 0.46875C10.781 0.1875 11.531 0 12.281 0C12.7498 0 13.406 0.1875 13.5935 0.5625C13.781 0.1875 14.2498 0 14.7185 0C15.1873 0 15.5623 0.375 15.656 0.75C16.6873 0.46875 17.8123 0.46875 18.8435 0.65625C19.2185 0.75 19.5935 0.84375 19.781 1.125C19.9685 1.40625 19.9685 1.96875 19.5935 2.0625C19.8748 2.15625 20.2498 2.0625 20.531 2.0625C20.8123 2.0625 21.1873 1.96875 21.4685 2.0625C21.7498 2.15625 22.031 2.4375 22.1248 2.71875C22.2185 3 21.8435 3.375 21.5623 3.28125L24.281 4.40625C23.8123 4.96875 23.0623 5.34375 22.3123 5.34375C22.4998 5.4375 22.781 5.4375 23.0623 5.625C23.3435 5.71875 23.531 6 23.531 6.28125C23.531 6.5625 23.3435 6.84375 23.0623 6.84375L23.9998 7.40625C23.7185 7.6875 23.531 8.0625 23.2498 8.34375C23.0623 8.53125 22.8748 8.8125 22.5935 8.90625C22.2185 9.09375 21.7498 9.09375 21.3748 8.8125C21.281 9.09375 21.281 9.5625 20.906 9.5625C20.6248 9.5625 20.3435 9.1875 20.156 9.09375C19.1248 8.4375 18.1873 8.8125 17.0623 9Z" fill="#4A3531"/>
<path d="M18.1875 7.59375C17.7187 7.5 17.1562 7.78125 17.0625 8.25C17.0625 8.625 17.25 9 17.625 9.09375C18 9.28125 18.375 9.375 18.75 9.375C18.5625 9.46875 18.375 9.65625 18.1875 9.75C18.2812 10.3125 18.8438 10.875 19.4062 10.9687C19.0312 10.9687 18.6562 11.3438 18.5625 11.8125C18.5625 12.1875 18.8437 12.6562 19.2187 12.75C19.0312 12.75 18.8437 12.75 18.6562 12.8437C18.4687 12.9375 18.2812 13.125 18.375 13.3125C18.375 13.6875 18.8437 13.875 18.8437 14.1562C18.8437 14.3438 18.6562 14.5312 18.375 14.625C18.1875 14.7188 17.9062 14.8125 17.9062 15.0938C17.8125 15.2812 18.0937 15.5625 18.2812 15.4688C18 15.5625 17.8125 15.8438 17.7187 16.125C17.7187 16.4063 17.9062 16.6875 18.1875 16.7812C17.9062 16.6875 17.625 16.875 17.625 17.1562C17.625 17.3437 17.8125 17.5313 18.0937 17.5313C18.375 17.5313 18.4687 17.5312 18.75 17.4375C18.75 17.625 18.75 17.9062 18.9375 18.0937C19.125 18.4687 19.5 18.6562 19.875 18.5625C20.25 18.4687 20.5312 18.0937 20.5312 17.7187C20.5312 17.8125 20.625 18 20.625 18.0937C21.4687 18.375 22.5 17.625 22.5937 16.7812C23.1562 16.9687 23.7188 16.7812 24.0938 16.3125C24.375 15.8437 24.375 15.1875 24.0938 14.8125C24.75 14.8125 25.3125 14.25 25.4062 13.6875C25.5 13.125 25.3125 12.375 24.75 12.0937C25.125 12.0937 25.5 11.7188 25.5 11.3438C25.5 10.9688 25.3125 10.5 24.9375 10.3125C24.6562 10.0312 24.1875 9.9375 23.8125 9.75C24.4687 9.375 25.125 8.8125 25.125 8.0625C25.125 7.40625 24.4687 6.75 23.8125 6.84375L21.1875 5.71875C20.9062 5.625 20.5312 5.4375 20.25 5.34375C19.7812 5.15625 19.3125 4.96875 18.75 4.96875C18.2812 4.96875 17.7187 5.34375 17.625 5.8125C17.625 6.09375 17.7187 6.375 17.8125 6.75C17.7187 6.9375 17.8125 7.21875 17.625 7.5" fill="#4A3531"/>
<path d="M22.4062 4.12484C22.7812 3.74984 23.5312 3.93734 23.7187 4.40609C23.9062 4.87484 23.6249 5.53109 23.0624 5.62484C23.3437 5.43734 23.7187 5.81234 23.9062 6.18734L24.3749 6.93734C24.6562 7.40609 24.9374 7.87484 25.0312 8.34359C25.2187 9.18734 25.0312 10.1248 24.8437 10.9686C24.7499 11.4373 24.5624 11.9998 24.0937 12.1873C23.6249 12.3748 23.1562 11.9998 22.7812 11.6248C21.9374 10.6873 21.7499 9.37484 21.2812 8.24984C21.0937 7.68734 20.8124 7.12484 20.5312 6.46859C20.1562 5.62484 18.8437 3.74984 19.6874 2.90609C20.5312 2.06234 22.4999 2.90609 22.4062 4.12484Z" fill="#4A3531"/>
<path d="M17.4374 1.03125C17.8124 1.03125 18.1874 1.03125 18.5624 1.21875C18.9374 1.40625 19.1249 1.78125 18.9374 2.15625C19.2186 1.6875 19.7811 1.40625 20.3436 1.59375C20.9061 1.6875 21.2811 2.25 21.2811 2.71875C21.6561 2.625 22.0311 2.4375 22.4061 2.4375C22.7811 2.34375 23.2499 2.4375 23.5311 2.8125C23.8124 3.1875 23.7186 3.65625 23.3436 3.84375C23.6249 3.65625 23.9999 3.75 24.2811 3.84375C24.5624 4.03125 24.7499 4.40625 24.6561 4.6875C24.6561 4.875 24.5624 5.0625 24.5624 5.25C24.6561 5.625 25.0311 5.8125 25.2186 6.09375C25.4061 6.375 25.4999 6.75 25.4999 7.125C25.5936 7.59375 25.5936 8.0625 25.6874 8.53125C25.7811 9.09375 25.7811 9.65625 25.8749 10.3125C25.8749 10.6875 25.9686 11.1562 25.6874 11.4375C25.5936 11.7187 25.5936 12.0937 25.4999 12.375C25.4061 12.75 25.3124 13.125 25.1249 13.5C24.8436 13.7812 24.4686 13.9687 24.0936 13.7812C23.8124 13.6875 23.7186 13.4062 23.6249 13.125C23.5311 12.8438 23.5311 12.5625 23.5311 12.2812C23.4374 11.9062 23.2499 11.5312 22.9686 11.3438C22.6874 11.1562 22.2186 11.0625 21.8436 11.25C21.9374 10.875 22.0311 10.5 21.9374 10.125C21.8436 9.75 21.6561 9.375 21.2811 9.28125C20.7186 9.1875 20.1561 9.5625 19.6874 9.28125C19.2186 8.90625 19.6874 8.15625 19.4061 7.6875C19.1249 7.21875 18.4686 7.21875 17.9999 7.3125C17.4374 7.40625 16.8749 7.5 16.4999 7.125C16.3124 6.9375 16.3124 6.75 16.2186 6.5625C15.7499 5.4375 15.4686 4.125 15.3749 2.90625C15.2811 1.78125 16.5936 1.125 17.4374 1.03125Z" fill="#4A3531"/>
<path d="M5.53109 19.6875C5.53109 19.6875 6.46859 23.4375 9.46859 24.375C12.4686 25.3125 16.9686 25.875 19.9686 24.75C22.9686 23.625 23.8123 22.5938 23.8123 22.5938C23.8123 22.5938 24.4686 29.9062 16.5936 28.7812C8.71859 27.6562 5.90609 25.0313 5.62484 24.5625C5.34359 24 3.84359 22.4062 5.53109 19.6875Z" fill="#53A9B8"/>
<path d="M12 7.78102C12.0937 8.24977 12.375 8.53102 12.75 8.81227C13.125 9.09352 13.5 9.18727 13.9687 9.37477C13.6875 9.28102 13.3125 9.56227 13.3125 9.84352C13.2187 10.1248 13.4062 10.4998 13.5937 10.6873C13.7812 10.8748 14.0625 11.0623 14.4375 11.156C14.0625 11.2498 13.9687 11.531 14.0625 11.8123C14.1562 12.0935 14.3437 12.281 14.5312 12.3748C15 12.7498 15.4687 13.031 15.9375 13.3123C16.5 13.6873 17.1562 13.9685 17.8125 14.2498C18.1875 14.4373 18.6562 14.531 19.125 14.4373C19.6875 14.2498 19.9687 13.781 20.1562 13.3123C20.5312 12.3748 20.8125 11.4373 20.8125 10.4998C20.8125 10.031 20.8125 9.65602 20.625 9.18727C20.4375 8.62477 19.9687 8.15602 19.5 7.87477C18.9375 7.49977 18.375 7.31227 17.8125 7.12477C16.9687 6.74977 16.0312 6.46852 15.0937 6.37477C14.1562 6.18727 11.7187 6.28102 12 7.78102Z" fill="#4A3531"/>
<path d="M5.71875 7.6875C5.71875 7.6875 9.65625 7.3125 13.875 9.375C13.875 9.375 12.75 5.90625 7.40625 4.96875C7.40625 4.96875 5.90625 6.28125 5.71875 7.6875Z" fill="#6A648E"/>
<path d="M10.0312 27.4687C10.0312 27.4687 8.8125 26.0625 8.8125 25.3125C8.8125 25.3125 7.96875 25.875 7.78125 26.5312C7.78125 26.625 9.5625 27.5625 10.0312 27.4687Z" fill="#305472"/>
<path d="M20.0048 23.5452C20.2604 22.7572 19.9885 21.963 19.3975 21.7713C18.8065 21.5796 18.1202 22.063 17.8646 22.851C17.609 23.639 17.881 24.4332 18.472 24.6249C19.063 24.8166 19.7492 24.3332 20.0048 23.5452Z" fill="#A88378"/>
<path opacity="0.43" d="M20.1563 24.6562C20.1563 24.6562 20.625 29.25 17.625 29.5313C17.625 29.5313 24.5625 29.25 24.0938 22.4062C24.0938 22.4062 22.7813 23.9062 20.1563 24.6562Z" fill="#305472"/>
<path d="M7.21875 6.84375C7.21875 6.84375 7.40625 6.09375 8.0625 5.71875C8.0625 5.71875 11.25 6.84375 12.375 7.96875C12.2812 8.0625 9.46875 6.84375 7.21875 6.84375Z" fill="#807CA5"/>
<path d="M14.5312 2.81234C16.1249 2.99984 17.8124 3.28109 19.3124 3.84359C19.6874 4.03109 20.1562 4.21859 20.3437 4.59359C20.5312 4.96859 20.4374 5.53109 20.0624 5.71859C20.5312 6.09359 21.1874 6.28109 21.7499 6.18734C21.7499 6.56234 21.8437 6.84359 21.8437 7.21859C22.4999 8.06234 22.7812 9.18734 22.9687 10.2186C23.0624 10.7811 23.2499 11.4373 23.1562 11.9998C23.0624 12.5623 22.7812 13.2186 22.2187 13.4061C21.1874 13.2186 21.0937 11.5311 20.0624 11.2498C19.3124 11.0623 18.3749 11.9061 17.7187 11.4373C17.2499 11.0623 17.4374 10.2186 17.7187 9.65609C17.2499 9.74984 16.7812 9.37484 16.5937 8.99984C16.4062 8.62484 16.3124 8.06234 16.2187 7.59359C16.1249 7.12484 15.9374 6.65609 15.4687 6.37484C15.0937 6.09359 14.5312 6.18734 14.0624 5.90609C13.5937 5.62484 13.3124 5.15609 12.9374 4.68734C12.6562 4.21859 11.9999 3.84359 11.7187 3.28109C11.1562 2.34359 13.8749 2.71859 14.5312 2.81234Z" fill="#604845"/>
<path d="M21.75 15.75L18.0937 14.8125C17.7187 15.2812 17.8125 16.0312 18 16.6875C18.0938 17.1562 18.1875 17.5313 18.4688 17.9063C18.8438 18.375 19.5937 18.4688 20.1562 18.375C20.7188 18.2813 21.2812 17.9062 21.8437 17.625C22.5937 17.1562 23.4375 16.5937 23.9062 15.8437C23.25 16.0312 22.5 16.0312 21.75 15.75Z" fill="#362826"/>
<path d="M21.5625 24.4688C21.75 24.4688 24.0937 24.4688 25.7812 27.0938C26.25 27.8438 25.9687 28.7813 25.2187 29.1563C23.625 29.9063 20.625 30.9376 17.3437 29.1563C16.6875 28.7813 16.3125 27.6563 16.7812 27.0001C17.625 25.7813 19.125 24.3751 21.5625 24.4688Z" fill="#425763"/>
<path d="M21.5623 25.0314C21.7498 25.0314 23.7185 25.0314 25.2185 27.0939C25.5935 27.6564 25.406 28.4064 24.7498 28.6876C23.3435 29.3439 20.8123 30.0001 17.906 28.5939C17.3435 28.3126 17.156 27.4689 17.531 27.0001C18.1873 26.0626 19.406 24.9376 21.5623 25.0314Z" fill="#A2B6BA"/>
<path d="M21.5623 25.1252C21.7498 25.1252 23.3435 25.1252 24.5623 26.8127C24.8435 27.2814 24.7498 27.9377 24.1873 28.1252C23.0623 28.5939 20.9998 29.2502 18.656 28.0314C18.1873 27.7502 17.9998 27.1877 18.3748 26.7189C18.7498 25.9689 19.781 25.0314 21.5623 25.1252Z" fill="#87999B"/>
<path d="M21.1875 27.75C24.553 27.75 27.2812 25.0217 27.2812 21.6562C27.2812 18.2908 24.553 15.5625 21.1875 15.5625C17.822 15.5625 15.0938 18.2908 15.0938 21.6562C15.0938 25.0217 17.822 27.75 21.1875 27.75Z" fill="#425763"/>
<path d="M21.1875 26.9062C24.1905 26.9062 26.625 24.4718 26.625 21.4687C26.625 18.4657 24.1905 16.0312 21.1875 16.0312C18.1845 16.0312 15.75 18.4657 15.75 21.4687C15.75 24.4718 18.1845 26.9062 21.1875 26.9062Z" fill="#A2B6BA"/>
<path d="M21.375 25.9688C24.1192 25.9688 26.3438 23.7442 26.3438 21C26.3438 18.2558 24.1192 16.0312 21.375 16.0312C18.6308 16.0312 16.4062 18.2558 16.4062 21C16.4062 23.7442 18.6308 25.9688 21.375 25.9688Z" fill="#CBDEE4"/>
<path d="M24.0938 20.625C24.7151 20.625 25.2187 20.1213 25.2187 19.5C25.2187 18.8787 24.7151 18.375 24.0938 18.375C23.4724 18.375 22.9688 18.8787 22.9688 19.5C22.9688 20.1213 23.4724 20.625 24.0938 20.625Z" fill="#425763"/>
<path d="M24.1875 20.0625C24.5499 20.0625 24.8437 19.7687 24.8437 19.4063C24.8437 19.0438 24.5499 18.75 24.1875 18.75C23.8251 18.75 23.5312 19.0438 23.5312 19.4063C23.5312 19.7687 23.8251 20.0625 24.1875 20.0625Z" fill="#4ED154"/>
<path d="M20.1563 19.0312C20.1563 19.0312 20.4375 17.0625 21.9375 16.3125C22.125 16.2187 22.125 16.0312 21.8437 16.0312H21.5625C21.375 16.0312 19.6875 16.125 19.125 19.125L20.1563 19.0312Z" fill="#A2B6BA"/>
<path d="M22.9886 22.2604C22.9956 20.3447 21.5741 18.7865 19.8137 18.7801C18.0533 18.7737 16.6206 20.3216 16.6136 22.2373C16.6067 24.153 18.0282 25.7112 19.7886 25.7176C21.549 25.724 22.9817 24.1761 22.9886 22.2604Z" fill="#425763"/>
<path d="M22.3708 22.1026C22.3761 20.6529 21.289 19.4737 19.9429 19.4688C18.5967 19.4639 17.5011 20.6352 17.4958 22.085C17.4906 23.5347 18.5776 24.7139 19.9238 24.7188C21.27 24.7237 22.3656 23.5524 22.3708 22.1026Z" fill="#3587C4"/>
<path d="M21.9072 22.0027C21.9115 20.8119 20.9916 19.8431 19.8525 19.839C18.7135 19.8349 17.7865 20.7969 17.7822 21.9878C17.7779 23.1787 18.6978 24.1474 19.8369 24.1515C20.976 24.1556 21.9029 23.1936 21.9072 22.0027Z" fill="#4DA3EC"/>
<path d="M21.0099 20.9826C21.011 20.6719 20.76 20.4192 20.4494 20.4181C20.1387 20.4169 19.886 20.6679 19.8849 20.9785C19.8837 21.2892 20.1347 21.5419 20.4453 21.5431C20.756 21.5442 21.0087 21.2933 21.0099 20.9826Z" fill="white"/>
<path d="M21.281 17.5313L22.031 16.7813C22.1248 16.6875 22.3123 16.6875 22.406 16.6875C22.6873 16.7812 23.2498 16.9688 23.906 17.3438C24.281 17.5313 24.0935 18.1875 23.6248 18.0938L21.5623 18.1875C21.281 18.2813 21.0935 17.8125 21.281 17.5313Z" fill="#E1F0F4"/>
</g>
<defs>
<clipPath id="clip0_1_17272">
<rect width="30" height="30" fill="white"/>
</clipPath>
</defs>
</svg>
