<svg width="30" height="30" viewBox="0 0 30 30" fill="none" xmlns="http://www.w3.org/2000/svg">
<g clip-path="url(#clip0_1_10341)">
<path d="M6.28145 14.156C6.28145 14.156 3.5627 13.5935 1.8752 14.6248C0.187697 15.656 1.40645 17.531 2.71895 17.3435C4.03145 17.156 5.53145 14.531 6.28145 14.156Z" fill="#4D7D8E" stroke="#4D7D8E" stroke-width="0.490313" stroke-miterlimit="10"/>
<path d="M5.81265 14.4375C5.81265 14.4375 3.56265 13.9687 2.25015 14.8125C0.937646 15.6562 1.87515 17.0625 2.9064 16.9687C3.93765 16.875 5.1564 14.7187 5.81265 14.4375Z" fill="#B0F4FF"/>
<path d="M3.09375 16.2187C3.45619 16.2187 3.75 15.9249 3.75 15.5625C3.75 15.2001 3.45619 14.9062 3.09375 14.9062C2.73131 14.9062 2.4375 15.2001 2.4375 15.5625C2.4375 15.9249 2.73131 16.2187 3.09375 16.2187Z" fill="white"/>
<path d="M21.4687 8.71875L22.9688 6.75L22.875 5.34375L25.125 7.96875L25.3125 13.875L19.9687 10.7812L21.4687 8.71875ZM7.78125 8.25C7.78125 8.25 5.34375 10.125 4.96875 13.9688L7.78125 11.5313L8.0625 8.0625L7.78125 8.25ZM12.2812 5.0625C12.2812 5.0625 12.6562 3.5625 11.8125 1.78125C11.8125 1.78125 13.9687 2.4375 15.8437 4.21875L15.6562 5.34375L13.7812 6.9375L12.2812 5.0625Z" fill="#9A4C18"/>
<path d="M26.1348 20.5366C27.2522 14.5302 23.2064 8.73981 17.0982 7.60341C10.99 6.46702 5.13249 10.4149 4.01503 16.4213C2.89758 22.4277 6.94337 28.2181 13.0516 29.3545C19.1598 30.4909 25.0173 26.543 26.1348 20.5366Z" fill="#9A4C18"/>
<path d="M24.9477 19.748C26.0273 13.9452 22.3222 8.38895 16.6721 7.33778C11.022 6.28662 5.56655 10.1386 4.48697 15.9414C3.4074 21.7442 7.11253 27.3004 12.7626 28.3515C18.4127 29.4027 23.8682 25.5508 24.9477 19.748Z" fill="#E5895B"/>
<path d="M23.9158 18.9626C24.9291 13.5162 21.4591 8.30252 16.1653 7.31764C10.8715 6.33277 5.75865 9.94961 4.74536 15.3961C3.73207 20.8426 7.2021 26.0562 12.4959 27.0411C17.7896 28.026 22.9025 24.4091 23.9158 18.9626Z" fill="#FAD395"/>
<path d="M21.094 15.1875C21.094 15.1875 23.6252 16.0312 24.469 15.8437C25.4065 15.6562 26.4377 15.9375 26.6252 15.1875C26.9065 14.4375 26.719 9.84375 22.0315 7.21875L23.8127 11.7188L21.094 15.1875ZM7.68771 10.125C7.68771 10.125 7.12521 8.4375 8.34396 6.9375C9.46896 5.4375 9.09396 2.625 9.09396 2.625L13.3127 5.0625C13.3127 5.0625 15.7502 6.65625 15.094 7.875C14.4377 9.09375 12.9377 10.7812 12.7502 10.875C12.5627 10.9688 11.4377 12 11.4377 12L7.68771 10.125Z" fill="#9A4C18"/>
<path d="M8.15625 10.5938C8.15625 10.5938 8.34375 8.4375 9.1875 7.96875C10.125 7.5 10.0312 4.40625 10.0312 4.40625L14.25 6.84375C14.25 6.84375 16.6875 8.4375 16.0313 9.65625C15.375 10.875 13.875 12.5625 13.6875 12.6562C13.5 12.75 12.6562 13.3125 12.6562 13.3125L8.15625 10.5938ZM19.5938 14.5312C19.5938 14.5312 22.125 15.375 22.9688 15.1875C23.9062 15 24.9375 15.2812 25.125 14.5312C25.4062 13.7812 25.2188 9.1875 20.5312 6.5625L22.3125 11.0625L19.5938 14.5312Z" fill="#DB7D1F"/>
<path d="M10.7811 11.4375C10.7811 11.4375 9.56238 10.7812 10.9686 8.71875C12.3749 6.65625 15.4686 4.3125 15.4686 4.3125L13.1249 0C13.1249 0 17.9999 0.5625 20.7186 5.15625C20.7186 5.15625 24.3749 8.8125 23.9999 10.4062C23.6249 12 24.5624 15.5625 22.7811 15.9375C20.9999 16.3125 11.1561 12.0938 10.7811 11.4375Z" fill="#9A4C18"/>
<path d="M11.3438 11.9062C11.3438 11.9062 11.4375 10.125 12.4687 8.625C13.5 7.125 16.2187 5.0625 16.2187 5.0625L15.4688 1.875C15.4688 1.875 17.9062 2.34375 19.9687 5.8125C19.9687 5.8125 22.7812 8.625 22.5 9.84375C22.3125 11.0625 20.9062 14.8125 19.5 15.0937C18.1875 15.375 11.625 12.375 11.3438 11.9062Z" fill="#F49937"/>
<path d="M13.7812 11.8125L16.2187 8.25L17.1562 3.75L18.5625 8.90625L16.5938 13.3125C16.6875 13.3125 14.3438 12.8438 13.7812 11.8125Z" fill="#FDE049"/>
<path d="M25.3125 11.9062L24.1875 14.625L22.3125 12.75L22.6875 15.1875L26.0625 15.5625L25.3125 11.9062Z" fill="#9A4C18"/>
<path d="M20.5312 13.0312L22.2188 14.3438L24.6562 13.5938L23.9062 15.1875L22.5938 15.375L18.9375 15.0938L20.5312 13.0312ZM11.3438 7.875L10.875 10.0313L12 12.4688L11.625 12.1875L9.46875 10.875L9.28125 8.90625L11.3438 7.875Z" fill="#DB7D1F"/>
<path d="M17.0625 14.8125L19.9687 11.5312L20.5312 7.5L19.9687 5.53125C19.9687 5.53125 21.9375 7.59375 22.3125 8.25C22.6875 8.90625 22.9688 10.5 22.6875 10.875L20.4375 14.9062L19.5 15.1875C19.5 15.1875 17.8125 15.2812 17.0625 14.8125Z" fill="#DB7D1F"/>
<path d="M11.9062 8.4375H12.5624C12.5624 8.4375 11.4374 10.125 11.6249 11.625C11.6249 11.625 10.1249 10.6875 11.2499 8.34375L11.9062 8.4375Z" fill="#9A4C18"/>
<path d="M21.4688 14.25C21.4688 14.25 24 13.9688 24.1875 12.1875C24.1875 12.1875 24.4688 13.6875 23.9063 14.5312C23.3438 15.2812 21.9375 14.7187 21.9375 14.7187L21.4688 14.25Z" fill="#DB7D1F"/>
<path d="M11.4375 12.75L12.4688 14.4375H18.5625L19.2188 12.5625L16.5 14.1562L12.6563 12.4687L11.5313 11.3438L11.4375 12.75Z" fill="#F49937"/>
<path d="M19.3125 15.0938C19.3125 15.0938 19.7812 15.9375 19.9688 16.5L18.5625 17.625C18.5625 17.625 21.1875 18.1875 21.2813 19.4063C21.375 20.625 20.5312 21.9375 20.5312 21.9375L25.0313 22.4062C25.0313 22.4062 25.9688 17.625 25.0313 15.2812L23.7188 13.875L21.75 14.625L19.3125 15.0938ZM9.1875 10.7813L5.25 13.4063C5.25 13.4063 5.71875 11.3438 7.59375 9.28125L9.1875 10.7813Z" fill="#DB7D1F"/>
<path d="M24.2813 23.3437L20.4375 21.8437V21.2812L25.3125 21.4687L24.2813 23.3437Z" fill="#9A4C18"/>
<path d="M21.5625 21.5625L21.75 18.9375C21.75 18.9375 20.1563 17.8125 18.9375 17.4375L18.2812 17.3438L19.875 18.5625L20.4375 21.75L21.5625 21.5625Z" fill="#9A4C18"/>
<path d="M19.5937 17.8125L20.625 16.5938L19.2187 14.3438L16.5 14.9062L19.3125 15.5625L18.375 17.3437L19.5937 17.8125Z" fill="#9A4C18"/>
<path d="M18.75 15L12.0937 15.0938L11.25 12.375L12.8437 14.0625L19.125 14.3438L18.75 15Z" fill="#9A4C18"/>
<path d="M12.2813 14.9062L9.375 13.5937L12.0937 13.875L12.2813 14.9062ZM11.7188 13.3125L8.71875 12L5.0625 13.5L8.4375 10.5938L11.3438 12.2813L11.625 13.2188" fill="#9A4C18"/>
<path d="M19.125 14.5313L23.7188 15.5625L24.1875 18L21.2813 19.5938L20.5312 19.0312L19.125 14.5313ZM7.78125 11.9062L10.6875 14.0625L12.375 13.9687L11.9062 13.125L9.375 11.9062H7.78125Z" fill="#9A4C18"/>
<path d="M18.6562 15.5625L23.0625 15.75L23.4375 17.5313L19.4063 19.0312L17.4375 17.625L18.6562 15.5625Z" fill="#FAD395"/>
<path d="M23.3436 16.7816C23.3436 16.7816 18.5623 14.3441 14.7186 13.7816C14.7186 13.7816 14.1561 13.9691 13.5936 13.7816C13.1248 13.5004 12.7498 12.9379 12.7498 12.9379C9.65606 10.8754 5.24981 9.65663 5.24981 9.65663C5.24981 9.65663 4.87481 9.46913 4.49981 10.1254C4.12481 10.8754 4.68731 11.0629 4.68731 11.0629C4.68731 11.0629 3.09356 14.0629 3.74981 15.2816C4.40606 16.5004 7.03106 18.3754 8.15606 18.9379C9.18731 19.5004 9.93731 19.3129 10.5936 18.5629C11.2498 17.8129 11.9061 16.5941 12.2811 15.9379C12.4686 15.5629 12.7498 15.4691 12.9373 15.5629H13.1248C13.2186 15.6566 13.4061 15.8441 13.3123 16.3129C13.2186 17.0629 12.8436 18.4691 12.8436 19.5004C12.8436 20.5316 13.2186 21.2816 14.4373 21.6566C15.6561 22.1254 19.1248 22.8754 20.6248 22.5004C22.1248 22.1254 22.8748 18.3754 22.8748 18.3754C22.8748 18.3754 23.5311 18.6566 23.7186 17.8129C23.8123 16.9691 23.3436 16.7816 23.3436 16.7816Z" fill="#4A4A4A"/>
<path d="M14.9062 14.25C14.9062 14.25 20.3438 15.5625 23.25 17.3438L23.1563 17.7187L14.9062 14.25Z" fill="#6F6F6F"/>
<path d="M21.75 17.7188C20.7188 17.1563 17.7188 15.6563 14.5312 15.2812C14.25 15.2812 14.0625 15.4688 13.9687 15.75C13.7812 16.5 13.5 18 13.4062 19.4063C13.4062 19.6875 13.5 19.9688 13.5937 20.1563C14.9062 19.5938 18.8437 18 21.8437 17.7188H21.75Z" fill="white"/>
<path d="M21.8437 17.8125C18.75 18 14.9062 19.5938 13.5938 20.25C13.7812 20.5313 13.9687 20.8125 14.25 20.9062C15.5625 21.4687 18.375 22.3125 20.25 21.75C20.3438 21.75 20.4375 21.6562 20.5312 21.5625C20.8125 21.2812 21.4688 20.4375 22.0312 18.375C22.0312 18.1875 22.0312 17.9062 21.8437 17.8125Z" fill="#CCCCCC"/>
<path d="M5.53125 11.2495C5.34375 11.1558 5.0625 11.3433 4.96875 11.5308C4.21875 13.2183 4.125 14.2495 4.125 14.6245C4.125 14.7183 4.125 14.812 4.21875 14.9058C4.3125 15.187 4.5 15.3745 4.6875 15.6558C6.28125 15.0933 9.09375 14.2495 11.5312 13.9683C9.09375 12.2808 6.46875 11.437 5.53125 11.2495Z" fill="white"/>
<path d="M11.7188 14.1563C11.625 14.0625 11.5312 14.0625 11.4375 13.9688C9 14.25 6.1875 15.0938 4.59375 15.6563C5.625 16.9688 7.40625 17.9063 8.4375 18.375C8.90625 18.5625 9.46875 18.4688 9.9375 17.9063C10.7813 16.875 11.5313 15.5625 11.8125 14.8125C12 14.625 12 14.3438 11.7188 14.1563Z" fill="#CCCCCC"/>
<path d="M6.75 19.7815C8.34375 21.094 12.375 23.9065 18.1875 23.8128C18.6562 23.8128 18.8438 24.3753 18.4688 24.6565C17.0625 25.8753 14.1562 27.844 10.5 26.5315C6.75 25.219 6 21.844 5.90625 20.0628C5.90625 19.7815 6.375 19.5003 6.75 19.7815Z" fill="#9A4C18" stroke="#9A4C18" stroke-width="0.371719" stroke-miterlimit="10"/>
<path d="M6.46875 20.1562C6.46875 20.1562 10.0312 24.1875 17.625 24.2812C17.625 24.2812 16.4063 25.2188 15.4688 25.5C15.4688 25.5 12 25.875 7.03125 22.5938C7.03125 22.6875 6.65625 21.8438 6.46875 20.1562Z" fill="white"/>
<path d="M8.53125 24.8435C8.53125 24.8435 11.1562 24.7498 12.4687 26.6248C12.4687 26.6248 9.84375 26.906 8.53125 24.8435Z" fill="#E5895B"/>
<path d="M23.5312 19.4067C23.5312 19.4067 26.8125 18.6567 28.7813 19.9692C30.75 21.2817 29.3438 23.3442 27.8438 23.1567C26.25 22.9692 24.375 19.7817 23.5312 19.4067Z" fill="#4D7D8E" stroke="#4D7D8E" stroke-width="0.582937" stroke-miterlimit="10"/>
<path d="M24.0938 19.6873C24.0938 19.6873 26.7188 19.1248 28.3125 20.156C29.9063 21.1873 28.7812 22.8748 27.5625 22.781C26.3437 22.6873 24.8438 19.9685 24.0938 19.6873Z" fill="#B0F4FF"/>
<path d="M27.2813 21.8437C27.6955 21.8437 28.0313 21.466 28.0313 21C28.0313 20.534 27.6955 20.1562 27.2813 20.1562C26.867 20.1562 26.5312 20.534 26.5312 21C26.5312 21.466 26.867 21.8437 27.2813 21.8437Z" fill="white"/>
<path d="M21.8438 23.25C21.8438 23.25 24.6563 24.2813 25.5 26.1563C26.3438 28.0313 24.2812 28.9688 23.25 28.125C22.2187 27.2813 22.3125 24.0938 21.8438 23.25Z" fill="#4D7D8E" stroke="#4D7D8E" stroke-width="0.523687" stroke-miterlimit="10"/>
<path d="M22.2188 23.7188C22.2188 23.7188 24.4687 24.5625 25.2187 26.0625C25.875 27.5625 24.2812 28.3125 23.4375 27.6563C22.5 27 22.5938 24.375 22.2188 23.7188Z" fill="#B0F4FF"/>
<path d="M24.5662 26.6813C24.7886 26.3318 24.721 25.8908 24.4152 25.6962C24.1094 25.5016 23.6812 25.6271 23.4588 25.9766C23.2364 26.3261 23.304 26.7671 23.6098 26.9617C23.9156 27.1563 24.3438 27.0308 24.5662 26.6813Z" fill="white"/>
<path d="M18.6562 21.0942C18.6562 21.0942 17.625 21.0004 16.4062 23.5317L18.75 23.1567L18.6562 21.0942Z" fill="#9A4C18"/>
<path d="M21.6564 23.7187C21.6564 23.7187 18.7502 22.4062 17.3439 22.7812C16.5002 23.0625 15.5627 24.5625 15.0002 25.7813C14.5314 26.7188 15.0002 27.5625 15.7502 28.3125C16.4064 28.875 17.5314 29.0625 17.9064 29.1563L20.2502 27.0938L21.6564 23.7187Z" fill="#9A4C18"/>
<path d="M21.8439 24.0004C21.8439 24.0004 19.2189 22.7816 17.9064 23.1566C17.1564 23.3441 16.4064 24.6566 15.8439 25.6879C15.3752 26.6254 15.5627 27.7504 16.3127 28.4066C16.8752 28.8754 17.7189 29.0629 18.0002 29.1566L20.5314 27.0004L21.8439 24.0004Z" fill="#E5895B"/>
<path d="M21.3752 24.2813C21.3752 24.2813 19.1252 23.2501 18.0002 23.6251C17.4377 23.8126 16.8752 24.7501 16.4064 25.5938C15.9377 26.5313 16.1252 27.6563 16.8752 28.4063C17.2502 28.7813 17.6252 29.0626 17.9064 29.1563L20.3439 27.0001L21.3752 24.2813Z" fill="#FAD395"/>
<path d="M18.4689 23.2501C18.2814 23.1563 18.0939 22.5001 18.0002 21.9376C17.9064 21.6563 18.0002 21.3751 18.1877 21.2813L21.0939 20.4376C21.2814 20.3438 21.4689 20.3438 21.6564 20.5313C22.1252 20.8126 22.4064 20.9063 22.5939 21.5626C22.6877 22.1251 22.4064 22.5938 22.0314 22.6876C20.8127 22.9688 18.6564 23.2501 18.4689 23.2501Z" fill="#9A4C18"/>
<path d="M18.6562 23.0626C18.4687 22.9688 18.375 22.4063 18.2812 21.9376C18.2812 21.6563 18.2813 21.4688 18.4688 21.3751L21.0938 20.8126C21.2812 20.7188 21.4688 20.7188 21.6563 20.9063C22.0313 21.1876 22.3125 21.0938 22.4062 21.5626C22.5 22.0313 22.3125 22.4063 21.9375 22.5001C20.7187 22.7813 18.8437 23.1563 18.6562 23.0626Z" fill="#E5895B"/>
<path d="M18.6562 22.9684C18.5625 22.9684 18.375 22.4059 18.375 22.0309C18.375 21.8434 18.375 21.6559 18.5625 21.5622L20.7188 21.1872C20.8125 21.0934 21 21.1872 21.0937 21.1872C21.375 21.3747 21.2813 21.2809 21.2813 21.6559C21.375 22.0309 21.2812 22.3122 21 22.4059C20.25 22.6872 18.75 22.9684 18.6562 22.9684Z" fill="#FAD395"/>
<path d="M18.6563 21.375L18.4688 21.2812C18.4688 21.2812 17.5313 21.8437 17.25 22.5C16.9688 23.1562 16.6875 24.375 16.6875 24.375L17.9063 23.4375L18.8438 23.25L18.6563 23.0625C18.6563 23.0625 18.5625 22.9687 18.4688 22.7812C18.375 22.5937 18.375 21.8437 18.375 21.8437V21.5625L18.6563 21.375Z" fill="#E5895B"/>
<path d="M18.8438 22.9688L18.75 23.25L18.375 23.1563C18.375 23.1563 18.375 22.9688 18.4688 22.9688H18.8438Z" fill="#E5895B"/>
<path d="M18.75 22.0312L18.375 21.5625C18.375 21.5625 17.7188 21.9375 17.4375 22.875C17.25 23.8125 16.875 24.5625 16.875 24.5625L18.2812 23.8125L18.375 23.5313C18.375 23.5313 18.1875 23.5312 18.1875 23.3437C18.1875 23.1562 18.75 22.9688 18.75 22.9688V22.0312Z" fill="#FAD395"/>
<path d="M19.4062 21.2813C19.4062 21.2813 18.2812 21.4688 17.4375 22.6875V22.4062C17.4375 22.4062 18 21.2812 19.2187 21.1875L19.4062 21.2813ZM19.6875 22.5C19.6875 22.5 18.2812 22.5937 17.8125 23.8125L18.1875 24.2812C18.1875 24.2812 17.4375 24.5625 17.1562 24.9375C16.9687 25.2188 16.7812 26.25 16.7812 26.4375C16.7812 26.625 16.875 26.8125 16.875 26.8125C16.875 26.8125 16.125 27.4687 16.125 27.6562C16.125 27.8437 16.5 28.3125 16.5 28.3125L17.4375 26.8125L17.3437 26.4375L17.7187 25.6875L18.1875 24.9375L18.9375 24.5625L19.0312 23.9062L19.6875 22.5Z" fill="#E5895B"/>
<path d="M18.6565 24.4692C18.469 24.2817 18.9377 23.438 19.3127 22.8755C19.594 22.5005 19.8752 22.313 20.2502 22.4067L23.2502 23.063C23.4377 23.063 23.5315 23.2505 23.6252 23.438C23.719 23.9067 23.4377 24.4692 23.1565 24.938C22.8752 25.4067 22.5002 25.688 22.1252 25.5942C20.9065 25.4067 18.844 24.7505 18.6565 24.4692Z" fill="#9A4C18"/>
<path d="M19.4063 24.4688C19.2188 24.2813 19.6876 23.625 19.9688 23.1563C20.1563 22.875 20.4376 22.7812 20.7188 22.7812L23.0626 23.1563C23.2501 23.1563 23.3438 23.25 23.3438 23.4375C23.4376 23.8125 23.2501 24.2813 22.9688 24.6563C22.7813 25.0313 22.4063 25.2188 22.1251 25.2188C21.1876 25.125 19.5938 24.6563 19.4063 24.4688Z" fill="#E5895B"/>
<path d="M19.3126 24.4688C19.1251 24.2813 19.5938 23.625 19.8751 23.1563C20.0626 22.875 20.3438 22.7812 20.6251 22.7812L22.5938 23.25C22.7813 23.25 22.8751 23.3438 22.8751 23.5313C22.9688 23.9063 22.7813 24.375 22.5001 24.75C22.3126 25.125 21.9376 25.3125 21.6563 25.3125C20.7188 25.125 19.5001 24.6563 19.3126 24.4688Z" fill="#FAD395"/>
<path d="M17.1561 26.7192C16.8748 26.5317 17.4373 25.5942 17.8123 25.0317C18.0936 24.6567 18.4686 24.4692 18.7498 24.563L22.6873 25.4067C22.8748 25.4067 23.0623 25.5942 23.0623 25.7817C23.1561 26.2505 22.8748 26.9067 22.5936 27.3755C22.4998 27.8442 22.0311 28.1255 21.6561 28.1255C20.3436 27.8442 17.5311 27.0005 17.1561 26.7192Z" fill="#9A4C18"/>
<path d="M17.6252 26.625C17.4377 26.4375 17.9065 25.6875 18.2815 25.125C18.469 24.8437 18.844 24.6562 19.1252 24.75L22.594 25.5C22.7815 25.5 22.8752 25.6875 22.969 25.875C23.0627 26.3437 22.8752 26.9062 22.594 27.2812C22.4065 27.6562 21.9377 27.9375 21.6565 27.8437C20.344 27.6562 17.8127 26.9062 17.6252 26.625Z" fill="#E5895B"/>
<path d="M17.7188 26.5312C17.5313 26.3437 17.9063 25.7812 18.2813 25.3125C18.4688 25.0312 18.7501 24.9375 18.9376 24.9375L21.6563 25.4063C21.7501 25.4063 21.9376 25.5 21.9376 25.6875C22.0313 26.0625 21.8438 26.5313 21.6563 26.9063C21.4688 27.2813 21.1876 27.4687 20.9063 27.4687C19.8751 27.2812 17.9063 26.7187 17.7188 26.5312Z" fill="#FAD395"/>
<path d="M16.4061 28.7817C16.1248 28.5942 16.6873 27.6567 17.0623 27.0942C17.3436 26.7192 17.7186 26.5317 17.9998 26.6255L21.9373 27.4692C22.1248 27.4692 22.3123 27.6567 22.3123 27.8442C22.4061 28.313 22.1248 28.9692 21.8436 29.438C21.5623 29.9067 21.0936 30.188 20.7186 30.0942C19.5936 29.9067 16.6873 28.9692 16.4061 28.7817Z" fill="#9A4C18"/>
<path d="M16.7815 28.6875C16.594 28.5 17.0627 27.75 17.4377 27.1875C17.6252 26.9062 18.0002 26.7187 18.2815 26.8125L21.7502 27.5625C21.9377 27.5625 22.0315 27.75 22.1252 27.9375C22.219 28.4062 22.0315 28.9687 21.7502 29.3437C21.5627 29.7187 21.094 30 20.8127 29.9062C19.594 29.7187 17.0627 28.875 16.7815 28.6875Z" fill="#E5895B"/>
<path d="M16.8751 28.5938C16.6876 28.4063 17.0626 27.8438 17.4376 27.375C17.6251 27.0938 17.9063 27 18.0938 27L20.8126 27.4688C20.9063 27.4688 21.0938 27.5625 21.0938 27.75C21.1876 28.125 21.0001 28.5938 20.8126 28.9688C20.6251 29.3438 20.3438 29.5313 20.0626 29.5313C19.1251 29.3438 17.0626 28.7813 16.8751 28.5938Z" fill="#FAD395"/>
</g>
<defs>
<clipPath id="clip0_1_10341">
<rect width="30" height="30" fill="white"/>
</clipPath>
</defs>
</svg>
