<svg width="64" height="64" viewBox="0 0 64 64" fill="none" xmlns="http://www.w3.org/2000/svg">
<path d="M40.3478 37.4471C40.3388 37.2483 40.2731 37.0562 40.1584 36.8935C40.0438 36.7308 39.885 36.6043 39.7009 36.5289C38.9116 36.196 38.0636 36.0244 37.207 36.0244C36.3503 36.0244 35.5024 36.196 34.713 36.5289C34.1 36.7998 33.5359 37.17 33.0435 37.6245V34.6089C34.7479 34.5676 36.3808 33.9159 37.6452 32.7723C38.8886 31.577 39.757 30.0454 40.1443 28.3647C40.5315 26.6841 40.421 24.9269 39.8261 23.308C39.7708 23.1353 39.6715 22.98 39.5379 22.8575C39.4043 22.7349 39.2411 22.6492 39.0644 22.6089C38.8035 22.6089 38.5322 22.5149 38.2609 22.4836V18.435C38.2612 18.167 38.1585 17.9092 37.9739 17.7149C37.7894 17.5207 37.5372 17.4048 37.2695 17.3915C34.9697 17.2588 32.6776 17.7606 30.6435 18.8419C29.3825 18.5228 28.0824 18.3858 26.7826 18.435C26.5059 18.435 26.2404 18.5449 26.0448 18.7406C25.849 18.9363 25.7391 19.2017 25.7391 19.4784V22.5149C25.4783 22.6089 25.2069 22.6089 24.9461 22.6089C24.7717 22.6473 24.6101 22.7298 24.4767 22.8486C24.3433 22.9673 24.2426 23.1183 24.1844 23.2871C23.5771 24.9101 23.4651 26.6768 23.8627 28.3635C24.2602 30.0501 25.1493 31.5809 26.4174 32.7619C27.674 33.8781 29.2772 34.5267 30.9565 34.5984V37.635C30.4663 37.1748 29.9018 36.8009 29.287 36.5289C28.4957 36.1962 27.6461 36.0249 26.7878 36.0249C25.9296 36.0249 25.0799 36.1962 24.2887 36.5289C24.1065 36.6058 23.9499 36.7331 23.8372 36.8956C23.7245 37.0582 23.6603 37.2495 23.6522 37.4471C23.629 38.4377 23.8489 39.4189 24.2928 40.3049C24.7367 41.1907 25.3909 41.9544 26.1983 42.5288C27.1268 43.144 28.2149 43.4741 29.3287 43.4784C29.8789 43.4819 30.4268 43.4082 30.9565 43.2593V45.5654C30.9565 45.8421 31.0664 46.1076 31.2622 46.3032C31.4578 46.4989 31.7232 46.6089 32 46.6089C32.2768 46.6089 32.5422 46.4989 32.7378 46.3032C32.9336 46.1076 33.0435 45.8421 33.0435 45.5654V43.2593C33.5597 43.4044 34.0934 43.4781 34.6296 43.4784C35.7436 43.4759 36.8323 43.1457 37.76 42.5288C38.5705 41.9546 39.2294 41.1921 39.6802 40.3069C40.131 39.4217 40.3601 38.4404 40.3478 37.4471ZM27.3565 40.7967C26.9382 40.5014 26.5839 40.1245 26.3149 39.6887C26.0459 39.253 25.8678 38.7674 25.7913 38.261C26.6789 38.0483 27.6113 38.1251 28.4522 38.4801C29.0046 38.7389 29.4969 39.1102 29.8976 39.5702C30.2983 40.0302 30.5986 40.5688 30.7792 41.1514C30.2221 41.3719 29.6202 41.4547 29.0244 41.3929C28.4286 41.3312 27.8565 41.1266 27.3565 40.7967ZM36.247 31.228C35.9085 31.5309 35.5334 31.7903 35.1304 32.0002C35.352 29.9797 34.8969 27.9429 33.8365 26.2088C33.753 26.0732 33.6382 25.948 33.5443 25.8123C34.1762 25.3062 34.9045 24.9341 35.685 24.7188C36.4654 24.5035 37.2815 24.4496 38.0835 24.5601C38.3992 25.7344 38.3953 26.9717 38.0724 28.144C37.7496 29.3162 37.1193 30.381 36.247 31.228ZM36.1739 19.4784V22.1289C36.132 22.037 36.0756 21.9525 36.007 21.8784C35.6034 21.4688 35.171 21.0887 34.713 20.741C34.3021 20.444 33.8735 20.1722 33.4296 19.9271C34.3209 19.6584 35.2435 19.5075 36.1739 19.4784ZM33.4609 22.421C33.7119 22.6089 33.9491 22.8147 34.1704 23.0367C33.4141 23.3389 32.7099 23.7579 32.0835 24.2784C30.8591 23.299 29.3836 22.6843 27.8261 22.5045V20.5219C29.8536 20.5681 31.819 21.2305 33.4609 22.421ZM25.9791 24.5706C26.9397 24.4441 27.9165 24.5422 28.8327 24.8573C29.7489 25.1723 30.5795 25.6957 31.2592 26.3863L31.3426 26.5115H31.4261C31.6451 26.7622 31.8472 27.0272 32.0313 27.3045C32.9121 28.7853 33.241 30.5298 32.96 32.2297C32.0755 32.531 31.1272 32.5933 30.2109 32.41C29.2946 32.2268 28.4432 31.8046 27.7426 31.1863C26.879 30.3454 26.259 29.2864 25.9485 28.1216C25.6381 26.9569 25.6486 25.7298 25.9791 24.5706ZM36.633 40.7967C36.1308 41.1223 35.5573 41.3219 34.9614 41.3782C34.3655 41.4345 33.7648 41.346 33.2104 41.1202C33.3934 40.5371 33.6957 39.9984 34.098 39.5385C34.5005 39.0787 34.9942 38.7075 35.5478 38.4489C36.3883 38.1037 37.3175 38.0378 38.1983 38.261C38.1218 38.7674 37.9437 39.253 37.6747 39.6887C37.4057 40.1245 37.0514 40.5014 36.633 40.7967Z" fill="#213A52"/>
</svg>
