<svg width="30" height="30" viewBox="0 0 30 30" fill="none" xmlns="http://www.w3.org/2000/svg">
<g clip-path="url(#clip0_1_4555)">
<path d="M5.25 10.7813C5.25 10.7813 6.375 17.1563 5.34375 20.25L8.90625 18L8.4375 12.6563L5.25 10.7813ZM23.25 22.0312C23.25 22.0312 27 12.9375 22.7812 5.8125L19.125 12L19.5937 19.7813L23.25 22.0312Z" fill="#77315B"/>
<path d="M19.6876 17.9062C21.4689 18.4688 23.1564 19.9688 23.7189 22.125C24.2814 24.2812 23.5314 26.9062 21.8439 28.125C20.7189 28.9688 19.4064 29.1562 18.1876 29.1562C15.0939 29.1562 12.0939 28.125 9.00011 27.0937C7.96886 26.7187 6.93761 26.4375 6.00011 25.6875C5.06261 25.0312 4.31261 24 4.21886 22.7812C4.03136 21.0937 5.06261 19.4062 6.37511 18.5625C8.62511 17.1562 10.9689 16.5 13.3126 16.5C15.2814 16.5 17.7189 17.25 19.6876 17.9062Z" fill="#77315B"/>
<path d="M21.9375 6.1875C21.9375 6.1875 26.5312 13.9688 21.4688 18.9375L17.7188 16.9688L21.9375 6.1875Z" fill="#425763"/>
<path d="M19.8751 16.7812C21.6564 17.3438 23.3439 18.8438 23.9064 21C24.4689 23.1562 23.7189 25.7812 22.0314 27C20.9064 27.8438 19.5939 28.0312 18.3751 28.0312C15.2814 28.0312 12.2814 27 9.18761 25.9688C8.15636 25.5938 7.12511 25.3125 6.18761 24.5625C5.25011 23.9063 4.50011 22.875 4.40636 21.6563C4.21886 19.9688 5.25011 18.2813 6.56261 17.4375C8.81261 16.0313 11.1564 15.375 13.5001 15.375C15.4689 15.4688 18.0001 16.125 19.8751 16.7812Z" fill="#B74F88"/>
<path d="M19.5938 15.4688C21.2813 16.0312 21.9375 18.1875 22.5 20.25C23.0625 22.4062 23.25 24.4687 21.6563 25.5937C20.625 26.4375 19.4063 26.625 18.1875 26.625C15.2813 26.625 12.375 25.5938 9.56252 24.5625C8.62502 24.1875 7.59377 23.9063 6.75002 23.1563C5.81252 22.5 5.06252 21.5625 4.96877 20.3438C4.78127 18.6563 5.71877 16.9688 6.93752 16.125C9.00002 14.7188 11.25 14.0625 13.5 14.0625C15.375 14.1562 17.7188 14.8125 19.5938 15.4688Z" fill="#D19780"/>
<path opacity="0.28" d="M20.8162 22.8931C21.4232 21.0216 20.8772 19.1678 19.5967 18.7525C18.3162 18.3372 16.7861 19.5177 16.1791 21.3892C15.5721 23.2607 16.1181 25.1145 17.3986 25.5298C18.6791 25.9451 20.2092 24.7646 20.8162 22.8931Z" fill="white"/>
<path d="M9.93734 16.9688C9.93734 16.9688 10.4061 23.8125 14.1561 26.25C14.1561 26.25 8.90609 25.4063 7.87484 24.0938C6.84358 22.7813 5.24984 22.2187 5.62484 19.125C5.62484 19.125 5.99984 16.3125 8.53109 15.5625L9.93734 16.9688Z" fill="#5077B5"/>
<path d="M8.43734 16.4062C8.43734 16.4062 7.49984 24.4688 13.4061 26.25C13.4061 26.25 8.15609 25.4063 7.12484 24.0938C6.09359 22.7813 4.49984 22.2187 4.87484 19.125C4.87484 19.125 5.24984 16.3125 7.78109 15.5625L8.43734 16.4062Z" fill="#B74F88"/>
<path d="M10.9688 22.7812C10.9688 22.7812 15.6562 24.9375 19.125 24.1875C22.5938 23.4375 23.25 19.3125 23.25 19.3125C23.25 19.3125 24.375 24.2812 21.4688 25.875C18.5625 27.5625 13.125 25.9688 13.125 25.9688L10.9688 22.7812Z" fill="#5077B5"/>
<path d="M6.375 16.4062C6.375 16.4062 7.03125 23.4375 9.75 26.0625C9.75 26.0625 6.84375 25.6875 6.1875 24.5625L4.78125 19.5C4.78125 19.4062 4.875 17.9062 6.375 16.4062Z" fill="#CEB46B"/>
<path d="M17.4373 16.9688C17.4373 16.9688 18.1873 20.4375 15.6561 21.75C13.1248 22.9688 16.3123 28.5938 16.3123 28.5938C16.3123 28.5938 16.1248 24.9375 17.0623 24.2812C17.9998 23.625 24.8436 20.4375 20.9998 14.8125C20.9998 14.8125 17.5311 16.2188 17.4373 16.9688Z" fill="#425763"/>
<path d="M22.879 9.85458C22.8968 4.9358 18.9238 0.933884 14.005 0.916061C9.08619 0.898238 5.08427 4.87125 5.06645 9.79004C5.04863 14.7088 9.02164 18.7107 13.9404 18.7286C18.8592 18.7464 22.8611 14.7734 22.879 9.85458Z" fill="#A67A65"/>
<path d="M22.4632 9.17774C22.4807 4.36251 18.6333 0.444997 13.8698 0.427737C9.10637 0.410477 5.23068 4.3 5.21323 9.11523C5.19578 13.9305 9.04318 17.848 13.8066 17.8652C18.5701 17.8825 22.4458 13.993 22.4632 9.17774Z" fill="#E5A98C"/>
<path d="M22.4282 8.93929C22.4449 4.33116 18.8487 0.582457 14.3959 0.566322C9.94312 0.550187 6.31988 4.27273 6.30318 8.88086C6.28649 13.489 9.88265 17.2377 14.3354 17.2538C18.7882 17.27 22.4115 13.5474 22.4282 8.93929Z" fill="#E5A98C"/>
<path d="M18.0255 10.0985C18.0377 6.73298 15.4033 3.99513 12.1413 3.98332C8.8794 3.9715 6.22519 6.69018 6.213 10.0557C6.2008 13.4211 8.83524 16.159 12.0972 16.1708C15.3591 16.1826 18.0133 13.464 18.0255 10.0985Z" fill="#E8CCAA"/>
<path d="M14.9419 10.6692C14.9437 10.1514 14.5675 9.73033 14.1015 9.72864C13.6355 9.72695 13.2562 10.1453 13.2544 10.6631C13.2525 11.1809 13.6287 11.602 14.0947 11.6036C14.5607 11.6053 14.94 11.187 14.9419 10.6692Z" fill="#425763"/>
<path d="M14.4629 10.3632C14.4635 10.2078 14.38 10.0816 14.2765 10.0812C14.1729 10.0809 14.0885 10.2065 14.0879 10.3618C14.0874 10.5171 14.1709 10.6434 14.2744 10.6437C14.378 10.6441 14.4624 10.5185 14.4629 10.3632Z" fill="white"/>
<path d="M8.54295 9.33375C8.54482 8.81598 8.16858 8.39488 7.70259 8.39319C7.2366 8.39151 6.85732 8.80987 6.85545 9.32764C6.85357 9.8454 7.22981 10.2665 7.6958 10.2682C8.16179 10.2699 8.54107 9.85152 8.54295 9.33375Z" fill="#425763"/>
<path d="M11.9202 7.68884C11.9217 7.27462 11.6291 6.93777 11.2667 6.93646C10.9042 6.93515 10.6092 7.26987 10.6077 7.68408C10.6062 8.0983 10.8988 8.43515 11.2612 8.43646C11.6237 8.43777 11.9187 8.10305 11.9202 7.68884Z" fill="#B74F88"/>
<path d="M8.0645 8.93398C8.06506 8.77865 7.98157 8.65242 7.87802 8.65205C7.77446 8.65167 7.69006 8.77729 7.6895 8.93262C7.68893 9.08795 7.77242 9.21417 7.87598 9.21455C7.97953 9.21492 8.06393 9.08931 8.0645 8.93398Z" fill="white"/>
<path d="M12.375 14.7188C12.375 14.7188 11.5313 14.625 10.9688 14.1563C10.4063 13.6875 9.84375 13.7813 9.75 13.7813C9.65625 13.7813 9.46875 13.5938 9.28125 13.5C9.09375 13.4063 8.8125 13.4063 8.8125 13.5C8.8125 13.5938 9.09375 14.0625 9.09375 14.0625V14.625C9.09375 14.8125 9.09375 15.375 9.75 15.5625C10.4062 15.75 10.7813 15.6563 11.0625 15.4688C11.25 15.375 12.375 14.7188 12.375 14.7188Z" fill="#A67A65"/>
<path d="M12.8439 3.74999C12.8439 3.74999 11.6252 6.84374 13.5002 8.15624C15.3752 9.46874 22.0314 12.375 20.7189 15.8437C20.7189 15.8437 26.7189 8.90624 21.6564 3.74999C15.2814 -2.90626 12.9377 3.37499 12.8439 3.74999Z" fill="#425763"/>
<path d="M5.25006 10.3123C5.25006 10.3123 5.62506 6.65609 6.75006 6.28109C7.87506 5.90609 10.9688 7.03109 12.6563 5.90609C12.6563 5.90609 16.5938 1.59359 15.7501 0.749837C15.0001 -0.00016284 11.6251 0.187337 9.46881 1.40609C7.31256 2.62484 4.59381 5.71859 5.25006 10.3123Z" fill="#425763"/>
<path d="M15.6563 3.37484C15.6563 3.37484 13.9688 5.34359 15.5625 6.93734C17.1563 8.53109 21 9.65609 22.0312 11.6248C21.9375 11.6248 22.5938 4.12484 15.6563 3.37484ZM13.6875 2.15609C13.6875 2.15609 13.125 4.68734 11.8125 4.96859C10.5 5.24984 6.75 5.53109 6.75 5.53109C6.75 5.53109 10.3125 1.40609 13.6875 2.15609Z" fill="#5E6D72"/>
<path d="M7.875 2.34398C7.875 2.34398 21.2812 0.750235 23.8125 8.90648C23.8125 8.90648 24.0938 1.96898 16.0313 0.281484C11.1563 -0.843516 7.875 2.34398 7.875 2.34398Z" fill="#B74F88"/>
<path d="M14.4375 27.5625L14.0625 27.9375L15.6563 29.0625L24.2812 20.4375L22.875 18.6562L14.4375 27.5625Z" fill="#9A4C18"/>
<path d="M24.4687 22.8752C24.1874 26.2502 20.9999 29.1564 17.5312 29.1564C14.0624 29.1564 11.8124 26.2502 12.4687 22.9689C13.1249 19.8752 16.0312 17.4377 19.2187 17.3439C22.3124 17.2502 24.6562 19.6877 24.4687 22.8752Z" fill="#9A4C18"/>
<path d="M25.3123 23.9065C25.0311 27.1878 21.9373 29.9065 18.4686 29.9065C15.0936 29.9065 12.9373 27.094 13.5936 24.0003C14.1561 21.0003 17.0623 18.7503 20.1561 18.6565C23.2498 18.5628 25.5936 20.9065 25.3123 23.9065Z" fill="#9A4C18"/>
<path d="M15.375 27.75L16.875 28.5938L23.9062 21.1875L22.7812 19.5938L15.375 27.75Z" fill="#F49937"/>
<path d="M24.6564 24.0001C24.3752 26.8126 21.8439 29.0626 18.9377 29.0626C16.1252 29.0626 14.2502 26.7189 14.8127 24.0001C15.2814 21.4689 17.7189 19.4064 20.3439 19.4064C22.8752 19.3126 24.8439 21.3751 24.6564 24.0001Z" fill="#F49937"/>
<path d="M23.719 22.875C23.4377 25.875 20.719 28.3125 17.6252 28.3125C14.6252 28.3125 12.6565 25.7812 13.219 22.875C13.7815 20.1562 16.4065 18 19.1252 17.9062C21.844 17.9062 23.9065 20.0625 23.719 22.875Z" fill="#FFEDC0"/>
<path d="M23.2502 23.0625C22.9689 25.875 20.4377 28.125 17.5314 28.125C14.7189 28.125 12.8439 25.7812 13.4064 23.0625C13.8752 20.5312 16.3127 18.4688 18.9377 18.4688C21.5627 18.4688 23.5314 20.4375 23.2502 23.0625Z" fill="#FFD766"/>
<path d="M22.2189 23.0625C22.0314 25.2188 19.9689 27 17.8126 27C15.6564 27 14.1564 25.2188 14.6251 23.1563C15.0001 21.0938 16.8751 19.5 18.9376 19.5C20.9064 19.4063 22.4064 21 22.2189 23.0625Z" fill="#FFEDC0"/>
<path d="M22.2187 22.5C22.0312 24.6562 20.0624 26.3437 17.8124 26.3437C15.6562 26.3437 14.2499 24.5625 14.6249 22.5C14.9999 20.5312 16.8749 18.9375 18.9374 18.9375C20.9999 18.9375 22.4062 20.5312 22.2187 22.5Z" fill="#F49937"/>
<path d="M21.5624 23.0625C21.3749 24.8438 19.6874 26.3438 17.8124 26.3438C15.9374 26.3438 14.8124 24.8438 15.0936 23.0625C15.3749 21.375 16.9686 19.9688 18.7499 19.9688C20.5311 19.9688 21.7499 21.375 21.5624 23.0625Z" fill="#FFD766"/>
<path d="M19.3125 19.6875L19.7812 21.6563L21.9375 22.125L19.9687 23.5313L19.7812 25.6875L18 24.4688L15.75 25.2187L16.6875 23.1563L15.5625 21.4687L17.8125 21.375L19.3125 19.6875Z" fill="#F49937"/>
</g>
<defs>
<clipPath id="clip0_1_4555">
<rect width="30" height="30" fill="white"/>
</clipPath>
</defs>
</svg>
