<svg width="30" height="30" viewBox="0 0 30 30" fill="none" xmlns="http://www.w3.org/2000/svg">
<g clip-path="url(#clip0_1_14156)">
<path d="M16.875 3.75046C16.875 3.75046 11.4375 -2.43704 1.5 1.21921C1.5 1.21921 1.96875 11.063 16.875 3.75046Z" fill="#1D3A0A"/>
<path d="M15.375 3.93749C15.375 3.93749 10.9688 -0.656257 3 2.06249C3 2.06249 3.375 9.28124 15.375 3.93749Z" fill="#2A6900"/>
<path d="M13.9688 4.31296C13.9688 4.31296 19.4062 -1.87454 29.3438 1.78171C29.3438 1.78171 28.875 11.5317 13.9688 4.31296Z" fill="#1D3A0A"/>
<path d="M15.4688 4.40624C15.4688 4.40624 19.875 -0.187507 27.8438 2.53124C27.8438 2.62499 27.4688 9.74999 15.4688 4.40624Z" fill="#2A6900"/>
<path d="M15.8438 29.2501C15.8438 29.2501 21.375 27.5626 24.4688 24.6564C27.5625 21.7501 31.5 17.4376 29.4375 10.6876C27.375 3.93762 22.125 2.43762 15.6563 3.93762C15.6563 3.93762 4.50004 0.375117 1.50004 10.3126C-1.49996 20.2501 7.03129 26.3439 15.8438 29.2501Z" fill="#7E1406"/>
<path d="M15.8439 27.0936C15.8439 27.0936 20.9064 25.5936 23.8126 23.0624C26.7189 20.5311 30.2814 16.6874 28.4064 10.7811C26.5314 4.78111 21.6564 3.56236 15.7501 4.78111C15.7501 4.78111 5.53138 1.68736 2.71888 10.4061C-0.0936205 19.1249 7.68763 24.5624 15.8439 27.0936Z" fill="#CC5037"/>
<path d="M15.7501 25.031C15.7501 25.031 20.1563 23.7185 22.6876 21.5623C25.2188 19.406 28.3126 16.1248 26.7188 11.0623C25.1251 5.99978 20.8126 4.87478 15.6563 5.99978C15.6563 5.99978 6.75006 3.28103 4.31256 10.781C1.87506 18.281 8.71881 22.781 15.7501 25.031Z" fill="#EA5A42"/>
<path d="M15.8438 6.09375C15.8438 6.09375 22.5938 15.6562 16.0313 26.4375C16.0313 26.4375 26.0625 17.0625 15.8438 6.09375Z" fill="#7E1406"/>
<path d="M8.06227 6.00042C8.06227 6.00042 11.4373 4.50042 13.781 5.62542C16.1248 6.75042 18.0935 13.4067 17.0623 17.1567C16.031 20.9067 8.24977 21.4692 5.71852 17.7192C3.18727 13.9692 3.28102 9.28167 8.06227 6.00042ZM19.1248 6.65667C19.1248 6.65667 21.3748 5.06292 23.7185 6.28167C26.0623 7.50042 28.3123 12.0004 27.9373 14.6254C27.5623 17.2504 24.7498 19.1254 23.2498 18.5629C21.7498 18.0004 23.7185 10.3129 19.1248 6.65667Z" fill="#E5775A"/>
<path d="M8.34394 7.31262C8.34394 7.31262 11.3439 6.28137 12.9377 7.21887C14.5314 8.15637 15.0002 10.8751 14.5314 12.2814C14.0627 13.6876 13.2189 15.9376 10.3127 15.0001C7.40644 13.9689 6.00019 12.0001 6.00019 12.0001C6.00019 12.0001 5.81269 8.15637 8.34394 7.31262ZM22.8752 7.68762C22.8752 7.68762 23.8127 6.56262 24.6564 7.03137C25.5002 7.50012 26.2502 9.28137 26.3439 10.4064C26.4377 11.5314 26.6252 13.2189 25.3127 12.8439C24.0002 12.4689 22.9689 11.2501 22.9689 11.2501C22.9689 11.2501 22.0314 8.53137 22.8752 7.68762Z" fill="#F99987"/>
<path d="M10.5939 28.3125C5.71892 33.6562 -6.84358 25.6875 8.06267 12.375C8.15642 12.375 15.5627 22.9688 10.5939 28.3125Z" fill="#636363"/>
<path d="M9.56268 27.4687C5.53143 32.3437 -3.93732 25.6875 8.06268 13.4062C8.06268 13.4062 13.5002 22.5937 9.56268 27.4687Z" fill="#AAAAAA"/>
<path d="M8.06239 14.8125C8.06239 14.8125 11.5311 22.0312 8.62488 26.1562C5.71863 30.2813 -0.656365 25.2188 8.06239 14.8125Z" fill="#E8E8E8"/>
<path d="M6.09382 21.7498C6.09382 21.7498 6.75007 20.9998 7.68757 21.4686C8.62507 21.9373 9.46882 21.7498 9.09382 23.2498C8.71882 24.6561 8.53132 26.9998 7.21882 25.7811C5.90632 24.4686 5.43757 22.8748 6.09382 21.7498Z" fill="#F7F7F7"/>
</g>
<defs>
<clipPath id="clip0_1_14156">
<rect width="30" height="30" fill="white"/>
</clipPath>
</defs>
</svg>
