<svg width="30" height="30" viewBox="0 0 30 30" fill="none" xmlns="http://www.w3.org/2000/svg">
<g clip-path="url(#clip0_1_13317)">
<path d="M30 22.6875L27.4688 7.03125L2.53125 9.1875L0.28125 12.2813L2.71875 29.4375L28.3125 25.2188L30 22.6875Z" fill="#6E8089"/>
<path d="M18.6562 2.62522C18.6562 1.78147 17.9062 1.03147 17.0625 1.21897L11.0625 1.87522C10.2187 1.96897 9.65625 2.81272 9.84375 3.65647L11.1562 10.219C11.3437 10.8752 12 11.344 12.6562 11.2502L17.3437 10.7815C18.0937 10.6877 18.5625 10.1252 18.6562 9.37522V2.62522ZM14.4375 5.62522C13.5937 5.62522 12.8437 4.96897 12.8437 4.12522C12.8437 3.28147 13.5937 2.62522 14.4375 2.62522C15.2812 2.62522 16.0312 3.28147 16.0312 4.12522C16.0312 4.96897 15.2812 5.62522 14.4375 5.62522Z" fill="#6E8089"/>
<path d="M1.78125 11.7188L4.03125 27.9375L17.8125 25.5938L15.6563 10.3125L1.78125 11.7188Z" fill="#90A3AD"/>
<path d="M2.625 10.4063L4.96875 26.625L28.875 22.5938L26.7188 7.96875L2.625 10.4063Z" fill="#D6DFE5"/>
<path d="M18 9.84375L18.1875 11.7188L22.875 11.1562L22.6875 9.375L18 9.84375ZM18.2812 13.2188L18.375 14.25L25.3125 13.5L25.125 12.4688L18.2812 13.2188ZM18.4688 15.0938L18.5625 16.125L25.5 15.375L25.3125 14.3438L18.4688 15.0938ZM18.6562 16.9688L18.8437 18L25.6875 17.25L25.5937 16.3125L18.6562 16.9688ZM18.8437 18.9375L19.0312 19.9687L25.875 19.2188L25.7812 18.1875L18.8437 18.9375Z" fill="#A0B7C1"/>
<path d="M3.5625 11.25L5.53125 25.5L18.2812 23.25L16.2187 9.65625L3.5625 11.25Z" fill="white"/>
<mask id="mask0_1_13317" style="mask-type:luminance" maskUnits="userSpaceOnUse" x="4" y="10" width="14" height="15">
<path d="M4.59375 11.8125L6.375 24.6562L17.3438 22.7812L15.5625 10.6875L4.59375 11.8125Z" fill="white"/>
</mask>
<g mask="url(#mask0_1_13317)">
<path d="M1.125 7.5L4.125 31.4062L21.9375 27.8438L19.125 5.34375L1.125 7.5Z" fill="#9BC1D1"/>
<path d="M16.5938 12.5625C16.5938 12.5625 19.7813 16.2187 18.4688 23.7188L15.8438 20.8125L16.5938 12.5625Z" fill="#BC723B"/>
<path d="M17.3437 16.875C17.3437 16.875 17.4374 19.875 18.3749 22.3125C19.3124 24.75 16.3124 26.3438 16.3124 26.3438L13.8749 20.7188L15.9374 17.625L17.3437 16.875ZM6.74993 12.5625C6.74993 12.5625 4.03118 18 6.18743 23.4375C8.34368 28.875 11.3437 16.3125 11.3437 16.3125L8.24993 12.9375L6.74993 12.5625Z" fill="#BC723B"/>
<path d="M15.1874 21.5625C16.3124 21.9375 17.3437 22.875 17.7187 24.1875C18.0937 25.5 17.5312 27.1875 16.5937 27.9375C15.9374 28.4062 15.0937 28.5937 14.2499 28.5937C12.3749 28.5937 10.4062 27.9375 8.53118 27.2812C7.87493 27.0938 7.21868 26.8125 6.65618 26.4375C6.09368 26.0625 5.62493 25.4062 5.53118 24.6562C5.43743 23.625 5.99993 22.5937 6.84368 22.0312C8.24993 21.0937 9.65618 20.7188 11.1562 20.7188C12.4687 20.7188 13.9687 21.1875 15.1874 21.5625Z" fill="#B78C48"/>
<path d="M15 20.8125C16.0312 21.1875 17.0625 22.125 17.3437 23.4375C17.7187 24.75 17.25 26.4375 16.2187 27.1875C15.5625 27.6562 14.8125 27.8438 14.0625 27.8438C12.2812 27.8438 10.5 27.1875 8.62497 26.5312L6.93747 25.5937C6.37497 25.2187 5.99997 24.5625 5.90622 23.8125C5.81247 22.7812 6.37497 21.75 7.12497 21.1875C8.43747 20.25 9.84372 19.875 11.1562 19.875C12.375 19.9688 13.875 20.3438 15 20.8125Z" fill="#EAB75C"/>
<path d="M13.8752 21.75C13.8752 21.75 10.6877 22.875 8.43768 26.25C8.43768 26.25 7.59393 23.4375 8.06268 21.375C8.06268 21.375 11.3439 22.5938 13.8752 21.75Z" fill="#E8CCAA"/>
<path d="M7.40625 21C7.40625 21 8.25 23.25 9.375 23.4375C10.5 23.625 12.2812 24 14.7187 21.6563L7.40625 21Z" fill="#E8CCAA"/>
<path opacity="0.28" d="M15.7704 25.3556C16.1537 24.1736 15.8257 23.0082 15.0377 22.7527C14.2497 22.4971 13.3001 23.2481 12.9168 24.4301C12.5334 25.6121 12.8615 26.7775 13.6495 27.0331C14.4375 27.2886 15.387 26.5376 15.7704 25.3556Z" fill="white"/>
<path d="M17.0697 17.231C17.081 14.1244 14.6137 11.597 11.5588 11.586C8.50401 11.5749 6.01846 14.0843 6.0072 17.1909C5.99594 20.2975 8.46324 22.8249 11.5181 22.836C14.5729 22.847 17.0584 20.3376 17.0697 17.231Z" fill="#A67A65"/>
<path d="M16.8322 16.8441C16.8431 13.841 14.4175 11.3978 11.4144 11.3869C8.41136 11.376 5.96808 13.8016 5.9572 16.8047C5.94632 19.8077 8.37195 22.251 11.375 22.2619C14.378 22.2728 16.8213 19.8471 16.8322 16.8441Z" fill="#E5A98C"/>
<path d="M16.8092 16.7066C16.8195 13.8589 14.5613 11.5421 11.7654 11.532C8.96945 11.5219 6.69453 13.8222 6.68421 16.6699C6.67389 19.5176 8.93209 21.8344 11.728 21.8445C14.524 21.8546 16.7989 19.5543 16.8092 16.7066Z" fill="#E8CCAA"/>
<path d="M13.9569 17.4323C13.9645 15.3612 12.3336 13.6763 10.3143 13.669C8.29499 13.6617 6.65195 15.3347 6.64445 17.4058C6.63694 19.4768 8.26782 21.1617 10.2871 21.169C12.3064 21.1763 13.9494 19.5033 13.9569 17.4323Z" fill="#FAEACF"/>
<path d="M12.0631 17.7617C12.0642 17.451 11.8552 17.1984 11.5964 17.1975C11.3375 17.1966 11.1267 17.4476 11.1256 17.7583C11.1244 18.069 11.3334 18.3216 11.5923 18.3225C11.8512 18.3234 12.0619 18.0724 12.0631 17.7617Z" fill="#425763"/>
<path d="M11.7863 17.6296C11.7867 17.526 11.745 17.4419 11.6933 17.4417C11.6415 17.4416 11.5992 17.5254 11.5988 17.6289C11.5984 17.7325 11.6401 17.8166 11.6919 17.8167C11.7437 17.8169 11.7859 17.7331 11.7863 17.6296Z" fill="white"/>
<path d="M8.10604 16.9267C8.10717 16.6161 7.89821 16.3635 7.63933 16.3625C7.38045 16.3616 7.16967 16.6127 7.16854 16.9233C7.16742 17.234 7.37637 17.4866 7.63525 17.4875C7.89414 17.4885 8.10492 17.2374 8.10604 16.9267Z" fill="#425763"/>
<path d="M7.73603 16.7004C7.73641 16.5968 7.69474 16.5127 7.64296 16.5125C7.59118 16.5124 7.54891 16.5962 7.54853 16.6997C7.54816 16.8033 7.58982 16.8874 7.6416 16.8875C7.69338 16.8877 7.73565 16.8039 7.73603 16.7004Z" fill="white"/>
<path d="M15.0938 17.6248C15.0938 17.6248 15.5625 17.2498 15.9375 17.4373C16.3125 17.531 16.2187 18.7498 15.2812 18.8435L15.0938 17.6248Z" fill="#FAEACF"/>
<path d="M10.5 20.3438C10.5 20.3438 10.0313 20.25 9.65625 19.9687C9.28125 19.6875 8.90625 19.6875 8.90625 19.7813C8.8125 19.7813 8.71875 19.6875 8.625 19.5938C8.53125 19.5 8.34375 19.5 8.34375 19.5938C8.34375 19.6875 8.53125 19.9687 8.53125 19.9687V20.3438C8.53125 20.5313 8.53125 20.8125 8.90625 20.9062C9.28125 21 9.5625 20.9062 9.75 20.9062C9.9375 20.9062 10.5 20.3438 10.5 20.3438Z" fill="#A67A65"/>
<path d="M11.625 16.5C14.4727 16.5 16.7812 15.0729 16.7812 13.3125C16.7812 11.5521 14.4727 10.125 11.625 10.125C8.77728 10.125 6.46875 11.5521 6.46875 13.3125C6.46875 15.0729 8.77728 16.5 11.625 16.5Z" fill="#BC723B"/>
<path d="M14.0625 15.6563C14.0625 15.6563 14.9063 17.3438 14.4375 19.125C13.9688 20.9063 17.3438 21.8438 17.3438 21.8438C17.3438 21.8438 16.9688 19.2188 17.25 18.2813C17.5313 17.3438 17.8125 13.7813 16.3125 12.0938C16.3125 12.0938 13.875 15.2813 14.0625 15.6563Z" fill="#BC723B"/>
<path d="M11.625 15.375C14.0067 15.375 15.9375 14.3257 15.9375 13.0312C15.9375 11.7368 14.0067 10.6875 11.625 10.6875C9.24327 10.6875 7.3125 11.7368 7.3125 13.0312C7.3125 14.3257 9.24327 15.375 11.625 15.375Z" fill="#CC804C"/>
<path d="M6.5625 19.6875C6.5625 19.6875 6.28125 21.0938 6.46875 21.75C6.46875 21.75 6.75 21.2812 7.3125 21C7.40625 21 6.65625 19.9688 6.5625 19.6875Z" fill="#7C4D2D"/>
<path d="M15.0938 18.9375C15.5597 18.9375 15.9375 18.5597 15.9375 18.0937C15.9375 17.6278 15.5597 17.25 15.0938 17.25C14.6278 17.25 14.25 17.6278 14.25 18.0937C14.25 18.5597 14.6278 18.9375 15.0938 18.9375Z" fill="#E8CCAA"/>
<path d="M17.0626 19.4063C17.0626 19.4063 16.7814 20.4375 17.3439 21.1875C17.9064 21.9375 17.9064 23.0625 17.9064 23.0625C17.9064 23.0625 17.0626 21.375 16.4064 20.8125C15.7501 20.25 16.5001 19.2188 17.0626 19.4063Z" fill="#CC804C"/>
<path d="M12.4688 14.25C13.8149 14.25 14.9062 13.6204 14.9062 12.8438C14.9062 12.0671 13.8149 11.4375 12.4688 11.4375C11.1226 11.4375 10.0312 12.0671 10.0312 12.8438C10.0312 13.6204 11.1226 14.25 12.4688 14.25Z" fill="#E29969"/>
</g>
<path d="M1.78125 11.7187L2.625 10.4062L4.96875 26.625L4.03125 27.9375L1.78125 11.7187Z" fill="#B3C1C9"/>
<path d="M28.875 22.5L27.9375 23.8125L4.03125 27.9375L4.96875 26.625L28.875 22.5Z" fill="#90A3AD"/>
<path d="M26.3391 21.3733C27.6571 20.0553 27.5978 17.859 26.2065 16.4678C24.8153 15.0766 22.619 15.0172 21.301 16.3352C19.983 17.6532 20.0424 19.8495 21.4336 21.2407C22.8248 22.632 25.0211 22.6913 26.3391 21.3733Z" fill="#65B2C4"/>
<path d="M17.9064 3.84372C17.9064 3.09372 17.3439 2.53122 16.5939 2.62497L11.9064 3.28122C11.2502 3.37497 10.7814 4.12497 10.9689 4.78122L12.0939 10.2187C12.2814 10.7812 12.7502 11.1562 13.3127 11.0625L17.0627 10.5937C17.6252 10.5 18.0939 10.0312 18.0939 9.46872L17.9064 3.84372ZM14.5314 6.37497C13.8752 6.37497 13.3127 5.81247 13.3127 5.15622C13.3127 4.49997 13.8752 3.93747 14.5314 3.93747C15.1877 3.93747 15.7502 4.49997 15.7502 5.15622C15.8439 5.81247 15.2814 6.37497 14.5314 6.37497Z" fill="#7A96A0"/>
<path d="M17.9998 2.99997C17.9998 2.24997 17.3436 1.68747 16.6873 1.78122L11.8123 2.43747C11.0623 2.53122 10.5936 3.28122 10.7811 3.93747L11.9061 9.37497C12.0936 9.93747 12.5623 10.3125 13.2186 10.2187L17.0623 9.74997C17.6248 9.65622 18.0936 9.18747 18.0936 8.62497L17.9998 2.99997ZM14.5311 5.53122C13.7811 5.53122 13.2186 4.96872 13.2186 4.31247C13.2186 3.65622 13.7811 3.09372 14.5311 3.09372C15.2811 3.09372 15.8436 3.65622 15.8436 4.31247C15.8436 4.96872 15.1873 5.53122 14.5311 5.53122Z" fill="#A0B7C1"/>
<path d="M12.2812 6.84375L12.75 9L17.1562 8.4375V6.375L12.2812 6.84375Z" fill="#D6DFE5"/>
<path d="M11.0625 9.09375L12 11.7188C12 11.7188 12 12.75 17.25 10.5938L12.375 10.875L11.8125 9.09375H11.0625Z" fill="#6E8089"/>
</g>
<defs>
<clipPath id="clip0_1_13317">
<rect width="30" height="30" fill="white"/>
</clipPath>
</defs>
</svg>
