<svg width="24" height="20" viewBox="0 0 24 20" fill="none" xmlns="http://www.w3.org/2000/svg">
<path d="M23.6478 17.7886C24.3318 17.3486 23.9408 16.2686 23.1479 16.3766C21.6179 16.5666 19.898 16.3166 18.3421 15.5617C19.0649 15.2563 19.7139 14.7994 20.2452 14.2219C20.7765 13.6444 21.1778 12.9596 21.4219 12.2138C21.4673 12.0761 21.4731 11.9285 21.4389 11.7876C21.4046 11.6467 21.3315 11.5183 21.2279 11.4168C21.8116 10.9053 22.2794 10.2752 22.6003 9.5686C22.9212 8.86198 23.0877 8.09508 23.0889 7.31901C23.0889 6.94403 22.8379 6.59504 22.4299 6.52305C23.2859 4.92211 23.2959 2.93919 22.3119 1.22826C22.2514 1.12177 22.1658 1.03165 22.0626 0.965705C21.9594 0.899763 21.8417 0.859995 21.7196 0.849848C21.5975 0.839701 21.4749 0.859482 21.3622 0.907476C21.2495 0.95547 21.1502 1.03023 21.073 1.12527C19.0405 3.62342 16.1228 5.24132 12.9273 5.64208C13.0213 3.59117 11.9773 1.71324 10.1004 0.688284C7.95149 -0.487669 5.40259 -0.131683 3.68966 1.56425C2.84969 1.80324 2.03473 1.66224 1.14076 1.13027C1.0249 1.06278 0.893234 1.02719 0.759153 1.02711C0.625072 1.02704 0.493363 1.06249 0.377432 1.12986C0.2615 1.19722 0.165484 1.29409 0.0991533 1.41062C0.0328222 1.52714 -0.00145525 1.65916 -0.000190727 1.79324C-0.000190727 3.33218 1.11976 4.91111 2.07173 5.73708C2.0113 9.41594 3.38234 12.9744 5.89557 15.6617C8.51946 18.4586 12.1393 19.9985 16.0912 19.9985C18.7702 20.0044 21.3941 19.2371 23.6478 17.7886ZM15.8842 15.8257C17.1411 16.8046 18.6106 17.4743 20.174 17.7806C18.872 18.2276 17.4941 18.4596 16.0902 18.4596C12.5583 18.4596 9.32743 17.0886 6.99153 14.5987C5.84173 13.3706 4.94923 11.9249 4.36655 10.3467C3.78387 8.76853 3.52278 7.08971 3.59866 5.40909C3.60517 5.2796 3.579 5.15055 3.52256 5.03382C3.46611 4.91709 3.38121 4.81644 3.27568 4.74112C2.7757 4.38613 2.24072 3.75516 1.89373 3.09119C2.6687 3.27418 4.19264 3.25618 4.64362 2.7732C6.16356 1.15526 8.14648 1.36526 9.38143 2.04323C10.6294 2.7242 11.7913 4.20514 11.3114 6.31705C11.2004 6.80603 11.5803 7.28901 12.0863 7.25702C15.6204 7.07812 18.9555 5.56755 21.4209 3.02919C21.6199 3.80564 21.5714 4.62484 21.2822 5.3724C20.9931 6.11996 20.4777 6.75855 19.808 7.19902C19.182 7.617 19.472 8.61496 20.239 8.61096C20.629 8.6031 21.0168 8.55076 21.3949 8.45497C21.1898 9.12607 20.8078 9.72962 20.2892 10.2024C19.7705 10.6751 19.1343 10.9996 18.4471 11.1419C17.6671 11.3019 17.6301 12.4278 18.3991 12.6388C18.7376 12.7289 19.0843 12.7851 19.434 12.8068C19.0788 13.3016 18.6136 13.7073 18.075 13.9919C17.5364 14.2764 16.9391 14.4321 16.3301 14.4467C15.6182 14.4607 15.3172 15.3837 15.8842 15.8257Z" fill="#96979F"/>
</svg>
