<svg width="16" height="16" viewBox="0 0 16 16" fill="none" xmlns="http://www.w3.org/2000/svg">
<path fill-rule="evenodd" clip-rule="evenodd" d="M7.18286 12.2298C7.29274 12.3392 7.4232 12.4257 7.5667 12.4844C7.71021 12.543 7.86392 12.5727 8.01895 12.5716C8.17399 12.5706 8.32728 12.5388 8.46997 12.4782C8.61266 12.4175 8.74192 12.3292 8.85029 12.2184L15.6354 5.45379C15.7502 5.34524 15.8417 5.2145 15.9043 5.06951C15.967 4.92452 15.9995 4.76831 16 4.61036C15.999 4.38007 15.9303 4.15516 15.8025 3.96359C15.6747 3.77202 15.4934 3.62224 15.2811 3.53286C15.0689 3.44348 14.8351 3.41845 14.6087 3.46088C14.3824 3.50331 14.1735 3.61133 14.008 3.7715L14.0046 3.76693L8.032 9.69836L2.016 3.77265L2.01143 3.77722C1.84777 3.61124 1.63844 3.4977 1.41007 3.45103C1.1817 3.40437 0.94461 3.42669 0.72896 3.51515C0.51331 3.60362 0.328848 3.75423 0.199041 3.94783C0.0692342 4.14143 -5.08611e-05 4.36927 2.8013e-08 4.60236C2.8013e-08 4.94293 0.148571 5.2435 0.380571 5.45722L7.18057 12.2344L7.18286 12.2298Z" fill="white"/>
</svg>
