<svg width="30" height="30" viewBox="0 0 30 30" fill="none" xmlns="http://www.w3.org/2000/svg">
<g clip-path="url(#clip0_1_8165)">
<path d="M22.5938 3.1875L25.6875 6.28125L27.2812 10.125L3.46875 23.8125L0.9375 18.6562L14.0625 6.9375L22.5938 3.1875Z" fill="#14425B"/>
<path d="M27.9375 15.6561C26.5313 23.5311 17.8125 29.1561 10.3125 28.0311C4.12504 27.0936 1.21879 21.8436 2.71879 16.4061C4.12504 11.1561 9.56254 6.37489 15.6563 5.24989C22.9688 3.93739 29.1563 8.34364 27.9375 15.6561Z" fill="#14425B"/>
<path d="M23.3437 3.46875L25.5937 6.1875L27.2812 10.4062L3.84375 23.8125L1.125 19.2187L23.3437 3.46875Z" fill="#14425B"/>
<path d="M27.6563 15.1874C26.3438 23.0624 17.625 28.6874 10.0313 27.5624C3.84379 26.6249 0.937544 21.3749 2.43754 15.9374C3.84379 10.6874 9.28129 5.81239 15.375 4.78114C22.7813 3.46864 28.9688 7.87489 27.6563 15.1874Z" fill="#14425B"/>
<path d="M26.1562 11.7187C24.8437 19.6875 16.125 25.4062 8.43748 24.1875C2.15623 23.25 -0.843767 17.8125 0.656233 12.2812C2.06248 6.93748 7.49998 2.06248 13.6875 0.937479C21.1875 -0.281271 27.4687 4.21873 26.1562 11.7187Z" fill="#14425B"/>
<path d="M26.5313 15C25.3125 22.2188 17.4375 27.4688 10.5 26.3438C4.87504 25.5 2.25004 20.625 3.65629 15.6563C4.96879 10.875 9.84379 6.46877 15.375 5.43752C22.0313 4.21877 27.75 8.25002 26.5313 15Z" fill="#0B6D84"/>
<path d="M25.5001 13.5938C24.2814 21 16.3126 26.25 9.37511 25.125C3.65636 24.1875 1.03136 19.3125 2.34386 14.1563C3.65636 9.28126 8.53136 4.78126 14.1564 3.84376C20.9064 2.53126 26.6251 6.65625 25.5001 13.5938Z" fill="#0B6D84"/>
<path d="M25.1248 11.9061C23.9061 19.3124 15.9373 24.5624 8.90609 23.4374C3.28109 22.4999 0.562337 17.6249 1.87484 12.4686C3.18734 7.59364 8.06234 3.09364 13.6873 2.15614C20.5311 0.93739 26.2498 5.06239 25.1248 11.9061Z" fill="#00ADF2"/>
<path d="M23.1564 11.4375C22.2189 17.625 15.4689 22.0312 9.65635 21.0937C4.96885 20.3437 2.71885 16.2187 3.84385 11.9062C4.96885 7.87498 9.0001 4.12498 13.6876 3.28123C19.3126 2.24998 24.0939 5.62498 23.1564 11.4375Z" fill="#43BBEF"/>
<path d="M25.125 5.53125L25.6875 9.84375L26.7188 11.5312L27.1875 10.0312L25.125 5.53125Z" fill="#14425B"/>
<path d="M18.1873 11.625L18.3748 10.6875C18.7498 8.62495 17.1561 7.12495 14.9061 7.31245H14.5311C12.1873 7.4062 9.93734 9.0937 9.37484 11.0625L9.09359 12C8.81234 12.2812 8.24984 12.75 8.06234 13.125L7.68734 14.25C7.40609 15.5625 7.59359 16.875 8.43734 17.7187C8.99984 18.2812 9.84359 18.75 11.2498 18.6562H12.8436C14.2498 18.6562 15.3748 18.0937 16.2186 17.4375C17.5311 16.5 18.3748 15.0937 18.5623 13.7812L18.7498 12.6562C18.7498 12.2812 18.3748 11.8125 18.1873 11.625ZM14.1561 8.62495H14.4373C15.9373 8.5312 16.9686 9.56245 16.6873 10.9687L16.4998 11.7187L10.5936 12L10.7811 11.25C11.1561 9.8437 12.6561 8.7187 14.1561 8.62495ZM13.2186 15.75L13.0311 16.875C12.9373 17.1562 12.6561 17.4375 12.3748 17.4375C12.0936 17.4375 11.9061 17.25 11.9998 16.9687L12.2811 15.8437C11.8123 15.6562 11.5311 15.1875 11.6248 14.625C11.8123 13.875 12.5623 13.2187 13.4061 13.2187C14.1561 13.2187 14.7186 13.7812 14.5311 14.5312C14.3436 15 13.8748 15.4687 13.2186 15.75Z" fill="#0B6D84"/>
<path d="M18.75 11.3437L18.9375 10.4062C19.3125 8.3437 17.7188 6.8437 15.4688 7.0312H15.0938C12.8438 7.12495 10.5938 8.81245 10.0313 10.875L9.75 11.8125C9.46875 12.0937 8.90625 12.5625 8.71875 12.9375L8.34375 14.0625C7.96875 15.375 8.15625 16.6875 8.90625 17.5312C9.46875 18.0937 10.3125 18.5625 11.7188 18.4687H13.3125C14.7188 18.4687 15.8438 17.9062 16.6875 17.25C18 16.3125 18.8438 14.9062 19.0312 13.5937L19.2188 12.4687C19.3125 12.0937 18.9375 11.625 18.75 11.3437ZM14.7188 8.43745H15C16.5 8.3437 17.5312 9.37495 17.25 10.7812L17.0625 11.5312L11.1562 11.8125L11.3438 11.0625C11.7188 9.6562 13.2188 8.5312 14.7188 8.43745ZM13.7813 15.5625L13.5 16.6875C13.4062 16.9687 13.125 17.25 12.8438 17.25C12.5625 17.25 12.375 17.0625 12.4688 16.7812L12.75 15.6562C12.2813 15.4687 12 15 12.0938 14.4375C12.2812 13.6875 13.0313 13.0312 13.875 13.0312C14.625 13.0312 15.1875 13.5937 15 14.3437C14.9063 14.8125 14.4375 15.2812 13.7813 15.5625Z" fill="#0B6D84"/>
<path d="M17.8125 10.9688L18 10.0313C18.375 8.06253 16.875 6.65628 14.625 6.75003H14.25C12.0938 6.84378 9.9375 8.53128 9.375 10.5L9.09375 11.4375C8.8125 11.7188 8.25 12.1875 8.15625 12.5625L7.875 13.5938C7.5 14.8125 7.6875 16.0313 8.4375 16.875C9 17.4375 9.84375 17.8125 11.1562 17.8125H12.75C14.0625 17.8125 15.1875 17.25 16.0313 16.6875C17.25 15.75 18.0938 14.4375 18.2812 13.2188L18.4688 12.1875C18.2813 11.625 18 11.1563 17.8125 10.9688ZM13.875 8.15628H14.1563C15.5625 8.06253 16.5938 9.00003 16.3125 10.4063L16.2187 11.1563L10.5 11.4375L10.6875 10.7813C11.0625 9.37503 12.4688 8.25003 13.875 8.15628ZM13.0312 15L12.75 16.125C12.6563 16.4063 12.375 16.6875 12.0938 16.6875C11.8125 16.6875 11.625 16.5 11.7188 16.2188L12 15.0938C11.5313 14.9063 11.25 14.4375 11.4375 13.875C11.625 13.125 12.375 12.5625 13.125 12.5625C13.875 12.5625 14.3438 13.0313 14.25 13.7813C14.0625 14.25 13.5938 14.7188 13.0312 15Z" fill="#F6F6F6"/>
<path d="M22.9686 11.1561C23.4373 6.46865 19.7811 3.46865 14.9998 3.7499C10.3123 4.03115 5.43735 7.59365 3.8436 11.9999C2.06235 17.1561 4.9686 21.6561 10.8748 21.5624C16.9686 21.4686 22.4998 16.4061 22.9686 11.1561Z" stroke="#F6F6F6" stroke-width="0.864656" stroke-miterlimit="10"/>
<path d="M25.4062 10.9687L25.0312 7.96875C25.0312 7.96875 26.25 10.0313 26.5312 11.3438L25.2187 14.7188L25.4062 10.9687Z" fill="#0B6D84"/>
<path d="M17.4375 26.7187L17.0625 27.1875L18.75 28.3125L28.5937 18.6562L26.9062 16.5938L17.4375 26.7187Z" fill="#9A4C18"/>
<path d="M28.7814 21.3751C28.5002 25.2188 24.8439 28.5001 20.9064 28.5001C16.9689 28.5001 14.4377 25.2188 15.1877 21.4688C15.9377 17.9063 19.3127 15.1876 22.7814 15.0938C26.3439 15.0001 29.0627 17.8126 28.7814 21.3751Z" fill="#9A4C18"/>
<path d="M29.7189 22.5937C29.4377 26.25 25.8752 29.4375 22.0314 29.3437C18.1877 29.3437 15.7502 26.1562 16.5002 22.5937C17.1564 19.2187 20.5314 16.5937 23.9064 16.5937C27.3752 16.5 30.0002 19.125 29.7189 22.5937Z" fill="#9A4C18"/>
<path d="M18.4688 26.9063L20.1562 27.8438L28.125 19.4063L26.8125 17.7188L18.4688 26.9063Z" fill="#F49937"/>
<path d="M28.9688 22.5938C28.6876 25.6875 25.7813 28.4063 22.5001 28.3125C19.3126 28.3125 17.2501 25.6875 17.8126 22.5938C18.3751 19.6875 21.1876 17.3438 24.0938 17.3438C27.0938 17.3438 29.2501 19.6875 28.9688 22.5938Z" fill="#F49937"/>
<path d="M27.9375 21.3749C27.6563 24.7499 24.4688 27.5624 21 27.5624C17.5313 27.5624 15.375 24.7499 15.9375 21.4687C16.5 18.3749 19.5 15.9374 22.5938 15.8437C25.875 15.7499 28.2188 18.1874 27.9375 21.3749Z" fill="#FFEDC0"/>
<path d="M27.4688 21.6563C27.1876 24.75 24.2813 27.4688 21.0001 27.375C17.8126 27.375 15.7501 24.75 16.3126 21.6563C16.8751 18.75 19.6876 16.4063 22.5938 16.4063C25.5938 16.3125 27.7501 18.6563 27.4688 21.6563Z" fill="#FFD766"/>
<path d="M26.2502 21.6562C25.969 24.0937 23.719 26.0625 21.2815 26.0625C18.844 26.0625 17.1565 24 17.6252 21.6562C18.0002 19.4062 20.2502 17.5312 22.5002 17.5312C24.7502 17.5312 26.4377 19.3125 26.2502 21.6562Z" fill="#FFEDC0"/>
<path d="M26.2499 21C25.9686 23.4375 23.7186 25.4062 21.2811 25.4062C18.8436 25.4062 17.2499 23.4375 17.6249 21C17.9999 18.75 20.1561 16.9687 22.4999 16.875C24.8436 16.9687 26.5311 18.75 26.2499 21Z" fill="#F49937"/>
<path d="M25.5 21.6563C25.3125 23.7188 23.3438 25.4063 21.2813 25.4063C19.2188 25.4063 17.8125 23.7188 18.1875 21.6563C18.5625 19.6875 20.3438 18.1875 22.3125 18.1875C24.2813 18.0938 25.7813 19.6875 25.5 21.6563Z" fill="#FFD766"/>
<path d="M22.875 17.7188L23.4375 19.9687L25.875 20.625L23.625 22.125L23.5313 24.6562L21.4687 23.1563L18.9375 24.0938L20.0625 21.6563L18.75 19.7813L21.2813 19.6875L22.875 17.7188Z" fill="#F49937"/>
</g>
<defs>
<clipPath id="clip0_1_8165">
<rect width="30" height="30" fill="white"/>
</clipPath>
</defs>
</svg>
