<svg width="30" height="30" viewBox="0 0 30 30" fill="none" xmlns="http://www.w3.org/2000/svg">
<g clip-path="url(#clip0_1_13437)">
<path d="M27.0696 25.1846C28.0654 21.1639 22.8833 16.4211 15.4952 14.5914C8.10701 12.7617 1.31049 14.5378 0.314719 18.5586C-0.681051 22.5794 4.50101 27.3222 11.8892 29.1519C19.2773 30.9816 26.0739 29.2054 27.0696 25.1846Z" fill="#3D210F"/>
<path d="M27.15 24.9412C28.0337 21.3727 22.7609 16.9967 15.3727 15.1669C7.98454 13.3372 1.27883 14.7467 0.395084 18.3151C-0.488661 21.8836 4.78422 26.2597 12.1724 28.0894C19.5605 29.9191 26.2663 28.5096 27.15 24.9412Z" fill="#80461D"/>
<path d="M26.0579 5.58242C26.4811 3.87359 23.7684 1.73153 19.9989 0.797999C16.2294 -0.135535 12.8306 0.492965 12.4074 2.20179C11.9842 3.91062 14.6969 6.05268 18.4663 6.98621C22.2358 7.91974 25.6347 7.29125 26.0579 5.58242Z" fill="#80461D"/>
<path d="M25.6876 25.8752C26.2501 25.5002 27.0938 24.8439 27.4688 23.7189C28.0313 21.9377 27.1876 20.4377 27.1876 20.4377C26.3438 18.8439 21.7501 16.4064 15.9376 14.6252C10.1251 12.8439 4.87507 12.2814 3.28132 13.2189C3.28132 13.2189 1.78132 13.9689 1.21882 15.8439C0.843818 16.9689 1.21882 18.0939 1.50007 18.7502C1.50007 18.8439 1.59382 18.9377 1.68757 19.1252C1.78132 19.2189 1.78132 19.3127 1.78132 19.3127C3.09382 20.9064 7.40632 23.0627 12.8438 24.7502C18.2813 26.3439 23.0626 26.9064 25.0313 26.3439C25.0313 26.3439 25.1251 26.3439 25.1251 26.2502C25.4063 26.0627 25.5938 25.9689 25.6876 25.8752ZM25.5001 13.4064C25.8751 13.1252 26.5313 12.6564 26.7188 11.8127C27.0938 10.5002 26.5313 9.46894 26.5313 9.46894C25.9688 8.34394 22.7813 6.56269 18.7501 5.34394C14.7188 4.12519 11.1563 3.75019 9.93757 4.40644C9.93757 4.40644 8.90632 4.96894 8.43757 6.28144C8.15632 7.12519 8.43757 7.87519 8.62507 8.34394C8.62507 8.43769 8.71882 8.53144 8.71882 8.62519C8.81257 8.71894 8.81257 8.81269 8.81257 8.81269C9.75007 9.93769 12.6563 11.5314 16.4063 12.6564C20.1563 13.7814 23.5313 14.1564 24.8438 13.6877H24.9376C25.3126 13.5002 25.4063 13.5002 25.5001 13.4064Z" fill="#80461D"/>
<path d="M25.7815 19.9687C26.344 19.5937 27.0003 19.0312 27.3753 18C27.844 16.4062 27.1878 15.0937 27.1878 15.0937C26.4378 13.5937 22.5003 11.5312 17.4378 10.0312C12.3753 8.34375 7.8753 7.96875 6.46905 8.71875C6.46905 8.71875 5.15655 9.46875 4.59405 11.0625C4.21905 12.0937 4.59405 13.125 4.78155 13.6875C4.78155 13.7812 4.8753 13.875 4.96905 13.9687C5.0628 14.0625 5.0628 14.1562 5.0628 14.1562C6.1878 15.5625 9.9378 17.5312 14.6253 18.9375C19.3128 20.3438 23.4378 20.8125 25.219 20.25L25.3128 20.1562C25.5003 20.1562 25.594 20.0625 25.7815 19.9687ZM26.2503 7.21875C27.9378 4.3125 23.9065 0 23.9065 0C21.5628 2.71875 15.094 -0.28125 12.844 1.59375C12.1878 2.0625 12.0003 2.625 11.9065 3.09375C11.719 3.65625 11.9065 4.21875 12.094 4.5C12.094 4.59375 12.1878 4.59375 12.1878 4.6875C12.1878 4.78125 12.2815 4.78125 12.2815 4.78125C12.9378 5.53125 15.1878 6.65625 18.0003 7.5C20.8128 8.34375 23.2503 8.71875 24.2815 8.4375H24.3753C24.469 8.4375 24.9378 8.625 25.0315 8.625C25.3128 8.34375 25.7815 7.96875 26.2503 7.21875Z" fill="#80461D"/>
<path d="M26.6904 23.9721C27.487 20.7555 22.4287 16.7353 15.3923 14.9927C8.35598 13.2501 2.00611 14.445 1.20949 17.6616C0.412874 20.8783 5.47118 24.8985 12.5075 26.6411C19.5439 28.3837 25.8937 27.1888 26.6904 23.9721Z" fill="#965123"/>
<path d="M24.1876 26.6252C24.7501 26.2502 25.5001 25.5002 25.8751 24.3752C26.4376 22.5002 25.6876 21.094 25.6876 21.094C24.9376 19.5002 20.9063 17.1565 15.7501 15.5627C10.5938 13.969 5.90633 13.5002 4.40633 14.4377C4.40633 14.4377 3.00008 15.2815 2.43758 17.0627C2.06258 18.2815 2.34383 19.3127 2.62508 19.969C2.62508 20.0627 2.71883 20.1565 2.81258 20.344C2.71883 20.4377 2.81258 20.5315 2.81258 20.5315C3.93758 22.1252 7.78133 24.1877 12.5626 25.7815C17.3438 27.2815 21.6563 27.7502 23.5313 27.094L23.6251 27.0002C23.9063 26.9065 24.0001 26.8127 24.1876 26.6252Z" fill="#BF763B"/>
<path d="M18.6562 17.8125C18.6562 17.8125 24.75 20.9063 23.1563 24.0938C21 28.5938 9.1875 24.8438 4.125 22.0312C4.125 22.0312 8.71875 25.5 17.25 26.9063C17.25 26.9063 21.5625 27.75 23.4375 27.1875C25.3125 26.625 25.9688 24.9375 25.7812 23.625C25.7812 22.4063 26.4375 20.9062 18.6562 17.8125Z" fill="#965123"/>
<path d="M24.4686 19.0313C24.9373 18.7501 25.4998 18.2813 25.7811 17.4376C26.1561 16.1251 25.5936 15.0938 25.5936 15.0938C24.9373 13.8751 21.4686 12.0938 17.1561 10.7813C12.8436 9.46882 8.90609 9.00007 7.78109 9.65632C7.78109 9.65632 6.65609 10.2188 6.28109 11.5313C5.99984 12.3751 6.28109 13.1251 6.46859 13.5938C6.46859 13.6876 6.56234 13.7813 6.56234 13.8751V14.0626C7.49984 15.2813 10.7811 16.8751 14.8123 18.0938C18.8436 19.3126 22.4061 19.7813 23.9061 19.3126H23.9998C24.2811 19.2188 24.3748 19.1251 24.4686 19.0313Z" fill="#BF763B"/>
<path d="M19.875 11.7188C19.875 11.7188 23.0625 13.5 21.9375 16.125C20.8125 18.75 12.0938 17.25 7.78125 15C7.78125 15 11.625 17.8125 18.75 19.0312C18.75 19.0312 22.4063 19.6875 23.9062 19.3125C25.4062 18.8438 25.9688 17.5313 25.875 16.5C25.7812 15.4688 26.4375 14.25 19.875 11.7188Z" fill="#965123"/>
<path d="M24.4571 12.1268C24.8803 10.4179 21.801 8.18507 17.5792 7.13951C13.3573 6.09395 9.59182 6.63164 9.16862 8.34046C8.74542 10.0493 11.8248 12.2822 16.0466 13.3277C20.2684 14.3733 24.0339 13.8356 24.4571 12.1268Z" fill="#965123"/>
<path d="M24.4688 12.6561C24.8438 12.4686 25.3125 12.0936 25.5 11.4373C25.7813 10.4061 25.3125 9.56232 25.3125 9.56232C24.75 8.62482 22.0313 7.21857 18.5625 6.18732C15.0938 5.15607 12 4.78107 11.0625 5.24982C11.0625 5.24982 10.125 5.71857 9.84378 6.74982C9.65628 7.40607 9.84378 8.06232 10.0313 8.43732C10.0313 8.53107 10.125 8.53107 10.125 8.62482C10.125 8.71857 10.2188 8.71857 10.2188 8.71857C10.9688 9.65607 13.5938 10.9686 16.875 11.9061C20.0625 12.8436 22.9688 13.2186 24.1875 12.9373H24.2813C24.2813 12.7498 24.375 12.7498 24.4688 12.6561Z" fill="#BF763B"/>
<path d="M21.4688 6.9375C21.4688 6.9375 23.7188 8.34375 22.875 10.4063C22.0312 12.4688 15.6562 12.0938 12.6562 10.4063C12.6562 10.4063 15.4687 12 20.5312 12.75C20.5312 12.75 23.0625 13.2187 24.1875 12.8437C25.3125 12.4687 25.6875 11.3438 25.5937 10.5938C25.5937 9.84375 26.0625 8.90625 21.4688 6.9375Z" fill="#965123"/>
<path d="M25.0312 6.56238C24.5625 8.24988 22.0312 8.90613 18.1875 7.96863C14.3437 7.03113 11.7187 4.87488 12.0937 3.18738C12.5625 1.49988 15.75 1.21863 19.5937 2.15613C23.4375 3.09363 25.4062 4.87488 25.0312 6.56238Z" fill="#965123"/>
<path d="M21.2813 3C21.2813 3 23.1563 4.03125 22.5938 5.25C22.0313 6.5625 16.9688 5.625 14.4375 4.40625C14.4375 4.40625 16.6875 5.90625 20.8125 6.65625C20.8125 6.65625 22.875 7.125 23.8125 6.9375C24.6562 6.75 24.9375 6.09375 24.8438 5.53125C24.75 4.96875 25.125 4.40625 21.2813 3Z" fill="#965123"/>
<path d="M25.2189 6.375C26.5314 4.21875 23.7189 1.03125 23.7189 1.03125C21.7502 3 15.4689 0.375 13.5002 1.6875C12.9377 2.0625 12.7502 2.4375 12.7502 2.8125C12.6564 3.1875 12.8439 3.65625 12.9377 3.84375L13.0314 3.9375L13.1252 4.21875C13.7814 4.875 15.7502 5.8125 18.2814 6.5625C20.7189 7.3125 22.9689 7.6875 23.8127 7.5H23.9064C24.0002 7.5 24.0939 7.40625 24.0939 7.40625C24.3752 7.21875 24.7502 6.9375 25.2189 6.375Z" fill="#BF763B"/>
<path d="M13.0312 4.125C13.0312 4.125 17.625 6.46875 20.25 6.09375C22.875 5.71875 25.2188 3.84375 24.2812 1.78125C24.2812 1.78125 26.5312 4.59375 25.3125 6.28125C24.1875 7.96875 23.1562 7.59375 21.8438 7.40625C20.5312 7.3125 14.4375 5.625 13.0312 4.125ZM20.25 21.4688C19.875 21.75 19.4062 21.75 19.2188 21.5625C19.0312 21.375 19.2188 20.9062 19.5938 20.7188C19.9688 20.4375 20.4375 20.4375 20.625 20.625C20.8125 20.8125 20.625 21.1875 20.25 21.4688ZM15 3.65625C14.625 3.9375 14.0625 3.84375 13.7812 3.46875C13.5 3.09375 13.5938 2.625 13.9688 2.34375C14.3438 2.0625 14.9063 2.15625 15.1875 2.53125C15.4688 2.90625 15.375 3.375 15 3.65625ZM17.3438 2.90625C16.875 3.09375 16.4062 3 16.3125 2.8125C16.2188 2.53125 16.5 2.25 16.875 2.0625C17.3438 1.875 17.8125 1.96875 17.9062 2.15625C18 2.34375 17.7188 2.71875 17.3438 2.90625ZM12.8438 23.3438C12.375 23.3438 12 23.0625 12 22.7812C12 22.5 12.4688 22.3125 12.9375 22.4062C13.4062 22.4062 13.7812 22.6875 13.7812 22.9688C13.7812 23.1562 13.3125 23.3438 12.8438 23.3438ZM4.59375 16.6875C4.125 16.6875 3.75 16.2188 3.75 15.75C3.75 15.2812 4.21875 15 4.6875 15C5.15625 15 5.53125 15.4688 5.53125 15.9375C5.53125 16.4062 5.0625 16.7812 4.59375 16.6875ZM17.3438 22.5C16.875 22.5 16.4062 22.3125 16.4062 22.0312C16.4062 21.75 16.7812 21.5625 17.25 21.5625C17.7188 21.5625 18.1875 21.75 18.1875 22.0312C18.2812 22.2188 17.8125 22.5 17.3438 22.5Z" fill="#965123"/>
<path d="M23.7186 25.0311C23.2499 25.2186 22.7811 25.1249 22.6874 24.8436C22.5936 24.5624 22.8749 24.2811 23.3436 24.0936C23.8124 23.9061 24.2811 23.9999 24.3749 24.2811C24.4686 24.5624 24.1874 24.8436 23.7186 25.0311ZM25.3124 22.4999C25.2186 22.9686 24.9374 23.2499 24.5624 23.1561C24.2811 23.0624 24.0936 22.6874 24.2811 22.2186C24.3749 21.7499 24.7499 21.4686 25.0311 21.5624C25.3124 21.6561 25.4061 22.0311 25.3124 22.4999Z" fill="#80461D"/>
<path d="M23.7188 13.5938C21.75 13.2188 19.5 13.2188 17.0625 13.6875C16.7813 13.7813 16.5 13.7812 16.2188 13.7812H15.0938L13.9687 13.4063C13.6875 13.3125 13.5 13.2187 13.2188 13.0312C10.9688 11.9062 8.8125 11.1562 6.84375 10.9687C4.875 10.7812 0.9375 10.7812 0.9375 10.7812L0.75 13.125C0.75 13.125 1.5 13.3125 1.5 13.7812C1.5 14.25 2.15625 19.2188 2.15625 19.2188C2.15625 19.2188 2.4375 20.9063 3.75 21.5625C5.15625 22.2188 7.96875 23.1563 9.9375 22.0313C11.8125 20.9063 13.5 16.5938 13.7812 16.0313C14.0625 15.5625 14.1562 15.2812 14.8125 15.375C15.4688 15.4688 15.4688 15.75 15.6563 16.3125C15.8438 16.875 16.5 21.5625 18.0938 23.25C19.6875 24.9375 22.6875 24.8438 24.1875 24.6562C25.6875 24.4688 26.25 22.875 26.25 22.875L28.0312 17.8125C28.125 17.3438 28.875 17.3438 28.875 17.3438C28.9688 16.9688 29.25 15 29.25 15L23.7188 13.5938Z" fill="#020202"/>
<path opacity="0.48" d="M11.7188 13.5937C11.3438 13.3124 10.875 13.0312 10.2187 12.8437C7.875 12.0937 6.28125 11.7187 4.59375 11.9062C2.90625 12.0937 2.71875 14.8124 2.71875 14.8124L3 18.8437C3.1875 19.5937 3.375 20.7187 4.875 21.2812C5.4375 18.8437 6.9375 14.4374 11.7188 13.5937Z" fill="#9DB0D6"/>
<path opacity="0.48" d="M11.7188 13.5938C6.9375 14.5312 5.4375 18.8438 4.875 21.2813C5.25 21.375 5.625 21.4688 6.09375 21.5625C6.09375 21.5625 9.375 22.4062 10.6875 20.625C12 18.8438 12.6563 15.5625 12.5625 15.1875C12.4688 14.8125 12.4688 14.1562 11.7188 13.5938ZM26.0625 15.2812C21.1875 16.125 19.5938 20.625 19.125 23.0625C20.4375 23.9062 22.125 24 22.125 24C24.6563 24.4688 25.2188 23.0625 25.5938 22.3125C26.0625 21.5625 26.8125 18.5625 26.8125 18.5625C26.8125 18.5625 27.2812 16.2187 26.0625 15.2812Z" fill="#6276A5"/>
<path opacity="0.48" d="M26.0624 15.2812C25.9687 15.1875 25.8749 15.1875 25.7812 15.0938C24.1874 14.3438 22.5937 14.25 20.1562 14.25C17.7187 14.3438 17.5312 15.375 17.3437 15.75C17.1562 16.125 17.0624 19.5 17.9062 21.5625C18.1874 22.125 18.5624 22.5938 19.1249 22.875C19.5937 20.625 21.1874 16.125 26.0624 15.2812Z" fill="#9DB0D6"/>
<path opacity="0.27" d="M11.0339 15.7152C11.2446 14.8074 9.86179 13.7108 7.94523 13.2659C6.02868 12.8211 4.30418 13.1964 4.09346 14.1043C3.88274 15.0121 5.26559 16.1087 7.18214 16.5535C9.0987 16.9984 10.8232 16.6231 11.0339 15.7152Z" fill="#9DB0D6"/>
<path opacity="0.27" d="M25.6761 17.2957C25.762 16.3677 24.2435 15.4685 22.2845 15.2872C20.3254 15.1058 18.6677 15.7111 18.5818 16.6391C18.4959 17.5671 20.0144 18.4663 21.9735 18.6476C23.9325 18.829 25.5903 18.2237 25.6761 17.2957Z" fill="#9DB0D6"/>
</g>
<defs>
<clipPath id="clip0_1_13437">
<rect width="30" height="30" fill="white"/>
</clipPath>
</defs>
</svg>
