<svg width="30" height="30" viewBox="0 0 30 30" fill="none" xmlns="http://www.w3.org/2000/svg">
<g clip-path="url(#clip0_1_10492)">
<path d="M21.75 8.4375L23.1562 6.46875L23.0625 5.15625L25.2188 7.6875L25.4063 13.4063L20.25 10.3125L21.75 8.4375ZM8.53125 7.875C8.53125 7.875 6.1875 9.65625 5.8125 13.4063L8.53125 11.0625L8.8125 7.6875L8.53125 7.875ZM12.8438 4.875C12.8438 4.875 13.2188 3.46875 12.375 1.78125C12.375 1.78125 14.4375 2.4375 16.3125 4.125L16.125 5.15625L14.25 6.75L12.8438 4.875Z" fill="#9A4C18"/>
<path d="M26.1762 19.7322C27.2463 13.9803 23.3685 8.43463 17.5148 7.34559C11.6611 6.25654 6.04823 10.0365 4.97812 15.7884C3.90802 21.5403 7.78588 27.086 13.6396 28.175C19.4933 29.2641 25.1061 25.4841 26.1762 19.7322Z" fill="#9A4C18"/>
<path d="M25.0681 18.9941C26.1098 13.3949 22.539 8.03445 17.0925 7.02117C11.6461 6.00788 6.38635 9.72549 5.34465 15.3247C4.30296 20.9239 7.87374 26.2843 13.3202 27.2976C18.7667 28.3109 24.0264 24.5933 25.0681 18.9941Z" fill="#E5895B"/>
<path d="M24.0235 18.2439C24.9989 13.0011 21.6632 7.98318 16.573 7.03619C11.4829 6.08919 6.56575 9.57169 5.59035 14.8146C4.61494 20.0574 7.95061 25.0753 13.0408 26.0223C18.1309 26.9693 23.0481 23.4868 24.0235 18.2439Z" fill="#FAD395"/>
<path d="M21.375 14.625C21.375 14.625 23.8125 15.375 24.6562 15.2812C25.5 15.0937 26.5313 15.375 26.7188 14.7187C27 13.9687 26.8125 9.5625 22.3125 7.03125L24 11.3438L21.375 14.625Z" fill="#9A4C18"/>
<path d="M8.34392 9.75C8.34392 9.75 7.87517 8.15625 9.00017 6.65625C10.1252 5.25 9.75017 2.53125 9.75017 2.53125L13.7814 4.875C13.7814 4.875 16.1252 6.375 15.4689 7.59375C14.9064 8.71875 13.4064 10.4062 13.2189 10.5C13.0314 10.5937 11.9064 11.5312 11.9064 11.5312L8.34392 9.75Z" fill="#9A4C18"/>
<path d="M8.8125 10.2188C8.8125 10.2188 9 8.15625 9.84375 7.78125C10.6875 7.40625 10.6875 4.40625 10.6875 4.40625L14.7188 6.75C14.7188 6.75 17.0625 8.25 16.4063 9.46875C15.75 10.6875 14.3438 12.2812 14.1563 12.375C13.9688 12.4688 13.2188 13.0312 13.2188 13.0312L8.8125 10.2188Z" fill="#DB7D1F"/>
<path d="M19.875 13.9688C19.875 13.9688 22.3125 14.7187 23.1562 14.625C24 14.4375 25.0313 14.7187 25.2188 14.0625C25.5 13.3125 25.3125 8.90625 20.8125 6.375L22.5 10.6875L19.875 13.9688Z" fill="#DB7D1F"/>
<path d="M11.3439 11.0625C11.3439 11.0625 10.2189 10.4062 11.4377 8.53125C12.6564 6.65625 15.7502 4.21875 15.7502 4.21875L13.6877 0C13.6877 0 18.3752 0.5625 21.0002 4.875C21.0002 4.875 24.4689 8.4375 24.1877 9.9375C23.9064 11.4375 24.7502 14.9062 22.9689 15.2812C21.2814 15.6562 11.7189 11.625 11.3439 11.0625Z" fill="#9A4C18"/>
<path d="M11.9062 11.4375C11.9062 11.4375 12 9.75 13.0312 8.25C14.0625 6.75 16.6875 4.78125 16.6875 4.78125L15.9375 1.6875C15.9375 1.6875 18.2813 2.15625 20.3438 5.53125C20.3438 5.53125 23.0625 8.25 22.7812 9.375C22.5 10.5 21.1875 14.1562 19.875 14.4375C18.5625 14.7187 12.1875 11.9062 11.9062 11.4375Z" fill="#F49937"/>
<path d="M14.3438 11.3438L16.6875 7.875L17.625 3.5625L19.0312 8.53125L17.1562 12.75C17.0625 12.8438 14.8125 12.2813 14.3438 11.3438Z" fill="#FDE049"/>
<path d="M25.4063 11.4375L24.2812 14.0625L22.5 12.2813L22.875 14.625L26.1562 15L25.4063 11.4375Z" fill="#9A4C18"/>
<path d="M20.7188 12.5625L22.4062 13.7812L24.6562 13.0312L24 14.5312L22.6875 14.8125L19.2188 14.5312L20.7188 12.5625ZM11.9062 7.59375L11.4375 9.65625L12.5625 12L12.1875 11.7187L10.125 10.5L9.9375 8.53125L11.9062 7.59375Z" fill="#DB7D1F"/>
<path d="M17.4375 14.25L20.25 11.0625L20.7188 7.21875L20.1562 5.34375L22.4062 7.875C22.7812 8.4375 23.0625 10.0313 22.7812 10.4063C22.5 10.7813 20.5312 14.3438 20.5312 14.3438L19.6875 14.625C19.7812 14.625 18.1875 14.7188 17.4375 14.25Z" fill="#DB7D1F"/>
<path d="M12.4687 8.0625L13.125 8.15625C13.125 8.15625 12 9.75 12.1875 11.25C12.1875 11.25 10.7812 10.3125 11.8125 8.0625H12.4687Z" fill="#9A4C18"/>
<path d="M21.75 13.6875C21.75 13.6875 24.1875 13.4062 24.375 11.625C24.375 11.625 24.6562 13.125 24.0938 13.875C23.5312 14.625 22.2188 14.0625 22.2188 14.0625L21.75 13.6875Z" fill="#DB7D1F"/>
<path d="M12 12.1875L12.9375 13.875H18.8438L19.5 12.0937L16.875 13.5937L13.2188 12L12.0937 10.875L12 12.1875Z" fill="#F49937"/>
<path d="M19.5938 14.5312C19.5938 14.5312 20.0625 15.375 20.1562 15.8437L18.8438 16.875C18.8438 16.875 21.375 17.4375 21.4688 18.5625C21.5625 19.6875 20.7188 21 20.7188 21L25.0312 21.4687C25.0312 21.4687 25.9688 16.875 25.0312 14.625L23.8125 13.3125L21.9375 14.0625L19.5938 14.5312ZM9.84375 10.4062L6.09375 12.9375C6.09375 12.9375 6.46875 10.9687 8.34375 9L9.84375 10.4062Z" fill="#DB7D1F"/>
<path d="M24.375 22.5L20.7188 21V20.5312L25.4062 20.7188L24.375 22.5Z" fill="#9A4C18"/>
<path d="M21.75 20.7188L21.9375 18.1875C21.9375 18.1875 20.4375 17.1563 19.3125 16.7813L18.6562 16.6875L20.1563 17.8125L20.7188 20.9062L21.75 20.7188Z" fill="#9A4C18"/>
<path d="M19.875 17.1562L20.9062 15.9375L19.5 13.875L16.875 14.3438L19.5937 14.9062L18.75 16.6875L19.875 17.1562Z" fill="#9A4C18"/>
<path d="M19.0312 14.4375H12.6562L11.8125 11.9062L13.3125 13.5938L19.4063 13.7812L19.0312 14.4375Z" fill="#9A4C18"/>
<path d="M12.8437 14.3438L10.0312 13.0312L12.6562 13.3125L12.8437 14.3438ZM12.2812 12.8438L9.46875 11.5313L5.90625 13.0312L9.1875 10.2188L12 11.8125L12.1875 12.6563" fill="#9A4C18"/>
<path d="M19.4063 13.9687L23.8125 14.9062L24.2812 17.3438L21.4688 18.8438L20.8125 18.2812L19.4063 13.9687ZM8.4375 11.4375L11.3438 13.5H12.9375L12.4688 12.6563L10.0312 11.4375H8.4375Z" fill="#9A4C18"/>
<path d="M19.0312 15L23.25 15.0938L23.625 16.875L19.6875 18.2812L17.8125 16.9688L19.0312 15Z" fill="#FAD395"/>
<path d="M23.4376 16.2186C23.4376 16.2186 18.8438 13.8749 15.0938 13.3124C15.0938 13.3124 14.5313 13.4999 13.9688 13.3124C13.5001 13.0312 13.1251 12.5624 13.1251 12.5624C10.1251 10.5937 5.90635 9.3749 5.90635 9.3749C5.90635 9.3749 5.6251 9.09365 5.34385 9.84365C5.0626 10.5937 5.53135 10.7812 5.53135 10.7812C5.53135 10.7812 4.03135 13.6874 4.6876 14.8124C5.34385 16.0312 7.8751 17.7187 8.90635 18.2812C9.9376 18.8437 10.5938 18.5624 11.2501 17.9062C11.8126 17.2499 12.4688 16.0311 12.8438 15.3749C13.0313 14.9999 13.3126 14.9999 13.4063 14.9999H13.5938C13.6876 15.0937 13.8751 15.2811 13.7813 15.7499C13.6876 16.4999 13.3126 17.8124 13.4063 18.8437C13.4063 19.8749 13.7813 20.5311 14.9063 20.9061C16.0313 21.2811 19.4063 22.1249 20.8126 21.7499C22.2188 21.3749 22.9688 17.8124 22.9688 17.8124C22.9688 17.8124 23.6251 18.0936 23.8126 17.2499C24.0001 16.3124 23.4376 16.2186 23.4376 16.2186Z" fill="#4A4A4A"/>
<path d="M15.375 13.7812C15.375 13.7812 20.625 15 23.4375 16.6875L23.3437 16.9688L15.375 13.7812Z" fill="#6F6F6F"/>
<path d="M21.9375 16.9688C20.9062 16.4062 18.0938 15 15 14.625C14.7188 14.625 14.5312 14.8125 14.4375 15.0938C14.25 15.8438 13.9688 17.25 13.9688 18.6562C13.9688 18.9375 14.0625 19.2188 14.1563 19.4063C15.4688 18.8438 19.125 17.3438 22.125 17.0625C22.0313 17.0625 21.9375 17.0625 21.9375 16.9688Z" fill="white"/>
<path d="M22.0313 17.0625C19.125 17.25 15.375 18.8438 14.0625 19.4062C14.25 19.6875 14.4375 19.9687 14.7187 20.0625C16.0312 20.5312 18.6562 21.4687 20.5312 20.9062C20.625 20.9062 20.7188 20.8125 20.7188 20.7187C21 20.4375 21.6563 19.5937 22.125 17.625C22.2188 17.4375 22.2188 17.25 22.0313 17.0625Z" fill="#CCCCCC"/>
<path d="M6.375 10.7808C6.1875 10.687 5.90625 10.8745 5.8125 11.062C5.0625 12.6558 4.96875 13.687 4.96875 14.062C4.96875 14.1558 4.96875 14.2495 5.0625 14.3433C5.15625 14.6245 5.34375 14.812 5.53125 15.0933C7.03125 14.5308 9.75 13.7808 12.0937 13.4995C9.84375 11.812 7.3125 11.062 6.375 10.7808Z" fill="white"/>
<path d="M12.375 13.5937C12.2812 13.5 12.1875 13.5 12.0937 13.4062C9.75 13.6875 7.03125 14.5312 5.53125 15C6.5625 16.2187 8.25 17.1562 9.1875 17.625C9.65625 17.8125 10.2188 17.7187 10.5938 17.25C11.4375 16.2187 12.0938 15 12.4688 14.3438C12.5625 14.0625 12.5625 13.7812 12.375 13.5937Z" fill="#CCCCCC"/>
<path d="M7.50016 19.0312C9.09391 20.3437 12.9377 22.9687 18.5627 22.9687C19.0314 22.9687 19.2189 23.5312 18.8439 23.8124C17.5314 25.0312 14.7189 26.9062 11.1564 25.6874C7.59391 24.4687 6.84391 21.1874 6.75016 19.4999C6.65641 19.0312 7.21891 18.7499 7.50016 19.0312Z" fill="#9A4C18" stroke="#9A4C18" stroke-width="0.357469" stroke-miterlimit="10"/>
<path d="M7.21875 19.4062C7.21875 19.4062 10.6875 23.25 18 23.4375C18 23.4375 16.7812 24.2812 15.9375 24.6562C15.9375 24.6562 12.5625 25.0312 7.78125 21.8437C7.78125 21.75 7.40625 21 7.21875 19.4062Z" fill="white"/>
<path d="M9.28125 23.906C9.28125 23.906 11.8125 23.8123 13.0312 25.6873C13.0312 25.6873 10.5 25.8748 9.28125 23.906Z" fill="#E5895B"/>
<path d="M22.0312 22.4062C22.0312 22.4062 24.75 23.4375 25.5937 25.2188C26.4375 27 24.375 27.9375 23.4375 27.0938C22.4062 26.25 22.5 23.1563 22.0312 22.4062Z" fill="#4D7D8E" stroke="#4D7D8E" stroke-width="0.503625" stroke-miterlimit="10"/>
<path d="M22.3125 22.875C22.3125 22.875 24.4688 23.625 25.125 25.125C25.7812 26.625 24.1875 27.375 23.3438 26.625C22.5938 25.9688 22.6875 23.4375 22.3125 22.875Z" fill="#B0F4FF"/>
<path d="M24.6467 25.6725C24.8413 25.3667 24.7512 24.9611 24.4454 24.7665C24.1396 24.5719 23.7339 24.662 23.5394 24.9678C23.3448 25.2736 23.4349 25.6792 23.7407 25.8738C24.0465 26.0684 24.4521 25.9783 24.6467 25.6725Z" fill="white"/>
<path d="M19.0312 20.3438C19.0312 20.3438 18 20.3438 16.875 22.6875L19.125 22.4062L19.0312 20.3438Z" fill="#9A4C18"/>
<path d="M21.8439 22.8746C21.8439 22.8746 19.0314 21.5621 17.6252 22.0308C16.7814 22.3121 15.9377 23.7183 15.3752 24.9371C14.9064 25.7808 15.3752 26.6246 16.1252 27.3746C16.6877 27.9371 17.9064 28.1246 18.1877 28.2183L20.4377 26.2496L21.8439 22.8746Z" fill="#9A4C18"/>
<path d="M22.0314 23.0624C22.0314 23.0624 19.5002 21.8436 18.1877 22.3124C17.5314 22.4999 16.7814 23.7186 16.2189 24.7499C15.7502 25.5936 15.9377 26.7186 16.6877 27.3749C17.1564 27.8436 18.0939 27.9374 18.3752 28.1249L20.8127 26.0624L22.0314 23.0624Z" fill="#E5895B"/>
<path d="M21.5627 23.3438C21.5627 23.3438 19.4064 22.3126 18.2814 22.6876C17.7189 22.8751 17.1564 23.7188 16.6877 24.5626C16.2189 25.5001 16.4064 26.5313 17.1564 27.2813C17.5314 27.6563 17.9064 27.9376 18.0939 28.0313L20.4377 25.9688L21.5627 23.3438Z" fill="#FAD395"/>
<path d="M18.7502 22.3126C18.5627 22.2188 18.3752 21.5626 18.3752 21.0938C18.2814 20.8126 18.3752 20.5313 18.5627 20.4376L21.3752 19.5938C21.5627 19.5001 21.7502 19.5001 21.9377 19.6876C22.4064 19.9688 22.6877 20.0626 22.7814 20.6251C22.8752 21.1876 22.5939 21.6563 22.2189 21.7501C21.0939 22.0313 19.0314 22.4063 18.7502 22.3126Z" fill="#9A4C18"/>
<path d="M18.9375 22.1251C18.75 22.0313 18.6562 21.4688 18.5625 21.0001C18.5625 20.7188 18.5625 20.5313 18.75 20.4376L21.2813 19.9688C21.4688 19.8751 21.6563 19.8751 21.75 20.0626C22.125 20.3438 22.3125 20.2501 22.4063 20.7188C22.5 21.1876 22.3125 21.5626 21.9375 21.6563C21 21.9376 19.125 22.2188 18.9375 22.1251Z" fill="#E5895B"/>
<path d="M18.9375 22.0309C18.8438 22.0309 18.75 21.4684 18.6562 21.0934C18.6562 20.9059 18.6563 20.7184 18.8438 20.6247L20.9062 20.2497C21 20.1559 21.1875 20.2497 21.2813 20.2497C21.5625 20.4372 21.375 20.3434 21.4688 20.7184C21.5625 21.0934 21.4688 21.3747 21.1875 21.4684C20.4375 21.8434 19.125 22.1247 18.9375 22.0309Z" fill="#FAD395"/>
<path d="M18.9375 20.5312H18.75C18.75 20.5312 17.8125 21.0938 17.625 21.75C17.3437 22.4063 17.1562 23.4375 17.1562 23.4375L18.2813 22.5L19.125 22.3125L18.9375 22.125C18.9375 22.125 18.8438 22.0312 18.75 21.8437C18.6563 21.6562 18.6563 21 18.6563 21V20.7188L18.9375 20.5312Z" fill="#E5895B"/>
<path d="M19.2188 22.125L19.125 22.4062L18.75 22.3125V22.125H19.2188Z" fill="#E5895B"/>
<path d="M19.125 21.1875L18.75 20.7188C18.75 20.7188 18.0938 21.0937 17.9062 22.0312C17.7188 22.9687 17.4375 23.625 17.4375 23.625L18.8438 22.875L18.9375 22.5938C18.9375 22.5938 18.75 22.5937 18.75 22.4062C18.75 22.2187 19.3125 22.0312 19.3125 22.0312L19.125 21.1875Z" fill="#FAD395"/>
<path d="M19.6875 20.5312C19.6875 20.5312 18.6562 20.625 17.8125 21.8437V21.6563C17.8125 21.6563 18.375 20.5312 19.5 20.5312H19.6875ZM19.9687 21.6563C19.9687 21.6563 18.6562 21.75 18.1875 22.9688L18.4688 23.4375C18.4688 23.4375 17.7188 23.7188 17.5313 24C17.3438 24.2813 17.1562 25.3125 17.1562 25.4063C17.1562 25.5 17.25 25.7813 17.25 25.7813C17.25 25.7813 16.5 26.4375 16.5 26.5312C16.5 26.7187 16.875 27.1875 16.875 27.1875L17.7187 25.7813L17.625 25.4063L18 24.6562L18.4688 23.9063L19.2187 23.5313L19.3125 22.875L19.9687 21.6563Z" fill="#E5895B"/>
<path d="M18.9377 23.5313C18.7502 23.3438 19.219 22.5 19.594 21.9375C19.7815 21.5625 20.1565 21.4688 20.4377 21.4688L23.344 22.0313C23.5315 22.0313 23.6252 22.2187 23.719 22.4062C23.8127 22.875 23.5315 23.4375 23.2502 23.9063C22.969 24.2813 22.594 24.5625 22.219 24.5625C21.094 24.4688 19.219 23.8125 18.9377 23.5313Z" fill="#9A4C18"/>
<path d="M19.6876 23.5313C19.5001 23.3438 19.8751 22.7812 20.2501 22.3125C20.4376 22.0312 20.7188 21.9375 20.9063 21.9375L23.1563 22.3125C23.2501 22.3125 23.4376 22.4063 23.4376 22.5938C23.5313 22.9688 23.3438 23.4375 23.1563 23.8125C22.9688 24.1875 22.5938 24.375 22.4063 24.2812C21.4688 24.0938 19.8751 23.7188 19.6876 23.5313Z" fill="#E5895B"/>
<path d="M19.5938 23.5313C19.4063 23.3438 19.7813 22.7812 20.1563 22.3125C20.3438 22.0312 20.6251 21.9375 20.8126 21.9375L22.6876 22.3125C22.7813 22.3125 22.9688 22.4063 22.9688 22.5938C23.0626 22.9688 22.8751 23.4375 22.6876 23.8125C22.5001 24.1875 22.1251 24.375 21.9376 24.2812C20.9063 24.1875 19.7813 23.7188 19.5938 23.5313Z" fill="#FAD395"/>
<path d="M17.5311 25.688C17.2498 25.5005 17.8123 24.6567 18.1873 24.0005C18.3748 23.6255 18.7498 23.438 19.1248 23.5317L22.9686 24.3755C23.1561 24.3755 23.3436 24.563 23.3436 24.7505C23.4373 25.2192 23.1561 25.8755 22.9686 26.3442C22.6873 26.813 22.3123 27.0005 21.9373 27.0005C20.6248 26.813 17.8123 25.9692 17.5311 25.688Z" fill="#9A4C18"/>
<path d="M17.9063 25.5937C17.7188 25.4062 18.1876 24.6562 18.4688 24.1875C18.6563 23.9062 18.9376 23.7187 19.2188 23.8125L22.5001 24.5625C22.6876 24.5625 22.7813 24.75 22.8751 24.9375C22.9688 25.3125 22.7813 25.875 22.5001 26.3437C22.3126 26.7187 21.9376 27 21.5626 26.9062C20.6251 26.625 18.1876 25.875 17.9063 25.5937Z" fill="#E5895B"/>
<path d="M18.0939 25.5C17.9064 25.4063 18.2814 24.75 18.5627 24.2812C18.7502 24 18.9377 23.9062 19.2189 23.9062L21.8439 24.375C21.9377 24.375 22.1252 24.4687 22.1252 24.6562C22.2189 25.0312 22.0314 25.5 21.8439 25.7812C21.6564 26.1562 21.3752 26.3438 21.0939 26.25C20.1564 26.25 18.2814 25.6875 18.0939 25.5Z" fill="#FAD395"/>
<path d="M16.7811 27.6567C16.4998 27.4692 17.0623 26.6255 17.4373 25.9692C17.6248 25.5942 17.9998 25.4067 18.3748 25.5005L22.2186 26.3442C22.4061 26.3442 22.5936 26.5317 22.5936 26.7192C22.6873 27.188 22.4061 27.8442 22.2186 28.313C21.9373 28.7817 21.5623 28.9692 21.1873 28.9692C19.8748 28.7817 17.0623 27.938 16.7811 27.6567Z" fill="#9A4C18"/>
<path d="M17.1563 27.5625C16.9688 27.375 17.4376 26.625 17.7188 26.1562C17.9063 25.875 18.1876 25.6875 18.4688 25.7812L21.7501 26.5312C21.9376 26.5312 22.0313 26.7187 22.1251 26.9062C22.2188 27.2812 22.0313 27.8437 21.7501 28.3125C21.5626 28.6875 21.1876 28.9687 20.8126 28.875C19.8751 28.5937 17.4376 27.8437 17.1563 27.5625Z" fill="#E5895B"/>
<path d="M17.2502 27.4687C17.0627 27.375 17.4377 26.7187 17.7189 26.25C17.9064 25.9687 18.0939 25.875 18.3752 25.875L21.0002 26.3438C21.0939 26.3438 21.2814 26.4375 21.2814 26.625C21.3752 27 21.1877 27.4688 21.0002 27.75C20.8127 28.125 20.5314 28.3125 20.2502 28.2188C19.4064 28.2188 17.4377 27.6562 17.2502 27.4687Z" fill="#FAD395"/>
<path d="M17.5313 27.5625L17.1562 28.0312L18.75 29.0625L27.5625 20.25L26.1562 18.4688L17.5313 27.5625Z" fill="#9A4C18"/>
<path d="M27.7498 22.7809C27.4685 26.2497 24.1873 29.2497 20.6248 29.2497C17.0623 29.2497 14.8123 26.2497 15.4685 22.8747C16.1248 19.6872 19.1248 17.1559 22.406 17.1559C25.5935 17.0622 28.031 19.4997 27.7498 22.7809Z" fill="#9A4C18"/>
<path d="M28.6874 23.906C28.4062 27.1873 25.2187 29.9998 21.6562 29.9998C18.1874 29.9998 15.9374 27.1873 16.5937 23.906C17.2499 20.8123 20.2499 18.4685 23.3437 18.4685C26.5312 18.3748 28.8749 20.7185 28.6874 23.906Z" fill="#9A4C18"/>
<path d="M18.4688 27.75L19.9687 28.5937L27.1875 21L26.0625 19.4062L18.4688 27.75Z" fill="#F49937"/>
<path d="M27.9375 23.9064C27.6563 26.7189 25.0313 29.1564 22.125 29.1564C19.2188 29.1564 17.3438 26.7189 17.9063 24.0001C18.375 21.3751 20.9063 19.3126 23.625 19.2189C26.25 19.1251 28.2188 21.1876 27.9375 23.9064Z" fill="#F49937"/>
<path d="M26.9999 22.7813C26.7186 25.7813 23.9061 28.4063 20.7186 28.4063C17.6249 28.4063 15.5624 25.7813 16.2186 22.875C16.7811 20.0625 19.4061 17.8125 22.3124 17.8125C25.1249 17.7188 27.2811 19.875 26.9999 22.7813Z" fill="#FFEDC0"/>
<path d="M26.625 22.9689C26.3438 25.7814 23.7188 28.2189 20.8125 28.2189C17.9063 28.2189 16.0313 25.7814 16.5938 23.0626C17.0625 20.4376 19.5938 18.3751 22.3125 18.2814C24.8438 18.1876 26.8125 20.2501 26.625 22.9689Z" fill="#FFD766"/>
<path d="M25.4062 22.9688C25.2187 25.125 23.1562 27 20.9062 27C18.6562 27 17.1562 25.125 17.6249 22.9688C17.9999 20.9062 19.9687 19.2188 22.0312 19.2188C24.0937 19.2188 25.6874 20.9062 25.4062 22.9688Z" fill="#FFEDC0"/>
<path d="M25.4998 22.4062C25.3123 24.5625 23.2498 26.4375 20.9998 26.3438C18.7498 26.3438 17.3436 24.5625 17.7186 22.4062C18.0936 20.3437 20.0623 18.75 22.1248 18.75C24.1873 18.75 25.6873 20.3437 25.4998 22.4062Z" fill="#F49937"/>
<path d="M24.844 22.9687C24.6565 24.8437 22.8752 26.3438 21.0002 26.3438C19.1252 26.3438 17.9065 24.8437 18.1877 22.9687C18.469 21.1875 20.1565 19.7812 21.9377 19.7812C23.719 19.7812 25.0315 21.1875 24.844 22.9687Z" fill="#FFD766"/>
<path d="M22.5 19.5L22.9688 21.4688L25.125 22.0313L23.1563 23.4375L22.9688 25.6875L21.1875 24.375L18.8438 25.2188L19.875 23.0625L18.6562 21.2813H21L22.5 19.5Z" fill="#F49937"/>
</g>
<defs>
<clipPath id="clip0_1_10492">
<rect width="30" height="30" fill="white"/>
</clipPath>
</defs>
</svg>
