<svg width="25" height="25" viewBox="0 0 25 25" fill="none" xmlns="http://www.w3.org/2000/svg">
<path fill-rule="evenodd" clip-rule="evenodd" d="M9.98763 3.15602H12.5H15.0124V8.99367C13.9597 9.76946 12.9343 9.88587 12.0354 9.73544C11.2725 9.60775 10.5611 9.27746 9.98763 8.9009V3.15602ZM8.52165 10.8439C7.32186 11.6353 6.13643 11.9451 5.03472 11.9074V21.7013H7.46528V14.5833C7.46528 13.9121 8.00937 13.368 8.68055 13.368H16.3195C16.9906 13.368 17.5347 13.9121 17.5347 14.5833V21.7013H19.9653V11.9074C18.8828 11.9443 17.7196 11.646 16.5414 10.885C14.9242 12.1135 13.1986 12.3945 11.6343 12.1327C10.4293 11.931 9.35911 11.4166 8.52165 10.8439ZM15.1042 21.7013V15.7985H9.89583V21.7013H15.1042ZM0.980668 9.87263C1.34779 10.3293 1.89971 10.8313 2.60417 11.2229V22.9166C2.60417 23.5878 3.14826 24.1318 3.81945 24.1318H21.1805C21.8518 24.1318 22.3958 23.5878 22.3958 22.9166V11.2229C23.1003 10.8313 23.6522 10.3293 24.0194 9.87263C24.3175 9.50172 24.3717 8.99092 24.1581 8.56569L20.5557 1.39518C20.3495 0.984605 19.9293 0.725464 19.4698 0.725464H16.2277H12.5H8.77235H5.53023C5.07075 0.725464 4.65056 0.984605 4.44429 1.39518L0.841934 8.56569C0.628303 8.99092 0.682525 9.50172 0.980668 9.87263ZM7.55707 3.15602V8.5468C6.39286 9.45367 5.43117 9.56045 4.73111 9.43791C4.21524 9.34761 3.76404 9.11859 3.41443 8.85939L6.27971 3.15602H7.55707ZM17.4429 3.15602V8.5468C18.6072 9.45367 19.5689 9.56045 20.2689 9.43791C20.7848 9.34761 21.2359 9.11859 21.5856 8.85939L18.7203 3.15602H17.4429Z" fill="#0E0E0E"/>
</svg>
