<svg width="30" height="30" viewBox="0 0 30 30" fill="none" xmlns="http://www.w3.org/2000/svg">
<g clip-path="url(#clip0_1_12539)">
<path d="M22.5 1.40629L5.62495 2.43754C3.18745 2.62504 1.2187 5.25004 1.12495 8.25004C1.0312 11.25 2.9062 13.7813 5.24995 13.875L17.9062 14.25L21.4687 19.125L21.75 14.3438C24.8437 14.3438 27.6562 11.5313 27.8437 7.87504C28.3125 4.12504 25.7812 1.21879 22.5 1.40629Z" fill="#538C4D"/>
<path d="M4.125 14.7186L15.75 15.2811C17.9062 15.3749 19.5938 17.9999 19.4063 20.9999C19.2188 23.9999 17.3438 26.1562 15.1875 25.9687L6.9375 24.9374L3.75 27.9374V24.4687C2.0625 24.1874 0.84375 21.9374 0.84375 19.3124C0.84375 16.6874 2.34375 14.6249 4.125 14.7186Z" fill="#4D7D8E"/>
<path d="M22.5 4.14737e-05L5.62495 1.21879C3.18745 1.40629 1.2187 4.03129 1.12495 7.12504C1.0312 10.125 2.9062 12.6563 5.24995 12.6563L18 12.9375L21.5625 17.8125L21.8437 13.0313C24.9374 12.9375 27.75 10.125 28.0312 6.46879C28.3125 2.71879 25.7812 -0.187459 22.5 4.14737e-05Z" fill="#538C4D"/>
<path d="M4.03125 13.5L15.6563 13.9688C17.8125 14.0625 19.5 16.5938 19.3125 19.6875C19.125 22.6875 17.25 24.9375 15.0938 24.6562L6.84375 23.7188L3.75 26.7188L3.65625 23.3438C1.96875 23.0625 0.75 20.8125 0.75 18.2813C0.84375 15.5625 2.25 13.5 4.03125 13.5Z" fill="#4D7D8E"/>
<path d="M21.6564 0.937433L6.18762 2.15618C3.93762 2.34368 2.06262 4.59368 1.96887 7.12493C1.87512 9.65618 3.65637 11.7187 5.81262 11.7187H17.5314L20.8126 15.7499L21.0939 11.7187C23.9064 11.6249 26.4376 9.18743 26.6251 6.18743C27.0001 2.99993 24.6564 0.656183 21.6564 0.937433Z" fill="#ACE8B9"/>
<path d="M4.68768 14.4375L15.4689 14.9063C17.4377 15 19.0314 17.0625 18.8439 19.5C18.7502 21.9375 16.9689 23.625 15.0002 23.4375L7.50018 22.6875L4.59393 25.125L4.50018 22.4063C2.90643 22.2188 1.68768 20.3438 1.78143 18.2813C1.68768 16.125 3.09393 14.4375 4.68768 14.4375Z" fill="#ACD9EA"/>
<path d="M20.9063 1.8749L6.75003 2.9999C4.59378 3.1874 2.90628 5.15615 2.90628 7.21865C2.81253 9.3749 4.40628 11.0624 6.46878 10.9686L17.25 10.6874L20.25 13.9686L20.4375 10.5936C22.9688 10.4999 25.2188 8.4374 25.4063 5.90615C25.6875 3.46865 23.625 1.59365 20.9063 1.8749Z" fill="#DFF2E1"/>
<path d="M5.43759 15.375L15.3751 15.4688C17.1563 15.4688 18.6563 16.9688 18.5626 18.6562C18.4688 20.3438 16.8751 21.6563 15.0938 21.5625L8.06259 21.1875L5.15634 23.625L5.25009 21C3.75009 20.9062 2.62509 19.5937 2.71884 18.0937C2.62509 16.6875 3.84384 15.375 5.43759 15.375Z" fill="#DFEEF4"/>
<path d="M4.40625 16.7812L4.3125 17.8125L8.34375 18L8.4375 16.7812H4.40625ZM4.21875 18.9375L4.03125 20.0625L8.0625 20.25L8.15625 19.0312L4.21875 18.9375Z" fill="#4D7D8E"/>
<path d="M5.4375 4.875L5.34375 6L22.2188 5.0625L22.3125 3.65625L5.4375 4.875ZM5.25 7.21875L5.15625 8.34375L14.9062 7.96875L15 6.65625L5.25 7.21875Z" fill="#538C4D"/>
<path d="M26.3438 23.5313L28.5 24.0938L28.3125 23.4375L26.3438 22.5V23.5313Z" fill="#B29A34"/>
<path d="M23.8126 21.8438C25.0314 22.2188 26.1564 23.25 26.5314 24.6563C26.9064 26.0625 26.3439 27.8438 25.3126 28.5938C24.5626 29.1563 23.7189 29.25 22.8751 29.25C20.8126 29.25 18.8439 28.5938 16.7814 27.8438C16.1251 27.6563 15.3751 27.375 14.8126 26.9063C14.2501 26.4375 13.6876 25.7813 13.5939 25.0313C13.5001 23.9063 14.1564 22.7813 15.0001 22.2188C16.5001 21.2813 18.0001 20.9062 19.5939 20.9062C20.9064 21 22.5001 21.4688 23.8126 21.8438Z" fill="#4C875A"/>
<path d="M24.0939 20.4375C25.3126 20.9062 26.5314 22.2188 26.9064 24C27.2814 25.875 26.7189 28.0313 25.5939 29.1563C24.8439 29.8125 23.9064 30 22.9689 30C20.8126 30 18.6564 29.1563 16.5001 28.2188C15.7501 27.9375 15.0939 27.6562 14.4376 27.0938C13.7814 26.5312 13.3126 25.6875 13.2189 24.6562C13.0314 23.25 13.7814 21.8437 14.7189 21.0937C16.3126 19.875 17.9064 19.3125 19.5939 19.3125C21.0001 19.3125 22.6876 19.875 24.0939 20.4375Z" fill="#4C875A"/>
<path d="M26.5617 17.2921C26.575 13.616 23.6057 10.6251 19.9296 10.6118C16.2534 10.5984 13.2625 13.5678 13.2492 17.2439C13.2359 20.92 16.2052 23.9109 19.8813 23.9243C23.5575 23.9376 26.5484 20.9683 26.5617 17.2921Z" fill="#7F5C4E"/>
<path d="M23.5312 21C24.6562 21.375 25.6874 22.4063 26.0624 23.8125C26.4374 25.2188 25.8749 27 24.9374 27.75C24.2812 28.3125 23.4374 28.4062 22.5937 28.4062C20.7187 28.4062 18.7499 27.75 16.8749 27C16.2187 26.8125 15.5624 26.5312 14.9999 26.0625C14.4374 25.5938 13.9687 24.9375 13.8749 24.1875C13.7812 23.0625 14.3437 21.9375 15.1874 21.375C16.5937 20.4375 17.9999 20.0625 19.4999 20.0625C20.8124 20.1563 22.4062 20.625 23.5312 21Z" fill="#6BBF7F"/>
<path d="M22.7815 21.7499C23.6252 22.0312 24.469 22.8749 24.7502 23.9062C25.0315 25.0312 24.6565 26.3437 23.8127 26.9999C23.2502 27.3749 22.594 27.5624 22.0315 27.5624C20.5315 27.5624 19.0315 26.9999 17.5315 26.5312C17.0627 26.3437 16.5002 26.1562 16.1252 25.7812C15.6565 25.4062 15.2815 24.9374 15.2815 24.2812C15.1877 23.4374 15.6565 22.5937 16.3127 22.1249C17.4377 21.3749 18.5627 21.0937 19.6877 21.0937C20.6252 20.9999 21.844 21.3749 22.7815 21.7499Z" fill="#7ED693"/>
<path d="M23.25 21.8437C23.25 21.8437 21.6563 25.125 18.75 25.5C15.8438 25.875 15.8438 21.2812 15.8438 21.2812C15.8438 21.2812 19.9687 23.8125 23.25 21.8437Z" fill="#E8CCAA"/>
<path d="M25.8119 17.2894C25.8237 14.0275 23.189 11.3736 19.9271 11.3617C16.6651 11.3499 14.0112 13.9846 13.9994 17.2466C13.9876 20.5085 16.6223 23.1624 19.8843 23.1742C23.1462 23.1861 25.8001 20.5513 25.8119 17.2894Z" fill="#A67A65"/>
<path opacity="0.48" d="M24.8438 18.9375C24.8438 18.9375 22.875 23.1563 19.2187 23.625C15.5625 24.0938 15.5625 18.2812 15.5625 18.2812C15.5625 18.2812 20.8125 21.4688 24.8438 18.9375Z" fill="#A67A65"/>
<path d="M25.5007 16.8727C25.5121 13.7144 22.9611 11.1447 19.8027 11.1333C16.6443 11.1218 14.0746 13.6729 14.0632 16.8313C14.0518 19.9897 16.6029 22.5593 19.7612 22.5708C22.9196 22.5822 25.4893 20.0311 25.5007 16.8727Z" fill="#E5A98C"/>
<path d="M25.5059 16.6503C25.517 13.5955 23.1334 11.1104 20.1822 11.0997C17.2309 11.089 14.8295 13.5567 14.8184 16.6116C14.8073 19.6664 17.1908 22.1515 20.1421 22.1622C23.0934 22.1729 25.4948 19.7051 25.5059 16.6503Z" fill="#E8CCAA"/>
<path d="M22.6171 17.4282C22.6252 15.2018 20.8689 13.3906 18.6943 13.3827C16.5196 13.3748 14.7502 15.1733 14.7421 17.3997C14.7341 19.6261 16.4904 21.4373 18.665 21.4452C20.8397 21.4531 22.6091 19.6546 22.6171 17.4282Z" fill="#FAEACF"/>
<path d="M15.8972 16.6757C15.8975 16.5722 15.8559 16.4881 15.8041 16.4879C15.7523 16.4877 15.71 16.5715 15.7097 16.675C15.7093 16.7786 15.751 16.8627 15.8027 16.8629C15.8545 16.8631 15.8968 16.7793 15.8972 16.6757Z" fill="white"/>
<path d="M19.1251 12.0937C19.1251 12.0937 24.0938 12.5624 24.5626 16.1249C25.0313 19.6874 25.4063 22.8749 28.4063 23.6249C28.4063 23.6249 27.0938 22.4062 27.6563 21.2812C28.2188 20.1562 31.4063 10.3124 24.7501 8.62492C18.0938 6.93742 19.1251 12.0937 19.1251 12.0937Z" fill="#B29A34"/>
<path d="M19.5002 12.5625C19.5002 12.5625 23.0627 13.5937 23.5314 16.875C24.0002 20.1562 24.2814 22.9687 27.0002 23.625C27.0002 23.625 25.8752 22.5 26.3439 21.5625C26.8127 20.625 29.7189 11.625 23.7189 10.0312C17.7189 8.43745 19.5002 12.5625 19.5002 12.5625Z" fill="#B29A34"/>
<path d="M19.1251 12.3751C19.1251 12.3751 23.7189 13.3126 24.0939 16.5938C24.4689 19.8751 24.8439 22.6876 27.5626 23.3438C27.5626 23.3438 26.4376 22.2188 26.9064 21.2813C27.3751 20.3438 30.2814 11.3438 24.2814 9.75008C18.2814 8.15633 19.1251 12.3751 19.1251 12.3751Z" fill="#E8E26B"/>
<path d="M20.5314 11.9063C20.5314 11.9063 15.5627 10.5938 14.3439 12.8438C13.1252 15.0938 12.7502 15.2813 12.9377 18.2813C12.9377 18.2813 11.8127 15.3751 11.9064 13.9688C12.0002 12.5626 13.5002 7.96885 16.9689 7.8751C20.4377 7.78135 21.8439 9.46885 21.6564 9.9376C21.4689 10.5001 20.5314 11.9063 20.5314 11.9063Z" fill="#B29A34"/>
<path d="M21.2814 12.7501C21.2814 12.7501 16.3127 11.4376 15.0939 13.6876C13.8752 15.9376 13.5002 16.1251 13.6877 19.1251C13.6877 19.1251 12.5627 16.2188 12.6564 14.8126C12.7502 13.4063 14.2502 8.8126 17.7189 8.71885C21.1877 8.6251 22.5939 10.3126 22.4064 10.7813C22.2189 11.3438 21.2814 12.7501 21.2814 12.7501Z" fill="#E8E26B"/>
<path d="M21.9376 11.0626C21.9376 11.0626 26.1563 10.8751 26.5313 13.8751C26.9063 16.8751 26.2501 19.1251 26.2501 19.1251C26.2501 19.1251 26.4376 15.9376 25.5938 14.9064C24.7501 13.8751 22.7813 13.1251 22.1251 12.4689C21.4688 11.9064 21.9376 11.0626 21.9376 11.0626Z" fill="#F7F1A9"/>
<path d="M12.6563 16.0312L13.9688 19.125L13.875 20.1562C13.875 20.1562 12.5625 17.8125 12.5625 17.3437C12.5625 16.9687 12.6563 16.0312 12.6563 16.0312Z" fill="#B29A34"/>
</g>
<defs>
<clipPath id="clip0_1_12539">
<rect width="30" height="30" fill="white"/>
</clipPath>
</defs>
</svg>
