<svg width="64" height="64" viewBox="0 0 64 64" fill="none" xmlns="http://www.w3.org/2000/svg">
<path d="M22.2609 25.0434H23.6522C25.189 25.0434 26.4348 23.7976 26.4348 22.2608C26.4348 21.4924 27.0577 20.8695 27.8261 20.8695H36.1739C36.9423 20.8695 37.5652 21.4924 37.5652 22.2608C37.5652 23.7976 38.811 25.0434 40.3478 25.0434H41.7391C43.2759 25.0434 44.5217 26.2892 44.5217 27.826V40.3478C44.5217 41.8845 43.2759 43.1304 41.7391 43.1304H22.2609C20.7241 43.1304 19.4783 41.8845 19.4783 40.3478V27.826C19.4783 26.2892 20.7241 25.0434 22.2609 25.0434Z" stroke="#213A52" stroke-width="2.22609" stroke-linecap="round" stroke-linejoin="round"/>
<path d="M32 37.5652C34.3052 37.5652 36.1739 35.6965 36.1739 33.3913C36.1739 31.0861 34.3052 29.2174 32 29.2174C29.6948 29.2174 27.8261 31.0861 27.8261 33.3913C27.8261 35.6965 29.6948 37.5652 32 37.5652Z" stroke="#213A52" stroke-width="2.22609" stroke-linecap="round" stroke-linejoin="round"/>
</svg>
