<svg width="30" height="30" viewBox="0 0 30 30" fill="none" xmlns="http://www.w3.org/2000/svg">
<g clip-path="url(#clip0_1_17371)">
<path d="M5.625 22.6875H5.34375C2.53125 22.6875 0.28125 20.4375 0.28125 17.625V14.3438C0.28125 11.5313 2.53125 9.28125 5.34375 9.28125H16.6875C19.5 9.28125 21.75 11.5313 21.75 14.3438V17.625C21.75 20.4375 19.5 22.6875 16.6875 22.6875H10.2187L10.125 26.625L5.625 22.6875Z" fill="#336649"/>
<path d="M16.6875 9.5625C19.3125 9.5625 21.375 11.7187 21.375 14.25V17.5313C21.375 20.1563 19.2188 22.2188 16.6875 22.2188H9.9375L9.84375 25.7812L5.8125 22.2188H5.34375C2.71875 22.2188 0.65625 20.0625 0.65625 17.5313V14.25C0.65625 11.625 2.8125 9.5625 5.34375 9.5625H16.6875ZM16.6875 8.90625H5.34375C2.4375 8.90625 0 11.3438 0 14.3438V17.625C0 20.5312 2.4375 22.9688 5.34375 22.9688H5.53125L9.375 26.4375L10.4062 27.2812V25.9688L10.5 22.9688H16.6875C19.5938 22.9688 22.0312 20.5312 22.0312 17.625V14.3438C22.0312 11.3438 19.6875 8.90625 16.6875 8.90625Z" fill="#336649"/>
<path d="M10.4063 11.3438C8.4375 11.3438 6.84375 9.75 6.84375 7.78125V5.4375C6.84375 3.46875 8.4375 1.875 10.4063 1.875H18.2812C20.25 1.875 21.8437 3.46875 21.8437 5.4375V7.78125C21.8437 9.75 20.25 11.3438 18.2812 11.3438H12.8437L10.3125 13.7812L10.4063 11.3438Z" fill="#59AA7F"/>
<path d="M18.375 2.15625C20.1562 2.15625 21.6562 3.65625 21.6562 5.4375V7.78125C21.6562 9.5625 20.1562 11.0625 18.375 11.0625H12.8438L10.7812 13.0313V11.0625H10.5C8.71875 11.0625 7.21875 9.5625 7.21875 7.78125V5.4375C7.21875 3.65625 8.71875 2.15625 10.5 2.15625H18.375ZM18.375 1.59375H10.5C8.34375 1.59375 6.5625 3.375 6.5625 5.53125V7.875C6.5625 9.9375 8.15625 11.625 10.125 11.8125V14.625L11.1562 13.5938L13.0312 11.8125H18.2812C20.4375 11.8125 22.2188 10.0312 22.2188 7.875V5.4375C22.2188 3.28125 20.5312 1.59375 18.375 1.59375Z" fill="#336649"/>
<path d="M5.625 21.1875H5.34375C2.53125 21.1875 0.28125 18.9375 0.28125 16.125V12.8437C0.28125 10.0312 2.53125 7.78125 5.34375 7.78125H16.6875C19.5 7.78125 21.75 10.0312 21.75 12.8437V16.125C21.75 18.9375 19.5 21.1875 16.6875 21.1875H10.2187L10.125 25.3125L5.625 21.1875Z" fill="#59AA7F"/>
<path d="M16.6875 8.15625C19.3125 8.15625 21.375 10.3125 21.375 12.8438V16.125C21.375 18.75 19.2188 20.8125 16.6875 20.8125H9.9375L9.84375 24.5625L5.8125 20.8125H5.34375C2.71875 20.8125 0.65625 18.6563 0.65625 16.125V12.8438C0.65625 10.2188 2.8125 8.15625 5.34375 8.15625H16.6875ZM16.6875 7.5H5.34375C2.4375 7.5 0 9.9375 0 12.8438V16.125C0 19.125 2.4375 21.5625 5.34375 21.5625H5.53125L9.375 25.125L10.4062 26.0625V24.6562L10.5 21.4688H16.6875C19.5938 21.4688 22.0312 19.0313 22.0312 16.125V12.8438C22.0312 9.9375 19.6875 7.5 16.6875 7.5Z" fill="#336649"/>
<path d="M15.6563 8.71875H5.8125C3.5625 8.71875 1.6875 10.5938 1.6875 12.9375V15.9375C1.6875 18.2812 3.5625 20.1562 5.8125 20.1562H15.6563C17.9063 20.1562 19.7813 18.2812 19.7813 15.9375V12.9375C19.7813 10.5938 18 8.71875 15.6563 8.71875Z" fill="#75D1A3"/>
<path d="M26.0624 18.9373C27.4686 19.4061 28.8749 20.6248 29.3436 22.3123C29.8124 24.0936 29.1561 26.1561 27.8436 27.0936C26.9999 27.7498 25.8749 27.9373 24.8436 27.9373C22.4061 27.9373 19.8749 27.0936 17.4374 26.2498C16.5936 25.9686 15.7499 25.6873 15.0936 25.1248C14.3436 24.5623 13.7811 23.8123 13.6874 22.7811C13.4999 21.4686 14.3436 20.0623 15.3749 19.4061C17.1561 18.2811 19.0311 17.7186 20.9999 17.8123C22.4999 17.9061 24.4686 18.4686 26.0624 18.9373Z" fill="#29677C"/>
<path d="M26.4373 17.25C27.9373 17.9063 29.4373 19.4063 29.906 21.5625C30.3748 23.8125 29.7185 26.5313 28.3123 27.75C27.3748 28.5938 26.2498 28.7813 25.1248 28.7813C22.4998 28.7813 19.8748 27.75 17.3435 26.625C16.4998 26.25 15.5623 25.875 14.8123 25.2188C14.0623 24.5625 13.406 23.4375 13.3123 22.2188C13.1248 20.4375 13.9685 18.75 15.0935 17.9063C16.9685 16.4063 18.9373 15.75 20.9998 15.75C22.6873 15.8438 24.7498 16.5938 26.4373 17.25Z" fill="#29677C"/>
<path d="M29.3637 13.4095C29.3798 8.95671 25.7832 5.33393 21.3304 5.31779C16.8776 5.30166 13.2548 8.89828 13.2387 13.3511C13.2226 17.8039 16.8192 21.4267 21.272 21.4428C25.7248 21.4589 29.3476 17.8623 29.3637 13.4095Z" fill="#7F5C4E"/>
<path d="M25.7812 17.9061C27.1875 18.3748 28.4062 19.5936 28.875 21.2811C29.3437 23.0623 28.6875 25.1248 27.4687 26.0623C26.625 26.7186 25.6875 26.9061 24.6562 26.9061C22.3125 26.9061 19.9687 26.0623 17.7187 25.2186C16.9687 24.9373 16.125 24.6561 15.4687 24.0936C14.8125 23.5311 14.25 22.7811 14.0625 21.7498C13.875 20.4373 14.7187 19.0311 15.6562 18.3748C17.3437 17.2498 19.125 16.6873 20.9062 16.7811C22.4062 16.7811 24.375 17.4373 25.7812 17.9061Z" fill="#438BAA"/>
<path d="M24.8437 18.75C25.875 19.125 26.9062 20.0625 27.2812 21.375C27.6562 22.7812 27.1875 24.375 26.1562 25.125C25.5 25.5937 24.75 25.7812 24 25.7812C22.2187 25.7812 20.3437 25.125 18.5625 24.4688C18 24.2812 17.3437 24 16.7812 23.625C16.2187 23.25 15.8437 22.5937 15.75 21.8437C15.6562 20.8125 16.2187 19.7812 16.9687 19.2187C18.2812 18.2812 19.6875 17.9062 21.0937 17.9062C22.2187 17.9062 23.7187 18.375 24.8437 18.75Z" fill="#7BB9DB"/>
<path d="M15.9375 18.2812C15.9375 18.2812 17.0625 21.1875 18.4688 21.4687C19.875 21.75 22.3125 22.2188 25.4062 19.2188L15.9375 18.2812Z" fill="#29677C"/>
<path d="M28.5198 13.4063C28.5343 9.41951 25.314 6.17586 21.3272 6.16141C17.3404 6.14696 14.0968 9.3672 14.0823 13.354C14.0679 17.3408 17.2881 20.5845 21.2749 20.5989C25.2617 20.6134 28.5054 17.3931 28.5198 13.4063Z" fill="#A67A65"/>
<path d="M28.19 12.8794C28.2041 8.99613 25.1095 5.83687 21.278 5.82299C17.4465 5.80911 14.3291 8.94585 14.315 12.8291C14.301 16.7124 17.3956 19.8716 21.2271 19.8855C25.0585 19.8994 28.176 16.7626 28.19 12.8794Z" fill="#E5A98C"/>
<path d="M28.1094 12.6899C28.1229 8.96202 25.2377 5.92945 21.6651 5.9165C18.0925 5.90356 15.1854 8.91514 15.1719 12.6431C15.1584 16.371 18.0436 19.4036 21.6162 19.4165C25.1888 19.4295 28.0959 16.4179 28.1094 12.6899Z" fill="#E8CCAA"/>
<path d="M24.5504 13.5928C24.5601 10.9004 22.4274 8.71 19.7868 8.70043C17.1462 8.69086 14.9976 10.8657 14.9879 13.5581C14.9781 16.2505 17.1109 18.4409 19.7515 18.4504C22.3921 18.46 24.5406 16.2851 24.5504 13.5928Z" fill="#FAEACF"/>
<path d="M16.527 12.6322C16.5274 12.5287 16.4438 12.4444 16.3402 12.444C16.2367 12.4437 16.1524 12.5273 16.152 12.6309C16.1517 12.7344 16.2353 12.8187 16.3389 12.819C16.4424 12.8194 16.5267 12.7358 16.527 12.6322Z" fill="white"/>
<path d="M9.09375 19.5V22.2188L6.09375 19.4062L9 19.5H9.09375Z" fill="#75D1A3"/>
<path d="M3.9375 10.5938H12.0938V12H3.9375V10.5938Z" fill="#59AA7F"/>
<path d="M8.90625 4.3125H17.3438V5.71875H8.90625V4.3125Z" fill="#75D1A3"/>
<path d="M3.9375 13.4062H12.0938V14.8125H3.9375V13.4062Z" fill="#59AA7F"/>
<path d="M3.9375 16.3125H12.0938V17.7188H3.9375V16.3125Z" fill="#59AA7F"/>
</g>
<defs>
<clipPath id="clip0_1_17371">
<rect width="30" height="30" fill="white"/>
</clipPath>
</defs>
</svg>
