<svg width="30" height="30" viewBox="0 0 30 30" fill="none" xmlns="http://www.w3.org/2000/svg">
<g clip-path="url(#clip0_1_8038)">
<path d="M20.3436 1.3125L29.5311 8.34375C30.0936 8.71875 30.1873 9.46875 29.7186 10.0312L16.7811 28.2188C16.5936 28.5 16.2186 28.6875 15.9373 28.6875L11.5311 29.0625C11.2498 29.0625 10.9686 28.9687 10.6873 28.875L0.468587 20.25C-0.0939126 19.875 -0.187663 19.0312 0.281087 18.5625L13.9686 1.5C14.1561 1.21875 14.5311 1.03125 14.9061 1.03125H19.5936C19.8748 1.125 20.1561 1.125 20.3436 1.3125Z" fill="#3A3259"/>
<path d="M14.9062 1.78125L19.4063 2.15625C19.6875 2.15625 19.9688 2.25 20.25 2.4375L29.25 9.28125L25.0313 10.4063L14.9062 1.78125Z" fill="#B4B2C1"/>
<path d="M11.9062 27.1875L16.0313 26.9062L29.1563 9.375H25.5L11.9062 27.1875Z" fill="#93909E"/>
<path d="M3.5625 21.4688L17.5313 3.46875L14.9063 1.78125L0.84375 19.5L3.5625 21.4688Z" fill="#645F75"/>
<path d="M4.875 22.4062L18.8438 4.40625L15.8438 2.4375L2.34375 20.5312L4.875 22.4062Z" fill="#645F75"/>
<path d="M12.4688 26.9062L25.5 9.65625C25.7812 9.28125 25.6875 8.71875 25.2188 8.4375L17.9062 3.75L3.9375 21.75L11.0625 27.0938C11.5312 27.4688 12.0938 27.375 12.4688 26.9062Z" fill="#645F75"/>
<path d="M14.625 8.34375L16.9687 5.34375C18 5.4375 19.125 5.8125 20.25 6.5625C21.5625 7.40625 22.4062 8.53125 22.7812 9.5625L20.625 12.375L14.625 8.34375ZM5.25 20.3438L7.6875 17.25L13.5937 21.4688L11.3438 24.375C10.125 24.4688 8.71875 24 7.5 22.9688C6.375 22.2188 5.625 21.2812 5.25 20.3438Z" fill="#9991B8"/>
<path d="M14.0625 9.18745L14.8125 8.1562C15.9375 6.74995 18.0938 6.4687 19.6875 7.49995C21.2812 8.5312 21.75 10.5937 20.625 11.9999L19.875 13.0312L14.0625 9.18745Z" fill="#292526"/>
<path d="M15.8437 9.46878C16.4062 8.71878 17.5313 8.62503 18.2813 9.18753C19.125 9.75003 19.3125 10.7813 18.75 11.5313L18.2813 12.1875L15.375 10.2188L15.8437 9.46878Z" fill="white"/>
<path d="M8.53104 17.1562L7.87479 18C6.93729 19.2188 7.21854 21 8.53104 22.0313C9.84354 22.9688 11.7185 22.7813 12.7498 21.5625L13.406 20.625L8.53104 17.1562Z" fill="#292526"/>
<path d="M8.99991 18.75C8.43741 19.4063 8.62491 20.3438 9.37491 20.9062C10.1249 21.4688 11.0624 21.2813 11.6249 20.625L12.0937 19.9688L9.46866 18.0938L8.99991 18.75Z" fill="white"/>
<path d="M13.6875 22.0312L20.9062 12.4688L14.4375 8.0625L7.125 17.3438L13.6875 22.0312Z" fill="#645F75"/>
<path d="M9.56255 17.4374C9.00005 16.9687 8.81255 16.2187 9.2813 15.6562L13.5938 10.1249C13.9688 9.5624 14.8125 9.46865 15.4688 9.84365L15.9375 10.1249L10.0313 17.8124L9.56255 17.4374Z" fill="#F1493C"/>
<path d="M15.8438 10.2188L18.0938 11.8125C18.6562 12.1875 18.8438 13.0313 18.4688 13.5938L14.1563 19.2188C13.6875 19.7812 12.8438 19.875 12.2813 19.4063L10.0312 17.8125L15.8438 10.2188Z" fill="white"/>
</g>
<defs>
<clipPath id="clip0_1_8038">
<rect width="30" height="30" fill="white"/>
</clipPath>
</defs>
</svg>
