<svg width="63" height="90" viewBox="0 0 63 90" fill="none" xmlns="http://www.w3.org/2000/svg">
<g clip-path="url(#clip0_1_1302)">
<path fill-rule="evenodd" clip-rule="evenodd" d="M62.3554 9.44688C62.3554 14.4139 58.3393 18.4298 53.372 18.4298H16.72C9.70249 18.4298 3.53041 22.0653 0.000489374 27.5818V10.5037C0.000489374 4.96598 4.50273 0.463926 10.0407 0.463926H10.5057L10.5903 0.485063L10.6537 0.463926H53.372C58.3393 0.463926 62.3554 4.47983 62.3554 9.44688Z" fill="white"/>
<path fill-rule="evenodd" clip-rule="evenodd" d="M53.9001 45.4418C53.9001 50.3877 49.884 54.3824 44.9589 54.3824H20.0804V54.4035H10.019C6.00295 54.4035 2.40965 56.2001 0 59.0324V37.9805C0.190236 28.9131 7.60943 21.6 16.7196 21.6H20.0804V36.501H44.9589C49.884 36.501 53.9001 40.4958 53.9001 45.4418Z" fill="#7AA668"/>
<path fill-rule="evenodd" clip-rule="evenodd" d="M20.0804 57.5748V79.1973C20.0804 84.7351 15.5782 89.237 10.0402 89.237C4.50224 89.237 0 84.7351 0 79.1973V67.5935C0 66.8749 0.0845181 66.1563 0.232479 65.4799C1.18366 60.9566 5.19975 57.5748 10.019 57.5748H20.0804Z" fill="#0D7DC2"/>
</g>
<defs>
<clipPath id="clip0_1_1302">
<rect width="62.8594" height="88.5746" fill="white" transform="translate(0 0.463926) scale(1.00224)"/>
</clipPath>
</defs>
</svg>
