<svg width="30" height="30" viewBox="0 0 30 30" fill="none" xmlns="http://www.w3.org/2000/svg">
<g clip-path="url(#clip0_1_12966)">
<path d="M24 4.21875C24 4.21875 27.1875 18.5625 24.0938 20.8125C21 23.0625 18.1875 24.75 18.1875 24.75L14.9062 23.0625L14.5312 17.25L24 4.21875Z" fill="#422F28"/>
<path d="M20.3438 8.625C22.829 8.625 24.8438 6.69423 24.8438 4.3125C24.8438 1.93077 22.829 0 20.3438 0C17.8585 0 15.8438 1.93077 15.8438 4.3125C15.8438 6.69423 17.8585 8.625 20.3438 8.625Z" fill="#422F28"/>
<path d="M18.75 10.125C21.2353 10.125 23.25 8.19423 23.25 5.8125C23.25 3.43077 21.2353 1.5 18.75 1.5C16.2647 1.5 14.25 3.43077 14.25 5.8125C14.25 8.19423 16.2647 10.125 18.75 10.125Z" fill="#893E27"/>
<path d="M19.7814 18.5625C21.6564 19.2188 23.3439 20.7188 23.9064 22.875C24.4689 25.125 23.7189 27.75 21.9376 29.0625C20.8126 29.9063 19.5001 30.0937 18.0939 30.0937C14.9064 30.0937 11.8126 29.0625 8.62511 27.9375C7.59386 27.5625 6.46886 27.1875 5.62511 26.5312C4.68761 25.875 3.93761 24.8438 3.75011 23.5313C3.56261 21.8438 4.59386 20.0625 5.90636 19.2188C8.25011 17.7188 10.5939 17.1562 13.0314 17.1562C15.2814 17.1562 17.8126 17.9062 19.7814 18.5625Z" fill="#A53829"/>
<path d="M20.0626 17.4375C21.9376 18.0938 23.6251 19.5938 24.1876 21.75C24.7501 24 24.0001 26.625 22.2189 27.9375C21.0939 28.7813 19.7814 28.9687 18.3751 28.9687C15.1876 28.9687 12.0939 27.9375 8.90636 26.8125C7.87511 26.4375 6.75011 26.0625 5.90636 25.4062C4.96886 24.75 4.21886 23.7188 4.03136 22.4063C3.84386 20.7188 4.87511 18.9375 6.18761 18.0938C8.53136 16.5938 10.8751 16.0312 13.3126 16.0312C15.5626 16.0312 18.0939 16.7812 20.0626 17.4375Z" fill="#D3624F"/>
<path d="M19.6875 16.125C21.4687 16.7813 23.0625 18.2812 23.625 20.4375C24.1875 22.6875 23.4375 25.3125 21.8437 26.625C20.8125 27.4688 19.5 27.6562 18.2812 27.6562C15.2812 27.6562 12.375 26.625 9.37497 25.5C8.34372 25.125 7.40622 24.75 6.46872 24.0938C5.62497 23.4375 4.87496 22.4062 4.68746 21.0938C4.49996 19.4062 5.43746 17.625 6.74996 16.7812C8.90621 15.2812 11.1562 14.7188 13.5 14.7188C15.4687 14.7188 17.8125 15.4688 19.6875 16.125Z" fill="#E5A98C"/>
<path d="M21.0708 23.686C21.6938 21.7653 21.1208 19.8586 19.7911 19.4273C18.4613 18.996 16.8783 20.2035 16.2554 22.1242C15.6324 24.045 16.2054 25.9517 17.5352 26.3829C18.8649 26.8142 20.4479 25.6068 21.0708 23.686Z" fill="#F7BFA9"/>
<path d="M23.1519 10.3239C23.1703 5.24979 19.0718 1.1215 13.9977 1.10312C8.92362 1.08473 4.79533 5.18321 4.77694 10.2573C4.75856 15.3314 8.85704 19.4597 13.9312 19.4781C19.0053 19.4965 23.1336 15.398 23.1519 10.3239Z" fill="#A67A65"/>
<path d="M22.7505 9.62558C22.7684 4.70679 18.7953 0.70488 13.8766 0.687057C8.95777 0.669234 4.95586 4.64225 4.93803 9.56104C4.92021 14.4798 8.89323 18.4817 13.812 18.4996C18.7308 18.5174 22.7327 14.5444 22.7505 9.62558Z" fill="#E5A98C"/>
<path d="M22.7355 9.39347C22.7526 4.6818 19.0308 0.848689 14.4227 0.831991C9.81454 0.815294 6.06508 4.62133 6.048 9.33301C6.03093 14.0447 9.75271 17.8778 14.3608 17.8945C18.969 17.9112 22.7184 14.1052 22.7355 9.39347Z" fill="#E5A98C"/>
<path d="M18.1448 10.5222C18.1574 7.05315 15.4393 4.23105 12.0738 4.21886C8.70836 4.20666 5.9699 7.00899 5.95733 10.478C5.94476 13.9471 8.66284 16.7692 12.0283 16.7814C15.3938 16.7936 18.1323 13.9912 18.1448 10.5222Z" fill="#F7BFA9"/>
<path d="M15.0044 11.1668C15.0062 10.649 14.63 10.2279 14.164 10.2262C13.698 10.2245 13.3187 10.6429 13.3169 11.1606C13.315 11.6784 13.6912 12.0995 14.1572 12.1012C14.6232 12.1029 15.0025 11.6845 15.0044 11.1668Z" fill="#425763"/>
<path d="M14.4444 10.8549C14.4449 10.6995 14.3615 10.5733 14.2579 10.5729C14.1543 10.5726 14.0699 10.6982 14.0694 10.8535C14.0688 11.0088 14.1523 11.1351 14.2559 11.1354C14.3594 11.1358 14.4438 11.0102 14.4444 10.8549Z" fill="white"/>
<path d="M8.37156 9.79957C8.37344 9.2818 7.9972 8.8607 7.53121 8.85901C7.06522 8.85733 6.68594 9.27569 6.68406 9.79346C6.68218 10.3112 7.05842 10.7323 7.52441 10.734C7.9904 10.7357 8.36969 10.3173 8.37156 9.79957Z" fill="#425763"/>
<path d="M7.81205 9.39394C7.81262 9.23861 7.72913 9.11238 7.62557 9.11201C7.52202 9.11163 7.43762 9.23725 7.43705 9.39258C7.43649 9.54791 7.51998 9.67413 7.62353 9.67451C7.72709 9.67488 7.81149 9.54927 7.81205 9.39394Z" fill="white"/>
<path d="M12.2813 15.375C12.2813 15.375 11.4375 15.2812 10.875 14.8125C10.3125 14.3437 9.75 14.4375 9.5625 14.4375C9.46875 14.4375 9.28125 14.25 9.09375 14.1562C8.90625 14.0625 8.625 14.0625 8.625 14.1562C8.625 14.25 8.90625 14.7187 8.90625 14.7187C8.90625 14.7187 9 15.0937 8.90625 15.2812C8.8125 15.4687 8.90625 16.125 9.5625 16.2187C10.2188 16.4062 10.6875 16.3125 10.9688 16.125C11.1562 16.0313 12.2813 15.375 12.2813 15.375Z" fill="#A67A65"/>
<path d="M8.4375 3.93757C8.4375 3.93757 8.625 6.65632 12.1875 6.93757C15.8438 7.21882 22.2188 8.81257 22.875 10.8751C22.875 10.8751 24.375 6.00007 19.9687 2.71882C15.5625 -0.562434 9 -0.374935 8.4375 3.93757Z" fill="#422F28"/>
<path d="M10.3126 3.46878L9.65632 2.81253C9.56257 2.71878 7.96882 1.31253 6.56257 1.96878C5.15632 2.62503 3.84382 7.31253 9.46882 6.56253H10.8751C10.8751 6.56253 10.8751 3.84378 10.3126 3.46878ZM18.6563 13.6875C18.6563 13.6875 19.3126 12.5625 20.8126 12.5625C22.3126 12.5625 23.5313 11.3438 22.9688 8.62503C22.4063 5.90628 19.2188 5.62503 19.2188 5.62503L19.6876 9.28128L18.6563 13.6875Z" fill="#422F28"/>
<path d="M20.0625 13.875C20.8392 13.875 21.4688 13.0775 21.4688 12.0937C21.4688 11.11 20.8392 10.3125 20.0625 10.3125C19.2858 10.3125 18.6562 11.11 18.6562 12.0937C18.6562 13.0775 19.2858 13.875 20.0625 13.875Z" fill="#E5A98C"/>
<path d="M18.0002 7.87501C18.0002 7.87501 19.2189 9.00001 18.1877 11.5313C17.1564 13.9688 18.6564 17.5313 18.6564 17.5313C18.6564 17.5313 18.3752 14.625 18.9377 13.875C19.5002 13.125 21.6564 9.37501 20.5314 7.50001C19.4064 5.62501 18.0002 7.87501 18.0002 7.87501Z" fill="#422F28"/>
<path d="M19.3125 14.3438L19.5 13.875C19.5 13.875 21.1875 13.4062 21.4687 12.5625C21.375 12.5625 21.4688 14.625 19.3125 14.3438Z" fill="#A67A65"/>
<path d="M4.40625 21.7501C4.40625 21.7501 5.53125 20.5314 6.9375 20.8126C8.34375 21.0939 9.09375 22.6876 10.125 24.0001C11.1563 25.3126 12.9375 23.8126 13.3125 23.6251C13.6875 23.4376 15.0938 22.6876 17.25 23.6251C19.4062 24.5626 20.4375 28.2189 20.4375 28.2189C20.4375 28.2189 14.0625 28.1251 10.4063 27.0001C6.75 25.7814 4.78125 23.2501 4.40625 21.7501Z" fill="#D3624F"/>
<path d="M7.87484 23.4375C8.06234 23.7188 8.15609 23.9063 8.24984 24.1875C8.34359 24.4688 8.24984 24.75 7.96859 24.9375C7.59359 25.2188 7.12484 25.0313 6.74984 24.8438C5.99984 24.4688 4.59359 23.3438 5.24984 22.4063C5.99984 21.4688 7.40609 22.7813 7.87484 23.4375ZM16.2186 26.0625C16.4061 26.3438 16.4998 26.5313 16.5936 26.8125C16.6873 27.0938 16.5936 27.375 16.3123 27.5625C15.9373 27.8438 15.4686 27.6563 15.0936 27.4688C14.3436 27.0938 12.9373 25.9688 13.5936 25.0313C14.4373 24.0938 15.7498 25.4063 16.2186 26.0625Z" fill="#E27364"/>
<path d="M8.53125 21.75C8.53125 21.75 10.125 23.625 11.0625 23.625C12 23.625 13.7812 22.2187 15.5625 22.4062C17.3438 22.5937 20.25 24.1875 21.1875 26.9062L20.0625 27.5625C20.0625 27.5625 18.2812 24 15.5625 23.625C15.5625 23.625 14.4375 23.625 12.9375 24.1875C11.4375 24.75 10.4062 25.5 8.53125 21.75Z" fill="#A53829"/>
<path d="M21.375 7.40612C21.1875 6.18737 20.1562 5.34362 19.3125 4.59362C18.75 4.12487 18.0938 3.65612 17.4375 3.28112C16.4063 2.71862 15.1875 2.53112 14.0625 2.34362C13.4062 2.24987 12.75 2.15612 12.1875 2.53112C11.9062 2.71862 11.7187 3.09362 11.4375 3.37487C11.0625 3.74987 10.5937 3.84362 10.0312 3.93737C9.46875 4.03112 9 3.84362 8.53125 3.74987C8.4375 4.03112 8.53125 4.31237 8.8125 4.40612C9 4.49987 9.28125 4.49987 9.5625 4.49987C11.1562 4.40612 12.75 4.40612 14.3437 4.68737C16.5938 5.15612 18.75 6.28112 20.7188 7.40612" fill="#513C36"/>
<path d="M20.4375 24.4688C20.625 24.4688 22.9687 24.4688 24.6562 27.0938C25.125 27.8438 24.8437 28.7813 24.0937 29.1563C22.5 29.9063 19.5 30.9376 16.2187 29.1563C15.5625 28.7813 15.1875 27.6563 15.6562 27.0001C16.5 25.7813 17.9062 24.3751 20.4375 24.4688Z" fill="#425763"/>
<path d="M20.4373 25.0314C20.6248 25.0314 22.5935 25.0314 24.0935 27.0939C24.4685 27.6564 24.281 28.4064 23.6248 28.6876C22.2185 29.3439 19.6873 30.0001 16.781 28.5939C16.2185 28.3126 16.031 27.4689 16.406 27.0001C17.0623 26.0626 18.281 24.9376 20.4373 25.0314C20.3435 25.0314 20.3435 25.0314 20.4373 25.0314Z" fill="#A2B6BA"/>
<path d="M20.3435 25.1252C20.531 25.1252 22.1248 25.1252 23.3435 26.8127C23.6248 27.2814 23.531 27.9377 22.9685 28.1252C21.8435 28.5939 19.781 29.2502 17.4373 28.0314C16.9685 27.7502 16.781 27.1877 17.156 26.7189C17.6248 25.9689 18.656 25.0314 20.3435 25.1252Z" fill="#87999B"/>
<path d="M20.0625 27.75C23.428 27.75 26.1562 25.0217 26.1562 21.6562C26.1562 18.2908 23.428 15.5625 20.0625 15.5625C16.697 15.5625 13.9688 18.2908 13.9688 21.6562C13.9688 25.0217 16.697 27.75 20.0625 27.75Z" fill="#425763"/>
<path d="M20.0625 26.9062C23.0655 26.9062 25.5 24.4718 25.5 21.4687C25.5 18.4657 23.0655 16.0312 20.0625 16.0312C17.0595 16.0312 14.625 18.4657 14.625 21.4687C14.625 24.4718 17.0595 26.9062 20.0625 26.9062Z" fill="#A2B6BA"/>
<path d="M20.25 25.9688C22.9942 25.9688 25.2188 23.7442 25.2188 21C25.2188 18.2558 22.9942 16.0312 20.25 16.0312C17.5058 16.0312 15.2812 18.2558 15.2812 21C15.2812 23.7442 17.5058 25.9688 20.25 25.9688Z" fill="#CBDEE4"/>
<path d="M22.9688 20.625C23.5901 20.625 24.0938 20.1213 24.0938 19.5C24.0938 18.8787 23.5901 18.375 22.9688 18.375C22.3474 18.375 21.8438 18.8787 21.8438 19.5C21.8438 20.1213 22.3474 20.625 22.9688 20.625Z" fill="#425763"/>
<path d="M23.0625 20.0625C23.4249 20.0625 23.7187 19.7687 23.7187 19.4063C23.7187 19.0438 23.4249 18.75 23.0625 18.75C22.7001 18.75 22.4062 19.0438 22.4062 19.4063C22.4062 19.7687 22.7001 20.0625 23.0625 20.0625Z" fill="#4ED154"/>
<path d="M19.0312 19.0312C19.0312 19.0312 19.3125 17.0625 20.8125 16.3125C21 16.2187 21 16.0312 20.7187 16.0312H20.4375C20.25 16.0312 18.5625 16.125 18 19.125L19.0312 19.0312Z" fill="#A2B6BA"/>
<path d="M21.8348 22.2316C21.8418 20.3159 20.4203 18.7577 18.6599 18.7513C16.8995 18.7449 15.4668 20.2928 15.4598 22.2085C15.4529 24.1242 16.8744 25.6824 18.6348 25.6888C20.3952 25.6952 21.8279 24.1473 21.8348 22.2316Z" fill="#425763"/>
<path d="M21.217 22.0738C21.2223 20.6241 20.1352 19.4449 18.789 19.44C17.4428 19.4351 16.3473 20.6064 16.342 22.0562C16.3368 23.5059 17.4238 24.6851 18.77 24.69C20.1162 24.6949 21.2118 23.5236 21.217 22.0738Z" fill="#3587C4"/>
<path d="M20.7539 21.9734C20.7582 20.7826 19.8383 19.8138 18.6992 19.8097C17.5601 19.8056 16.6332 20.7676 16.6289 21.9585C16.6246 23.1494 17.5445 24.1181 18.6836 24.1222C19.8227 24.1263 20.7496 23.1643 20.7539 21.9734Z" fill="#4DA3EC"/>
<path d="M19.856 20.9538C19.8572 20.6431 19.6062 20.3904 19.2956 20.3892C18.9849 20.3881 18.7322 20.639 18.731 20.9497C18.7299 21.2604 18.9808 21.5131 19.2915 21.5142C19.6022 21.5154 19.8549 21.2644 19.856 20.9538Z" fill="white"/>
<path d="M20.156 17.5313L20.906 16.7813C20.9998 16.6875 21.1873 16.6875 21.281 16.6875C21.5623 16.7812 22.1248 16.9688 22.781 17.3438C23.156 17.5313 22.9685 18.1875 22.4998 18.0938L20.4373 18.1875C20.156 18.2813 19.8748 17.8125 20.156 17.5313Z" fill="#E1F0F4"/>
</g>
<defs>
<clipPath id="clip0_1_12966">
<rect width="30" height="30" fill="white"/>
</clipPath>
</defs>
</svg>
