<svg width="64" height="64" viewBox="0 0 64 64" fill="none" xmlns="http://www.w3.org/2000/svg">
<path d="M18.0422 30.88H45.9578L40.714 20.7499C40.5187 20.3795 40.1755 20.2527 39.886 20.438C38.1224 21.5787 31.7947 24.9424 24.114 20.3892C23.8245 20.2235 23.4947 20.3502 23.3062 20.7109L18.0422 30.88Z" stroke="#213A52" stroke-width="1.66957" stroke-miterlimit="10" stroke-linejoin="round"/>
<path d="M45.9578 30.7875H18.0422V43.6136H45.9578V30.7875Z" stroke="#213A52" stroke-width="1.66957" stroke-miterlimit="10" stroke-linejoin="round"/>
<path d="M39.922 34.5598C41.1726 34.5598 42.1855 35.4714 42.1855 36.5969V39.6525H37.6586V36.5969C37.6586 35.4714 38.6714 34.5598 39.922 34.5598Z" stroke="#213A52" stroke-width="1.66957" stroke-miterlimit="10"/>
<path d="M24.078 34.5598C25.3286 34.5598 26.3414 35.4714 26.3414 36.5969V39.6525H21.8145V36.5969C21.8145 35.4714 22.8274 34.5598 24.078 34.5598Z" stroke="#213A52" stroke-width="1.66957" stroke-miterlimit="10"/>
<path d="M32.1287 34.5598C33.3793 34.5598 34.3922 35.4714 34.3922 36.5969V39.6525H29.8653V36.5969C29.8653 35.4714 30.8782 34.5598 32.1287 34.5598Z" stroke="#213A52" stroke-width="1.66957" stroke-miterlimit="10"/>
<path d="M45.9578 30.8566L48.9757 43.6827" stroke="#213A52" stroke-width="1.66957" stroke-miterlimit="10" stroke-linecap="round"/>
<path d="M18.0422 30.8337L15.0242 43.6598" stroke="#213A52" stroke-width="1.66957" stroke-miterlimit="10" stroke-linecap="round"/>
</svg>
