<svg width="30" height="30" viewBox="0 0 30 30" fill="none" xmlns="http://www.w3.org/2000/svg">
<g clip-path="url(#clip0_1_3641)">
<path d="M21.8439 28.5L21.7502 29.9063H25.3127C25.3127 29.9063 25.6877 29.4375 25.3127 29.25C24.9377 29.0625 23.2502 28.4062 23.2502 28.4062L21.8439 28.5ZM21.2814 28.5L21.3752 29.9063H17.8127C17.8127 29.9063 17.4377 29.4375 17.8127 29.25C18.1877 29.0625 19.8752 28.4062 19.8752 28.4062L21.2814 28.5Z" fill="#604E46"/>
<path d="M21.8437 18.0938L21.2813 22.6875L21.4687 28.7813H19.5L19.125 22.6875L19.3125 18.375L21.8437 18.0938Z" fill="#3D5E7F"/>
<path d="M21.375 18.0938L21.9375 22.6875L21.8438 28.7813H23.7188L24.0938 22.6875L24 18.375L21.375 18.0938Z" fill="#3D5E7F"/>
<path d="M9.56251 2.06248C9.56251 2.06248 8.90626 1.68748 7.78126 1.96873C6.65626 2.24998 5.06251 3.93748 5.25001 5.99998C5.43751 7.96873 6.75001 10.5937 9.09376 10.5937C11.4375 10.5937 12.8438 8.06248 12.8438 7.59373C12.9375 7.12498 13.6875 1.78123 9.56251 2.06248Z" fill="#7F5F52"/>
<path d="M12.6562 11.6251C12 11.1564 11.25 12.1876 11.25 12.1876C10.9688 12.4689 10.875 13.0314 10.875 13.0314L11.25 13.4064L13.0312 16.2188C13.2188 16.5938 13.875 16.6876 14.3438 16.5001C14.8125 16.3126 14.7188 15.8439 14.7188 15.8439C14.7188 15.8439 13.3125 12.0939 12.6562 11.6251ZM5.4375 11.8126C5.90625 11.2501 6.9375 12.0001 6.9375 12.0001C7.21875 12.1876 7.5 12.7501 7.5 12.7501L7.21875 13.1251L6.28125 16.4064C6.1875 16.7814 5.625 17.0626 5.0625 16.9689C4.5 16.8751 4.5 16.4064 4.5 16.4064C4.5 16.4064 4.875 12.4689 5.4375 11.8126Z" fill="#57934D"/>
<path d="M4.68766 16.4999C5.06266 15.8436 5.25016 16.0311 5.25016 16.0311L6.28141 16.7811C6.28141 16.7811 6.28141 17.4374 6.18766 17.8124C6.00016 18.3749 5.81266 19.6874 5.81266 19.6874C5.81266 19.8749 5.71891 20.1561 5.43766 20.1561C5.25016 20.1561 5.06266 20.2499 4.96891 20.1561C4.87516 20.0624 4.50016 19.8749 4.40641 19.5936C4.40641 19.2186 4.31266 17.1561 4.68766 16.4999Z" fill="#EFBF9E"/>
<path d="M4.96875 19.5C4.96875 19.5 5.625 19.875 5.90625 20.1563C6.1875 20.5313 6.5625 21.0937 6.28125 21.375C6.09375 21.6562 6 21.8438 5.71875 21.6563C5.4375 21.375 5.0625 21.4688 4.875 21C4.6875 20.5313 4.59375 19.6875 4.59375 19.6875L4.96875 19.5Z" fill="#EFBF9E"/>
<path d="M8.15625 8.90625C8.15625 8.90625 8.25 10.5938 7.6875 11.5312L10.875 11.625C10.875 11.625 10.125 10.5938 10.2187 8.71875C10.2187 8.71875 8.8125 9.1875 8.15625 8.90625Z" fill="#E2A881"/>
<path d="M11.6249 3.65625C11.0624 2.625 9.46866 2.71875 9.18741 2.71875C8.90616 2.71875 7.31241 2.53125 6.74991 3.65625C6.09366 4.875 6.18741 9.09375 9.18741 9.46875C12.0937 9.09375 12.2812 4.78125 11.6249 3.65625Z" fill="#EFBF9E"/>
<path d="M11.0623 16.2187C10.8748 15.2812 11.2498 13.875 11.531 13.4062C11.8123 12.9375 12.5623 11.8125 12.3748 11.5312C12.281 11.25 10.1248 10.9688 9.56227 10.875H8.43727C7.87477 10.9688 5.71852 11.3437 5.62477 11.5312C5.53102 11.8125 6.28102 13.0312 6.46852 13.4062C6.74977 13.875 7.12477 15.2812 6.93727 16.2187C6.93727 16.2187 6.09352 17.1563 5.99977 17.5313C5.90602 17.9063 5.62477 19.5 8.62477 19.5H9.18727C12.1873 19.5 11.906 17.9063 11.8123 17.5313C11.906 17.1563 11.0623 16.2187 11.0623 16.2187Z" fill="#417F38"/>
<path d="M8.62523 18.1876L9.00023 22.6876C9.00023 22.6876 8.71898 24.1876 9.09398 24.2813C9.46898 24.3751 10.7815 24.4688 10.969 23.4376C11.1565 22.4063 12.094 19.1251 12.094 18.9376C12.094 18.7501 12.469 17.2501 11.2502 16.3126C11.1565 16.3126 8.34398 16.0313 8.62523 18.1876Z" fill="#3D5E7F"/>
<path d="M11.0625 29.3438C10.875 28.6876 10.5 27.8438 10.6875 27.4688C10.875 27.0001 11.1563 25.6876 10.9688 25.3126C10.7813 24.9376 10.875 23.8126 10.875 23.8126C10.4063 22.9688 8.90625 23.5313 8.8125 23.8126C8.71875 24.2813 8.625 25.0313 8.625 25.3126C8.625 25.5938 8.625 26.5313 8.90625 26.8126C9.1875 27.0938 8.8125 28.7813 8.8125 28.7813C8.8125 28.7813 8.71875 29.0626 8.625 29.5313C9.1875 29.4376 10.5938 29.3438 11.0625 29.3438Z" fill="#3D5E7F"/>
<path d="M10.8749 28.9687C10.7811 28.9687 10.7811 28.875 10.7811 28.875C10.1249 28.875 9.84364 28.6875 9.18739 28.6875C9.09364 28.7813 8.71864 29.0625 8.62489 29.25C8.53114 29.625 9.18739 30 9.18739 30C9.18739 30 10.1249 30.1875 11.1561 30C12.2811 29.7187 11.3436 29.25 10.8749 28.9687Z" fill="#604E46"/>
<path d="M9.56242 18.2813L8.81242 22.7813C8.81242 22.7813 8.99992 24.2813 8.53117 24.3751C8.15617 24.4688 6.84367 24.4688 6.74992 23.3438C6.65617 22.2188 5.99992 18.9376 5.99992 18.7501C5.99992 18.5626 5.71867 16.9688 7.03117 16.1251C7.03117 16.1251 9.93742 16.0313 9.56242 18.2813Z" fill="#3D5E7F"/>
<path d="M6.1875 29.1564C6.375 28.5002 6.84375 27.6564 6.75 27.2814C6.5625 26.9064 6.375 25.5002 6.5625 25.1252C6.75 24.7502 6.75 23.6252 6.75 23.6252C7.3125 22.8752 8.71875 23.4377 8.8125 23.7189C8.8125 24.1877 8.90625 24.9377 8.90625 25.2189C8.8125 25.5002 8.8125 26.4377 8.4375 26.7189C8.0625 27.0002 8.34375 28.6877 8.34375 28.6877C8.34375 28.6877 8.4375 28.9689 8.53125 29.4377C8.0625 29.3439 6.65625 29.1564 6.1875 29.1564Z" fill="#3D5E7F"/>
<path d="M6.46896 28.7811C6.56271 28.7811 6.56271 28.6874 6.65646 28.6874C7.31271 28.7811 7.59396 28.4999 8.25021 28.5936C8.25021 28.6874 8.71896 29.0624 8.71896 29.1561C8.81271 29.5311 8.06271 29.9061 8.06271 29.9061C8.06271 29.9061 7.12521 30.0936 6.09396 29.9061C4.96896 29.6249 5.90646 29.0624 6.46896 28.7811Z" fill="#604E46"/>
<path d="M14.7188 15.5625C14.0625 15.1875 14.0625 15.375 14.0625 15.375L13.5 16.5C13.5 16.5 13.7813 17.0625 14.0625 17.4375L15.0938 18.9375C15.1875 19.125 15.375 19.3125 15.6563 19.2188C15.8438 19.125 16.0313 19.125 16.0313 19.0312C16.125 18.9375 16.3125 18.5625 16.2187 18.2812C16.2187 17.9062 15.375 15.9375 14.7188 15.5625Z" fill="#EFBF9E"/>
<path d="M14.8125 18.1875C14.8125 18.1875 14.8125 18.9375 15 19.3125C15.0937 19.7812 15.5625 20.3438 15.8437 20.25C16.125 20.1562 16.4062 20.25 16.3125 19.875C16.2187 19.5 16.5 19.2188 16.2187 18.8438C15.9375 18.4688 15.1875 17.9062 15.1875 17.9062L14.8125 18.1875Z" fill="#EFBF9E"/>
<path d="M10.4063 5.8125C10.7169 5.8125 10.9687 5.56066 10.9687 5.25C10.9687 4.93934 10.7169 4.6875 10.4063 4.6875C10.0956 4.6875 9.84375 4.93934 9.84375 5.25C9.84375 5.56066 10.0956 5.8125 10.4063 5.8125Z" fill="#604E46"/>
<path d="M8.0625 5.8125C8.37316 5.8125 8.625 5.56066 8.625 5.25C8.625 4.93934 8.37316 4.6875 8.0625 4.6875C7.75184 4.6875 7.5 4.93934 7.5 5.25C7.5 5.56066 7.75184 5.8125 8.0625 5.8125Z" fill="#604E46"/>
<path d="M11.3438 15L10.875 16.2187C10.875 16.2187 9.28125 15.6562 7.3125 16.2187L7.125 15.0938L7.3125 14.3437C7.3125 14.3437 8.15625 13.7813 11.0625 14.1563L11.3438 15Z" fill="#417F38"/>
<path d="M9.46856 14.1563L10.2186 13.5938C10.4998 13.4062 11.2498 13.125 11.6248 13.125C12.0936 13.2188 12.4686 13.6875 12.3748 14.25C12.2811 14.7187 12.3748 15.375 11.6248 15.5625C10.8748 15.75 10.7811 15.6563 10.4998 15.5625C10.1248 15.375 9.65606 14.8125 9.46856 14.1563ZM8.71856 14.1563L7.96856 13.5938C7.68731 13.4062 7.03106 13.125 6.56231 13.125C6.09356 13.2188 5.71856 13.6875 5.81231 14.25C5.90606 14.8125 5.81231 15.375 6.56231 15.5625C7.31231 15.75 7.40606 15.6563 7.68731 15.5625C7.96856 15.4688 8.53106 14.8125 8.71856 14.1563Z" fill="#417F38"/>
<path d="M7.96875 7.40625C7.96875 7.40625 9.75 7.40625 10.5 7.03125C10.5 7.03125 10.2187 8.0625 9.09375 8.0625C7.96875 8.15625 7.96875 7.40625 7.96875 7.40625Z" fill="#AF664B"/>
<path d="M9.28144 2.25C9.28144 2.25 8.71894 4.40625 11.9064 6C11.9064 6 12.5627 4.6875 12.2814 4.125C12.0002 3.5625 11.4377 2.25 9.28144 2.25Z" fill="#604E46"/>
<path d="M9.65625 2.71871C9.65625 2.71871 8.90625 4.68746 6.1875 4.87496C6.1875 4.87496 6.375 2.90621 7.78125 2.71871C9.1875 2.53121 9.65625 2.71871 9.65625 2.71871Z" fill="#A37464"/>
<path d="M18.4686 10.0313C19.1248 9.5625 19.8748 10.6875 19.8748 10.6875C20.1561 10.9688 20.2498 11.625 20.2498 11.625L19.8748 12L18.0936 15.0938C17.9061 15.4688 17.2498 15.5625 16.7811 15.375C16.3123 15.1875 16.4061 14.625 16.4061 14.625C16.4061 14.625 17.8123 10.5 18.4686 10.0313ZM25.0311 10.4063C24.5623 9.75 24.0936 10.5 24.0936 10.5C23.8123 10.6875 23.5311 11.25 23.5311 11.25L23.8123 11.7188L24.7498 15.1875C24.8436 15.6563 25.4061 15.9375 25.9686 15.8438C26.5311 15.75 26.5311 15.2813 26.5311 15.2813C26.5311 15.2813 25.5936 11.0625 25.0311 10.4063Z" fill="#EFBF9E"/>
<path d="M26.4375 15.3749C26.0625 14.6249 25.875 14.9062 25.875 14.9062L24.8438 15.6562C24.8438 15.6562 24.8438 16.3124 24.9375 16.7812C25.0313 17.2499 25.2187 18.7499 25.2187 18.7499C25.2187 19.0312 25.3125 19.2187 25.5937 19.3124C25.7812 19.3124 25.9687 19.4062 26.0625 19.3124C26.1562 19.2187 26.5312 19.0312 26.625 18.6562C26.7187 18.2812 26.8125 16.0312 26.4375 15.3749Z" fill="#EFBF9E"/>
<path d="M26.0625 18.6562C26.0625 18.6562 25.4062 19.0313 25.125 19.4063C24.8437 19.7813 24.4688 20.4375 24.75 20.7188C24.9375 21 25.0313 21.2812 25.3125 21C25.5938 20.7188 25.9688 20.8125 26.1562 20.3438C26.3438 19.875 26.4375 18.8438 26.4375 18.8438L26.0625 18.6562Z" fill="#EFBF9E"/>
<path d="M22.5938 7.49998C22.5938 7.49998 22.5 9.18748 23.1563 10.125L19.7812 10.3125C19.7812 10.3125 20.625 9.28123 20.4375 7.40623C20.4375 7.31248 21.8438 7.87498 22.5938 7.49998Z" fill="#E2A881"/>
<path d="M18.9377 2.25C19.594 1.21875 21.1877 1.3125 21.469 1.3125C21.7502 1.3125 23.4377 1.125 24.0002 2.25C24.7502 3.46875 24.5627 7.78125 21.469 8.0625C18.3752 7.78125 18.2815 3.375 18.9377 2.25Z" fill="#EFBF9E"/>
<path d="M24.0936 18.75L23.9998 14.9062C23.8123 13.875 24.1873 12.375 24.4686 11.8125C24.7498 11.3438 24.8436 10.2187 24.7498 9.84375C24.6561 9.5625 23.1561 9.09375 22.5936 9H21.4686C20.9061 9.09375 18.7498 9.46875 18.6561 9.75C18.5623 10.0312 18.8436 11.4375 19.1248 11.9062C19.4061 12.375 19.2186 17.4375 19.0311 18.4688L24.0936 18.75Z" fill="#417F38"/>
<path d="M16.5 14.3437C16.9688 13.7812 17.1562 13.9687 17.1562 13.9687L18 15C18 15 17.9062 15.6562 17.625 16.125L16.9688 18C16.9688 18.2812 16.7813 18.4687 16.5 18.4687C16.3125 18.4687 16.125 18.4687 16.0313 18.375C15.9375 18.2812 15.6563 18 15.5625 17.625C15.75 17.1562 16.0313 14.9062 16.5 14.3437Z" fill="#EFBF9E"/>
<path d="M17.0627 17.8125C17.0627 17.8125 16.7814 18.5625 16.5002 18.9375C16.2189 19.3125 15.6564 19.6875 15.3752 19.5937C15.0939 19.4062 14.8127 19.4063 15.0002 18.9375C15.1877 18.5625 15.0002 18.1875 15.4689 17.9062C15.9377 17.625 16.7814 17.4375 16.7814 17.4375L17.0627 17.8125Z" fill="#EFBF9E"/>
<path d="M20.25 4.40625C20.5607 4.40625 20.8125 4.15441 20.8125 3.84375C20.8125 3.53309 20.5607 3.28125 20.25 3.28125C19.9393 3.28125 19.6875 3.53309 19.6875 3.84375C19.6875 4.15441 19.9393 4.40625 20.25 4.40625Z" fill="#604E46"/>
<path d="M22.6875 4.40625C22.9982 4.40625 23.25 4.15441 23.25 3.84375C23.25 3.53309 22.9982 3.28125 22.6875 3.28125C22.3768 3.28125 22.125 3.53309 22.125 3.84375C22.125 4.15441 22.3768 4.40625 22.6875 4.40625Z" fill="#604E46"/>
<path d="M22.3125 6.1875C22.3125 6.1875 21.0938 6.1875 20.5312 5.8125C20.5312 5.8125 20.7187 6.65625 21.4688 6.75C22.3125 6.75 22.3125 6.1875 22.3125 6.1875Z" fill="#AF664B"/>
<path opacity="0.4" d="M6.65625 13.9688C6.65625 13.9688 6.65625 13.4063 7.6875 13.3126C8.71875 13.2188 11.25 13.2188 11.5313 13.5938C11.8125 14.0626 11.5313 14.5313 10.9688 14.5313C10.4063 14.5313 7.40625 14.6251 7.03125 14.4376C6.75 14.4376 6.65625 13.9688 6.65625 13.9688Z" fill="#57934D"/>
<path d="M23.3441 1.87496L20.0629 1.96871C19.1254 1.87496 18.5629 1.31246 18.6566 0.937457C18.7504 0.562457 19.8754 -0.281293 21.2816 -4.29861e-05C22.5941 0.374957 24.0941 0.937457 24.1879 1.21871C24.2816 1.49996 23.6254 1.87496 23.3441 1.87496Z" fill="#604E46"/>
<path d="M23.1565 1.5C23.1565 1.5 24.0002 2.8125 24.0002 3.28125C24.0002 3.75 24.094 4.96875 24.5627 4.5C25.0315 4.03125 25.969 1.96875 24.0002 1.125C24.0002 1.21875 23.1565 1.3125 23.1565 1.5ZM19.8752 1.6875C19.8752 1.6875 19.219 3.5625 18.9377 3.65625C18.7502 3.75 18.094 2.71875 19.1252 1.40625L19.8752 1.6875Z" fill="#604E46"/>
<path d="M20.8125 11.3438L19.0312 13.2188L17.4375 11.5313L18.375 9.93751C18.5625 9.75001 19.875 10.125 19.875 10.125L20.8125 11.3438ZM23.0625 11.3438L24.375 13.2188L25.7812 12.375C25.7812 12.375 25.6875 10.5938 24.75 10.0313C24.4687 9.84376 24 10.125 24 10.125L23.0625 11.3438Z" fill="#417F38"/>
<path d="M19.5938 10.125C19.5938 10.125 22.125 9.56251 23.3438 10.2188L23.0625 13.7813L23.1563 17.8125H19.875L20.25 13.6875L19.5938 10.125Z" fill="#57934D"/>
<path d="M10.0312 17.4375L11.0625 17.5313L10.875 19.7813L10.4063 25.3125L10.2187 27.6562L9.75 27.4688L9.65625 25.0313L9.75 20.9062L9.5625 17.625L10.0312 17.4375ZM7.40625 17.4375L8.53125 17.5313L8.34375 19.7813L7.875 25.3125L7.6875 27.6562L7.21875 27.4688L7.125 25.0313V20.9062L7.03125 17.625L7.40625 17.4375Z" fill="#426884"/>
<path d="M22.5 15C22.5937 15 22.5938 14.9063 22.5938 14.7188C22.5938 14.0625 22.5 14.0625 22.0312 14.0625H20.7188V15H22.5ZM22.5938 12.375C22.5938 12.0938 22.5 12.0938 21.8437 12.0938H20.7188V13.0313H21.9375C22.5 13.0313 22.5938 13.0313 22.5938 12.375Z" stroke="#417F38" stroke-width="0.301687" stroke-miterlimit="10"/>
<path d="M9.28125 13.2188C9.09375 13.2188 8.90625 13.125 8.8125 13.125C8.4375 13.0313 8.4375 13.0313 8.4375 12.6563C8.4375 12.4688 8.53125 12.2813 9.1875 12.2813C9.75 12.2813 10.4062 12.4687 10.6875 12.5625H10.7812L11.0625 11.625H10.9687C10.5 11.4375 9.65625 11.3438 9.09375 11.3438C7.96875 11.3438 7.3125 11.9063 7.3125 12.75C7.3125 14.0625 7.96875 14.1563 9.5625 14.5312H9.65625C10.125 14.625 10.125 14.625 10.125 15C10.125 15.375 9.9375 15.4688 9.375 15.4688C8.53125 15.4688 7.875 15.2813 7.59375 15.1875L7.5 15.0938V15.1875C7.40625 15.375 7.40625 15.5625 7.3125 15.8438L7.21875 16.0313H7.3125C7.78125 16.2188 8.625 16.4062 9.375 16.4062C10.3125 16.4062 11.3438 16.2188 11.3438 14.9062C11.1563 13.5937 10.2187 13.4063 9.28125 13.2188ZM23.25 12.9375C23.5312 12.75 23.7187 12.4688 23.7187 11.8125C23.7187 10.6875 23.1562 10.5 21.75 10.5H19.6875V15.4688H21.8437C23.1562 15.4688 23.8125 15.2813 23.8125 14.1563C23.8125 13.4063 23.625 13.125 23.25 12.9375ZM20.7188 13.4063H22.0312C22.5 13.4063 22.5938 13.4063 22.5938 14.0625C22.5938 14.25 22.5 14.3438 22.5 14.3438H20.8125V13.4063H20.7188ZM20.7188 12.375V11.4375H21.8437C22.5 11.4375 22.5938 11.5313 22.5938 11.7188C22.5938 12.375 22.5 12.375 22.0312 12.375H20.7188Z" fill="white" stroke="#417F38" stroke-width="0.301687" stroke-miterlimit="10"/>
</g>
<defs>
<clipPath id="clip0_1_3641">
<rect width="30" height="30" fill="white"/>
</clipPath>
</defs>
</svg>
