<svg width="30" height="30" viewBox="0 0 30 30" fill="none" xmlns="http://www.w3.org/2000/svg">
<g clip-path="url(#clip0_1_15845)">
<path d="M19.9873 19.2468H0.674805V24.0562H19.9873V19.2468Z" fill="#683C2F"/>
<path d="M19.9873 19.1907H0.674805V21.1969H19.9873V19.1907Z" fill="#683C2F"/>
<path d="M10.3311 25.1719C15.6641 25.1719 19.9873 23.2201 19.9873 20.8125C19.9873 18.4049 15.6641 16.4531 10.3311 16.4531C4.99806 16.4531 0.674805 18.4049 0.674805 20.8125C0.674805 23.2201 4.99806 25.1719 10.3311 25.1719Z" fill="#683C2F"/>
<path d="M10.3311 27.8438C15.6641 27.8438 19.9873 25.892 19.9873 23.4844C19.9873 21.0768 15.6641 19.125 10.3311 19.125C4.99806 19.125 0.674805 21.0768 0.674805 23.4844C0.674805 25.892 4.99806 27.8438 10.3311 27.8438Z" fill="#683C2F"/>
<path d="M10.3313 26.5781C15.2604 26.5781 19.2563 24.6264 19.2563 22.2188C19.2563 19.8111 15.2604 17.8594 10.3313 17.8594C5.40211 17.8594 1.40625 19.8111 1.40625 22.2188C1.40625 24.6264 5.40211 26.5781 10.3313 26.5781Z" fill="#F05922"/>
<path d="M8.95312 24.6562V26.5312C9.79423 26.7338 10.6714 26.7338 11.5125 26.5312V24.6562H8.95312Z" fill="#EFB9AC"/>
<path d="M3.81543 22.6875V24.5156C4.56687 24.9335 5.37089 25.2488 6.20605 25.4531V22.6875H3.81543Z" fill="white"/>
<path d="M17.0154 22.5V24.5062C16.2094 24.9912 15.3288 25.3396 14.4092 25.5375V22.5H17.0154Z" fill="white"/>
<path d="M10.3311 24.2812C15.6641 24.2812 19.9873 22.3295 19.9873 19.9219C19.9873 17.5143 15.6641 15.5625 10.3311 15.5625C4.99806 15.5625 0.674805 17.5143 0.674805 19.9219C0.674805 22.3295 4.99806 24.2812 10.3311 24.2812Z" fill="#683C2F"/>
<path d="M10.3311 23.55C15.6641 23.55 19.9873 21.5983 19.9873 19.1907C19.9873 16.7831 15.6641 14.8313 10.3311 14.8313C4.99806 14.8313 0.674805 16.7831 0.674805 19.1907C0.674805 21.5983 4.99806 23.55 10.3311 23.55Z" fill="#683C2F"/>
<path d="M10.3312 24.0562C15.3846 24.0562 19.4812 22.2052 19.4812 19.9219C19.4812 17.6385 15.3846 15.7875 10.3312 15.7875C5.27775 15.7875 1.18115 17.6385 1.18115 19.9219C1.18115 22.2052 5.27775 24.0562 10.3312 24.0562Z" fill="#F05922"/>
<path d="M10.3314 22.7344C13.7694 22.7344 16.5564 21.4752 16.5564 19.9219C16.5564 18.3686 13.7694 17.1094 10.3314 17.1094C6.89347 17.1094 4.10645 18.3686 4.10645 19.9219C4.10645 21.4752 6.89347 22.7344 10.3314 22.7344Z" fill="white"/>
<path d="M11.9719 16.1907L8.4375 16.275V23.6719" fill="white"/>
<path d="M18.478 19.1344H11.9718V16.1907L8.4374 16.275V19.1344H1.93115L2.10928 20.7282H8.4374V23.6719H11.9718V20.7282H18.478V19.1344Z" fill="white"/>
<path d="M12.2532 23.7937H8.15635V20.8593H1.8751L1.67822 18.9843H8.24072V16.1531L12.3376 16.0593V19.0125H18.7501V20.8875H12.2532V23.7937ZM8.71885 23.5406H11.6907V20.625H18.197V19.2562H11.6907V16.3312L8.71885 16.3968V19.2562H2.22197L2.37197 20.625H8.71885V23.5406Z" fill="#F05922"/>
<path d="M14.803 16.725L10.1999 18.8062L5.60615 16.725L3.2249 17.9062L7.70615 19.9312L3.10303 22.0125L5.72803 23.0812L10.1999 21.0562L14.803 23.1375L17.3062 22.0125L12.703 19.9312L17.3062 17.85L14.803 16.725Z" fill="white"/>
<path d="M10.3127 23.8219C5.5502 23.8219 1.66895 22.0781 1.66895 19.9219C1.66895 17.7656 5.56895 16.0219 10.3127 16.0219C15.0564 16.0219 18.9471 17.775 18.9471 19.9219C18.9471 22.0687 15.0939 23.8219 10.3127 23.8219ZM10.3127 16.3687C5.97207 16.3687 2.4377 17.9625 2.4377 19.9219C2.4377 21.8812 5.97207 23.4843 10.3127 23.4843C14.6533 23.4843 18.1783 21.8812 18.1783 19.9219C18.1783 17.9625 14.6721 16.3687 10.3127 16.3687Z" fill="#F05922"/>
<path d="M10.3313 22.7719C13.8159 22.7719 16.6407 21.4959 16.6407 19.9219C16.6407 18.3479 13.8159 17.0719 10.3313 17.0719C6.84678 17.0719 4.02197 18.3479 4.02197 19.9219C4.02197 21.4959 6.84678 22.7719 10.3313 22.7719Z" fill="white"/>
<path d="M10.3127 23.025C6.5627 23.025 3.4502 21.6375 3.4502 19.9219C3.4502 18.2062 6.5627 16.875 10.3127 16.875C14.0627 16.875 17.1752 18.2625 17.1752 19.9687C17.1752 21.675 14.1096 23.025 10.3127 23.025ZM10.3127 17.325C7.14394 17.325 4.56582 18.4969 4.56582 19.9219C4.56582 21.3469 7.1627 22.5 10.3127 22.5C13.4627 22.5 16.0596 21.3375 16.0596 19.9031C16.0596 18.4687 13.5002 17.325 10.3127 17.325Z" fill="#F05922"/>
<path d="M13.7156 19.5656C12.7781 19.0031 10.3312 17.9531 10.3312 17.9531C10.3312 17.9531 7.88433 19.0031 6.94683 19.5656C6.00933 20.1281 6.80621 21.0656 9.75933 21.1594C9.70308 21.3469 9.44996 21.6375 8.37183 21.6375V21.8906H12.2437V21.6375C11.175 21.6375 10.9218 21.3469 10.8656 21.1594C13.8468 21.0656 14.5968 20.0906 13.7156 19.5656Z" fill="#F05922"/>
<path d="M19.9873 15.975H0.674805V20.7843H19.9873V15.975Z" fill="#683C2F"/>
<path d="M19.9873 15.9187H0.674805V17.925H19.9873V15.9187Z" fill="#683C2F"/>
<path d="M10.3311 21.9C15.6641 21.9 19.9873 19.9483 19.9873 17.5406C19.9873 15.133 15.6641 13.1813 10.3311 13.1813C4.99806 13.1813 0.674805 15.133 0.674805 17.5406C0.674805 19.9483 4.99806 21.9 10.3311 21.9Z" fill="#683C2F"/>
<path d="M10.3311 23.8594C15.6641 23.8594 19.9873 21.9076 19.9873 19.5C19.9873 17.0924 15.6641 15.1406 10.3311 15.1406C4.99806 15.1406 0.674805 17.0924 0.674805 19.5C0.674805 21.9076 4.99806 23.8594 10.3311 23.8594Z" fill="#683C2F"/>
<path d="M10.3313 23.3063C15.2604 23.3063 19.2563 21.3545 19.2563 18.9469C19.2563 16.5393 15.2604 14.5875 10.3313 14.5875C5.40211 14.5875 1.40625 16.5393 1.40625 18.9469C1.40625 21.3545 5.40211 23.3063 10.3313 23.3063Z" fill="#F05922"/>
<path d="M8.95312 21.3844V23.2594C9.79492 23.4561 10.6707 23.4561 11.5125 23.2594V21.3844H8.95312Z" fill="#EFB9AC"/>
<path d="M3.81543 19.4062V21.2812C4.56687 21.6991 5.37089 22.0144 6.20605 22.2188V19.4062H3.81543Z" fill="white"/>
<path d="M17.0154 19.2656V21.2719C16.2094 21.7568 15.3288 22.1052 14.4092 22.3031V19.2656H17.0154Z" fill="white"/>
<path d="M10.3311 21.6469C15.6641 21.6469 19.9873 19.6951 19.9873 17.2875C19.9873 14.8799 15.6641 12.9281 10.3311 12.9281C4.99806 12.9281 0.674805 14.8799 0.674805 17.2875C0.674805 19.6951 4.99806 21.6469 10.3311 21.6469Z" fill="#683C2F"/>
<path d="M10.3311 20.2781C15.6641 20.2781 19.9873 18.3263 19.9873 15.9187C19.9873 13.5111 15.6641 11.5593 10.3311 11.5593C4.99806 11.5593 0.674805 13.5111 0.674805 15.9187C0.674805 18.3263 4.99806 20.2781 10.3311 20.2781Z" fill="#683C2F"/>
<path d="M10.3312 20.7844C15.3846 20.7844 19.4812 18.9334 19.4812 16.65C19.4812 14.3666 15.3846 12.5156 10.3312 12.5156C5.27775 12.5156 1.18115 14.3666 1.18115 16.65C1.18115 18.9334 5.27775 20.7844 10.3312 20.7844Z" fill="#F05922"/>
<path d="M10.3314 19.4625C13.7694 19.4625 16.5564 18.2033 16.5564 16.65C16.5564 15.0967 13.7694 13.8375 10.3314 13.8375C6.89347 13.8375 4.10645 15.0967 4.10645 16.65C4.10645 18.2033 6.89347 19.4625 10.3314 19.4625Z" fill="white"/>
<path d="M11.9719 12.9187L8.4375 13.0031V20.4" fill="white"/>
<path d="M18.478 15.8625H11.9718V12.9187L8.4374 13.0031V15.8625H1.93115L2.10928 17.4562H8.4374V20.4H11.9718V17.4562H18.478V15.8625Z" fill="white"/>
<path d="M12.2532 20.5219H8.15635V17.5781H1.8751L1.67822 15.7031H8.24072V12.8906L12.3376 12.7969V15.7406H18.7501V17.6156H12.2532V20.5219ZM8.71885 20.2688H11.6907V17.3344H18.197V15.9844H11.6907V13.05L8.71885 13.125V15.9937H2.22197L2.37197 17.3438H8.71885V20.2688Z" fill="#F05922"/>
<path d="M14.803 13.4531L10.1999 15.5344L5.60615 13.4531L3.2249 14.6344L7.70615 16.6594L3.10303 18.7406L5.72803 19.8094L10.1999 17.7844L14.803 19.8656L17.3062 18.7406L12.703 16.6594L17.3062 14.5781L14.803 13.4531Z" fill="white"/>
<path d="M10.3127 20.55C5.5502 20.55 1.66895 18.8062 1.66895 16.65C1.66895 14.4937 5.56895 12.75 10.3127 12.75C15.0564 12.75 18.9471 14.5031 18.9471 16.65C18.9471 18.7969 15.0939 20.55 10.3127 20.55ZM10.3127 13.05C5.97207 13.05 2.4377 14.6437 2.4377 16.6031C2.4377 18.5625 5.97207 20.1562 10.3127 20.1562C14.6533 20.1562 18.1783 18.5625 18.1783 16.6031C18.1783 14.6437 14.6721 13.125 10.3127 13.125V13.05Z" fill="#F05922"/>
<path d="M10.3313 19.5C13.8159 19.5 16.6407 18.2241 16.6407 16.65C16.6407 15.076 13.8159 13.8 10.3313 13.8C6.84678 13.8 4.02197 15.076 4.02197 16.65C4.02197 18.2241 6.84678 19.5 10.3313 19.5Z" fill="white"/>
<path d="M10.3127 19.7531C6.5627 19.7531 3.4502 18.3563 3.4502 16.65C3.4502 14.9438 6.5627 13.5469 10.3127 13.5469C14.0627 13.5469 17.1752 14.9438 17.1752 16.65C17.1752 18.3563 14.1096 19.7531 10.3127 19.7531ZM10.3127 14.0625C7.14394 14.0625 4.56582 15.225 4.56582 16.6594C4.56582 18.0938 7.1627 19.2469 10.3127 19.2469C13.4627 19.2469 16.0596 18.0844 16.0596 16.65C16.0596 15.2156 13.5002 14.0625 10.3127 14.0625Z" fill="#F05922"/>
<path d="M13.7156 16.2844C12.7781 15.7313 10.3312 14.6813 10.3312 14.6813C10.3312 14.6813 7.88433 15.7313 6.94683 16.2844C6.00933 16.8375 6.80621 17.7844 9.75933 17.8875C9.70308 18.075 9.44996 18.3656 8.37183 18.3656V18.6188H12.2437V18.3656C11.175 18.3656 10.9218 18.075 10.8656 17.8875C13.8468 17.8125 14.5968 16.8188 13.7156 16.2844Z" fill="#F05922"/>
<path d="M19.9873 13.2562H0.674805V18.0656H19.9873V13.2562Z" fill="#683C2F"/>
<path d="M19.9873 13.2H0.674805V15.2062H19.9873V13.2Z" fill="#683C2F"/>
<path d="M10.3311 19.1813C15.6641 19.1813 19.9873 17.2295 19.9873 14.8219C19.9873 12.4143 15.6641 10.4625 10.3311 10.4625C4.99806 10.4625 0.674805 12.4143 0.674805 14.8219C0.674805 17.2295 4.99806 19.1813 10.3311 19.1813Z" fill="#683C2F"/>
<path d="M10.3311 21.2813C15.6641 21.2813 19.9873 19.3295 19.9873 16.9219C19.9873 14.5143 15.6641 12.5625 10.3311 12.5625C4.99806 12.5625 0.674805 14.5143 0.674805 16.9219C0.674805 19.3295 4.99806 21.2813 10.3311 21.2813Z" fill="#A0432D"/>
<path d="M10.3313 20.5875C15.2604 20.5875 19.2563 18.6358 19.2563 16.2281C19.2563 13.8205 15.2604 11.8688 10.3313 11.8688C5.40211 11.8688 1.40625 13.8205 1.40625 16.2281C1.40625 18.6358 5.40211 20.5875 10.3313 20.5875Z" fill="#F05922"/>
<path d="M8.95312 18.6656V20.4938C9.79423 20.6963 10.6714 20.6963 11.5125 20.4938V18.6188L8.95312 18.6656Z" fill="#EFB9AC"/>
<path d="M3.81543 16.6875V18.5625C4.56687 18.9803 5.37089 19.2956 6.20605 19.5V16.6875H3.81543Z" fill="white"/>
<path d="M17.0154 16.5469V18.5531C16.2077 19.0325 15.3275 19.3776 14.4092 19.575V16.5469H17.0154Z" fill="white"/>
<path d="M10.3311 18.9187C15.6641 18.9187 19.9873 16.9669 19.9873 14.5593C19.9873 12.1517 15.6641 10.2 10.3311 10.2C4.99806 10.2 0.674805 12.1517 0.674805 14.5593C0.674805 16.9669 4.99806 18.9187 10.3311 18.9187Z" fill="#A0432D"/>
<path d="M10.3311 17.5593C15.6641 17.5593 19.9873 15.6076 19.9873 13.2C19.9873 10.7923 15.6641 8.84058 10.3311 8.84058C4.99806 8.84058 0.674805 10.7923 0.674805 13.2C0.674805 15.6076 4.99806 17.5593 10.3311 17.5593Z" fill="#683C2F"/>
<path d="M10.3312 18.0656C15.3846 18.0656 19.4812 16.2146 19.4812 13.9312C19.4812 11.6479 15.3846 9.79688 10.3312 9.79688C5.27775 9.79688 1.18115 11.6479 1.18115 13.9312C1.18115 16.2146 5.27775 18.0656 10.3312 18.0656Z" fill="#F05922"/>
<path d="M10.3314 16.7438C13.7694 16.7438 16.5564 15.4846 16.5564 13.9313C16.5564 12.378 13.7694 11.1188 10.3314 11.1188C6.89347 11.1188 4.10645 12.378 4.10645 13.9313C4.10645 15.4846 6.89347 16.7438 10.3314 16.7438Z" fill="white"/>
<path d="M11.9719 10.2L8.4375 10.275V17.6812" fill="white"/>
<path d="M18.478 13.1437H11.9718V10.2L8.4374 10.275V13.1437H1.93115L2.10928 14.7375H8.4374V17.6812H11.9718V14.7375H18.478V13.1437Z" fill="white"/>
<path d="M12.2532 17.8125H8.15635V14.8594H1.8751L1.67822 12.9844H8.24072V10.1719L12.3376 10.0781V13.0219H18.7501V14.8969H12.2532V17.8125ZM8.71885 17.55H11.6907V14.6062H18.197V13.2656H11.6907V10.3125L8.71885 10.3781V13.2469H2.22197L2.37197 14.5875H8.71885V17.55Z" fill="#F05922"/>
<path d="M14.803 10.7344L10.1999 12.8063L5.60615 10.7344L3.2249 11.9156L7.70615 13.9406L3.10303 16.0219L5.72803 17.0906L10.1999 15.0656L14.803 17.1469L17.3062 16.0219L12.703 13.9406L17.3062 11.8594L14.803 10.7344Z" fill="white"/>
<path d="M10.3125 17.8125C5.56875 17.8125 1.6875 16.0781 1.6875 13.9312C1.6875 11.7844 5.56875 10.0312 10.3125 10.0312C15.0562 10.0312 18.9469 11.775 18.9469 13.9312C18.9469 16.0875 15.0938 17.8125 10.3125 17.8125ZM10.3125 10.3594C5.97187 10.3594 2.4375 11.9531 2.4375 13.9125C2.4375 15.8719 5.97187 17.4656 10.3125 17.4656C14.6531 17.4656 18.1781 15.8719 18.1781 13.9125C18.1781 11.9531 14.6719 10.3781 10.3125 10.3781V10.3594Z" fill="#F05922"/>
<path d="M10.3313 16.7813C13.8159 16.7813 16.6407 15.5053 16.6407 13.9313C16.6407 12.3573 13.8159 11.0813 10.3313 11.0813C6.84678 11.0813 4.02197 12.3573 4.02197 13.9313C4.02197 15.5053 6.84678 16.7813 10.3313 16.7813Z" fill="white"/>
<path d="M10.3127 17.0344C6.5627 17.0344 3.4502 15.6375 3.4502 13.9312C3.4502 12.225 6.5627 10.8281 10.3127 10.8281C14.0627 10.8281 17.1752 12.225 17.1752 13.9312C17.1752 15.6375 14.1096 17.0344 10.3127 17.0344ZM10.3127 11.3344C7.14394 11.3344 4.56582 12.4969 4.56582 13.9312C4.56582 15.3656 7.1627 16.5281 10.3127 16.5281C13.4627 16.5281 16.0596 15.3656 16.0596 13.9312C16.0596 12.4969 13.5002 11.3344 10.3127 11.3344Z" fill="#F05922"/>
<path d="M13.7156 13.5656C12.7781 13.0125 10.3312 11.9625 10.3312 11.9625C10.3312 11.9625 7.88433 13.0125 6.94683 13.5656C6.00933 14.1188 6.80621 15.0656 9.75933 15.1688C9.70308 15.3563 9.44996 15.6469 8.37183 15.6469V15.9375H12.2437V15.6844C11.175 15.6844 10.9218 15.3938 10.8656 15.2063C13.8468 15.0656 14.5968 14.0625 13.7156 13.5656Z" fill="#F05922"/>
<path d="M19.9873 10.5375H0.674805V15.3469H19.9873V10.5375Z" fill="#683C2F"/>
<path d="M19.9873 10.4719H0.674805V12.4782H19.9873V10.4719Z" fill="#683C2F"/>
<path d="M10.3311 16.4625C15.6641 16.4625 19.9873 14.5108 19.9873 12.1031C19.9873 9.69553 15.6641 7.74377 10.3311 7.74377C4.99806 7.74377 0.674805 9.69553 0.674805 12.1031C0.674805 14.5108 4.99806 16.4625 10.3311 16.4625Z" fill="#683C2F"/>
<path d="M10.3311 18.4219C15.6641 18.4219 19.9873 16.4701 19.9873 14.0625C19.9873 11.6549 15.6641 9.70312 10.3311 9.70312C4.99806 9.70312 0.674805 11.6549 0.674805 14.0625C0.674805 16.4701 4.99806 18.4219 10.3311 18.4219Z" fill="#683C2F"/>
<path d="M10.3313 17.8688C15.2604 17.8688 19.2563 15.917 19.2563 13.5094C19.2563 11.1018 15.2604 9.15002 10.3313 9.15002C5.40211 9.15002 1.40625 11.1018 1.40625 13.5094C1.40625 15.917 5.40211 17.8688 10.3313 17.8688Z" fill="#F05922"/>
<path d="M8.95312 15.9375V17.8125C9.79423 18.0151 10.6714 18.0151 11.5125 17.8125V15.9375H8.95312Z" fill="white"/>
<path d="M3.81543 13.9688V15.8438C4.56553 16.2644 5.36995 16.5799 6.20605 16.7812V13.9688H3.81543Z" fill="white"/>
<path d="M17.0154 13.8281V15.8344C16.2089 16.3203 15.3286 16.6718 14.4092 16.875V13.8281H17.0154Z" fill="white"/>
<path d="M10.3311 16.2C15.6641 16.2 19.9873 14.2482 19.9873 11.8406C19.9873 9.43296 15.6641 7.4812 10.3311 7.4812C4.99806 7.4812 0.674805 9.43296 0.674805 11.8406C0.674805 14.2482 4.99806 16.2 10.3311 16.2Z" fill="#683C2F"/>
<path d="M10.3311 14.8313C15.6641 14.8313 19.9873 12.8795 19.9873 10.4719C19.9873 8.06431 15.6641 6.11255 10.3311 6.11255C4.99806 6.11255 0.674805 8.06431 0.674805 10.4719C0.674805 12.8795 4.99806 14.8313 10.3311 14.8313Z" fill="#683C2F"/>
<path d="M10.3312 15.3469C15.3846 15.3469 19.4812 13.4959 19.4812 11.2125C19.4812 8.92915 15.3846 7.07812 10.3312 7.07812C5.27775 7.07812 1.18115 8.92915 1.18115 11.2125C1.18115 13.4959 5.27775 15.3469 10.3312 15.3469Z" fill="#F05922"/>
<path d="M10.3314 14.025C13.7694 14.025 16.5564 12.7658 16.5564 11.2125C16.5564 9.65922 13.7694 8.40002 10.3314 8.40002C6.89347 8.40002 4.10645 9.65922 4.10645 11.2125C4.10645 12.7658 6.89347 14.025 10.3314 14.025Z" fill="white"/>
<path d="M11.9719 7.4812L8.4375 7.5562V14.9531" fill="white"/>
<path d="M18.478 10.425H11.9718V7.4812L8.4374 7.5562V10.425H1.93115L2.10928 12.0187H8.4374V14.9531H11.9718V12.0187H18.478V10.425Z" fill="white"/>
<path d="M12.2532 15.0844H8.15635V12.1875H1.8751L1.67822 10.3125H8.24072V7.43435L12.3376 7.34998V10.3125H18.7501V12.1875H12.2532V15.0844ZM8.71885 14.8312H11.6907V11.8875H18.197V10.5469H11.6907V7.61248L8.71885 7.6781V10.5469H2.22197L2.37197 11.8875H8.71885V14.8312Z" fill="#F05922"/>
<path d="M14.803 8.00623L10.1999 10.0875L5.60615 8.00623L3.2249 9.19685L7.70615 11.2219L3.10303 13.2937L5.72803 14.3719L10.1999 12.3469L14.803 14.4281L17.3062 13.2937L12.703 11.2219L17.3062 9.1406L14.803 8.00623Z" fill="white"/>
<path d="M10.3125 15.1125C5.56875 15.1125 1.6875 13.3594 1.6875 11.25C1.6875 9.1406 5.56875 7.3031 10.3125 7.3031C15.0562 7.3031 18.9656 9.05623 18.9656 11.25C18.9656 13.4437 15.0938 15.1125 10.3125 15.1125ZM10.3125 7.61248C5.97187 7.61248 2.4375 9.2156 2.4375 11.175C2.4375 13.1344 5.97187 14.7281 10.3125 14.7281C14.6531 14.7281 18.1781 13.1344 18.1781 11.175C18.1781 9.2156 14.6719 7.64998 10.3125 7.64998V7.61248Z" fill="#F05922"/>
<path d="M10.3313 14.0625C13.8159 14.0625 16.6407 12.7866 16.6407 11.2125C16.6407 9.63854 13.8159 8.36255 10.3313 8.36255C6.84678 8.36255 4.02197 9.63854 4.02197 11.2125C4.02197 12.7866 6.84678 14.0625 10.3313 14.0625Z" fill="white"/>
<path d="M10.3127 14.3063C6.5627 14.3063 3.4502 12.9188 3.4502 11.2125C3.4502 9.50625 6.5627 8.10938 10.3127 8.10938C14.0627 8.10938 17.1752 9.49688 17.1752 11.2125C17.1752 12.9281 14.1096 14.3063 10.3127 14.3063ZM10.3127 8.61562C7.14394 8.61562 4.56582 9.77813 4.56582 11.2125C4.56582 12.6469 7.1627 13.8094 10.3127 13.8094C13.4627 13.8094 16.0596 12.6375 16.0596 11.2125C16.0596 9.7875 13.5002 8.61562 10.3127 8.61562Z" fill="#F05922"/>
<path d="M13.7156 10.8469C12.7687 10.3125 10.3125 9.23438 10.3125 9.23438C10.3125 9.23438 7.88433 10.3125 6.94683 10.8469C6.00933 11.3812 6.80621 12.3469 9.75933 12.45C9.70308 12.6375 9.44996 12.9281 8.37183 12.9281V13.1813H12.2437V12.9281C11.175 12.9281 10.9218 12.6375 10.8656 12.45C13.8468 12.3469 14.5968 11.3719 13.7156 10.8469Z" fill="#F05922"/>
<path d="M19.9873 10.3969H0.674805V15.2062H19.9873V10.3969Z" fill="#683C2F"/>
<path d="M19.9873 10.3406H0.674805V12.3468H19.9873V10.3406Z" fill="#683C2F"/>
<path d="M10.3311 16.3219C15.6641 16.3219 19.9873 14.3701 19.9873 11.9625C19.9873 9.55491 15.6641 7.60315 10.3311 7.60315C4.99806 7.60315 0.674805 9.55491 0.674805 11.9625C0.674805 14.3701 4.99806 16.3219 10.3311 16.3219Z" fill="#683C2F"/>
<path d="M10.3311 18.4219C15.6641 18.4219 19.9873 16.4701 19.9873 14.0625C19.9873 11.6549 15.6641 9.70312 10.3311 9.70312C4.99806 9.70312 0.674805 11.6549 0.674805 14.0625C0.674805 16.4701 4.99806 18.4219 10.3311 18.4219Z" fill="#A0432D"/>
<path d="M10.3313 17.7281C15.2604 17.7281 19.2563 15.7764 19.2563 13.3688C19.2563 10.9612 15.2604 9.0094 10.3313 9.0094C5.40211 9.0094 1.40625 10.9612 1.40625 13.3688C1.40625 15.7764 5.40211 17.7281 10.3313 17.7281Z" fill="#F05922"/>
<path d="M8.95312 15.8063V17.6813C9.79423 17.8838 10.6714 17.8838 11.5125 17.6813V15.8063H8.95312Z" fill="#EFB9AC"/>
<path d="M3.81543 13.8375V15.7125C4.56687 16.1304 5.37089 16.4457 6.20605 16.65V13.8375H3.81543Z" fill="white"/>
<path d="M17.0154 13.6875V15.6937C16.2094 16.1787 15.3288 16.5271 14.4092 16.725V13.6875H17.0154Z" fill="white"/>
<path d="M10.3311 15.3093C15.6641 15.3093 19.9873 13.3576 19.9873 10.95C19.9873 8.54233 15.6641 6.59058 10.3311 6.59058C4.99806 6.59058 0.674805 8.54233 0.674805 10.95C0.674805 13.3576 4.99806 15.3093 10.3311 15.3093Z" fill="#683C2F"/>
<path d="M10.8374 13.7812C16.1704 13.7812 20.4937 11.8295 20.4937 9.42188C20.4937 7.01426 16.1704 5.0625 10.8374 5.0625C5.5044 5.0625 1.18115 7.01426 1.18115 9.42188C1.18115 11.8295 5.5044 13.7812 10.8374 13.7812Z" fill="#683C2F"/>
<path d="M10.3312 15.2062C15.3846 15.2062 19.4812 13.3552 19.4812 11.0719C19.4812 8.78852 15.3846 6.9375 10.3312 6.9375C5.27775 6.9375 1.18115 8.78852 1.18115 11.0719C1.18115 13.3552 5.27775 15.2062 10.3312 15.2062Z" fill="#F05922"/>
<path d="M10.3314 13.8844C13.7694 13.8844 16.5564 12.6252 16.5564 11.0719C16.5564 9.5186 13.7694 8.2594 10.3314 8.2594C6.89347 8.2594 4.10645 9.5186 4.10645 11.0719C4.10645 12.6252 6.89347 13.8844 10.3314 13.8844Z" fill="white"/>
<path d="M11.9719 7.34058L8.4375 7.42495V14.8218" fill="white"/>
<path d="M18.478 10.2843H11.9718V7.34058L8.4374 7.42495V10.2843H1.93115L2.10928 11.8781H8.4374V14.8218H11.9718V11.8781H18.478V10.2843Z" fill="white"/>
<path d="M12.2532 14.9438H8.15635V12.0094H1.8751L1.67822 10.1344H8.24072V7.3219L12.3376 7.22815V10.1813H18.7501V12.0563H12.2532V14.9438ZM8.71885 14.6906H11.6907V11.7563H18.197V10.4063H11.6907V7.50002L8.71885 7.5469V10.3594H2.22197L2.37197 11.7094H8.71885V14.6906Z" fill="#F05922"/>
<path d="M14.803 7.875L10.1999 9.95625L5.60615 7.875L3.2249 9.05625L7.70615 11.0813L3.10303 13.1625L5.72803 14.2313L10.1999 12.2156L14.803 14.2875L17.3062 13.1625L12.703 11.0813L17.3062 9L14.803 7.875Z" fill="white"/>
<path d="M10.3125 15C5.56875 15 1.6875 13.2281 1.6875 11.0719C1.6875 8.91563 5.56875 7.17188 10.3125 7.17188C15.0562 7.17188 18.9469 8.925 18.9469 11.0719C18.9469 13.2188 15.0938 15 10.3125 15ZM10.3125 7.5C5.97187 7.5 2.4375 9.09375 2.4375 11.0531C2.4375 13.0125 5.97187 14.6156 10.3125 14.6156C14.6531 14.6156 18.1781 13.0125 18.1781 11.0531C18.1781 9.09375 14.6719 7.5 10.3125 7.5Z" fill="#F05922"/>
<path d="M10.3313 13.9219C13.8159 13.9219 16.6407 12.6459 16.6407 11.0719C16.6407 9.49791 13.8159 8.22192 10.3313 8.22192C6.84678 8.22192 4.02197 9.49791 4.02197 11.0719C4.02197 12.6459 6.84678 13.9219 10.3313 13.9219Z" fill="white"/>
<path d="M10.3127 14.175C6.5627 14.175 3.4502 12.7875 3.4502 11.0719C3.4502 9.35627 6.5627 7.97815 10.3127 7.97815C14.0627 7.97815 17.1752 9.36565 17.1752 11.0719C17.1752 12.7781 14.1096 14.175 10.3127 14.175ZM10.3127 8.43752C7.14394 8.43752 4.56582 9.6094 4.56582 11.0344C4.56582 12.4594 7.1627 13.6688 10.3127 13.6688C13.4627 13.6688 16.0596 12.5063 16.0596 11.0719C16.0596 9.63752 13.5002 8.43752 10.3127 8.43752Z" fill="#F05922"/>
<path d="M13.7156 10.7156C12.7781 10.1531 10.3312 9.10315 10.3312 9.10315C10.3312 9.10315 7.88433 10.1531 6.94683 10.7156C6.00933 11.2781 6.80621 12.2156 9.75933 12.3094C9.70308 12.4969 9.44996 12.7875 8.37183 12.7875V13.0406H12.2437V12.7875C11.175 12.7875 10.9218 12.4969 10.8656 12.3094C13.8468 12.1875 14.5968 11.25 13.7156 10.7156Z" fill="#F05922"/>
<path d="M19.9873 7.07812H0.674805V11.8875H19.9873V7.07812Z" fill="#683C2F"/>
<path d="M19.9873 7.01245H0.674805V9.0187H19.9873V7.01245Z" fill="#683C2F"/>
<path d="M10.3311 13.0032C15.6641 13.0032 19.9873 11.0514 19.9873 8.6438C19.9873 6.23618 15.6641 4.28442 10.3311 4.28442C4.99806 4.28442 0.674805 6.23618 0.674805 8.6438C0.674805 11.0514 4.99806 13.0032 10.3311 13.0032Z" fill="#683C2F"/>
<path d="M10.3311 15.1594C15.6641 15.1594 19.9873 13.2077 19.9873 10.8C19.9873 8.39243 15.6641 6.44067 10.3311 6.44067C4.99806 6.44067 0.674805 8.39243 0.674805 10.8C0.674805 13.2077 4.99806 15.1594 10.3311 15.1594Z" fill="#A0432D"/>
<path d="M10.3313 14.4094C15.2604 14.4094 19.2563 12.4577 19.2563 10.05C19.2563 7.64243 15.2604 5.69067 10.3313 5.69067C5.40211 5.69067 1.40625 7.64243 1.40625 10.05C1.40625 12.4577 5.40211 14.4094 10.3313 14.4094Z" fill="#F05922"/>
<path d="M8.95312 12.4875V14.3157C9.79423 14.5182 10.6714 14.5182 11.5125 14.3157V12.4407L8.95312 12.4875Z" fill="#EFB9AC"/>
<path d="M3.81543 10.5094V12.3375C4.56553 12.7582 5.36995 13.0737 6.20605 13.275V10.5094H3.81543Z" fill="white"/>
<path d="M17.0154 10.3688V12.375C16.2077 12.8544 15.3275 13.1995 14.4092 13.3969V10.3688H17.0154Z" fill="white"/>
<path d="M10.3311 12.7406C15.6641 12.7406 19.9873 10.7888 19.9873 8.38123C19.9873 5.97361 15.6641 4.02185 10.3311 4.02185C4.99806 4.02185 0.674805 5.97361 0.674805 8.38123C0.674805 10.7888 4.99806 12.7406 10.3311 12.7406Z" fill="#A0432D"/>
<path d="M10.3311 11.3718C15.6641 11.3718 19.9873 9.42007 19.9873 7.01245C19.9873 4.60483 15.6641 2.65308 10.3311 2.65308C4.99806 2.65308 0.674805 4.60483 0.674805 7.01245C0.674805 9.42007 4.99806 11.3718 10.3311 11.3718Z" fill="#683C2F"/>
<path d="M10.3312 11.8875C15.3846 11.8875 19.4812 10.0365 19.4812 7.75315C19.4812 5.4698 15.3846 3.61877 10.3312 3.61877C5.27775 3.61877 1.18115 5.4698 1.18115 7.75315C1.18115 10.0365 5.27775 11.8875 10.3312 11.8875Z" fill="#F05922"/>
<path d="M10.3314 10.5657C13.7694 10.5657 16.5564 9.30648 16.5564 7.75317C16.5564 6.19987 13.7694 4.94067 10.3314 4.94067C6.89347 4.94067 4.10645 6.19987 4.10645 7.75317C4.10645 9.30648 6.89347 10.5657 10.3314 10.5657Z" fill="white"/>
<path d="M11.9719 4.02185L8.4375 4.09685V11.4937" fill="white"/>
<path d="M18.478 6.95623H11.9718V4.02185L8.4374 4.09685V6.95623H1.93115L2.10928 8.55935H8.4374V11.4937H11.9718V8.55935H18.478V6.95623Z" fill="white"/>
<path d="M12.2532 11.625H8.15635V8.6813H1.8751L1.67822 6.8063H8.24072V3.9938L12.3376 3.90942V6.83442H18.7501V8.70942H12.2532V11.625ZM8.71885 11.3719H11.6907V8.43755H18.197V7.08755H11.6907V4.15317L8.71885 4.2188V7.08755H2.22197L2.37197 8.43755H8.71885V11.3719Z" fill="#F05922"/>
<path d="M14.803 4.55627L10.1999 6.62815L5.60615 4.55627L3.2249 5.73752L7.70615 7.76252L3.10303 9.8344L5.72803 10.9125L10.1999 8.88752L14.803 10.9688L17.3062 9.8344L12.703 7.76252L17.3062 5.68127L14.803 4.55627Z" fill="white"/>
<path d="M10.3127 11.6531C5.5502 11.6531 1.66895 9.9 1.66895 7.75313C1.66895 5.60625 5.56895 3.84375 10.3127 3.84375C15.0564 3.84375 18.9658 5.625 18.9658 7.75313C18.9658 9.88125 15.0939 11.6531 10.3127 11.6531ZM10.3127 4.15312C5.97207 4.15312 2.4377 5.75625 2.4377 7.71562C2.4377 9.675 5.97207 11.2688 10.3127 11.2688C14.6533 11.2688 18.1783 9.675 18.1783 7.71562C18.1783 5.75625 14.6721 4.19062 10.3127 4.19062V4.15312Z" fill="#F05922"/>
<path d="M10.3313 10.6031C13.8159 10.6031 16.6407 9.32709 16.6407 7.75308C16.6407 6.17906 13.8159 4.90308 10.3313 4.90308C6.84678 4.90308 4.02197 6.17906 4.02197 7.75308C4.02197 9.32709 6.84678 10.6031 10.3313 10.6031Z" fill="white"/>
<path d="M10.3127 10.8469C6.5627 10.8469 3.4502 9.45938 3.4502 7.75313C3.4502 6.04688 6.5627 4.6875 10.3127 4.6875C14.0627 4.6875 17.1752 6.075 17.1752 7.79063C17.1752 9.50625 14.1096 10.8469 10.3127 10.8469ZM10.3127 5.15625C7.14394 5.15625 4.56582 6.31875 4.56582 7.75313C4.56582 9.1875 7.1627 10.3125 10.3127 10.3125C13.4627 10.3125 16.0596 9.14062 16.0596 7.71562C16.0596 6.29062 13.5002 5.15625 10.3127 5.15625Z" fill="#F05922"/>
<path d="M13.7156 7.38752C12.7781 6.82502 10.3312 5.77502 10.3312 5.77502C10.3312 5.77502 7.88433 6.82502 6.94683 7.38752C6.00933 7.95002 6.80621 8.88752 9.75933 8.99065C9.70308 9.17815 9.44996 9.46877 8.37183 9.46877V9.7219H12.2437V9.46877C11.175 9.46877 10.9218 9.17815 10.8656 8.99065C13.8468 8.88752 14.5968 7.91252 13.7156 7.38752Z" fill="#F05922"/>
<path d="M29.4937 18.75C29.6371 19.9908 29.5133 21.2479 29.1307 22.4369C28.7481 23.6259 28.1156 24.7193 27.2756 25.6436C26.4356 26.568 25.4075 27.302 24.2604 27.7963C23.1133 28.2905 21.8738 28.5337 20.625 28.5094C17.8601 28.4973 15.2105 27.4 13.2467 25.4537C11.2829 23.5074 10.1618 20.8678 10.125 18.1031C10.1266 16.8854 10.3816 15.6813 10.8739 14.5674C11.3662 13.4536 12.0849 12.4544 12.9843 11.6334C13.8838 10.8125 14.9442 10.1877 16.0983 9.79889C17.2523 9.41008 18.4746 9.26572 19.6875 9.37501C22.1539 9.56288 24.479 10.5997 26.267 12.3091C28.0549 14.0184 29.1952 16.2945 29.4937 18.75Z" fill="#342F68"/>
<path d="M28.4625 18.8531C28.5846 19.9652 28.4673 21.0906 28.1183 22.1536C27.7693 23.2166 27.1968 24.1926 26.4392 25.0159C25.6816 25.8392 24.7565 26.4908 23.7262 26.9268C22.6958 27.3628 21.584 27.5732 20.4656 27.5437C18.0028 27.5246 15.6449 26.5448 13.8938 24.813C12.1427 23.0812 11.1369 20.7342 11.0906 18.2718C11.0819 17.172 11.3039 16.0826 11.7424 15.0739C12.1808 14.0653 12.826 13.1598 13.6361 12.4159C14.4462 11.672 15.4034 11.1063 16.4457 10.7553C17.488 10.4043 18.5924 10.2758 19.6875 10.3781C21.9075 10.5495 23.9984 11.4896 25.6 13.0365C27.2017 14.5834 28.2139 16.6403 28.4625 18.8531Z" fill="#6780F0"/>
<path d="M25.8282 18.75C25.8994 19.5056 25.8085 20.2676 25.5617 20.9853C25.3149 21.7029 24.9178 22.3596 24.3969 22.9116C23.876 23.4635 23.2434 23.898 22.5412 24.1859C21.839 24.4738 21.0835 24.6086 20.3251 24.5813C18.6869 24.5347 17.1279 23.8663 15.9647 22.7118C14.8016 21.5573 14.1215 20.0034 14.0626 18.3656C14.0446 17.6184 14.1836 16.8757 14.4706 16.1855C14.7575 15.4953 15.1861 14.873 15.7286 14.3587C16.2711 13.8445 16.9154 13.4498 17.62 13.2002C18.3245 12.9505 19.0736 12.8515 19.8188 12.9094C21.3443 13.0296 22.7798 13.6791 23.8772 14.7456C24.9745 15.8121 25.6646 17.2286 25.8282 18.75Z" fill="white"/>
<path d="M21.178 11.2312L17.9624 11.1937L18.5437 26.6625" fill="white"/>
<path d="M27.4313 17.2406L21.497 17.0062L21.1782 11.2312L17.9626 11.1937L18.1782 16.875L11.8501 16.6312L12.0376 20.025L18.3001 20.2031L18.5438 26.6625L22.0313 26.6812L21.6845 20.2969L27.7126 20.4656L27.4313 17.2406Z" fill="white"/>
<path d="M22.3221 26.9625H18.2721L18.0377 20.4844L11.7752 20.3156L11.5596 16.3781L17.9064 16.6312L17.7002 11.0062L21.4502 11.0531L21.7783 16.8187L27.6939 17.0531L28.0314 20.8031L21.9939 20.6437L22.3221 26.9625ZM18.8064 26.3719H21.7502L21.4033 19.9969L27.4408 20.1656L27.1877 17.475L21.2346 17.25L20.9252 11.475H18.2158L18.4314 17.175L12.1877 16.875L12.3471 19.6875L18.6002 19.8656L18.8064 26.3719Z" fill="#6780F0"/>
<path d="M23.7844 12.3844L19.8187 16.275L15.3469 11.925L13.1062 14.1657L17.5313 18.4969L13.0781 22.8657L15.7687 25.3125L20.0344 20.9532L24.7031 25.5282L26.8687 23.1188L22.275 18.6563L26.175 14.6719L23.7844 12.3844Z" fill="white"/>
<path d="M20.4376 27.0282C18.1211 26.9948 15.9078 26.0649 14.2627 24.4338C12.6176 22.8026 11.6688 20.5973 11.6157 18.2813C11.6043 17.2447 11.8095 16.2172 12.2182 15.2645C12.6268 14.3119 13.23 13.4551 13.989 12.749C14.748 12.043 15.6461 11.5032 16.6258 11.1644C17.6055 10.8255 18.6452 10.6951 19.6782 10.7813C21.7846 10.9345 23.771 11.8198 25.2932 13.2838C26.8153 14.7477 27.7774 16.6981 28.0126 18.7969C28.128 19.8503 28.0166 20.9161 27.6859 21.9229C27.3552 22.9296 26.8129 23.8539 26.0953 24.6337C25.3777 25.4134 24.5016 26.0305 23.5257 26.4435C22.5498 26.8565 21.4969 27.0559 20.4376 27.0282ZM19.6876 11.475C18.748 11.3994 17.8031 11.5205 16.913 11.8306C16.0229 12.1408 15.2073 12.6332 14.5183 13.2763C13.8293 13.9195 13.2819 14.6993 12.9113 15.5659C12.5406 16.4325 12.3548 17.3669 12.3657 18.3094C12.4188 20.4148 13.2852 22.4179 14.7832 23.8983C16.2811 25.3788 18.2942 26.2216 20.4001 26.25C21.3608 26.2775 22.3163 26.0999 23.2029 25.7288C24.0895 25.3578 24.8868 24.8019 25.5416 24.0984C26.1964 23.3948 26.6936 22.5597 27.0001 21.6487C27.3065 20.7378 27.4152 19.7719 27.3188 18.8157C27.1119 16.8905 26.2336 15.0998 24.8382 13.7575C23.4428 12.4152 21.6193 11.6071 19.6876 11.475Z" fill="#6780F0"/>
<path d="M25.903 18.75C25.9757 19.5157 25.8839 20.2882 25.6338 21.0156C25.3837 21.743 24.9812 22.4086 24.453 22.9678C23.9249 23.527 23.2834 23.9669 22.5714 24.2581C21.8595 24.5493 21.0935 24.685 20.3249 24.6562C18.6599 24.6123 17.0739 23.937 15.8884 22.7672C14.7029 21.5973 14.0065 20.0204 13.9405 18.3562C13.9224 17.5995 14.0634 16.8474 14.3542 16.1486C14.6451 15.4498 15.0793 14.8198 15.6289 14.2993C16.1786 13.7789 16.8313 13.3796 17.5449 13.1272C18.2585 12.8749 19.0172 12.7751 19.7718 12.8343C21.3304 12.9296 22.8041 13.5776 23.9279 14.6619C25.0517 15.7462 25.752 17.1957 25.903 18.75Z" fill="white"/>
<path d="M20.3529 25.2281C18.5324 25.1885 16.7962 24.4533 15.5008 23.1736C14.2054 21.8939 13.4492 20.1667 13.3873 18.3469C13.3717 17.5244 13.5284 16.7078 13.8472 15.9495C14.166 15.1912 14.64 14.508 15.2386 13.9438C15.8373 13.3796 16.5473 12.9469 17.3232 12.6735C18.099 12.4001 18.9234 12.292 19.7435 12.3563C21.4285 12.4696 23.0199 13.1724 24.2387 14.3414C25.4574 15.5105 26.2258 17.0712 26.4092 18.75C26.4923 19.5854 26.3962 20.429 26.1271 21.2242C25.858 22.0195 25.4223 22.7481 24.8489 23.3614C24.2756 23.9746 23.5779 24.4584 22.8025 24.7804C22.0272 25.1023 21.192 25.255 20.3529 25.2281ZM19.7904 13.3406C19.1032 13.2893 18.4128 13.3826 17.7638 13.6145C17.1149 13.8464 16.5217 14.2118 16.0226 14.687C15.5235 15.1622 15.1296 15.7368 14.8662 16.3736C14.6029 17.0105 14.4759 17.6955 14.4935 18.3844C14.5505 19.8999 15.1837 21.3366 16.2639 22.4011C17.3441 23.4656 18.7898 24.0778 20.306 24.1125C21.0045 24.138 21.7003 24.0144 22.3473 23.7501C22.9942 23.4857 23.5775 23.0866 24.0582 22.5792C24.5389 22.0719 24.9061 21.4681 25.1352 20.8078C25.3644 20.1475 25.4503 19.4461 25.3873 18.75C25.2515 17.3295 24.6131 16.0042 23.5871 15.0125C22.561 14.0208 21.2147 13.428 19.7904 13.3406Z" fill="#6780F0"/>
<path d="M23.1656 17.9344C22.2281 16.7718 19.8563 14.5687 19.8563 14.5687C18.7679 15.5514 17.738 16.5969 16.7719 17.7C15.9469 18.7781 16.7719 20.8687 19.6313 21.1594C19.6313 21.5531 19.3688 22.1812 18.3281 22.1531V22.7062H20.1469H20.2875H22.0875V22.1625C21.7664 22.193 21.4457 22.1006 21.1899 21.904C20.9342 21.7075 20.7625 21.4213 20.7094 21.1031C23.4938 21.0375 24.0563 19.0406 23.1656 17.9344Z" fill="#6780F0"/>
</g>
<defs>
<clipPath id="clip0_1_15845">
<rect width="30" height="30" fill="white"/>
</clipPath>
</defs>
</svg>
