<svg width="30" height="30" viewBox="0 0 30 30" fill="none" xmlns="http://www.w3.org/2000/svg">
<g clip-path="url(#clip0_1_13674)">
<path d="M20.7281 4.05019C21.0375 3.93769 16.0406 0.825188 9.01872 2.12831C1.99685 3.43144 0.58122 8.87831 1.98747 11.9439C3.39372 15.0096 6.44997 16.3877 9.8156 14.4564C13.1812 12.5252 17.625 5.23144 20.7281 4.05019Z" fill="#16577F"/>
<path d="M18.4596 4.61271C18.7502 4.50959 13.3877 1.43459 7.7158 2.81271C2.04393 4.19084 1.20018 8.89709 2.51268 11.4377C3.82518 13.9783 6.41268 15.0377 9.07518 13.2565C11.7377 11.4752 15.9846 5.74709 18.4596 4.61271Z" fill="#1389E3"/>
<path d="M16.6784 4.53736C14.9303 3.73664 13.0177 3.36085 11.0967 3.44069C9.17565 3.52053 7.30077 4.05373 5.62523 4.99674C-0.0841482 8.23111 4.5096 14.0624 7.1346 12.8061C9.7596 11.5499 13.1252 6.41236 16.6784 4.53736Z" fill="#7BC9DB"/>
<path d="M13.7437 4.62193C13.7437 4.62193 7.62187 4.05006 4.62187 6.73131C1.62187 9.41256 5.71874 13.2938 9.00937 10.0407C10.7412 8.37474 12.3253 6.56169 13.7437 4.62193Z" fill="url(#paint0_linear_1_13674)"/>
<path d="M29.8029 7.27479C30.0092 7.19041 26.5873 5.07166 21.9186 6.03729C17.2498 7.00291 16.4061 10.8185 17.3998 12.9279C18.3936 15.0373 20.4842 15.9842 22.6967 14.606C24.9092 13.2279 27.7498 8.12791 29.8029 7.27479Z" fill="#16577F"/>
<path d="M28.772 7.3596C28.9408 7.2846 25.3689 5.04397 21.4502 5.8596C17.5314 6.67522 16.8189 9.86272 17.6533 11.644C18.4877 13.4252 20.2408 14.2033 22.097 13.0502C23.9533 11.8971 27.0377 8.0721 28.772 7.3596Z" fill="#1389E3"/>
<path d="M27.5438 7.25624C26.3724 6.6587 25.076 6.34717 23.761 6.34717C22.446 6.34717 21.1496 6.6587 19.9782 7.25624C15.9657 9.33749 18.9563 13.4531 20.7938 12.6562C22.6313 11.8594 25.0407 8.43749 27.5438 7.25624Z" fill="#7BC9DB"/>
<path d="M25.5375 7.23745C25.5375 7.23745 21.3563 6.6937 19.2281 8.43745C17.1 10.1812 19.8094 12.9749 22.1531 10.8093C23.3824 9.71877 24.5148 8.52366 25.5375 7.23745Z" fill="url(#paint1_linear_1_13674)"/>
<path d="M15.7405 13.7998C15.7405 13.7998 7.06859 17.1092 4.59359 22.0217C2.11859 26.9342 8.34359 30.5154 12.3186 27.3936C16.2936 24.2717 15.7405 13.7998 15.7405 13.7998Z" fill="#16577F"/>
<path d="M14.4655 15.1875C14.4655 15.1875 7.71553 17.8125 5.78428 21.5625C3.85303 25.3125 8.69053 28.1812 11.803 25.7437C14.9155 23.3062 14.4655 15.1875 14.4655 15.1875Z" fill="#1389E3"/>
<path d="M13.8842 16.2002C13.8842 16.2002 8.58736 18.2158 7.07799 21.2158C5.56861 24.2158 9.35611 26.4002 11.7655 24.4877C14.1749 22.5752 13.8842 16.2002 13.8842 16.2002Z" fill="#7BC9DB"/>
<path d="M13.2468 17.2217C13.2468 17.2217 9.49679 18.6654 8.39054 20.8029C7.28429 22.9404 10.0124 24.5061 11.7562 23.1467C13.4999 21.7873 13.2468 17.2217 13.2468 17.2217Z" fill="url(#paint2_linear_1_13674)"/>
<path d="M23.9719 24.4592C24.8348 24.5105 25.6719 24.7734 26.4093 25.2246C27.1466 25.6759 27.7616 26.3016 28.2 27.0467C28.3036 27.2115 28.3725 27.3957 28.4026 27.5879C28.4327 27.7802 28.4233 27.9767 28.3751 28.1652C28.3268 28.3538 28.2407 28.5306 28.122 28.6848C28.0033 28.839 27.8544 28.9675 27.6844 29.0623C26.4746 29.7204 25.1194 30.0651 23.7422 30.0651C22.365 30.0651 21.0098 29.7204 19.8 29.0623C19.4469 28.8415 19.1943 28.4912 19.0961 28.0865C18.998 27.6818 19.0622 27.2547 19.275 26.8967C19.7754 26.1163 20.4714 25.4807 21.2938 25.053C22.1163 24.6254 23.0364 24.4206 23.9625 24.4592H23.9719Z" fill="#425763"/>
<path d="M23.9341 25.0315C24.6574 25.0656 25.3626 25.2691 25.9928 25.6258C26.623 25.9824 27.1606 26.4821 27.5623 27.0846C27.6571 27.2158 27.7215 27.3666 27.7506 27.5259C27.7798 27.6852 27.773 27.8489 27.7308 28.0053C27.6885 28.1616 27.6119 28.3065 27.5066 28.4294C27.4012 28.5524 27.2697 28.6502 27.1216 28.7159C26.0499 29.217 24.8779 29.4665 23.695 29.4454C22.5121 29.4243 21.3497 29.133 20.2966 28.594C20.1555 28.5205 20.0319 28.4175 19.9343 28.292C19.8366 28.1664 19.7671 28.0213 19.7307 27.8664C19.6942 27.7116 19.6915 27.5507 19.7229 27.3948C19.7542 27.2388 19.8188 27.0914 19.9123 26.9627C20.3611 26.3325 20.9613 25.8252 21.6576 25.4878C22.3538 25.1503 23.1238 24.9934 23.8966 25.0315H23.9341Z" fill="#A2B6BA"/>
<path d="M23.9158 25.1154C24.5062 25.1405 25.0822 25.3048 25.5971 25.5948C26.1119 25.8848 26.5509 26.2923 26.8783 26.7842C26.9488 26.8945 26.9954 27.0184 27.0151 27.1478C27.0348 27.2772 27.0272 27.4093 26.9927 27.5356C26.9583 27.6619 26.8978 27.7795 26.8151 27.881C26.7324 27.9825 26.6294 28.0656 26.5127 28.1248C25.6395 28.5327 24.6846 28.7355 23.7211 28.7176C22.7575 28.6998 21.8108 28.4617 20.9533 28.0217C20.841 27.959 20.7428 27.8739 20.6648 27.7717C20.5868 27.6694 20.5307 27.5522 20.4999 27.4274C20.4691 27.3025 20.4644 27.1727 20.4859 27.0459C20.5075 26.9191 20.5549 26.7981 20.6252 26.6904C20.99 26.1765 21.4784 25.7627 22.0453 25.4875C22.6123 25.2122 23.2395 25.0842 23.8689 25.1154H23.9158Z" fill="#87999B"/>
<path d="M23.5501 27.7594C26.9052 27.7594 29.6251 25.0395 29.6251 21.6844C29.6251 18.3292 26.9052 15.6094 23.5501 15.6094C20.195 15.6094 17.4751 18.3292 17.4751 21.6844C17.4751 25.0395 20.195 27.7594 23.5501 27.7594Z" fill="#425763"/>
<path d="M23.5499 26.8874C26.5322 26.8874 28.9499 24.4697 28.9499 21.4874C28.9499 18.5051 26.5322 16.0874 23.5499 16.0874C20.5676 16.0874 18.1499 18.5051 18.1499 21.4874C18.1499 24.4697 20.5676 26.8874 23.5499 26.8874Z" fill="#A2B6BA"/>
<path d="M23.7658 26.0248C26.5203 26.0248 28.7533 23.7918 28.7533 21.0373C28.7533 18.2828 26.5203 16.0498 23.7658 16.0498C21.0113 16.0498 18.7783 18.2828 18.7783 21.0373C18.7783 23.7918 21.0113 26.0248 23.7658 26.0248Z" fill="#CBDEE4"/>
<path d="M26.5032 20.6158C27.1142 20.6158 27.6095 20.1205 27.6095 19.5096C27.6095 18.8986 27.1142 18.4033 26.5032 18.4033C25.8923 18.4033 25.397 18.8986 25.397 19.5096C25.397 20.1205 25.8923 20.6158 26.5032 20.6158Z" fill="#425763"/>
<path d="M26.5499 20.1096C26.9175 20.1096 27.2155 19.8116 27.2155 19.4439C27.2155 19.0763 26.9175 18.7783 26.5499 18.7783C26.1823 18.7783 25.8843 19.0763 25.8843 19.4439C25.8843 19.8116 26.1823 20.1096 26.5499 20.1096Z" fill="#4ED154"/>
<path d="M22.5468 19.0781C22.634 18.5277 22.8328 18.0009 23.1311 17.5302C23.4293 17.0594 23.8207 16.6546 24.2812 16.3406C24.478 16.2281 24.4405 16.1062 24.2249 16.0781H23.9343C23.6999 16.0781 22.0593 16.1531 21.478 19.1625L22.5468 19.0781Z" fill="#A2B6BA"/>
<path d="M25.3124 22.1439C25.3124 20.2489 23.8769 18.7127 22.1062 18.7127C20.3354 18.7127 18.8999 20.2489 18.8999 22.1439C18.8999 24.039 20.3354 25.5752 22.1062 25.5752C23.8769 25.5752 25.3124 24.039 25.3124 22.1439Z" fill="#425763"/>
<path d="M24.7095 22.084C24.7147 20.6394 23.6235 19.4643 22.2722 19.4594C20.9208 19.4544 19.821 20.6215 19.8157 22.066C19.8104 23.5106 20.9016 24.6857 22.253 24.6906C23.6044 24.6956 24.7042 23.5285 24.7095 22.084Z" fill="#3587C4"/>
<path d="M24.3067 21.9884C24.3111 20.7872 23.4038 19.81 22.2803 19.8059C21.1567 19.8018 20.2424 20.7722 20.238 21.9735C20.2335 23.1747 21.1408 24.1518 22.2643 24.1559C23.3879 24.16 24.3023 23.1896 24.3067 21.9884Z" fill="#4DA3EC"/>
<path d="M23.4179 20.9857C23.4191 20.6699 23.1514 20.4129 22.82 20.4117C22.4886 20.4105 22.2191 20.6655 22.2179 20.9814C22.2168 21.2972 22.4844 21.5542 22.8158 21.5554C23.1472 21.5566 23.4168 21.3016 23.4179 20.9857Z" fill="white"/>
<path d="M23.6908 17.5124C23.9356 17.2473 24.1988 16.9999 24.4783 16.7718C24.5302 16.7299 24.5913 16.7012 24.6566 16.6882C24.7219 16.6751 24.7894 16.6781 24.8533 16.6968C25.3899 16.8545 25.9036 17.0814 26.3815 17.3718C26.4601 17.4214 26.5201 17.4957 26.5522 17.583C26.5842 17.6703 26.5865 17.7658 26.5587 17.8545C26.5309 17.9433 26.4746 18.0204 26.3984 18.0738C26.3223 18.1272 26.2306 18.154 26.1377 18.1499C25.4406 18.1056 24.7409 18.1245 24.0471 18.2061C23.9639 18.213 23.8805 18.1951 23.8074 18.1546C23.7344 18.114 23.6751 18.0527 23.6369 17.9784C23.5988 17.9041 23.5835 17.8202 23.5931 17.7372C23.6027 17.6543 23.6367 17.576 23.6908 17.5124Z" fill="#E1F0F4"/>
</g>
<defs>
<linearGradient id="paint0_linear_1_13674" x1="14.2014" y1="6.47125" x2="3.57993" y2="9.20875" gradientUnits="userSpaceOnUse">
<stop stop-color="white"/>
<stop offset="1" stop-color="#7BC9DB"/>
</linearGradient>
<linearGradient id="paint1_linear_1_13674" x1="46.317" y1="19.1708" x2="38.9578" y2="20.7478" gradientUnits="userSpaceOnUse">
<stop stop-color="white"/>
<stop offset="1" stop-color="#7BC9DB"/>
</linearGradient>
<linearGradient id="paint2_linear_1_13674" x1="13.8156" y1="20.0256" x2="8.02744" y2="21.1478" gradientUnits="userSpaceOnUse">
<stop stop-color="white"/>
<stop offset="1" stop-color="#7BC9DB"/>
</linearGradient>
<clipPath id="clip0_1_13674">
<rect width="30" height="30" fill="white"/>
</clipPath>
</defs>
</svg>
