<svg width="30" height="30" viewBox="0 0 30 30" fill="none" xmlns="http://www.w3.org/2000/svg">
<g clip-path="url(#clip0_1_17805)">
<path d="M23.3438 0.562329L9.28128 8.81233C6.75003 10.3123 5.81253 13.1248 6.84378 15.7498C7.50003 17.3436 8.71878 19.1248 11.0625 20.7186C13.5 22.4061 15.9375 23.0623 18.0938 23.1561C21.9375 23.4373 25.125 21.4686 25.6875 18.2811L28.4063 2.81233C28.7813 0.468579 25.6875 -0.843921 23.3438 0.562329Z" fill="#853E96"/>
<path d="M19.2438 28.9001C20.716 26.8339 18.2178 22.5283 13.6637 19.2834C9.1097 16.0384 4.22443 15.0828 2.75218 17.149C1.27992 19.2152 3.7782 23.5207 8.33223 26.7657C12.8863 30.0106 17.7715 30.9662 19.2438 28.9001Z" fill="#853E96"/>
<path d="M22.406 1.96863L9.84351 9.37488C7.59351 10.6874 6.74976 13.2186 7.68726 15.6561C8.24976 17.1561 9.37476 18.6561 11.4373 20.1561C13.5935 21.6561 15.8435 22.2186 17.8123 22.3124C21.281 22.4999 24.0935 20.8124 24.656 17.9999L26.9998 4.03113C27.281 1.87488 24.5623 0.749879 22.406 1.96863Z" fill="#581F66"/>
<path d="M18.9959 27.6902C20.1677 26.0457 17.7335 22.3012 13.5589 19.3266C9.3844 16.352 5.05035 15.2738 3.87856 16.9183C2.70676 18.5629 5.14096 22.3073 9.31549 25.2819C13.49 28.2565 17.8241 29.3347 18.9959 27.6902Z" fill="#581F66"/>
<path d="M18.08 27.0374C18.8312 25.9832 16.4662 23.0096 12.7977 20.3956C9.12914 17.7815 5.54629 16.5171 4.79514 17.5712C4.04399 18.6254 6.40898 21.599 10.0775 24.2131C13.746 26.8271 17.3289 28.0915 18.08 27.0374Z" fill="#A94DBC"/>
<path d="M14.5313 22.1252L9.93755 19.219C8.43755 18.2815 6.93755 17.8127 6.00005 18.0002C5.25005 18.1877 5.62505 19.219 6.56255 19.8752L15.4688 25.8752C16.7813 26.719 18.0938 26.719 17.8126 25.8752C17.5313 24.6565 16.3126 23.2502 14.5313 22.1252Z" fill="#A94DBC"/>
<path d="M15 23.25L8.4375 19.0312L10.9687 14.625L18.375 18.8438L15 23.25Z" fill="#581F66"/>
<path d="M21.9373 3.18772L11.3436 9.75022C9.46855 10.969 8.71855 13.1252 9.46855 15.094C9.9373 16.3127 10.7811 17.6252 12.5623 18.844C14.3436 20.0627 16.1248 20.5315 17.7186 20.6252C20.5311 20.719 22.9686 19.219 23.4373 16.7815L25.6873 4.87522C25.9686 3.00022 23.7186 2.06272 21.9373 3.18772Z" fill="#A94DBC"/>
<path d="M14.8994 23.5918C15.3802 22.9172 14.3 21.3229 12.4868 20.0309C10.6737 18.7389 8.81408 18.2385 8.33334 18.9132C7.8526 19.5878 8.93276 21.1821 10.7459 22.4741C12.5591 23.7661 14.4187 24.2665 14.8994 23.5918Z" fill="#581F66"/>
<path d="M12.8437 19.4063C12.8437 19.4063 17.7188 21.375 19.875 16.9688C22.0313 12.5625 24.6562 2.71875 24.6562 2.71875L25.9688 3L25.6875 10.125L23.4375 19.875C23.4375 19.875 18.1875 24.75 12.8437 19.4063ZM12.1875 25.875C12.1875 25.875 14.5312 27.2813 15.9375 26.4375C17.3438 25.5938 16.0313 22.7812 16.0313 22.7812C16.0313 22.7812 18.5625 25.4062 18.75 26.25C18.9375 27.0938 17.625 29.625 12.1875 25.875Z" fill="#581F66"/>
<path d="M10.9687 11.8125L21.6562 4.125C21.8437 3.9375 22.2187 3.9375 22.4062 4.125C22.7812 4.3125 22.875 4.875 22.5937 5.15625L13.875 15.0938C13.125 15.9375 11.9062 15.9375 11.25 15.0938C10.6875 14.25 10.3125 13.125 10.9687 11.8125ZM8.90623 22.2188C8.90623 22.2188 7.03123 19.4062 7.96873 18.6562C7.96873 18.6562 6.84373 17.5312 5.81248 17.9062C4.78123 18.2812 8.90623 22.2188 8.90623 22.2188Z" fill="#E08CF5"/>
</g>
<defs>
<clipPath id="clip0_1_17805">
<rect width="30" height="30" fill="white"/>
</clipPath>
</defs>
</svg>
