<svg width="428" height="47" viewBox="0 0 428 47" fill="none" xmlns="http://www.w3.org/2000/svg">
<path d="M239.273 13.8727H256.727V31.3272H239.273V13.8727Z" fill="white" fill-opacity="0.01"/>
<path fill-rule="evenodd" clip-rule="evenodd" d="M240.612 16.1345C242.373 14.2567 245.213 14.2313 247.004 16.0589L247.076 16.1353L248 17.12L248.924 16.1353C250.66 14.2829 253.447 14.2327 255.241 15.984L255.316 16.0589L255.388 16.1353C257.15 18.0138 257.173 21.0429 255.46 22.952L255.388 23.0298L248.462 30.4174C248.406 30.4785 248.339 30.5279 248.264 30.5628C248.189 30.5977 248.108 30.6173 248.026 30.6207C247.943 30.624 247.861 30.6109 247.783 30.5821C247.706 30.5533 247.635 30.5095 247.575 30.4531L247.538 30.4174L240.612 23.0298C238.827 21.1265 238.827 18.0393 240.612 16.1353V16.1345ZM241.997 17.6123C240.996 18.68 240.977 20.3978 241.94 21.4902L241.997 21.5527L248 27.9549L254.003 21.5527C255.004 20.4851 255.023 18.7673 254.074 17.6902L254.018 17.6283L253.961 17.5687C252.957 16.5433 251.376 16.5411 250.368 17.552L250.309 17.6131L247.999 20.0749L245.692 17.6123C244.671 16.5243 243.017 16.5243 241.997 17.6123Z" fill="#0E0E0E"/>
<rect x="225.5" y="0.5" width="45" height="43" rx="21.5" stroke="#505050"/>
<rect x="157.5" y="0.5" width="43" height="43" rx="21.5" fill="#0E0E0E"/>
<g clip-path="url(#clip0_1_236)">
<path d="M172.25 25C171.836 25 171.5 25.3358 171.5 25.75C171.5 26.1642 171.836 26.5 172.25 26.5V25ZM177.867 24.3904C178.104 24.051 178.022 23.5834 177.682 23.3459C177.343 23.1085 176.875 23.1912 176.638 23.5306L177.867 24.3904ZM179.382 19.6115C179.145 19.9513 179.229 20.4188 179.569 20.6556C179.909 20.8924 180.376 20.8088 180.613 20.469L179.382 19.6115ZM180.13 19.8498L179.516 19.4197L179.515 19.421L180.13 19.8498ZM185.75 19C186.164 19 186.5 18.6642 186.5 18.25C186.5 17.8358 186.164 17.5 185.75 17.5V19ZM172.25 26.5H174.048V25H172.25V26.5ZM174.048 26.5C175.516 26.4999 176.892 25.7833 177.734 24.5803L176.505 23.7202C175.944 24.5223 175.027 24.9999 174.048 25V26.5ZM177.734 24.5803L177.867 24.3904L176.638 23.5306L176.505 23.7202L177.734 24.5803ZM180.613 20.469L180.746 20.2785L179.515 19.421L179.382 19.6115L180.613 20.469ZM180.745 20.2798C181.306 19.4778 182.223 19.0001 183.202 19L183.202 17.5C181.734 17.5001 180.358 18.2167 179.516 19.4197L180.745 20.2798ZM183.202 19H185.75V17.5H183.202L183.202 19Z" fill="white"/>
<path d="M183.5 16L185.75 18.25L183.5 20.5" stroke="white" stroke-width="1.5" stroke-linecap="round" stroke-linejoin="round"/>
<path d="M172.25 18.25H174.048C175.271 18.2501 176.418 18.8472 177.12 19.8498L180.13 24.1502C180.832 25.1528 181.979 25.7499 183.202 25.75H185.75" stroke="white" stroke-width="1.5" stroke-linecap="round" stroke-linejoin="round"/>
<path d="M183.5 28L185.75 25.75L183.5 23.5" stroke="white" stroke-width="1.5" stroke-linecap="round" stroke-linejoin="round"/>
</g>
<rect x="157.5" y="0.5" width="43" height="43" rx="21.5" stroke="#505050"/>
<defs>
<clipPath id="clip0_1_236">
<rect width="18" height="18" fill="white" transform="translate(170 13)"/>
</clipPath>
</defs>
</svg>
