<svg width="10" height="5" viewBox="0 0 10 5" fill="none" xmlns="http://www.w3.org/2000/svg">
<path d="M9.02462 0.693796C9.02388 0.787322 9.00316 0.87961 8.96383 0.96447C8.92451 1.04933 8.86749 1.1248 8.79661 1.18582L4.51241 4.99999L0.229216 1.18582C0.157842 1.12572 0.100379 1.05083 0.0608032 0.966338C0.0212274 0.881842 0.000483921 0.789756 8.36613e-06 0.696452C-0.000467188 0.603148 0.0193365 0.510855 0.058049 0.42596C0.0967615 0.341065 0.153458 0.265595 0.224215 0.204774C0.376132 0.0732159 0.570221 0.000553733 0.771184 3.15195e-06C0.972146 -0.000547429 1.16663 0.0710502 1.31927 0.201774L4.51241 3.0459L7.70556 0.201774C7.85812 0.0713181 8.0524 -0.000117031 8.25314 0.000433431C8.45387 0.000983894 8.64776 0.0734834 8.79961 0.204774C8.94961 0.33978 9.02462 0.517788 9.02462 0.693796Z" fill="#9798A0"/>
</svg>
