<svg width="64" height="64" viewBox="0 0 64 64" fill="none" xmlns="http://www.w3.org/2000/svg">
<path d="M42.4348 38.2609V33.0435C42.4325 32.6793 42.3351 32.322 42.1521 32.0071C41.969 31.6923 41.7067 31.4308 41.3913 31.2487V25.9479C41.3886 25.3399 41.1458 24.7576 40.7159 24.3277C40.2859 23.8977 39.7036 23.655 39.0956 23.6522H34.5565C34.6713 23.5166 34.7965 23.3914 34.9113 23.2453C35.391 22.646 35.8138 22.0032 36.1739 21.3253C36.4632 20.7662 36.5491 20.1241 36.4169 19.5087C36.2847 18.8933 35.9427 18.343 35.4494 17.9521C34.9561 17.5612 34.3423 17.3539 33.713 17.3658C33.0837 17.3778 32.4781 17.6081 32 18.0174C31.5219 17.6081 30.9163 17.3778 30.287 17.3658C29.6577 17.3539 29.0439 17.5612 28.5506 17.9521C28.0573 18.343 27.7153 18.8933 27.5831 19.5087C27.4509 20.1241 27.5368 20.7662 27.8261 21.3253C28.1796 22.0023 28.5953 22.6451 29.0678 23.2453C29.1826 23.3914 29.3078 23.5166 29.4226 23.6522H24.9043C24.2963 23.655 23.714 23.8977 23.2841 24.3277C22.8542 24.7576 22.6114 25.3399 22.6087 25.9479V31.2487C22.2932 31.4308 22.031 31.6923 21.8479 32.0071C21.6649 32.322 21.5674 32.6793 21.5652 33.0435V38.2609C21.2884 38.2609 21.023 38.3709 20.8274 38.5665C20.6316 38.7622 20.5217 39.0276 20.5217 39.3044C20.5217 39.5811 20.6316 39.8465 20.8274 40.0423C21.023 40.2379 21.2884 40.3479 21.5652 40.3479H29.1826C29.4418 41.2339 29.3675 42.1842 28.9739 43.0192C28.6566 43.6505 28.1591 44.1735 27.5443 44.5218H25.7391C25.4624 44.5218 25.197 44.6317 25.0013 44.8274C24.8056 45.0231 24.6956 45.2885 24.6956 45.5652C24.6956 45.842 24.8056 46.1074 25.0013 46.3031C25.197 46.4988 25.4624 46.6087 25.7391 46.6087H38.2609C38.5376 46.6087 38.803 46.4988 38.9987 46.3031C39.1944 46.1074 39.3043 45.842 39.3043 45.5652C39.3043 45.2885 39.1944 45.0231 38.9987 44.8274C38.803 44.6317 38.5376 44.5218 38.2609 44.5218H36.4557C35.8409 44.1735 35.3434 43.6505 35.0261 43.0192C34.6324 42.1842 34.5582 41.2339 34.8174 40.3479H42.4348C42.7115 40.3479 42.9769 40.2379 43.1726 40.0423C43.3683 39.8465 43.4783 39.5811 43.4783 39.3044C43.4783 39.0276 43.3683 38.7622 43.1726 38.5665C42.9769 38.3709 42.7115 38.2609 42.4348 38.2609ZM29.7252 19.7913C29.7728 19.7085 29.8387 19.6376 29.918 19.5841C29.9972 19.5307 30.0877 19.496 30.1824 19.483C30.2771 19.4698 30.3735 19.4786 30.4643 19.5086C30.555 19.5385 30.6378 19.5888 30.7061 19.6557L31.2591 20.2192C31.3562 20.317 31.4715 20.3946 31.5987 20.4476C31.7258 20.5006 31.8623 20.5278 32 20.5278C32.1377 20.5278 32.2741 20.5006 32.4013 20.4476C32.5285 20.3946 32.6438 20.317 32.7408 20.2192L33.2939 19.6557C33.364 19.5925 33.4469 19.5454 33.5372 19.5176C33.6273 19.4899 33.7225 19.4822 33.8159 19.4952C33.9094 19.5081 33.9988 19.5413 34.0782 19.5925C34.1574 19.6436 34.2245 19.7115 34.2748 19.7913C34.3242 19.877 34.3502 19.9741 34.3502 20.0731C34.3502 20.172 34.3242 20.2692 34.2748 20.3548C33.969 20.9199 33.6201 21.4607 33.2313 21.9722C32.8591 22.4577 32.4473 22.9114 32 23.3288C31.5419 22.9127 31.1195 22.459 30.7374 21.9722C30.3486 21.4607 29.9997 20.9199 29.6939 20.3548C29.6491 20.2664 29.6284 20.1678 29.6339 20.0689C29.6394 19.97 29.6709 19.8742 29.7252 19.7913ZM23.6522 33.0435H40.1495C40.0175 33.1189 39.9036 33.2221 39.8157 33.3461C39.4902 33.8382 39.0609 34.2529 38.5579 34.5611C38.0549 34.8695 37.4905 35.0637 36.9043 35.1305C36.3434 35.1895 35.7764 35.1217 35.2452 34.9322C33.0422 34.1447 30.6343 34.1447 28.4313 34.9322C28.1344 35.0374 27.8262 35.1074 27.513 35.1409C26.7451 35.2029 25.9754 35.0467 25.2923 34.6904C24.6093 34.3341 24.0407 33.7922 23.6522 33.127V33.0435ZM24.6956 28.5983C25.7628 29.2549 26.9459 29.7012 28.1809 29.9131C28.4568 29.9112 28.7322 29.8903 29.0052 29.8505C29.3088 29.7972 29.6086 29.724 29.9026 29.6314C31.4888 29.0891 33.2103 29.0891 34.7965 29.6314C35.0902 29.7252 35.39 29.7984 35.6939 29.8505C35.967 29.8897 36.2424 29.9106 36.5182 29.9131C37.5216 29.771 38.4767 29.3919 39.3043 28.807V30.9565H24.6956V28.5983ZM24.9043 25.7392H39.0956C39.151 25.7392 39.2041 25.7611 39.2432 25.8003C39.2824 25.8394 39.3043 25.8925 39.3043 25.9479V26.2714C38.4874 26.9627 37.545 27.4906 36.5287 27.8261C36.3621 27.842 36.1944 27.842 36.0278 27.8261C35.8399 27.797 35.6549 27.7515 35.4747 27.6905C33.4458 26.9948 31.2429 26.9948 29.2139 27.6905C29.0338 27.7515 28.8488 27.797 28.6609 27.8261C28.4975 27.8359 28.3337 27.8359 28.1704 27.8261C26.9391 27.4555 25.7685 26.9071 24.6956 26.1983V25.9479C24.6956 25.8925 24.7176 25.8394 24.7567 25.8003C24.7959 25.7611 24.849 25.7392 24.9043 25.7392ZM33.1478 43.9374C33.2483 44.1382 33.3598 44.3333 33.4817 44.5218H30.5183C30.6402 44.3333 30.7517 44.1382 30.8522 43.9374C31.3927 42.823 31.5539 41.5625 31.3113 40.3479H32.6887C32.446 41.5625 32.6073 42.823 33.1478 43.9374ZM34.0869 38.2609H23.6522V36.1009C24.8402 36.9244 26.2841 37.2946 27.7217 37.1444C28.2068 37.0988 28.6839 36.9901 29.1409 36.8209C30.8954 36.1951 32.8124 36.1951 34.5669 36.8209C35.1944 37.0397 35.8538 37.1525 36.5182 37.1548C36.7164 37.1652 36.9149 37.1652 37.113 37.1548C38.3002 37.0416 39.4265 36.5765 40.3478 35.8192V38.2609H34.0869Z" fill="#213A52"/>
</svg>
