<svg width="30" height="30" viewBox="0 0 30 30" fill="none" xmlns="http://www.w3.org/2000/svg">
<g clip-path="url(#clip0_1_5327)">
<path d="M18.8438 19.3127C20.5313 19.8752 22.0313 21.2815 22.5938 23.1565C23.1563 25.1252 22.4063 27.5627 20.9063 28.6877C19.875 29.4377 18.6563 29.6252 17.5313 29.6252C14.7188 29.6252 11.9063 28.6877 9.09377 27.7502C8.15627 27.469 7.21877 27.094 6.37502 26.5315C5.53127 25.8752 4.87502 25.0315 4.68752 23.9065C4.50002 22.4065 5.43752 20.8127 6.65627 20.0627C8.71877 18.7502 10.875 18.1877 13.0313 18.1877C14.8125 18.094 17.0625 18.7502 18.8438 19.3127Z" fill="#1D282C"/>
<path d="M18.8438 18.094C20.5313 18.6565 22.0313 20.0627 22.5938 21.9377C23.1563 23.9065 22.4063 26.344 20.9063 27.469C19.875 28.219 18.6563 28.4065 17.5313 28.4065C14.7188 28.4065 11.9063 27.469 9.09377 26.5315C8.15627 26.2502 7.21877 25.8752 6.37502 25.3127C5.53127 24.6565 4.87502 23.8127 4.68752 22.6877C4.50002 21.1877 5.43752 19.594 6.65627 18.844C8.71877 17.5315 10.875 16.969 13.0313 16.969C14.8125 16.8752 17.0625 17.5315 18.8438 18.094Z" fill="#3B3B3B"/>
<path d="M15.8439 19.0311C15.8439 19.0311 12.4689 20.4374 10.0314 24.2811C10.0314 24.2811 9.18768 20.9061 9.65643 18.5624C9.65643 18.4686 13.0314 19.9686 15.8439 19.0311Z" fill="#E5A98C"/>
<path d="M7.68727 17.3436C7.68727 17.3436 7.31227 18.3749 5.15602 18.3749C5.15602 18.3749 1.40602 11.6249 7.96852 7.03114L7.68727 17.3436ZM16.4998 6.65614C16.4998 6.65614 19.5935 12.0936 17.2498 20.3436C17.2498 20.3436 20.7185 20.3436 23.0623 17.5311C24.4685 15.8436 23.4373 11.1561 22.4998 8.06239C21.9373 6.18739 20.2498 5.53114 18.3748 6.09364L16.4998 6.65614Z" fill="#8F8A78"/>
<path d="M7.68741 16.6875C7.68741 16.6875 7.31241 17.625 5.24991 17.625C5.24991 17.625 1.68741 11.3438 7.96866 6.9375L7.68741 16.6875Z" fill="#F4EACD"/>
<path d="M6.84375 6.09375C6.84375 6.09375 7.3125 8.0625 10.0312 8.25C12.75 8.4375 22.0313 7.03125 22.0313 7.03125C22.0313 7.03125 19.6875 2.34375 13.9687 2.0625C9.5625 1.875 7.125 5.34375 6.84375 6.09375Z" fill="#8F8A78"/>
<path d="M18.2812 6.46898L19.2188 10.5002C19.2188 10.5002 14.0625 12.2815 6.09375 8.53148C6.09375 8.53148 6.09375 5.81273 8.625 4.12523C11.1562 2.43773 18.2812 6.46898 18.2812 6.46898Z" fill="#6A8189"/>
<path d="M21.6681 12.2571C21.6846 7.7007 18.0043 3.99367 13.448 3.97716C8.89162 3.96065 5.18459 7.64092 5.16808 12.1973C5.15157 16.7536 8.83183 20.4606 13.3882 20.4772C17.9445 20.4937 21.6516 16.8134 21.6681 12.2571Z" fill="#A67A65"/>
<path d="M21.2115 11.6403C21.2274 7.23925 17.6726 3.65859 13.2716 3.64264C8.8706 3.6267 5.28994 7.1815 5.27399 11.5825C5.25804 15.9835 8.81285 19.5642 13.2139 19.5801C17.6149 19.5961 21.1955 16.0413 21.2115 11.6403Z" fill="#E5A98C"/>
<path d="M21.1201 11.4775C21.1355 7.23181 17.8321 3.77799 13.7417 3.76316C9.65139 3.74834 6.32302 7.17814 6.30764 11.4238C6.29226 15.6695 9.59568 19.1233 13.686 19.1382C17.7764 19.153 21.1048 15.7232 21.1201 11.4775Z" fill="#E8CCAA"/>
<path d="M17.0756 12.535C17.0868 9.42841 14.6615 6.90119 11.6584 6.89031C8.65539 6.87943 6.21181 9.389 6.20056 12.4956C6.1893 15.6022 8.61463 18.1294 11.6177 18.1403C14.6207 18.1512 17.0643 15.6416 17.0756 12.535Z" fill="#FAEACF"/>
<path d="M6.9375 5.99991C6.9375 5.99991 7.40625 7.87491 9.9375 8.06241C12.4688 8.24991 21.375 6.93741 21.375 6.93741C21.375 6.93741 19.125 2.53116 13.6875 2.24991C9.46875 2.06241 7.21875 5.34366 6.9375 5.99991Z" fill="#F4EACD"/>
<path d="M14.2633 13.0865C14.265 12.6205 13.9306 12.2415 13.5164 12.24C13.1022 12.2385 12.765 12.6151 12.7633 13.0811C12.7616 13.547 13.096 13.926 13.5103 13.9275C13.9245 13.929 14.2616 13.5525 14.2633 13.0865Z" fill="#3C505B"/>
<path d="M13.7482 12.7968C13.7486 12.6932 13.665 12.609 13.5614 12.6086C13.4579 12.6082 13.3736 12.6919 13.3732 12.7954C13.3729 12.899 13.4565 12.9832 13.5601 12.9836C13.6636 12.984 13.7479 12.9003 13.7482 12.7968Z" fill="white"/>
<path d="M8.31019 11.211C8.31188 10.745 7.97746 10.366 7.56324 10.3645C7.14903 10.363 6.81187 10.7396 6.81019 11.2056C6.8085 11.6716 7.14292 12.0505 7.55713 12.052C7.97134 12.0535 8.3085 11.677 8.31019 11.211Z" fill="#3C505B"/>
<path d="M7.88935 10.9218C7.88973 10.8182 7.80608 10.734 7.70253 10.7336C7.59898 10.7332 7.51473 10.8169 7.51435 10.9204C7.51398 11.024 7.59762 11.1082 7.70117 11.1086C7.80473 11.109 7.88898 11.0253 7.88935 10.9218Z" fill="white"/>
<path d="M18.6562 12.8436C18.6562 12.8436 19.3125 12.3748 19.875 12.5623C20.4375 12.7498 20.3438 14.5311 18.9375 14.7186L18.6562 12.8436Z" fill="#FAEACF"/>
<path d="M16.125 6.46883C16.125 6.46883 19.125 11.6251 16.875 19.5001C16.875 19.5001 20.1562 19.5001 22.3125 16.8751C23.7187 15.2813 22.5938 10.7813 21.75 7.87508C21.1875 6.09383 19.5937 5.43758 17.8125 6.00008L16.125 6.46883Z" fill="#F4EACD"/>
<path d="M17.7187 6.37497L18.5625 10.2187C18.5625 10.2187 13.3125 12.1875 5.71875 8.62497C5.71875 8.62497 6.09375 5.81247 8.53125 4.21872C10.9688 2.62497 17.7187 6.37497 17.7187 6.37497Z" fill="#F4EACD"/>
<path d="M6.46875 7.96875C6.46875 7.96875 7.125 7.03125 8.0625 7.03125C9 7.03125 12.375 9.46875 18 8.625C18 8.625 16.875 9.75 15.5625 9.84375C14.25 10.0312 9.46875 9.5625 6.46875 7.96875ZM18 17.625C18 17.625 20.5312 17.0625 20.9062 15.8438C21.2812 14.625 20.625 7.6875 20.625 7.6875C20.625 7.6875 22.0312 11.3437 21.9375 15.8438C21.9375 15.8438 20.4375 18.0938 18 18.4688V17.625Z" fill="white"/>
<path d="M11.0625 9.28125C10.125 9.84375 8.90625 9.65625 8.25 8.8125C8.0625 8.625 7.875 8.34375 7.875 8.15625C7.875 7.5 11.7188 5.90625 12.9375 6.9375C13.5938 7.5 12.2813 8.53125 11.0625 9.28125Z" fill="#BF6922"/>
<path d="M19.0312 11.7188C21.6719 11.7188 23.8125 10.7114 23.8125 9.46875C23.8125 8.22611 21.6719 7.21875 19.0312 7.21875C16.3906 7.21875 14.25 8.22611 14.25 9.46875C14.25 10.7114 16.3906 11.7188 19.0312 11.7188Z" fill="#CCCDD1"/>
<path d="M18.9375 11.1562C21.5781 11.1562 23.7187 10.1489 23.7187 8.90625C23.7187 7.66361 21.5781 6.65625 18.9375 6.65625C16.2969 6.65625 14.1562 7.66361 14.1562 8.90625C14.1562 10.1489 16.2969 11.1562 18.9375 11.1562Z" fill="#1D282C"/>
<path d="M5.90648 8.15625C5.90648 8.15625 3.75023 9.75 4.50023 10.9688C5.25023 12.1875 8.25023 15.1875 16.4065 11.4375L5.90648 8.15625Z" fill="#3B3B3B"/>
<path d="M6.46875 5.625L5.71875 8.8125C5.71875 8.8125 8.25 13.0312 19.3125 11.625L19.7812 10.4063L6.46875 5.625Z" fill="#CCCDD1"/>
<path d="M6.65625 4.96875L5.8125 8.15625C5.8125 8.15625 8.25 12.2812 19.7813 11.1562C20.1563 11.1562 20.625 10.7812 20.7188 10.4062L21 9.75L6.65625 4.96875Z" fill="#1D282C"/>
<path d="M5.8125 0.9375H4.875C4.875 0.9375 5.0625 5.53125 7.96875 7.03125C10.875 8.53125 13.4062 9.28125 15.75 9.5625C18.0937 9.84375 21.4688 10.2187 23.5313 9.09375L5.8125 0.9375Z" fill="#3B3B3B"/>
<path d="M9.84382 3.65628C9.84382 3.65628 8.90632 2.25003 7.40632 1.96878C5.90632 1.68753 3.65632 1.12503 5.62507 0.375026C7.59382 -0.374974 11.8126 0.0937761 15.3751 1.40628C18.9376 2.71878 21.1876 4.50003 22.9688 6.37503C24.7501 8.25003 23.7188 9.37503 22.9688 9.37503C22.3126 9.37503 20.2501 8.71878 16.7813 6.56253C13.3126 4.40628 9.84382 3.65628 9.84382 3.65628Z" fill="#3B3B3B"/>
<path d="M9.27467 9.14919C9.88325 9.02405 10.2075 8.10035 9.99898 7.08605C9.79042 6.07174 9.128 5.35093 8.51942 5.47606C7.91083 5.6012 7.58655 6.52489 7.79511 7.5392C8.00366 8.5535 8.66608 9.27432 9.27467 9.14919Z" fill="#CCCDD1"/>
<path d="M10.8751 3.4689C10.8751 3.4689 9.7501 2.81265 8.53135 2.5314C7.3126 2.25015 5.34385 1.87515 6.9376 1.31265C8.53135 0.750154 12.1876 1.0314 15.1876 2.06265C18.1876 3.0939 20.0626 4.50015 21.4688 6.00015C22.8751 7.50015 22.7813 8.1564 22.2188 8.1564C21.6563 8.1564 19.3126 7.87515 16.3126 6.18765L10.8751 3.4689Z" fill="#898989"/>
<path d="M6.1875 9.65625L6.375 8.625L5.8125 8.15625L5.15625 9.28125L6.1875 9.65625ZM22.5 9.9375L22.125 11.25C22.125 11.4375 22.125 11.625 22.2188 11.7188C22.5 12.0938 22.9688 12.0938 23.25 11.7188C23.7188 11.0625 24.1875 9.84375 23.9062 8.34375L22.875 8.8125L22.5 9.9375Z" fill="#3B3B3B"/>
<path d="M17.0626 18.4688C17.0626 18.4688 16.9688 19.4062 17.6251 19.4062V20.3438C17.6251 20.3438 16.2188 20.4375 16.5001 19.5937C16.6876 18.75 17.0626 18.4688 17.0626 18.4688Z" fill="#8F8A78"/>
<path d="M16.0313 20.0625L15.9375 22.4062L13.6875 22.875L13.2188 25.7812L10.125 26.3438C10.2188 26.3438 11.4375 21.1875 16.0313 20.0625ZM8.90625 18.8438L7.125 20.5312L8.53125 21.2813L6.9375 22.6875L9.46875 24.4688C9.46875 24.375 8.53125 20.1562 8.90625 18.8438Z" fill="#898989"/>
<path opacity="0.28" d="M20.9001 24.4888C21.4591 22.7651 20.9542 21.0569 19.7722 20.6736C18.5902 20.2902 17.1787 21.3768 16.6197 23.1006C16.0606 24.8243 16.5656 26.5324 17.7476 26.9158C18.9296 27.2992 20.341 26.2126 20.9001 24.4888Z" fill="#898989"/>
<path d="M11.7188 16.9688C11.7188 16.9688 10.9688 16.875 10.4063 16.4063C9.84375 16.0313 9.375 16.0313 9.28125 16.0313C9.1875 16.0313 9 15.9375 8.8125 15.8438C8.625 15.75 8.34375 15.75 8.34375 15.8438C8.34375 15.9375 8.53125 16.3125 8.53125 16.3125V16.875C8.53125 17.0625 8.53125 17.625 9.09375 17.7188C9.65625 17.8125 10.0313 17.8125 10.3125 17.625C10.6875 17.5312 11.7188 16.9688 11.7188 16.9688Z" fill="#ED949A"/>
<path d="M15.1875 27.5625L14.8125 28.0312L16.5 29.1563L25.9688 19.7813L24.4688 17.7188L15.1875 27.5625Z" fill="#9A4C18"/>
<path d="M26.2502 22.4062C25.9689 26.1562 22.5002 29.3437 18.5627 29.3437C14.7189 29.3437 12.2814 26.1562 13.0314 22.4999C13.6877 19.0312 16.9689 16.4062 20.4377 16.3124C23.9064 16.2187 26.5314 18.9374 26.2502 22.4062Z" fill="#9A4C18"/>
<path d="M27.1875 23.625C26.9062 27.1875 23.5312 30.2813 19.6875 30.1875C15.9375 30.1875 13.5937 27.0938 14.25 23.625C14.9062 20.3438 18.0937 17.8125 21.4687 17.7188C24.8437 17.7188 27.4687 20.25 27.1875 23.625Z" fill="#9A4C18"/>
<path d="M16.2188 27.8438L17.8125 28.6875L25.5938 20.5312L24.375 18.8438L16.2188 27.8438Z" fill="#F49937"/>
<path d="M26.4377 23.625C26.1564 26.7188 23.3439 29.25 20.1564 29.25C17.0627 29.25 15.0002 26.625 15.5627 23.625C16.1252 20.8125 18.8439 18.5625 21.6564 18.4688C24.5627 18.4688 26.7189 20.7188 26.4377 23.625Z" fill="#F49937"/>
<path d="M25.4061 22.4062C25.1248 25.6875 22.0311 28.4062 18.6561 28.4062C15.2811 28.4062 13.1248 25.5937 13.7811 22.4062C14.3436 19.4062 17.2498 16.9688 20.2498 16.9688C23.3436 16.9688 25.6873 19.3125 25.4061 22.4062Z" fill="#FFEDC0"/>
<path d="M24.9377 22.5938C24.6564 25.6875 21.8439 28.2188 18.6564 28.2188C15.5627 28.2188 13.5002 25.5938 14.0627 22.5938C14.6252 19.7812 17.3439 17.5312 20.1564 17.4375C23.0627 17.5312 25.2189 19.6875 24.9377 22.5938Z" fill="#FFD766"/>
<path d="M23.7188 22.5938C23.4376 24.9375 21.2813 26.9063 18.8438 26.9063C16.4063 26.9063 14.9063 24.9375 15.2813 22.5938C15.6563 20.3438 17.8126 18.5625 20.0626 18.5625C22.3126 18.6563 24.0001 20.3438 23.7188 22.5938Z" fill="#FFEDC0"/>
<path d="M23.8125 22.0311C23.5312 24.3748 21.375 26.3436 18.9375 26.3436C16.5937 26.3436 15 24.3748 15.375 22.1248C15.75 19.8748 17.9062 18.1873 20.0625 18.1873C22.4062 18.0936 24 19.7811 23.8125 22.0311Z" fill="#F49937"/>
<path d="M23.0624 22.5935C22.8749 24.5623 20.9999 26.2498 18.9374 26.2498C16.8749 26.2498 15.5624 24.5623 15.9374 22.6873C16.2186 20.8123 18.0936 19.3123 19.9686 19.3123C21.8436 19.2185 23.2499 20.7185 23.0624 22.5935Z" fill="#FFD766"/>
<path d="M20.5312 18.8438L21.0938 21L23.4375 21.6562L21.2813 23.0625L21.0938 25.5937L19.125 24.1875L16.5938 25.0313L17.7187 22.6875L16.4062 20.9062L18.9375 20.8125L20.5312 18.8438Z" fill="#F49937"/>
</g>
<defs>
<clipPath id="clip0_1_5327">
<rect width="30" height="30" fill="white"/>
</clipPath>
</defs>
</svg>
