<svg width="30" height="30" viewBox="0 0 30 30" fill="none" xmlns="http://www.w3.org/2000/svg">
<g clip-path="url(#clip0_1_10027)">
<path d="M4.96875 2.34334L3.84375 0.749594C3.84375 0.749594 9.09375 -2.15666 13.2188 3.09334C13.2188 3.09334 14.4375 4.59334 13.6875 5.90584L14.625 7.59334C14.625 7.59334 16.5938 6.46834 17.5312 8.53084C17.5312 8.53084 19.125 7.12459 20.625 9.09334L21.1875 7.87459C21.1875 7.87459 22.5938 5.90584 23.3438 8.99959C23.3438 8.99959 24.375 7.21834 25.875 8.06209C27.375 8.90584 26.3438 11.9058 26.3438 11.9058C26.3438 11.9058 27.2812 10.9683 27.75 11.4371C28.2188 11.9058 28.0312 13.7808 27.4687 15.2808C26.9062 16.7808 26.7188 17.0621 26.7188 17.0621L20.1562 16.8746L11.25 11.7183L4.96875 2.34334Z" fill="#472E1D"/>
<path d="M28.5002 19.3117C28.5002 19.0305 28.219 18.6555 27.9377 18.468C27.7502 18.1867 27.469 17.9992 27.094 17.9992C27.1877 17.8117 27.3752 17.5305 27.469 17.343C27.844 16.4992 28.0315 15.7492 28.1252 15.093C28.594 13.4992 28.4065 12.093 28.1252 11.9055H28.0315C27.9377 11.6242 27.9377 11.4367 27.844 11.4367C27.5627 11.2492 27.094 11.718 26.8127 11.9992C26.5315 12.093 26.2502 12.468 25.969 12.6555L26.2502 11.9055C26.4377 11.4367 26.4377 11.0617 26.4377 10.7805C26.4377 10.6867 26.5315 10.6867 26.5315 10.593C26.9065 9.46795 26.719 8.90545 26.344 8.71795C26.1565 7.96795 25.5002 7.8742 25.0315 7.8742C24.5627 7.8742 23.9065 9.1867 23.4377 10.0305L22.969 10.968C23.0627 10.6867 23.0627 10.4055 23.0627 10.1242C23.344 9.3742 23.5315 8.2492 22.8752 7.8742C22.7815 7.59295 22.6877 7.3117 22.4065 7.21795C21.7502 6.9367 20.9065 8.2492 20.4377 9.09295C20.1565 8.8117 19.7815 8.71795 19.5002 8.6242C19.219 8.15545 18.6565 8.0617 18.2815 8.0617C18.1877 8.0617 18.094 8.0617 18.094 8.15545H17.9065C17.719 8.15545 17.4377 8.4367 17.1565 8.8117C17.1565 8.34295 17.0627 7.96795 16.6877 7.78045C16.5002 7.6867 16.3127 7.78045 16.1252 7.8742C16.0315 7.59295 15.9377 7.40545 15.6565 7.3117C15.3752 7.21795 15.094 7.3117 14.8127 7.6867C14.6252 7.78045 14.5315 7.8742 14.344 8.0617L12.1877 5.53045C12.5627 4.8742 12.6565 3.84295 12.469 3.5617C12.2815 3.09295 8.43772 -0.750799 5.25021 0.280451L4.50022 0.561701C4.40647 0.561701 4.40646 0.655451 4.40646 0.655451L4.03146 1.03045H3.93771C3.65646 1.21795 3.56271 1.3117 3.46896 1.40545C3.28146 1.4992 3.09396 1.78045 3.09396 1.78045C3.00021 1.78045 2.81271 1.96795 2.81271 1.96795C2.06271 3.09295 2.06271 4.40545 2.34396 5.71795C2.43771 6.65545 2.71896 7.4992 3.00021 8.15545C3.00021 8.34295 3.09396 8.53045 3.18771 8.6242C3.37521 9.09295 3.56271 9.46795 3.65646 9.5617C3.93771 9.84295 4.40646 10.1242 4.78146 10.0305C4.96896 10.1242 5.15646 10.1242 5.25021 10.1242L6.84397 13.1242C6.37522 13.593 6.00021 14.2492 5.81271 14.8117C5.53146 15.843 3.65646 19.3117 3.09396 20.4367C2.71896 21.2805 2.71896 21.7492 2.71896 23.0617C2.62521 23.718 2.62521 24.468 2.90646 25.218C2.90646 26.0617 3.37521 26.6242 3.93771 27.1867C4.31271 27.7492 4.78147 28.3117 5.43772 28.7805C6.00022 29.2492 6.56271 29.5305 7.12521 29.718C8.25021 30.468 9.65646 30.1867 11.0627 29.5305C11.1565 29.4367 11.344 29.4367 11.4377 29.343C12.1877 29.1555 12.9377 28.7805 13.7815 28.3117C13.8752 28.4055 13.969 28.4055 13.969 28.4055C14.4377 28.8742 15.0002 29.0617 15.5627 29.0617C16.5002 29.2492 17.6252 28.8742 18.6565 28.3117C22.3127 27.2805 27.3752 21.843 27.2815 21.3742C27.2815 21.1867 28.0315 20.4367 27.9377 20.343C28.3127 19.6867 28.5002 19.4055 28.5002 19.3117Z" fill="#472E1D"/>
<path d="M6.28112 0.750438H6.18737C6.18737 0.750438 5.53112 1.31294 5.34362 1.31294C5.06237 1.31294 4.87487 1.59419 4.87487 1.59419C2.81237 3.93794 5.06237 8.53169 5.43737 8.90669C5.71862 9.28169 6.46862 9.75044 6.84362 9.28169C7.21862 8.81294 9.46862 6.93794 9.74987 6.75044C10.4999 6.46919 12.1874 6.46919 12.7499 6.37544C13.4061 6.28169 13.7811 4.68794 13.4999 4.21919C13.1249 3.65669 9.46862 -0.280812 6.28112 0.750438Z" fill="#8E4332"/>
<path d="M5.25 7.3125L10.3125 17.3438C10.3125 17.3438 8.8125 20.25 9.09375 22.2188C9.375 24.1875 11.3437 27.9375 13.5 26.5312C15.6562 25.125 16.9688 22.4062 16.9688 22.4062C16.9688 22.4062 21.375 24.0938 22.6875 21.0938C24.0938 18.0938 23.25 15.9375 22.5938 15.375C21.9375 14.7187 19.5 13.4062 18.4688 13.3125C17.4375 13.2188 16.4062 12.75 16.4062 12.75L11.0625 2.625C11.0625 2.625 6.5625 3.46875 5.25 7.3125Z" fill="#9A4C18"/>
<path d="M6.1875 7.21872L12.1875 17.8125C12.1875 17.8125 9.75 20.0625 10.0312 22.125C10.3125 24.1875 12.2812 27.8437 14.4375 26.4375C16.6875 25.0312 17.9062 22.3125 17.9062 22.3125C17.9062 22.3125 22.3125 24 23.625 21C25.0312 18 23.5312 16.0312 22.875 15.4687C22.2188 14.8125 20.4375 13.3125 19.4062 13.2187C18.375 13.125 17.3438 12.6562 17.3438 12.6562L11.25 3.37497C11.4375 3.28122 7.5 3.37497 6.1875 7.21872Z" fill="#9A4C18"/>
<path d="M5.90625 8.15626L11.25 17.7188C11.25 17.7188 9 19.7813 9.28125 21.5625C9.5625 23.3438 11.25 26.625 13.2188 25.4063C15.1875 24.1875 16.4062 21.75 16.4062 21.75C16.4062 21.75 20.3438 23.25 21.5625 20.5313C22.7812 17.8125 22.0312 15.9375 21.4687 15.375C20.9062 14.8125 18.75 13.6875 17.8125 13.5C16.9688 13.4063 16.0312 13.0313 16.0312 13.0313L11.0625 4.03126C11.0625 3.93751 7.125 4.78126 5.90625 8.15626Z" fill="#F7BB8A"/>
<path d="M5.9061 0.750083H5.81235C5.81235 0.750083 5.24985 1.40633 4.9686 1.40633C4.68735 1.40633 4.49985 1.68758 4.49985 1.68758C2.43735 4.03133 4.49985 8.43758 4.7811 8.81258C5.06235 9.18758 5.7186 9.56258 6.0936 9.09383C6.4686 8.62508 8.62485 6.75008 8.9061 6.46883L12.2811 5.15633C12.8436 5.06258 12.7498 4.31258 12.5623 3.84383C12.3748 3.46883 8.99985 -0.281167 5.9061 0.750083Z" fill="#C95D5D"/>
<path d="M5.43759 1.21858C5.34384 1.21858 5.34384 1.21858 5.43759 1.21858C5.34384 1.21858 4.87509 1.78108 4.59384 1.78108C4.40634 1.78108 4.21884 1.96858 4.21884 1.96858C2.53134 3.84358 4.40634 7.59358 4.59384 7.87483C4.87509 8.15608 5.43759 8.53108 5.71884 8.15608C6.00009 7.78108 7.87509 6.28108 8.06259 6.09358C8.71884 5.81233 10.5001 5.15608 10.8751 5.06233C11.3438 4.96858 11.2501 4.31233 11.0626 4.03108C10.9688 3.56233 7.96884 0.374826 5.43759 1.21858Z" fill="#EF9595"/>
<path opacity="0.28" d="M12.8438 17.625C12.8438 17.625 14.25 15.375 15.5625 14.5312C16.9688 13.7812 17.1563 13.5 16.875 13.2187C16.5938 12.9375 15.9375 12.75 15.75 12.75C15.5625 12.75 14.25 13.7812 13.3125 14.9062L11.625 16.875C11.625 17.0625 12.4688 18.0937 12.8438 17.625Z" fill="#96745C"/>
<path d="M8.53125 7.21875L11.625 12.2813C11.625 12.2813 12.8438 14.4375 12.75 14.7188C12.6563 15 11.4375 15.9375 11.4375 15.9375C11.4375 15.9375 10.4062 15.4688 10.2187 14.8125C10.0312 14.1563 6.9375 8.71875 6.9375 8.71875C6.9375 8.71875 7.6875 7.21875 8.53125 7.21875ZM10.4063 20.9062C10.4063 20.9062 10.875 19.125 11.7188 18.75C12.4688 18.375 13.5 18.2813 13.4062 18.9375C13.3125 19.5938 13.0313 20.25 12.75 20.7188L11.625 22.7812C11.4375 23.1562 10.5 23.25 10.3125 22.7812C10.125 22.3125 10.4063 20.9062 10.4063 20.9062Z" fill="#FCD5BB"/>
<path opacity="0.28" d="M11.4375 25.6875C11.4375 25.6875 14.1563 24.4688 14.8125 23.1562C15.5625 21.8438 16.2187 20.625 17.1562 20.5312C18.0937 20.4375 19.4062 20.8125 20.1562 19.9687C20.9062 19.125 21.8438 17.625 21.375 16.7812C20.9062 15.9375 18 13.5 18 13.5C18 13.5 19.4062 13.7812 19.9688 14.0625C20.5312 14.3437 23.9063 16.5937 23.0625 18.2812C22.2188 19.9687 22.0312 23.625 16.7812 22.0312C16.7812 22.0312 16.5 22.7812 16.3125 23.0625C16.125 23.3437 13.0313 27.2812 11.4375 25.6875ZM10.6875 4.96875C10.6875 4.96875 14.7188 13.2187 15.375 13.4062C16.0312 13.6875 18 13.125 18 13.125C18 13.125 16.6875 13.2187 16.2187 12.375C15.75 11.5312 12 4.5 12 4.5L10.6875 4.96875Z" fill="#96745C"/>
<path d="M5.4375 1.21875C5.4375 1.21875 5.90625 3.46875 6.28125 3.9375C6.65625 4.3125 7.3125 5.34375 7.03125 5.53125C6.75 5.71875 6.1875 5.25 5.90625 4.96875C5.53125 4.78125 4.78125 1.59375 4.78125 1.59375C4.78125 1.59375 4.96875 1.21875 5.4375 1.21875Z" fill="#C95D5D"/>
<path opacity="0.23" d="M4.21875 7.40629C4.21875 7.40629 5.25 8.06254 5.90625 7.40629C6.5625 6.75004 7.96875 5.81254 8.53125 5.34379C9.1875 4.87504 9.9375 2.62504 9.375 1.78129C8.8125 0.937538 12.0937 4.21879 12.0937 4.21879L11.625 5.15629L8.90625 6.46879L5.71875 9.00004C5.71875 9.00004 4.40625 8.62504 4.21875 7.40629Z" fill="#AF644E"/>
<path d="M14.8125 14.0625L16.875 12.375L18.1875 13.2188L14.8125 14.0625Z" fill="#875F43"/>
<path d="M27.0937 19.9691C26.9999 19.5004 26.5312 18.7504 25.4999 19.8754C25.2187 20.2504 24.7499 20.5316 24.3749 20.8129L26.6249 17.3441C27.3749 15.6566 27.1874 13.9691 26.9062 13.7816C26.6249 13.5941 25.9687 14.3441 25.6874 14.5316C25.4062 14.7191 24.6562 15.9379 24.5624 16.3129C24.4687 16.6879 23.4374 18.3754 23.2499 18.7504C23.0624 19.1254 22.4062 19.6879 22.2187 19.7816C22.0312 19.8754 21.9374 19.6879 21.9374 19.5004C21.9374 19.3129 23.7187 16.3129 23.7187 16.3129C23.7187 16.3129 24.9374 14.2504 25.4999 12.5629C26.0624 10.8754 25.0312 10.6879 24.4687 10.6879C23.9062 10.6879 23.0624 12.7504 22.8749 13.0316C22.6874 13.3129 21.4687 15.9379 20.9999 16.7816C20.5312 17.6254 19.9687 18.0941 19.7812 18.1879C19.5937 18.2816 19.5937 18.1879 19.5937 18.1879L20.1562 16.9691C20.2499 16.6879 22.2187 12.8441 22.4062 12.0941C22.5937 11.4379 22.8749 10.3129 22.2187 9.93788C21.4687 9.56288 20.4374 11.5316 20.2499 11.9066L18.3749 15.3754L16.6874 18.1879C16.4999 18.2816 16.3124 18.2816 16.3124 18.0004C16.3124 17.8129 16.4062 17.3441 16.7812 15.5629C17.1562 13.7816 16.3124 13.0316 15.7499 13.0316C15.1874 13.0316 14.9062 14.6254 14.7187 15.5629C14.5312 16.5004 12.9374 19.5941 12.4687 20.6254C11.9999 21.5629 12.1874 22.1254 12.1874 24.0941C12.2812 26.1566 15.0937 27.1879 15.0937 27.1879C16.2187 28.2191 17.7187 27.8441 19.1249 27.0941C22.3124 26.1566 27.1874 20.4379 27.0937 19.9691Z" fill="#7C563C"/>
<path d="M27.0936 19.9692C26.9999 19.4067 26.1561 18.3754 25.1249 19.5004C24.8436 19.8754 24.3749 20.1567 23.9999 20.5317C24.9374 19.2192 25.8749 17.7192 26.2499 16.9692C27.0936 15.2817 26.8124 13.5004 26.5311 13.2192C26.2499 13.0317 25.5936 13.7817 25.3124 13.9692C25.0311 14.1567 24.2811 15.4692 24.1874 15.7504C24.0936 16.1254 23.0624 17.8129 22.8749 18.2817C22.6874 18.7504 22.0311 19.3129 21.8436 19.3129C21.6561 19.4067 21.5624 19.2192 21.5624 19.0317C21.5624 18.8442 23.3436 15.7504 23.3436 15.7504C23.3436 15.7504 24.5624 13.5942 25.1249 11.8129C25.6874 10.0317 24.6561 9.84419 24.0936 9.84419C23.5311 9.84419 22.5936 11.9067 22.4999 12.2817C22.3124 12.5629 21.0936 15.2817 20.6249 16.1254C20.1561 16.9692 19.4999 17.4379 19.4061 17.5317C19.2186 17.6254 19.2186 17.5317 19.2186 17.5317L19.7811 16.3129C19.8749 16.0317 21.8436 12.0004 22.1249 11.3442C22.3124 10.6879 22.6874 9.46919 21.9374 9.18794C21.1874 8.81294 20.0624 10.8754 19.8749 11.2504L17.9061 14.8129L16.1249 17.7192C15.9374 17.8129 15.7499 17.8129 15.7499 17.5317C15.7499 17.3442 15.8436 16.8754 16.2186 15.0004C16.5936 13.2192 15.7499 12.3754 15.1874 12.3754C14.6249 12.3754 14.3436 13.9692 14.0624 14.9067C13.8749 15.8442 12.1874 19.1254 11.8124 20.0629C11.3436 21.0942 11.4374 21.5629 11.5311 23.6254C11.6249 25.6879 14.4374 26.8129 14.4374 26.8129C15.5624 27.8442 17.0624 27.4692 18.4686 26.7192C21.9374 25.9692 27.1874 20.5317 27.0936 19.9692Z" fill="#7C563C"/>
<path d="M27.6562 19.1254C27.5624 18.6566 26.8124 17.6254 25.7812 18.7504C25.4999 19.1254 25.0312 19.4066 24.6562 19.6879L26.9062 16.2191C27.6562 14.5316 27.4687 12.8441 27.1874 12.6566C26.9062 12.4691 26.2499 13.2191 25.9687 13.4066C25.6874 13.5941 24.9374 14.8129 24.8437 15.1879C24.7499 15.5629 23.7187 17.2504 23.5312 17.6254C23.3437 18.0941 22.6874 18.5629 22.4999 18.6566C22.3124 18.7504 22.2187 18.5629 22.2187 18.3754C22.2187 18.1879 23.9999 15.1879 23.9999 15.1879C23.9999 15.1879 25.2187 13.1254 25.7812 11.4379C26.3437 9.75038 25.3124 9.56288 24.7499 9.56288C24.1874 9.56288 23.3437 11.6254 23.1562 11.9066C22.9687 12.1879 21.7499 14.8129 21.2812 15.6566C20.8124 16.5004 20.2499 16.9691 20.0624 17.0629C19.8749 17.1566 19.8749 17.0629 19.8749 17.0629L20.4374 15.8441C20.5312 15.5629 22.4999 11.7191 22.6874 10.9691C22.8749 10.3129 23.1562 9.18788 22.4999 8.81288C21.7499 8.43788 20.7187 10.4066 20.5312 10.7816L18.6562 14.2504L16.9687 17.0629C16.7812 17.1566 16.5937 17.1566 16.5937 16.8754C16.5937 16.6879 16.6874 16.2191 17.0624 14.4379C17.4374 12.6566 16.5937 11.9066 16.0312 11.9066C15.4687 11.9066 15.1874 13.5004 14.9999 14.4379C14.8124 15.3754 13.2187 18.4691 12.7499 19.5004C12.2812 20.4379 12.4687 21.0004 12.4687 22.9691C12.5624 25.0316 15.3749 26.0629 15.3749 26.0629C16.4999 27.0941 17.9999 26.7191 19.4062 25.9691C22.4999 24.9379 27.6562 19.5941 27.6562 19.1254Z" fill="#7C563C" stroke="#7C563C" stroke-width="0.0704454" stroke-miterlimit="10"/>
<path d="M15.2812 12.2812C15.2812 12.2812 17.7188 12.6563 17.1562 16.0312L16.4063 17.8125H15.75L15.2812 12.2812Z" fill="#A3704D"/>
<path d="M26.4372 19.8755C26.3434 19.4067 25.5934 18.4692 24.6559 19.5005L23.6247 20.438C24.4684 19.2192 25.4059 17.9067 25.6872 17.1567C26.4372 15.563 26.2497 13.9692 25.9684 13.7817C25.6872 13.5942 25.1247 14.2505 24.8434 14.438C24.5622 14.6255 23.9059 15.7505 23.8122 16.1255C23.7184 16.4067 22.7809 18.0942 22.5934 18.4692C22.4059 18.8442 21.7497 19.4067 21.6559 19.4067C21.4684 19.5005 21.3747 19.313 21.3747 19.1255C21.3747 18.938 23.0622 16.1255 23.0622 16.1255C23.0622 16.1255 24.1872 14.1567 24.6559 12.563C25.1247 10.9692 24.1872 10.7817 23.7184 10.7817C23.2497 10.7817 22.4059 12.6567 22.2184 12.938C22.0309 13.2192 20.9059 15.6567 20.5309 16.5005C20.0622 17.2505 19.4997 17.7192 19.4059 17.813C19.3122 17.9067 19.2184 17.813 19.2184 17.813L19.7809 16.688C19.9684 16.4067 21.6559 12.7505 21.9372 12.188C22.1247 11.5317 22.4059 10.5005 21.7497 10.2192C21.0934 9.84423 20.0622 11.7192 19.8747 12.0942L18.0934 15.2817C17.8122 15.8442 16.6872 17.813 16.4997 17.9067C16.3122 18.0005 16.2184 18.0005 16.2184 17.7192C16.2184 17.5317 16.3122 17.063 16.5934 15.4692C16.8747 13.8755 16.1247 13.0317 15.6559 13.1255C15.0934 13.1255 14.9059 14.6255 14.6247 15.4692C14.4372 16.313 12.9372 19.313 12.5622 20.1567C12.1872 21.0942 12.2809 21.563 12.2809 23.438C12.3747 25.313 14.9997 26.3442 14.9997 26.3442C16.0309 27.2817 17.4372 26.9067 18.6559 26.2505C21.6559 25.313 26.4372 20.3442 26.4372 19.8755Z" fill="#A3704D"/>
<path d="M25.4999 20.6255C25.4999 20.1568 24.8436 19.3131 23.9061 20.2506C23.6249 20.5318 23.2499 20.813 22.9686 21.0943L25.0311 18.0943C25.7811 16.5943 25.5936 15.0943 25.4061 14.9068C25.1249 14.7193 24.5624 15.3755 24.2811 15.563C23.9999 15.7505 23.3436 16.8755 23.2499 17.1568C23.1561 17.438 22.2186 18.938 22.0311 19.3131C21.8436 19.6881 21.2811 20.1568 21.0936 20.1568C20.9061 20.2505 20.8124 20.0631 20.9061 19.8756C20.9061 19.6881 22.4999 17.0631 22.4999 17.0631C22.4999 17.0631 23.6249 15.1881 24.0936 13.688C24.6561 12.188 23.7186 11.9068 23.2499 11.9068C22.7811 11.9068 21.9374 13.7818 21.8436 13.9693C21.6561 14.2505 20.5311 16.5943 20.1561 17.3443C19.7811 18.0943 19.2186 18.4693 19.1249 18.563C19.0311 18.6568 18.9374 18.563 18.9374 18.563C18.9374 18.563 19.3124 17.7193 19.4999 17.5318L21.5624 13.2193C21.7499 12.6568 22.0311 11.6255 21.4686 11.2505C20.8124 10.8755 19.8749 12.7505 19.6874 13.0318C19.4999 13.313 18.2811 15.5631 17.9999 16.1256C17.7186 16.6881 16.5936 18.4693 16.4999 18.563C16.3124 18.6568 16.2186 18.6568 16.2186 18.4693C16.2186 18.2818 16.3124 17.9068 16.5936 16.313C16.8749 14.7193 16.2186 13.9693 15.6561 14.063C15.1874 14.063 14.9061 15.4693 14.7186 16.313C14.5311 17.1568 13.1249 19.8756 12.7499 20.8131C12.3749 21.6568 12.4686 22.1255 12.5624 23.813C12.6561 25.5943 15.0936 26.5318 15.0936 26.5318C16.0311 27.3755 17.3436 27.0943 18.4686 26.4381C21.0936 25.5943 25.5936 21.0005 25.4999 20.6255Z" fill="#A3704D"/>
<path opacity="0.34" d="M21.3747 22.6875C21.3747 22.6875 19.4059 20.9062 17.2497 20.9062C14.9997 20.9062 14.4372 22.125 15.0934 22.875C15.7497 23.7188 16.8747 23.9063 17.8122 23.4375C18.6559 22.9688 19.1247 22.7813 19.8747 23.1563C20.6247 23.5313 21.6559 23.25 21.3747 22.6875Z" fill="#A3704D"/>
<path d="M25.2187 18.75L24.6562 19.5L22.875 21.8437C22.875 21.8437 22.5938 21.8437 22.5 21.6562C22.4062 21.4687 25.3125 17.9062 25.3125 17.9062L25.2187 18.8437M23.4375 16.3125L21.5625 19.6875C21.5625 19.6875 21.2812 19.7812 21.1875 19.5937C21.0938 19.4062 23.4375 15.4687 23.4375 15.4687L23.5312 16.4062M21.375 14.5312L19.5 17.9062C19.5 17.9062 19.2187 18 19.125 17.8125C19.0312 17.625 21.375 13.6875 21.375 13.6875L21.4687 14.625M14.3437 24.9375C14.3437 24.9375 15.4687 26.3437 17.625 25.875C19.7812 25.4062 25.6875 20.8125 25.6875 20.8125C25.6875 20.8125 22.5 25.0312 18.8438 26.3437C15.1875 27.75 14.1562 26.1562 14.1562 26.1562L14.3437 24.9375Z" fill="#A3704D"/>
<path d="M15.4688 11.1562C15.4688 11.1562 17.9062 11.5313 17.3438 14.9062L16.5938 16.6875H15.9375L15.4688 11.1562Z" fill="#A3704D"/>
<path d="M27.2811 18.8442C27.1874 18.2817 26.3436 17.2504 25.3124 18.3754C25.0311 18.7504 24.5624 19.0317 24.1874 19.4067C25.1249 18.0942 26.0624 16.5942 26.4374 15.8442C27.2811 14.1567 26.9999 12.3754 26.7186 12.0942C26.4374 11.9067 25.7811 12.6567 25.4999 12.8442C25.2186 13.0317 24.4686 14.3442 24.3749 14.6254C24.2811 15.0004 23.2499 16.6879 23.0624 17.1567C22.8749 17.6254 22.2186 18.1879 22.0311 18.1879C21.8436 18.2817 21.7499 18.0942 21.7499 17.9067C21.7499 17.7192 23.5311 14.6254 23.5311 14.6254C23.5311 14.6254 24.7499 12.4692 25.3124 10.6879C25.8749 8.90669 24.8436 8.71919 24.2811 8.71919C23.7186 8.71919 22.7811 10.7817 22.6874 11.1567C22.4999 11.4379 21.2811 14.1567 20.8124 15.0004C20.3436 15.8442 19.6874 16.3129 19.5936 16.4067C19.4061 16.5004 19.4061 16.4067 19.4061 16.4067L19.9686 15.1879C20.0624 14.9067 22.0311 10.8754 22.3124 10.2192C22.4999 9.56294 22.8749 8.34419 22.1249 8.06294C21.3749 7.68794 20.2499 9.75044 20.0624 10.1254L18.0936 13.6879L16.3124 16.5942C16.1249 16.6879 15.9374 16.6879 15.9374 16.4067C15.9374 16.2192 16.0311 15.7504 16.4061 13.8754C16.7811 12.0942 15.9374 11.2504 15.3749 11.2504C14.8124 11.2504 14.5311 12.8442 14.2499 13.7817C14.0624 14.7192 12.3749 18.0004 11.9999 18.9379C11.5311 19.9692 11.6249 20.4379 11.7186 22.5004C11.8124 24.5629 14.6249 25.6879 14.6249 25.6879C15.7499 26.7192 17.2499 26.3442 18.6561 25.5942C22.1249 24.8442 27.3749 19.3129 27.2811 18.8442Z" fill="#A3704D" stroke="#A3704D" stroke-width="0.0719844" stroke-miterlimit="10"/>
<path d="M26.6252 18.7505C26.5314 18.2817 25.7814 17.3442 24.8439 18.3755L23.8127 19.313C24.6564 18.0942 25.5939 16.7817 25.8752 16.0317C26.6252 14.438 26.4377 12.8442 26.1564 12.6567C25.8752 12.4692 25.3127 13.1255 25.0314 13.313C24.7502 13.5005 24.0939 14.6255 24.0002 15.0005C23.9064 15.2817 22.9689 16.9692 22.7814 17.3442C22.5939 17.7192 21.9377 18.2817 21.8439 18.2817C21.6564 18.3755 21.5627 18.188 21.5627 18.0005C21.5627 17.813 23.2502 15.0005 23.2502 15.0005C23.2502 15.0005 24.3752 13.0317 24.8439 11.438C25.3127 9.84423 24.3752 9.65673 23.9064 9.65673C23.4377 9.65673 22.5939 11.5317 22.4064 11.813C22.2189 12.0942 21.0939 14.5317 20.7189 15.3755C20.2502 16.1255 19.6877 16.5942 19.5939 16.688C19.5002 16.7817 19.4064 16.688 19.4064 16.688L19.9689 15.563C20.1564 15.2817 21.8439 11.6255 22.1252 11.063C22.3127 10.4067 22.5939 9.37548 21.9377 9.09423C21.2814 8.71923 20.2502 10.5942 20.0627 10.9692L18.2814 14.1567C18.0002 14.7192 16.8752 16.688 16.6877 16.7817C16.5002 16.8755 16.4064 16.8755 16.4064 16.5942C16.4064 16.4067 16.5002 15.938 16.7814 14.3442C17.0627 12.7505 16.3127 11.9067 15.8439 12.0005C15.2814 12.0005 15.0939 13.5005 14.8127 14.3442C14.6252 15.188 13.1252 18.188 12.7502 19.0317C12.3752 19.9692 12.4689 20.438 12.4689 22.313C12.5627 24.188 15.1877 25.2192 15.1877 25.2192C16.2189 26.1567 17.6252 25.7817 18.8439 25.1255C21.9377 24.188 26.7189 19.1255 26.6252 18.7505Z" fill="#F7BB8A"/>
<path opacity="0.34" d="M21.6563 21.5625C21.6563 21.5625 19.6876 19.7812 17.5313 19.7812C15.3751 19.7812 14.7188 21 15.3751 21.75C16.0313 22.5938 17.1563 22.7812 18.0938 22.3125C19.0313 21.8437 19.4063 21.6562 20.1563 22.0312C20.9063 22.4062 21.9376 22.125 21.6563 21.5625Z" fill="#E5895B"/>
<path d="M25.4061 17.625L24.8436 18.375L23.0623 20.625C23.0623 20.625 22.7811 20.625 22.6873 20.4375C22.5936 20.25 25.4998 16.6875 25.4998 16.6875L25.4061 17.625ZM23.6248 15.0938L21.7498 18.4688C21.7498 18.4688 21.4686 18.5625 21.3748 18.375C21.2811 18.1875 23.6248 14.25 23.6248 14.25L23.7186 15.1875M21.6561 13.4063L21.1873 14.25L19.6873 16.7812C19.6873 16.7812 19.4061 16.875 19.3123 16.6875C19.2186 16.5 21.5623 12.5625 21.5623 12.5625L21.6561 13.5" fill="#A3704D"/>
<path d="M14.625 23.8125C14.625 23.8125 15.75 25.2188 17.9063 24.75C18.9375 24.4688 20.9063 23.3438 22.5938 22.125L25.9688 19.5938C25.9688 19.5938 22.7812 23.8125 19.125 25.125C15.4687 26.5312 14.4375 24.9375 14.4375 24.9375L14.625 23.8125Z" fill="#E8AB82"/>
<path d="M13.3127 10.0311C13.0315 10.4061 11.4377 12.9374 10.969 13.5936L9.7502 15.2811C9.84395 14.9999 9.9377 14.7186 10.0315 14.2499C10.5002 12.4686 9.65645 11.6249 9.09395 11.7186H9.0002C8.8127 11.3436 9.0002 11.7186 8.71895 11.7186C8.0627 11.8124 7.1252 12.8436 6.7502 13.7811C6.46895 14.7186 4.6877 18.7499 4.1252 19.7811C3.7502 20.7186 3.7502 21.0936 3.65645 22.3124C3.5627 22.9686 3.28145 22.9686 3.5627 23.7186C3.5627 25.7811 6.65645 26.9999 6.65645 26.9999C7.8752 28.0311 9.5627 27.6561 11.1565 26.9061C15.0002 25.9686 21.094 20.4374 21.094 19.9686C21.094 19.8749 21.094 19.8749 21.0002 19.7811C21.2815 19.4999 21.469 19.2186 21.469 19.1249C21.469 18.7499 21.0002 18.1874 20.344 18.1874C20.2502 17.9999 19.969 17.8124 19.7815 17.7186C19.969 17.4374 20.1565 17.0624 20.344 16.8749C20.344 16.8749 20.344 16.7811 20.4377 16.7811C20.6252 16.4999 20.719 16.3124 20.9065 16.1249C21.9377 14.3436 21.7502 12.6561 21.469 12.3749C21.2815 12.2811 21.094 12.3749 20.8127 12.5624H20.719C20.719 12.1874 20.6252 11.9999 20.5315 11.9061C20.2502 11.7186 19.4065 12.4686 19.1252 12.6561C19.4065 12.0936 19.6877 11.5311 19.8752 11.0624C20.5315 9.46864 19.6877 9.18739 19.1252 9.09364C18.9377 8.71864 18.3752 8.62489 18.0002 8.62489C17.719 8.62489 17.2502 9.18739 16.8752 9.74989C17.0627 9.18739 17.0627 8.62489 16.5002 8.34364C16.3127 8.24989 16.219 8.34364 16.0315 8.34364C15.9377 8.15614 15.844 7.96864 15.6565 7.87489C14.9065 7.59364 13.5002 9.65614 13.3127 10.0311Z" fill="#7C563C" stroke="#7C563C" stroke-width="0.0763738" stroke-miterlimit="10"/>
<path d="M8.8125 11.5312C9.46875 11.5312 10.875 12.6562 10.5 14.625L9.9375 17.3437C9.9375 17.625 10.125 17.625 10.3125 17.5312C10.5 17.4375 11.9062 15 12.375 14.3437C12.8437 13.6875 14.4375 10.875 14.625 10.5C14.9062 10.125 16.125 7.875 16.9688 8.25C17.7188 8.625 17.3438 9.9375 17.0625 10.6875C16.7813 11.4375 14.4375 15.8437 14.3438 16.125C14.1562 16.4062 13.6875 17.4375 13.6875 17.4375C13.6875 17.4375 13.7812 17.625 13.875 17.4375C14.0625 17.3437 14.7187 16.875 15.2812 15.8437C15.8437 14.9062 17.3438 11.9062 17.5313 11.625C17.7188 11.25 18.8438 9 19.4063 9C19.9688 9 21.0938 9.28125 20.4375 11.1562C19.7812 13.0312 18.2812 15.4687 18.2812 15.4687L16.125 19.125C16.125 19.3125 16.2188 19.5 16.4062 19.5C16.5938 19.4062 17.3437 18.8437 17.625 18.375C17.8125 17.9062 19.0312 15.9375 19.2188 15.5625C19.4062 15.1875 20.25 13.7812 20.5312 13.5937C20.9062 13.4062 21.6562 12.5625 21.9375 12.75C22.2188 13.0312 22.4062 14.9062 21.4688 16.875C21 17.7187 19.875 19.3125 18.8438 20.8125L20.1563 19.6875C21.375 18.4687 22.2188 19.5937 22.2188 20.1562C22.3125 20.7187 16.3125 26.7187 12.5625 27.6562C11.0625 28.5 9.28125 28.875 8.15625 27.75C8.15625 27.75 5.0625 26.5312 5.0625 24.1875C5.0625 21.9375 4.96875 21.375 5.53125 20.25C6.09375 19.125 7.96875 15.5625 8.25 14.5312C8.4375 13.5937 8.15625 11.625 8.8125 11.5312Z" fill="#7C563C"/>
<path d="M7.96868 14.0621C8.53118 14.0621 9.28118 14.8121 8.90618 16.4996L8.53118 18.7496C8.53118 18.9371 8.71868 19.0308 8.81243 18.9371C8.99993 18.8433 10.1249 16.8746 10.4062 16.4058L12.1874 13.3121C12.3749 13.0308 13.4062 11.1558 14.0624 11.5308C14.7187 11.9058 14.4374 12.9371 14.2499 13.4996C14.1562 14.0621 12.3749 17.6246 12.1874 17.8121C12.0937 18.0933 11.6249 18.9371 11.6249 18.9371C11.6249 18.9371 11.7187 19.0308 11.8124 18.9371C11.9999 18.8433 12.5624 18.4683 12.9374 17.7183C13.4062 16.9683 14.5312 14.5308 14.7187 14.2496C14.9062 13.9683 15.7499 12.0933 16.2187 12.0933C16.6874 12.0933 17.7187 12.3746 17.1562 13.9683C16.5937 15.5621 15.4687 17.4371 15.4687 17.4371L13.7812 20.3433C13.7812 20.5308 13.8749 20.7183 14.0624 20.6246C14.2499 20.5308 14.9062 20.0621 14.9999 19.6871L16.2187 17.4371C16.3124 17.1558 17.0624 16.0308 17.3437 15.8433C17.6249 15.6558 18.2812 14.9996 18.5624 15.1871C18.8437 15.3746 19.0312 17.0621 18.2812 18.5621C17.9062 19.3121 17.0624 20.5308 16.1249 21.7496L17.1562 20.9058C18.0937 19.8746 18.9374 20.9058 18.9374 21.3746C19.0312 21.8433 14.0624 26.6246 10.9687 27.2808C9.65618 27.9371 8.24993 28.2183 7.21868 27.1871C7.21868 27.1871 4.59368 26.0621 4.49993 24.0933C4.49993 22.2183 4.31243 21.7496 4.78118 20.8121C5.24993 19.8746 6.74993 17.0621 6.93743 16.2183C7.21868 15.4683 7.49993 14.0621 7.96868 14.0621Z" fill="#A3704D"/>
<path d="M14.3437 25.875C14.3437 25.875 9.6562 28.0313 8.1562 26.9063C6.65619 25.7813 4.21869 23.9063 5.24994 19.6875C5.24994 19.6875 1.87494 24.0938 5.99994 27.375C10.1249 30.6563 14.3437 25.875 14.3437 25.875Z" fill="#A3704D"/>
<path opacity="0.34" d="M14.25 23.5304C14.25 23.5304 12.375 21.2804 9.93751 20.9992C7.50001 20.7179 6.65626 21.9367 7.31251 22.8742C7.87501 23.8117 9.1875 24.2804 10.2188 23.9054C11.25 23.5304 11.7188 23.3429 12.5625 23.9054C13.3125 24.3742 14.4375 24.1867 14.25 23.5304Z" fill="#A3704D"/>
<path d="M15.3749 22.6875C16.8749 21.375 18.8437 18.8438 18.8437 18.8438L18.4687 19.4063L18.8437 19.3125L18.5624 20.3438L15.7499 23.3437C15.5624 23.625 14.9999 23.8125 14.7187 23.625C14.4374 23.4375 15.3749 22.6875 15.3749 22.6875Z" fill="#A3704D"/>
<path d="M15.1875 25.4057C15.1875 25.4057 16.5937 23.9994 16.875 23.1557C17.25 22.4057 17.8125 20.9057 18.1875 20.6244C18.5625 20.4369 19.5 20.9994 19.4062 21.2807C19.4062 21.6557 16.125 24.5619 15.1875 25.4057Z" fill="#A3704D"/>
<path d="M8.53109 11.8125C9.18734 11.8125 10.0311 12.75 9.65609 14.7187L9.09359 17.4375C9.09359 17.7187 9.28109 17.7187 9.46859 17.625C9.65609 17.5312 11.0623 15.0937 11.5311 14.4375L13.7811 10.5937C14.0623 10.2187 15.2811 7.96875 16.1248 8.34375C16.9686 8.8125 16.5936 10.0312 16.3123 10.7812C16.0311 11.5312 13.7811 15.9375 13.5936 16.2187C13.4061 16.5 12.9373 17.5312 12.9373 17.5312C12.9373 17.5312 13.0311 17.7187 13.2186 17.5312C13.4061 17.4375 14.0623 16.9687 14.6248 15.9375C15.1873 15 16.6873 12 16.8748 11.7187C17.0623 11.3437 18.1873 9.09375 18.7498 9.09375C19.3123 9.09375 20.5311 9.375 19.7811 11.3437C19.1248 13.3125 17.7186 15.6562 17.7186 15.6562L15.5623 19.3125C15.5623 19.5 15.6561 19.6875 15.8436 19.6875C16.0311 19.5937 16.7811 19.0312 17.0623 18.5625C17.2498 18.0937 18.4686 16.125 18.6561 15.75C18.8436 15.375 19.6873 13.9687 19.9686 13.7812C20.3436 13.5937 21.0936 12.75 21.3748 12.9375C21.7498 13.2187 21.8436 15.1875 20.9061 17.0625C20.4373 17.9062 19.3123 19.5 18.2811 21L19.5936 19.875C20.8123 18.6562 21.6561 19.7812 21.7498 20.4375C21.8436 21 15.7498 27 11.9998 27.8437C10.4061 28.6875 8.71859 29.0625 7.49984 27.8437C7.49984 27.8437 4.31234 26.5312 4.31234 24.1875C4.31234 21.8437 4.21859 21.2812 4.68734 20.25C5.15609 19.125 7.12484 15.5625 7.40609 14.5312C7.49984 13.5937 7.87484 11.8125 8.53109 11.8125Z" fill="#7C563C"/>
<path d="M8.34375 12.5625C9 12.5625 10.0312 12.1875 9.5625 14.1562L9 16.875C9 17.1562 9.1875 17.1562 9.375 17.0625C9.5625 16.9687 10.9687 14.5312 11.4375 13.875C11.9062 13.2187 13.5 10.4062 13.6875 10.0312C13.9688 9.65625 15.1875 7.40625 16.0312 7.78125C16.7812 8.15625 16.4063 9.46875 16.125 10.2187C15.8438 10.9687 13.5 15.375 13.4062 15.6562C13.2188 15.9375 12.75 16.9687 12.75 16.9687C12.75 16.9687 12.8438 17.1562 12.9375 16.9687C13.125 16.875 13.7812 16.4062 14.3438 15.375C14.9062 14.4375 16.4063 11.4375 16.5938 11.1562C16.7813 10.7812 17.9063 8.53125 18.4688 8.53125C19.0313 8.53125 20.1562 8.8125 19.5 10.6875C18.8438 12.5625 17.3438 15 17.3438 15L15.1875 18.6562C15.1875 18.8437 15.2812 19.0312 15.4688 19.0312C15.6562 18.9375 16.4062 18.375 16.6875 17.9062C16.875 17.4375 18.0938 15.4687 18.2812 15.0937C18.4688 14.7187 19.3125 13.3125 19.5938 13.125C19.9688 12.9375 20.7188 12.0937 21 12.2812C21.2812 12.5625 21.4688 14.4375 20.5312 16.4062C20.0625 17.25 18.9375 18.8437 17.9062 20.3437L19.2188 19.2187C20.4375 18 21.2813 19.125 21.2813 19.6875C21.375 20.25 15.375 26.25 11.625 27.1875C10.125 28.0312 8.34375 28.4062 7.21875 27.2812C7.21875 27.2812 4.125 26.0625 4.125 23.7187C4.125 21.4687 4.03125 20.9062 4.59375 19.7812C5.15625 18.6562 7.03125 15.0937 7.3125 14.0625C7.5 13.0312 7.6875 12.5625 8.34375 12.5625Z" fill="#A3704D" stroke="#A3704D" stroke-width="0.0750418" stroke-miterlimit="10"/>
<path d="M8.24984 12.2817C8.81234 12.2817 9.65609 13.1254 9.28109 15.0004L8.81234 17.5317C8.81234 17.8129 8.99984 17.8129 9.18734 17.7192C9.37484 17.6254 10.6873 15.3754 11.0623 14.8129C11.4373 14.2504 12.9373 11.6254 13.1248 11.2504C13.3123 10.8754 14.5311 8.81294 15.2811 9.18794C16.0311 9.56294 15.6561 10.7817 15.4686 11.4379C15.1873 12.0942 13.1248 16.2192 12.9373 16.5004C12.7498 16.7817 12.2811 17.7192 12.2811 17.7192C12.2811 17.7192 12.3748 17.9067 12.4686 17.7192C12.6561 17.6254 13.2186 17.1567 13.7811 16.3129L15.8436 12.3754C16.0311 12.0942 16.9686 9.93794 17.5311 9.93794C18.0936 9.93794 19.1248 10.2192 18.5623 12.0004C17.9061 13.7817 16.5936 15.9379 16.5936 15.9379L14.6248 19.3129C14.6248 19.5004 14.7186 19.6879 14.9061 19.5942C15.0936 19.5004 15.8436 18.9379 16.0311 18.5629L17.4373 16.0317C17.6248 15.6567 18.3748 14.4379 18.6561 14.1567C18.9373 13.9692 19.6873 13.2192 19.9686 13.4067C20.2498 13.6879 20.4373 15.4692 19.5936 17.1567C19.2186 18.0004 18.1873 19.4067 17.1561 20.8129C17.6248 20.5317 17.9998 20.1567 18.3748 19.7817C19.4998 18.6567 20.3436 19.7817 20.3436 20.2504C20.4373 20.7192 14.8123 26.2504 11.3436 27.0942C9.93734 27.8442 8.34359 28.2192 7.21859 27.0942C7.21859 27.0942 4.31234 25.8754 4.31234 23.7192C4.31234 21.5629 4.21859 21.0942 4.68734 20.0629C5.15609 19.0317 6.93734 15.7504 7.12484 14.8129C7.31234 13.8754 7.68734 12.2817 8.24984 12.2817Z" fill="#E8AB82"/>
<path d="M8.53118 12.8433C9.09368 12.8433 9.84368 13.5933 9.46868 15.2808L9.09368 17.5308C9.09368 17.7183 9.28118 17.8121 9.37493 17.7183C9.56243 17.6246 10.6874 15.6558 10.9687 15.1871L12.7499 12.0933C12.9374 11.8121 13.9687 9.93707 14.6249 10.3121C15.2812 10.6871 14.9999 11.7183 14.8124 12.2808C14.6249 12.9371 12.7499 16.4996 12.6562 16.6871C12.5624 16.9683 12.0937 17.8121 12.0937 17.8121C12.0937 17.8121 12.1874 17.9058 12.2812 17.8121C12.4687 17.7183 13.0312 17.3433 13.4062 16.5933C13.8749 15.8433 14.9999 13.4058 15.1874 13.1246C15.3749 12.8433 16.2187 10.9683 16.6874 10.9683C17.1562 10.9683 18.1874 11.2496 17.6249 12.8433C17.0624 14.4371 15.9374 16.3121 15.9374 16.3121L14.2499 19.2183C14.2499 19.4058 14.3437 19.5933 14.5312 19.4996C14.7187 19.4058 15.3749 18.9371 15.4687 18.5621L16.6874 16.3121C16.7812 16.0308 17.5312 14.9058 17.8124 14.7183C18.0937 14.5308 18.7499 13.8746 19.0312 14.0621C19.3124 14.2496 19.4999 15.9371 18.7499 17.4371C18.3749 18.1871 17.5312 19.4058 16.5937 20.6246L17.6249 19.7808C18.5624 18.7496 19.4062 19.7808 19.4062 20.2496C19.4999 20.7183 14.5312 25.4996 11.4374 26.1558C10.1249 26.8121 8.71868 27.0933 7.68743 26.0621C7.68743 26.0621 5.06243 24.9371 4.96868 22.9683C4.96868 21.0933 4.78118 20.6246 5.24993 19.6871C5.62493 18.7496 7.21868 15.9371 7.40618 15.0933C7.78118 14.3433 8.06243 12.9371 8.53118 12.8433Z" fill="#FCD6BE"/>
<path d="M14.9062 24.6562C14.9062 24.6562 10.2187 26.8125 8.7187 25.6875C7.2187 24.5625 4.78119 22.6875 5.81244 18.4688C5.81244 18.4688 2.43744 22.875 6.56244 26.1562C10.6874 29.4375 14.9062 24.6562 14.9062 24.6562Z" fill="#E8AB82"/>
<path d="M15.9374 21.5625C17.4374 20.25 19.4062 17.7188 19.4062 17.7188L19.0312 18.2813L19.4062 18.1875L19.1249 19.2188L16.3124 22.2188C16.1249 22.5 15.5624 22.6875 15.2812 22.5C14.9999 22.4063 15.9374 21.5625 15.9374 21.5625Z" fill="#A3704D"/>
<path d="M15.75 24.2816C15.75 24.2816 17.1563 22.8754 17.4375 22.0316C17.7188 21.1879 18.375 19.7816 18.75 19.5004C19.125 19.3129 20.0625 19.8754 19.9688 20.1566C19.9688 20.5316 16.6875 23.4379 15.75 24.2816Z" fill="#E8AB82"/>
<path d="M13.0312 11.5311L14.7188 8.43735C15 8.3436 15.6563 8.24985 15.9375 8.43735C16.2188 8.62485 16.4063 8.90611 16.3125 9.46861C16.2188 10.0311 14.3438 13.3124 14.3438 13.3124L13.0312 11.5311ZM17.0625 21.3749L19.5 18.4686C19.7812 18.3749 20.4375 18.2811 20.7188 18.4686C21 18.6561 21.1875 18.9374 21.0938 19.4999C21 20.0624 17.9063 22.7811 17.9063 22.7811L17.0625 21.3749Z" fill="#FCD6BE"/>
<path d="M15.0938 11.1565L13.9688 10.219C13.9688 10.219 14.7188 8.62528 15.1875 8.43778C15.6563 8.25028 16.0313 8.43778 16.125 8.71903C16.2188 9.00028 15.75 10.219 15.0938 11.1565Z" fill="#E85B73"/>
<path d="M17.7187 15.0936C17.7187 15.0936 19.125 13.0311 19.4063 12.9374C19.6875 12.8436 20.3438 12.7499 20.625 12.9374C20.9062 13.1249 21.0937 13.4061 21 13.9686C20.9062 14.5311 18.6562 17.7186 18.6562 17.7186L17.7187 15.0936ZM15.9375 11.9061C15.9375 11.9061 17.3437 9.8436 17.625 9.74985C17.9062 9.6561 18.5625 9.56235 18.8438 9.74985C19.125 9.93735 19.3125 10.2186 19.2188 10.7811C19.125 11.3436 16.875 14.5311 16.875 14.5311L15.9375 11.9061Z" fill="#FCD6BE"/>
<path d="M17.7187 12.5628L16.5938 11.6253C16.5938 11.6253 17.3437 10.0315 17.8125 9.84403C18.2812 9.65653 18.6562 9.84403 18.75 10.1253C18.75 10.5003 18.375 11.6253 17.7187 12.5628ZM19.7812 15.6565L18.6562 14.719C18.6562 14.719 19.4062 13.1253 19.875 12.9378C20.3438 12.7503 20.7188 12.9378 20.8125 13.219C20.8125 13.594 20.4375 14.719 19.7812 15.6565ZM19.3125 20.719L18.9375 19.7815C18.9375 19.7815 20.0625 18.2815 20.5312 18.2815C21 18.2815 21.375 18.5628 21.2812 18.9378C21.0938 19.219 20.25 20.0628 19.3125 20.719Z" fill="#E85B73"/>
</g>
<defs>
<clipPath id="clip0_1_10027">
<rect width="30" height="30" fill="white"/>
</clipPath>
</defs>
</svg>
