<svg width="30" height="30" viewBox="0 0 30 30" fill="none" xmlns="http://www.w3.org/2000/svg">
<g clip-path="url(#clip0_1_4932)">
<path d="M16.125 22.5938L8.71876 26.9063C8.71876 26.9063 15.1875 28.6876 18.4688 27.7501C20.4375 27.1876 21.9375 24.2813 21.9375 24.2813L16.125 22.5938ZM12.6563 23.1563L6.84376 15.0938C6.84376 15.0938 3.18751 5.62508 2.71876 5.43758C2.25001 5.25008 1.78126 5.15633 0.37501 6.18758C-1.03124 7.21883 2.34376 16.1251 2.34376 16.1251L6.84376 24.1876C6.75001 24.1876 11.9063 24.0001 12.6563 23.1563Z" fill="#C48051"/>
<path d="M13.4063 21.8436L7.59376 13.7812L4.59376 5.8124C4.12501 5.6249 2.53126 4.6874 1.12501 5.8124C-0.28124 6.9374 3.09376 14.9062 3.09376 14.9062L7.50001 22.9687C7.50001 22.9687 12.6563 22.7811 13.4063 21.8436Z" fill="#C48051"/>
<path d="M13.6875 22.4999L7.87501 14.4374L4.87501 6.46865C4.40626 6.28115 2.81251 5.34365 1.40626 6.46865C1.04904e-05 7.59365 3.37501 15.5624 3.37501 15.5624L7.78126 23.7187C7.78126 23.6249 12.9375 23.3437 13.6875 22.4999Z" fill="#FCC097"/>
<path d="M3.37518 9.5625C3.37518 9.5625 2.25018 6.28125 2.34393 5.8125C2.43768 5.34375 4.03143 4.59375 4.59393 4.96875C5.15643 5.34375 6.18768 7.96875 6.37518 9.09375C6.37518 9.09375 4.59393 9.9375 3.37518 9.5625Z" fill="#DD4568"/>
<path d="M6.75 24.1875L8.90625 27L16.125 24.5625L12.1875 23.25L6.75 24.1875Z" fill="#C48051"/>
<path d="M5.90625 9.84375L9.28125 18.375C9.9375 20.25 12.8437 21.5625 15.2812 21.2813C17.7187 21 21 21.0938 21.9375 19.6875C22.875 18.375 26.3437 10.5938 28.5 9.1875C28.5 9.1875 26.3437 11.0625 24.2812 12.375C22.2187 13.6875 19.5 17.4375 16.3125 17.3438C13.125 17.25 10.6875 16.6875 9.28125 14.1562C7.875 11.625 6.9375 9.46875 6.9375 9.46875L5.90625 9.84375Z" fill="#4C2537"/>
<path d="M6.09375 8.90609C6.09375 8.90609 7.78125 15.7498 15.1875 15.3748C22.5938 14.9998 27.375 9.46859 27.375 9.46859C27.375 9.46859 20.0625 7.03109 18.0937 6.56234C16.125 6.09359 10.875 6.18734 10.875 6.18734L6.09375 8.90609Z" fill="#4C2537"/>
<path d="M8.625 7.3125C8.625 7.3125 13.2188 10.7813 21.6563 8.25L19.2188 7.125L9.5625 6.1875L8.625 7.3125Z" fill="white"/>
<path d="M5.625 8.90625C5.625 8.90625 7.40625 6.5625 7.78125 5.34375C8.15625 4.21875 9.5625 2.625 11.4375 3.5625C13.3125 4.5 14.625 4.5 15.4688 4.03125C16.4063 3.75 18 2.8125 19.5938 3.46875C21.0938 4.125 25.5 7.6875 28.6875 8.34375C28.7813 8.34375 28.7813 8.53125 28.6875 8.53125C28.3125 8.625 27.8438 8.71875 27.2813 8.71875C26.3438 8.71875 19.875 5.90625 18.9375 5.53125C18 5.15625 14.625 6.1875 12.8438 5.90625C11.1562 5.71875 9.09375 6.5625 9.09375 6.5625C9.09375 6.5625 6.65625 9.28125 5.625 8.90625Z" fill="#960F4E" stroke="#960F4E" stroke-width="0.364969" stroke-miterlimit="10"/>
<path d="M5.8125 8.90646C5.8125 8.90646 7.96875 7.03146 8.90625 5.25021C9.84375 3.46896 12.4688 4.96896 13.3125 5.25021C14.0625 5.62521 15.5625 5.25021 16.5938 4.78146C17.625 4.31271 19.125 3.93771 20.625 4.96896C22.125 6.00021 26.5312 8.25021 28.5938 8.62521C28.5938 8.62521 26.9063 9.93771 23.5313 9.00021C20.1563 8.06271 19.3125 7.59396 17.3438 7.78146C15.375 7.96896 12.4688 7.96896 10.5938 7.12521C10.5938 7.12521 10.0313 6.75021 9 7.50021C7.96875 8.25021 6 8.90646 5.8125 8.90646Z" fill="#960F0F"/>
<path d="M5.8125 9.00021C5.8125 9.00021 7.96875 6.65646 8.90625 4.87521C9.84375 3.09396 12.4688 4.59396 13.3125 4.87521C14.1562 5.15646 15.6562 4.78146 16.6875 4.31271C17.7187 3.84396 19.2188 3.46896 20.7188 4.50021C22.2188 5.53146 26.4375 8.25021 28.5938 8.62521C28.5938 8.62521 27.0937 9.46896 23.7187 8.53146C20.3437 7.59396 19.5 7.12521 17.5313 7.31271C15.5625 7.50021 12.6562 7.50021 10.7812 6.65646C10.7812 6.65646 10.2188 6.28146 9.1875 7.03146C8.15625 7.78146 6 9.00021 5.8125 9.00021Z" fill="#DD4568"/>
<path d="M5.34375 9.09375L8.71875 17.625C9.375 19.4062 12.2812 20.8125 14.7188 20.5313C17.1562 20.25 20.25 20.1563 21.1875 18.8438C22.125 17.5313 26.7187 10.2188 28.875 8.90625C28.875 8.90625 25.6875 10.4063 23.7187 11.7188C21.75 13.0313 18.9375 16.7812 15.75 16.6875C12.5625 16.5938 10.125 16.0313 8.71875 13.5C7.3125 10.9688 6.375 8.8125 6.375 8.8125L5.34375 9.09375Z" fill="#960F4E"/>
<path d="M6.09375 8.90625C6.09375 9 6.09375 9 6.09375 8.90625C6.28125 9.46875 8.34375 14.5313 9 16.0313C9.65625 17.625 12.375 18.8438 14.5312 18.5625C16.6875 18.2812 19.5938 18.2813 20.5312 17.0625C21.375 15.9375 25.5938 10.875 27.6562 9.28125C27.75 9.28125 27.6562 9.1875 27.5625 9.1875C26.625 9.5625 24.2812 10.5 22.875 11.3438C21 12.4688 18.375 15.2813 15.4688 15.1875C12.5625 15.0938 10.2188 14.625 8.90625 12.375L6.5625 8.8125H6.46875L6.09375 8.90625Z" fill="#DD4568"/>
<path d="M20.4375 5.24999C19.5938 4.78124 18.6563 4.40624 17.625 4.59374C17.1563 4.68749 16.6875 4.87499 16.5938 5.34374C16.5 5.71874 16.7813 6.18749 17.0625 6.37499C17.4375 6.56249 17.8125 6.65624 18.1875 6.65624L20.1563 6.93749C20.7188 7.03124 21.4688 7.21874 22.0313 7.21874C22.7813 7.21874 21.9375 6.56249 21.75 6.37499C21.375 5.90624 21 5.53124 20.4375 5.24999ZM19.875 16.5937C20.3438 16.3125 20.625 15.9375 20.7188 15.4687C20.7188 15.2812 20.7188 15 20.4375 14.9062C20.25 14.8125 19.9688 14.8125 19.7813 14.9062C19.5938 15 19.5 15.1875 19.4063 15.375C19.2188 15.6562 19.0313 15.9375 18.9375 16.2187L18.4688 16.9687C18.375 17.3437 18.8438 17.0625 19.0313 16.9687C19.4063 16.9687 19.6875 16.7812 19.875 16.5937ZM11.7188 5.06249C11.25 4.68749 10.5938 4.49999 10.0313 4.59374C9.75003 4.68749 9.46878 4.78124 9.37503 5.15624C9.28128 5.43749 9.46878 5.71874 9.65628 5.90624C9.84378 6.09374 10.125 6.09374 10.3125 6.18749C10.6875 6.28124 11.1563 6.28124 11.5313 6.37499C11.9063 6.37499 12.375 6.56249 12.75 6.56249C13.2188 6.56249 12.75 6.09374 12.5625 5.90624C12.2813 5.62499 12 5.24999 11.7188 5.06249Z" fill="#F964A0"/>
<path d="M25.7812 9.1875C25.7812 9.1875 26.9062 9.65625 26.7187 10.2187L26.9062 10.3125L28.875 8.8125C28.9687 8.625 28.875 8.4375 28.875 8.4375H28.5937C28.5937 8.4375 27.375 9.09375 25.7812 9.1875ZM7.59375 8.15625C7.59375 8.15625 6.46875 8.53125 5.90625 8.53125L5.53125 9.09375L6.09375 9.84375C6.09375 9.84375 6.46875 9.28125 6.84375 9.375C6.84375 9.375 7.125 8.625 7.59375 8.4375V8.15625Z" fill="#960F0F"/>
<path d="M10.6876 5.4375C10.7814 5.4375 10.9689 5.53125 11.0626 5.53125C11.1564 5.53125 11.3439 5.4375 11.3439 5.34375C11.3439 5.25 11.2501 5.15625 11.0626 5.0625C10.8751 4.96875 10.6876 4.96875 10.5001 4.875H10.1251C9.46887 5.0625 10.5001 5.34375 10.6876 5.4375ZM19.0314 5.34375C19.1251 5.34375 19.3126 5.4375 19.4064 5.4375C19.5001 5.4375 19.6876 5.34375 19.6876 5.25C19.6876 5.15625 19.5939 5.0625 19.4064 4.96875C19.2189 4.875 19.0314 4.875 18.8439 4.78125H18.4689C17.9064 5.0625 18.8439 5.34375 19.0314 5.34375Z" fill="#FFA1CA"/>
<path d="M14.8125 22.5938L21.2813 15L24.9375 7.21878C25.4062 7.03128 27.0937 6.18753 28.5 7.40628C29.9062 8.62503 25.7812 16.3125 25.7812 16.3125L21.0938 24C21 24 15.4688 23.625 14.8125 22.5938Z" fill="#C48051"/>
<path d="M16.0312 23.2501L22.2188 15.9376L25.6875 8.53134C26.1562 8.43759 27.75 7.59384 29.0625 8.71884C30.375 9.84384 26.4375 17.2501 26.4375 17.2501L21.9375 24.6563C21.9375 24.5626 16.6875 24.1876 16.0312 23.2501Z" fill="#C48051"/>
<path d="M15.9375 21.5626L22.125 14.2501L25.5937 6.84384C26.0625 6.75009 27.6562 5.90634 28.9688 7.03134C30.2812 8.15634 26.3438 15.5626 26.3438 15.5626L21.8437 22.9688C21.8437 22.8751 16.5938 22.4063 15.9375 21.5626Z" fill="#FCC097"/>
<path d="M15.8437 21.9375L9.65625 26.5312C9.65625 26.5312 14.25 27.6562 16.2187 27.4687C20.1562 27 22.0312 22.5938 22.0312 22.5938L15.8437 21.9375Z" fill="#FCC097"/>
<path d="M3.74992 13.0315C4.03117 13.219 4.49992 13.219 4.68742 12.9377C5.06242 12.5627 4.96867 11.9065 4.49992 11.5315C4.12492 11.2502 3.28117 10.969 2.99992 11.4377C2.90617 11.8127 3.37492 12.7502 3.74992 13.0315Z" fill="#FFD9C0"/>
<path d="M18.7502 18.0938L16.8752 21.8438C16.4065 22.875 12.9377 26.0625 10.0315 25.6875C7.12521 25.3125 8.90646 23.25 8.90646 23.25L18.7502 18.0938Z" fill="#C48051"/>
<path d="M21.5623 12.375C21.5623 12.375 20.0623 11.0625 15.0936 12.8438C15.0936 12.8438 10.6873 11.3438 6.46858 13.9688C2.24983 16.5938 4.21858 22.3125 6.84358 23.4375C9.46858 24.5625 13.9686 25.2188 15.7498 22.4063C17.5311 19.5938 17.9061 15.5625 21.5623 12.375Z" fill="#4C2537"/>
<path d="M21.9375 12.1875C21.9375 12.1875 19.6875 10.4062 14.7188 12.1875C14.7188 12.1875 12 9.84373 7.78129 12.375C3.56254 14.9062 3.84379 21.6562 6.46879 22.6875C9.09379 23.7187 13.5938 24.4687 15.375 21.6562C17.1563 18.8437 15.75 15.9375 21.9375 12.1875Z" fill="#960F0F"/>
<path d="M15.6563 15.4686C15.2813 15.0936 14.7188 14.8123 14.3438 14.4373C13.875 14.0623 13.5938 13.6873 13.3125 13.2186C13.0313 12.6561 12.8438 12.0936 12.4688 11.6248C12.0938 11.1561 11.7188 10.8748 11.25 10.4998C10.125 10.4061 8.71879 10.6873 7.12504 11.7186C2.90629 14.2498 3.18754 20.9998 5.81254 22.0311C8.43754 23.0623 12.8438 23.8123 14.7188 20.9998C15.375 19.9686 15.9375 18.4686 16.5 16.9686C16.3125 16.4061 16.125 15.9373 15.6563 15.4686Z" fill="#960F0F"/>
<path d="M22.3123 12.3749C22.3123 12.3749 19.3123 9.84365 14.7186 11.5311C14.7186 11.5311 12.1873 9.28115 8.24985 11.7186C4.31235 14.1561 4.5936 20.3436 7.0311 21.3749C9.4686 22.4061 13.0311 23.2499 14.7186 20.6249C16.4061 17.9999 16.8748 11.6249 22.3123 12.3749Z" fill="#DD4545"/>
<path d="M13.875 10.875C13.875 10.875 10.3125 12.5625 9.375 17.8125C9.375 17.8125 9.5625 18.1875 9.75 18.1875C9.9375 18.1875 11.1562 14.0625 13.0312 12.75C14.9062 11.4375 16.3125 10.9687 17.625 10.9687L14.9062 11.0625C14.3437 11.1562 13.875 10.875 13.875 10.875Z" fill="#960F0F"/>
<path d="M17.3439 11.625C17.6252 11.625 17.9064 11.625 18.0939 11.8125C18.2814 12.0938 18.0939 12.375 17.9064 12.6563L15.4689 16.0313C15.1877 16.4063 15.0002 16.7813 14.5314 16.9688C14.1564 17.25 13.5939 17.3438 13.2189 17.0625C12.6564 16.7813 12.6564 16.0312 12.8439 15.4688C13.0314 14.625 13.5002 13.5 14.1564 12.8438C15.0939 12.2812 16.2189 11.8125 17.3439 11.625ZM10.5002 11.4375C10.7814 11.4375 10.9689 11.4375 11.1564 11.625C11.3439 11.8125 11.1564 12.1875 11.0627 12.375L9.00016 15.375C8.81266 15.6562 8.53141 16.0312 8.25016 16.2187C7.96891 16.4062 7.40641 16.5 7.03141 16.3125C6.56266 15.9375 6.56266 15.375 6.65641 14.8125C6.84391 14.0625 7.21891 13.125 7.87516 12.5625C8.53141 11.9062 9.56266 11.5312 10.5002 11.4375Z" fill="#F96464"/>
<path d="M19.2188 13.0311C19.2188 13.0311 20.9063 11.9999 20.3438 11.3436C20.3438 11.3436 21.6563 11.1561 22.5938 11.2499C22.7813 11.2499 22.875 11.5311 22.6875 11.6249L21.375 12.6561L19.2188 13.0311Z" fill="#960F4E"/>
<path d="M24.6562 7.875C24.6562 7.875 26.3438 6.84375 27.75 6.9375L27.9375 5.90625C27.9375 5.90625 25.125 6.375 24.75 7.40625L24.6562 7.875Z" fill="#C48051"/>
<path d="M26.25 9.75017C26.25 9.75017 27.1875 6.37517 27.5625 6.09392C27.9375 5.81267 29.7188 5.81267 30 6.37517C30.2812 6.93767 29.625 9.65642 29.1563 10.7814C29.0625 10.6877 27 10.6877 26.25 9.75017Z" fill="#DD4568"/>
<path d="M25.9688 11.1562C26.25 11.25 26.5313 11.625 26.4375 12C26.4375 12.1875 26.3438 12.2812 26.25 12.4687L25.4063 13.9687L24.5625 15.5625C24.4688 15.8437 24.2813 16.0312 24 16.0312C23.8125 16.0312 23.625 15.9375 23.5313 15.75C23.4375 15.5625 23.4375 15.375 23.4375 15.1875C23.3438 14.0625 24.0938 10.3125 25.9688 11.1562ZM20.7188 19.875C21 19.9687 21.2813 20.3437 21.1875 20.7187C21.1875 20.9062 21.0938 21 21 21.1875L20.1563 22.6875L19.3125 24.2812C19.2188 24.5625 19.0313 24.75 18.75 24.75C18.5625 24.75 18.375 24.6562 18.2813 24.4687C18.1875 24.2812 18.1875 24.0937 18.1875 24C18 22.7812 18.75 19.0312 20.7188 19.875Z" fill="#FFD9C0"/>
<path d="M24.4685 18C23.9998 17.9063 23.6248 17.7188 23.2498 17.5313C23.0623 17.4375 22.8748 17.4375 22.6873 17.4375C22.4998 17.4375 22.3123 17.5312 22.3123 17.7187C22.3123 17.9062 22.5935 18 22.8748 18.0937L24.7498 18.6562C24.0935 18.6562 23.4373 18.5625 22.6873 18.5625C22.4998 18.5625 22.3123 18.5625 22.2185 18.6562C22.1248 18.75 22.2185 18.8438 22.3123 18.9375C22.406 19.0313 22.5935 19.0312 22.6873 19.125C23.2498 19.3125 23.906 19.4062 24.3748 19.2187C24.9373 19.0312 25.2185 18.6562 25.4998 18.2812L25.8748 18C25.406 18.1875 24.8435 18.0938 24.4685 18Z" fill="#C48051"/>
<path d="M5.06266 7.78125C5.06266 7.96875 5.15641 8.0625 5.06266 8.25C5.06266 8.34375 4.87516 8.4375 4.68766 8.53125C4.50016 8.625 4.40641 8.71875 4.21891 8.625C4.03141 8.625 3.93766 8.34375 3.84391 8.15625L3.00016 6.09375C3.00016 6 2.90641 5.8125 3.00016 5.8125C3.09391 5.8125 3.09391 5.71875 3.18766 5.71875C3.46891 5.71875 3.84391 5.71875 4.12516 5.625C4.40641 5.625 4.40641 5.71875 4.50016 6C4.68766 6.28125 4.68766 6.5625 4.78141 6.84375C4.78141 7.03125 4.87516 7.125 4.87516 7.3125C4.96891 7.40625 5.06266 7.59375 5.06266 7.78125ZM27.7502 8.90625C27.7502 9.09375 27.6564 9.28125 27.8439 9.46875C27.9377 9.65625 28.1252 9.65625 28.3127 9.65625C28.5002 9.65625 28.5939 9.46875 28.7814 9.375C29.1564 9 29.2502 8.4375 29.3439 7.875C29.3439 7.59375 29.4377 7.3125 29.3439 7.125C29.2502 6.9375 29.0627 6.84375 28.8752 6.75C28.1252 6.5625 28.1252 6.84375 28.0314 7.3125L27.7502 8.90625Z" fill="#F964A0"/>
<path opacity="0.6" d="M17.1562 20.3438L16.9688 21.5625C16.9688 21.5625 15.75 28.125 12 27.2812L9.1875 26.7187L8.71875 25.125L12.375 24.2812C12.375 24.2812 13.3125 25.0312 14.625 23.8125C15.9375 22.6875 17.1562 20.3438 17.1562 20.3438Z" fill="#C48051"/>
<path d="M11.4375 24.1875L10.3125 27L9.375 26.8125L10.125 24L11.4375 24.1875Z" fill="#4C2537"/>
</g>
<defs>
<clipPath id="clip0_1_4932">
<rect width="30" height="30" fill="white"/>
</clipPath>
</defs>
</svg>
