<svg width="32" height="16" viewBox="0 0 32 16" fill="none" xmlns="http://www.w3.org/2000/svg">
<g clip-path="url(#clip0_1_8249)">
<path d="M31.5199 0.449731C31.454 0.387313 31.3675 0.353027 31.2782 0.353027C31.2596 0.353027 31.2407 0.354786 31.2223 0.357599L28.5234 0.795401C28.3616 0.821423 28.2398 0.95628 28.2289 1.12015L28.0158 4.36393L27.9947 4.82758L27.9032 4.59637L26.6813 1.37966C26.6285 1.24164 26.4972 1.15109 26.3535 1.15109C26.3351 1.15109 26.3163 1.15285 26.2973 1.15549L23.2045 1.65588C23.0428 1.68191 22.9207 1.81676 22.91 1.98081L22.6864 5.39707L22.6783 5.6049L22.5376 5.25588L21.3763 2.2361C21.3235 2.09843 21.1922 2.01052 21.0493 2.01052C21.0308 2.01052 21.0118 2.01193 20.993 2.01492L18.2366 2.46151C18.1285 2.47909 18.0351 2.54591 17.9834 2.64296C17.9317 2.74002 17.9279 2.85536 17.9729 2.9554L21.4946 10.7404C21.5523 10.8678 21.6784 10.9471 21.8143 10.9471C21.8327 10.9471 21.8517 10.9457 21.8702 10.9427L24.8123 10.4657C24.9698 10.4401 25.0901 10.3114 25.1059 10.1524L25.3738 7.43241L25.4043 6.6943L25.4987 6.96068C25.5048 6.97791 25.5124 6.99443 25.521 7.01043L27.0593 9.86371C27.1215 9.9787 27.2404 10.0483 27.3679 10.0483C27.3865 10.0483 27.4051 10.0466 27.4241 10.0438L30.4163 9.55848C30.5723 9.53316 30.6923 9.40621 30.7092 9.24832L31.6258 0.743709C31.6377 0.633994 31.598 0.525335 31.5203 0.449731H31.5199ZM9.44416 7.25149C9.27801 6.21413 8.86131 5.43698 8.20583 4.94063C7.70702 4.56314 7.10342 4.37167 6.41243 4.37167C6.19177 4.37167 5.95845 4.39136 5.72566 4.42916C5.17005 4.50828 4.64874 4.70169 4.17366 5.00586C3.87212 5.20156 3.61753 5.45457 3.42166 5.7503L3.1435 5.23443C3.08144 5.11945 2.96241 5.04982 2.83493 5.04982C2.81647 5.04982 2.79766 5.05123 2.77902 5.05421L0.666669 5.39602C0.574713 5.41096 0.492603 5.46195 0.438097 5.53773C0.383592 5.61351 0.361262 5.70828 0.376031 5.80041L1.68557 13.9439C1.7137 14.1171 1.86245 14.2403 2.03194 14.2403C2.05058 14.2403 2.06939 14.2389 2.08821 14.2359L4.88733 13.7823C4.97911 13.7674 5.06139 13.7164 5.1159 13.6406C5.17041 13.5648 5.19274 13.4704 5.17797 13.3779L4.60478 9.81395C4.43335 8.74793 4.5021 8.23452 4.59142 7.98714C4.68689 7.71162 4.93568 7.51558 5.22509 7.4878C5.24003 7.48639 5.25498 7.48428 5.26975 7.48076C5.3028 7.4732 5.33656 7.46934 5.37067 7.46934C5.50992 7.46934 5.64408 7.53527 5.73216 7.64868C5.84205 7.78705 5.99344 8.07734 6.08961 8.67268L6.80399 13.1145C6.83212 13.2879 6.98087 13.4111 7.15036 13.4111C7.169 13.4111 7.18781 13.4097 7.20662 13.4067L10.0057 12.9531C10.0977 12.9382 10.1798 12.8872 10.2343 12.8114C10.2888 12.7356 10.3112 12.6412 10.2964 12.5487L9.44434 7.25167L9.44416 7.25149ZM18.7708 6.46345C18.5626 5.16762 18.0274 4.2136 17.1803 3.62775C16.5628 3.2005 15.8094 2.98424 14.9403 2.98424C14.6248 2.98424 14.2883 3.0129 13.9402 3.06934C12.5631 3.29263 11.5468 3.87584 10.9195 4.80296C10.2966 5.72358 10.0996 6.93096 10.3345 8.39153C10.5636 9.81571 11.1563 10.8696 12.0963 11.523C12.785 12.0023 13.6228 12.2452 14.586 12.2452C14.9292 12.2452 15.2945 12.2141 15.6683 12.1538C16.2503 12.067 16.8274 11.9252 17.3897 11.7361C17.8814 11.5594 18.344 11.3118 18.7646 11.0002C18.8704 10.922 18.9235 10.791 18.9026 10.6604L18.5774 8.64015C18.558 8.52059 18.4789 8.41931 18.3681 8.37202C18.3242 8.35338 18.2774 8.34388 18.231 8.34388C18.1603 8.34388 18.0903 8.36498 18.0305 8.40718C17.656 8.66846 17.2527 8.8907 16.8393 9.06424C16.4332 9.22353 16.0094 9.33799 15.5797 9.40428C15.5723 9.40534 15.5651 9.40674 15.5577 9.40815C15.4435 9.43329 15.3267 9.44613 15.21 9.44613C14.9515 9.44613 14.6936 9.38318 14.4639 9.2638C14.3018 9.16534 14.1714 9.02696 14.0833 8.86415L18.6811 8.11901C18.7732 8.10406 18.8555 8.05307 18.9102 7.97729C18.9649 7.90151 18.9868 7.80709 18.9721 7.71461L18.7708 6.46345ZM13.752 6.3889C13.7744 6.21694 13.8255 6.07874 13.905 5.97571C14.0397 5.80217 14.2333 5.69087 14.4501 5.66186C14.4588 5.66081 14.4673 5.65923 14.4759 5.65764C14.5269 5.64674 14.5796 5.64129 14.6315 5.64129C14.8006 5.64129 14.9656 5.69896 15.0892 5.79426C15.1991 5.88832 15.2875 6.00261 15.3508 6.12973L13.752 6.3889Z" fill="#FFC81D"/>
<path d="M12.8349 5.09885C13.2995 4.84268 13.681 4.4476 14.0657 4.57138C14.1993 4.61446 14.3295 4.78307 14.4174 4.74721C14.5475 4.69516 14.5809 4.30677 14.4174 4.04391C14.2878 3.83521 13.9439 3.69929 13.3373 3.64198C12.8228 3.59327 12.2924 3.63318 12.1316 3.69226C11.288 4.00347 10.6946 4.94659 10.9009 5.27468C11.0946 5.58307 12.0942 5.50712 12.8349 5.09885ZM17.758 4.21973C17.6416 4.13569 17.2895 3.9138 17.0547 4.04391C16.6922 4.24488 16.7942 5.19591 16.8789 5.62633C16.9355 5.91345 17.0129 6.15274 16.8789 6.32962C16.6788 6.59336 16.2169 6.4418 15.6007 6.46905C15.019 6.4949 14.663 6.73226 14.0657 6.8571C13.6131 6.95151 13.1326 7.02589 12.8349 7.03292C12.472 7.04171 11.3651 6.82721 11.2525 7.03292C11.133 7.25217 11.5912 7.81041 12.1316 8.08787C12.58 8.31644 13.0899 8.35213 13.5382 8.26369C13.9971 8.17314 14.455 7.89973 15.0257 7.5894C15.3111 7.4338 15.7508 7.20998 15.9998 7.38457C16.2131 7.53437 16.132 7.87512 16.3514 8.08787C16.5273 8.26017 16.7734 8.26316 17.0547 8.26369C17.6863 8.26474 18.1255 8.28127 18.4613 8.08787C18.7644 7.91169 18.9315 7.69578 18.9888 7.56039C19.2038 7.05279 18.7651 6.65138 18.4613 5.80215C18.1923 5.05015 18.2375 4.56523 17.758 4.21973ZM18.6371 8.43951C18.282 8.22202 17.7668 8.52215 17.2306 8.79116C16.4362 9.18993 15.7607 9.31723 14.9448 9.67028C14.6064 9.81674 14.3031 9.9407 13.8899 10.0219C13.23 10.1515 12.4877 10.1334 11.78 10.0219C11.4155 9.96461 11.1562 9.90061 11.0767 10.0219C10.9385 10.2329 11.4429 10.8536 11.9558 11.2527C12.5385 11.7063 13.1646 11.8716 13.5382 11.956C14.3224 12.1336 15.2054 12.2978 15.5817 12.2834C16.8669 12.2347 17.7397 11.8514 18.2855 11.2527C18.5111 11.0053 18.6934 10.7089 18.813 10.3736C19.0538 9.69841 19.0908 8.71732 18.6371 8.43951ZM21.9328 5.46386C22.1016 5.38052 22.1656 5.09921 22.1536 4.57138C22.1202 3.10501 21.6912 2.32382 21.2745 2.10984C20.9847 1.96092 20.5018 1.8665 20.2196 2.10984C20.0912 2.22061 19.9695 2.58896 20.0437 3.16479C20.1306 3.84048 20.4446 4.44918 20.9229 4.92303C21.3484 5.34466 21.7106 5.57323 21.9328 5.46386ZM24.2635 4.57138C23.8732 4.42123 23.3206 4.55644 23.0327 4.92303C22.8232 5.19028 22.7778 5.56549 22.8569 5.97797C22.9862 6.65138 23.4906 6.89314 23.5602 7.56039C23.5884 7.82852 23.5567 8.28514 23.2478 8.61639C23.0813 8.79503 22.7309 8.98562 22.1536 9.01727C21.8354 9.03485 21.6082 8.98211 21.4503 9.14281C21.3512 9.24268 21.2838 9.4927 21.3603 9.89288C21.416 10.1835 21.5836 10.7368 21.9986 10.903C22.3261 11.0342 22.5594 10.839 23.0329 10.7254C23.6592 10.5752 24.3108 10.9065 24.7912 10.5496C25.1031 10.3178 25.2548 9.91169 25.3186 9.14299C25.3992 8.17244 25.2425 7.15969 25.1428 6.68145C24.8884 5.46158 24.7375 4.75371 24.2637 4.57156L24.2635 4.57138ZM27.4284 3.51644C27.5131 2.53094 27.3109 1.77578 26.7251 1.40655C26.0564 0.987206 25.0277 1.11749 24.791 1.58237C24.5248 2.1058 25.7716 3.20083 26.1976 4.21973C26.3915 4.68356 26.507 5.09252 26.7251 5.09885C27.0454 5.10835 27.3659 4.24259 27.4284 3.51644ZM31.2965 1.40655C31.0266 1.26378 30.6412 1.41217 30.4174 1.58237C29.9409 1.94422 29.9105 2.61516 29.8899 3.16479C29.8676 3.76294 29.8055 4.52567 29.7317 5.24479C29.6965 5.59644 29.6019 6.14149 29.3624 6.68127C29.1862 7.08285 28.9359 7.45033 28.8079 7.57147C28.4193 7.93894 27.8728 8.11705 27.2525 8.43951C27.0679 8.53569 26.8 8.68567 26.7251 8.96699C26.6407 9.28171 26.8358 9.64602 27.0767 9.84611C27.5734 10.2589 28.3103 9.8171 29.5382 9.67028C29.9168 9.62492 30.1839 9.63863 30.4174 9.49446C31.261 8.97402 31.0742 7.56321 31.1207 5.97797C31.14 5.32391 31.9335 1.74343 31.2965 1.40655ZM8.79099 7.03292C8.70835 6.81437 8.40769 6.12655 8.08769 5.62633C7.66572 4.9698 7.24936 4.54184 7.20857 4.57138C7.16198 4.60479 7.70352 5.24514 7.91187 6.1538C8.10352 6.98896 7.81517 7.44382 7.91187 8.26369C7.96725 8.73314 8.60778 9.96918 8.26352 10.5494C8.164 10.7171 7.75011 11.0171 7.20857 11.2527C6.99618 11.3452 6.81297 11.4092 6.6811 11.6043C6.38044 12.0506 6.55838 12.8796 7.03275 13.1868C7.37438 13.4083 7.73605 13.2722 8.26352 13.1868C8.93974 13.0771 9.81394 13.3717 10.1976 13.0109C10.6266 12.6076 10.5359 11.4227 9.84594 9.49446C9.52506 8.5974 9.12717 7.92435 8.79099 7.03292ZM3.86791 5.27468C3.67732 5.28417 3.54299 5.34677 3.34044 5.4505C3.00866 5.62017 2.64822 5.80215 2.50264 5.93138C2.09736 6.28672 1.86 6.77446 1.75802 7.20874C1.51363 8.24892 1.99011 9.28927 2.34791 10.5605C2.43231 10.8606 2.57086 11.4122 2.2855 11.7802C2.07802 12.0478 1.80778 12.0017 1.59873 12.2654C1.22703 12.734 1.39583 13.7239 1.93385 14.0659C2.24717 14.2651 2.5844 14.1508 3.19046 14.0483C3.92453 13.9242 4.46941 14.0005 4.74703 13.7142C5.19187 13.256 4.94114 12.3644 4.74703 10.9011C4.68602 10.4411 4.68602 10.0174 4.57121 9.67028C4.39539 9.13982 4.14044 8.79503 4.21956 8.26369C4.24734 8.07732 4.36128 7.57094 4.74703 7.38457C5.15389 7.18817 5.64479 7.55424 5.80198 7.38457C5.98484 7.18765 5.55354 6.47028 5.09868 5.97797C4.60005 5.43644 4.11723 5.26237 3.86791 5.27468Z" fill="#F97700"/>
<path d="M31.7619 0.193895C31.63 0.0690597 31.4567 0.000488281 31.2778 0.000488281C31.2406 0.000488281 31.2031 0.00365312 31.1657 0.00927949L28.4668 0.447433C28.144 0.499829 27.8997 0.769192 27.8783 1.0971L27.7411 3.1815L27.0085 1.25394C26.9033 0.977367 26.6398 0.800313 26.3527 0.799961C26.3157 0.799961 26.2781 0.803126 26.2407 0.808752L23.1462 1.30915C22.823 1.36154 22.5788 1.63091 22.5571 1.95899L22.4235 3.98976L21.7009 2.1102C21.595 1.83504 21.3322 1.65904 21.0463 1.65904C21.0094 1.65904 20.9716 1.66203 20.9338 1.66818L18.1804 2.11513C17.9641 2.15029 17.7767 2.28444 17.6733 2.47803C17.5699 2.67161 17.5622 2.90264 17.6529 3.10273L18.0086 3.88972C17.8204 3.68154 17.6102 3.49763 17.3791 3.33763C16.7022 2.86941 15.8814 2.63187 14.9401 2.63187C14.606 2.63187 14.2509 2.66211 13.8843 2.72154C12.408 2.96066 11.3128 3.59469 10.6292 4.60515C9.99275 5.54581 9.76453 6.7502 9.94985 8.18387L9.79072 7.19539C9.60962 6.06554 9.14756 5.21209 8.41719 4.65948C7.85631 4.23486 7.18167 4.01948 6.41244 4.01948C6.17543 4.01948 5.92541 4.04058 5.66976 4.08172C5.06668 4.1684 4.50053 4.37921 3.98677 4.708C3.8018 4.82844 3.63283 4.96647 3.48127 5.12084L3.45226 5.06757C3.32831 4.83724 3.08971 4.69798 2.83688 4.69798C2.80171 4.69798 2.7625 4.70097 2.72488 4.70677L0.610944 5.04787C0.427207 5.07776 0.26246 5.17939 0.153449 5.33095C0.0444382 5.48251 -0.000221174 5.67152 0.0294931 5.85596L1.33938 13.9994C1.39494 14.3458 1.69332 14.5923 2.0316 14.5923C2.06888 14.5923 2.1065 14.5888 2.14466 14.583L4.94343 14.1294C5.12716 14.0995 5.29156 13.9975 5.40057 13.848C5.50958 13.6986 5.55424 13.5073 5.52453 13.3229L4.95134 9.75891C4.78343 8.71521 4.85991 8.27952 4.91969 8.11319L4.92286 8.10405C4.97349 7.95847 5.10519 7.85473 5.25815 7.83996C5.28804 7.83715 5.31793 7.8324 5.3473 7.82554C5.35503 7.82379 5.36277 7.82291 5.3705 7.82291C5.40215 7.82291 5.43257 7.83785 5.45209 7.86335C5.45384 7.86581 5.4556 7.86792 5.45736 7.87038C5.52769 7.95653 5.65428 8.18335 5.7429 8.73121L6.4571 13.1725C6.51283 13.5189 6.81121 13.7654 7.14949 13.7654C7.18642 13.7654 7.22422 13.7619 7.26202 13.7561L10.0611 13.3025C10.2449 13.2729 10.4096 13.1709 10.5186 13.0211C10.6276 12.8713 10.6723 12.6804 10.6426 12.496L10.032 8.69851C10.3045 10.097 10.9311 11.1453 11.8964 11.8164C12.6449 12.3374 13.5498 12.6013 14.586 12.6013C14.9482 12.6013 15.3324 12.5688 15.7285 12.5046C16.3224 12.4158 16.9202 12.2711 17.4962 12.0756C17.4997 12.0742 17.5041 12.0729 17.5078 12.0715C18.0318 11.8834 18.5246 11.6197 18.9728 11.2879C19.1843 11.1309 19.291 10.8685 19.2492 10.6081L18.9239 8.58616C18.9151 8.53201 18.9 8.47978 18.88 8.4302C19.0051 8.38132 19.1149 8.29658 19.1964 8.18581C19.3054 8.0346 19.3499 7.84506 19.3204 7.6608L19.1189 6.40893L19.1006 6.30044L21.1767 10.8895C21.2917 11.144 21.5439 11.303 21.8159 11.303C21.8528 11.303 21.8906 11.3 21.9284 11.2942L24.8703 10.8172C25.185 10.7662 25.4259 10.5088 25.4572 10.1902L25.6706 8.02669L26.7548 10.0335C26.8789 10.2633 27.1173 10.4024 27.3719 10.4024C27.4088 10.4024 27.4465 10.3994 27.4844 10.3933L30.4764 9.90801C30.7884 9.85702 31.0285 9.60348 31.0626 9.2877L31.9794 0.783082C32.0026 0.564005 31.9231 0.347038 31.764 0.195829L31.7619 0.193895ZM7.15037 13.0584L6.436 8.61605C6.34844 8.07486 6.20532 7.67891 6.00664 7.42871C5.85191 7.22897 5.61595 7.11644 5.3705 7.11644C5.31125 7.11644 5.25094 7.12295 5.19169 7.13649C4.76479 7.17693 4.40048 7.46387 4.25982 7.87073C4.11037 8.28321 4.11002 8.94959 4.25806 9.86985L4.83125 13.4338L2.03213 13.8874L0.722768 5.74414L2.83512 5.40251L3.3473 6.35249L3.51204 6.32612C3.68681 5.9059 3.98378 5.54932 4.36444 5.30229C4.79222 5.02853 5.27292 4.85007 5.77508 4.77833C5.99732 4.74229 6.20989 4.72418 6.41261 4.72418C7.0287 4.72418 7.556 4.89016 7.99468 5.22229C8.57789 5.66361 8.94554 6.35882 9.09763 7.30757L9.94985 12.6051L7.15072 13.0588L7.15037 13.0584ZM13.6225 8.58194C13.6884 8.99548 13.9337 9.35785 14.2924 9.57183C14.5772 9.72198 14.8923 9.79864 15.2102 9.79864C15.3513 9.79864 15.4915 9.78335 15.6328 9.75293C16.0894 9.6826 16.5366 9.56181 16.9668 9.39284C17.4116 9.20612 17.8354 8.97315 18.231 8.69658L18.5563 10.7163C18.1638 11.0069 17.7308 11.239 17.2715 11.402C16.7331 11.5848 16.1791 11.7192 15.6188 11.8029C15.2576 11.8612 14.9141 11.8908 14.5881 11.8908C13.6935 11.8908 12.9301 11.671 12.2983 11.2314C11.4361 10.6336 10.8977 9.66554 10.6836 8.3335C10.462 6.95855 10.6387 5.84699 11.2123 4.99935C11.7858 4.1517 12.7145 3.6237 13.9985 3.41552C14.3294 3.3619 14.6442 3.33499 14.9424 3.33499C15.7424 3.33499 16.4228 3.52875 16.983 3.91609C17.7519 4.44796 18.2327 5.31513 18.426 6.51794L18.6275 7.76928L13.6242 8.58053L13.6225 8.58194ZM16.4114 8.84568C16.1225 8.94027 15.8262 9.01095 15.5263 9.05737C15.5117 9.05965 15.4969 9.06212 15.4823 9.06563C15.393 9.08497 15.3012 9.09517 15.2098 9.09517C15.1365 9.09517 15.063 9.08884 14.9904 9.07583L16.4114 8.84726V8.84568ZM30.3613 9.21139L27.3694 9.69666L25.8292 6.84532L25.4252 5.70844L25.1305 4.79011L25.0876 4.79715L25.0231 7.41095L24.7562 10.1204L21.8143 10.5974L18.2925 2.81262L21.0487 2.36568L22.2101 5.38546C22.5927 6.42458 22.8575 6.41508 23.0048 7.11873L23.0479 7.1117C22.9916 6.66862 22.9876 6.69007 23.037 5.41359L23.2603 2.00699L26.3548 1.5066L27.5767 4.7233C27.9671 5.7466 28.2378 6.01948 28.3896 6.5997L28.4325 6.59266C28.4026 6.22378 28.3774 6.29077 28.3565 5.7364C28.3345 5.28699 28.3382 4.83724 28.3674 4.38853L28.5802 1.14528L31.2796 0.707477L30.3629 9.21209L30.3613 9.21139ZM15.3162 5.52611C15.1185 5.37139 14.8771 5.28875 14.631 5.28875C14.5554 5.28875 14.4789 5.29649 14.4036 5.31249C14.0965 5.35293 13.8176 5.51381 13.6272 5.75908C13.4391 6.00348 13.3617 6.35161 13.3951 6.80348L15.8 6.4135C15.7526 6.06801 15.5803 5.75205 15.3162 5.52559V5.52611Z" fill="#323232"/>
</g>
<defs>
<clipPath id="clip0_1_8249">
<rect width="32" height="14.5934" fill="white"/>
</clipPath>
</defs>
</svg>
