<svg width="25" height="25" viewBox="0 0 25 25" fill="none" xmlns="http://www.w3.org/2000/svg">
<path fill-rule="evenodd" clip-rule="evenodd" d="M12.7717 0.551086C7.56087 0.551086 3.35109 4.86413 3.35109 10.1652C3.35109 13.6652 6.16087 18.162 11.7022 23.8967C12.287 24.5011 13.2565 24.5011 13.8413 23.8967L14.3163 23.4011C19.5435 17.9022 22.1924 13.5641 22.1924 10.1652C22.1924 4.86413 17.9826 0.551086 12.7717 0.551086ZM12.7717 3.52609C16.3239 3.52609 19.2174 6.49022 19.2174 10.1652L19.2152 10.2772C19.15 12.5022 17.1641 15.875 13.2043 20.2283L12.7717 20.6989L12.7565 20.6826C8.44892 16.0326 6.32609 12.4641 6.32609 10.1652C6.32609 6.49022 9.22065 3.52609 12.7717 3.52609ZM12.7717 5.01304C11.5884 5.01304 10.4534 5.48314 9.61666 6.31992C8.77988 7.1567 8.30978 8.29162 8.30978 9.475C8.30978 10.6584 8.77988 11.7933 9.61666 12.6301C10.4534 13.4669 11.5884 13.937 12.7717 13.937C13.9551 13.937 15.09 13.4669 15.9268 12.6301C16.7636 11.7933 17.2337 10.6584 17.2337 9.475C17.2337 8.29162 16.7636 7.1567 15.9268 6.31992C15.09 5.48314 13.9551 5.01304 12.7717 5.01304ZM12.7717 7.98804C13.1663 7.98804 13.5446 8.14476 13.8236 8.42372C14.1025 8.70268 14.2592 9.08103 14.2592 9.47554C14.2592 9.87005 14.1025 10.2484 13.8236 10.5274C13.5446 10.8063 13.1663 10.963 12.7717 10.963C12.3772 10.963 11.9989 10.8063 11.7199 10.5274C11.441 10.2484 11.2842 9.87005 11.2842 9.47554C11.2842 9.08103 11.441 8.70268 11.7199 8.42372C11.9989 8.14476 12.3772 7.98804 12.7717 7.98804Z" fill="#0E0E0E"/>
</svg>
