<svg width="30" height="30" viewBox="0 0 30 30" fill="none" xmlns="http://www.w3.org/2000/svg">
<g clip-path="url(#clip0_1_12851)">
<path d="M23.9062 4.03125C23.9062 4.03125 27 17.9063 24 20.1563C21 22.4063 18.2812 24 18.2812 24L15.0938 22.3125L14.8125 16.6875L23.9062 4.03125Z" fill="#422F28"/>
<path d="M20.3438 8.25C22.7773 8.25 24.75 6.40317 24.75 4.125C24.75 1.84683 22.7773 0 20.3438 0C17.9102 0 15.9375 1.84683 15.9375 4.125C15.9375 6.40317 17.9102 8.25 20.3438 8.25Z" fill="#422F28"/>
<path d="M18.8438 9.65625C21.2773 9.65625 23.25 7.80942 23.25 5.53125C23.25 3.25308 21.2773 1.40625 18.8438 1.40625C16.4102 1.40625 14.4375 3.25308 14.4375 5.53125C14.4375 7.80942 16.4102 9.65625 18.8438 9.65625Z" fill="#893E27"/>
<path d="M19.8752 17.9062C21.6564 18.4687 23.3439 19.9687 23.9064 22.0312C24.4689 24.1875 23.7189 26.8125 22.0314 27.9375C21.0002 28.875 19.6877 29.0625 18.3752 29.0625C15.2814 29.0625 12.2814 28.0312 9.18766 27C8.15641 26.625 7.12516 26.3437 6.28141 25.6875C5.34391 25.0312 4.59391 24 4.50016 22.7812C4.31266 21.0937 5.34391 19.5 6.56266 18.6562C8.81266 17.25 11.1564 16.5938 13.5002 16.5938C15.4689 16.5938 18.0002 17.25 19.8752 17.9062Z" fill="#A53829"/>
<path d="M20.0627 16.875C21.8439 17.4375 23.5314 18.9375 24.0939 21C24.6564 23.1562 23.9064 25.7813 22.2189 26.9063C21.0939 27.6563 19.7814 27.9375 18.5627 27.9375C15.4689 27.9375 12.4689 26.9062 9.37516 25.875C8.34391 25.5 7.31266 25.2188 6.46891 24.5625C5.53141 23.9063 4.78141 22.875 4.68766 21.6563C4.50016 19.9688 5.53141 18.375 6.75016 17.5313C9.00016 16.125 11.3439 15.4688 13.6877 15.4688C15.7502 15.4688 18.1877 16.2188 20.0627 16.875Z" fill="#D3624F"/>
<path d="M19.7813 15.5625C21.4688 16.125 23.0625 17.625 23.5313 19.6875C24.0938 21.8437 23.3438 24.4687 21.75 25.5937C20.7188 26.3437 19.5 26.625 18.2813 26.625C15.375 26.625 12.5625 25.5938 9.65627 24.5625C8.71877 24.1875 7.68752 23.9062 6.84377 23.25C6.00002 22.5937 5.25002 21.5625 5.15627 20.3438C4.96877 18.6563 5.90627 17.0625 7.12502 16.2187C9.18752 14.8125 11.4375 14.1562 13.5938 14.1562C15.6563 14.1562 18 14.9062 19.7813 15.5625Z" fill="#E5A98C"/>
<path d="M21.0335 22.856C21.6405 20.9845 21.0945 19.1307 19.814 18.7154C18.5335 18.3001 17.0034 19.4806 16.3964 21.3521C15.7894 23.2236 16.3354 25.0774 17.6159 25.4927C18.8964 25.908 20.4265 24.7275 21.0335 22.856Z" fill="#F7BFA9"/>
<path d="M23.1348 9.90146C23.1526 4.98267 19.1796 0.980759 14.2608 0.962936C9.34205 0.945113 5.34013 4.91813 5.32231 9.83691C5.30449 14.7557 9.2775 18.7576 14.1963 18.7754C19.1151 18.7933 23.117 14.8202 23.1348 9.90146Z" fill="#A67A65"/>
<path d="M22.7163 9.22803C22.7336 4.46458 18.886 0.58904 14.1226 0.57178C9.35911 0.55452 5.48357 4.40207 5.46631 9.16553C5.44905 13.929 9.2966 17.8045 14.0601 17.8218C18.8235 17.839 22.6991 13.9915 22.7163 9.22803Z" fill="#E5A98C"/>
<path d="M22.6778 8.9886C22.6944 4.43225 19.098 0.725527 14.6452 0.709392C10.1924 0.693257 6.56935 4.37383 6.55284 8.93018C6.53633 13.4865 10.1327 17.1933 14.5854 17.2094C19.0382 17.2255 22.6613 13.545 22.6778 8.9886Z" fill="#E5A98C"/>
<path d="M18.1975 10.1525C18.2095 6.83877 15.6169 4.14305 12.4068 4.13141C9.19661 4.11978 6.58453 6.79664 6.57252 10.1104C6.56052 13.4241 9.15313 16.1198 12.3633 16.1314C15.5734 16.143 18.1855 13.4662 18.1975 10.1525Z" fill="#F7BFA9"/>
<path d="M15.1074 10.8043C15.1093 10.2865 14.775 9.86555 14.3608 9.86405C13.9466 9.86255 13.6093 10.2811 13.6074 10.7988C13.6055 11.3166 13.9398 11.7375 14.354 11.739C14.7682 11.7405 15.1055 11.322 15.1074 10.8043Z" fill="#425763"/>
<path d="M14.6265 10.4061C14.6271 10.2508 14.5436 10.1246 14.44 10.1242C14.3365 10.1238 14.2521 10.2495 14.2515 10.4048C14.2509 10.5601 14.3344 10.6863 14.438 10.6867C14.5415 10.6871 14.6259 10.5615 14.6265 10.4061Z" fill="white"/>
<path d="M8.73191 9.41169C8.73379 8.89392 8.39952 8.47297 7.98531 8.47147C7.5711 8.46997 7.23379 8.88848 7.23191 9.40625C7.23004 9.92402 7.5643 10.345 7.97852 10.3465C8.39273 10.348 8.73004 9.92945 8.73191 9.41169Z" fill="#425763"/>
<path d="M8.34477 9.01357C8.34533 8.85824 8.26184 8.73201 8.15829 8.73164C8.05473 8.73126 7.97033 8.85688 7.96977 9.01221C7.96921 9.16754 8.0527 9.29376 8.15625 9.29414C8.2598 9.29451 8.34421 9.1689 8.34477 9.01357Z" fill="white"/>
<path d="M12.5625 14.8125C12.5625 14.8125 11.7187 14.7187 11.1562 14.25C10.5937 13.7812 10.0312 13.875 9.9375 13.875C9.84375 13.875 9.65625 13.6875 9.46875 13.5938C9.28125 13.5 9 13.5 9 13.5938C9 13.6875 9.28125 14.1563 9.28125 14.1563V14.7187C9.1875 14.9062 9.28125 15.4688 9.9375 15.6563C10.5938 15.8438 10.9687 15.75 11.25 15.5625C11.4375 15.4688 12.5625 14.8125 12.5625 14.8125Z" fill="#A67A65"/>
<path d="M8.8125 3.7502C8.8125 3.7502 9 6.3752 12.4688 6.65645C15.9375 6.9377 22.125 8.4377 22.7812 10.4064C22.7812 10.4064 24.1875 5.6252 19.9688 2.53145C15.75 -0.562302 9.375 -0.468552 8.8125 3.7502Z" fill="#422F28"/>
<path d="M10.6873 3.28142L10.0311 2.62517C10.0311 2.62517 8.34355 1.21892 7.03105 1.87517C5.71855 2.53142 4.40605 7.03142 9.84355 6.37517L11.1561 6.28142C11.1561 6.28142 11.2498 3.65642 10.6873 3.28142ZM18.7498 13.2189C18.7498 13.2189 19.4061 12.0939 20.8123 12.0939C22.2186 12.0939 23.4373 10.9689 22.9686 8.34392C22.4998 5.71892 19.4061 5.43767 19.4061 5.43767L19.8748 9.00017L18.7498 13.2189Z" fill="#422F28"/>
<path d="M20.0625 13.4063C20.8392 13.4063 21.4688 12.6088 21.4688 11.625C21.4688 10.6412 20.8392 9.84375 20.0625 9.84375C19.2858 9.84375 18.6562 10.6412 18.6562 11.625C18.6562 12.6088 19.2858 13.4063 20.0625 13.4063Z" fill="#E5A98C"/>
<path d="M18.1875 7.59379C18.1875 7.59379 19.3125 8.71879 18.375 11.0625C17.3437 13.4063 18.75 16.875 18.75 16.875C18.75 16.875 18.4687 14.0625 19.0312 13.3125C19.5937 12.5625 21.6562 9.00004 20.5312 7.12504C19.5 5.34379 18.1875 7.59379 18.1875 7.59379Z" fill="#422F28"/>
<path d="M19.4062 13.875L19.5937 13.4063C19.5937 13.4063 21.2812 12.9375 21.4687 12.0938C21.375 12.0938 21.4688 14.1563 19.4062 13.875Z" fill="#A67A65"/>
<path d="M4.96875 21.0001C4.96875 21.0001 6.09375 19.8751 7.40625 20.0626C8.8125 20.2501 9.46875 21.9376 10.5 23.1563C11.5312 24.3751 13.2188 22.9688 13.5938 22.8751C13.9688 22.6876 15.375 21.9376 17.3438 22.8751C19.4062 23.8126 20.4375 27.2813 20.4375 27.2813C20.4375 27.2813 14.3438 27.1876 10.7812 26.0626C7.21875 24.9376 5.34375 22.4063 4.96875 21.0001Z" fill="#D3624F"/>
<path d="M8.2499 22.6876C8.4374 22.8751 8.6249 23.1563 8.6249 23.4376C8.6249 23.7188 8.6249 24.0001 8.4374 24.1876C8.15615 24.4688 7.59365 24.2813 7.21865 24.0938C6.5624 23.7188 5.15615 22.6876 5.8124 21.7501C6.5624 20.7188 7.8749 22.0313 8.2499 22.6876ZM16.4062 25.1251C16.5937 25.3126 16.6874 25.5938 16.7812 25.8751C16.8749 26.1563 16.7812 26.4376 16.5937 26.6251C16.3124 26.9063 15.7499 26.7188 15.3749 26.5313C14.7187 26.1563 13.3124 25.1251 13.9687 24.1876C14.6249 23.2501 15.9374 24.4688 16.4062 25.1251Z" fill="#E27364"/>
<path d="M9 21C9 21 10.5937 22.875 11.5312 22.875C12.4687 22.875 14.1562 21.5625 15.8437 21.6563C17.5312 21.75 20.4375 23.3437 21.2812 26.0625L20.1562 26.625C20.1562 26.625 18.4687 23.1562 15.8437 22.875C15.8437 22.875 14.7187 22.875 13.3125 23.4375C11.9062 24 10.7812 24.6562 9 21Z" fill="#A53829"/>
<path d="M21.3752 7.12487C21.1877 5.99987 20.2502 5.15612 19.3127 4.40612C18.7502 3.93737 18.1877 3.46862 17.5314 3.09362C16.5002 2.53112 15.3752 2.34362 14.2502 2.24987C13.5939 2.15612 12.9377 2.06237 12.4689 2.43737C12.1877 2.62487 12.0002 2.99987 11.8127 3.18737C11.4377 3.56237 10.8752 3.74987 10.4064 3.74987C9.93766 3.74987 9.46891 3.65612 8.90641 3.56237C8.81266 3.74987 8.90641 4.03112 9.09391 4.21862C9.28141 4.31237 9.56266 4.31237 9.84391 4.31237C11.4377 4.21862 12.9377 4.21862 14.4377 4.49987C16.6877 4.96862 18.6564 6.09362 20.6252 7.12487" fill="#513C36"/>
<path d="M15.375 27.5625L15.0938 27.9375L16.5938 28.9688L25.2187 20.5312L23.8125 18.6562L15.375 27.5625Z" fill="#9A4C18"/>
<path d="M25.4064 22.875C25.1252 26.25 22.0314 29.1562 18.4689 29.0625C15.0002 29.0625 12.8439 26.1562 13.5002 22.875C14.1564 19.7812 17.0627 17.3438 20.1564 17.3438C23.2502 17.3438 25.5939 19.6875 25.4064 22.875Z" fill="#9A4C18"/>
<path d="M26.2503 24C25.9691 27.1875 22.8753 30 19.5003 29.9062C16.1253 29.9062 13.9691 27.1875 14.6253 24C15.1878 21 18.0941 18.75 21.1878 18.6562C24.1878 18.6562 26.5316 20.9063 26.2503 24Z" fill="#9A4C18"/>
<path d="M16.4062 27.75L17.8125 28.5L24.8438 21.1875L23.7187 19.6875L16.4062 27.75Z" fill="#F49937"/>
<path d="M25.5937 24C25.3125 26.7187 22.7812 29.0625 19.9687 29.0625C17.1562 29.0625 15.375 26.7187 15.8437 24C16.3125 21.4687 18.75 19.4062 21.375 19.4062C23.9062 19.4062 25.7812 21.375 25.5937 24Z" fill="#F49937"/>
<path d="M24.6565 22.8751C24.3752 25.7814 21.6565 28.3126 18.5627 28.3126C15.5627 28.3126 13.594 25.7814 14.1565 22.9689C14.719 20.2501 17.2502 18.0939 20.0627 18.0939C22.7815 18.0001 24.844 20.0626 24.6565 22.8751Z" fill="#FFEDC0"/>
<path d="M24.2812 23.0625C24 25.7812 21.4687 28.125 18.6562 28.125C15.8437 28.125 14.0625 25.7812 14.5312 23.0625C15 20.5312 17.4375 18.4688 20.0625 18.4688C22.5937 18.4688 24.4687 20.4375 24.2812 23.0625Z" fill="#FFD766"/>
<path d="M23.1562 23.0625C22.9687 25.2187 20.9999 27 18.7499 26.9062C16.5937 26.9062 15.1874 25.125 15.5624 23.0625C15.9374 21.0937 17.8124 19.5 19.8749 19.4062C21.8437 19.5 23.3437 21.0937 23.1562 23.0625Z" fill="#FFEDC0"/>
<path d="M23.1562 22.5938C22.9687 24.6563 20.9999 26.4375 18.7499 26.4375C16.5937 26.4375 15.1874 24.6563 15.5624 22.5938C15.9374 20.625 17.8124 19.0313 19.7812 19.0313C21.9374 18.9375 23.4374 20.5313 23.1562 22.5938Z" fill="#F49937"/>
<path d="M22.4998 23.0625C22.3123 24.8438 20.6248 26.3438 18.8436 26.3438C17.0623 26.3438 15.8436 24.8438 16.1248 23.0625C16.4061 21.375 17.9998 19.9688 19.7811 19.9688C21.4686 20.0625 22.6873 21.375 22.4998 23.0625Z" fill="#FFD766"/>
<path d="M20.25 19.6875L20.7187 21.6563L22.875 22.2188L20.9062 23.5313L20.7187 25.7812L19.0312 24.4688L16.6875 25.2187L17.7187 23.1563L16.5938 21.4687H18.75L20.25 19.6875Z" fill="#F49937"/>
</g>
<defs>
<clipPath id="clip0_1_12851">
<rect width="30" height="30" fill="white"/>
</clipPath>
</defs>
</svg>
