<svg width="30" height="30" viewBox="0 0 30 30" fill="none" xmlns="http://www.w3.org/2000/svg">
<g clip-path="url(#clip0_1_14390)">
<path d="M26.4375 1.6875L10.125 2.625L14.625 28.6875L29.7188 25.5L26.4375 1.6875Z" fill="#602718"/>
<path d="M15.5625 17.9063C15.5625 17.9063 15.375 20.0625 15.8438 22.2188L16.3125 24.1875C16.3125 24.1875 13.2188 24 12.0938 22.9688C10.9688 21.9375 9.28125 17.9063 9.28125 17.9063L10.4063 16.4062L15.5625 17.9063Z" fill="#8E4028"/>
<path d="M1.96897 17.0623C3.09397 22.3123 8.34397 25.6873 13.594 24.5623C18.844 23.4373 21.3752 18.281 19.8752 13.031C18.6565 8.7185 13.6877 4.9685 8.43772 6.0935C3.18772 7.2185 0.843967 11.7185 1.96897 17.0623Z" fill="#8E4028"/>
<path d="M2.06268 16.6877C3.18768 21.7502 9.28143 26.8127 14.1564 25.7814C19.0314 24.7502 21.0002 17.9064 19.8752 12.8439C18.7502 7.87517 15.0939 4.21892 8.90643 5.62517C4.03143 6.65642 0.937683 11.6252 2.06268 16.6877Z" fill="#8E4028"/>
<path d="M15.1442 22.1587C18.7351 21.3717 20.99 17.7406 20.1808 14.0486C19.3716 10.3566 15.8046 8.0017 12.2137 8.78876C8.62288 9.57583 6.36793 13.2068 7.17716 16.8988C7.98639 20.5909 11.5534 22.9458 15.1442 22.1587Z" fill="#8E4028"/>
<path d="M4.78141 15.6563C4.78141 15.6563 4.59391 18.4687 5.62516 19.5C6.65641 20.5312 3.00016 21.375 3.00016 21.375C3.00016 21.375 1.21891 18.5625 1.31266 16.7812C1.50016 15.0937 4.78141 15.6563 4.78141 15.6563ZM9.09391 22.4062C7.78141 22.5937 10.8752 26.1563 12.3752 26.4375C13.8752 26.7188 16.3127 26.3438 17.3439 25.7812C18.3752 25.2188 20.1564 21.0938 20.3439 19.875L20.7189 17.625C20.7189 17.625 20.4377 17.8125 19.7814 18.375C18.6564 19.2188 16.0314 21.2812 9.09391 22.4062ZM13.6877 18.75C13.6877 18.75 11.4377 18.2812 10.3127 19.0312C10.3127 19.0312 9.75016 19.7813 10.1252 19.875C10.5002 20.0625 10.9689 20.3437 11.1564 19.9687C11.4377 19.6875 12.7502 18.8438 13.6877 18.75ZM18.3752 16.6875C18.3752 16.6875 18.7502 15.1875 19.6877 15C19.6877 15 20.4377 15.0937 20.4377 15.375C20.4377 15.6562 20.5314 16.125 20.1564 16.0313C19.8752 16.0313 18.7502 16.2187 18.3752 16.6875Z" fill="#8E4028"/>
<path d="M9.5625 22.5002L6.375 21.5627L6 23.1564C6 23.1564 7.96875 25.4064 11.3438 26.0627L9.5625 22.5002ZM16.0312 16.5939L14.3438 17.0627L13.875 15.8439L15.8438 15.2814L16.0312 16.5939ZM12.9375 14.4377C12.9375 14.4377 11.3437 13.5939 9.75 14.2502C8.15625 14.9064 6.9375 16.5939 7.78125 16.8752C8.625 17.0627 9 16.4064 9.28125 15.7502C9.5625 15.0939 10.7813 14.4377 12.2812 15.3752C12.1875 15.3752 12.9375 15.0939 12.9375 14.4377ZM5.625 9.8439C9.375 8.06265 15.0937 6.37515 18.5625 9.6564C17.1562 10.5939 14.25 11.6252 14.25 11.6252L13.2188 11.2502C9.5625 9.93765 5.90625 11.3439 3.75 12.4689C4.03125 11.3439 4.59375 10.3127 5.625 9.8439Z" fill="#8E4028"/>
<path d="M1.6875 9.56266L2.90625 12.7502C2.90625 12.7502 7.6875 9.00016 12.5625 10.6877L13.5 10.9689C13.5 10.9689 18.0938 9.65641 18.375 8.71891C18.375 8.71891 19.2188 7.31266 18.4688 5.71891C18.4688 5.71891 18.0938 6.75016 18 7.59391C18 7.59391 17.625 4.68766 15.375 3.93766C15.375 3.93766 15.75 4.21891 15.75 5.53141C15.75 5.53141 11.7188 3.09391 9 3.46891C9 3.46891 10.3125 4.40641 10.4062 5.81266C10.4062 5.81266 7.21875 4.87516 4.125 5.71891C4.125 5.71891 4.59375 6.56266 5.4375 7.21891C5.4375 7.12516 3.46875 8.15641 1.6875 9.56266Z" fill="#8E4028"/>
<path d="M5.4375 11.7188L7.3125 13.2188C7.3125 13.2188 5.8125 16.3125 6.46875 19.3125L1.6875 17.625L1.875 12.2813C1.78125 12.2813 3.65625 11.9062 5.4375 11.7188Z" fill="#8E4028"/>
<path d="M7.03125 18.1875C6.9375 18.1875 4.78125 18.0938 4.78125 18.0938V18.6562L7.125 19.6875L6.75 18.4688L7.03125 18.1875ZM2.15625 13.125L6.46875 13.2188C6.46875 13.2188 6.1875 12.9375 6 14.25L3.28125 14.8125C3.1875 14.8125 1.875 14.625 1.875 14.625L2.15625 13.125ZM4.5 5.53125C4.5 5.53125 6.46875 6.65625 8.625 6.75L5.0625 8.34375C5.0625 8.34375 7.6875 8.625 8.71875 8.53125C9.75 8.4375 10.9688 8.625 10.9688 8.625L5.8125 9.9375C5.8125 9.9375 9.84375 9.5625 11.7188 10.4063C11.7188 10.4063 6.65625 9.84375 2.8125 12.75L2.15625 12.5625L0.46875 10.2187C0.46875 10.2187 2.625 8.53125 4.03125 8.0625L5.0625 7.5L4.03125 5.625L4.5 5.53125Z" fill="#8E4028"/>
<path d="M0.5625 10.2191L4.875 9.6566L2.8125 10.8753L6.9375 10.5941C6.9375 10.5941 4.875 11.0628 4.125 12.5628L3.46875 12.8441L1.875 12.6566L0.5625 10.2191ZM18.75 7.68785C18.75 7.68785 17.5312 8.9066 16.3125 9.0941L10.875 10.1253L13.4062 10.9691C13.4062 10.9691 17.1562 10.0316 17.8125 9.4691C18.4688 8.7191 18.75 7.68785 18.75 7.68785ZM14.8125 4.12535C14.8125 4.12535 15.6562 6.37535 15.2812 7.87535C15.2812 7.87535 16.2188 6.37535 15.9375 4.7816C15.8438 4.68785 15.6562 4.0316 14.8125 4.12535Z" fill="#8E4028"/>
<path d="M10.8749 3.46875C10.8749 3.46875 13.4062 4.03125 14.4374 5.25C15.4687 6.46875 15.3749 7.21875 15.3749 7.21875C15.3749 7.21875 14.7187 5.71875 13.6874 5.34375C12.6562 4.96875 10.8749 3.46875 10.8749 3.46875ZM6.37493 5.625C6.28118 5.625 9.18743 5.25 11.0624 6.375C12.9374 7.5 14.1562 7.96875 14.1562 7.96875L10.5937 7.03125C10.5937 7.125 7.78118 5.53125 6.37493 5.625ZM4.78118 19.6875C4.78118 19.6875 3.18743 18.8437 2.43743 19.0312C1.68743 19.2187 1.31243 22.875 4.21868 22.875C7.12493 22.875 4.78118 19.6875 4.78118 19.6875Z" fill="#8E4028"/>
<path d="M4.87501 19.9692C4.87501 19.9692 2.81251 18.0942 1.96876 18.3754C1.12501 18.6567 0.937511 23.5317 4.31251 23.4379C7.68751 23.3442 4.87501 19.9692 4.87501 19.9692Z" fill="#8E4028"/>
<path d="M4.49978 19.5002C4.49978 19.5002 3.18728 18.9377 2.53103 19.1252C1.87478 19.3127 1.78103 22.5939 4.12478 22.5002C6.46853 22.4064 4.49978 19.5002 4.49978 19.5002Z" fill="#8E4028"/>
<path d="M4.78131 19.7814C4.78131 19.7814 3.46881 19.2189 2.81256 19.4064C2.15631 19.5939 1.96881 22.8752 4.40631 22.7814C6.84381 22.6877 4.78131 19.7814 4.78131 19.7814ZM14.2501 24.7502C15.4688 25.7814 17.9063 24.8439 17.6251 23.8127L14.2501 24.7502Z" fill="#8E4028"/>
<path d="M11.0625 22.5937C11.5312 22.6875 12.1875 22.7813 12.6562 22.6875C14.7187 22.5 16.5937 22.0312 18.5625 21.1875C18.2812 21.375 18.0937 21.5625 17.8125 21.6562C17.625 22.125 17.4375 22.6875 17.4375 23.0625C17.625 23.0625 17.8125 23.1562 18.1875 23.0625C16.875 24 14.8125 24.4687 13.9687 24.2812C13.3125 24.1875 12.0938 23.625 10.875 22.875C10.9688 22.7812 11.0625 22.6875 11.0625 22.5937Z" fill="#8E4028"/>
<path d="M10.6875 22.5938C10.7812 22.5938 10.7813 22.5 10.875 22.4062H10.7813C10.875 22.4062 10.875 22.3125 10.9688 22.3125C11.4375 22.5 12.1875 22.5938 12.6563 22.5938C14.7188 22.4063 16.5937 21.9375 18.5625 21V21.375C18.2812 21.6562 18 21.75 17.7188 21.8437C17.5312 22.4062 17.5313 22.875 17.5313 23.4375C17.7188 23.4375 17.9062 23.3438 18.1875 23.1563C16.9688 24.2813 13.6875 25.125 12.75 24.8438C12.1875 24.5625 11.8125 23.7188 10.6875 22.5938Z" fill="#8E4028"/>
<path d="M17.4375 22.0312C17.3438 22.4063 17.1562 22.875 17.25 23.25V23.3437C17.0625 23.4375 16.9687 23.5313 16.7812 23.5313L15.1875 24.0938C14.9063 24.1875 14.3437 24.2812 14.0625 24.1875C13.5937 24.0937 13.0312 23.8125 12.5625 23.625L11.5312 23.0625C12 23.1563 12.375 23.1563 12.75 23.1563C14.3438 22.875 15.9375 22.5 17.4375 22.0312Z" fill="#8E4028"/>
<path d="M17.4375 22.0312C17.4375 22.3125 17.3437 22.5 17.25 22.6875C17.1562 22.7813 16.875 22.875 16.7812 22.9688C16.9687 22.9688 17.1562 23.0625 17.25 23.3437C16.5 23.7187 14.25 24.375 13.4062 24.1875C13.125 24.0937 12.8437 24.0938 12.5625 24C12.6562 23.9063 13.4062 23.7188 13.5937 23.625C13.125 23.625 12.5625 23.5312 12.375 23.4375C12.2812 23.3438 12.0937 23.25 12 23.0625H12.6562C14.3437 22.875 15.9375 22.5 17.4375 22.0312Z" fill="#8E4028"/>
<path d="M17.4377 22.3128C17.4377 22.4066 17.344 22.5003 17.344 22.5941C17.2502 22.6878 16.969 22.7816 16.8752 22.8753C17.0627 22.8753 17.2502 22.9691 17.344 23.2503C16.6877 23.6253 15.1877 24.1878 14.344 24.0941C14.0627 23.9066 13.8752 23.5316 13.7815 23.1566C14.9065 22.9691 16.0315 22.7816 17.4377 22.3128ZM8.81274 20.6253C9.65649 20.4378 10.594 20.5316 11.2502 20.8128C12.094 20.7191 12.5627 20.6253 13.1252 20.4378C14.4377 19.2191 13.6877 17.8128 12.7502 16.8753C12.3752 16.5003 11.719 16.3128 11.1565 16.5003C9.65649 16.8753 8.62524 17.5316 8.25024 17.8128C7.96899 18.4691 7.96899 20.4378 8.81274 20.6253Z" fill="#8E4028"/>
<path d="M8.81235 20.6252C9.6561 20.5314 10.3124 20.6252 10.9686 20.8127C11.8124 20.6252 12.2811 20.5314 12.8436 20.2502C13.4999 19.4064 13.1249 18.0002 12.2811 17.3439C11.4374 17.2502 8.81235 18.0002 8.3436 18.6564C7.9686 19.3127 8.24985 20.1564 8.81235 20.6252Z" fill="#8E4028"/>
<path d="M13.0312 18.375C12.8438 18 12.1875 17.1563 11.8125 16.875C10.9688 16.7813 9 17.0625 8.53125 17.7187C8.4375 18 8.15625 19.2187 8.15625 19.5C9.28125 20.25 12.75 19.9687 12.9375 18.5625C12.9375 18.4687 13.0312 18.375 13.0312 18.375Z" fill="#8E4028"/>
<path d="M8.625 18.375C8.34375 18.75 8.25 19.2187 8.25 19.5937C8.34375 19.9687 8.53125 20.3438 8.90625 20.625C9.46875 20.625 10.0312 20.625 10.5938 20.7188C11.25 20.3438 11.4375 19.6875 11.3438 19.125C11.25 18.4687 10.6875 17.8125 9.84375 17.8125C9.375 17.9063 8.90625 18.1875 8.625 18.375Z" fill="#8E4028"/>
<path d="M9.65606 18.4691C9.18731 18.5629 8.81231 19.0316 8.90606 19.5004C8.99981 19.9691 9.46856 20.3441 9.93731 20.2504C10.4061 20.1566 10.7811 19.6879 10.6873 19.2191C10.5936 18.6566 10.1248 18.3754 9.65606 18.4691ZM16.8748 14.8129C16.5936 16.0316 16.9686 17.4379 17.6248 18.6566C18.4686 19.0316 20.0623 18.5629 20.7186 17.8129C20.9061 16.5004 20.5311 14.7191 19.4998 13.9691C18.5623 13.2191 17.2498 13.5941 16.8748 14.8129Z" fill="#8E4028"/>
<path d="M16.8752 15.1878C16.5939 16.2191 16.8752 17.9066 17.5315 19.0316C18.3752 19.0316 19.9689 18.4691 20.4377 17.8128C20.6252 16.6878 20.1565 15.0941 19.219 14.4378C18.4689 13.7816 17.2502 14.1566 16.8752 15.1878Z" fill="#8E4028"/>
<path d="M16.9688 15.5625C16.7813 16.0312 16.7813 16.4063 16.9688 17.0625C18 18 20.4375 17.625 20.25 15.5625C20.0625 15.0938 19.7813 14.625 19.4063 14.3437C18.4688 13.7812 17.25 14.4375 16.9688 15.5625Z" fill="#8E4028"/>
<path d="M17.8125 15.1875C16.875 15.375 16.5937 16.3125 16.6875 17.1563C16.7812 17.9063 17.4375 18.75 18.375 18.6563C19.3125 18.4688 19.5937 17.5313 19.5 16.6875C19.3125 15.8438 18.6562 15 17.8125 15.1875Z" fill="#8E4028"/>
<path d="M17.9061 15.8438C17.4374 15.9375 17.1561 16.4063 17.2499 16.9688C17.3436 17.5313 17.8124 17.9063 18.1874 17.8125C18.6561 17.7188 18.9374 17.25 18.8436 16.6875C18.7499 16.2187 18.3749 15.8438 17.9061 15.8438Z" fill="#8E4028"/>
<path d="M17.5311 15.0006C17.0624 15.0943 16.7811 15.4693 16.8749 15.8443C16.9686 16.2193 17.3436 16.5006 17.8124 16.4068C18.2811 16.3131 18.5624 15.9381 18.4686 15.5631C18.4686 15.1881 17.9999 14.9068 17.5311 15.0006ZM8.9999 17.7193C8.53115 17.8131 8.2499 18.1881 8.34365 18.5631C8.4374 18.9381 8.8124 19.2193 9.28115 19.1256C9.7499 19.0318 10.0311 18.6568 9.9374 18.2818C9.84365 17.9068 9.46865 17.6256 8.9999 17.7193Z" fill="#8E4028"/>
<path d="M6.46875 18.5625L7.5 20.7188C10.9688 21.375 15 19.5 15 19.5C15.0938 18.375 14.4375 15.9375 14.4375 15.9375C10.5 16.2188 6.46875 18.5625 6.46875 18.5625ZM7.125 19.0312C7.125 19.0312 10.6875 16.5937 13.875 16.3125C13.875 16.3125 14.5313 18.75 14.4375 19.6875C14.4375 19.6875 11.0625 21.375 8.0625 20.9062L7.125 19.0312Z" fill="#8E4028"/>
<path d="M6.1875 18.3755L7.5 20.9068C10.9688 21.563 15 19.5943 15 19.5943C15.0938 18.4693 14.25 15.7505 14.25 15.7505C10.5 15.938 6.1875 18.3755 6.1875 18.3755ZM6.9375 18.563C6.9375 18.563 10.5938 16.5005 13.875 16.313C13.875 16.313 14.4375 18.4693 14.4375 19.4068C14.4375 19.4068 11.0625 21.0943 8.0625 20.6255L6.9375 18.563ZM12.5625 14.7193L12.9375 14.438C12.9375 14.438 10.9688 12.4693 9.1875 13.8755C7.40625 15.2818 7.5 16.2193 7.5 16.2193C7.5 16.2193 9.65625 12.938 12.5625 14.7193ZM21.9375 14.9068L20.625 14.7193L20.5312 14.438C20.5312 14.438 21.375 14.1568 21.8437 14.2505L21.9375 14.9068Z" fill="#8E4028"/>
<path d="M19.5938 14.3438L21.6563 14.0625L21.75 17.1562L20.4375 17.8125C20.4375 17.8125 20.3437 14.9063 19.5938 14.3438Z" fill="#B79576"/>
<path d="M15.2812 17.7188C15.2812 17.7188 15.0938 19.7813 15.5625 21.75L16.0312 23.625C16.0312 23.625 13.125 23.5313 12.0937 22.5C11.0625 21.4688 9.46875 17.7188 9.46875 17.7188L10.5 16.3125L15.2812 17.7188Z" fill="#FCC097"/>
<path d="M2.62524 17.2499C3.75024 22.2186 8.53149 25.0311 13.5002 23.9061C18.469 22.7811 20.719 17.9061 19.219 12.9374C18.0002 8.90611 13.5002 5.43736 8.53149 6.56236C3.56274 7.68736 1.59399 12.2811 2.62524 17.2499Z" fill="#E8BD89"/>
<path d="M2.6252 16.5937C3.65645 21.3749 9.3752 26.1562 14.0627 25.1249C18.7502 24.0937 20.5314 17.7187 19.5002 12.9374C18.4689 8.24992 15.0939 5.53117 9.3752 6.84367C4.59395 7.78117 1.59395 11.8124 2.6252 16.5937Z" fill="#E8BD89"/>
<path d="M14.9772 21.7877C18.3658 21.0449 20.4927 17.6139 19.7278 14.1242C18.9629 10.6345 15.5959 8.40758 12.2073 9.1503C8.81875 9.89302 6.69184 13.3241 7.45674 16.8138C8.22163 20.3035 11.5887 22.5304 14.9772 21.7877Z" fill="#FFD097"/>
<path d="M5.15611 15.5627C5.15611 15.5627 4.96861 18.2814 5.99986 19.2189C7.03111 20.1564 3.56236 21.0002 3.56236 21.0002C3.56236 21.0002 1.87486 18.2814 1.96861 16.6877C2.06236 15.0002 5.15611 15.5627 5.15611 15.5627Z" fill="#63310F"/>
<path d="M9.28141 22.0312C8.06266 22.2187 10.9689 25.5937 12.3752 25.7812C13.7814 25.9687 16.1252 25.6875 17.0627 25.125C18.0002 24.5625 19.6877 20.7187 19.9689 19.5L20.2502 18C20.2502 18 20.0627 18 19.4064 18.4688C18.2814 19.4062 15.7502 21 9.28141 22.0312Z" fill="#D8B18B"/>
<path d="M13.5938 18.5625C13.5938 18.5625 11.5313 18.0938 10.4063 18.8438C10.4063 18.8438 9.93752 19.5 10.2188 19.6875C10.5938 19.875 10.9688 20.1563 11.25 19.7813C11.4375 19.4063 12.75 18.5625 13.5938 18.5625ZM18 16.5938C18 16.5938 18.2813 15.1875 19.2188 15C19.2188 15 19.875 15.0937 19.9688 15.375C19.9688 15.6562 20.0625 16.0313 19.7813 16.0313C19.5 16.0313 18.2813 16.125 18 16.5938Z" fill="#343F3D"/>
<path d="M18.75 10.7813C18.75 10.7813 17.9062 9.5625 15.4688 10.9688L16.4062 8.15625C16.4062 8.15625 17.9062 8.90625 18.75 10.6875" fill="#E5895B"/>
<path d="M9.65625 22.0312L6.65625 21.0938L6.28125 22.5938C6.28125 22.5938 8.0625 24.6562 11.3438 25.3125L9.65625 22.0312Z" fill="#B79576"/>
<path d="M15.75 16.5L14.1563 16.9688L13.7812 15.8438L15.6563 15.2812L15.75 16.5Z" fill="#343F3D"/>
<path d="M12.8438 14.5314C12.8438 14.5314 11.3438 13.6877 9.84375 14.3439C8.25 15.0002 7.125 16.5939 7.96875 16.7814C8.8125 16.9689 9.09375 16.3127 9.375 15.7502C9.65625 15.1877 10.7812 14.5314 12.1875 15.3752C12.1875 15.2814 12.8438 15.0002 12.8438 14.5314ZM20.1562 12.3752C20.1562 12.3752 18.5625 11.7189 16.9688 12.3752C15.375 13.0314 14.4375 14.3439 15.1875 14.5314C15.9375 14.7189 16.4062 14.2502 16.6875 13.5939C16.9687 13.0314 18.4688 11.7189 19.7812 12.5627C19.875 12.5627 20.1562 12.8439 20.1562 12.3752ZM6 10.1252C9.5625 8.43767 15.1875 6.56267 18.4688 9.56267C17.1563 10.5002 14.1562 11.8127 14.1562 11.8127L13.125 11.5314C9.65625 10.3127 6.28125 11.6252 4.21875 12.7502C4.5 11.5314 5.0625 10.5002 6 10.1252Z" fill="#63310F"/>
<path d="M2.25 9.84391L3.46875 12.8439C3.46875 12.8439 7.96875 9.28141 12.5625 10.8752L13.4062 11.1564C13.4062 11.1564 17.7188 9.84391 18 9.00016C18 9.00016 18.75 7.68766 18.0938 6.18766C18.0938 6.18766 17.7188 7.12516 17.625 7.96891C17.625 7.96891 17.25 5.15641 15.1875 4.59391C15.1875 4.59391 15.5625 4.87516 15.4688 6.09391C15.4688 6.09391 12.4688 3.65641 9.9375 4.03141C9.9375 4.03141 11.1563 5.06266 11.25 6.37516C11.25 6.37516 7.40625 5.53141 4.5 6.28141C4.5 6.28141 4.96875 7.03141 5.71875 7.68766C5.8125 7.50016 3.9375 8.53141 2.25 9.84391Z" fill="url(#paint0_linear_1_14390)"/>
<path d="M5.71875 11.9062L7.5 13.3125C7.5 13.3125 6.09375 16.3125 6.75 19.0312L2.25 17.4375L2.4375 12.4688C2.34375 12.4688 4.125 12.0938 5.71875 11.9062Z" fill="#63310F"/>
<path d="M7.3125 18C7.21875 18 5.15625 17.9062 5.15625 17.9062V18.4688L7.5 19.5L7.125 18.375L7.3125 18Z" fill="#343F3D"/>
<path d="M2.71875 13.3125L6.75 13.4063C6.75 13.4063 6.46875 13.125 6.28125 14.3438L3.65625 14.8125C3.5625 14.8125 2.4375 14.625 2.4375 14.625L2.71875 13.3125Z" fill="url(#paint1_linear_1_14390)"/>
<path d="M4.96875 6.09375C4.96875 6.09375 6.75 7.125 8.8125 7.21875L5.4375 8.71875C5.4375 8.71875 7.875 9 8.90625 8.90625C9.84375 8.8125 11.0625 9 11.0625 9L6.28125 10.2187C6.28125 10.2187 10.0312 9.84375 11.9062 10.5938C11.9062 10.5938 7.125 10.0312 3.5625 12.75L2.8125 12.6562L1.40625 10.3125C1.40625 10.3125 3.1875 8.8125 4.59375 8.34375L5.53125 7.78125L4.59375 6L4.96875 6.09375Z" fill="#B85A1B"/>
<path d="M1.21875 10.5L5.25 10.0312L3.375 11.25L7.3125 11.0625C7.3125 11.0625 5.34375 11.5313 4.6875 12.9375L4.03125 13.2188L2.53125 13.0312L1.21875 10.5Z" fill="#63310F"/>
<path d="M18.375 8.0625C18.375 8.0625 17.1563 9.1875 16.125 9.375L10.9688 10.3125L13.4063 11.0625C13.4063 11.0625 16.9688 10.2188 17.5313 9.5625C18.0938 9.09375 18.375 8.0625 18.375 8.0625ZM15.2812 4.40625C15.2812 4.40625 16.125 6.46875 15.6563 7.96875C15.6563 7.96875 16.5 6.5625 16.3125 5.0625C16.3125 5.0625 16.0312 4.40625 15.2812 4.40625Z" fill="#B85A1B"/>
<path d="M10.9687 4.125C10.9687 4.125 13.4062 4.6875 14.2499 5.8125C15.0937 6.9375 15.0937 7.6875 15.0937 7.6875C15.0937 7.6875 14.4374 6.28125 13.4999 5.90625C12.5624 5.53125 10.9687 4.125 10.9687 4.125ZM6.74992 6.1875C6.65617 6.1875 9.37492 5.8125 11.1562 6.9375C12.9374 8.0625 14.0624 8.4375 14.0624 8.4375L10.6874 7.5C10.6874 7.5 8.06242 6.09375 6.74992 6.1875Z" fill="#FFBA7B"/>
<path d="M5.15632 19.4061C5.15632 19.4061 3.65632 18.5623 3.00007 18.7498C2.25007 19.0311 1.96882 22.4998 4.59382 22.4998C7.21882 22.4998 5.15632 19.4061 5.15632 19.4061Z" fill="#63310F"/>
<path d="M5.24987 19.6873C5.24987 19.6873 3.37487 17.9061 2.53112 18.1873C1.68737 18.4686 1.59362 22.9686 4.78112 22.8748C7.96862 22.8748 5.24987 19.6873 5.24987 19.6873Z" fill="#E8BD89"/>
<path d="M4.87517 19.2189C4.87517 19.2189 3.65642 18.6564 3.09392 18.8439C2.53142 19.0314 2.34392 22.1252 4.59392 21.9377C6.84392 21.7502 4.87517 19.2189 4.87517 19.2189Z" fill="#C18053"/>
<path d="M5.25017 19.5002C5.25017 19.5002 4.03142 18.9377 3.46892 19.1252C2.90642 19.3127 2.71892 22.4064 4.96892 22.2189C7.21892 22.0314 5.25017 19.5002 5.25017 19.5002Z" fill="#CE9D67"/>
<path d="M14.0625 24.1875C15.1875 25.125 17.5312 24.2812 17.25 23.25L14.0625 24.1875Z" fill="#FFBC8F"/>
<path d="M11.1562 22.2188C11.625 22.3125 12.1875 22.4062 12.6562 22.3125C14.625 22.125 16.3125 21.6562 18.2812 20.9062C18 21.0938 17.8125 21.2812 17.5313 21.375C17.3438 21.8438 17.1562 22.3125 17.1562 22.6875C17.3437 22.6875 17.5312 22.7813 17.8125 22.6875C16.5937 23.5313 14.625 24 13.7812 23.8125C13.2187 23.7188 12 23.1563 10.875 22.5C10.9688 22.3125 11.0625 22.3125 11.1562 22.2188Z" fill="#9A4C18"/>
<path d="M10.7814 22.125C10.8752 22.125 10.8752 22.0312 10.9689 21.9375H10.8752C10.9689 21.9375 10.9689 21.8437 11.0627 21.8437C11.5314 22.0312 12.1877 22.125 12.6564 22.125C14.6252 21.9375 16.3127 21.4688 18.1877 20.625V21C17.9064 21.2812 17.6252 21.375 17.3439 21.4687C17.1564 22.0312 17.1564 22.5 17.1564 22.9688C17.3439 22.9688 17.5314 22.875 17.8127 22.7812C16.5939 23.9062 13.5002 24.5625 12.7502 24.375C12.1877 24 11.8127 23.25 10.7814 22.125Z" fill="#63310F"/>
<path d="M17.1562 21.5625C17.0625 21.9375 16.9688 22.3125 16.9688 22.6875V22.7812C16.7812 22.875 16.6875 22.9688 16.5 22.9688C16.0312 23.1562 15.4687 23.3438 15 23.4375C14.7187 23.5312 14.25 23.625 13.875 23.5313C13.4062 23.4375 12.8438 23.1562 12.4688 22.9688C12.1875 22.7812 11.8125 22.6875 11.5312 22.5C11.9062 22.5938 12.375 22.5938 12.6562 22.5938C14.25 22.4063 15.6562 22.0312 17.1562 21.5625Z" fill="#792936"/>
<path d="M17.1562 21.5625C17.1562 21.75 17.0625 22.0313 16.9688 22.125C16.875 22.2188 16.5938 22.3125 16.5 22.4062C16.6875 22.4062 16.7813 22.5 16.875 22.6875C16.125 23.0625 14.0625 23.625 13.3125 23.5313C13.0313 23.4375 12.8438 23.4375 12.5625 23.3437C12.6562 23.25 13.4063 23.0625 13.5938 23.0625C13.125 23.0625 12.6563 22.9687 12.4688 22.875C12.375 22.7812 12.1875 22.6875 12.0938 22.5H12.75C14.25 22.4062 15.6562 22.0312 17.1562 21.5625Z" fill="url(#paint2_linear_1_14390)"/>
<path d="M17.0625 21.9375C17.0625 22.0312 16.9688 22.125 16.9688 22.2188C16.875 22.3125 16.5938 22.4063 16.5 22.5C16.6875 22.5 16.7813 22.5937 16.875 22.7812C16.2188 23.1562 14.8125 23.625 13.9687 23.625C13.7812 23.4375 13.5937 23.1562 13.5 22.7812L17.0625 21.9375Z" fill="url(#paint3_linear_1_14390)"/>
<path d="M9.00021 20.2503C9.84396 20.0628 10.6877 20.2503 11.2502 20.4378C12.094 20.3441 12.469 20.2503 13.0315 20.0628C14.2502 18.9378 13.594 17.6253 12.6565 16.6878C12.2815 16.3128 11.719 16.1253 11.1565 16.3128C9.75021 16.6878 8.71896 17.2503 8.34396 17.5316C8.25021 18.1878 8.15646 20.0628 9.00021 20.2503Z" fill="#343F3D"/>
<path d="M8.99991 20.2502C9.74991 20.1564 10.4062 20.2502 11.0624 20.4377C11.9062 20.2502 12.2812 20.1564 12.7499 19.8752C13.3124 19.0314 13.0312 17.7189 12.1874 17.1564C11.3437 17.0627 9.09366 17.7189 8.62491 18.3752C8.34366 19.0314 8.62491 19.8752 9.09366 20.2502H8.99991Z" fill="url(#paint4_linear_1_14390)"/>
<path d="M12.9377 18.1877C12.8439 17.8127 12.0939 16.9689 11.8127 16.7814C10.9689 16.6877 9.18766 16.9689 8.71891 17.5314C8.62516 17.8127 8.43766 19.0314 8.53141 19.2189C9.56266 19.9689 12.6564 19.5939 12.9377 18.2814V18.1877Z" fill="white"/>
<path d="M8.8125 18.1875C8.53125 18.5625 8.4375 18.9375 8.53125 19.3125C8.625 19.6875 8.8125 20.0625 9.09375 20.25C9.65625 20.25 10.2187 20.25 10.6875 20.3438C11.25 20.0625 11.5312 19.4063 11.4375 18.8438C11.3437 18.2813 10.7812 17.625 10.0312 17.625C9.46875 17.8125 9.09375 18 8.8125 18.1875Z" fill="#343F3D"/>
<path d="M9.7499 18.1872C9.28115 18.2809 8.9999 18.6559 9.09365 19.1247C9.1874 19.5934 9.5624 19.8747 10.0311 19.8747C10.4999 19.7809 10.7811 19.4059 10.6874 18.9372C10.6874 18.4684 10.2186 18.1872 9.7499 18.1872ZM16.5936 14.8122C16.3124 15.9372 16.6874 17.3434 17.3436 18.4684C18.0936 18.8434 19.7811 18.3747 20.4374 17.7184C20.6249 16.4997 20.0624 14.7184 19.1249 13.9684C18.1874 13.3122 16.8749 13.6872 16.5936 14.8122Z" fill="#343F3D"/>
<path d="M16.594 15.1872C16.3127 16.1247 16.5939 17.8122 17.2502 18.7497C18.0002 18.7497 19.5939 18.1872 19.9689 17.6247C20.1564 16.5934 19.6877 15.0934 18.8439 14.4372C18.0939 13.8747 16.8752 14.1559 16.594 15.1872Z" fill="url(#paint5_linear_1_14390)"/>
<path d="M16.5936 15.4687C16.4999 15.9374 16.4061 16.2187 16.5936 16.8749C17.5311 17.8124 19.8749 17.4374 19.6874 15.4687C19.4999 14.9999 19.2186 14.6249 18.8436 14.3437C18.0936 13.8749 16.8749 14.5312 16.5936 15.4687Z" fill="white"/>
<path d="M17.4376 15.1876C16.5939 15.2814 16.3126 16.3126 16.4064 16.9689C16.5001 17.7189 17.1564 18.4689 18.0001 18.3751C18.8439 18.2814 19.1251 17.2501 19.0314 16.5939C18.8439 15.8439 18.2814 15.0001 17.4376 15.1876Z" fill="#343F3D"/>
<path d="M17.5314 15.8435C17.1564 15.9372 16.8751 16.406 16.9689 16.8747C17.0626 17.4372 17.4376 17.8122 17.9064 17.7185C18.2814 17.6247 18.5626 17.156 18.4689 16.6872C18.3751 16.1247 17.9064 15.7497 17.5314 15.8435Z" fill="#343F3D"/>
<path d="M17.2499 14.9996C16.8749 15.0934 16.4999 15.4684 16.5937 15.8434C16.6874 16.2184 17.0624 16.4996 17.4374 16.4059C17.8124 16.3121 18.1874 15.9371 18.0937 15.5621C17.9999 15.1871 17.6249 14.9059 17.2499 14.9996ZM9.09367 17.5309C8.71867 17.6246 8.34367 17.9996 8.43742 18.3746C8.53117 18.7496 8.90617 19.0309 9.28117 18.9371C9.65617 18.8434 10.0312 18.4684 9.93742 18.0934C9.93742 17.7184 9.56242 17.4371 9.09367 17.5309Z" fill="#FFFFFC"/>
<path d="M6.75 18.3751L7.6875 20.4376C10.9688 21.0939 14.7188 19.3126 14.7188 19.3126C14.8125 18.1876 14.1563 15.9376 14.1563 15.9376C10.5938 16.1251 6.75 18.3751 6.75 18.3751ZM7.40625 18.7501C7.40625 18.7501 10.7812 16.4064 13.7812 16.2189C13.7812 16.2189 14.3438 18.4689 14.25 19.4064C14.25 19.4064 11.0625 21.0001 8.25 20.5314L7.40625 18.7501ZM15.4688 15.7501L16.0313 18.6564C19.2188 19.1251 21.6563 17.1564 21.6563 17.1564C21.8438 16.2189 21.75 14.4376 21.75 14.4376C19.6875 13.8751 15.4688 15.7501 15.4688 15.7501ZM16.0313 16.4064C16.0313 16.4064 19.7813 13.9689 21.6563 14.2501C21.6563 14.2501 21.6562 16.5001 21.4688 17.3439C21.4688 17.3439 19.0313 19.1251 16.5 18.7501L16.0313 16.4064Z" fill="white"/>
<path d="M6.46875 18.1875L7.6875 20.5313C10.9687 21.1875 14.8125 19.3125 14.8125 19.3125C14.9062 18.1875 14.1563 15.6563 14.1563 15.6563C10.5 15.9375 6.46875 18.1875 6.46875 18.1875ZM7.21875 18.2813C7.21875 18.2813 10.6875 16.4063 13.6875 16.125C13.6875 16.125 14.25 18.1875 14.1563 19.0313C14.1563 19.0313 10.9687 20.625 8.15625 20.1563L7.21875 18.2813ZM15.4688 15.375L16.125 18.8438C19.3125 19.3125 21.8438 17.1563 21.8438 17.1563C22.0312 16.2188 21.9375 13.9688 21.9375 13.9688C19.6875 13.5 15.4688 15.375 15.4688 15.375ZM15.9375 15.6563C15.9375 15.6563 19.6875 14.0625 21.5625 14.3438C21.5625 14.3438 21.5625 16.2188 21.375 16.9688C21.375 16.9688 18.9375 18.75 16.3125 18.375L15.9375 15.6563Z" fill="#343F3D"/>
<path d="M12.5625 14.7184L12.9375 14.4371C12.9375 14.4371 11.0625 12.6559 9.46875 13.8746C7.875 15.0934 7.78125 16.2184 7.78125 16.2184C7.78125 16.2184 9.75 13.0309 12.5625 14.7184Z" fill="url(#paint6_linear_1_14390)"/>
<path d="M19.7813 12.6559L20.1562 12.3746C20.1562 12.3746 18.2812 10.5934 16.6875 11.8121C15.0937 13.0309 15 14.1559 15 14.1559C15 14.1559 16.9688 10.9684 19.7813 12.6559Z" fill="url(#paint7_linear_1_14390)"/>
<path d="M21.2812 14.9062L19.9687 14.7188L19.875 14.4375C19.875 14.4375 20.625 14.25 21.0937 14.25L21.2812 14.9062Z" fill="#E8BD89"/>
<path d="M6.46875 20.7188C6.46875 20.7188 6.46875 22.3125 5.4375 22.875V23.0625L6.1875 23.1563C6.1875 23.1563 7.03125 22.5 6.46875 20.7188Z" fill="#8E4028"/>
<path d="M26.5312 1.6875L12.375 3.28125L16.0313 27.5625L29.7188 25.3125L26.5312 1.6875Z" fill="#8F672F"/>
<path d="M20.625 15.0938L15.4688 15.6563L16.875 24.4688L21.75 23.625L20.625 15.0938Z" fill="#9E7544"/>
<path d="M19.2187 14.4375L16.6875 14.7188C16.3125 14.7188 16.125 15.0938 16.125 15.375L16.7812 19.9687C16.875 20.25 17.1562 20.5312 17.4375 20.4375L19.9687 20.0625C20.25 19.9688 20.5312 19.6875 20.4375 19.4063L19.875 15C19.875 14.625 19.5 14.4375 19.2187 14.4375Z" fill="#C9D1CD"/>
<path d="M26.7188 14.25L21.6562 14.8125L22.9688 23.625L27.9375 22.7812L26.7188 14.25ZM19.3125 5.4375L14.1562 6L15.2812 13.7812L20.25 12.9375L19.3125 5.4375ZM25.4062 4.59375L20.25 5.15625L21.5625 13.875L26.5312 13.125L25.4062 4.59375Z" fill="#9E7544"/>
<path d="M14.344 23.6252L17.1565 23.1564C17.6252 23.0627 18.0002 22.6877 18.0002 22.2189C18.0002 21.6564 17.6252 21.1877 17.0627 21.0939L14.0627 20.7189C13.3127 20.6252 12.7502 21.2814 12.9377 21.9377L13.219 22.9689C13.5002 23.4377 13.8752 23.7189 14.344 23.6252Z" fill="#8E4028"/>
<path d="M14.5315 25.3127L17.344 24.8439C17.8127 24.7502 18.1877 24.3752 18.1877 23.9064C18.1877 23.3439 17.8127 22.8752 17.2502 22.7814L14.2502 22.4064C13.5002 22.3127 12.9377 22.9689 13.1252 23.6252L13.4065 24.6564C13.594 25.1252 14.0627 25.4064 14.5315 25.3127Z" fill="#8E4028"/>
<path d="M14.8127 27.1877L17.6252 26.7189C18.094 26.6252 18.469 26.2502 18.469 25.7814C18.469 25.2189 18.094 24.7502 17.5315 24.6564L14.5315 24.2814C13.7815 24.1877 13.219 24.8439 13.4065 25.5002L13.6877 26.5314C13.8752 27.0002 14.344 27.2814 14.8127 27.1877Z" fill="#8E4028"/>
<path d="M14.531 23.3433L16.6873 22.9683C17.0623 22.8746 17.3435 22.5933 17.3435 22.2183C17.3435 21.7496 17.0623 21.3746 16.5935 21.3746L14.2498 21.0933C13.6873 20.9996 13.2185 21.5621 13.3123 22.0308C13.406 22.3121 13.406 22.5933 13.5935 22.8746C13.781 23.2496 14.156 23.4371 14.531 23.3433Z" fill="#FFD097"/>
<path d="M14.8123 25.1246L16.9685 24.7496C17.3435 24.6558 17.6248 24.3746 17.6248 23.9996C17.6248 23.5308 17.3435 23.1558 16.8748 23.1558L14.531 22.8746C13.9685 22.7808 13.4998 23.3433 13.5935 23.8121C13.6873 24.0933 13.6873 24.3746 13.8748 24.6558C14.0623 25.0308 14.4373 25.2183 14.8123 25.1246Z" fill="#FFD097"/>
<path d="M14.9998 26.9058L17.156 26.5308C17.531 26.4371 17.8123 26.1558 17.8123 25.7808C17.8123 25.3121 17.531 24.9371 17.0623 24.9371L14.7185 24.6558C14.156 24.5621 13.6873 25.1246 13.781 25.5933C13.8748 25.8746 13.8748 26.1558 14.0623 26.4371C14.3435 26.7183 14.6248 26.9996 14.9998 26.9058Z" fill="#FFD097"/>
<path d="M17.2502 22.6875L13.5939 22.5C13.5939 22.5 13.3127 22.7813 13.6877 23.0625C14.0627 23.3438 16.7814 23.0625 16.7814 23.0625C16.7814 23.0625 17.1564 22.875 17.2502 22.6875ZM17.7189 24.375L14.0627 24.2812C14.0627 24.2812 13.7814 24.5625 14.1564 24.8438C14.5314 25.125 17.2502 24.8438 17.2502 24.8438C17.2502 24.8438 17.6252 24.5625 17.7189 24.375ZM17.7189 26.25L14.0627 26.0625C14.0627 26.0625 13.7814 26.3437 14.1564 26.625C14.5314 26.9062 17.2502 26.625 17.2502 26.625C17.2502 26.625 17.6252 26.4375 17.7189 26.25Z" fill="#D8B18B"/>
<path d="M13.7812 7.50019L16.9687 7.12519C17.5312 7.03144 17.9062 6.65644 18 6.18769C18 5.62519 17.625 5.15644 16.9687 5.06269L13.5 4.59394C12.6562 4.50019 12 5.15644 12.1875 5.81269C12.2812 6.18769 12.375 6.56269 12.5625 6.84394C12.75 7.31269 13.2187 7.50019 13.7812 7.50019Z" fill="#8E4028"/>
<path d="M14.1562 9.75019L17.3437 9.37519C17.9062 9.28144 18.2812 8.90644 18.375 8.43769C18.375 7.87519 18 7.40644 17.3437 7.31269L13.875 6.84394C13.0312 6.75019 12.375 7.40644 12.5625 8.06269C12.6562 8.43769 12.75 8.81269 12.9375 9.09394C13.125 9.56269 13.6875 9.84394 14.1562 9.75019Z" fill="#8E4028"/>
<path d="M14.5312 12.0939L17.7187 11.7189C18.2812 11.6252 18.6562 11.2502 18.75 10.7814C18.75 10.2189 18.375 9.75019 17.7187 9.65644L14.25 9.18769C13.4062 9.09394 12.75 9.75019 12.9375 10.4064C13.0312 10.7814 13.125 11.1564 13.3125 11.4377C13.5 11.9064 14.0625 12.1877 14.5312 12.0939Z" fill="#8E4028"/>
<path d="M13.9689 7.59331L16.3127 7.21831C16.6877 7.12456 17.0627 6.84331 17.0627 6.46831C17.0627 5.99956 16.7814 5.62456 16.3127 5.53081L13.7814 5.15581C13.2189 5.06206 12.6564 5.62456 12.8439 6.18706L13.1252 7.03081C13.2189 7.40581 13.5939 7.59331 13.9689 7.59331Z" fill="#FFD097"/>
<path d="M14.2502 9.46831L16.5939 9.09331C16.9689 8.99956 17.3439 8.7183 17.3439 8.3433C17.3439 7.87455 17.0627 7.49956 16.5939 7.40581L14.0627 7.03081C13.5002 6.93706 12.9377 7.49956 13.1252 8.06206L13.4064 8.90581C13.5002 9.28081 13.8752 9.56206 14.2502 9.46831Z" fill="#FFD097"/>
<path d="M14.5314 11.3433L16.8752 10.9683C17.2502 10.8746 17.6252 10.5933 17.6252 10.2183C17.6252 9.74955 17.3439 9.37456 16.8752 9.28081L14.3439 8.90581C13.7814 8.81206 13.2189 9.37456 13.4064 9.93706L13.6877 10.7808C13.7814 11.1558 14.1564 11.4371 14.5314 11.3433Z" fill="#FFD097"/>
<path d="M17.6252 10.6875L13.7814 10.5C13.7814 10.5 13.5002 10.7812 13.8752 11.0625C14.2502 11.3438 17.1564 11.0625 17.1564 11.0625C17.1564 11.0625 17.4377 10.875 17.6252 10.6875ZM17.2502 8.8125L13.4064 8.625C13.4064 8.625 13.1252 8.90625 13.5002 9.1875C13.8752 9.46875 16.7814 9.1875 16.7814 9.1875C16.7814 9.1875 17.1564 9 17.2502 8.8125ZM16.8752 7.03125L13.0314 6.84375C13.0314 6.84375 12.7502 7.125 13.1252 7.40625C13.5002 7.6875 16.4064 7.40625 16.4064 7.40625C16.4064 7.40625 16.7814 7.21875 16.8752 7.03125Z" fill="#D8B18B"/>
<path d="M16.969 16.8752C16.8752 16.219 17.344 15.5627 18.0002 15.469C18.6565 15.3752 19.3127 15.844 19.4065 16.5002C19.5002 16.8752 18.9377 17.344 18.6565 17.6252L19.219 19.0315L17.8127 19.3127L17.9065 17.719C17.5315 17.5315 17.0627 17.344 16.969 16.8752Z" fill="#343F3D"/>
<path d="M12.8438 11.25L14.625 20.8125L15.2812 20.9062L13.9687 11.9062L12.8438 11.25Z" fill="#602718"/>
<path d="M26.5312 1.6875L26.7188 2.625L12.4688 4.21875L12.375 3.28125L26.5312 1.6875Z" fill="#9E7544"/>
</g>
<defs>
<linearGradient id="paint0_linear_1_14390" x1="18.9778" y1="6.90903" x2="2.77722" y2="8.55856" gradientUnits="userSpaceOnUse">
<stop stop-color="#F38C05"/>
<stop offset="1" stop-color="#B85A1B"/>
</linearGradient>
<linearGradient id="paint1_linear_1_14390" x1="7.425" y1="13.4232" x2="3.12843" y2="13.8607" gradientUnits="userSpaceOnUse">
<stop stop-color="#F38C05"/>
<stop offset="1" stop-color="#B85A1B"/>
</linearGradient>
<linearGradient id="paint2_linear_1_14390" x1="13.2359" y1="22.9179" x2="12.7246" y2="22.8847" gradientUnits="userSpaceOnUse">
<stop stop-color="#BDD6DE"/>
<stop offset="1" stop-color="white"/>
</linearGradient>
<linearGradient id="paint3_linear_1_14390" x1="14.5217" y1="23.0102" x2="13.722" y2="23.5356" gradientUnits="userSpaceOnUse">
<stop stop-color="white"/>
<stop offset="1" stop-color="#BDD6DE"/>
</linearGradient>
<linearGradient id="paint4_linear_1_14390" x1="11.137" y1="18.286" x2="11.3084" y2="19.1658" gradientUnits="userSpaceOnUse">
<stop stop-color="#BDD6DE"/>
<stop offset="1" stop-color="white"/>
</linearGradient>
<linearGradient id="paint5_linear_1_14390" x1="18.7388" y1="16.3956" x2="18.9809" y2="17.1954" gradientUnits="userSpaceOnUse">
<stop stop-color="#BDD6DE"/>
<stop offset="1" stop-color="white"/>
</linearGradient>
<linearGradient id="paint6_linear_1_14390" x1="13.4982" y1="14.1468" x2="8.21057" y2="14.6852" gradientUnits="userSpaceOnUse">
<stop stop-color="#F38C05"/>
<stop offset="1" stop-color="#B85A1B"/>
</linearGradient>
<linearGradient id="paint7_linear_1_14390" x1="20.7529" y1="12.1314" x2="15.4645" y2="12.6699" gradientUnits="userSpaceOnUse">
<stop stop-color="#F38C05"/>
<stop offset="1" stop-color="#B85A1B"/>
</linearGradient>
<clipPath id="clip0_1_14390">
<rect width="30" height="30" fill="white"/>
</clipPath>
</defs>
</svg>
