<svg width="30" height="30" viewBox="0 0 30 30" fill="none" xmlns="http://www.w3.org/2000/svg">
<g clip-path="url(#clip0_1_12629)">
<path d="M14.25 8.24991C14.625 12.0937 20.625 15.4687 20.9062 15.8437C21.2812 15.6562 24.8438 14.6249 27.375 12.5624C26.5313 6.93741 19.125 5.15616 14.25 8.24991Z" fill="#560B0B"/>
<path d="M26.25 4.40615C24.8438 4.1249 23.4375 4.59365 22.2188 5.4374C21.375 4.40615 20.1563 3.65615 18.8438 3.5624C18.8438 3.5624 15.0938 2.8124 14.25 7.1249C14.1563 7.4999 14.1563 7.8749 14.25 8.15615C19.0312 5.15615 26.4375 7.03115 27.375 12.4686C28.5938 11.5311 29.625 10.2186 29.7188 8.71865C30.1875 4.96865 26.25 4.40615 26.25 4.40615Z" fill="#6B0C0C"/>
<path d="M28.5 8.53133C28.7813 7.31258 28.125 6.09383 27.0938 5.53133C26.25 5.06258 25.5 4.96883 24.5625 5.25008C23.625 5.53133 22.7813 6.00008 21.9375 6.46883C21.375 5.81258 20.8125 5.34383 19.9688 4.87508C19.0313 4.31258 17.9063 4.21883 16.9688 4.68758C15.9375 5.25008 15.1875 6.18758 15.0938 7.40633C14.3438 10.9688 20.5313 14.1563 20.9063 14.4376C21.4688 14.1563 28.125 12.1876 28.5 8.53133Z" fill="#DD4545"/>
<path d="M25.9686 8.43746C26.1561 7.49996 25.6873 6.65621 24.9373 6.09371C24.3748 5.81246 23.7186 5.71871 23.0623 5.90621C22.3123 6.09371 21.7498 6.37496 21.1873 6.84371C20.8123 6.37496 20.2498 5.90621 19.7811 5.71871C19.0311 5.34371 18.2811 5.24996 17.5311 5.62496C16.6873 5.99996 16.3123 6.65621 16.1248 7.59371C15.5623 10.2187 20.1561 12.5625 20.4373 12.8437C20.8123 12.5625 25.6873 10.9687 25.9686 8.43746Z" fill="#F96464"/>
<path d="M24.6562 11.3438C23.9999 11.5313 23.4374 11.4376 22.8749 11.0626C22.4062 10.6876 22.0312 10.1251 22.0312 9.56256C21.9374 7.96881 23.8124 4.21881 26.7187 6.09381C29.6249 7.96881 26.4374 10.8751 24.6562 11.3438Z" fill="#FFB3B3"/>
<path d="M25.875 7.87494C25.6875 7.87494 25.5938 7.87494 25.4063 7.78119C25.3125 7.68744 25.2188 7.49994 25.2188 7.40619C25.2188 6.93744 25.6875 6.09369 26.3438 6.46869C27 6.84369 26.3438 7.78119 25.875 7.87494Z" fill="white"/>
<path d="M19.2188 6.93759C19.1251 7.21884 18.9376 7.40634 18.7501 7.59384C18.4688 7.78134 18.1876 7.78134 17.9063 7.78134C17.1563 7.68759 16.0313 6.75009 17.4376 5.81259C18.9376 4.87509 19.4063 6.37509 19.2188 6.93759Z" fill="#FFB3B3"/>
<path d="M11.9062 21.75L17.8125 25.0313L26.4375 24.4688L27 22.875C20.25 22.5938 13.6875 20.5313 8.53125 16.6875L11.9062 21.75Z" fill="#10325C"/>
<path d="M25.875 19.0312C24.1875 18 22.3125 17.3438 20.3438 17.0625C19.4062 16.9688 18.4688 17.25 17.8125 17.8125L16.0312 19.5C11.4375 17.8125 9.5625 12.4688 9.5625 12.4688L11.7188 11.1562C12.6562 9.09375 12.1875 5.625 11.9062 3.84375C11.7188 3.09375 11.1562 2.4375 10.4062 2.15625C7.3125 1.03125 3 2.15625 3 2.15625L2.4375 3.09375L7.03125 14.4375L8.4375 16.5938C13.5938 20.5312 20.0625 22.5 26.9062 22.7812L27 22.5C27.5625 21.1875 27 19.7812 25.875 19.0312Z" fill="#084D70"/>
<path d="M10.6875 18.0937C9.1875 16.5937 7.78125 14.6249 7.3125 12.2812L9.84375 10.3124L10.5 2.24993C10.5 2.24993 4.5 -1.50007 1.5 3.56243C1.125 4.31243 0.75 5.15618 0.46875 6.09368C2.625 11.3437 6.1875 15.3749 10.6875 18.0937Z" fill="#084D70"/>
<path d="M16.3125 21.9375C16.3125 21.9375 13.3125 20.625 10.6875 18.0937C6.18751 15.375 2.62502 11.3438 0.468765 6.09375C-0.468735 9.75 0.375016 15.0938 6.56252 21.1875C14.25 28.9688 20.9063 29.0625 23.7188 28.0312C26.5313 27 26.8125 22.7812 26.8125 22.7812L26.7188 22.6875C23.4375 22.5 20.1563 21.9375 17.1563 20.9062L16.3125 21.9375Z" fill="#10325C"/>
<path d="M17.0625 21.0937C20.0625 22.125 23.3437 22.6875 26.625 22.875L18.6562 19.2188L17.0625 21.0937Z" fill="#10325C"/>
<path d="M9.43617 10.8415C10.4122 10.7179 10.9659 8.74374 10.6731 6.4322C10.3802 4.12065 9.35156 2.34702 8.37558 2.47068C7.39959 2.59434 6.84582 4.56846 7.1387 6.88C7.43157 9.19155 8.46018 10.9652 9.43617 10.8415Z" fill="#10325C"/>
<path d="M26.8399 23.118C27.2053 22.2047 25.5142 20.669 23.0627 19.688C20.6111 18.7071 18.3275 18.6522 17.962 19.5655C17.5966 20.4788 19.2877 22.0145 21.7392 22.9955C24.1907 23.9765 26.4744 24.0313 26.8399 23.118Z" fill="#10325C"/>
<path d="M8.24993 11.7186L10.5937 9.93739L8.90618 2.62489C8.90618 2.62489 4.78118 0.562385 2.90618 3.65614C1.03118 6.74989 0.374928 12.8436 7.49993 20.0624C14.6249 27.2811 20.9999 27.4686 23.5312 26.5311C26.0624 25.5936 26.3437 21.6561 26.3437 21.6561L18.8437 18.1874L16.6874 20.8124C16.6874 20.8124 9.46868 17.6249 8.24993 11.7186Z" fill="#0F7BDB"/>
<path d="M11.4373 6.28127C11.7186 8.43752 11.1561 10.3125 10.3123 10.4063C9.46859 10.5 8.43734 8.81252 8.15609 6.75002C7.87484 4.68752 8.06234 2.71877 8.90609 2.62502C9.74984 2.53127 11.1561 4.12502 11.4373 6.28127Z" fill="#4A9BE5"/>
<path d="M26.5216 21.844C26.8486 21.0268 25.2822 19.6315 23.023 18.7275C20.7637 17.8234 18.6671 17.753 18.3401 18.5702C18.0131 19.3873 19.5795 20.7827 21.8388 21.6867C24.0981 22.5908 26.1947 22.6612 26.5216 21.844Z" fill="#4A9BE5"/>
<path d="M7.03133 2.8125L7.87508 10.0312C7.87508 10.0312 3.28133 13.125 5.15633 15.5625C5.15633 15.5625 -1.31242 3.09375 7.03133 2.8125Z" fill="#1286DD"/>
<path d="M24.375 23.8125L17.9063 20.5312C17.9063 20.5312 13.4062 23.7188 11.7188 21.1875C11.8125 21.0938 21.1875 31.5 24.375 23.8125Z" fill="#1286DD"/>
<path d="M6.9375 12.9376C7.6875 16.8751 10.5 20.0626 14.3438 21.2813C14.3438 21.2813 15.4688 21.5626 15.2812 21.0001C15.0938 20.4376 9.46875 18.0001 7.96875 12.9376C7.96875 12.8438 6.9375 12.0001 6.9375 12.9376Z" fill="#1279C6"/>
<path d="M7.78125 4.03132C7.59375 4.12507 7.40625 4.03132 7.21875 3.93757C7.125 3.84382 7.03125 3.65632 6.9375 3.46882C6.9375 2.90632 7.5 1.68757 8.4375 2.34382C9.375 3.00007 8.34375 3.84382 7.78125 4.03132Z" fill="#28A1EA"/>
<path d="M17.9062 21.2812C17.7187 21.375 17.5312 21.2812 17.3437 21.1875C17.1562 21.0937 17.0625 20.9062 17.0625 20.7187C17.0625 20.1562 17.625 19.0312 18.5625 19.5937C19.5 20.1562 18.4687 21.0937 17.9062 21.2812Z" fill="#28A1EA"/>
</g>
<defs>
<clipPath id="clip0_1_12629">
<rect width="30" height="30" fill="white"/>
</clipPath>
</defs>
</svg>
