<svg width="24" height="24" viewBox="0 0 24 24" fill="none" xmlns="http://www.w3.org/2000/svg">
<path fill-rule="evenodd" clip-rule="evenodd" d="M6.25 17.9131C7.75 20.0381 9.667 21.3921 12 21.9751C14.333 21.3921 16.25 20.0371 17.75 17.9121C19.25 15.7881 20 13.4581 20 10.9251V4.9751L12 1.9751L4 4.9751V10.9251C4 13.4581 4.75 15.7871 6.25 17.9131ZM16.688 16.8371C15.479 18.5961 13.917 19.7921 12 20.4251C10.083 19.7921 8.52 18.5951 7.312 16.8371C6.104 15.0801 5.5 13.1081 5.5 10.9251V6.0251L12 3.5751L18.5 6.0251V10.9251C18.5 13.1081 17.897 15.0791 16.688 16.8371Z" fill="#F4BB2E"/>
<path fill-rule="evenodd" clip-rule="evenodd" d="M12 20.4252C13.917 19.7922 15.48 18.5952 16.688 16.8372C17.896 15.0792 18.5 13.1082 18.5 10.9252V6.0252L12 3.5752L5.5 6.0252V10.9252C5.5 13.1082 6.104 15.0792 7.313 16.8372C8.521 18.5962 10.083 19.7922 12 20.4252ZM16.6 9.6252L10.9 15.3252L7.35 11.7502L8.45 10.6502L10.975 13.1752L15.55 8.6002L16.6 9.6252Z" fill="#F4BB2E"/>
</svg>
