<svg width="30" height="30" viewBox="0 0 30 30" fill="none" xmlns="http://www.w3.org/2000/svg">
<g clip-path="url(#clip0_1_13204)">
<path d="M0.28125 27.0938C0.28125 27.0938 0.5625 29.4375 2.8125 29.4375C5.0625 29.4375 27 30 27 30L28.7813 2.25L27.4688 2.34375L27.5625 0.28125H5.25L0.28125 27.0938Z" fill="#4C2537"/>
<path d="M25.4062 28.7813L2.34375 28.4063L4.5 4.3125L27.0938 2.71875L25.4062 28.7813Z" fill="#C9524C"/>
<path d="M24.8438 28.0312L2.53125 27.75L4.5 3.46875H25.5937L24.8438 28.0312Z" fill="#CCC6BA"/>
<path d="M25.7812 24.75L3.46875 24.4687L5.4375 0.1875H26.5312L25.7812 24.75Z" fill="#EC5446"/>
<path d="M4.68761 0.65625L5.43761 0.09375L3.28136 26.625L2.43761 28.4062C1.12511 28.4062 0.187607 27.375 0.281357 26.25L2.90636 3.5625C3.00011 2.4375 3.65636 1.40625 4.68761 0.65625Z" fill="#4C2537"/>
<path d="M4.31232 25.7812L3.46857 24.4688C3.46857 24.4688 1.31232 24.6562 0.937315 26.25C0.562315 27.8438 3.09357 27.8438 3.09357 27.8438L4.31232 25.7812Z" fill="#CCC6BA"/>
<path d="M26.906 11.5311C26.9998 5.81234 20.9998 5.53109 20.9998 5.53109C20.9998 5.53109 17.531 5.06234 15.1873 7.49984C13.031 4.96859 9.84354 5.06234 9.84354 5.06234C9.84354 5.06234 4.03104 4.49984 3.37479 11.0623C2.71854 17.7186 13.9685 22.7811 14.6248 23.1561C15.3748 22.8748 26.906 18.1873 26.906 11.5311Z" fill="#960F0F"/>
<path d="M25.4998 11.3435C25.4998 8.53101 24.1873 7.31226 22.8748 6.74976C21.6561 6.18726 20.2498 6.18726 18.9373 6.65601C17.9061 7.03101 16.3123 7.78101 15.0936 8.99976C14.0623 7.87476 12.7498 7.21851 11.8123 6.74976C10.3123 6.09351 8.53109 6.09351 7.03109 6.93726C5.81234 7.59351 4.68734 8.81226 4.49984 11.2498C3.93734 16.8748 13.9686 21.1873 14.6248 21.5623C15.2811 21.1873 25.4998 16.9685 25.4998 11.3435Z" fill="#DD4545"/>
<path d="M21.5626 11.3436C21.5626 9.28109 20.6251 8.34359 19.5938 7.87484C18.7501 7.49984 17.7188 7.49984 16.7813 7.78109C16.0313 8.06234 14.8126 8.62484 13.9688 9.46859C13.1251 8.71859 12.1876 8.15609 11.4376 7.87484C10.3126 7.40609 9.00008 7.49984 7.87508 8.06234C6.93758 8.53109 6.09383 9.46859 6.00008 11.2498C5.53133 15.4686 13.0313 18.5623 13.5001 18.8436C13.9688 18.6561 21.5626 15.5623 21.5626 11.3436Z" fill="#F96464"/>
<path d="M19.9686 16.2185C18.8436 16.5935 17.8124 16.4998 17.1561 16.1248C16.4999 15.7498 15.8436 14.9998 15.6561 13.8748C15.2811 11.3435 17.8124 5.15603 22.4999 7.68728C27.1874 10.2185 22.5936 15.281 19.9686 16.2185Z" fill="#FFB3B3"/>
<path d="M21.4688 10.5002C21.1876 10.594 20.9063 10.594 20.7188 10.5002C20.5313 10.4065 20.3438 10.219 20.3438 9.93772C20.2501 9.28147 20.9063 7.78147 22.0313 8.34397C23.2501 9.00022 22.1251 10.3127 21.4688 10.5002Z" fill="white"/>
<path d="M10.6876 10.0314C10.5938 10.5002 10.3126 10.8752 10.0313 11.0627C9.75008 11.2502 9.28133 11.4377 8.81258 11.4377C7.68758 11.4377 5.71883 10.0314 7.78133 8.43766C9.84383 6.84391 10.9688 9.00016 10.6876 10.0314Z" fill="#FFB3B3"/>
<path d="M2.34375 25.7812L24.0938 26.25V27.4687L3.09375 27.0937C3.09375 27.0937 2.34375 26.5312 2.34375 25.7812Z" fill="#E8E0D1"/>
<path d="M2.34375 24.8437L26.4375 25.5L26.5312 24.5625L2.15625 24.0938L2.34375 24.8437Z" fill="#4C2537"/>
<path opacity="0.37" d="M14.8125 21.1875L3.75 19.875L4.5 12.5625C4.5 12.5625 10.5938 19.5 14.8125 21.1875Z" fill="#960F0F"/>
<path d="M12.5625 0.1875L12.4688 5.34375L9.5625 3.5625L6.65625 5.4375L7.40625 0L12.5625 0.1875Z" fill="#960F0F"/>
<path d="M12.4688 0.1875L12.375 4.3125L10.0312 2.90625L7.78125 4.40625L8.34375 0.09375L12.4688 0.1875Z" fill="#CCC6BA"/>
<path d="M10.3125 0.65625V1.96875L11.7188 2.90625L11.625 0.75L10.3125 0.65625Z" fill="white"/>
</g>
<defs>
<clipPath id="clip0_1_13204">
<rect width="30" height="30" fill="white"/>
</clipPath>
</defs>
</svg>
