<svg width="30" height="30" viewBox="0 0 30 30" fill="none" xmlns="http://www.w3.org/2000/svg">
<g clip-path="url(#clip0_1_18041)">
<path d="M22.3969 1.27506L8.33442 9.49693C7.14128 10.1527 6.23643 11.2309 5.79758 12.5197C5.35872 13.8086 5.41756 15.2149 5.96255 16.4626C6.8234 18.5188 8.29635 20.2601 10.1813 21.4501C12.2673 22.8941 14.7085 23.7402 17.2407 23.8969C21.0563 24.1313 24.2907 22.1907 24.825 19.0313L27.45 3.51568C27.8438 1.18131 24.7875 -0.112441 22.3969 1.27506Z" fill="#853E96"/>
<path d="M18.2605 29.5874C19.7477 27.5001 17.2615 23.1775 12.7074 19.9327C8.15323 16.6878 3.25575 15.7495 1.76853 17.8368C0.281312 19.9241 2.76754 24.2467 7.32168 27.4915C11.8758 30.7364 16.7733 31.6747 18.2605 29.5874Z" fill="#853E96"/>
<path d="M21.5063 2.69074L8.86881 10.0595C7.80031 10.6508 6.99036 11.6189 6.59691 12.775C6.20346 13.9311 6.25472 15.1923 6.74069 16.3126C7.50736 18.1496 8.81541 19.7094 10.4907 20.7845C12.3768 22.0884 14.5858 22.8475 16.8751 22.9782C20.2969 23.1939 23.2032 21.4501 23.6813 18.6189L26.0344 4.68761C26.3907 2.60636 23.6438 1.44386 21.5063 2.69074Z" fill="#581F66"/>
<path d="M18.041 28.3928C19.2007 26.7651 16.7635 23.0392 12.5973 20.0708C8.43112 17.1024 4.11361 16.0155 2.95388 17.6432C1.79415 19.2708 4.23137 22.9967 8.39756 25.9651C12.5638 28.9336 16.8813 30.0205 18.041 28.3928Z" fill="#581F66"/>
<path d="M17.1479 27.756C17.902 26.6976 15.5359 23.7182 11.8631 21.1013C8.19028 18.4844 4.60152 17.221 3.8474 18.2794C3.09327 19.3378 5.45935 22.3172 9.13218 24.9341C12.805 27.551 16.3938 28.8144 17.1479 27.756Z" fill="#A94DBC"/>
<path d="M13.5751 22.8375L9.01888 19.9594C7.87131 19.1204 6.47372 18.6942 5.05326 18.75C4.30326 18.8719 4.65013 19.8656 5.65326 20.5406L14.6064 26.5219C15.9001 27.3937 17.2595 27.4031 16.9689 26.5219C16.2548 24.9664 15.0669 23.6767 13.5751 22.8375Z" fill="#A94DBC"/>
<path d="M14.0717 23.9155L7.51855 19.7249L10.0498 15.2905L17.4467 19.5749L14.0717 23.9155Z" fill="#581F66"/>
<path d="M20.9717 3.90914L10.3685 10.4716C9.47217 11.004 8.79254 11.8358 8.44951 12.8203C8.10648 13.8048 8.12208 14.8788 8.49354 15.8529C9.09193 17.3936 10.1615 18.706 11.5498 19.6029C13.0773 20.6729 14.8801 21.2814 16.7435 21.356C19.556 21.4685 22.0123 19.931 22.4623 17.5029L24.6842 5.53102C25.0217 3.74977 22.7623 2.81227 20.9717 3.90914Z" fill="#A94DBC"/>
<path d="M13.91 24.2939C14.4028 23.6024 13.346 22.0042 11.5496 20.7243C9.75328 19.4444 7.89761 18.9674 7.40487 19.659C6.91214 20.3505 7.96893 21.9487 9.76528 23.2286C11.5616 24.5085 13.4173 24.9855 13.91 24.2939Z" fill="#581F66"/>
<path d="M11.8687 20.1471C11.8687 20.1471 16.6968 22.1158 18.9187 17.7471C21.1405 13.3783 23.7187 3.4502 23.7187 3.4502L24.9937 3.7502L24.7218 10.8939L22.4999 20.6252C22.4999 20.6252 17.2874 25.4439 11.8687 20.1471Z" fill="#581F66"/>
<path d="M11.25 26.5781C11.25 26.5781 13.6219 27.9844 15 27.1031C16.3781 26.2219 15 23.4375 15 23.4375C15 23.4375 17.5406 26.0719 17.8125 26.9063C18.0844 27.7406 16.65 30.3094 11.25 26.5781Z" fill="#581F66"/>
<path d="M10.0314 12.5154L20.6908 4.84669C20.8046 4.7709 20.9384 4.73047 21.0751 4.73047C21.2119 4.73047 21.3457 4.7709 21.4595 4.84669C21.5468 4.89962 21.6215 4.97093 21.6785 5.05565C21.7354 5.14037 21.7732 5.23647 21.7893 5.33728C21.8053 5.43809 21.7993 5.54119 21.7715 5.63941C21.7436 5.73764 21.6948 5.82863 21.6283 5.90606L12.8814 15.8436C12.7208 16.0314 12.5199 16.1806 12.2935 16.28C12.0672 16.3793 11.8214 16.4262 11.5744 16.4172C11.3274 16.4082 11.0856 16.3435 10.8671 16.2279C10.6486 16.1123 10.4591 15.9489 10.3126 15.7498C9.94575 15.3016 9.72262 14.7531 9.67244 14.1761C9.62226 13.599 9.74737 13.0202 10.0314 12.5154Z" fill="#E08CF5"/>
<path d="M7.92202 22.9406C7.92202 22.9406 6.04702 20.1281 6.98452 19.3594C6.98452 19.3594 5.83139 18.2719 4.85639 18.6094C3.88139 18.9469 7.92202 22.9406 7.92202 22.9406Z" fill="#E08CF5"/>
<path d="M22.8752 24.4594C23.7398 24.5092 24.5788 24.7714 25.3179 25.2227C26.057 25.674 26.6734 26.3005 27.1127 27.0469C27.2146 27.2126 27.2818 27.3972 27.3105 27.5897C27.3392 27.7821 27.3288 27.9783 27.2797 28.1665C27.2307 28.3548 27.1441 28.5312 27.0252 28.6852C26.9063 28.8391 26.7575 28.9675 26.5877 29.0625C25.3843 29.714 24.0374 30.0552 22.669 30.0552C21.3005 30.0552 19.9536 29.714 18.7502 29.0625C18.3971 28.8417 18.1445 28.4914 18.0463 28.0867C17.9482 27.6819 18.0124 27.2549 18.2252 26.8969C18.7235 26.1145 19.4191 25.4773 20.242 25.0494C21.0649 24.6215 21.9861 24.418 22.9127 24.4594H22.8752Z" fill="#425763"/>
<path d="M22.8375 25.0315C23.5624 25.0641 24.2694 25.267 24.9014 25.6237C25.5333 25.9804 26.0724 26.4809 26.475 27.0846C26.5678 27.217 26.6303 27.3683 26.6579 27.5276C26.6854 27.6869 26.6774 27.8504 26.6344 28.0063C26.5914 28.1622 26.5145 28.3066 26.4091 28.4293C26.3038 28.552 26.1726 28.6498 26.025 28.7159C24.9535 29.2177 23.7813 29.4676 22.5983 29.4464C21.4153 29.4253 20.2529 29.1337 19.2 28.594C19.0589 28.5205 18.9353 28.4175 18.8376 28.292C18.7399 28.1664 18.6705 28.0213 18.634 27.8664C18.5975 27.7116 18.5948 27.5507 18.6262 27.3948C18.6575 27.2388 18.7221 27.0914 18.8156 26.9627C19.2644 26.3325 19.8646 25.8252 20.5609 25.4878C21.2572 25.1503 22.0271 24.9934 22.8 25.0315H22.8375Z" fill="#A2B6BA"/>
<path d="M22.8283 25.1157C23.4171 25.1423 23.9913 25.3072 24.5044 25.5971C25.0175 25.887 25.455 26.2938 25.7815 26.7845C25.8519 26.8948 25.8985 27.0186 25.9182 27.148C25.9379 27.2775 25.9303 27.4096 25.8959 27.5358C25.8614 27.6621 25.8009 27.7798 25.7183 27.8813C25.6356 27.9828 25.5326 28.0658 25.4158 28.1251C24.5443 28.5329 23.5909 28.7356 22.6289 28.7177C21.6668 28.6999 20.7216 28.4619 19.8658 28.022C19.7556 27.9585 19.6595 27.8732 19.5833 27.7713C19.5071 27.6694 19.4524 27.5531 19.4226 27.4295C19.3928 27.3058 19.3884 27.1774 19.4098 27.052C19.4313 26.9266 19.4779 26.8069 19.5471 26.7001C19.9119 26.1861 20.4003 25.7724 20.9672 25.4971C21.5342 25.2218 22.1614 25.0939 22.7908 25.1251L22.8283 25.1157Z" fill="#87999B"/>
<path d="M22.4627 27.7594C25.8178 27.7594 28.5377 25.0395 28.5377 21.6844C28.5377 18.3292 25.8178 15.6094 22.4627 15.6094C19.1076 15.6094 16.3877 18.3292 16.3877 21.6844C16.3877 25.0395 19.1076 27.7594 22.4627 27.7594Z" fill="#425763"/>
<path d="M22.4625 26.8874C25.4448 26.8874 27.8625 24.4697 27.8625 21.4874C27.8625 18.5051 25.4448 16.0874 22.4625 16.0874C19.4802 16.0874 17.0625 18.5051 17.0625 21.4874C17.0625 24.4697 19.4802 26.8874 22.4625 26.8874Z" fill="#A2B6BA"/>
<path d="M22.6779 26.0248C25.4324 26.0248 27.6654 23.7918 27.6654 21.0373C27.6654 18.2828 25.4324 16.0498 22.6779 16.0498C19.9234 16.0498 17.6904 18.2828 17.6904 21.0373C17.6904 23.7918 19.9234 26.0248 22.6779 26.0248Z" fill="#CBDEE4"/>
<path d="M25.4158 20.6158C26.0268 20.6158 26.5221 20.1205 26.5221 19.5096C26.5221 18.8986 26.0268 18.4033 25.4158 18.4033C24.8049 18.4033 24.3096 18.8986 24.3096 19.5096C24.3096 20.1205 24.8049 20.6158 25.4158 20.6158Z" fill="#425763"/>
<path d="M25.4625 20.1096C25.8301 20.1096 26.1281 19.8116 26.1281 19.4439C26.1281 19.0763 25.8301 18.7783 25.4625 18.7783C25.0949 18.7783 24.7969 19.0763 24.7969 19.4439C24.7969 19.8116 25.0949 20.1096 25.4625 20.1096Z" fill="#4ED154"/>
<path d="M21.4595 19.0781C21.5445 18.527 21.7425 17.9994 22.0409 17.5283C22.3394 17.0573 22.7319 16.6529 23.1938 16.3406C23.3813 16.2281 23.3532 16.1062 23.1282 16.0781H22.8376C22.6126 16.0781 20.9626 16.1531 20.3813 19.1625L21.4595 19.0781Z" fill="#A2B6BA"/>
<path d="M24.225 22.1439C24.225 20.2489 22.7895 18.7127 21.0187 18.7127C19.248 18.7127 17.8125 20.2489 17.8125 22.1439C17.8125 24.039 19.248 25.5752 21.0187 25.5752C22.7895 25.5752 24.225 24.039 24.225 22.1439Z" fill="#425763"/>
<path d="M23.6181 22.0932C23.6234 20.6487 22.5322 19.4736 21.1809 19.4687C19.8295 19.4637 18.7297 20.6307 18.7244 22.0753C18.7191 23.5199 19.8103 24.6949 21.1617 24.6999C22.5131 24.7048 23.6129 23.5378 23.6181 22.0932Z" fill="#3587C4"/>
<path d="M23.2149 21.9884C23.2193 20.7872 22.312 19.81 21.1885 19.8059C20.0649 19.8018 19.1506 20.7722 19.1462 21.9735C19.1418 23.1747 20.049 24.1518 21.1725 24.1559C22.2961 24.16 23.2105 23.1896 23.2149 21.9884Z" fill="#4DA3EC"/>
<path d="M22.3261 20.9857C22.3273 20.6699 22.0596 20.4129 21.7282 20.4117C21.3968 20.4105 21.1273 20.6655 21.1261 20.9814C21.125 21.2972 21.3927 21.5542 21.724 21.5554C22.0554 21.5566 22.325 21.3016 22.3261 20.9857Z" fill="white"/>
<path d="M22.5935 17.5124C22.8383 17.2474 23.1015 16.9999 23.381 16.7718C23.4346 16.7299 23.4974 16.7012 23.5642 16.6882C23.631 16.6751 23.7 16.6781 23.7654 16.6968C24.2982 16.8565 24.8086 17.0834 25.2842 17.3718C25.362 17.4211 25.4215 17.4945 25.4536 17.5808C25.4858 17.6672 25.4888 17.7616 25.4623 17.8498C25.4357 17.938 25.381 18.0151 25.3065 18.0693C25.232 18.1235 25.1419 18.1518 25.0498 18.1499C24.3526 18.1056 23.6529 18.1244 22.9592 18.2062C22.8751 18.2152 22.7903 18.1988 22.7158 18.1591C22.6412 18.1194 22.5802 18.0582 22.5408 17.9834C22.5015 17.9087 22.4854 17.8238 22.4948 17.7398C22.5042 17.6559 22.5386 17.5766 22.5935 17.5124Z" fill="#E1F0F4"/>
</g>
<defs>
<clipPath id="clip0_1_18041">
<rect width="30" height="30" fill="white"/>
</clipPath>
</defs>
</svg>
