<svg width="30" height="30" viewBox="0 0 30 30" fill="none" xmlns="http://www.w3.org/2000/svg">
<g clip-path="url(#clip0_1_17939)">
<path d="M21.9372 0.656283L7.87469 8.90628C5.34343 10.3125 4.49969 13.125 5.53094 15.75C6.18719 17.3438 7.40594 19.125 9.74968 20.7188C12.1872 22.4063 14.6247 23.0625 16.7809 23.1563C20.6247 23.4375 23.8122 21.4688 24.3747 18.2813L26.9997 2.81253C27.3747 0.562533 24.3747 -0.749967 21.9372 0.656283Z" fill="#853E96"/>
<path d="M17.8536 28.9513C19.3259 26.8852 16.8276 22.5796 12.2736 19.3346C7.71957 16.0897 2.8343 15.1341 1.36204 17.2003C-0.110213 19.2664 2.38806 23.572 6.94209 26.8169C11.4961 30.0619 16.3814 31.0175 17.8536 28.9513Z" fill="#853E96"/>
<path d="M21.094 2.0623L8.43775 9.3748C6.18775 10.6873 5.344 13.2185 6.2815 15.656C6.844 17.0623 7.969 18.656 10.0315 20.156C12.1877 21.656 14.4377 22.2185 16.3127 22.3123C19.6877 22.4998 22.594 20.8123 23.1565 17.9998L25.5002 4.1248C25.969 1.96855 23.2502 0.749799 21.094 2.0623Z" fill="#581F66"/>
<path d="M17.6594 27.6643C18.8312 26.0198 16.397 22.2753 12.2225 19.3007C8.04798 16.3262 3.71393 15.248 2.54213 16.8925C1.37034 18.537 3.80453 22.2815 7.97906 25.256C12.1536 28.2306 16.4876 29.3088 17.6594 27.6643Z" fill="#581F66"/>
<path d="M16.7431 27.0115C17.4943 25.9573 15.1293 22.9837 11.4608 20.3697C7.79223 17.7557 4.20937 16.4912 3.45822 17.5454C2.70707 18.5995 5.07207 21.5732 8.74059 24.1872C12.4091 26.8012 15.992 28.0657 16.7431 27.0115Z" fill="#A94DBC"/>
<path d="M13.1251 22.1252L8.62505 19.219C7.12505 18.2815 5.62505 17.8127 4.68755 18.0002C3.93755 18.094 4.31255 19.1252 5.25005 19.7815L14.1563 25.7815C15.4688 26.6252 16.7813 26.6252 16.5001 25.7815C16.2188 24.6565 14.9063 23.2502 13.1251 22.1252Z" fill="#A94DBC"/>
<path d="M13.6875 23.25L7.125 19.0312L9.65625 14.625L17.0625 18.8438L13.6875 23.25Z" fill="#581F66"/>
<path d="M20.5311 3.28147L9.9373 9.84397C8.0623 11.0627 7.3123 13.219 8.0623 15.1877C8.53105 16.4065 9.3748 17.719 11.0623 18.9377C12.8436 20.1565 14.6248 20.6252 16.2186 20.719C19.0311 20.8127 21.4686 19.3127 21.9373 16.8752L24.1873 4.96897C24.5623 3.09397 22.3123 2.15647 20.5311 3.28147Z" fill="#A94DBC"/>
<path d="M13.5069 23.6426C13.9876 22.9679 12.9074 21.3737 11.0943 20.0817C9.28108 18.7897 7.4215 18.2893 6.94076 18.9639C6.46003 19.6386 7.54018 21.2329 9.35336 22.5249C11.1665 23.8169 13.0261 24.3173 13.5069 23.6426Z" fill="#581F66"/>
<path d="M11.4375 19.5C11.4375 19.5 16.2188 21.4688 18.4688 17.0625C20.7188 12.6563 23.25 2.8125 23.25 2.8125L24.5625 3.09375L24.2812 10.2187L22.0312 19.875C22.125 19.875 16.875 24.75 11.4375 19.5ZM10.7812 25.875C10.7812 25.875 13.125 27.2812 14.5312 26.4375C15.9375 25.5938 14.625 22.7812 14.625 22.7812C14.625 22.7812 17.1562 25.4062 17.3438 26.25C17.625 27.0938 16.2188 29.625 10.7812 25.875Z" fill="#581F66"/>
<path d="M9.65623 11.8125L20.3437 4.125C20.5312 3.9375 20.9062 3.9375 21.0937 4.125C21.4687 4.3125 21.5625 4.875 21.2812 5.15625L12.5625 15.0938C11.9062 15.8438 10.5937 15.8437 10.0312 15C9.28123 14.25 8.90623 13.125 9.65623 11.8125ZM7.49998 22.2188C7.49998 22.2188 5.62498 19.4062 6.56248 18.6562C6.56248 18.6562 5.43748 17.5312 4.40623 17.9062C3.37498 18.2812 7.49998 22.2188 7.49998 22.2188Z" fill="#E08CF5"/>
<path d="M16.9687 27.375L16.5938 27.8438L18.1875 28.9688L27 20.1563L25.5 18.2812L16.9687 27.375Z" fill="#9A4C18"/>
<path d="M27.1873 22.6876C26.906 26.1563 23.7185 29.1563 20.0623 29.0626C16.4998 29.0626 14.2498 26.0626 14.906 22.6876C15.5623 19.5001 18.5623 16.9688 21.7498 16.9688C25.031 16.8751 27.4685 19.4063 27.1873 22.6876Z" fill="#9A4C18"/>
<path d="M28.0312 23.7187C27.7499 27 24.5624 29.9062 21.0937 29.8125C17.6249 29.8125 15.3749 27 16.0312 23.7187C16.6874 20.7187 19.5937 18.2812 22.7812 18.2812C25.9687 18.2812 28.3124 20.625 28.0312 23.7187Z" fill="#9A4C18"/>
<path d="M17.9062 27.6562L19.4063 28.4062L26.625 20.9062L25.4062 19.3125L17.9062 27.6562Z" fill="#F49937"/>
<path d="M27.375 23.8125C27.0938 26.625 24.4688 29.0625 21.5625 28.9688C18.6563 28.9688 16.7813 26.5312 17.3438 23.8125C17.8125 21.1875 20.3438 19.125 22.9688 19.0312C25.5938 19.0312 27.6563 21.0938 27.375 23.8125Z" fill="#F49937"/>
<path d="M26.4376 22.5937C26.1563 25.5938 23.3438 28.2187 20.2501 28.125C17.1563 28.125 15.1876 25.5938 15.7501 22.5937C16.3126 19.7812 18.9376 17.625 21.7501 17.5312C24.5626 17.5312 26.6251 19.7812 26.4376 22.5937Z" fill="#FFEDC0"/>
<path d="M26.0625 22.875C25.7813 25.6875 23.1563 28.125 20.25 28.0312C17.3438 28.0312 15.4688 25.5938 16.0313 22.875C16.5 20.25 19.0313 18.1875 21.6563 18.0938C24.2813 18.0938 26.25 20.1563 26.0625 22.875Z" fill="#FFD766"/>
<path d="M24.8436 22.875C24.6561 25.0313 22.5936 26.9063 20.3436 26.9063C18.0936 26.9063 16.6873 25.0313 17.0623 22.9688C17.4373 20.9063 19.4061 19.3125 21.4686 19.2188C23.5311 19.125 25.1248 20.7188 24.8436 22.875Z" fill="#FFEDC0"/>
<path d="M24.9373 22.3125C24.7498 24.4687 22.6873 26.25 20.4373 26.25C18.1873 26.25 16.7811 24.4687 17.1561 22.3125C17.5311 20.25 19.4998 18.6562 21.5623 18.6562C23.6248 18.6562 25.1248 20.25 24.9373 22.3125Z" fill="#F49937"/>
<path d="M24.2815 22.875C24.094 24.75 22.4065 26.25 20.4377 26.25C18.5627 26.25 17.344 24.75 17.6252 22.875C17.9065 21.0937 19.594 19.6875 21.3752 19.6875C23.1565 19.6875 24.469 21.0937 24.2815 22.875Z" fill="#FFD766"/>
<path d="M21.9375 19.3125L22.4063 21.375L24.5625 21.9375L22.5938 23.25L22.4063 25.5937L20.625 24.2812L18.2813 25.0313L19.3125 22.875L18.0938 21.1875L20.4375 21.0937L21.9375 19.3125Z" fill="#F49937"/>
</g>
<defs>
<clipPath id="clip0_1_17939">
<rect width="30" height="30" fill="white"/>
</clipPath>
</defs>
</svg>
