<svg width="14" height="9" viewBox="0 0 14 9" fill="none" xmlns="http://www.w3.org/2000/svg">
<g clip-path="url(#clip0_1_11490)">
<path d="M2.625 6.22222L5.44444 0H7.38889L3.20833 8.26389H1.45833L0 0H1.75L2.625 6.22222Z" fill="black"/>
<path d="M10.5972 5.25H9.23606L8.74995 8.26389H7.09717L8.5555 0H11.2777C12.1527 0 12.9305 0.194444 13.4166 0.680556C13.9027 1.16667 14.0972 1.75 14.0972 2.52778C13.9999 3.69444 13.4166 4.47222 12.2499 4.86111L13.4166 8.26389V8.36111H11.6666L10.5972 5.25ZM9.52772 3.88889H10.7916C11.2777 3.88889 11.5694 3.79167 11.8611 3.5C12.1527 3.20833 12.3472 2.91667 12.3472 2.52778C12.4444 2.13889 12.3472 1.84722 12.1527 1.65278C11.9583 1.45833 11.6666 1.36111 11.3749 1.36111H9.91661L9.52772 3.88889Z" fill="black"/>
</g>
<defs>
<clipPath id="clip0_1_11490">
<rect width="14" height="8.26389" fill="white"/>
</clipPath>
</defs>
</svg>
