<svg width="30" height="30" viewBox="0 0 30 30" fill="none" xmlns="http://www.w3.org/2000/svg">
<g clip-path="url(#clip0_1_18124)">
<path d="M22.0313 17.5313C24.413 17.5313 26.3438 15.6005 26.3438 13.2188C26.3438 10.837 24.413 8.90625 22.0313 8.90625C19.6495 8.90625 17.7188 10.837 17.7188 13.2188C17.7188 15.6005 19.6495 17.5313 22.0313 17.5313Z" fill="#493426"/>
<path d="M17.7187 5.34375L17.8125 5.4375C18.375 6 21 8.90625 20.7188 14.625C20.7188 14.625 21 16.4062 23.3437 16.4062C23.3437 16.4062 23.1562 15.1875 23.5312 14.3438C23.9062 13.5 24.8437 9.09375 23.8125 6.75C22.7812 4.40625 19.9688 1.875 16.5 1.59375" fill="#302119"/>
<path d="M6.09379 26.3438C3.93754 25.125 2.90629 22.0313 4.03129 19.0313C4.40629 18 6.46879 15.375 7.03129 14.9063C8.90629 13.4063 16.9688 12.1875 23.25 17.25C24.375 18.1875 25.2188 19.6875 25.5938 21.375V21.4688C26.4375 26.0625 25.0313 29.8125 21.1875 29.8125C16.7813 29.7188 9.75004 28.5938 6.09379 26.3438Z" fill="#692A2A"/>
<path d="M6.8438 25.2187C4.9688 24.0937 3.93755 21.4687 4.9688 18.9374C5.3438 18.0937 7.12505 15.7499 7.68755 15.3749C9.37505 14.0624 16.5 13.0312 22.125 17.3437C23.1563 18.0937 23.9063 19.4061 24.1875 20.9061V20.9999C24.9375 24.9374 23.625 28.1249 20.3438 28.1249C16.4063 28.1249 10.125 27.1874 6.8438 25.2187Z" fill="#BD4F53"/>
<path d="M6.37488 22.9686C4.40613 22.0311 5.15613 19.8749 6.18738 17.5311C6.56238 16.7811 7.40613 16.0311 7.96863 15.6561C9.74988 14.5311 16.5936 13.4999 22.2186 17.2499C23.2499 17.9061 23.9999 19.0311 24.2811 20.3436V20.4374C25.0311 23.9061 22.4999 26.9061 19.4061 26.4374C15.4686 25.8749 9.65613 24.5624 6.37488 22.9686Z" fill="#E8A77B"/>
<path d="M6.18749 22.9689C4.49999 22.0314 6.28124 21.0002 7.12499 18.6564C7.40624 17.9064 9.09374 16.2189 9.56249 15.8439C11.0625 14.7189 14.8125 13.4064 19.6875 17.2502C20.5312 17.9064 21.2812 19.0314 21.4687 20.3439V20.4377C22.125 23.9064 20.4375 26.5314 17.7187 26.0627C14.3437 25.4064 8.99999 24.5627 6.18749 22.9689Z" fill="#FFDEC2"/>
<path d="M18.4688 17.0625C18.4688 17.0625 19.3125 21.2812 16.7812 22.5938C16.7812 22.5938 23.1562 22.4062 24.8438 21.375C24.8438 21.375 25.4062 17.8125 20.4375 16.2187L18.4688 17.0625ZM8.15625 15.5625C8.15625 15.5625 7.03125 16.4062 6 18.0937L7.21875 18.8438L7.40625 20.7188C7.40625 20.7188 7.125 17.8125 9.5625 16.6875L8.15625 15.5625Z" fill="#BD4F53"/>
<path d="M6.0936 19.5C6.0936 19.5 10.8749 24 24.6561 21.375L23.0624 25.6875C23.0624 25.6875 18.5624 26.5313 12.4686 25.0313C6.74985 23.625 4.2186 24.9375 6.0936 19.5Z" fill="#8E4028"/>
<path d="M4.96891 19.2186C5.06266 18.8436 5.25016 19.9686 5.62516 20.1561C6.93766 20.9998 9.75016 22.7811 16.9689 23.5311C18.6564 23.7186 21.6564 22.4061 24.5627 21.7498C24.5627 21.7498 24.6564 22.4061 24.5627 23.2498C24.2814 25.2186 22.4064 26.8123 20.4377 26.8123C18.0939 26.8123 15.7502 26.7186 12.3752 25.8748C6.93766 24.4686 3.84391 23.9061 4.96891 19.2186Z" fill="#E08484"/>
<path d="M8.90625 25.3125C8.90625 25.3125 10.2188 25.0312 11.0625 24C11.0625 24 11.3437 25.7812 12.5625 26.1562C12.6562 26.25 9.28125 25.5 8.90625 25.3125Z" fill="#BD4F53"/>
<path d="M15.2812 23.4375C15.2812 23.4375 20.4375 22.7812 19.875 17.7187C19.875 17.7187 21.2812 16.875 22.4062 17.9062C23.5312 18.9375 25.2188 19.9687 24.5625 23.0625C24.4688 23.0625 15.9375 25.125 15.2812 23.4375ZM7.875 21.5625C7.875 21.5625 7.03125 19.125 7.6875 17.9062C8.34375 16.6875 9.375 15.9375 9.375 15.9375L8.4375 15.1875C8.4375 15.1875 5.34375 17.4375 4.875 19.875L7.875 21.5625Z" fill="#E08484"/>
<path d="M19.875 24.8437C19.875 24.8437 20.1563 25.875 19.875 27.0937H21.4688C21.4688 27.0937 21.1875 24.8437 19.6875 23.0625L19.875 24.8437ZM5.90625 21.75C5.90625 21.75 5.71875 22.5937 6 23.625L4.6875 23.8125C4.6875 23.8125 4.78125 22.7812 5.25 21.6562C5.34375 21.2812 5.90625 21.375 5.90625 21.75Z" fill="#BD4F53"/>
<path d="M12.2812 23.625C12.2812 23.625 16.7812 22.7813 18.9374 24.0938C18.9374 24.0938 19.4999 25.0312 18.9374 25.3125C18.3749 25.5 14.4374 23.625 12.3749 24.2812C12.3749 24.1875 11.9062 23.8125 12.2812 23.625ZM6.1874 21.5625C6.1874 21.5625 9.46865 21.6563 10.7812 22.9688C10.7812 22.9688 11.0624 23.7187 10.5937 23.8125C10.1249 23.9062 7.6874 21.9375 6.09365 22.0312C6.1874 22.0312 5.90615 21.6562 6.1874 21.5625Z" fill="#F4ABAB"/>
<path d="M10.2188 2.71875C10.2188 2.71875 14.0625 0.75 17.25 2.0625C17.25 2.0625 18.1875 3.28125 15.8438 3.5625C13.5 3.84375 13.5938 2.53125 10.2188 2.71875Z" fill="white"/>
<path d="M23.4875 10.1707C23.5045 5.45903 19.6988 1.62562 14.9871 1.60855C10.2754 1.59148 6.44203 5.39721 6.42496 10.1089C6.40788 14.8206 10.2136 18.654 14.9253 18.671C19.637 18.6881 23.4704 14.8824 23.4875 10.1707Z" fill="#8E4028"/>
<path d="M23.0493 9.52658C23.066 4.91846 19.3859 1.16945 14.8295 1.15294C10.2732 1.13643 6.56597 4.85867 6.54928 9.4668C6.53258 14.0749 10.2127 17.8239 14.769 17.8404C19.3254 17.857 23.0326 14.1347 23.0493 9.52658Z" fill="#E8A77B"/>
<path d="M22.984 9.27788C22.9999 4.87686 19.571 1.29666 15.3253 1.28127C11.0796 1.26589 7.6249 4.82115 7.60895 9.22217C7.59301 13.6232 11.0219 17.2034 15.2676 17.2188C19.5133 17.2342 22.968 13.6789 22.984 9.27788Z" fill="#E8BD89"/>
<path d="M18.7252 10.3899C18.7368 7.17973 16.2278 4.56826 13.1212 4.557C10.0146 4.54575 7.4868 7.13897 7.47516 10.3491C7.46353 13.5593 9.9725 16.1707 13.0791 16.182C16.1857 16.1933 18.7135 13.6 18.7252 10.3899Z" fill="#FFDEC2"/>
<path d="M7.12477 8.8125C7.12477 8.8125 7.40602 7.59375 10.2185 7.59375C13.031 7.59375 17.0623 7.875 18.7498 6.09375L18.0935 5.53125C18.0935 5.53125 16.406 6.46875 13.5935 6.46875C10.781 6.46875 7.21852 7.125 6.93727 7.40625C6.74977 7.6875 7.12477 8.8125 7.12477 8.8125Z" fill="#E8A77B"/>
<path d="M15.772 11.0352C15.7738 10.5175 15.4396 10.0965 15.0253 10.095C14.6111 10.0935 14.2738 10.512 14.272 11.0298C14.2701 11.5476 14.6043 11.9685 15.0186 11.97C15.4328 11.9715 15.7701 11.553 15.772 11.0352Z" fill="#8E4028"/>
<path d="M15.3679 10.6449C15.3682 10.5414 15.2846 10.4571 15.181 10.4567C15.0775 10.4564 14.9932 10.54 14.9929 10.6436C14.9925 10.7471 15.0761 10.8314 15.1797 10.8317C15.2832 10.8321 15.3675 10.7485 15.3679 10.6449Z" fill="white"/>
<path d="M9.54637 9.96735C9.54824 9.44958 9.21398 9.02863 8.79976 9.02713C8.38555 9.02563 8.04824 9.44415 8.04637 9.96191C8.04449 10.4797 8.37876 10.9006 8.79297 10.9021C9.20718 10.9036 9.54449 10.4851 9.54637 9.96735Z" fill="#8E4028"/>
<path d="M9.14179 9.67079C9.14217 9.56724 9.05853 9.48299 8.95497 9.48261C8.85142 9.48224 8.76717 9.56588 8.76679 9.66943C8.76642 9.77299 8.85006 9.85724 8.95361 9.85761C9.05717 9.85799 9.14142 9.77435 9.14179 9.67079Z" fill="white"/>
<path d="M19.6877 3.65604C19.6877 3.65604 18.2815 6.74979 14.344 6.46854C10.5002 6.09354 7.59395 6.84354 6.46895 8.43729C6.46895 8.43729 6.28145 2.24979 12.094 1.31229C17.9065 0.374794 19.6877 2.81229 19.6877 3.65604Z" fill="#493426"/>
<path d="M17.25 4.875L17.3437 4.96875C17.9062 5.53125 20.5312 8.4375 20.25 14.1563C20.25 14.1563 20.5312 15.9375 22.875 15.9375C22.875 15.9375 22.6875 14.7188 23.0625 13.875C23.4375 13.0312 24.375 8.625 23.3437 6.28125C22.3125 3.9375 19.5 1.40625 16.0312 1.125" fill="#493426"/>
<path d="M20.0625 10.9687C20.0625 10.9687 21 10.4063 21.4688 10.7813C22.2188 11.5313 21.5625 12.75 20.1563 12.9375L20.0625 10.9687Z" fill="#E8BD89"/>
<path d="M17.9062 6.375C17.9062 6.375 19.7812 8.53125 20.0625 10.9687C20.0625 10.9687 19.875 7.21875 18.0937 5.90625L17.9062 6.375ZM20.7188 12.8437C20.7188 12.8437 20.4375 14.8125 21.75 15.6563C21.75 15.6563 21.0937 15.8438 20.5312 15.0938C19.9687 14.4375 20.1562 12.9375 20.1562 12.9375L20.7188 12.8437Z" fill="#E8A77B"/>
<path d="M12.375 22.2188C12.375 22.2188 11.625 20.8125 12.6562 19.5C12.6562 19.5 11.3438 19.6875 11.25 22.2188C11.25 22.2188 11.9062 22.6875 12.375 22.2188Z" fill="#A85038"/>
<path d="M13.875 14.4375C13.875 14.4375 13.125 14.3437 12.5625 13.875C12 13.4062 11.4375 13.5 11.3438 13.5C11.25 13.5 11.0625 13.3125 10.875 13.2188C10.6875 13.125 10.4062 13.125 10.4062 13.2188C10.4062 13.3125 10.5937 13.7812 10.5937 13.7812V14.3438C10.5937 14.5312 10.5937 15.0938 11.1562 15.1875C11.7187 15.2813 12.1875 15.2813 12.4687 15.0938C12.75 15.0938 13.875 14.4375 13.875 14.4375Z" fill="#A53829"/>
<path d="M19.9688 23.9062C19.9688 23.9062 22.2188 25.875 24.375 24.9375C26.5313 24 20.9063 27.375 20.9063 27.375L19.9688 23.9062Z" fill="#BD4F53"/>
<path d="M16.9689 4.96875C16.9689 4.96875 15.4689 4.78125 15.0001 3.1875C14.5314 1.59375 13.8751 0.1875 11.2501 0.1875C8.62512 0.1875 5.43762 2.15625 6.46887 4.96875C7.50012 7.78125 17.1564 7.78125 16.9689 4.96875Z" fill="#493426"/>
<path d="M16.0314 5.0625C16.0314 5.0625 14.8127 4.875 14.3439 3.65625C13.8752 2.34375 13.5002 1.125 11.2502 1.125C9.00017 1.125 6.46892 2.71875 7.31267 5.0625C8.15642 7.40625 16.2189 7.40625 16.0314 5.0625Z" fill="#604637"/>
<path d="M20.8125 17.3438C20.8125 17.3438 25.875 22.125 22.5937 26.0625C22.5937 26.0625 23.25 27.0937 24.0938 25.5937C24.8438 24.0937 26.25 19.0312 20.8125 17.3438Z" fill="#BD4F53"/>
</g>
<defs>
<clipPath id="clip0_1_18124">
<rect width="30" height="30" fill="white"/>
</clipPath>
</defs>
</svg>
