<svg width="64" height="64" viewBox="0 0 64 64" fill="none" xmlns="http://www.w3.org/2000/svg">
<path d="M37.701 32.278H20.8199C20.1539 32.278 19.614 32.8 19.614 33.444V42.7724C19.614 43.4163 20.1539 43.9384 20.8199 43.9384H37.701C38.367 43.9384 38.9068 43.4163 38.9068 42.7724V33.444C38.9068 32.8 38.367 32.278 37.701 32.278Z" stroke="#213A52" stroke-width="1.94783" stroke-miterlimit="10"/>
<path d="M23.2319 35.7772H35.2899" stroke="#213A52" stroke-width="1.94783" stroke-miterlimit="10" stroke-linecap="round"/>
<path d="M23.239 29.9465C25.9027 29.9465 28.0622 27.8583 28.0622 25.2824C28.0622 22.7064 25.9027 20.6182 23.239 20.6182C20.5752 20.6182 18.4158 22.7064 18.4158 25.2824C18.4158 27.8583 20.5752 29.9465 23.239 29.9465Z" stroke="#213A52" stroke-width="1.94783" stroke-miterlimit="10" stroke-linecap="round"/>
<path d="M33.4839 29.9457C35.1487 29.9457 36.4983 28.6406 36.4983 27.0306C36.4983 25.4206 35.1487 24.1155 33.4839 24.1155C31.819 24.1155 30.4693 25.4206 30.4693 27.0306C30.4693 28.6406 31.819 29.9457 33.4839 29.9457Z" stroke="#213A52" stroke-width="1.94783" stroke-miterlimit="10" stroke-linecap="round"/>
<path d="M38.9121 39.8577L45.0316 42.3239C45.6465 42.5687 46.1469 42.2481 46.1469 41.6067V34.6105C46.1469 33.9692 45.6465 33.6485 45.0316 33.8934L38.9121 36.3595" stroke="#213A52" stroke-width="1.94783" stroke-linecap="round" stroke-linejoin="round"/>
</svg>
