<svg width="30" height="30" viewBox="0 0 30 30" fill="none" xmlns="http://www.w3.org/2000/svg">
<g clip-path="url(#clip0_1_11557)">
<path d="M19.1248 17.0625C20.6248 17.7188 22.031 19.2187 22.4998 21.375C22.9685 23.625 22.3123 26.25 20.906 27.4687C19.9685 28.3125 18.8435 28.5 17.8123 28.5C15.1873 28.5 12.656 27.4688 10.031 26.3438C9.18729 25.9688 8.24979 25.5938 7.49979 24.9375C6.74979 24.2812 6.09354 23.25 5.99979 22.0312C5.81229 20.3437 6.65604 18.6562 7.78104 17.7187C9.65604 16.2187 11.6248 15.6562 13.5935 15.6562C15.3748 15.6562 17.4373 16.4062 19.1248 17.0625Z" fill="#3E2470"/>
<path d="M18.8436 17.5313C20.2499 18.0938 21.5624 19.3125 22.0311 21.1875C22.4999 23.0625 21.8436 25.3125 20.5311 26.3438C19.6874 27 18.6561 27.1875 17.6249 27.1875C15.1874 27.1875 12.7499 26.25 10.3124 25.4063C9.46862 25.125 8.71862 24.75 7.96862 24.1875C7.21862 23.625 6.65612 22.6875 6.56237 21.6563C6.37487 20.1563 7.21862 18.75 8.24987 18C10.0311 16.7813 11.9061 16.2188 13.7811 16.2188C15.2811 16.4062 17.3436 16.9688 18.8436 17.5313Z" fill="#8980F9"/>
<path d="M17.0625 18.2813C18 18.8438 18.8438 19.875 18.9375 21.0938C19.0313 22.4063 18.2812 23.7188 17.1562 24.2813C16.4062 24.6563 15.6562 24.5625 14.9062 24.4688C13.125 24.0938 11.4375 23.25 9.75 22.3125C9.1875 22.0313 8.625 21.6563 8.15625 21.1875C7.6875 20.7188 7.40625 20.0625 7.40625 19.3125C7.5 18.375 8.25 17.5313 9.09375 17.1563C10.5937 16.5938 12 16.5 13.3125 16.7813C14.625 17.0625 16.0313 17.7188 17.0625 18.2813Z" fill="#E5A98C"/>
<path d="M16.5001 18.375C17.3439 18.8438 18.0001 19.6875 18.0939 20.7188C18.1876 21.75 17.5314 22.9688 16.6876 23.3438C16.1251 23.625 15.4689 23.625 14.8126 23.4375C13.3126 23.1563 11.9064 22.4063 10.5939 21.6563C10.1251 21.375 9.65635 21.0938 9.28135 20.7188C8.90635 20.3438 8.6251 19.7813 8.71885 19.2188C8.8126 18.375 9.3751 17.7188 10.1251 17.4375C11.3439 16.9688 12.4689 16.875 13.6876 17.1562C14.4376 17.3437 15.5626 17.9063 16.5001 18.375Z" fill="#FAEACF"/>
<path opacity="0.6" d="M8.53125 17.3438C8.53125 17.3438 9.75 20.625 11.1562 21C12.5625 21.2812 15.1875 21.8438 18.375 18.375L8.53125 17.3438Z" fill="#3E2470"/>
<path opacity="0.28" d="M19.9241 23.6C20.3719 21.844 19.8401 20.1923 18.7364 19.9108C17.6326 19.6294 16.3748 20.8247 15.927 22.5807C15.4792 24.3367 16.011 25.9884 17.1148 26.2699C18.2185 26.5514 19.4763 25.356 19.9241 23.6Z" fill="white"/>
<path d="M23.0625 11.5313C25.03 11.5313 26.625 9.93626 26.625 7.96875C26.625 6.00124 25.03 4.40625 23.0625 4.40625C21.095 4.40625 19.5 6.00124 19.5 7.96875C19.5 9.93626 21.095 11.5313 23.0625 11.5313Z" fill="#3E2470"/>
<path d="M22.5938 10.9688C24.1988 10.9688 25.5 9.66758 25.5 8.0625C25.5 6.45742 24.1988 5.15625 22.5938 5.15625C20.9887 5.15625 19.6875 6.45742 19.6875 8.0625C19.6875 9.66758 20.9887 10.9688 22.5938 10.9688Z" fill="#5D44CC"/>
<path d="M9.09375 7.59375C11.0613 7.59375 12.6562 5.99876 12.6562 4.03125C12.6562 2.06374 11.0613 0.46875 9.09375 0.46875C7.12624 0.46875 5.53125 2.06374 5.53125 4.03125C5.53125 5.99876 7.12624 7.59375 9.09375 7.59375Z" fill="#3E2470"/>
<path d="M9.1875 9C10.7926 9 12.0938 7.69883 12.0938 6.09375C12.0938 4.48867 10.7926 3.1875 9.1875 3.1875C7.58242 3.1875 6.28125 4.48867 6.28125 6.09375C6.28125 7.69883 7.58242 9 9.1875 9Z" fill="#5D44CC"/>
<path d="M17.1562 0.375C17.1562 0.375 22.125 0.46875 24.1875 5.53125L21.5625 5.15625L17.1562 0.375Z" fill="#3E2470"/>
<path d="M10.0312 1.78125C10.0312 1.78125 4.12491 5.15625 7.59366 11.9062C11.0624 18.6562 21.7499 14.0625 22.5937 12.8438C23.4374 11.625 26.0624 6.84375 23.2499 4.6875C20.4374 2.53125 10.0312 1.78125 10.0312 1.78125Z" fill="#5D44CC"/>
<path d="M7.50019 6.93745C7.50019 6.93745 6.09394 16.6875 10.1252 19.2187C14.1564 21.75 18.8439 21.6562 23.3439 11.0625C23.3439 11.0625 23.6252 5.43745 17.6252 4.4062C12.0002 3.56245 7.59394 5.81245 7.50019 6.93745Z" fill="#BC7458"/>
<path d="M7.87522 7.21876C7.87522 7.21876 6.56272 16.3125 10.219 18.6563C13.969 21 18.3752 20.9063 22.5002 11.0625C22.5002 11.0625 22.6877 5.90626 17.2502 4.96876C12.094 4.12501 7.96897 6.28126 7.87522 7.21876Z" fill="#E5A98C"/>
<path d="M7.96881 7.78127C7.96881 7.78127 6.75006 15.9375 10.2188 18.0938C13.7813 20.25 17.8126 20.0625 21.4688 11.3438C21.4688 11.3438 21.5626 6.75002 16.5938 5.90627C11.8126 4.96877 8.06256 6.84377 7.96881 7.78127Z" fill="#E8CCAA"/>
<path d="M8.06226 8.3437C8.06226 8.3437 6.93726 15.9374 10.1248 17.9062C13.3123 19.8749 17.0623 19.6874 20.4373 11.5312C20.4373 11.5312 20.531 7.31245 15.9373 6.4687C11.531 5.7187 8.15601 7.49995 8.06226 8.3437Z" fill="#FAEACF"/>
<path d="M19.7814 9.84376C19.4064 9.56251 18.9376 9.28126 18.3751 9.18751C17.1564 8.90626 16.0314 9.56251 15.8439 10.5938L15.5626 12.375C15.4689 13.2188 16.1251 13.9688 16.9689 14.3438C17.9064 14.7188 19.0314 14.3438 19.5001 13.5938C19.7814 13.125 20.0626 12.5625 20.3439 11.9063C20.6251 11.0625 20.4376 10.3125 19.7814 9.84376Z" fill="#3C505B"/>
<path d="M19.4999 10.3125C19.2187 10.0312 18.7499 9.74999 18.1874 9.65624C17.0624 9.37499 15.9374 10.125 15.6562 11.25L15.3749 13.125C15.2812 14.0625 15.8437 14.9062 16.6874 15.1875C17.6249 15.4687 18.6562 15.0937 19.1249 14.25C19.4062 13.7812 19.7812 13.125 19.9687 12.375C20.3437 11.7187 20.1562 10.875 19.4999 10.3125Z" fill="white"/>
<path d="M16.4063 11.25C17.0626 10.2188 18.0938 9.75003 18.7501 10.3125C19.5001 10.875 19.5938 12.375 19.0313 13.5938C18.3751 15 17.1563 15.4688 16.4063 14.7188C15.6563 13.9688 15.7501 12.4688 16.4063 11.25Z" fill="#A075D1"/>
<path d="M16.5939 11.25C17.0627 10.5 17.8127 10.2187 18.3752 10.5937C18.9377 11.0625 19.0314 12.0937 18.6564 13.0312C18.1877 14.0625 17.2502 14.4375 16.6877 13.875C16.0314 13.2187 16.0314 12.0937 16.5939 11.25Z" fill="#3C505B"/>
<path d="M17.3436 11.8125C17.5311 11.5313 17.9999 11.4375 18.2811 11.625C18.5624 11.8125 18.7499 12.2813 18.4686 12.6563C18.2811 13.125 17.7186 13.2188 17.4374 12.9375C17.1561 12.6563 17.0624 12.1875 17.3436 11.8125Z" fill="white"/>
<path d="M11.9064 8.43756C11.5314 8.25006 11.0626 8.06256 10.5001 8.06256C9.37513 7.96881 8.43763 8.81256 8.53138 9.75006C8.53138 10.2188 8.62513 10.7813 8.62513 11.3438C8.71888 12.0938 9.37513 12.7501 10.3126 12.8438C11.2501 13.0313 12.0939 12.5626 12.3751 11.7188C12.5626 11.2501 12.6564 10.6876 12.7501 10.0313C12.9376 9.46881 12.5626 8.81256 11.9064 8.43756Z" fill="#3C505B"/>
<path d="M11.9062 9C11.5312 8.8125 11.0625 8.625 10.5 8.53125C9.375 8.53125 8.53125 9.375 8.53125 10.5L8.625 12.375C8.71875 13.2187 9.375 13.9688 10.2187 14.1562C11.1562 14.3438 12 13.7812 12.2812 12.8437C12.4688 12.2812 12.6562 11.625 12.6562 10.875C12.9375 10.2188 12.5625 9.375 11.9062 9Z" fill="white"/>
<path d="M9.09383 10.3125C9.46883 9.18747 10.3126 8.62497 11.0626 8.99997C11.8126 9.37497 12.2813 10.7812 12.0001 12.0937C11.7188 13.5 10.5938 14.25 9.75008 13.5937C8.90633 13.0312 8.71883 11.5312 9.09383 10.3125Z" fill="#A075D1"/>
<path d="M9.28135 10.4063C9.5626 9.56255 10.2188 9.18755 10.7813 9.4688C11.3438 9.75005 11.7188 10.7813 11.5313 11.7188C11.2501 12.7501 10.5001 13.3126 9.84385 12.8438C9.1876 12.3751 9.0001 11.2501 9.28135 10.4063Z" fill="#3C505B"/>
<path d="M10.219 10.7812C10.4065 10.4062 10.6877 10.3125 11.0627 10.4063C11.4377 10.5 11.6252 10.9688 11.5315 11.3438C11.4377 11.8125 10.969 12 10.594 11.8125C10.1252 11.625 10.0315 11.1562 10.219 10.7812Z" fill="white"/>
<path d="M9.09365 7.3125C9.09365 7.3125 12.9374 7.875 13.1249 7.59375C13.3124 7.40625 13.5936 6.65625 13.1249 6.46875C12.5624 6.28125 9.1874 6.28125 9.1874 6.28125C9.1874 6.28125 8.71865 6.65625 9.09365 7.3125ZM16.6874 8.0625C16.6874 8.0625 20.2499 9.65625 20.5311 9.46875C20.8124 9.28125 21.2811 8.71875 20.8124 8.34375C20.3436 7.96875 16.9686 7.03125 16.9686 7.03125C16.9686 7.03125 16.4061 7.3125 16.6874 8.0625Z" fill="#A67A65"/>
<path d="M10.0312 18.1875L7.6875 11.9062C7.78125 11.9062 7.59375 16.4062 10.0312 18.1875Z" fill="#E5A98C"/>
<path d="M15.1875 19.0312L19.5 13.875C19.5 13.875 18.0938 18.1875 15.1875 19.0312Z" fill="#E8CCAA"/>
<path d="M21.6562 12.2813C21.6562 12.2813 22.5937 11.625 23.3437 12.375C24.0937 13.125 22.9688 16.4063 20.3438 15.9375L21.6562 12.2813Z" fill="#BC7458"/>
<path d="M17.4373 0.375C17.4373 0.375 21.8435 1.78125 23.3435 5.34375C24.9373 9.1875 21.656 13.875 21.656 13.875C21.656 13.875 20.6248 8.0625 19.5935 7.21875C18.4685 6.375 15.8435 4.6875 17.4373 0.375Z" fill="#5D44CC"/>
<path d="M18.2811 2.53125C18.2811 2.53125 17.5311 5.71875 15.3748 6C13.2186 6.28125 8.43734 6.28125 7.40609 9.09375C7.40609 9.09375 6.74984 6.46875 7.87484 3.65625C8.99984 0.84375 14.5311 -0.9375 17.8123 0.5625C21.0936 2.0625 18.0936 2.53125 18.0936 2.53125" fill="#5D44CC"/>
<path d="M21.4687 12.4688C21.4687 12.4688 22.125 12 22.6875 12.5625C23.25 13.125 22.4062 15.4688 20.5312 15.1875L21.4687 12.4688Z" fill="#E5A98C"/>
<path d="M7.9686 6.9375C7.9686 6.9375 6.18735 6.65625 6.2811 4.6875C6.2811 4.6875 5.9061 7.875 7.7811 10.0312C7.68735 10.0312 7.7811 8.15625 7.9686 6.9375ZM22.6874 4.3125C22.6874 4.3125 24.1873 6.375 23.3436 8.8125C22.4998 11.25 21.3748 12.1875 21.3748 12.1875C21.3748 12.1875 22.2186 12.75 22.0311 13.5C22.0311 13.5 24.0936 11.3438 24.4686 8.8125C24.8436 6.28125 24.1873 5.0625 22.7811 4.40625" fill="#3E2470"/>
<path d="M16.0312 1.31248C16.0312 1.31248 11.25 0.468732 8.4375 4.49998C8.4375 4.49998 7.6875 4.96873 7.59375 6.65623C7.59375 6.65623 8.0625 5.24998 8.8125 4.96873C9.5625 4.78123 13.9688 3.74998 15.0938 2.99998C16.2188 2.24998 16.5938 1.87498 16.0312 1.31248ZM19.125 2.53123C19.125 2.53123 19.2188 4.49998 21.0938 6.09373C22.9688 7.68748 22.4062 4.96873 19.125 2.53123Z" fill="#8980F9"/>
<path d="M15.0937 17.25C15.0937 17.25 12.9375 16.5938 10.9687 15.75C10.9687 15.75 10.7812 18 12.0937 18.6563C13.5 19.2188 15.0937 17.25 15.0937 17.25Z" fill="#BC7458"/>
<path d="M17.625 18.6562L16.5938 21L25.5 25.7813L26.4375 23.625L17.625 18.6562Z" fill="#AA5D18"/>
<path d="M18.0939 26.5313L17.6251 19.1251C17.5314 18.2813 18.6564 17.9063 19.2189 18.1876L25.8751 21.5626C26.8126 22.0313 27.0001 23.6251 25.9689 24.1876L19.2189 27.5626C18.7501 27.8438 18.0939 27.2813 18.0939 26.5313Z" fill="#AA5D18"/>
<path d="M16.8752 29.0626L16.4065 21.7501C16.3127 20.9064 16.969 20.1564 17.5315 20.4376L24.844 24.0939C25.8752 24.5626 25.7815 25.9689 24.7502 26.5314L18.3752 29.8126C17.9065 30.1876 16.969 29.8126 16.8752 29.0626Z" fill="#AA5D18"/>
<path d="M17.4375 28.3126L17.0625 21.9376C16.9688 21.1876 17.5313 20.5313 18.0938 20.8126L24.4688 24.0001C25.3125 24.3751 25.3125 25.5938 24.375 26.0626L18.4688 29.1563C18 29.3438 17.4375 28.8751 17.4375 28.3126Z" fill="#D98521"/>
<path d="M24.5625 23.3437H25.9688L24.9375 25.5937L17.0625 21.375L18 19.3125L24.5625 23.3437Z" fill="#D98521"/>
<path d="M18.375 26.3438L18 19.9688C17.9062 19.2188 18.4687 18.4688 19.2187 18.8438L25.5 22.0313C26.3437 22.5 26.3437 23.7188 25.4062 24.1875L19.4062 27.1875C18.9375 27.375 18.375 26.9063 18.375 26.3438Z" fill="#FFE9BD"/>
<path d="M18.5625 25.9687L18.1875 19.875C18.1875 19.125 18.6562 18.5625 19.125 18.75L25.2188 21.8437C26.0625 22.2187 25.9687 23.4375 25.125 23.9062L19.5 26.8125C19.125 27 18.6562 26.5312 18.5625 25.9687Z" fill="url(#paint0_linear_1_11557)"/>
<path d="M23.9062 21.1875L24.1875 24.5625L25.4063 23.9063L25.125 21.8437L23.9062 21.1875ZM21.5625 20.0625L22.125 25.6875L23.25 25.0313L22.875 20.7188L21.5625 20.0625Z" fill="#FFE9BD"/>
<path d="M16.7812 21.0938L17.0625 24L18.1875 23.0625L18 19.875C18 19.875 18 19.5 18.1875 19.2188L16.7812 21.0938Z" fill="url(#paint1_linear_1_11557)"/>
<path d="M22.875 25.4063L22.2188 27.5625L24.9375 26.0625L26.0625 23.3438C26.0625 23.3438 25.7812 23.7188 25.5 24C25.5 24 25.2187 24.1875 24.9375 24.2812L22.875 25.4063Z" fill="url(#paint2_linear_1_11557)"/>
<path opacity="0.2" d="M18.9375 27.0938L18.0938 29.1563C18.0938 29.1563 17.8125 29.0625 17.625 28.7813L18.6563 26.625L18.9375 27.0938Z" fill="#FFE9BD"/>
</g>
<defs>
<linearGradient id="paint0_linear_1_11557" x1="18.6631" y1="27.2995" x2="22.6312" y2="20.1182" gradientUnits="userSpaceOnUse">
<stop stop-color="#FFB554"/>
<stop offset="1" stop-color="#FFEA61"/>
</linearGradient>
<linearGradient id="paint1_linear_1_11557" x1="17.3558" y1="20.4057" x2="17.6518" y2="22.8487" gradientUnits="userSpaceOnUse">
<stop stop-color="#AA5D18"/>
<stop offset="1" stop-color="#AA5D18" stop-opacity="0"/>
</linearGradient>
<linearGradient id="paint2_linear_1_11557" x1="26.0016" y1="24.3161" x2="23.3617" y2="25.9838" gradientUnits="userSpaceOnUse">
<stop stop-color="#AA5D18"/>
<stop offset="1" stop-color="#AA5D18" stop-opacity="0"/>
</linearGradient>
<clipPath id="clip0_1_11557">
<rect width="30" height="30" fill="white"/>
</clipPath>
</defs>
</svg>
