<svg width="30" height="30" viewBox="0 0 30 30" fill="none" xmlns="http://www.w3.org/2000/svg">
<g clip-path="url(#clip0_1_8275)">
<path d="M11.25 28.6876C11.25 28.6876 16.6875 30.6563 22.4063 28.3126C22.875 28.1251 23.0625 27.6563 22.875 27.1876C22.5938 26.4376 22.125 25.2188 22.125 24.1876C22.125 22.6876 22.125 20.1563 24.4688 17.9063C26.8125 15.6563 28.4063 8.90635 24 5.0626C19.5938 1.21885 12.375 2.0626 9.93754 3.7501C7.50004 5.4376 4.78129 7.78135 5.43754 12.0938C5.43754 12.0938 5.62504 13.0313 5.43754 13.3126C5.25004 13.6876 3.28128 16.5938 3.18753 16.8751C3.09378 17.0626 2.81253 17.9063 3.28128 18.0938C3.75003 18.2813 5.15628 18.7501 5.25003 19.6876C5.34378 20.6251 5.34378 22.1251 5.34378 22.7813C5.34378 23.4376 5.06253 24.8438 6.65628 25.0313C8.25003 25.2188 10.2188 24.3751 10.6875 25.9688C10.6875 25.9688 10.7813 27.1876 10.6875 27.7501C10.5938 28.1251 10.7813 28.4063 11.0625 28.5938L11.25 28.6876Z" fill="#2590BA" stroke="#2590BA" stroke-width="1.12256" stroke-miterlimit="10"/>
<path d="M11.3438 26.8126C11.3438 26.8126 16.7813 28.7813 22.5 26.4376C22.9688 26.2501 23.1563 25.7813 22.9688 25.3126C22.6875 24.5626 22.2188 23.3438 22.2188 22.3126C22.2188 20.8126 22.2188 18.2813 24.5625 16.0313C26.9063 13.7813 28.5 7.03135 24.0938 3.1876C19.6875 -0.656151 12.4688 0.187599 10.0313 1.8751C7.59378 3.5626 4.87504 6.0001 5.53129 10.3126C5.53129 10.3126 5.71879 11.2501 5.53129 11.5313C5.34379 11.9063 3.37503 14.8126 3.28128 15.0938C3.18753 15.2813 2.90628 16.1251 3.37503 16.3126C3.84378 16.5001 5.25003 16.9688 5.34378 17.9063C5.43753 18.8438 5.43754 20.3438 5.43754 21.0001C5.43754 21.6563 5.15628 23.0626 6.75003 23.2501C8.34378 23.3438 10.3125 22.5938 10.7813 24.1876C10.7813 24.1876 10.875 25.4063 10.7813 25.9688C10.6875 26.3438 10.875 26.6251 11.1563 26.8126H11.3438Z" fill="#94BECE" stroke="#457087" stroke-width="1.12256" stroke-miterlimit="10"/>
<path d="M11.4375 26.3437C11.4375 26.3437 16.6875 28.2187 22.2188 25.9687C22.5938 25.7812 22.875 25.3125 22.6875 24.9375C22.4063 24.1875 21.9375 22.9687 21.9375 22.125C21.9375 20.625 21.9375 18.2812 24.1875 16.0312C26.4375 13.7812 28.0313 7.31249 23.7188 3.65624C19.4063 -1.41859e-05 12.5625 0.749986 10.125 2.43749C7.68754 4.12499 5.15628 6.28124 5.81253 10.5C5.81253 10.5 6.00003 11.3437 5.81253 11.7187L3.65628 15C3.56253 15.1875 3.28128 16.0312 3.75003 16.2187C4.21878 16.4062 5.53129 16.7812 5.62504 17.7187C5.71879 18.6562 5.71878 20.0625 5.71878 20.625C5.71878 21.1875 5.43753 22.6875 7.03129 22.7812C8.62503 22.875 10.5 22.125 10.9688 23.7187C10.9688 23.7187 11.0625 24.8437 10.9688 25.4062C10.875 25.7812 11.0625 26.0625 11.3438 26.25L11.4375 26.3437Z" fill="#94BECE"/>
<g opacity="0.84">
<path d="M11.8125 25.2187C11.8125 25.2187 16.5 26.9062 21.5625 24.8437C21.9375 24.6562 22.125 24.2812 21.9375 23.9062C21.6563 23.25 21.2813 22.125 21.2813 21.375C21.2813 20.0625 21.2813 17.9062 23.3438 15.8437C25.4063 13.7812 26.8125 7.96871 22.875 4.68746C18.9375 1.40621 12.8438 2.06246 10.5938 3.56246C8.34379 5.06246 6.18754 7.03121 6.65629 10.7812C6.65629 10.7812 6.84379 11.5312 6.65629 11.9062C6.46879 12.2812 4.78128 14.8125 4.68753 15C4.59378 15.1875 4.31253 15.8437 4.78128 16.0312C5.25003 16.2187 6.37504 16.5937 6.46879 17.4375C6.56254 18.2812 6.56254 19.5937 6.56254 20.0625C6.56254 20.625 6.37504 21.9375 7.68754 22.0312C9.00004 22.125 10.7813 21.4687 11.25 22.875C11.25 22.875 11.3438 23.9062 11.25 24.4687C11.1563 24.75 11.3438 25.0312 11.625 25.2187H11.8125Z" fill="url(#paint0_linear_1_8275)"/>
</g>
<path d="M17.7188 16.0311C17.7188 16.0311 19.5938 17.5311 21.4688 15.8436L21.8438 15.1874C21.8438 15.1874 23.7188 15.0936 23.8125 12.9374C23.8125 12.9374 25.5938 11.7186 24.75 9.74989C24.75 9.74989 24.75 8.90614 23.7188 8.62489C23.7188 8.62489 24.2812 7.31239 23.25 6.09364C22.2188 4.87489 21.5625 5.15614 21.5625 5.15614C21.5625 5.15614 21.6563 4.31239 21.0938 3.84364C20.5313 3.37489 19.5 2.81239 18 3.46864C18 3.46864 16.7812 2.24989 14.9062 2.71864C13.0312 3.18739 12.8438 4.12489 12.8438 4.12489C12.8438 4.12489 12.5625 3.56239 11.3438 3.93739C10.125 4.21864 9.65625 5.24989 9.65625 5.99989C9.65625 5.99989 8.0625 6.18739 7.96875 7.59364C7.96875 8.99989 9.375 9.65614 9.375 9.65614C9.375 9.65614 9.5625 11.3436 10.5938 11.7186C11.625 12.0936 12.5625 11.9999 12.5625 11.9999C12.5625 11.9999 12.0938 13.9686 14.1563 14.4374C14.1563 14.4374 14.4375 15.2811 15.5625 15.4686C16.6875 15.6561 17.7188 16.0311 17.7188 16.0311Z" fill="#2CA0CE"/>
<path d="M13.4063 8.25C14.1311 8.25 14.7188 7.66237 14.7188 6.9375C14.7188 6.21263 14.1311 5.625 13.4063 5.625C12.6814 5.625 12.0938 6.21263 12.0938 6.9375C12.0938 7.66237 12.6814 8.25 13.4063 8.25Z" fill="#2CA0CE" stroke="#EBF4F6" stroke-width="0.518156"/>
<path d="M17.4375 7.21875C18.1624 7.21875 18.75 6.63112 18.75 5.90625C18.75 5.18138 18.1624 4.59375 17.4375 4.59375C16.7126 4.59375 16.125 5.18138 16.125 5.90625C16.125 6.63112 16.7126 7.21875 17.4375 7.21875Z" fill="#2CA0CE" stroke="#EBF4F6" stroke-width="0.518156"/>
<path d="M20.4375 9.9375C21.1624 9.9375 21.75 9.34987 21.75 8.625C21.75 7.90013 21.1624 7.3125 20.4375 7.3125C19.7126 7.3125 19.125 7.90013 19.125 8.625C19.125 9.34987 19.7126 9.9375 20.4375 9.9375Z" fill="#2CA0CE" stroke="#EBF4F6" stroke-width="0.518156"/>
<path d="M18.5625 13.0312C19.2874 13.0312 19.875 12.4436 19.875 11.7187C19.875 10.9939 19.2874 10.4062 18.5625 10.4062C17.8376 10.4062 17.25 10.9939 17.25 11.7187C17.25 12.4436 17.8376 13.0312 18.5625 13.0312Z" fill="#2CA0CE" stroke="#EBF5F6" stroke-width="0.518156"/>
<path d="M15.1875 13.5938C15.9124 13.5938 16.5 13.0061 16.5 12.2813C16.5 11.5564 15.9124 10.9688 15.1875 10.9688C14.4626 10.9688 13.875 11.5564 13.875 12.2813C13.875 13.0061 14.4626 13.5938 15.1875 13.5938Z" fill="#2CA0CE" stroke="#EBF5F6" stroke-width="0.518156"/>
<path d="M8.90625 9.84375H10.3125L12.375 7.6875" fill="#2CA0CE"/>
<path d="M8.90625 9.84375H10.3125L12.375 7.6875" stroke="#EBF4F6" stroke-width="0.518156" stroke-miterlimit="10"/>
<path d="M17.25 7.125L15.1875 9.84375H10.125M14.0625 13.2188L13.0312 14.5313L14.0625 13.2188ZM21.0938 9.75L22.5 11.0625H25.0313M19.4063 12.8438L20.8125 14.1563L20.7188 17.3438" fill="#2CA0CE"/>
<path d="M17.25 7.125L15.1875 9.84375H10.125M14.0625 13.2188L13.0312 14.5313M21.0937 9.75L22.5 11.0625H25.0313M19.4063 12.8438L20.8125 14.1563L20.7188 17.3438" stroke="#EBF4F6" stroke-width="0.518156" stroke-miterlimit="10"/>
<path d="M17.1562 15.2811V16.4061C17.1562 17.0624 17.5312 17.5311 18.0938 17.8124C19.0312 18.0936 19.9688 17.4374 19.9688 16.4061V15.2811C19.9688 14.5311 19.4062 13.8749 18.5625 13.8749C17.8125 13.7811 17.1562 14.4374 17.1562 15.2811Z" fill="#2CA0CE"/>
</g>
<defs>
<linearGradient id="paint0_linear_1_8275" x1="4.59885" y1="14.0861" x2="25.3334" y2="14.0861" gradientUnits="userSpaceOnUse">
<stop stop-color="white"/>
<stop offset="1" stop-color="#B9DAE4"/>
</linearGradient>
<clipPath id="clip0_1_8275">
<rect width="30" height="30" fill="white"/>
</clipPath>
</defs>
</svg>
