<svg width="30" height="30" viewBox="0 0 30 30" fill="none" xmlns="http://www.w3.org/2000/svg">
<g clip-path="url(#clip0_1_7414)">
<path d="M3.37507 14.25C3.37507 14.25 -0.0936836 11.3438 2.25007 6.46875L5.71882 8.34375L3.37507 14.25ZM17.8126 5.53125C17.8126 5.53125 17.0626 10.5 21.2813 12.6562C25.5001 14.8125 24.2813 19.9688 23.5313 24.5625C23.5313 24.5625 34.7813 14.5312 24.7501 3.84375C24.7501 3.84375 17.9063 4.5 17.8126 5.53125Z" fill="#993A6E"/>
<path d="M2.53122 10.2188C2.53122 10.2188 1.96872 25.4063 9.18747 28.4063C16.7812 31.5938 24.5625 29.7188 27.4687 12C27.4687 12 25.7812 4.40626 16.9687 4.50001C8.53122 4.68751 2.43747 8.71876 2.53122 10.2188Z" fill="#BC7458"/>
<path d="M3.18732 10.5937C3.18732 10.5937 2.71857 24.6562 9.37482 27.4687C16.4061 30.375 23.6248 28.6875 26.2498 12.2812C26.2498 12.2812 24.6561 5.24995 16.4998 5.3437C8.81232 5.3437 3.09357 9.18745 3.18732 10.5937Z" fill="#E5A98C"/>
<path d="M3.37509 11.25C3.37509 11.25 2.90634 24 9.18759 26.4375C15.6563 29.0625 22.4063 27.4688 24.8438 12.75C24.8438 12.75 23.3438 6.46875 15.8438 6.46875C8.62509 6.5625 3.37509 9.9375 3.37509 11.25Z" fill="#E8CCAA"/>
<path d="M3.56266 12.0938C3.56266 12.0938 3.18766 24 8.90641 26.3438C14.9064 28.7813 21.0002 27.2813 23.2502 13.5C23.2502 13.5 21.9377 7.59376 15.0002 7.68751C8.34391 7.68751 3.56266 10.875 3.56266 12.0938Z" fill="#FAEACF"/>
<path d="M2.625 10.5937C2.625 10.5937 4.21875 13.2187 8.0625 12.2812C12 11.4374 21.9375 4.31244 21.9375 4.31244C21.9375 4.31244 17.4375 0.562439 9.28125 3.09369C5.0625 4.40619 2.8125 9.46869 2.625 10.5937Z" fill="#993A6E"/>
<path d="M9.46863 5.8125C8.34363 6.65625 7.03113 9.5625 5.71863 10.875C4.49988 12.1875 2.34363 11.4375 2.15613 9.65625C1.87488 7.78125 0.187383 4.78125 2.62488 0.09375C2.62488 0.09375 6.93738 -0.65625 9.84363 3C10.5936 3.84375 10.4061 5.15625 9.46863 5.8125ZM20.5311 6.46875C21.7499 7.125 23.4374 8.25 24.9374 9.375C26.2499 10.5 28.3124 9.5625 28.4061 7.78125C28.4061 5.8125 28.0311 3.1875 26.7186 -0.09375C26.7186 -0.09375 22.4061 -0.375 19.8749 3.5625C19.2186 4.6875 19.4999 5.90625 20.5311 6.46875Z" fill="#D8649E"/>
<path d="M3.28125 11.25C3.28125 11.25 4.875 13.875 8.71875 12.9375C12.6562 12.0937 22.5938 4.9687 22.5938 4.9687C22.5938 4.9687 18 1.31245 9.9375 3.8437C5.625 5.1562 3.375 10.2187 3.28125 11.25Z" fill="#D8649E"/>
<path d="M16.8748 5.24997C16.8748 5.24997 16.1248 10.2187 20.3436 12.375C24.5623 14.5312 24.5623 19.2187 23.7186 23.8125C23.7186 23.8125 32.7186 12.9375 23.7186 3.65622C23.7186 3.56247 16.9686 4.21872 16.8748 5.24997Z" fill="#D8649E"/>
<path d="M21.2814 6.09376L24.5627 8.25001C25.5939 9.09376 27.0939 8.34376 27.0939 7.03126C27.0939 5.62501 26.8127 3.65626 25.7814 1.12501C25.7814 1.12501 22.5002 0.937508 20.7189 3.84376C20.2502 4.68751 20.5314 5.62501 21.2814 6.09376Z" fill="#FFD4F7"/>
<path d="M21.4686 6.56246C22.1248 6.93746 23.0623 7.59371 23.8123 8.24996C24.5623 8.90621 25.5936 8.34371 25.5936 7.40621C25.5936 6.37496 25.4061 4.87496 24.6561 3.09371C24.6561 3.09371 22.4061 2.90621 21.0936 5.06246C20.8123 5.53121 20.9998 6.18746 21.4686 6.56246Z" fill="#BF6A93"/>
<path d="M8.53141 5.53122C7.68766 6.09372 6.56266 7.03122 5.62516 7.96872C4.78141 8.90622 3.18766 8.43747 3.09391 7.12497C2.90641 5.81247 2.90641 3.84372 3.65641 1.40622C3.65641 1.40622 6.75016 0.843716 8.81266 3.46872C9.37516 4.12497 9.18766 5.06247 8.53141 5.53122Z" fill="#FFD4F7"/>
<path d="M8.4375 6L6.28125 7.875C5.625 8.625 4.5 8.15625 4.40625 7.21875C4.40625 6.1875 4.40625 4.78125 4.96875 2.90625C4.96875 2.90625 7.21875 2.4375 8.71875 4.5C9.09375 4.875 9 5.625 8.4375 6Z" fill="#BF6A93"/>
<path d="M6.1875 10.5938C6.75 10.3125 7.5 10.2188 8.34375 10.2188C10.0312 10.3125 11.4375 11.5312 11.25 13.0312L10.875 15.5625C10.5938 16.7813 9.46875 17.625 8.0625 17.7188H7.96875C6.5625 17.8125 5.25 16.875 4.875 15.6563C4.6875 14.9063 4.5 13.9688 4.5 13.0312C4.5 12 5.15625 11.0625 6.1875 10.5938Z" fill="#3C505B"/>
<path d="M6.28125 11.3438C6.84375 11.0625 7.5 10.875 8.34375 10.875C10.0312 10.9688 11.25 12.375 11.1562 13.9687L10.7812 16.7812C10.5 18.0937 9.46875 19.125 8.15625 19.2188H8.0625C6.65625 19.3125 5.34375 18.375 5.0625 16.9688C4.875 16.125 4.6875 15.0937 4.6875 14.0625C4.6875 12.9375 5.34375 11.9062 6.28125 11.3438Z" fill="white"/>
<path d="M10.5001 14.1563C10.0313 12.4688 8.8126 11.5313 7.6876 12.0001C6.46885 12.4688 5.6251 14.4376 5.90635 16.4063C6.1876 18.6563 7.6876 19.8751 9.09385 19.0313C10.4063 18.1876 10.9688 15.9376 10.5001 14.1563Z" fill="#D8649E"/>
<path d="M9.93727 13.7813C9.56227 12.5625 8.62477 11.9063 7.78102 12.1875C6.84352 12.5625 6.18727 13.9688 6.46852 15.375C6.74977 16.9688 7.87477 17.9063 8.90602 17.25C9.93727 16.7813 10.3123 15.0938 9.93727 13.7813Z" fill="#3C505B"/>
<path d="M8.62481 14.25C8.43731 13.6875 7.96856 13.4062 7.49981 13.5937C7.03106 13.7812 6.65606 14.3437 6.74981 15C6.84356 15.6562 7.49981 16.0312 8.06231 15.8437C8.62481 15.4687 8.90606 14.8125 8.62481 14.25Z" fill="white"/>
<path d="M20.7188 11.8125C20.1563 11.5312 19.5 11.25 18.6562 11.25C16.9687 11.1562 15.5625 12.2812 15.4688 13.7812L15.5625 16.3125C15.75 17.5312 16.7812 18.4687 18.0937 18.6562H18.1875C19.6875 18.8437 21.0937 18.0937 21.4687 16.875C21.75 16.125 21.9375 15.2812 22.125 14.3437C22.2188 13.3125 21.6563 12.375 20.7188 11.8125Z" fill="#3C505B"/>
<path d="M20.4375 12.5625C19.9687 12.2812 19.2188 12 18.4688 12C16.875 11.9062 15.4688 13.2187 15.4688 14.8125L15.5625 17.625C15.6563 18.9375 16.6875 20.0625 18 20.25H18.0937C19.5 20.4375 20.8125 19.5937 21.2813 18.2812C21.5625 17.5312 21.75 16.5 21.9375 15.4687C21.9375 14.25 21.4687 13.125 20.4375 12.5625Z" fill="white"/>
<path d="M16.1252 14.9062C16.6877 13.3125 18.0002 12.4687 19.0314 13.0312C20.1564 13.5937 20.8127 15.5625 20.3439 17.5312C19.8752 19.6875 18.2814 20.8125 16.9689 19.875C15.8439 18.9375 15.4689 16.6875 16.1252 14.9062Z" fill="#D8649E"/>
<path d="M16.6875 14.625C17.1563 13.4062 18.0938 12.8437 18.9375 13.2187C19.7813 13.6875 20.3438 15.0937 19.9688 16.5C19.5938 18.0937 18.375 18.9375 17.3438 18.1875C16.4063 17.5312 16.125 15.8437 16.6875 14.625Z" fill="#3C505B"/>
<path d="M17.9061 15.1875C18.0936 14.7188 18.6561 14.4375 19.1248 14.625C19.5936 14.8125 19.8748 15.4688 19.7811 16.0313C19.5936 16.6875 18.9373 17.0625 18.3748 16.6875C17.8123 16.4063 17.6248 15.6563 17.9061 15.1875Z" fill="white"/>
<path d="M6.84375 9.09369C6.84375 9.09369 11.5312 2.62495 16.5 5.06245C16.5 5.06245 17.4375 6.93745 14.7187 8.06245C12 9.18745 6.84375 9.09369 6.84375 9.09369ZM20.1562 7.49995C20.1562 7.49995 24.375 8.9062 25.4062 10.5937C26.4375 12.2812 26.625 14.4374 25.7812 16.9687C25.7812 16.9687 25.5 14.9999 24.75 13.4062C24 11.8124 22.2188 8.24995 20.1562 7.49995Z" fill="#EA7DB8"/>
<path d="M18.4688 27.75L18.1875 28.2188L19.5937 29.1563L27.6562 21.1875L26.3438 19.5L18.4688 27.75Z" fill="#9A4C18"/>
<path d="M27.7498 23.4375C27.4685 26.625 24.5623 29.25 21.281 29.25C17.9998 29.25 16.031 26.5312 16.5935 23.4375C17.156 20.5312 19.9685 18.2812 22.8748 18.2812C25.781 18.2812 28.031 20.5312 27.7498 23.4375Z" fill="#9A4C18"/>
<path d="M28.5937 24.4688C28.3124 27.4688 25.4999 30.0938 22.3124 30C19.1249 30 17.1562 27.375 17.7187 24.4688C18.2812 21.75 20.9999 19.5937 23.8124 19.5C26.6249 19.5 28.8749 21.6563 28.5937 24.4688Z" fill="#9A4C18"/>
<path d="M19.4062 28.0313L20.7187 28.7813L27.2812 21.8438L26.25 20.4375L19.4062 28.0313Z" fill="#F49937"/>
<path d="M27.9374 24.4688C27.6562 27 25.3124 29.25 22.6874 29.1563C20.0624 29.1563 18.3749 27 18.8437 24.4688C19.3124 22.0313 21.5624 20.1562 23.9999 20.1562C26.3437 20.1562 28.2187 22.0313 27.9374 24.4688Z" fill="#F49937"/>
<path d="M27.0937 23.4375C26.8125 26.1562 24.2812 28.5 21.4687 28.5C18.6562 28.5 16.875 26.1562 17.3437 23.4375C17.8125 20.9062 20.25 18.8438 22.875 18.8438C25.4062 18.8438 27.2812 20.8125 27.0937 23.4375Z" fill="#FFEDC0"/>
<path d="M26.7187 23.625C26.4374 26.1563 24.0937 28.4063 21.4687 28.3125C18.8437 28.3125 17.1562 26.1563 17.6249 23.625C18.0937 21.1875 20.3437 19.3125 22.7812 19.3125C25.1249 19.3125 26.9999 21.1875 26.7187 23.625Z" fill="#FFD766"/>
<path d="M25.6874 23.625C25.4999 25.5938 23.6249 27.2812 21.5624 27.2812C19.4999 27.2812 18.1874 25.5938 18.5624 23.625C18.9374 21.75 20.7186 20.25 22.5936 20.25C24.4686 20.25 25.8749 21.75 25.6874 23.625Z" fill="#FFEDC0"/>
<path d="M25.7814 23.1563C25.5939 25.125 23.7189 26.7187 21.7502 26.7187C19.7814 26.7187 18.3752 25.0313 18.7502 23.1563C19.1252 21.2813 20.8127 19.7812 22.6877 19.7812C24.5627 19.7812 25.9689 21.2813 25.7814 23.1563Z" fill="#F49937"/>
<path d="M25.1251 23.625C24.9376 25.3125 23.3439 26.7187 21.6564 26.7187C19.9689 26.7187 18.8439 25.3125 19.1251 23.7187C19.4064 22.125 20.9064 20.9062 22.5001 20.8125C24.0939 20.8125 25.3126 22.0312 25.1251 23.625Z" fill="#FFD766"/>
<path d="M22.9688 20.4375L23.4375 22.3125L25.4063 22.7812L23.625 24L23.4375 26.1563L21.8438 24.9375L19.6875 25.6875L20.625 23.7188L19.5 22.125H21.6563L22.9688 20.4375Z" fill="#F49937"/>
</g>
<defs>
<clipPath id="clip0_1_7414">
<rect width="30" height="30" fill="white"/>
</clipPath>
</defs>
</svg>
