<svg width="30" height="30" viewBox="0 0 30 30" fill="none" xmlns="http://www.w3.org/2000/svg">
<g clip-path="url(#clip0_1_15687)">
<path d="M13.2188 19.4062C13.2188 19.4062 10.7813 20.25 10.5 22.875L10.4063 24.75C10.4063 24.75 9.09375 24 9.65625 22.0312C10.2188 20.0625 11.7188 19.7812 13.2188 19.4062Z" fill="#F49937"/>
<path d="M21.3749 19.3125C22.7811 19.7813 24.0936 21.0938 24.4686 22.875C24.9374 24.6562 24.2811 26.9062 23.0624 27.9375C22.2186 28.5938 21.1874 28.7813 20.1561 28.7813C17.8124 28.7813 15.3749 27.9375 13.0311 27C12.2811 26.7188 11.4374 26.4375 10.6874 25.875C10.0311 25.3125 9.37487 24.4688 9.28112 23.4375C9.09362 22.0313 9.93737 20.625 10.9686 19.875C12.7499 18.6563 14.5311 18.1875 16.3124 18.1875C17.9061 18.1875 19.8749 18.75 21.3749 19.3125Z" fill="#CCCCCC"/>
<path d="M20.9064 20.5312C22.1251 20.9062 23.3439 22.0312 23.7189 23.4375C24.0939 24.9375 23.5314 26.8125 22.4064 27.6562C21.6564 28.2187 20.7189 28.4062 19.7814 28.4062C17.6251 28.4062 15.4689 27.6562 13.3126 27C12.5626 26.7187 11.9064 26.5312 11.2501 26.0625C10.5939 25.5937 10.1251 24.8437 10.0314 24C9.84387 22.875 10.5939 21.6562 11.5314 21.0937C13.1251 20.0625 14.7189 19.6875 16.4064 19.6875C17.9064 19.5937 19.5939 20.0625 20.9064 20.5312Z" fill="#CCCCCC"/>
<path d="M20.7189 19.5937C21.9376 19.9687 22.9689 21.0937 23.3439 22.5C23.7189 24 23.1564 25.875 22.1251 26.7187C21.3751 27.2812 20.5314 27.4687 19.6876 27.4687C17.6251 27.4687 15.6564 26.7187 13.5939 26.0625C12.9376 25.7812 12.1876 25.5937 11.6251 25.125C11.0626 24.6562 10.5001 23.9062 10.4064 23.0625C10.3126 21.9375 10.9689 20.7187 11.8126 20.1562C13.3126 19.125 14.8126 18.75 16.4064 18.75C17.8126 18.6562 19.4064 19.125 20.7189 19.5937Z" fill="white"/>
<path d="M19.875 20.25C19.875 20.25 16.5 21.6562 13.9688 25.5937C13.9688 25.5937 13.0313 22.2188 13.5938 19.6875C13.5938 19.7812 17.0625 21.2813 19.875 20.25Z" fill="#CCCCCC"/>
<path d="M18.6563 20.25C18.6563 20.25 16.125 21.2812 14.25 24.2812C14.25 24.2812 13.5938 21.75 13.9688 19.875C13.9688 19.875 16.5938 21 18.6563 20.25Z" fill="#FAEACF"/>
<path opacity="0.28" d="M21.6152 24.7828C22.0465 23.453 21.6775 22.142 20.791 21.8544C19.9045 21.5669 18.8362 22.4118 18.4049 23.7416C17.9736 25.0713 18.3427 26.3824 19.2292 26.6699C20.1157 26.9574 21.1839 26.1125 21.6152 24.7828Z" fill="white"/>
<path d="M13.9687 19.125L13.6875 20.3438C13.6875 20.3438 16.5 21.2812 18.4688 21L20.1562 20.625L19.9687 19.5L13.9687 19.125Z" fill="#FAD395"/>
<path d="M18.9374 4.21875L19.4999 2.4375L19.1249 1.59375L21.2811 2.8125L22.7811 6.9375L18.2811 6L18.9374 4.21875ZM9.28113 7.03125C9.28113 7.03125 8.06238 8.8125 8.62488 11.625L10.0311 9.28125L9.46863 6.84375L9.28113 7.03125ZM11.7186 3.84375C11.7186 3.84375 11.6249 2.71875 10.6874 1.6875C10.6874 1.6875 12.3749 1.59375 14.0624 2.4375L14.1561 3.28125L13.2186 4.875L11.7186 3.84375Z" fill="#9A4C18"/>
<path d="M17.9064 20.446C22.3673 19.8198 25.4818 15.7375 24.8628 11.3279C24.2439 6.91834 20.1259 3.85123 15.665 4.47737C11.2041 5.1035 8.08964 9.18577 8.70858 13.5954C9.32752 18.005 13.4455 21.0721 17.9064 20.446Z" fill="#9A4C18"/>
<path d="M17.3991 19.8025C21.5523 19.2196 24.4349 15.297 23.8376 11.0412C23.2402 6.78546 19.3891 3.80805 15.2359 4.391C11.0827 4.97396 8.20007 8.89652 8.79741 13.1523C9.39476 17.4081 13.2459 20.3855 17.3991 19.8025Z" fill="#E5895B"/>
<path d="M16.9564 18.9575C20.8533 18.4105 23.5573 14.7249 22.9959 10.7255C22.4345 6.72613 18.8204 3.92738 14.9236 4.47435C11.0267 5.02132 8.32275 8.70688 8.88411 12.7063C9.44548 16.7057 13.0596 19.5045 16.9564 18.9575Z" fill="#FAD395"/>
<path d="M20.1562 8.8125C20.1562 8.8125 22.125 8.8125 22.6875 8.4375C23.25 8.0625 24 8.0625 24.0938 7.5C24.0938 6.9375 22.9687 3.75 19.0312 3L21.2813 5.71875L20.1562 8.8125ZM9.65625 8.34375C9.65625 8.34375 8.90625 7.3125 9.375 6C9.84375 4.6875 8.90625 2.8125 8.90625 2.8125L12.375 3.5625C12.375 3.5625 14.4375 4.125 14.25 5.0625C14.0625 6 13.4062 7.59375 13.3125 7.6875C13.2188 7.78125 12.6562 8.8125 12.6562 8.8125L9.65625 8.34375Z" fill="#9A4C18"/>
<path d="M10.1249 8.625C10.1249 8.625 9.74989 7.125 10.3124 6.5625C10.8749 6.09375 10.1249 3.9375 10.1249 3.9375L13.5936 4.6875C13.5936 4.6875 15.6561 5.25 15.4686 6.1875C15.2811 7.125 14.6249 8.71875 14.5311 8.8125C14.4374 8.90625 13.9686 9.46875 13.9686 9.46875L10.1249 8.625ZM18.9374 8.625C18.9374 8.625 20.9061 8.625 21.4686 8.25C22.0311 7.875 22.7811 7.875 22.8749 7.3125C22.8749 6.75 21.7499 3.5625 17.8124 2.8125L20.0624 5.625L18.9374 8.625Z" fill="#DB7D1F"/>
<path d="M12.0937 8.62496C12.0937 8.62496 11.1563 8.43746 11.5313 6.74996C12 5.06246 13.5938 2.62496 13.5938 2.62496L10.9688 0.187458C10.9688 0.187458 14.5313 -0.562542 17.4375 1.96871C17.4375 1.96871 20.8125 3.65621 20.9062 4.87496C21.0937 6.09371 22.5 8.24996 21.2812 8.99996C20.3438 9.56246 12.5625 8.99996 12.0937 8.62496Z" fill="#9A4C18"/>
<path d="M12.6564 8.71871C12.6564 8.71871 12.2814 7.49996 12.6564 6.18746C12.9377 4.87496 14.4377 2.81246 14.4377 2.81246L13.1252 0.749959C13.1252 0.749959 14.9064 0.562459 17.1564 2.43746C17.1564 2.43746 19.6877 3.74996 19.8752 4.59371C19.9689 5.53121 19.8752 8.34371 19.0314 8.90621C18.1877 9.46871 12.9377 9.09371 12.6564 8.71871Z" fill="#F49937"/>
<path d="M14.3438 8.15625L15.1875 5.0625L14.8125 1.78125L16.9688 5.0625L16.5938 8.53125C16.5938 8.53125 14.9062 8.71875 14.3438 8.15625Z" fill="#FDE049"/>
<path d="M22.3125 5.53125L22.125 7.6875L20.4375 6.84375L21.2813 8.4375L23.625 7.875L22.3125 5.53125Z" fill="#9A4C18"/>
<path d="M19.2188 7.40625L20.7188 7.875L22.2188 6.84375L22.0312 8.0625L21.1875 8.53125L18.5625 9.1875L19.2188 7.40625ZM11.7188 6L11.9062 7.59375L13.2188 9L12.8438 8.90625L11.0625 8.53125L10.5 7.125L11.7188 6Z" fill="#DB7D1F"/>
<path d="M17.25 9.46875L18.5625 6.46875L18 3.5625L17.1562 2.34375C17.1562 2.34375 19.0313 3.28125 19.4063 3.65625C19.7813 4.03125 20.4375 5.0625 20.3438 5.4375C20.25 5.8125 19.6875 8.8125 19.6875 8.8125L19.125 9.1875C19.0313 9.1875 17.9063 9.5625 17.25 9.46875Z" fill="#DB7D1F"/>
<path d="M12.1876 6.1875L12.6563 6.09375C12.6563 6.09375 12.2813 7.5 12.7501 8.53125C12.7501 8.53125 11.5313 8.25 11.7188 6.375L12.1876 6.1875Z" fill="#9A4C18"/>
<path d="M20.1562 8.0625C20.1562 8.0625 21.8438 7.3125 21.5625 6C21.5625 6 22.125 7.03125 21.9375 7.6875C21.75 8.25 20.625 8.15625 20.625 8.15625L20.1562 8.0625Z" fill="#DB7D1F"/>
<path d="M12.8438 9.28125L13.9688 10.2187L18.1875 8.8125V7.40625L16.6875 9.09375L13.6875 8.8125L12.5625 8.34375L12.8438 9.28125Z" fill="#F49937"/>
<path d="M18.8439 9.09375C18.8439 9.09375 19.3127 9.5625 19.5939 9.9375L18.8439 11.0625C18.8439 11.0625 20.8127 10.875 21.0939 11.625C21.3752 12.4688 21.1877 13.5 21.1877 13.5L24.3752 12.75C24.3752 12.75 23.9064 9.1875 22.6877 7.78125L21.5627 7.21875L20.3439 8.25L18.8439 9.09375ZM10.8752 8.53125L8.71892 11.25C8.71892 11.25 8.53142 9.75 9.37517 7.875L10.8752 8.53125Z" fill="#DB7D1F"/>
<path d="M24.2812 13.6875L21.1875 13.5L21.0938 13.125L24.5625 12.1875L24.2812 13.6875Z" fill="#9A4C18"/>
<path d="M21.9375 13.0312L21.4687 11.1562C21.4687 11.1562 20.0625 10.7812 19.2187 10.7812L18.75 10.875L20.0625 11.3438L21.1875 13.4063L21.9375 13.0312Z" fill="#9A4C18"/>
<path d="M19.6875 10.9688L20.1562 9.84375L18.6562 8.625L16.875 9.65625L19.0312 9.375L18.75 10.875L19.6875 10.9688Z" fill="#9A4C18"/>
<path d="M18.4688 9.1875L13.875 10.7813L12.6562 9.09375L14.1563 9.9375L18.5625 8.625L18.4688 9.1875Z" fill="#9A4C18"/>
<path d="M13.9687 10.5937L11.625 10.4062L13.5938 9.9375L13.9687 10.5937ZM13.2188 9.65625L10.875 9.46875L8.71875 11.3438L10.3125 8.53125L12.75 9L13.125 9.5625" fill="#9A4C18"/>
<path d="M18.5625 8.8125L22.0312 8.4375L22.875 10.0312L21.2812 11.8125L20.625 11.5313L18.5625 8.8125ZM10.125 9.5625L12.6562 10.4063L13.7812 9.9375L13.3125 9.46875L11.25 9.1875L10.125 9.5625Z" fill="#9A4C18"/>
<path d="M18.5625 9.5625L21.6563 8.71875L22.3125 9.84375L19.875 11.8125L18.1875 11.25L18.5625 9.5625Z" fill="#FAD395"/>
<path d="M13.9688 18C13.9688 18 18.2813 18 20.3438 16.2188C20.3438 16.2188 20.25 17.625 19.4063 18.4688C19.4063 18.5625 16.7812 18.9375 13.9688 18Z" fill="white" stroke="#9A4C18" stroke-width="0.342562" stroke-miterlimit="10"/>
<path d="M21.7499 11.8125C21.7499 11.8125 17.9062 11.0625 14.9999 11.3437C14.9999 11.3437 14.6249 11.625 14.1562 11.625C13.6874 11.5312 13.3124 11.1562 13.3124 11.1562C10.3124 10.2187 6.65616 10.2187 6.65616 10.2187C6.65616 10.2187 6.28116 10.125 6.37491 10.7812C6.46866 11.4375 6.93741 11.4375 6.93741 11.4375C6.93741 11.4375 7.03116 13.9687 7.96866 14.625C8.90616 15.375 11.3437 16.0312 12.1874 16.125C13.1249 16.3125 13.4999 16.0312 13.6874 15.375C13.8749 14.8125 13.8749 13.7812 13.9687 13.2187C13.9687 12.9375 14.1562 12.8437 14.2499 12.8437H14.4374C14.5312 12.8437 14.7187 13.0312 14.8124 13.3125C14.9999 13.875 15.1874 14.9062 15.4687 15.5625C15.7499 16.2187 16.2187 16.5937 17.1562 16.6875C17.9999 16.6875 20.4374 16.5937 21.2812 16.0312C22.1249 15.4687 21.7499 12.9375 21.7499 12.9375C21.7499 12.9375 22.2187 13.0312 22.2187 12.375C22.1249 11.8125 21.7499 11.8125 21.7499 11.8125Z" fill="#4A4A4A"/>
<path d="M15.2812 11.7188C15.2812 11.7188 19.4062 11.5313 21.8438 12.1875V12.4688C21.8438 12.4688 17.5312 11.7188 15.2812 11.7188Z" fill="#6F6F6F"/>
<path d="M20.9062 12.75C20.0625 12.5625 17.625 12.0938 15.375 12.4688C15.1875 12.4688 15.0938 12.6563 15.0938 12.9375C15.1875 13.5 15.4687 14.5313 15.8437 15.5625C15.9375 15.75 16.0313 15.9375 16.125 16.0313C16.875 15.375 18.9375 13.5938 20.9062 12.8438V12.75Z" fill="white"/>
<path d="M21 12.75C19.0313 13.5 16.875 15.375 16.2188 15.9375C16.4062 16.125 16.5938 16.2187 16.875 16.2187C17.9063 16.3125 19.875 16.3125 21 15.5625C21.0938 15.5625 21.0938 15.4687 21.0938 15.375C21.1875 15.0937 21.4688 14.4375 21.2813 12.9375C21.1875 12.9375 21.0938 12.8438 21 12.75Z" fill="#CCCCCC"/>
<path d="M7.59375 11.4375C7.40625 11.4375 7.3125 11.625 7.3125 11.8125C7.40625 13.2187 7.78125 13.9687 7.96875 14.25C7.96875 14.3437 8.0625 14.3437 8.0625 14.4375C8.25 14.625 8.4375 14.7187 8.71875 14.9062C9.65625 14.25 11.25 13.0312 12.8437 12.2812C10.5937 11.4375 8.34375 11.3437 7.59375 11.4375Z" fill="white"/>
<path d="M13.0312 12.2813C12.9375 12.2813 12.8438 12.1875 12.75 12.1875C11.1563 12.8438 9.5625 14.0625 8.625 14.8125C9.84375 15.4688 11.3438 15.75 12.1875 15.8437C12.5625 15.9375 12.9375 15.6562 13.0312 15.2812C13.3125 14.3437 13.3125 13.3125 13.3125 12.75C13.4062 12.5625 13.3125 12.375 13.0312 12.2813Z" fill="#CCCCCC"/>
<path d="M22.5 20.9062C22.5 20.9062 22.9687 22.0312 23.25 24.6562V26.5312C23.25 26.5312 24.5625 25.7813 24.0938 23.8125C23.625 21.8438 23.25 21.6562 22.5 20.9062Z" fill="#F49937"/>
<path d="M20.1562 29.4375C20.1562 29.3438 20.1562 29.25 20.0625 29.25C20.25 28.7813 20.0625 28.125 20.0625 28.125L18.9375 24.9375C18.75 24.1875 18.1875 23.5313 17.4375 23.0625L17.3438 22.3125C17.3438 22.0313 17.0625 21.8438 16.7812 21.75L15.8437 21.5625L15.5625 21.2813C15.375 21.1875 14.8125 21.2813 14.7188 21.375C14.625 21.4688 14.3438 21.9375 14.3438 22.125L14.4375 22.5938L10.7812 21.8438C10.6875 21.75 10.5938 21.6563 10.4063 21.5625L10.2187 20.8125C10.125 20.5313 9.9375 20.3438 9.65625 20.25L8.8125 20.0625L8.53125 19.7813C8.0625 19.6875 7.21875 19.9688 7.3125 20.4375L7.5 21.1875C7.3125 21.2813 7.21875 21.375 7.03125 21.4688C6.84375 21.6563 6.75 21.9375 6.65625 22.2188V22.6875L6.84375 25.6875C6.84375 25.7813 6.84375 26.5313 7.5 27.1875C7.5 27.1875 7.5 27.2813 7.59375 27.375C7.78125 27.6563 8.0625 27.8438 8.53125 28.0313C9.09375 28.2188 9.46875 28.2188 9.75 28.125H9.84375C10.6875 28.0313 10.875 27.375 10.875 27.375L11.0625 26.9063L11.3438 27C11.5313 27.2813 11.9062 27.4688 12.1875 27.5625C12.4688 27.6563 12.6563 27.5625 12.75 27.4688C12.9375 27.4688 13.125 27.4688 13.2188 27.375L13.5 27.4688C13.6875 27.8438 14.0625 28.125 14.4375 28.2188C14.7187 28.3125 14.9062 28.2188 15 28.125C15.2812 28.2188 15.4688 28.125 15.6562 27.9375L15.9375 28.4063C16.0312 28.5938 16.2187 28.6875 16.3125 28.875C16.5937 29.25 17.3437 29.9063 18.1875 30H18.9375C19.6875 30 20.1562 29.8125 20.1562 29.4375Z" fill="#4A0751"/>
<path d="M19.125 21.2813C19.125 21.2813 21.9375 21.1875 22.9688 22.0313C23.5313 22.5 23.8125 24.0938 23.9063 25.2188C24 26.0625 23.4375 26.9063 22.5938 27.2813C21.9375 27.5625 21.0938 27.8438 20.8125 27.8438L19.2188 24.5625V21.2813H19.125Z" fill="#9A4C18"/>
<path d="M18.8438 21.4687C18.8438 21.4687 21.375 21.375 22.3125 22.125C22.7812 22.5937 23.0625 23.8125 23.1563 24.8437C23.25 25.7812 22.6875 26.5312 21.8437 26.9062C21.2812 27.0937 20.625 27.375 20.3438 27.375L18.8438 24.375V21.4687Z" fill="#E5895B"/>
<path d="M19.2188 21.8437C19.2188 21.8437 21.375 21.75 22.2188 22.4062C22.5938 22.7812 22.7812 23.7187 22.875 24.4687C22.9687 25.4062 22.4062 26.25 21.5625 26.5312C21.0938 26.7187 20.7187 26.8125 20.5312 26.8125L19.2188 24.375V21.8437Z" fill="#FAD395"/>
<path d="M16.969 27.4687C16.7815 27.6562 17.2502 28.3125 17.6252 28.7812C17.8127 29.0625 18.094 29.1562 18.3752 29.1562L21.2815 28.4062C21.469 28.4062 21.5627 28.3125 21.5627 28.125C21.6565 27.75 21.3752 27.2812 21.1877 26.9062C21.0002 26.5312 20.6252 26.3437 20.344 26.4375C19.219 26.5312 17.1565 27.2812 16.969 27.4687Z" fill="#9A4C18"/>
<path d="M17.2501 27.4687C17.0626 27.6562 17.5313 28.2187 17.8126 28.5937C18.0001 28.7812 18.1876 28.9687 18.4688 28.875L21.0001 28.2187C21.0938 28.2187 21.1876 28.125 21.2813 27.9375C21.3751 27.6562 21.0938 27.1875 20.9063 26.9062C20.7188 26.625 20.4376 26.4375 20.1563 26.5312C19.3126 26.7187 17.4376 27.2812 17.2501 27.4687Z" fill="#E5895B"/>
<path d="M16.7813 27.4687C16.5938 27.6562 17.0626 28.2187 17.3438 28.5937C17.5313 28.7812 17.7188 28.9687 18.0001 28.875L20.5313 28.2187C20.6251 28.2187 20.7188 28.125 20.8126 27.9375C20.9063 27.6562 20.6251 27.1875 20.4376 26.9062C20.2501 26.625 19.9688 26.4375 19.6876 26.5312C18.7501 26.625 16.9688 27.2812 16.7813 27.4687Z" fill="#E5895B"/>
<path d="M16.7813 27.4687C16.5938 27.6562 17.0626 28.2187 17.3438 28.5937C17.5313 28.7812 17.7188 28.9687 18.0001 28.875L20.5313 28.2187C20.6251 28.2187 20.7188 28.125 20.8126 27.9375C20.9063 27.6562 20.6251 27.1875 20.4376 26.9062C20.2501 26.625 19.9688 26.4375 19.6876 26.5312C18.8438 26.7187 16.9688 27.2812 16.7813 27.4687Z" fill="#FAD395"/>
<path d="M8.53125 24.375C8.71875 24.4688 8.53125 25.2188 8.4375 25.7813C8.34375 26.0625 8.15625 26.25 7.875 26.3438L6.375 26.8125C6.1875 26.8125 6.09375 26.8125 5.90625 26.7188C5.625 26.4375 5.625 25.9688 5.625 25.5C5.625 25.125 5.90625 24.75 6.1875 24.6562C7.3125 24.375 8.34375 24.2813 8.53125 24.375Z" fill="#9A4C18"/>
<path d="M8.25 24.5625C8.4375 24.6563 8.25 25.3125 8.15625 25.7813C8.0625 26.0625 7.875 26.25 7.6875 26.25L6.46875 26.625C6.375 26.625 6.1875 26.625 6.09375 26.5313C5.8125 26.3438 5.8125 25.875 5.8125 25.5C5.8125 25.125 6 24.8438 6.28125 24.75C7.3125 24.4688 7.96875 24.4688 8.25 24.5625Z" fill="#E5895B"/>
<path d="M7.96875 24.6563C8.15625 24.75 7.96875 25.3125 7.875 25.6875C7.78125 25.875 7.6875 26.0625 7.5 26.0625L6.5625 26.4375C6.46875 26.4375 6.375 26.4375 6.28125 26.3438C6.09375 26.1563 6.09375 25.7813 6.09375 25.5C6.09375 25.2188 6.28125 24.9375 6.46875 24.8438C7.21875 24.6563 7.78125 24.5625 7.96875 24.6563Z" fill="#FAD395"/>
<path d="M20.0625 28.7813C20.0625 28.6875 20.0625 28.5938 19.9688 28.5938C20.1562 28.125 19.9688 27.4688 19.9688 27.4688L18.8438 24.2813C18.6563 23.5313 18.0938 22.875 17.3438 22.4063L17.25 21.6563C17.25 21.375 16.9688 21.1875 16.6875 21.0938L15.75 20.9063L15.4688 20.625C15.2812 20.5313 14.7188 20.625 14.625 20.7188C14.5313 20.8125 14.25 21.2813 14.25 21.4688L14.3437 21.9375L10.6875 21.1875C10.5937 21.0938 10.5 21 10.3125 20.9063L10.125 20.1563C10.0312 19.875 9.84375 19.6875 9.5625 19.5938L8.71875 19.4063L8.4375 19.125C7.96875 19.0313 7.125 19.3125 7.21875 19.7813L7.3125 20.5313C7.125 20.625 7.03125 20.7188 6.84375 20.8125C6.65625 21 6.5625 21.2813 6.46875 21.5625V22.0313L6.65625 25.0313C6.65625 25.125 6.65625 25.875 7.3125 26.5313L7.5 26.7188C7.6875 27 7.96875 27.1875 8.4375 27.375C9 27.5625 9.375 27.5625 9.65625 27.4688H9.75C10.5937 27.375 10.7812 26.7188 10.7812 26.7188L10.9687 26.25L11.25 26.3438C11.4375 26.625 11.8125 26.8125 12.0937 26.9063C12.375 27 12.5625 26.9063 12.6562 26.8125C12.8438 26.8125 13.0312 26.8125 13.125 26.7188L13.4062 26.8125C13.5938 27.1875 13.9687 27.4688 14.3437 27.5625C14.625 27.6563 14.8125 27.5625 14.9062 27.4688C15.1875 27.5625 15.375 27.4688 15.5625 27.2813L15.8438 27.75C15.9375 27.9375 16.125 28.0313 16.2188 28.2188C16.5 28.5938 17.25 29.25 18.0938 29.3438H18.8438C19.6875 29.3438 20.1562 29.1563 20.0625 28.7813Z" fill="#780364"/>
<path d="M16.594 25.2188C16.4065 25.4062 16.8752 26.1563 17.2502 26.7188C17.4377 27 17.8127 27.1875 18.094 27.0938L21.469 26.1562C21.6565 26.1562 21.7502 25.9688 21.844 25.7813C21.9377 25.3125 21.6565 24.75 21.3752 24.375C21.094 24 20.719 23.8125 20.4377 23.8125C19.3127 24.0938 16.8752 25.0312 16.594 25.2188Z" fill="#9A4C18"/>
<path d="M16.9688 25.3125C16.7813 25.5 17.2501 26.1562 17.5313 26.625C17.7188 26.9062 18.0001 27 18.2813 26.9062L21.2813 26.0625C21.4688 26.0625 21.5626 25.875 21.5626 25.7812C21.6563 25.4062 21.3751 24.9375 21.1876 24.5625C21.0001 24.1875 20.6251 24 20.3438 24.0937C19.3126 24.2812 17.1563 25.0312 16.9688 25.3125Z" fill="#E5895B"/>
<path d="M17.0625 25.4063C16.9688 25.5 17.3438 26.0625 17.625 26.4375C17.8125 26.625 18 26.7188 18.1875 26.7188L20.5313 26.1562C20.625 26.1562 20.7188 26.0625 20.8125 25.875C20.9063 25.5938 20.7188 25.125 20.5313 24.8438C20.3438 24.5625 20.0625 24.375 19.7813 24.375L17.0625 25.4063Z" fill="#FAD395"/>
<path d="M15.844 23.5312C15.6565 23.7188 16.1252 24.4688 16.5002 25.0313C16.6877 25.3125 17.0627 25.5 17.344 25.4062L20.719 24.4688C20.9065 24.4688 21.0002 24.2813 21.094 24.0938C21.1877 23.625 20.9065 23.0625 20.6252 22.6875C20.344 22.3125 19.969 22.125 19.6877 22.125C18.5627 22.4062 16.0315 23.25 15.844 23.5312Z" fill="#9A4C18"/>
<path d="M16.2188 23.5312C16.0313 23.7187 16.5001 24.375 16.7813 24.8437C16.9688 25.125 17.2501 25.2187 17.5313 25.125L20.5313 24.2812C20.7188 24.2812 20.8126 24.0937 20.8126 24C20.9063 23.625 20.6251 23.1562 20.4376 22.7812C20.2501 22.4062 19.8751 22.2187 19.5938 22.3125C18.5626 22.5 16.4063 23.3437 16.2188 23.5312Z" fill="#E5895B"/>
<path d="M8.15625 20.7188C8.4375 20.8125 8.15625 21.75 7.96875 22.3125C7.875 22.6875 7.59375 22.875 7.3125 22.9688L5.625 23.5313C5.4375 23.5313 5.25 23.5312 5.15625 23.4375C4.78125 23.1562 4.6875 22.5 4.6875 22.0312C4.6875 21.5625 4.96875 21.0937 5.34375 21C6.65625 20.7187 7.875 20.625 8.15625 20.7188Z" fill="#9A4C18"/>
<path d="M7.78125 20.9062C7.96875 21 7.78125 21.75 7.6875 22.3125C7.59375 22.5937 7.40625 22.7812 7.125 22.875L5.71875 23.3437C5.53125 23.3437 5.4375 23.3437 5.25 23.25C4.96875 22.9687 4.875 22.5 4.875 22.0312C4.875 21.6562 5.15625 21.1875 5.4375 21.1875C6.65625 20.8125 7.5 20.8125 7.78125 20.9062Z" fill="#E5895B"/>
<path d="M7.5 21C7.6875 21.0938 7.5 21.75 7.40625 22.125C7.3125 22.4063 7.125 22.5938 6.9375 22.5938L5.8125 23.0625C5.71875 23.0625 5.53125 23.0625 5.4375 22.9688C5.25 22.7813 5.15625 22.3125 5.15625 21.9375C5.15625 21.5625 5.34375 21.2813 5.625 21.1875L7.5 21Z" fill="#FAD395"/>
<path d="M7.96875 22.6875C8.15625 22.7812 7.96875 23.5312 7.875 24.0938C7.6875 24.375 7.5 24.5625 7.3125 24.6562L5.8125 25.125C5.625 25.125 5.53125 25.125 5.34375 25.0312C5.0625 24.75 4.96875 24.2812 4.96875 23.8125C4.96875 23.4375 5.25 23.0625 5.53125 22.9687C6.65625 22.6875 7.6875 22.6875 7.96875 22.6875Z" fill="#9A4C18"/>
<path d="M7.59375 22.875C7.78125 22.9688 7.59375 23.625 7.5 24.0938C7.40625 24.375 7.21875 24.5625 7.03125 24.5625L5.8125 24.9375C5.71875 24.9375 5.53125 24.9375 5.4375 24.8438C5.15625 24.6563 5.15625 24.1875 5.15625 23.8125C5.15625 23.4375 5.34375 23.1563 5.625 23.0625C6.65625 22.7813 7.40625 22.7813 7.59375 22.875Z" fill="#E5895B"/>
<path d="M7.40625 22.9687C7.59375 23.0625 7.40625 23.625 7.3125 24C7.21875 24.1875 7.03125 24.375 6.9375 24.375L6 24.75C5.90625 24.75 5.8125 24.75 5.71875 24.6562C5.53125 24.4687 5.53125 24.0937 5.53125 23.8125C5.53125 23.5312 5.71875 23.25 5.90625 23.1563C6.5625 22.9688 7.21875 22.9687 7.40625 22.9687ZM16.3125 23.625C16.2188 23.7188 16.5938 24.2812 16.875 24.6562C17.0625 24.8437 17.25 24.9375 17.4375 24.9375L19.7813 24.375C19.875 24.375 19.9688 24.2813 20.0625 24.0938C20.1562 23.8125 19.9688 23.3438 19.7813 23.0625C19.5938 22.7812 19.3125 22.5938 19.0312 22.5938C18.1875 22.875 16.4062 23.4375 16.3125 23.625Z" fill="#FAD395"/>
<path d="M9.46875 19.4063C9.65625 19.5 9.28125 20.3437 9 20.9062C8.8125 21.1875 8.53125 21.375 8.34375 21.375L6.1875 21.5625C6 21.5625 5.8125 21.4687 5.71875 21.375C5.4375 21 5.53125 20.4375 5.625 19.9687C5.71875 19.5 6.09375 19.125 6.46875 19.125C7.6875 19.125 9.1875 19.2188 9.46875 19.4063Z" fill="#9A4C18"/>
<path d="M9.09381 19.5C9.28131 19.5938 9.00006 20.3438 8.71881 20.8125C8.62506 21.0938 8.34381 21.2813 8.06256 21.2813L6.28131 21.4688C6.09381 21.4688 6.00006 21.375 5.90631 21.2813C5.71881 21 5.71881 20.4375 5.81256 20.0625C5.90631 19.6875 6.18756 19.3125 6.56256 19.3125C7.59381 19.2188 8.81256 19.4063 9.09381 19.5Z" fill="#E5895B"/>
<path d="M8.34375 19.5938C8.53125 19.6875 8.25 20.25 8.0625 20.625C7.96875 20.8125 7.78125 21 7.59375 21L6.46875 21.1875C6.375 21.1875 6.28125 21.1875 6.1875 21.0938C6 20.8125 6.09375 20.4375 6.09375 20.0625C6.1875 19.7813 6.375 19.5 6.65625 19.5C7.5 19.4063 8.15625 19.5 8.34375 19.5938Z" fill="#FAD395"/>
<path d="M15.2812 20.1562C15 20.1562 15.0938 21 15.1875 21.5625C15.2813 21.8437 15.375 22.125 15.6563 22.2187L18.5625 22.9687C18.75 23.0625 18.9375 23.0625 19.0312 22.9687C19.4062 22.7812 19.5938 22.6875 19.6875 22.2187C19.7812 21.75 19.5938 21.375 19.2188 21.1875C18.0938 20.8125 15.5625 20.0625 15.2812 20.1562Z" fill="#9A4C18"/>
<path d="M15.5626 20.3438C15.3751 20.3438 15.3751 21.0937 15.4688 21.5625C15.4688 21.8437 15.6563 22.0312 15.8438 22.125L18.4688 22.5937C18.5626 22.6875 18.7501 22.6875 18.8438 22.5937C19.1251 22.4062 19.3126 22.5 19.4063 22.125C19.5001 21.75 19.3126 21.375 19.0313 21.2813C18.0001 20.9063 15.7501 20.3438 15.5626 20.3438Z" fill="#E5895B"/>
<path d="M15.5624 20.5313C15.3749 20.5313 15.4686 21.1875 15.5624 21.5625C15.5624 21.75 15.7499 21.9375 15.8436 22.0313L18.0936 22.4063C18.1874 22.5 18.2811 22.4063 18.3749 22.4063C18.5624 22.2188 18.4686 22.3125 18.5624 22.0313C18.5624 21.75 18.4686 21.375 18.2811 21.2813C17.4374 21 15.7499 20.4375 15.5624 20.5313Z" fill="#FAD395"/>
<path d="M10.125 22.3125L10.0313 22.875C9.93753 23.0625 10.125 23.3438 10.3125 23.3438L14.4375 24.0938C14.7188 24.1875 15 23.9063 14.9063 23.5313L14.7188 22.875C14.7188 22.6875 14.5313 22.5938 14.4375 22.5938L10.6875 21.9375C10.4063 22.0312 10.125 22.125 10.125 22.3125Z" fill="#8D2299"/>
<path d="M7.40625 26.4375C7.40625 26.4375 8.90625 27.4688 10.3125 26.25L10.875 25.3125L13.6875 25.875C14.25 25.875 15.8437 26.1562 15.8437 26.1562C15.8437 26.1562 16.0312 27.5625 16.875 28.125C17.7188 28.6875 18.1875 29.4375 19.0312 29.3437C19.875 29.25 19.9687 29.7188 19.9687 29.7188L19.4062 30C19.4062 30 16.6875 29.9063 16.0312 28.3125C16.0312 28.3125 15.5625 28.5938 14.7188 28.5938C13.875 28.5 13.3125 27.5625 13.3125 27.5625C13.3125 27.5625 12.8438 28.2188 12.1875 28.125C11.5312 28.0312 11.0625 27 11.0625 27C11.0625 27 11.1562 28.4063 9.84375 28.3125C8.53125 28.2188 7.3125 27.1875 7.125 26.8125L7.40625 26.4375Z" fill="#4A0751"/>
<path d="M10.2188 22.4062L14.7188 23.25C14.7188 23.25 14.6251 22.875 14.5313 22.7812C14.4376 22.6875 10.4063 22.0312 10.4063 22.0312C10.4063 22.0312 10.1251 22.0312 10.2188 22.4062Z" fill="#AA3C98"/>
</g>
<defs>
<clipPath id="clip0_1_15687">
<rect width="30" height="30" fill="white"/>
</clipPath>
</defs>
</svg>
