<svg width="30" height="30" viewBox="0 0 30 30" fill="none" xmlns="http://www.w3.org/2000/svg">
<g clip-path="url(#clip0_1_11449)">
<path d="M10.875 5.4375C10.875 5.4375 10.9688 3.84375 9.75 2.15625C9.75 2.15625 12.0938 2.4375 14.3438 3.84375V4.96875L12.75 6.9375L10.875 5.4375Z" fill="#9A4C18"/>
<path d="M14.625 10.0313C14.625 10.0313 18.8437 9.00003 23.8125 10.4063C28.7812 11.8125 30.375 16.6875 29.25 19.2188L26.7188 17.625C26.7188 17.625 27.8438 13.3125 23.1562 12.2813L14.625 10.0313Z" fill="#3C505B"/>
<path d="M27.7949 18.6132C27.8178 12.2964 22.6316 7.15682 16.2113 7.13355C9.79099 7.11029 4.56775 12.2122 4.54486 18.5289C4.52197 24.8457 9.70811 29.9853 16.1284 30.0086C22.5487 30.0318 27.772 24.9299 27.7949 18.6132Z" fill="#9A4C18"/>
<path d="M26.5098 17.9956C26.5319 11.886 21.723 6.91562 15.7686 6.89405C9.81433 6.87247 4.96945 11.8078 4.94731 17.9175C4.92517 24.0271 9.73416 28.9975 15.6885 29.019C21.6428 29.0406 26.4877 24.1053 26.5098 17.9956Z" fill="#E5895B"/>
<path d="M25.3697 17.4484C25.3906 11.7012 20.8743 7.0257 15.2824 7.00544C9.69056 6.98518 5.14056 11.6278 5.11974 17.375C5.09891 23.1222 9.61515 27.7977 15.207 27.8179C20.7989 27.8382 25.3489 23.1956 25.3697 17.4484Z" fill="#FAD395"/>
<path d="M6.5625 23.4375L12.0937 25.5L10.7812 20.3438L4.40625 19.3125L6.5625 23.4375ZM17.9062 26.7188L25.125 24C26.0625 23.5313 26.625 22.5938 26.625 21.5625L26.5312 15.75C26.5312 13.9688 24.75 12.75 23.0625 13.3125L15.2812 16.125C14.0625 16.5938 13.4062 17.8125 13.5938 19.125L15.0938 24.9375C15.375 26.5313 16.4062 27.4688 17.9062 26.7188Z" fill="#3C505B"/>
<path d="M7.5 23.3437L11.8125 22.3125L10.4063 19.5937L7.96875 19.9687L7.5 23.3437ZM19.0312 24.6562L23.9062 22.5937C24.5625 22.2187 25.0312 21.5625 25.0312 20.7187L24.9375 16.2187C24.9375 14.8125 23.5312 13.875 22.2188 14.3437L16.2187 16.5C15.2812 16.875 14.7187 17.8125 14.9062 18.75L16.125 23.1562C16.4062 24.5625 17.8125 25.2187 19.0312 24.6562Z" fill="#98B1B7"/>
<path d="M4.125 12.375L11.1563 10.2188C11.7188 10.0313 12.2813 9.93753 12.8438 10.125L23.3438 12.4688C24.375 12.75 24.375 13.875 23.4375 14.3438L14.9063 16.9688C14.8125 17.0625 14.625 17.0625 14.4375 16.9688L4.03125 13.3125C3.65625 13.125 3.65625 12.5625 4.125 12.375Z" fill="#FAD395"/>
<path d="M3.5625 12.5625L6.9375 11.3438C6.9375 11.3438 19.125 14.9063 22.125 15.1875L16.5 16.7812L13.0312 15.375L3.5625 12.5625Z" fill="#CBDEE4"/>
<path d="M9.375 13.9687L3.9375 12.2812C2.625 11.9062 1.59375 12.8437 1.59375 14.4375L1.125 18.8437C1.125 20.4375 2.15625 22.125 3.46875 22.5937L6.9375 23.5312C7.125 23.625 7.3125 23.5312 7.5 23.4375L9.09375 21.6562C9.375 21.2812 9.65625 21.375 9.9375 21.9375L11.625 25.0312C11.8125 25.3125 12 25.5 12.2813 25.5937L15.5625 26.7187C17.1562 27.375 18.4688 26.4375 18.4688 24.5625L18.1875 19.875C18.1875 18.0937 16.875 16.2187 15.2812 15.6562L9.375 13.9687Z" fill="#3C505B"/>
<path d="M24.1875 20.6952C24.9687 18.7771 24.4747 16.7631 23.0841 16.1968C21.6936 15.6304 19.933 16.7261 19.1518 18.6441C18.3706 20.5621 18.8646 22.5761 20.2551 23.1425C21.6457 23.7089 23.4063 22.6132 24.1875 20.6952Z" fill="#3C505B"/>
<path d="M21.7501 14.1562C21.7501 14.1562 24.4688 14.5312 25.3126 14.1562C26.1563 13.7812 27.2813 13.875 27.3751 13.125C27.4688 12.2812 26.5313 7.6875 21.1876 5.8125L23.8126 10.0312L21.7501 14.1562ZM7.03131 11.4375C7.03131 11.4375 6.18756 9.84375 7.12506 8.0625C8.06256 6.28125 7.12506 3.5625 7.12506 3.5625L11.8126 5.25C11.8126 5.25 14.5313 6.46875 14.1563 7.78125C13.7813 9.09375 12.4688 11.1562 12.3751 11.25C12.1876 11.4375 11.2501 12.6562 11.2501 12.6562L7.03131 11.4375Z" fill="#9A4C18"/>
<path d="M7.59392 11.8125C7.59392 11.8125 7.40642 9.5625 8.25017 9C9.09392 8.4375 8.43767 5.25 8.43767 5.25L13.1252 6.9375C13.1252 6.9375 15.8439 8.15625 15.4689 9.46875C15.0939 10.7813 13.7814 12.8438 13.6877 12.9375C13.5939 13.0313 12.7502 13.7812 12.7502 13.7812L7.59392 11.8125ZM20.0627 13.6875C20.0627 13.6875 22.7814 14.0625 23.6252 13.6875C24.4689 13.3125 25.5939 13.4062 25.6877 12.6562C25.7814 11.9062 24.8439 7.21875 19.5002 5.34375L22.1252 9.5625L20.0627 13.6875Z" fill="#DB7D1F"/>
<path d="M9.46875 15L4.875 13.5938C3.75 13.2188 2.90625 14.0625 2.90625 15.375L2.4375 18.375C2.4375 19.6875 3.28125 21.0938 4.40625 21.4688L7.03125 22.0313C7.21875 22.125 7.40625 22.0313 7.5 21.9375L8.8125 20.5313C9.09375 20.25 9.5625 20.4375 9.84375 20.9063L11.25 23.4375C11.3438 23.625 11.625 23.8125 11.8125 23.9063L14.625 24.8438C15.9375 25.3125 17.0625 24.5625 17.0625 23.0625L16.7812 19.875C16.7812 18.375 15.6563 16.875 14.3438 16.4063L9.46875 15Z" fill="#CBDEE4"/>
<path d="M23.9945 20.2264C24.5609 18.8359 24.2426 17.392 23.2836 17.0014C22.3245 16.6107 21.088 17.4214 20.5216 18.8119C19.9552 20.2025 20.2735 21.6464 21.2325 22.037C22.1915 22.4276 23.4281 21.617 23.9945 20.2264Z" fill="#CBDEE4"/>
<path d="M4.875 14.625L3.84375 19.3125L5.90625 19.9687L7.03125 15.2812L4.875 14.625Z" fill="white"/>
<path d="M24.0938 17.4375C24.0938 17.4375 28.3125 17.1563 27.9375 15C27.9375 15 29.9062 17.1563 29.4375 18.9375C28.875 20.7188 23.7188 21.2813 23.7188 21.2813C23.7188 21.2813 24.8438 19.3125 24.0938 17.4375ZM3.9375 12.75L7.78125 11.25L6.75 10.6875L2.625 12.375L3.9375 12.75Z" fill="#3C505B"/>
<path d="M10.5002 12.2813C10.5002 12.2813 9.1877 11.8125 10.1252 9.56253C11.0627 7.31253 13.8752 4.21878 13.8752 4.21878L10.7815 0.187526C10.7815 0.187526 15.844 -0.187475 19.5002 3.93753C19.5002 3.93753 23.8127 7.03128 23.8127 8.71878C23.8127 10.4063 25.3127 13.7813 23.5315 14.625C21.844 15.2813 10.969 12.8438 10.5002 12.2813Z" fill="#9A4C18"/>
<path d="M11.1561 12.5625C11.1561 12.5625 10.9686 10.6875 11.7186 9C12.4686 7.21875 14.9061 4.59375 14.9061 4.59375L13.5936 1.5C13.5936 1.5 16.1248 1.59375 18.9373 4.6875C18.9373 4.6875 22.3123 7.03125 22.3123 8.34375C22.3123 9.65625 21.5623 13.6875 20.2498 14.25C18.7498 14.8125 11.5311 13.0312 11.1561 12.5625Z" fill="#F49937"/>
<path d="M13.6875 12L15.5625 7.875L15.6563 3.1875L18.0937 8.25L16.875 13.0312C16.875 13.0312 14.3438 12.9375 13.6875 12Z" fill="#FDE049"/>
<path d="M25.4063 9.9375L24.6562 13.0312L22.5 11.4375L23.3437 13.875L26.8125 13.5937L25.4063 9.9375Z" fill="#9A4C18"/>
<path d="M20.7188 12.0937L22.6875 13.0312L24.9375 11.8125L24.5625 13.5937L23.25 14.0625L19.4063 14.4375L20.7188 12.0937ZM10.4063 8.53125L10.3125 10.7812L11.9062 13.0312L11.5313 12.8437L9.09375 11.9062L8.4375 9.9375L10.4063 8.53125Z" fill="#DB7D1F"/>
<path d="M17.5312 14.5312L19.875 10.5938L19.6875 6.375L18.75 4.5C18.75 4.5 21.1875 6.1875 21.6562 6.75C22.125 7.3125 22.7812 8.90625 22.5937 9.375L21 13.9687L20.1562 14.4375C20.0625 14.4375 18.375 14.8125 17.5312 14.5312Z" fill="#DB7D1F"/>
<path d="M6.75 10.6875C6.75 10.6875 14.0625 15 25.7812 14.1563L24.9375 15.0938C24.9375 15.0938 14.625 16.2188 6.09375 11.5313L6.75 10.6875Z" fill="#3C505B"/>
<path d="M11.0623 8.90625L11.7185 8.8125C11.7185 8.8125 10.8748 10.7813 11.3435 12.1875C11.3435 12.1875 9.65602 11.5313 10.406 8.90625H11.0623Z" fill="#9A4C18"/>
<path d="M21.9375 13.125C21.9375 13.125 24.4688 12.375 24.2812 10.5C24.2812 10.5 24.8438 12 24.375 12.9375C23.9063 13.875 22.4062 13.5 22.4062 13.5L21.9375 13.125Z" fill="#DB7D1F"/>
</g>
<defs>
<clipPath id="clip0_1_11449">
<rect width="30" height="30" fill="white"/>
</clipPath>
</defs>
</svg>
