<svg width="30" height="30" viewBox="0 0 30 30" fill="none" xmlns="http://www.w3.org/2000/svg">
<g clip-path="url(#clip0_1_3395)">
<path d="M21.8438 8.4375C24.1737 8.4375 26.0625 6.5487 26.0625 4.21875C26.0625 1.8888 24.1737 0 21.8438 0C19.5138 0 17.625 1.8888 17.625 4.21875C17.625 6.5487 19.5138 8.4375 21.8438 8.4375Z" fill="#6A8189"/>
<path d="M21.1875 8.34375C23.3621 8.34375 25.125 6.58087 25.125 4.40625C25.125 2.23163 23.3621 0.46875 21.1875 0.46875C19.0129 0.46875 17.25 2.23163 17.25 4.40625C17.25 6.58087 19.0129 8.34375 21.1875 8.34375Z" fill="#425763"/>
<path d="M23.625 4.125C23.625 4.125 28.2188 9.65625 25.0313 16.875L22.4062 6.84375L23.8125 5.34375" fill="#6A8189"/>
<path d="M20.9064 18.5625C22.7814 19.2188 24.4689 20.7188 25.0314 22.875C25.5939 25.125 24.8439 27.75 23.0626 29.0625C21.9376 29.9063 20.6251 30.0937 19.2189 30.0937C16.0314 30.0937 12.9376 29.0625 9.75011 27.9375C8.71886 27.5625 7.59386 27.1875 6.75011 26.5312C5.81261 25.875 5.06261 24.8438 4.87511 23.5313C4.68761 21.8438 5.71886 20.0625 7.03136 19.2188C9.37511 17.7188 11.7189 17.1562 14.1564 17.1562C16.4064 17.1562 18.9376 17.9062 20.9064 18.5625Z" fill="#B74F88"/>
<path d="M20.625 17.1562C22.4062 17.8125 24 19.3125 24.5625 21.4688C25.125 23.7188 24.375 26.3438 22.7812 27.6563C21.75 28.5 20.4375 28.6875 19.2187 28.6875C16.2187 28.6875 13.3125 27.6562 10.3125 26.5312C9.28122 26.1562 8.34372 25.7812 7.40622 25.125C6.46872 24.4688 5.71871 23.4375 5.62496 22.125C5.43746 20.4375 6.37496 18.75 7.68746 17.8125C9.84371 16.3125 12.0937 15.75 14.4375 15.75C16.3125 15.75 18.75 16.5 20.625 17.1562Z" fill="#F29EDE"/>
<path d="M19.4063 18.1875C19.4063 18.1875 14.3438 20.25 10.7813 26.0625C10.7813 26.0625 9.46879 21.0938 10.2188 17.4375C10.2188 17.4375 15.2813 19.6875 19.4063 18.1875Z" fill="#B74F88"/>
<path d="M17.5313 18.1875C17.5313 18.1875 13.7813 19.6875 11.0625 24.0938C11.0625 24.0938 10.125 20.3438 10.6875 17.625C10.6875 17.625 14.5313 19.3125 17.5313 18.1875Z" fill="#FAEACF"/>
<path opacity="0.6" d="M8.0625 17.625C8.0625 17.625 9.5625 21.2813 11.25 21.6563C12.9375 22.0313 16.125 22.5938 20.0625 18.75L8.0625 17.625Z" fill="#B74F88"/>
<path opacity="0.28" d="M21.9141 24.7843C22.5371 22.8635 21.9641 20.9568 20.6343 20.5256C19.3046 20.0943 17.7216 21.3017 17.0987 23.2225C16.4757 25.1432 17.0487 27.0499 18.3784 27.4812C19.7082 27.9125 21.2912 26.705 21.9141 24.7843Z" fill="white"/>
<path d="M8.53116 16.0312C8.53116 16.0312 8.43741 16.2188 8.24991 16.5C7.31241 17.4375 5.62491 17.0625 5.24991 15.75C4.49991 13.0312 3.65616 7.40625 8.81241 3.09375L8.53116 16.0312Z" fill="#425763"/>
<path d="M7.59375 4.40629C7.59375 4.40629 8.15625 6.65629 11.1562 6.84379C14.1562 7.03129 24.5625 5.43754 24.5625 5.43754C24.5625 5.43754 21.9375 0.281291 15.4687 4.13982e-05C10.5937 -0.187459 7.96875 3.65629 7.59375 4.40629Z" fill="#6A8189"/>
<path d="M20.3438 4.96876L21.375 9.46876C21.375 9.46876 15.6562 11.4375 6.75 7.31251C6.75 7.31251 6.75 4.31251 9.5625 2.34376C12.375 0.375006 20.3438 4.96876 20.3438 4.96876Z" fill="#6A8189"/>
<path d="M24.1012 11.3416C24.1195 6.26749 20.0211 2.1392 14.947 2.12082C9.87284 2.10243 5.74455 6.20091 5.72616 11.275C5.70778 16.3491 9.80625 20.4774 14.8804 20.4958C19.9545 20.5142 24.0828 16.4157 24.1012 11.3416Z" fill="#A67A65"/>
<path d="M23.6998 10.7368C23.7176 5.818 19.7446 1.81609 14.8258 1.79826C9.90699 1.78044 5.90508 5.75346 5.88725 10.6722C5.86943 15.591 9.84244 19.5929 14.7612 19.6108C19.68 19.6286 23.6819 15.6556 23.6998 10.7368Z" fill="#E5A98C"/>
<path d="M23.5915 10.4107C23.6085 5.69901 19.8868 1.8659 15.2786 1.8492C10.6705 1.83251 6.92103 5.63854 6.90396 10.3502C6.88689 15.0619 10.6087 18.895 15.2168 18.9117C19.8249 18.9284 23.5744 15.1224 23.5915 10.4107Z" fill="#E8CCAA"/>
<path d="M19.094 11.6332C19.1066 8.16411 16.3885 5.34201 13.0231 5.32982C9.65757 5.31763 6.91912 8.11995 6.90655 11.589C6.89398 15.058 9.61205 17.8801 12.9775 17.8923C16.343 17.9045 19.0815 15.1022 19.094 11.6332Z" fill="#FAEACF"/>
<path d="M7.6875 4.31252C7.6875 4.31252 8.25 6.37502 11.0625 6.65627C13.875 6.93752 23.8125 5.34377 23.8125 5.34377C23.8125 5.34377 21.2812 0.468769 15.2812 0.187519C10.5937 -0.0937307 8.0625 3.65627 7.6875 4.31252Z" fill="#425763"/>
<path d="M15.8598 12.2776C15.8617 11.7598 15.4855 11.3387 15.0195 11.337C14.5535 11.3354 14.1742 11.7537 14.1723 12.2715C14.1705 12.7893 14.5467 13.2104 15.0127 13.212C15.4787 13.2137 15.858 12.7954 15.8598 12.2776Z" fill="#425763"/>
<path d="M15.2998 11.9656C15.3004 11.8103 15.2169 11.684 15.1134 11.6837C15.0098 11.6833 14.9254 11.8089 14.9248 11.9642C14.9243 12.1196 15.0078 12.2458 15.1113 12.2462C15.2149 12.2465 15.2993 12.1209 15.2998 11.9656Z" fill="white"/>
<path d="M9.22752 10.8165C9.22939 10.2988 8.85316 9.87767 8.38716 9.87598C7.92117 9.87429 7.54189 10.2927 7.54002 10.8104C7.53814 11.3282 7.91438 11.7493 8.38037 11.751C8.84636 11.7527 9.22564 11.3343 9.22752 10.8165Z" fill="#425763"/>
<path d="M8.76127 10.5049C8.76184 10.3496 8.67835 10.2233 8.57479 10.223C8.47124 10.2226 8.38684 10.3482 8.38627 10.5035C8.38571 10.6589 8.4692 10.7851 8.57275 10.7855C8.67631 10.7858 8.76071 10.6602 8.76127 10.5049Z" fill="white"/>
<path d="M20.8125 12.0001C20.8125 12.0001 21.5625 11.4376 22.125 11.6251C22.6875 11.8126 22.5937 13.7813 21.0937 13.9688L20.8125 12.0001Z" fill="#FAEACF"/>
<path d="M18 5.53135C18 5.53135 20.0625 9.1876 19.6875 15.0938C19.5 17.9063 22.9687 19.3126 24.8437 17.1563L24.9375 17.0626C26.4375 15.2813 25.3125 10.3126 24.375 7.03135C23.8125 5.0626 21.9375 4.3126 19.9687 4.8751L18 5.53135Z" fill="#425763"/>
<path d="M19.7813 4.7813L20.8125 9.0938C20.8125 9.0938 14.9062 11.25 6.46875 7.31255C6.46875 7.31255 6.9375 4.2188 9.5625 2.3438C12.1875 0.468797 19.7813 4.7813 19.7813 4.7813Z" fill="#425763"/>
<path d="M7.21875 6.5625C7.21875 6.5625 7.96875 5.53125 8.90625 5.53125C9.84375 5.53125 13.7812 8.15625 19.9687 7.3125C19.9687 7.3125 18.75 8.53125 17.3438 8.71875C15.8438 8.8125 10.5 8.34375 7.21875 6.5625Z" fill="#6A8189"/>
<path d="M13.2188 16.4062C13.2188 16.4062 12.375 16.3125 11.8125 15.8437C11.25 15.375 10.6875 15.4687 10.5 15.4687C10.4062 15.4687 10.2188 15.2813 10.0312 15.1875C9.84375 15.0938 9.5625 15.0938 9.5625 15.1875C9.5625 15.2813 9.84375 15.75 9.84375 15.75C9.84375 15.75 9.9375 16.125 9.84375 16.3125C9.75 16.5 9.84375 17.1562 10.5 17.25C11.1562 17.4375 11.625 17.3437 11.9062 17.1562C12 17.0625 13.2188 16.4062 13.2188 16.4062Z" fill="#A67A65"/>
<path d="M25.6875 8.625C25.6875 8.625 20.7188 4.96875 14.1562 4.40625C7.59375 3.84375 6.84375 5.34375 6.84375 5.34375L9 2.4375C9 2.4375 16.9688 2.4375 20.8125 4.125C24.6562 5.8125 25.3125 6.84375 25.3125 6.84375L25.6875 8.625Z" fill="#F29EDE"/>
<path opacity="0.28" d="M8.625 3.93745L9.65625 2.9062C9.65625 2.9062 15.375 2.43745 19.4063 4.5937C19.4063 4.68745 13.125 3.37495 8.625 3.93745Z" fill="white"/>
</g>
<defs>
<clipPath id="clip0_1_3395">
<rect width="30" height="30" fill="white"/>
</clipPath>
</defs>
</svg>
