<svg width="30" height="30" viewBox="0 0 30 30" fill="none" xmlns="http://www.w3.org/2000/svg">
<g clip-path="url(#clip0_1_5452)">
<path d="M19.2936 19.6876C20.1907 19.9829 21.0016 20.4937 21.6554 21.1753C22.3092 21.8569 22.7858 22.6884 23.0436 23.597C23.3106 24.5965 23.2886 25.6512 22.9799 26.6387C22.6712 27.6261 22.0886 28.5057 21.2998 29.1751C20.2764 29.849 19.0641 30.1775 17.8404 30.1126C14.9717 30.1126 12.1217 29.1751 9.25295 28.1813C8.27206 27.8982 7.33965 27.4683 6.48732 26.9063C6.03833 26.5966 5.65772 26.198 5.36906 25.7352C5.0804 25.2723 4.88984 24.7552 4.8092 24.2157C4.75429 23.4484 4.90836 22.6806 5.25502 21.9938C5.60168 21.3071 6.12798 20.7272 6.77795 20.3157C8.70247 19.0596 10.9582 18.4068 13.2561 18.4407C15.3181 18.5638 17.3515 18.9838 19.2936 19.6876Z" fill="#1D282C"/>
<path d="M19.2938 18.4124C20.1925 18.7048 21.0051 19.2147 21.6593 19.8967C22.3135 20.5787 22.7891 21.4117 23.0438 22.3218C23.3182 23.3281 23.2999 24.3919 22.991 25.3882C22.6821 26.3845 22.0956 27.2721 21.3001 27.9468C20.28 28.6281 19.0652 28.9574 17.8407 28.8843C14.972 28.8843 12.122 27.9468 9.25321 26.9624C8.27233 26.6793 7.33991 26.2494 6.48759 25.6874C6.03937 25.3769 5.65932 24.978 5.37075 24.5153C5.08218 24.0527 4.89118 23.5359 4.80947 22.9968C4.75384 22.2281 4.90752 21.4587 5.25417 20.7703C5.60082 20.082 6.1275 19.5004 6.77822 19.0874C8.7044 17.835 10.959 17.1824 13.2563 17.2124C15.316 17.3205 17.3494 17.7246 19.2938 18.4124Z" fill="#3B3B3B"/>
<path d="M16.2189 19.3125C13.7746 20.4803 11.7225 22.3337 10.3127 24.6469C9.81793 22.7382 9.69382 20.7523 9.94704 18.7969C9.94704 18.7969 13.4439 20.3344 16.2189 19.3125Z" fill="#E5A98C"/>
<path d="M7.95002 17.6437C7.95002 17.6437 7.57502 18.6468 5.36252 18.6468C5.36252 18.6468 1.51877 11.8405 8.2219 7.13428L7.95002 17.6437Z" fill="#8F8A78"/>
<path d="M16.9595 6.76882C16.9595 6.76882 20.1188 12.3094 17.7563 20.6813C18.8695 20.6317 19.9609 20.3569 20.9648 19.8735C21.9687 19.3901 22.8641 18.7081 23.597 17.8688C25.0595 16.1157 23.9438 11.3813 23.0345 8.28757C22.4813 6.41257 20.7095 5.70007 18.8251 6.25319L16.9595 6.76882Z" fill="#8F8A78"/>
<path d="M8.02515 16.9779C8.02515 16.9779 7.65953 17.9154 5.55953 17.9154C5.55953 17.9154 1.92203 11.5123 8.27828 7.09668L8.02515 16.9779Z" fill="#F4EACD"/>
<path d="M7.125 6.20613C7.36004 6.87154 7.7994 7.44563 8.38029 7.84636C8.96117 8.24709 9.65387 8.45395 10.3594 8.43738C13.0781 8.64363 22.5469 7.1905 22.5469 7.1905C21.7017 5.74246 20.5074 4.52913 19.0728 3.66121C17.6383 2.79329 16.0093 2.29842 14.3344 2.22175C12.885 2.17341 11.4495 2.51826 10.1802 3.21974C8.91096 3.92123 7.85522 4.95317 7.125 6.20613Z" fill="#8F8A78"/>
<path d="M18.6842 6.67503L19.6217 10.7813C19.6217 10.7813 14.4092 12.5907 6.34668 8.80316C6.39936 7.90909 6.65564 7.03889 7.09596 6.25899C7.53628 5.47909 8.14899 4.81012 8.8873 4.30316C11.4186 2.55941 18.6842 6.67503 18.6842 6.67503Z" fill="#6A8189"/>
<path d="M22.1096 12.5171C22.1266 7.89863 18.4047 4.14094 13.7966 4.12405C9.1885 4.10716 5.43918 7.83746 5.42225 12.4559C5.40532 17.0744 9.1272 20.8321 13.7353 20.8489C18.3434 20.8658 22.0927 17.1355 22.1096 12.5171Z" fill="#A67A65"/>
<path d="M21.7435 11.9047C21.7599 7.4312 18.151 3.79145 13.6827 3.77508C9.21436 3.7587 5.5788 7.37189 5.5624 11.8454C5.54601 16.3188 9.15499 19.9586 13.6233 19.975C18.0916 19.9913 21.7271 16.3782 21.7435 11.9047Z" fill="#E5A98C"/>
<path d="M21.6327 11.6769C21.6485 7.37945 18.2866 3.88332 14.1238 3.86806C9.96097 3.85281 6.57357 7.3242 6.55782 11.6216C6.54207 15.9191 9.90393 19.4152 14.0667 19.4305C18.2296 19.4457 21.617 15.9743 21.6327 11.6769Z" fill="#E8CCAA"/>
<path d="M17.5097 12.742C17.5212 9.6095 15.0708 7.06112 12.0368 7.05C9.00266 7.03888 6.53373 9.56923 6.52225 12.7017C6.51077 15.8342 8.96108 18.3826 11.9952 18.3937C15.0293 18.4048 17.4982 15.8744 17.5097 12.742Z" fill="#FAEACF"/>
<path d="M7.2373 6.13104C7.46104 6.76257 7.87918 7.30693 8.43168 7.68593C8.98417 8.06492 9.64257 8.25905 10.3123 8.24041C12.8811 8.43729 21.8529 7.05916 21.8529 7.05916C21.0482 5.69222 19.9152 4.54765 18.5564 3.72914C17.1977 2.91063 15.6562 2.44405 14.0717 2.37166C12.6995 2.32464 11.3401 2.64913 10.1372 3.31085C8.93417 3.97257 7.93227 4.94695 7.2373 6.13104Z" fill="#F4EACD"/>
<path d="M14.6194 13.3454C14.6212 12.8587 14.2869 12.463 13.8727 12.4615C13.4585 12.4599 13.1212 12.8532 13.1194 13.3399C13.1177 13.8266 13.452 14.2224 13.8662 14.2239C14.2804 14.2255 14.6176 13.8321 14.6194 13.3454Z" fill="#3C505B"/>
<path d="M14.1795 13.0327C14.18 12.9085 14.0964 12.8074 13.9929 12.807C13.8893 12.8067 13.805 12.9071 13.8045 13.0313C13.8041 13.1556 13.8877 13.2567 13.9912 13.257C14.0948 13.2574 14.1791 13.157 14.1795 13.0327Z" fill="white"/>
<path d="M8.61601 11.4729C8.6178 10.9862 8.28346 10.5904 7.86925 10.5889C7.45504 10.5874 7.11781 10.9807 7.11602 11.4674C7.11424 11.9541 7.44858 12.3499 7.86279 12.3514C8.277 12.3529 8.61423 11.9596 8.61601 11.4729Z" fill="#3C505B"/>
<path d="M8.17612 11.1602C8.17657 11.0359 8.09299 10.9349 7.98944 10.9345C7.88589 10.9341 7.80157 11.0345 7.80112 11.1588C7.80066 11.2831 7.88424 11.3841 7.98779 11.3845C8.09134 11.3849 8.17566 11.2844 8.17612 11.1602Z" fill="white"/>
<path d="M19.1436 13.1251C19.1436 13.1251 19.8186 12.6001 20.3717 12.8063C20.9248 13.0126 20.8404 14.7563 19.4342 14.9532L19.1436 13.1251Z" fill="#FAEACF"/>
<path d="M16.5562 6.67496C16.5562 6.67496 19.5562 11.9156 17.3062 19.8562C18.3659 19.8058 19.4044 19.5404 20.3585 19.0763C21.3125 18.6121 22.1623 17.9589 22.8562 17.1562C24.2343 15.4968 23.1843 11.0156 22.3124 8.08121C21.7874 6.29996 20.1187 5.63434 18.328 6.14996L16.5562 6.67496Z" fill="#F4EACD"/>
<path d="M18.1968 6.56261L19.1343 10.4626C19.1343 10.4626 13.7437 12.422 6.10303 8.83136C6.42979 7.02659 7.43644 5.41594 8.91553 4.33136C11.3062 2.68136 18.1968 6.56261 18.1968 6.56261Z" fill="#F4EACD"/>
<path d="M6.7876 8.15625C6.96834 7.89695 7.20232 7.67919 7.47392 7.51752C7.74552 7.35586 8.04849 7.254 8.3626 7.21875C9.25322 7.21875 12.7688 9.64688 18.4032 8.82188C17.7475 9.48402 16.9023 9.92625 15.9845 10.0875C12.8134 10.1349 9.67171 9.47517 6.7876 8.15625Z" fill="white"/>
<path d="M18.4781 17.925C18.4781 17.925 21 17.3063 21.4125 16.1156C21.825 14.925 21.1687 7.875 21.1687 7.875C22.0766 10.5265 22.5267 13.3131 22.5 16.1156C21.537 17.4693 20.0963 18.4074 18.4688 18.7406L18.4781 17.925Z" fill="white"/>
<path d="M11.4561 9.51585C11.0035 9.80867 10.459 9.92464 9.92647 9.84164C9.39389 9.75865 8.91052 9.48249 8.56855 9.06585C8.38495 8.86424 8.26437 8.6133 8.22168 8.34397C8.22168 7.6596 12.1498 6.0846 13.3123 7.06897C14.0623 7.6596 12.6467 8.7471 11.4561 9.51585Z" fill="#BF6922"/>
<path d="M19.4907 11.9437C22.1572 11.9437 24.3188 10.9195 24.3188 9.65615C24.3188 8.3928 22.1572 7.36865 19.4907 7.36865C16.8242 7.36865 14.6626 8.3928 14.6626 9.65615C14.6626 10.9195 16.8242 11.9437 19.4907 11.9437Z" fill="#CCCDD1"/>
<path d="M19.3594 11.3533C22.0259 11.3533 24.1875 10.3292 24.1875 9.06582C24.1875 7.80247 22.0259 6.77832 19.3594 6.77832C16.6929 6.77832 14.5312 7.80247 14.5312 9.06582C14.5312 10.3292 16.6929 11.3533 19.3594 11.3533Z" fill="#1D282C"/>
<path d="M6.15923 8.35303C6.15923 8.35303 3.93735 10.003 4.68735 11.2499C5.43735 12.4968 8.52173 15.553 16.753 11.6905L6.15923 8.35303Z" fill="#3B3B3B"/>
<path d="M6.74072 5.82178L5.99072 9.04678C5.99072 9.04678 8.5126 13.2843 19.7532 11.9249L20.2688 10.7062L6.74072 5.82178Z" fill="#CCCDD1"/>
<path d="M6.94687 5.0625L6.14062 8.2875C6.14062 8.2875 8.6625 12.4781 20.2875 11.325C20.4974 11.289 20.6963 11.2052 20.8686 11.08C21.0409 10.9548 21.1821 10.7917 21.2813 10.6031L21.5813 9.95625L6.94687 5.0625Z" fill="#1D282C"/>
<path d="M6.12178 0.993652L5.11865 1.05928C5.11865 1.05928 5.2874 5.74678 8.24053 7.20928C10.701 8.52031 13.3786 9.37473 16.1437 9.73115C18.5718 10.003 21.9655 10.378 24.0468 9.2999L6.12178 0.993652Z" fill="#3B3B3B"/>
<path d="M10.1436 3.74977C9.52866 2.91982 8.64895 2.32453 7.64985 2.06227C6.12173 1.76227 3.89986 1.12477 5.86861 0.402894C7.83735 -0.318981 12.1217 0.131019 15.7124 1.45289C18.6643 2.50285 21.3159 4.25661 23.4374 6.56227C25.2374 8.43727 24.1592 9.64664 23.4374 9.60914C22.7155 9.57164 20.7186 8.96227 17.1561 6.79664C14.9733 5.45666 12.6126 4.43095 10.1436 3.74977Z" fill="#3B3B3B"/>
<path d="M9.61165 9.43243C10.2507 9.30103 10.5937 8.34346 10.3778 7.29365C10.1619 6.24384 9.46891 5.49932 8.82989 5.63073C8.19088 5.76213 7.84785 6.71969 8.06373 7.7695C8.27961 8.81932 8.97264 9.56383 9.61165 9.43243Z" fill="#CCCDD1"/>
<path d="M11.2501 3.54392C10.5065 3.10966 9.70008 2.7934 8.85951 2.60642C7.59389 2.40017 5.62514 1.95017 7.25639 1.35954C8.88764 0.768919 12.5908 1.12517 15.5814 2.16579C17.9958 2.96437 20.1868 4.32332 21.9751 6.13142C23.4751 7.62204 23.3064 8.34392 22.7158 8.31579C20.6067 8.10515 18.5721 7.42267 16.7626 6.31892C14.9782 5.29205 13.1378 4.36561 11.2501 3.54392Z" fill="#898989"/>
<path d="M6.5251 9.8626L6.69385 8.82197L6.14072 8.2876L5.4751 9.4501L6.5251 9.8626Z" fill="#3B3B3B"/>
<path d="M22.9687 10.1156L22.6312 11.4281C22.6114 11.5144 22.6094 11.6039 22.6256 11.691C22.6417 11.7781 22.6755 11.8609 22.725 11.9344C22.781 12.0156 22.8559 12.082 22.9433 12.1278C23.0307 12.1737 23.1279 12.1977 23.2265 12.1977C23.3252 12.1977 23.4224 12.1737 23.5098 12.1278C23.5971 12.082 23.6721 12.0156 23.7281 11.9344C24.0653 11.4249 24.2964 10.8526 24.4076 10.2518C24.5187 9.65099 24.5076 9.03393 24.375 8.4375L23.3718 8.89687L22.9687 10.1156Z" fill="#3B3B3B"/>
<path d="M17.5032 18.75C17.5032 18.75 17.4001 19.6875 18.0376 19.6875V20.625C18.0376 20.625 16.6314 20.7562 16.8845 19.8844C16.9887 19.4589 17.202 19.068 17.5032 18.75Z" fill="#8F8A78"/>
<path d="M16.4248 20.4282L16.3592 22.8188L14.0623 23.297L13.6311 26.2501L10.5186 26.7938C10.5186 26.7938 11.8123 21.5626 16.4248 20.4282Z" fill="#898989"/>
<path d="M9.2624 19.125L7.44365 20.8312L8.91553 21.5625L7.2749 22.9875L9.8249 24.7969C9.8249 24.7969 8.8124 20.4562 9.2624 19.125Z" fill="#898989"/>
<path opacity="0.28" d="M21.3937 24.898C21.9655 23.1348 21.447 21.3869 20.2354 20.994C19.0238 20.601 17.578 21.7118 17.0062 23.475C16.4343 25.2381 16.9529 26.986 18.1644 27.379C19.376 27.772 20.8218 26.6612 21.3937 24.898Z" fill="#898989"/>
<path d="M12.075 17.2405C11.6058 17.1687 11.1598 16.989 10.7719 16.7155C10.6088 16.5842 10.4211 16.4867 10.2199 16.4287C10.0187 16.3708 9.80796 16.3535 9.6 16.378C9.49687 16.378 9.3375 16.2186 9.16875 16.1343C9 16.0499 8.7375 16.0218 8.71875 16.1343C8.75988 16.3174 8.83286 16.492 8.93437 16.6499C8.95965 16.8208 8.95965 16.9946 8.93437 17.1655C8.89828 17.358 8.93887 17.5569 9.04748 17.7198C9.15609 17.8827 9.3241 17.9967 9.51562 18.0374C9.92654 18.1586 10.3666 18.1354 10.7625 17.9718C11.025 17.8124 12.075 17.2405 12.075 17.2405Z" fill="#ED949A"/>
<path d="M23.9719 24.4592C24.8348 24.5105 25.6719 24.7734 26.4093 25.2246C27.1466 25.6759 27.7616 26.3016 28.2 27.0467C28.3036 27.2115 28.3725 27.3957 28.4026 27.5879C28.4327 27.7802 28.4233 27.9767 28.3751 28.1652C28.3268 28.3538 28.2407 28.5306 28.122 28.6848C28.0033 28.839 27.8544 28.9675 27.6844 29.0623C26.4746 29.7204 25.1194 30.0651 23.7422 30.0651C22.365 30.0651 21.0098 29.7204 19.8 29.0623C19.4469 28.8415 19.1943 28.4912 19.0961 28.0865C18.998 27.6818 19.0622 27.2547 19.275 26.8967C19.7754 26.1163 20.4714 25.4807 21.2938 25.053C22.1163 24.6254 23.0364 24.4206 23.9625 24.4592H23.9719Z" fill="#425763"/>
<path d="M23.9341 25.0315C24.6574 25.0656 25.3626 25.2691 25.9928 25.6258C26.623 25.9824 27.1606 26.4821 27.5623 27.0846C27.6571 27.2158 27.7215 27.3666 27.7506 27.5259C27.7798 27.6852 27.773 27.8489 27.7308 28.0053C27.6885 28.1616 27.6119 28.3065 27.5066 28.4294C27.4012 28.5524 27.2697 28.6502 27.1216 28.7159C26.0499 29.217 24.8779 29.4665 23.695 29.4454C22.5121 29.4243 21.3497 29.133 20.2966 28.594C20.1555 28.5205 20.0319 28.4175 19.9343 28.292C19.8366 28.1664 19.7671 28.0213 19.7307 27.8664C19.6942 27.7116 19.6915 27.5507 19.7229 27.3948C19.7542 27.2388 19.8188 27.0914 19.9123 26.9627C20.3611 26.3325 20.9613 25.8252 21.6576 25.4878C22.3538 25.1503 23.1238 24.9934 23.8966 25.0315H23.9341Z" fill="#A2B6BA"/>
<path d="M23.9158 25.1154C24.5062 25.1405 25.0822 25.3048 25.5971 25.5948C26.1119 25.8848 26.5509 26.2923 26.8783 26.7842C26.9488 26.8945 26.9954 27.0184 27.0151 27.1478C27.0348 27.2772 27.0272 27.4093 26.9927 27.5356C26.9583 27.6619 26.8978 27.7795 26.8151 27.881C26.7324 27.9825 26.6294 28.0656 26.5127 28.1248C25.6395 28.5327 24.6846 28.7355 23.7211 28.7176C22.7575 28.6998 21.8108 28.4617 20.9533 28.0217C20.841 27.959 20.7428 27.8739 20.6648 27.7717C20.5868 27.6694 20.5307 27.5522 20.4999 27.4274C20.4691 27.3025 20.4644 27.1727 20.4859 27.0459C20.5075 26.9191 20.5549 26.7981 20.6252 26.6904C20.99 26.1765 21.4784 25.7627 22.0453 25.4875C22.6123 25.2122 23.2395 25.0842 23.8689 25.1154H23.9158Z" fill="#87999B"/>
<path d="M23.5501 27.7594C26.9052 27.7594 29.6251 25.0395 29.6251 21.6844C29.6251 18.3292 26.9052 15.6094 23.5501 15.6094C20.195 15.6094 17.4751 18.3292 17.4751 21.6844C17.4751 25.0395 20.195 27.7594 23.5501 27.7594Z" fill="#425763"/>
<path d="M23.5499 26.8874C26.5322 26.8874 28.9499 24.4697 28.9499 21.4874C28.9499 18.5051 26.5322 16.0874 23.5499 16.0874C20.5676 16.0874 18.1499 18.5051 18.1499 21.4874C18.1499 24.4697 20.5676 26.8874 23.5499 26.8874Z" fill="#A2B6BA"/>
<path d="M23.7658 26.0248C26.5203 26.0248 28.7533 23.7918 28.7533 21.0373C28.7533 18.2828 26.5203 16.0498 23.7658 16.0498C21.0113 16.0498 18.7783 18.2828 18.7783 21.0373C18.7783 23.7918 21.0113 26.0248 23.7658 26.0248Z" fill="#CBDEE4"/>
<path d="M26.5032 20.6158C27.1142 20.6158 27.6095 20.1205 27.6095 19.5096C27.6095 18.8986 27.1142 18.4033 26.5032 18.4033C25.8923 18.4033 25.397 18.8986 25.397 19.5096C25.397 20.1205 25.8923 20.6158 26.5032 20.6158Z" fill="#425763"/>
<path d="M26.5499 20.1096C26.9175 20.1096 27.2155 19.8116 27.2155 19.4439C27.2155 19.0763 26.9175 18.7783 26.5499 18.7783C26.1823 18.7783 25.8843 19.0763 25.8843 19.4439C25.8843 19.8116 26.1823 20.1096 26.5499 20.1096Z" fill="#4ED154"/>
<path d="M22.5468 19.0781C22.634 18.5277 22.8328 18.0009 23.1311 17.5302C23.4293 17.0594 23.8207 16.6546 24.2812 16.3406C24.478 16.2281 24.4405 16.1062 24.2249 16.0781H23.9343C23.6999 16.0781 22.0593 16.1531 21.478 19.1625L22.5468 19.0781Z" fill="#A2B6BA"/>
<path d="M25.3938 22.2373C25.4007 20.3423 23.9709 18.8008 22.2001 18.7943C20.4294 18.7878 18.9883 20.3188 18.9813 22.2138C18.9744 24.1088 20.4042 25.6503 22.175 25.6568C23.9457 25.6633 25.3868 24.1323 25.3938 22.2373Z" fill="#425763"/>
<path d="M24.7095 22.084C24.7147 20.6394 23.6235 19.4643 22.2722 19.4594C20.9208 19.4544 19.821 20.6215 19.8157 22.066C19.8104 23.5106 20.9016 24.6857 22.253 24.6906C23.6044 24.6956 24.7042 23.5285 24.7095 22.084Z" fill="#3587C4"/>
<path d="M24.3067 21.9884C24.3111 20.7872 23.4038 19.81 22.2803 19.8059C21.1567 19.8018 20.2424 20.7722 20.238 21.9735C20.2335 23.1747 21.1408 24.1518 22.2643 24.1559C23.3879 24.16 24.3023 23.1896 24.3067 21.9884Z" fill="#4DA3EC"/>
<path d="M23.4179 20.9857C23.4191 20.6699 23.1514 20.4129 22.82 20.4117C22.4886 20.4105 22.2191 20.6655 22.2179 20.9814C22.2168 21.2972 22.4844 21.5542 22.8158 21.5554C23.1472 21.5566 23.4168 21.3016 23.4179 20.9857Z" fill="white"/>
<path d="M23.6908 17.5124C23.9356 17.2473 24.1988 16.9999 24.4783 16.7718C24.5302 16.7299 24.5913 16.7012 24.6566 16.6882C24.7219 16.6751 24.7894 16.6781 24.8533 16.6968C25.3899 16.8545 25.9036 17.0814 26.3815 17.3718C26.4601 17.4214 26.5201 17.4957 26.5522 17.583C26.5842 17.6703 26.5865 17.7658 26.5587 17.8545C26.5309 17.9433 26.4746 18.0204 26.3984 18.0738C26.3223 18.1272 26.2306 18.154 26.1377 18.1499C25.4406 18.1056 24.7409 18.1245 24.0471 18.2061C23.9639 18.213 23.8805 18.1951 23.8074 18.1546C23.7344 18.114 23.6751 18.0527 23.6369 17.9784C23.5988 17.9041 23.5835 17.8202 23.5931 17.7372C23.6027 17.6543 23.6367 17.576 23.6908 17.5124Z" fill="#E1F0F4"/>
</g>
<defs>
<clipPath id="clip0_1_5452">
<rect width="30" height="30" fill="white"/>
</clipPath>
</defs>
</svg>
