<svg width="30" height="30" viewBox="0 0 30 30" fill="none" xmlns="http://www.w3.org/2000/svg">
<g clip-path="url(#clip0_1_5067)">
<path d="M16.2188 22.5938L8.90626 26.9063C8.90626 26.9063 15.375 28.6876 18.6563 27.7501C20.625 27.1876 22.125 24.2813 22.125 24.2813L16.2188 22.5938ZM12.6563 23.0626L6.84376 15.0001C6.84376 15.0001 3.18751 5.53133 2.71876 5.34383C2.25001 5.15633 1.78126 5.06258 0.37501 6.09383C-1.03124 7.12508 2.34376 15.9376 2.34376 15.9376L6.84376 24.0001C6.75001 24.1876 11.9063 24.0001 12.6563 23.0626Z" fill="#C48051"/>
<path d="M13.4063 21.8436L7.59376 13.7812L4.59376 5.8124C4.12501 5.6249 2.53126 4.6874 1.12501 5.8124C-0.28124 6.9374 3.09376 14.9062 3.09376 14.9062L7.50001 22.9687C7.50001 22.9687 12.6563 22.6874 13.4063 21.8436Z" fill="#C48051"/>
<path d="M13.6875 22.4062L7.87501 14.3437L4.87501 6.37499C4.40626 6.18749 2.81251 5.34374 1.40626 6.37499C1.04904e-05 7.40624 3.37501 15.4687 3.37501 15.4687L7.78126 23.625C7.78126 23.5312 12.9375 23.3437 13.6875 22.4062Z" fill="#FCC097"/>
<path d="M3.37518 9.5625C3.37518 9.5625 2.25018 6.28125 2.34393 5.8125C2.43768 5.34375 4.03143 4.59375 4.59393 4.96875C5.15643 5.34375 6.18768 7.96875 6.37518 9.09375C6.37518 9.09375 4.59393 9.9375 3.37518 9.5625Z" fill="#DD4568"/>
<path d="M6.75 24.0938L8.90625 26.9063L16.2187 24.5625L12.1875 23.25L6.75 24.0938Z" fill="#C48051"/>
<path d="M5.90625 9.75L9.28125 18.2812C9.9375 20.1562 12.8437 21.4688 15.2812 21.1875C17.7187 20.9063 21 21 21.9375 19.5938C22.875 18.2812 26.3438 10.5 28.4062 9.09375C28.4062 9.09375 26.25 10.9688 24.1875 12.2813C22.125 13.5938 19.4062 17.3438 16.2187 17.25C13.0312 17.1562 10.5938 16.5938 9.1875 14.0625C7.78125 11.5313 6.84375 9.375 6.84375 9.375L5.90625 9.75Z" fill="#4C2537"/>
<path d="M6.09375 8.81234C6.09375 8.81234 7.78125 15.6561 15.1875 15.2811C22.5938 14.9061 27.375 9.37484 27.375 9.37484C27.375 9.37484 20.0625 6.93734 18.0937 6.46859C16.125 5.99984 10.9687 6.09359 10.9687 6.09359L6.09375 8.81234Z" fill="#4C2537"/>
<path d="M8.625 7.21875C8.625 7.21875 13.2188 10.6875 21.6563 8.15625L19.2188 7.03125L9.5625 6.09375L8.625 7.21875Z" fill="white"/>
<path d="M5.625 8.90627C5.625 8.90627 7.40625 6.56252 7.78125 5.34377C8.15625 4.12502 9.5625 2.62502 11.4375 3.56252C13.3125 4.50002 14.625 4.50002 15.4688 4.03127C16.3125 3.65627 18 2.71877 19.5938 3.37502C21.0938 4.03127 25.5 7.59377 28.6875 8.25002C28.7813 8.25002 28.7813 8.43752 28.6875 8.43752C28.3125 8.53127 27.8438 8.62502 27.2813 8.62502C26.3438 8.62502 19.875 5.81252 18.9375 5.43752C18 5.06252 14.625 6.09377 12.8438 5.81252C11.1562 5.62502 9.09375 6.46877 9.09375 6.46877C9.09375 6.46877 6.65625 9.28127 5.625 8.90627Z" fill="#960F4E" stroke="#960F4E" stroke-width="0.364875" stroke-miterlimit="10"/>
<path d="M5.8125 8.90646C5.8125 8.90646 7.96875 7.03146 8.90625 5.25021C9.84375 3.46896 12.4688 4.96896 13.3125 5.25021C14.0625 5.62521 15.5625 5.15646 16.5938 4.78146C17.625 4.31271 19.125 3.93771 20.625 4.96896C22.125 6.00021 26.5312 8.25021 28.5938 8.62521C28.5938 8.62521 26.9063 9.93771 23.5313 9.00021C20.1563 8.06271 19.4062 7.50021 17.4375 7.68771C15.4688 7.87521 12.5625 7.87521 10.6875 7.03146C10.6875 7.03146 10.125 6.65646 9.09375 7.40646C8.0625 8.15646 6 8.90646 5.8125 8.90646Z" fill="#960F0F"/>
<path d="M5.8125 9.00021C5.8125 9.00021 7.96875 6.65646 8.90625 4.87521C9.84375 3.09396 12.4688 4.59396 13.3125 4.87521C14.1562 5.15646 15.6562 4.78146 16.6875 4.31271C17.7187 3.84396 19.2188 3.46896 20.7188 4.50021C22.2188 5.53146 26.4375 8.25021 28.5938 8.62521C28.5938 8.62521 27.0937 9.46896 23.7187 8.53146C20.3437 7.59396 19.5 7.12521 17.625 7.31271C15.5625 7.50021 12.5625 7.50021 10.6875 6.75021C10.6875 6.75021 10.125 6.37521 9.09375 7.12521C8.0625 7.87521 6 9.00021 5.8125 9.00021Z" fill="#DD4568"/>
<path d="M5.34375 9L8.71875 17.5313C9.375 19.4063 12.2812 20.7187 14.7188 20.4375C17.1562 20.1562 20.25 20.0625 21.1875 18.75C22.125 17.4375 26.7187 10.125 28.875 8.8125C28.875 8.8125 25.6875 10.3125 23.7187 11.625C21.75 12.9375 18.9375 16.6875 15.75 16.5938C12.5625 16.5 10.125 15.9375 8.71875 13.4062C7.3125 10.875 6.375 8.71875 6.375 8.71875L5.34375 9Z" fill="#960F4E"/>
<path d="M6.09375 8.90625C6.28125 9.46875 8.34375 14.5313 9 16.0313C9.65625 17.625 12.375 18.8438 14.5312 18.5625C16.6875 18.2812 19.5938 18.2813 20.5312 17.0625C21.375 15.9375 25.5938 10.875 27.6562 9.28125C27.75 9.28125 27.6562 9.1875 27.5625 9.1875C26.625 9.5625 24.2812 10.5 22.875 11.3438C21 12.4688 18.375 15.2813 15.4688 15.1875C12.5625 15.0938 10.3125 14.625 8.90625 12.375C7.6875 10.4063 6.75 9 6.5625 8.8125H6.46875L6.09375 8.90625Z" fill="#DD4568"/>
<path d="M20.4375 5.25011C19.5938 4.78136 18.6563 4.40636 17.625 4.59386C17.1563 4.68761 16.6875 4.87511 16.5938 5.34386C16.5 5.71886 16.7813 6.18761 17.0625 6.37511C17.5313 6.56261 17.9063 6.56261 18.2813 6.65636L20.25 6.93761C20.8125 7.03136 21.5625 7.21886 22.125 7.21886C22.875 7.21886 22.0313 6.56261 21.8438 6.37511C21.375 5.90636 21 5.43761 20.4375 5.25011ZM19.9688 16.5939C20.4375 16.3126 20.7188 15.9376 20.8125 15.4689C20.8125 15.2814 20.8125 15.0001 20.5313 14.9064C20.3438 14.8126 20.0625 14.8126 19.875 14.9064C19.6875 15.0001 19.5938 15.1876 19.5 15.3751C19.3125 15.6564 19.125 15.9376 19.0313 16.2189L18.5625 16.9689C18.4688 17.3439 18.9375 17.0626 19.125 16.9689C19.4063 16.8751 19.6875 16.7814 19.9688 16.5939ZM11.7188 5.06261C11.25 4.68761 10.5938 4.40636 10.0313 4.59386C9.75003 4.68761 9.46878 4.78136 9.37503 5.15636C9.28128 5.43761 9.46878 5.71886 9.65628 5.90636C9.84378 6.09386 10.125 6.09386 10.3125 6.18761C10.6875 6.28136 11.1563 6.28136 11.5313 6.37511C11.9063 6.46886 12.375 6.56261 12.75 6.56261C13.2188 6.56261 12.75 6.09386 12.5625 5.90636C12.2813 5.53136 12 5.25011 11.7188 5.06261Z" fill="#F964A0"/>
<path d="M25.7812 9.09375C25.7812 9.09375 26.9062 9.5625 26.7187 10.125L26.9062 10.2187L28.875 8.71875C28.9687 8.53125 28.875 8.34375 28.875 8.34375H28.5937C28.5937 8.4375 27.375 9 25.7812 9.09375ZM7.59375 8.15625C7.59375 8.15625 6.46875 8.53125 5.90625 8.53125L5.53125 9L6.09375 9.75C6.09375 9.75 6.46875 9.1875 6.84375 9.28125C6.84375 9.28125 7.125 8.53125 7.59375 8.34375V8.15625Z" fill="#960F0F"/>
<path d="M10.6876 5.34375C10.7814 5.34375 10.9689 5.4375 11.0626 5.4375C11.1564 5.4375 11.3439 5.34375 11.3439 5.25C11.3439 5.15625 11.2501 5.0625 11.0626 4.96875C10.8751 4.875 10.6876 4.875 10.5001 4.78125H10.1251C9.46887 5.0625 10.5001 5.25 10.6876 5.34375ZM19.0314 5.34375C19.1251 5.34375 19.3126 5.4375 19.4064 5.4375C19.5001 5.4375 19.6876 5.34375 19.6876 5.25C19.6876 5.15625 19.5939 5.0625 19.4064 4.96875C19.2189 4.875 19.0314 4.875 18.8439 4.78125H18.4689C17.9064 5.0625 18.8439 5.25 19.0314 5.34375Z" fill="#FFA1CA"/>
<path d="M14.8125 22.5937L21.2813 14.9999L24.9375 7.21867C25.4062 7.12492 27.0937 6.18742 28.5 7.40617C29.8125 8.53117 25.7812 16.3124 25.7812 16.3124L21.0938 23.9999C21 23.9999 15.4688 23.5312 14.8125 22.5937Z" fill="#C48051"/>
<path d="M16.0312 23.1563L22.2188 15.8438L25.6875 8.43759C26.1562 8.34384 27.75 7.50009 29.0625 8.62509C30.375 9.75009 26.4375 17.1563 26.4375 17.1563L21.9375 24.5626C21.9375 24.5626 16.6875 24.0938 16.0312 23.1563Z" fill="#C48051"/>
<path d="M15.9375 21.4688L22.125 14.1563L25.5937 6.75009C26.0625 6.65634 27.6562 5.81259 28.9688 6.93759C30.2812 8.06259 26.3438 15.4688 26.3438 15.4688L21.8437 22.8751C21.8437 22.7813 16.5938 22.4063 15.9375 21.4688Z" fill="#FCC097"/>
<path d="M15.8437 21.8438L9.65625 26.4375C9.65625 26.4375 14.25 27.5625 16.2187 27.375C20.1562 26.9063 22.0312 22.5 22.0312 22.5L15.8437 21.8438Z" fill="#FCC097"/>
<path d="M3.74992 12.9377C4.03117 13.1252 4.49992 13.1252 4.68742 12.844C5.06242 12.469 4.96867 11.8127 4.49992 11.4377C4.12492 11.1565 3.28117 10.8752 2.99992 11.344C2.90617 11.8127 3.37492 12.7502 3.74992 12.9377Z" fill="#FFD9C0"/>
<path d="M18.7502 18L16.8752 21.75C16.4065 22.7812 12.9377 25.9687 10.0315 25.5937C7.12521 25.2187 8.90646 23.1562 8.90646 23.1562L18.7502 18Z" fill="#C48051"/>
<path d="M21.5626 12.375C21.5626 12.375 20.0626 11.0625 15.0938 12.8438C15.0938 12.8438 10.7813 11.3438 6.46882 13.9688C2.15632 16.5938 4.21882 22.3125 6.84382 23.4375C9.46882 24.5625 13.8751 25.2188 15.7501 22.4063C17.6251 19.5938 17.9063 15.4688 21.5626 12.375Z" fill="#4C2537"/>
<path d="M21.9375 12.1875C21.9375 12.1875 19.6875 10.4062 14.7188 12.1875C14.7188 12.1875 12 9.84373 7.78129 12.375C3.56254 14.9062 3.84379 21.6562 6.46879 22.6875C9.09379 23.7187 13.5 24.4687 15.375 21.6562C17.25 18.8437 15.75 15.8437 21.9375 12.1875Z" fill="#960F0F"/>
<path d="M15.6563 15.4686C15.2813 15.0936 14.7188 14.8123 14.3438 14.4373C13.875 14.0623 13.5938 13.6873 13.3125 13.2186C13.0313 12.6561 12.8438 12.0936 12.4688 11.6248C12.0938 11.1561 11.7188 10.8748 11.25 10.4998C10.125 10.4061 8.71879 10.6873 7.12504 11.7186C2.90629 14.2498 3.18754 20.9998 5.81254 22.0311C8.43754 23.1561 12.8438 23.8123 14.7188 20.9998C15.375 19.9686 15.9375 18.4686 16.5 16.9686C16.3125 16.4061 16.125 15.8436 15.6563 15.4686Z" fill="#960F0F"/>
<path d="M22.3123 12.3749C22.3123 12.3749 19.3123 9.84365 14.7186 11.5311C14.7186 11.5311 12.1873 9.28115 8.24985 11.7186C4.31235 14.1561 4.5936 20.3436 7.0311 21.3749C9.4686 22.4061 13.0311 23.2499 14.7186 20.6249C16.4061 17.9999 16.8748 11.5311 22.3123 12.3749Z" fill="#DD4545"/>
<path d="M13.875 10.7812C13.875 10.7812 10.3125 12.4687 9.375 17.7187C9.375 17.7187 9.5625 18.0937 9.75 18.0937C9.9375 18.0937 11.1562 13.9687 13.0312 12.6562C14.9062 11.3438 16.3125 10.875 17.625 10.875L14.9062 10.9687C14.3437 11.1562 13.875 10.7812 13.875 10.7812Z" fill="#960F0F"/>
<path d="M17.3438 11.625C17.6251 11.625 17.9063 11.625 18.0938 11.8125C18.2813 12.0938 18.0938 12.375 17.9063 12.6562L15.4688 16.0312C15.1876 16.4062 15.0001 16.7812 14.5313 16.9688C14.0626 17.1562 13.5938 17.3438 13.2188 17.0625C12.6563 16.7813 12.6563 16.0312 12.8438 15.4687C13.0313 14.625 13.5001 13.5 14.1563 12.8437C15.0938 12.1875 16.2188 11.7187 17.3438 11.625ZM10.5938 11.3438C10.8751 11.3438 11.0626 11.3437 11.2501 11.5312C11.4376 11.7187 11.2501 12.0938 11.1563 12.2812L9.09384 15.2812C8.90634 15.5625 8.62509 15.9375 8.34384 16.125C7.96884 16.3125 7.50009 16.4062 7.12509 16.2187C6.56259 15.9375 6.56259 15.2812 6.65634 14.8125C6.84384 14.0625 7.21884 13.125 7.87509 12.5625C8.53134 11.9062 9.56259 11.4375 10.5938 11.3438Z" fill="#F96464"/>
<path d="M19.2188 13.0311C19.2188 13.0311 20.9063 11.9999 20.3438 11.3436C20.3438 11.3436 21.6563 11.1561 22.5938 11.2499C22.7813 11.2499 22.875 11.5311 22.6875 11.6249L21.375 12.6561L19.2188 13.0311Z" fill="#960F4E"/>
<path d="M24.6562 7.78125C24.6562 7.78125 26.3438 6.75 27.75 6.84375L27.9375 5.8125C27.9375 5.8125 25.125 6.28125 24.75 7.3125L24.6562 7.78125Z" fill="#C48051"/>
<path d="M26.25 9.7499C26.25 9.7499 27.1875 6.3749 27.5625 6.09365C27.9375 5.71865 29.7188 5.8124 30 6.3749C30.2812 6.9374 29.625 9.65615 29.1563 10.7812C29.0625 10.5937 27 10.5937 26.25 9.7499Z" fill="#DD4568"/>
<path d="M25.9688 11.0623C26.25 11.156 26.5313 11.531 26.4375 11.906C26.4375 12.0935 26.3438 12.1873 26.25 12.3748L25.4063 13.8748L24.5625 15.4685C24.4688 15.7498 24.2813 15.9373 24 15.9373C23.8125 15.9373 23.625 15.8435 23.5313 15.656C23.4375 15.4685 23.4375 15.281 23.4375 15.0935C23.3438 14.0623 24.0938 10.3123 25.9688 11.0623ZM20.7188 19.8748C21 19.9685 21.2813 20.3435 21.1875 20.7185C21.1875 20.906 21.0938 20.9998 21 21.1873L20.1563 22.6873L19.3125 24.281C19.2188 24.5623 19.0313 24.7498 18.75 24.7498C18.5625 24.7498 18.375 24.656 18.2813 24.4685C18.1875 24.281 18.1875 24.0935 18.1875 23.9998C18 22.781 18.75 19.031 20.7188 19.8748Z" fill="#FFD9C0"/>
<path d="M24.4685 17.9063C23.9998 17.8125 23.6248 17.625 23.2498 17.4375C23.0623 17.3438 22.8748 17.3438 22.6873 17.3438C22.4998 17.3438 22.3123 17.4375 22.3123 17.625C22.3123 17.8125 22.5935 17.9063 22.8748 18L24.7498 18.5625C24.0935 18.5625 23.4373 18.4688 22.6873 18.4688C22.4998 18.4688 22.3123 18.4687 22.2185 18.5625C22.1248 18.6562 22.2185 18.75 22.3123 18.8438C22.406 18.9375 22.5935 18.9375 22.6873 19.0312C23.2498 19.2187 23.906 19.3125 24.3748 19.125C24.9373 18.9375 25.2185 18.5625 25.4998 18.1875L25.8748 17.9063C25.406 18.0938 24.8435 18.0938 24.4685 17.9063Z" fill="#C48051"/>
<path d="M5.06266 7.6875C5.06266 7.875 5.15641 7.96875 5.06266 8.15625C5.06266 8.34375 4.87516 8.4375 4.68766 8.53125C4.50016 8.53125 4.40641 8.625 4.21891 8.625C4.03141 8.53125 3.93766 8.34375 3.84391 8.15625L3.00016 6C3.00016 5.90625 2.90641 5.71875 3.00016 5.71875C3.09391 5.625 3.18766 5.625 3.18766 5.625C3.46891 5.625 3.84391 5.625 4.12516 5.53125C4.40641 5.53125 4.40641 5.625 4.50016 5.90625C4.68766 6.1875 4.78141 6.5625 4.87516 6.84375C4.87516 7.03125 4.96891 7.125 4.96891 7.3125C4.96891 7.40625 5.06266 7.59375 5.06266 7.6875ZM27.7502 8.90625C27.7502 9.09375 27.6564 9.28125 27.8439 9.46875C27.9377 9.65625 28.1252 9.65625 28.3127 9.65625C28.5002 9.65625 28.5939 9.46875 28.7814 9.375C29.1564 9 29.2502 8.4375 29.3439 7.875C29.3439 7.59375 29.4377 7.3125 29.3439 7.125C29.2502 6.9375 29.0627 6.84375 28.8752 6.75C28.1252 6.5625 28.1252 6.75 28.0314 7.3125L27.7502 8.90625Z" fill="#F964A0"/>
<path opacity="0.6" d="M17.25 20.3438L16.9688 21.5625C16.9688 21.5625 15.75 28.125 12 27.2812L9.1875 26.7187L8.71875 25.125L12.375 24.2812C12.375 24.2812 13.3125 25.0312 14.625 23.8125C15.9375 22.5937 17.25 20.3438 17.25 20.3438Z" fill="#C48051"/>
<path d="M11.4375 24.1875L10.3125 27L9.375 26.7188L10.125 23.9062L11.4375 24.1875Z" fill="#4C2537"/>
<path d="M17.9063 26.8125L17.625 27.2813L19.0312 28.2188L27.0938 20.25L25.7812 18.5625L17.9063 26.8125Z" fill="#9A4C18"/>
<path d="M27.2812 22.5C27 25.6875 24.0938 28.4062 20.8125 28.3125C17.5312 28.3125 15.4688 25.5938 16.125 22.5C16.6875 19.5938 19.5 17.3437 22.4062 17.25C25.2187 17.25 27.4687 19.5 27.2812 22.5Z" fill="#9A4C18"/>
<path d="M28.0312 23.5313C27.7499 26.5313 24.9374 29.1563 21.6562 29.0625C18.4687 29.0625 16.4999 26.4375 17.0624 23.5313C17.6249 20.7188 20.3437 18.5625 23.1562 18.5625C26.1562 18.4688 28.3124 20.625 28.0312 23.5313Z" fill="#9A4C18"/>
<path d="M18.8438 27.0937L20.1562 27.75L26.7187 20.9062L25.6875 19.4062L18.8438 27.0937Z" fill="#F49937"/>
<path d="M27.3749 23.5312C27.0937 26.1562 24.7499 28.3124 22.0312 28.3124C19.4062 28.3124 17.7187 26.1562 18.1874 23.6249C18.6562 21.1874 20.9062 19.3124 23.3437 19.3124C25.8749 19.2187 27.6562 21.0937 27.3749 23.5312Z" fill="#F49937"/>
<path d="M26.5314 22.5001C26.2502 25.2189 23.7189 27.5626 20.8127 27.5626C18.0002 27.5626 16.1252 25.2189 16.6877 22.5001C17.1564 19.9689 19.5939 17.9064 22.2189 17.9064C24.8439 17.8126 26.8127 19.8751 26.5314 22.5001Z" fill="#FFEDC0"/>
<path d="M26.1562 22.6874C25.8749 25.3124 23.5312 27.4687 20.8124 27.4687C18.1874 27.4687 16.4999 25.3124 16.9687 22.7812C17.4374 20.3437 19.6874 18.4687 22.1249 18.4687C24.5624 18.3749 26.4374 20.2499 26.1562 22.6874Z" fill="#FFD766"/>
<path d="M25.1249 22.6875C24.9374 24.6563 23.0624 26.3438 20.9999 26.3438C18.9374 26.3438 17.6249 24.6563 17.9999 22.6875C18.3749 20.8125 20.1561 19.3125 22.0311 19.3125C23.9061 19.3125 25.3124 20.7188 25.1249 22.6875Z" fill="#FFEDC0"/>
<path d="M25.2186 22.2188C25.0311 24.1875 23.1561 25.875 21.0936 25.875C19.0311 25.875 17.7186 24.1875 18.0936 22.3125C18.4686 20.4375 20.2499 18.9375 22.1249 18.9375C23.9999 18.8438 25.4061 20.25 25.2186 22.2188Z" fill="#F49937"/>
<path d="M24.5626 22.6875C24.3751 24.375 22.7814 25.7812 21.0939 25.7812C19.4064 25.7812 18.2814 24.375 18.5626 22.6875C18.8439 21.0938 20.3439 19.7812 21.9376 19.7812C23.6251 19.7812 24.7501 21.0938 24.5626 22.6875Z" fill="#FFD766"/>
<path d="M22.4062 19.5L22.875 21.2813L24.8437 21.8438L23.0625 23.0625L22.875 25.125L21.2812 24L19.125 24.75L20.0625 22.6875L18.9375 21.1875L21.0937 21.0938L22.4062 19.5Z" fill="#F49937"/>
</g>
<defs>
<clipPath id="clip0_1_5067">
<rect width="30" height="30" fill="white"/>
</clipPath>
</defs>
</svg>
