<svg width="30" height="30" viewBox="0 0 30 30" fill="none" xmlns="http://www.w3.org/2000/svg">
<g clip-path="url(#clip0_1_3189)">
<path d="M3.84375 1.96875L2.25 8.25L26.5312 16.2187L28.0312 10.2187L3.84375 1.96875Z" fill="#474747"/>
<path d="M8.34371 21.375L3.84371 3.1875C3.28121 1.125 5.81246 -0.374999 7.40621 0.0937509L25.4062 5.4375C27.9375 6.1875 29.25 10.0313 26.9062 11.8125L11.625 23.3438C10.5 24.1875 8.71871 23.0625 8.34371 21.375Z" fill="#474747"/>
<path d="M6.56269 28.125L2.25019 10.3125C1.68769 8.15625 2.90644 6.09375 4.50019 6.5625L24.2814 12.375C27.0002 13.2187 27.3752 16.6875 25.1252 18.4687L10.5939 29.625C9.46894 30.4688 7.03144 29.8125 6.56269 28.125Z" fill="#474747"/>
<path d="M7.59385 25.9688L3.7501 10.125C3.28135 8.25001 4.40635 6.37501 5.8126 6.84376L23.2501 12C25.6876 12.75 25.9688 15.8438 24.0001 17.4375L10.5001 27.6563C9.5626 28.4063 7.96885 27.4688 7.59385 25.9688Z" fill="#949494"/>
<path d="M23.0625 10.4063L26.5312 9.9375L25.0313 15.9375L3.65625 8.8125L5.0625 3.375L23.0625 10.4063Z" fill="#949494"/>
<path d="M8.90609 20.7188L5.06234 4.875C4.59359 3 5.53109 1.03125 7.49984 1.59375L24.5623 6.75C26.9998 7.5 27.2811 10.5938 25.3123 12.1875L11.9061 22.4062C10.8748 23.1562 9.28109 22.2188 8.90609 20.7188Z" fill="white"/>
<path d="M9.46854 19.7813L5.81229 4.78125C5.34354 3 6.37479 1.21875 7.68729 1.6875L24.1873 6.5625C26.4373 7.21875 26.8123 10.2188 24.8435 11.7188L12.1873 21.375C11.2498 22.0313 9.74979 21.1875 9.46854 19.7813Z" fill="url(#paint0_linear_1_3189)"/>
<path d="M20.5312 5.4375L22.7812 13.5938L25.5 11.5312L23.7187 6.375L20.5312 5.4375ZM14.1562 3.5625L18 17.3438L20.625 15.1875L17.8125 4.6875L14.1562 3.5625Z" fill="white"/>
<path d="M2.71875 8.4375L4.59375 15.4688L6.9375 12.5625L5.0625 4.6875C5.0625 4.6875 4.875 3.65625 5.15625 2.90625L2.71875 8.4375Z" fill="url(#paint1_linear_1_3189)"/>
<path d="M19.875 16.3125L19.125 21.9375L25.3125 16.875L26.9063 9.65625C26.9063 9.65625 26.3438 10.7812 25.7813 11.5312C25.7813 11.5312 25.2188 12.1875 24.5625 12.5625L19.875 16.3125Z" fill="url(#paint2_linear_1_3189)"/>
<path opacity="0.2" d="M10.6875 22.3125L9.5625 27.8438C9.5625 27.8438 8.71875 27.6563 8.34375 27.1875L9.84375 21.4688L10.6875 22.3125Z" fill="white"/>
</g>
<defs>
<linearGradient id="paint0_linear_1_3189" x1="10.2929" y1="23.0048" x2="16.9784" y2="3.35766" gradientUnits="userSpaceOnUse">
<stop stop-color="#CFCFCF"/>
<stop offset="1" stop-color="#DEDEDE"/>
</linearGradient>
<linearGradient id="paint1_linear_1_3189" x1="3.97069" y1="6.42084" x2="5.7945" y2="12.3721" gradientUnits="userSpaceOnUse">
<stop stop-color="#474747"/>
<stop offset="1" stop-color="#474747" stop-opacity="0"/>
</linearGradient>
<linearGradient id="paint2_linear_1_3189" x1="27.2388" y1="12.3107" x2="21.4075" y2="17.638" gradientUnits="userSpaceOnUse">
<stop stop-color="#474747"/>
<stop offset="1" stop-color="#474747" stop-opacity="0"/>
</linearGradient>
<clipPath id="clip0_1_3189">
<rect width="30" height="30" fill="white"/>
</clipPath>
</defs>
</svg>
