<svg width="30" height="30" viewBox="0 0 30 30" fill="none" xmlns="http://www.w3.org/2000/svg">
<g clip-path="url(#clip0_1_19304)">
<path d="M23.7656 21.7783L23.4375 24.8252C23.4375 24.8252 20.3906 25.5283 20.0813 25.5283C19.7719 25.5283 16.1719 23.7283 16.1719 23.7283L18.5906 20.1377L19.8469 19.4346L23.7656 21.7783Z" fill="#2F4D0D"/>
<path d="M27.722 8.43742C24.1263 9.23717 20.4227 9.4336 16.7626 9.01867L16.8188 8.81242C15.7404 8.35248 14.5788 8.11952 13.4063 8.12804L13.0501 8.20304H12.9376L12.872 8.12804L12.7688 8.08117H12.1782C10.8845 8.03429 9.53447 7.94992 8.63447 7.14367C8.52577 7.05844 8.45504 6.93381 8.4376 6.79679C6.43856 5.90464 4.63292 4.63081 3.12197 3.04679C2.72822 2.61554 1.96885 2.81242 1.55635 3.46867L0.618849 4.40617C0.309474 4.90304 0.187599 4.84679 0.553224 6.60929C0.834474 8.75617 2.42822 20.278 4.14385 24.4687C4.11221 24.683 4.14109 24.9019 4.22723 25.1007C4.31336 25.2994 4.45334 25.4702 4.63135 25.5937C5.74697 26.2874 8.01572 27.6562 9.42197 28.3124C9.59645 28.3937 9.79171 28.4193 9.98123 28.3857C10.1708 28.3522 10.3454 28.2611 10.4813 28.1249V28.2749C14.6813 26.5874 25.8282 16.0874 28.5751 13.4155C28.9475 13.3317 29.281 13.1255 29.5223 12.8297C29.7637 12.534 29.8989 12.1659 29.9063 11.7843C29.9063 11.1937 29.9063 10.5187 29.8407 9.90929C29.821 9.66335 29.7469 9.42484 29.6239 9.21095C29.5009 8.99706 29.332 8.81311 29.1294 8.67234C28.9268 8.53157 28.6954 8.43748 28.4521 8.39686C28.2087 8.35624 27.9593 8.37009 27.722 8.43742Z" fill="#823A61"/>
<path d="M27.703 9.07534C24.1659 9.80829 20.5304 9.93824 16.9499 9.45971L17.0062 9.25346C15.9472 8.77767 14.8014 8.52554 13.6405 8.51284L13.2843 8.57846H13.1905L13.1249 8.53159H13.0312H12.4405C11.1764 8.58814 9.93336 8.19264 8.9343 7.41596C8.88315 7.37279 8.84107 7.3199 8.8105 7.26036C8.77992 7.20082 8.76146 7.13581 8.75617 7.06909C6.77049 6.13511 4.97712 4.83778 3.46867 3.24409C3.05617 2.78471 2.31555 2.96284 1.9218 3.60971L0.984297 4.54721C0.712422 5.03471 0.590547 4.96909 0.937422 6.74096C1.2468 8.89721 2.96242 20.4847 4.7343 24.7222C4.70542 24.94 4.73641 25.1616 4.82395 25.3631C4.91149 25.5646 5.05227 25.7384 5.23117 25.866C6.3468 26.5785 8.5968 27.9941 9.9843 28.6785C10.1558 28.7691 10.3535 28.7971 10.5434 28.7578C10.7333 28.7184 10.9036 28.6141 11.0249 28.4628V28.6128C15.178 26.991 25.9687 16.6128 28.6312 14.0628C28.9956 13.9795 29.3207 13.7743 29.5525 13.481C29.7844 13.1878 29.9092 12.8242 29.9062 12.4503C29.9062 11.8597 29.9062 11.1847 29.803 10.5753C29.7834 10.3303 29.7104 10.0926 29.5893 9.87868C29.4682 9.6648 29.3018 9.47997 29.1018 9.3371C28.9018 9.19423 28.673 9.09678 28.4314 9.05157C28.1898 9.00635 27.9412 9.01447 27.703 9.07534Z" fill="#4F213C"/>
<path d="M0.553223 5.40039C0.553223 5.40039 2.3251 19.3316 4.30322 23.6723L6.77822 20.3066L9.20635 12.9285L5.2501 6.90039L0.553223 5.40039Z" fill="#C65C91"/>
<path d="M1.5376 5.15625C1.5376 5.15625 3.62822 19.2187 5.68135 23.6531L7.97822 20.2125L10.4251 12.7125L6.34697 6.66562L1.5376 5.15625Z" fill="#EFA5D1"/>
<path d="M29.0625 11.6439C29.0625 11.6439 15.2719 25.1533 10.5 27.1033V21.7221L12.7313 13.9221L21.0188 10.4346L29.0625 11.6439Z" fill="#C65C91"/>
<path d="M27.6936 10.7252C27.6936 10.7252 14.0623 23.2877 9.44043 25.3127L9.50606 20.8221L11.7092 13.1252L19.8186 9.6377L27.6936 10.7252Z" fill="#EFA5D1"/>
<path d="M1.61247 2.653L0.590595 4.29362C0.413048 4.5304 0.330048 4.82482 0.35778 5.11947C0.385512 5.41412 0.521987 5.68788 0.740595 5.88737C2.70935 7.18112 8.73747 10.153 4.23747 23.2499C4.1573 23.4862 4.15801 23.7425 4.23947 23.9784C4.32094 24.2143 4.47854 24.4165 4.68747 24.553C5.8031 25.228 8.0531 26.5592 9.44997 27.1967C9.5746 27.2513 9.70961 27.278 9.84561 27.2751C9.98162 27.2722 10.1154 27.2398 10.2376 27.18C10.3598 27.1202 10.4675 27.0346 10.5533 26.929C10.6391 26.8235 10.7009 26.7005 10.7343 26.5686C11.8125 23.3717 13.4812 12.8811 28.1906 12.2436C28.6261 12.2271 29.0391 12.0454 29.3455 11.7355C29.652 11.4255 29.829 11.0106 29.8406 10.5749C29.8406 9.99362 29.8406 9.31862 29.775 8.69987C29.7445 8.4616 29.6624 8.23285 29.5343 8.0296C29.4063 7.82636 29.2354 7.65353 29.0336 7.52318C28.8319 7.39283 28.6041 7.30811 28.3662 7.27494C28.1282 7.24176 27.886 7.26094 27.6562 7.33112C22.7595 8.47412 17.6654 8.47412 12.7687 7.33112C7.33122 6.028 4.4156 3.54362 3.18747 2.2405C2.81247 1.7905 2.0156 1.99675 1.61247 2.653Z" fill="#C65C91"/>
<path d="M2.06269 3.30976L1.45331 4.19101C1.3604 4.29566 1.30908 4.43075 1.30908 4.57069C1.30908 4.71064 1.3604 4.84573 1.45331 4.95038C2.89706 6.07538 10.1908 8.70038 5.40019 22.2004C5.32589 22.4012 5.32258 22.6214 5.39081 22.8244C5.45903 23.0273 5.59468 23.2008 5.77519 23.316C6.7432 23.8828 7.74158 24.3961 8.76581 24.8535C8.86603 24.8903 8.97264 24.9067 9.07929 24.9015C9.18594 24.8964 9.29047 24.8698 9.38666 24.8235C9.48286 24.7771 9.56876 24.7119 9.63926 24.6317C9.70976 24.5515 9.76342 24.458 9.79706 24.3566C10.9221 21.6004 13.5002 10.7254 27.8533 11.2316C27.939 11.2345 28.0243 11.2193 28.1037 11.187C28.1831 11.1546 28.2548 11.1059 28.3141 11.044C28.3734 10.982 28.4189 10.9083 28.4478 10.8275C28.4766 10.7468 28.4881 10.6609 28.4814 10.5754C28.4408 10.0269 28.3466 9.48367 28.2002 8.95351C28.1507 8.80586 28.0458 8.68322 27.9076 8.61149C27.7694 8.53977 27.6088 8.52458 27.4596 8.56913C22.5013 9.66857 17.3545 9.59151 12.4314 8.34413C6.56269 6.85351 3.69394 4.14413 2.81269 3.14101C2.60644 2.94413 2.25956 3.01913 2.06269 3.30976Z" fill="#EFA5D1"/>
<path d="M8.93421 9.02809C10.907 9.99513 13.0263 10.6287 15.2061 10.9031C15.4152 10.9416 15.6091 11.039 15.7647 11.184C15.9203 11.3289 16.0312 11.5153 16.0844 11.7212C16.1376 11.9271 16.1309 12.144 16.065 12.3462C15.999 12.5484 15.8767 12.7275 15.7123 12.8625C13.2719 15.0434 11.2124 17.6163 9.61858 20.475C9.57354 20.5953 9.50425 20.7051 9.415 20.7975C9.32575 20.89 9.21846 20.9631 9.09977 21.0123C8.98109 21.0615 8.85355 21.0858 8.72508 21.0837C8.59661 21.0816 8.46995 21.0531 8.35296 21L7.93108 20.8125C7.70427 20.6903 7.52533 20.4952 7.42324 20.2587C7.32115 20.0222 7.30189 19.7582 7.36858 19.5093C7.77171 17.7375 8.43733 13.7812 7.49983 10.3968C7.31233 9.54372 8.19358 8.67184 8.93421 9.02809Z" fill="#FCD0EC"/>
<g opacity="0.49">
<path d="M1.45297 5.55014C0.937349 6.28139 1.95922 10.3126 1.95922 10.3126C3.34672 6.62827 6.2436 13.1251 6.2436 13.1251C7.1436 9.75014 1.95922 4.80952 1.45297 5.55014Z" fill="#C65C91"/>
<path d="M26.6622 12.6375C26.9247 11.7 19.3872 11.4093 14.981 16.5281C14.981 16.5281 22.9028 12.7781 19.7153 18.525C19.6872 18.525 26.4091 13.5375 26.6622 12.6375Z" fill="#C65C91"/>
</g>
<path opacity="0.89" d="M1.45333 5.5498C1.45333 5.5498 9.3752 9.04668 4.77208 22.3217C4.77208 22.3217 1.00333 10.0498 1.45333 5.5498Z" fill="#4F213C"/>
<path opacity="0.89" d="M10.9502 25.4348C10.9502 25.4348 12.0846 13.3598 27.4408 11.7754C27.4408 11.7754 15.9939 23.691 10.9502 25.4348Z" fill="#4F213C"/>
<path d="M26.7093 12.1879C22.6816 12.1198 18.7735 13.5573 15.7499 16.2191C13.8308 17.9947 12.4391 20.2656 11.728 22.7816C11.728 22.7816 15.6655 17.7004 19.453 15.6004C21.781 14.279 24.2068 13.1381 26.7093 12.1879Z" fill="#4F213C"/>
<path d="M2.38135 6.83398C2.38135 6.83398 6.01885 8.43711 5.8876 15.2809L5.54072 18.1871C5.54072 18.1871 4.6876 10.2559 2.38135 6.83398Z" fill="#823A61"/>
<path d="M9.46855 19.7904L7.93105 23.7654L6.1123 22.5842L7.36855 19.5186L9.46855 19.7904Z" fill="#FCD0EC"/>
<path d="M8.69046 9.17813L6.56234 6.85313C6.53587 6.83078 6.50477 6.81458 6.47129 6.8057C6.43781 6.79681 6.40277 6.79545 6.3687 6.80173C6.33463 6.80801 6.30238 6.82176 6.27426 6.84199C6.24614 6.86222 6.22286 6.88844 6.20609 6.91875L6.00921 7.20938C5.97926 7.25714 5.96338 7.31237 5.96338 7.36875C5.96338 7.42513 5.97926 7.48036 6.00921 7.52813L8.12796 10.5094C8.15483 10.5475 8.19494 10.5742 8.24046 10.5844L15.3655 12.5625H15.5061L20.3155 11.25C20.3815 11.235 20.4413 11.1999 20.4867 11.1495C20.532 11.0992 20.5606 11.036 20.5686 10.9688C20.5736 10.924 20.5681 10.8787 20.5526 10.8365C20.5371 10.7942 20.512 10.7561 20.4793 10.7252C20.4466 10.6943 20.4071 10.6714 20.3641 10.6584C20.321 10.6453 20.2755 10.6425 20.2311 10.65L15.4217 11.3063C15.3848 11.3154 15.3462 11.3154 15.3092 11.3063L8.74671 9.21563L8.69046 9.17813Z" fill="#FCD0EC"/>
<path d="M13.8377 19.9502L11.7752 27.2814H10.1533C10.1533 27.2814 11.6064 22.0971 12.3283 20.9158L13.8377 19.9502Z" fill="#4F213C"/>
<path d="M19.7906 18.2527C19.941 17.4725 20.3227 16.7557 20.8863 16.1955C21.4498 15.6353 22.1689 15.2578 22.95 15.1121L23.0719 13.7809L25.1625 13.584L25.0594 14.9246C26.0755 14.9127 27.0661 15.2429 27.8719 15.8621L26.4469 17.5027C26.135 17.2224 25.7677 17.0107 25.3688 16.8815C24.9699 16.7523 24.5482 16.7084 24.1313 16.7527C22.8281 16.8277 22.0219 16.8559 22.2563 17.5684C22.3688 17.9527 23.3063 18.3371 24.6 18.7684C26.2406 19.3215 28.1063 20.6434 27.9656 23.0527C27.8845 24.091 27.4672 25.0745 26.777 25.8543C26.0868 26.6342 25.1613 27.1679 24.1406 27.3746L24 29.2496L21.6844 29.0621L21.8437 27.309C21.223 27.221 20.6319 26.9874 20.1186 26.6273C19.6054 26.2673 19.1846 25.7909 18.8906 25.2371L20.2781 23.8402C20.6157 24.2823 21.0475 24.6437 21.542 24.8983C22.0366 25.1528 22.5816 25.2942 23.1375 25.3121C24.2719 25.3777 25.0125 24.8715 25.1063 23.8965C25.275 21.5809 20.2125 21.8902 19.8 18.9934C19.7642 18.748 19.7611 18.4989 19.7906 18.2527Z" fill="#2F4D0D"/>
<path d="M17.7095 16.9215C17.8647 16.1482 18.249 15.4396 18.8125 14.8878C19.376 14.3361 20.0925 13.9667 20.8688 13.8277L20.9907 12.5152L23.0813 12.3184L22.9782 13.6402C23.9944 13.6283 24.985 13.9585 25.7907 14.5777L24.3751 16.2277C24.0633 15.9474 23.696 15.7357 23.297 15.6065C22.8981 15.4773 22.4765 15.4334 22.0595 15.4777C20.7563 15.5527 20.0813 16.0777 20.0157 16.8184C19.7813 19.1902 26.0157 18.3184 25.772 22.5652C25.6688 24.4402 24.1313 25.7434 22.022 25.9777L21.8813 27.7777L19.6126 27.5527L19.772 25.8277C19.1532 25.741 18.5636 25.51 18.0506 25.1534C17.5376 24.7967 17.1156 24.3244 16.8188 23.7746L18.2063 22.3965C18.5434 22.8421 18.9742 23.2082 19.4683 23.469C19.9623 23.7298 20.5077 23.879 21.0657 23.9059C22.2001 23.9621 22.9407 23.4652 23.0345 22.4996C23.2032 20.034 17.3063 20.6246 17.7095 16.9215Z" fill="#2F4D0D"/>
<path d="M17.7095 17.859C17.8647 17.0857 18.249 16.3771 18.8125 15.8253C19.376 15.2736 20.0925 14.9042 20.8688 14.7652L20.9907 13.4527L23.0813 13.2559L22.9782 14.5777C23.9937 14.5701 24.9829 14.8999 25.7907 15.5152L24.3751 17.1652C24.0638 16.8845 23.6963 16.6733 23.297 16.5456C22.8978 16.4179 22.4759 16.3766 22.0595 16.4246C20.7563 16.4902 20.0813 17.0152 20.0157 17.7559C19.7813 20.1277 26.0157 19.2559 25.772 23.5027C25.6688 25.3777 24.1313 26.6809 22.022 26.9152L21.8813 28.7152L19.6126 28.4902L19.772 26.7652C19.1532 26.6785 18.5636 26.4475 18.0506 26.0909C17.5376 25.7342 17.1156 25.2619 16.8188 24.7121L18.2063 23.334C18.5434 23.7796 18.9742 24.1457 19.4683 24.4065C19.9623 24.6673 20.5077 24.8165 21.0657 24.8434C22.2001 24.8996 22.9407 24.4027 23.0345 23.4371C23.2032 20.9715 17.3063 21.5621 17.7095 17.859Z" fill="#2F4D0D"/>
<path d="M18.45 17.5498C18.6004 16.7861 18.9781 16.0856 19.5335 15.5402C20.0889 14.9949 20.7962 14.63 21.5625 14.4936L21.675 13.1904L23.7187 13.0029L23.625 14.3061C24.6045 14.3077 25.5552 14.6378 26.325 15.2436L24.9187 16.8748C24.6156 16.599 24.2577 16.3905 23.8683 16.2629C23.4789 16.1352 23.0669 16.0914 22.6594 16.1342C21.3844 16.2092 20.7281 16.7342 20.6625 17.4561C20.4375 19.8092 26.5219 18.9373 26.2875 23.1373C26.175 25.0123 24.675 26.2873 22.6594 26.5217L22.5 28.2842L20.2875 28.0686L20.4469 26.3623C19.8472 26.2766 19.2757 26.0523 18.7778 25.7073C18.2798 25.3624 17.8691 24.9061 17.5781 24.3748L18.9281 23.0154C19.2561 23.4579 19.6789 23.8213 20.1656 24.0792C20.6522 24.3372 21.1904 24.483 21.7406 24.5061C22.8469 24.5623 23.6156 24.0654 23.6156 23.1092C23.8219 20.6248 18.0563 21.1686 18.45 17.5498Z" fill="#B6F967"/>
</g>
<defs>
<clipPath id="clip0_1_19304">
<rect width="30" height="30" fill="white"/>
</clipPath>
</defs>
</svg>
