<svg width="30" height="30" viewBox="0 0 30 30" fill="none" xmlns="http://www.w3.org/2000/svg">
<g clip-path="url(#clip0_1_8353)">
<path d="M7.96882 4.50006C7.96882 4.50006 6.84382 4.21881 6.56257 3.46881C6.18757 2.71881 6.46882 -0.187444 3.84382 0.0938055C1.21882 0.375056 1.40632 2.90631 2.15632 4.12506C2.90632 5.34381 3.00007 6.93756 3.00007 6.93756L7.96882 4.50006ZM13.1251 18.1876V20.5313L12.9376 22.4063L10.7813 22.6876L10.8751 19.0313L13.1251 18.1876Z" fill="#BC7708"/>
<path d="M14.9065 3.09381L12.2815 8.43756C12.1878 8.62506 12.0003 8.81256 11.8128 8.81256L6.84402 10.3126C6.37527 10.4063 6.18777 11.1563 6.56277 11.5313L9.56277 14.9063C9.75027 15.0938 9.75027 15.3751 9.75027 15.5626L9.09402 21.3751C9.09402 21.9376 9.56277 22.5001 10.0315 22.3126C11.5315 21.7501 13.1253 21.0001 14.719 20.2501C15.0003 20.1563 15.2815 20.1563 15.469 20.3438L21.1878 24.1876C21.844 24.5626 22.594 24.2813 22.594 23.6251C22.594 21.0001 22.4065 18.3751 22.0315 15.9376C22.0315 15.6563 22.1253 15.3751 22.3128 15.1876L28.219 10.4063C28.969 9.84381 28.5003 8.81256 27.5628 8.71881L19.7815 8.15631C19.5003 8.15631 19.219 7.96881 19.1253 7.78131L16.4065 3.00006C16.0315 2.34381 15.1878 2.43756 14.9065 3.09381Z" fill="#BC7708"/>
<path d="M15.375 4.40624L13.2187 8.81249L12.9375 9.09374L8.71872 10.3125C8.43747 10.4062 8.24997 10.875 8.53122 11.1562L11.1562 13.9687C11.25 14.0625 11.3437 14.25 11.25 14.4375C10.9687 16.0312 10.7812 17.625 10.6875 19.2187C10.6875 19.5937 11.0625 19.875 11.3437 19.7812L15.1875 17.9062C15.375 17.8125 15.5625 17.8125 15.75 17.9062L20.25 20.7187C20.625 20.9062 21.0937 20.7187 21.0937 20.3437C21.0937 18.2812 21 16.3125 20.7187 14.4375C20.7187 14.25 20.7187 14.0625 20.9062 13.9687L25.4062 10.125C25.875 9.74999 25.5937 9.09374 25.0312 9.09374L18.9375 8.62499C18.75 8.62499 18.5625 8.53124 18.4687 8.34374L16.3125 4.40624C16.0312 3.93749 15.5625 4.03124 15.375 4.40624Z" fill="#FFBF4D"/>
<path opacity="0.54" d="M16.3125 12C16.3125 12 20.4375 10.125 24.9375 9.75C25.2188 9.75 25.4062 10.0312 25.2188 10.2187L20.8125 14.0625L16.3125 12ZM15.0938 11.7188C15.0938 11.7188 11.3438 10.2188 8.53125 10.875C8.4375 10.875 8.4375 11.0625 8.53125 11.0625L13.4062 14.25L15.0938 11.7188Z" fill="#EF941D"/>
<path opacity="0.54" d="M15.8437 12.2813C15.8437 12.2813 19.9687 17.25 21 21.1875L15.2812 18.1875L11.0625 19.875C11.0625 19.875 12.2812 15.9375 15.2812 12L15.8437 12.2813Z" fill="#EF941D"/>
<path d="M15 11.7188C15 11.7188 15.75 8.625 15.6563 4.125C15.6563 4.03125 15.75 4.03125 15.75 4.03125C15.8437 4.03125 15.8437 4.03125 15.8437 4.125C15.8437 4.6875 16.0313 7.5 15.6563 11.8125L15 11.7188Z" fill="white"/>
<path d="M15.5625 11.625C15.5625 11.625 20.25 9.84375 25.0312 9.28125C25.2188 9.28125 25.3125 9.375 25.4062 9.46875C25.5 9.65625 25.3125 9.84375 25.125 9.84375C23.5312 10.125 18.0938 11.0625 15.5625 12.375V11.625Z" fill="white"/>
<path d="M8.53141 10.5938C9.18766 10.5938 11.2502 10.5937 16.0314 11.7187L15.9377 12.4688C15.9377 12.4688 14.3439 10.9688 8.53141 11.0625C8.43766 11.0625 8.43766 11.0625 8.34391 10.9687C8.25016 10.7812 8.34391 10.5938 8.53141 10.5938Z" fill="white"/>
<path d="M14.9062 11.7188C14.0625 12.75 11.8125 15.9375 10.7812 19.4063C10.7812 19.5 10.7812 19.6875 10.9687 19.7812C11.0625 19.7812 11.1562 19.7812 11.25 19.6875C11.625 18.75 13.4062 14.1563 15.4688 12.2813C15.6562 12.0938 15.6562 11.9062 15.4688 11.7188C15.375 11.5313 15.0937 11.5313 14.9062 11.7188Z" fill="#FFDCA4"/>
<path opacity="0.46" d="M15.8438 11.625L18.5626 8.34375C18.5626 8.34375 16.3126 4.03125 15.7501 4.03125L15.6563 10.9687C15.5626 12 15.8438 11.625 15.8438 11.625Z" fill="white"/>
<path d="M14.7188 18.9375L15.4688 15.375L16.125 19.4063L14.7188 18.9375ZM21.1875 14.8125L18.9375 13.125L22.3125 13.875L21.1875 14.8125Z" fill="#BC7708"/>
<path d="M10.2187 21.0937L15.2812 18.8437L21.5625 22.3125L21.6562 23.3437L15.1875 19.6875L10.125 21.5625L10.2187 21.0937ZM7.875 11.25L10.7812 14.1562L10.0312 14.9062L7.125 11.5312L7.875 11.25ZM21.375 14.0625L25.7812 10.3125C25.875 10.2187 25.9687 10.2187 26.0625 10.2187C26.5312 10.125 26.8125 10.5937 26.4375 10.875L21.8437 14.7187" fill="#84530B"/>
<path d="M16.3126 12.2812C17.2501 13.4062 19.9688 17.1562 21.0001 20.7187L20.7188 20.9062C20.7188 20.9062 18.2813 15.5624 15.4688 12.4687C15.3751 12.3749 15.3751 12.1874 15.5626 12.0937C15.8438 11.9999 16.1251 12.0937 16.3126 12.2812Z" fill="#FFDCA4"/>
<path d="M13.4681 29.1435C16.1461 28.175 18.0315 26.6004 17.6793 25.6266C17.3271 24.6528 14.8707 24.6485 12.1927 25.617C9.51469 26.5855 7.62925 28.16 7.98144 29.1339C8.33362 30.1077 10.7901 30.112 13.4681 29.1435Z" fill="#4F2A12"/>
<path d="M7.39355 27.3893L17.0914 23.8821L17.761 25.7335L8.06313 29.2407L7.39355 27.3893Z" fill="#4F2A12"/>
<path d="M13.1072 27.9984C15.7852 27.0299 17.6707 25.4554 17.3185 24.4816C16.9663 23.5077 14.5098 23.5034 11.8318 24.4719C9.15385 25.4405 7.26841 27.015 7.6206 27.9888C7.97278 28.9627 10.4292 28.967 13.1072 27.9984Z" fill="#6F3B16"/>
<path d="M12.9261 27.7458C15.6041 26.7773 17.4895 25.2027 17.1373 24.2289C16.7851 23.2551 14.3287 23.2508 11.6507 24.2193C8.9727 25.1878 7.08726 26.7623 7.43945 27.7362C7.79163 28.71 10.2481 28.7143 12.9261 27.7458Z" fill="#4F2A12"/>
<path d="M12.8294 27.3566C15.5074 26.3881 17.3928 24.8135 17.0406 23.8397C16.6885 22.8659 14.232 22.8616 11.554 23.8301C8.87602 24.7986 6.99058 26.3732 7.34277 27.347C7.69495 28.3208 10.1514 28.3251 12.8294 27.3566Z" fill="#6F3B16"/>
<path d="M12.5257 26.6415C14.7168 25.8491 16.2646 24.5752 15.9829 23.7961C15.7011 23.0171 13.6965 23.0279 11.5054 23.8203C9.31431 24.6127 7.76649 25.8867 8.04824 26.6657C8.32998 27.4448 10.3346 27.4339 12.5257 26.6415Z" fill="#4F2A12"/>
<path d="M7.55908 25.0967L15.4055 22.259L15.9476 23.7578L8.10112 26.5955L7.55908 25.0967Z" fill="#4F2A12"/>
<path d="M12.0486 25.1186C14.2397 24.3262 15.7876 23.0522 15.5058 22.2732C15.2241 21.4941 13.2194 21.505 11.0283 22.2974C8.83726 23.0898 7.28944 24.3637 7.57118 25.1428C7.85293 25.9218 9.85756 25.911 12.0486 25.1186Z" fill="#6F3B16"/>
<path d="M4.96875 13.4063C5.15625 13.4063 5.0625 13.5 5.25 14.0625C5.53125 15 6.09375 16.6875 6.75 17.25C7.40625 17.8125 7.6875 19.6875 7.6875 19.7813C7.6875 19.875 8.34375 21.1875 9 21.75C9.65625 22.3125 10.125 22.7813 9.375 24.5625C9.375 24.5625 10.875 24.6562 11.625 23.7188L7.59375 12.4688L4.96875 13.4063Z" fill="#BC7708"/>
<path d="M10.125 11.5312L7.5 12.4688L11.5312 23.7187C12.75 24 13.7812 22.9688 13.7812 22.9688C12.0938 22.125 12.1875 21.4687 12.2813 20.5312C12.4688 19.6875 12.0937 18.375 12.0937 18.1875C12.0937 18.0937 11.0625 16.5 11.1562 15.6563C11.3437 14.8125 10.6875 13.2188 10.3125 12.2813C10.125 11.7188 10.0313 11.625 10.125 11.5312Z" fill="#BC7708"/>
<path d="M7.5 12.4688L10.5938 21.4688L11.0625 21.2813L8.34375 13.2188L10.3125 11.9063C10.3125 11.9063 10.2188 11.7188 10.3125 11.625L7.5 12.4688Z" fill="#F28E02"/>
<path d="M4.96875 13.4063C5.0625 13.5 5.15625 13.6875 5.15625 13.6875L7.5 13.5L10.6875 21.0938L11.0625 21.2813L7.6875 12.375L4.96875 13.4063Z" fill="#F28E02"/>
<path d="M5.34375 13.3125C5.53125 13.4062 5.4375 13.3125 5.71875 13.9687C6 14.9062 6.5625 16.5 7.125 17.0625C7.6875 17.625 7.96875 19.4062 8.0625 19.5C8.0625 19.5937 8.625 20.8125 9.28125 21.375C9.84375 21.9375 10.3125 22.4063 9.75 24C9.75 24 11.0625 24.0938 11.625 23.25L7.59375 12.4688L5.34375 13.3125Z" fill="#FFBF4D"/>
<path d="M9.84375 11.625L7.5 12.4688L11.4375 23.4375C12.4688 23.7188 13.4062 22.7812 13.4062 22.7812C11.9062 21.9375 11.9062 21.2812 12.0937 20.4375C12.1875 19.5937 11.8125 18.375 11.8125 18.1875C11.8125 18.0938 10.7812 16.5 10.9687 15.75C11.0625 14.9062 10.4063 13.4063 10.125 12.4688C9.75 11.8125 9.65625 11.8125 9.84375 11.625Z" fill="#FFBF4D"/>
<path d="M7.5 12.4688L10.5 21.1875L10.875 21L8.25 13.2188L9.84375 12C9.84375 12 9.75 11.8125 9.84375 11.625L7.5 12.4688Z" fill="#F28E02"/>
<path d="M5.34375 13.3125C5.4375 13.4062 5.53125 13.5937 5.53125 13.5937L7.5 13.5L10.5 20.9062L10.875 21.0938L7.59375 12.4688L5.34375 13.3125Z" fill="#F28E02"/>
<path d="M6.09368 8.15625L3.18743 0C3.18743 0 1.49993 0.75 1.87493 1.96875C2.24993 3.1875 2.99993 3.375 3.18743 4.125C3.37493 4.875 3.56243 5.34375 2.24993 6.46875C0.937427 7.5 0.562427 7.96875 1.31243 9.375C2.06243 10.7812 2.15618 10.5 2.71868 12C2.71868 12 3.28118 12.6562 4.21868 13.125C4.59368 13.3125 4.78118 13.4062 4.87493 13.4062L7.49993 12.4688L6.09368 8.15625Z" fill="#BC7708"/>
<path d="M10.5 10.875C10.9688 9.84374 10.9688 8.99999 10.9688 8.99999C10.4062 7.49999 10.6875 7.59374 10.4063 6.09374C10.125 4.59374 9.46875 4.40624 7.78125 4.40624C6.09375 4.40624 5.8125 3.93749 5.53125 3.28124C5.25 2.62499 5.71875 1.96874 5.25 0.843737C4.6875 -0.375012 3 0.0937375 3 0.0937375L6 8.15624L7.5 12.4687L10.125 11.5312C10.2188 11.4375 10.3125 11.3437 10.5 10.875Z" fill="#BC7708"/>
<path d="M10.2187 11.3438C10.3125 11.0625 6.28125 9.00003 6.28125 9.00003C6.28125 9.00003 6.375 9.56253 6.46875 9.65628L7.5 12.4688L10.2187 11.5313V11.3438ZM7.5 8.71878C7.5 8.71878 8.8125 8.62503 9.375 9.18753C9.375 9.18753 9.46875 9.09378 9.46875 8.90628C9.46875 8.71878 9.1875 7.50003 9.28125 7.31253C9.28125 7.31253 9.09375 7.50003 9.09375 7.59378V8.53128L7.5 8.71878ZM6.65625 8.15628C6.65625 8.15628 6.46875 8.25003 6.375 8.15628C6.28125 7.96878 6.65625 7.78128 6.84375 7.78128C7.03125 7.78128 8.25 7.21878 8.25 7.21878C8.25 7.21878 8.625 6.84378 8.625 6.65628C8.625 6.46878 8.90625 6.46878 8.90625 6.56253C9 6.75003 8.71875 7.31253 8.71875 7.31253C8.71875 7.40628 6.65625 8.15628 6.65625 8.15628ZM7.5 4.78128C7.5 4.78128 6.09375 5.25003 5.71875 5.71878C5.34375 6.18753 5.53125 6.18753 5.625 6.00003C5.71875 5.81253 6.1875 5.62503 6.46875 5.53128C6.75 5.43753 7.6875 5.15628 7.6875 5.06253C7.78125 4.87503 7.5 4.78128 7.5 4.78128ZM6.9375 4.40628C6.9375 4.40628 6.1875 4.59378 5.71875 4.87503L4.96875 5.34378L4.5 3.93753C4.5 3.93753 5.34375 3.46878 5.4375 3.00003L5.8125 3.84378C6 4.21878 6.9375 4.40628 6.9375 4.40628ZM3.84375 2.15628C3.84375 2.15628 4.125 2.06253 4.21875 1.96878C4.40625 1.96878 4.96875 1.78128 4.96875 1.78128C5.0625 1.78128 5.15625 1.59378 5.0625 1.50003C5.0625 1.31253 5.25 1.12503 4.875 1.21878C4.5 1.40628 3.65625 1.68753 3.65625 1.68753L3.84375 2.15628Z" fill="#F28E02"/>
<path d="M4.125 2.71867C4.125 2.71867 4.40625 2.62492 4.40625 2.71867C4.5 2.81242 4.5 2.90617 4.40625 2.90617C4.3125 2.99992 4.125 3.09367 4.125 3.09367V2.71867ZM4.21875 3.37492C4.21875 3.37492 4.3125 3.28117 4.5 3.28117C4.6875 3.28117 4.875 3.28117 4.6875 3.37492C4.59375 3.46867 4.40625 3.56242 4.40625 3.56242H4.3125L4.21875 3.37492ZM6.5625 9.65617C6.5625 9.46867 6.28125 8.99992 6.28125 8.99992L4.6875 13.3124C4.78125 13.3124 4.78125 13.4062 4.875 13.4999L7.59375 12.5624L6.5625 9.65617ZM5.15625 9.56242C5.15625 9.56242 4.125 10.3124 3.9375 11.1562C3.9375 11.1562 3.84375 11.1562 3.75 10.9687C3.65625 10.7812 3.09375 9.74992 2.90625 9.56242C2.90625 9.56242 3.1875 9.56242 3.28125 9.65617C3.375 9.74992 3.84375 10.3124 3.84375 10.3124C3.84375 10.3124 4.96875 9.56242 5.15625 9.56242Z" fill="#F28E02"/>
<path d="M5.53143 8.53125C5.53143 8.53125 5.71893 8.4375 5.71893 8.34375C5.71893 8.25 5.25018 8.34375 5.15643 8.4375C4.96893 8.53125 3.65643 8.90625 3.65643 8.90625C3.65643 8.90625 3.18768 8.90625 3.00018 8.71875C2.90643 8.625 2.62518 8.71875 2.71893 8.90625C2.81268 9.09375 3.37518 9.375 3.37518 9.375L5.53143 8.53125ZM2.62518 6.5625C2.62518 6.5625 4.03143 6 4.59393 6.09375C5.15643 6.1875 5.06268 6.28125 4.87518 6.28125C4.68768 6.28125 4.12518 6.28125 3.93768 6.375L2.62518 6.84375C2.53143 6.75 2.62518 6.5625 2.62518 6.5625ZM2.90643 5.90625C2.90643 5.90625 3.56268 5.53125 4.12518 5.4375C4.68768 5.34375 5.06268 5.34375 5.06268 5.34375L4.50018 3.9375C4.50018 3.9375 3.56268 4.125 3.18768 3.84375C3.18768 3.84375 3.28143 4.40625 3.46893 4.6875C3.56268 5.15625 2.90643 5.90625 2.90643 5.90625ZM3.93768 2.0625C3.93768 2.0625 3.46893 2.25 3.37518 2.25C3.18768 2.34375 2.71893 2.625 2.62518 2.625C2.53143 2.625 2.34393 2.625 2.34393 2.4375C2.34393 2.25 2.06268 2.34375 2.43768 2.15625C2.81268 1.96875 3.65643 1.6875 3.65643 1.6875L3.93768 2.0625ZM4.12518 2.71875C4.12518 2.71875 3.75018 2.8125 3.75018 2.90625C3.75018 3 3.75018 3.09375 3.93768 3.09375C4.03143 3.09375 4.21893 3 4.21893 3L4.12518 2.71875Z" fill="#F28E02"/>
<path d="M4.4064 3.28125C4.4064 3.28125 4.12515 3.28125 4.0314 3.46875C3.93765 3.5625 3.75015 3.65625 3.93765 3.65625C4.12515 3.65625 4.4064 3.5625 4.4064 3.5625H4.31265L4.4064 3.28125Z" fill="#F28E02"/>
<path d="M6.09378 8.34375L3.28128 0.46875C3.28128 0.46875 1.87503 1.125 2.25003 2.34375C2.71878 3.46875 3.37503 3.75 3.56253 4.40625C3.75003 5.0625 3.93753 5.625 2.81253 6.5625C1.68753 7.5 1.40628 7.96875 2.06253 9.375C2.71878 10.7812 2.81253 10.4062 3.37503 11.9062C3.37503 11.9062 3.84378 12.4688 4.78128 13.0312C5.06253 13.2188 5.15628 13.2188 5.25003 13.3125L7.59378 12.4688L6.09378 8.34375Z" fill="#FFBF4D"/>
<path d="M10.0312 11.1562C10.4062 10.2187 10.3125 9.37494 10.3125 9.37494C9.84375 7.87494 10.0312 8.06244 9.75 6.56244C9.46875 5.06244 8.90625 4.96869 7.40625 4.87494C5.90625 4.87494 5.71875 4.31244 5.4375 3.74994C5.25 3.09369 5.53125 2.43744 5.0625 1.31244C4.6875 0.187441 3.1875 0.562441 3.1875 0.562441L6 8.43744L7.5 12.4687L9.84375 11.6249C9.84375 11.5312 9.9375 11.4374 10.0312 11.1562Z" fill="#FFBF4D"/>
<path d="M9.84375 11.5312C9.9375 11.3437 6.375 9.18741 6.375 9.18741C6.375 9.18741 6.46875 9.74991 6.5625 9.84366L7.5 12.5624L9.84375 11.7187V11.5312ZM7.40625 8.90616C7.40625 8.90616 8.53125 8.90616 9.09375 9.37491C9.09375 9.37491 9.1875 9.37491 9.1875 9.18741C9.1875 8.99991 8.8125 7.87491 8.90625 7.68741C8.90625 7.68741 8.71875 7.87491 8.71875 7.96866V8.81241C8.71875 8.81241 7.59375 8.81241 7.40625 8.90616ZM6.65625 8.34366C6.65625 8.34366 6.46875 8.43741 6.375 8.34366C6.28125 8.24991 6.65625 8.06241 6.75 8.06241L7.96875 7.49991C7.96875 7.49991 8.25 7.21866 8.25 7.03116C8.25 6.84366 8.4375 6.84366 8.53125 6.93741C8.625 7.12491 8.4375 7.68741 8.4375 7.68741L6.65625 8.34366ZM7.21875 5.15616C7.21875 5.15616 6 5.53116 5.71875 5.99991C5.4375 6.46866 5.53125 6.46866 5.71875 6.37491C5.8125 6.28116 6.1875 5.99991 6.375 5.90616C6.5625 5.81241 7.40625 5.53116 7.40625 5.43741C7.40625 5.34366 7.21875 5.15616 7.21875 5.15616ZM6.65625 4.78116C6.65625 4.78116 6.09375 4.87491 5.625 5.15616C5.34375 5.43741 5.0625 5.62491 5.0625 5.62491L4.59375 4.31241C4.59375 4.31241 5.25 3.84366 5.34375 3.46866C5.34375 3.46866 5.625 3.93741 5.71875 4.31241C5.90625 4.59366 6.65625 4.78116 6.65625 4.78116ZM4.03125 2.53116C4.03125 2.53116 4.21875 2.43741 4.40625 2.43741C4.59375 2.43741 4.96875 2.24991 5.0625 2.24991C5.15625 2.24991 5.25 2.06241 5.15625 1.96866C4.96875 1.78116 5.15625 1.68741 4.875 1.78116L3.84375 2.15616L4.03125 2.53116ZM4.21875 3.09366C4.21875 3.09366 4.40625 2.99991 4.5 3.09366C4.59375 3.18741 4.59375 3.28116 4.5 3.28116C4.40625 3.37491 4.21875 3.37491 4.21875 3.37491V3.09366Z" fill="#F28E02"/>
<path d="M4.40625 3.65625C4.40625 3.65625 4.5 3.5625 4.59375 3.5625C4.6875 3.65625 4.875 3.65625 4.78125 3.75C4.6875 3.84375 4.59375 3.9375 4.5 3.9375H4.40625V3.65625ZM6.65625 9.75C6.65625 9.5625 6.375 9.09375 6.375 9.09375C6.375 9.09375 4.96875 13.125 5.25 13.2188L5.34375 13.3125L7.6875 12.4688L6.65625 9.75ZM5.4375 9.65625C5.4375 9.65625 4.59375 10.3125 4.5 11.0625C4.5 11.0625 4.40625 11.0625 4.3125 10.875C4.21875 10.6875 3.65625 9.65625 3.46875 9.5625C3.46875 9.5625 3.75 9.5625 3.75 9.65625C3.84375 9.75 4.3125 10.3125 4.3125 10.3125C4.3125 10.3125 5.25 9.65625 5.4375 9.65625ZM5.625 8.71875C5.625 8.71875 5.8125 8.625 5.8125 8.53125C5.8125 8.4375 5.4375 8.53125 5.34375 8.53125C5.15625 8.625 4.03125 8.90625 4.03125 8.90625C4.03125 8.90625 3.65625 8.90625 3.5625 8.8125C3.46875 8.71875 3.28125 8.8125 3.28125 8.90625C3.28125 9 3.84375 9.375 3.84375 9.375L5.625 8.71875Z" fill="#F28E02"/>
<path d="M3.09393 6.65625C3.09393 6.65625 4.31268 6.1875 4.78143 6.28125C5.34393 6.46875 5.25018 6.5625 5.06268 6.5625H4.21893C4.03143 6.65625 3.28143 7.03125 3.18768 6.9375C3.09393 6.84375 3.09393 6.65625 3.09393 6.65625ZM3.37518 6.09375C3.37518 6.09375 3.93768 5.71875 4.40643 5.71875C4.87518 5.71875 5.06268 5.625 5.06268 5.625L4.59393 4.3125C4.59393 4.3125 3.84393 4.5 3.46893 4.21875C3.46893 4.21875 3.56268 4.6875 3.75018 5.0625C3.84393 5.34375 3.37518 6.09375 3.37518 6.09375ZM4.12518 2.4375C4.12518 2.4375 3.75018 2.53125 3.65643 2.625C3.46893 2.71875 3.00018 2.90625 3.00018 2.90625C3.00018 2.90625 2.81268 2.90625 2.71893 2.71875C2.71893 2.53125 2.43768 2.625 2.81268 2.4375C3.18768 2.25 3.84393 2.0625 3.84393 2.0625L4.12518 2.4375ZM4.21893 3.09375C4.21893 3.09375 3.93768 3.1875 3.93768 3.28125C3.93768 3.375 3.93768 3.46875 4.03143 3.46875C4.12518 3.46875 4.31268 3.375 4.31268 3.375L4.21893 3.09375Z" fill="#F28E02"/>
<path d="M4.50034 3.65625C4.50034 3.65625 4.31284 3.65625 4.21909 3.75C4.12534 3.84375 4.03159 4.03125 4.21909 4.03125C4.31284 4.03125 4.59409 3.9375 4.59409 3.9375H4.50034V3.65625Z" fill="#F28E02"/>
<path d="M6.46875 14.3438L7.5 14.0625C7.5 14.0625 7.6875 15.6562 7.96875 16.2187L9.75 19.9687L10.125 21.6562L8.90625 19.875C8.625 19.5 7.875 17.0625 7.875 17.0625C7.875 17.0625 6.375 15.0938 6.46875 14.3438ZM9.75 13.125L8.71875 13.5C8.71875 13.5 9.5625 14.9062 9.65625 15.4688L10.5 19.5L11.25 21.0938L11.1562 18.9375C11.1562 18.4688 10.2187 16.125 10.2187 16.125C10.2187 16.125 10.125 13.6875 9.75 13.125ZM2.71875 7.59375V8.25L4.21875 8.15625L6.09375 7.78125L7.96875 7.125L8.625 6L8.4375 5.625L6.9375 6.28125C6.84375 6.28125 5.34375 6.9375 5.25 7.03125C5.15625 7.125 2.71875 7.59375 2.71875 7.59375Z" fill="#FFDCA4"/>
<path d="M6.1875 6.5625V7.3125L7.875 7.125L8.8125 6.28125L8.53125 5.71875L6.1875 6.5625Z" fill="white"/>
</g>
<defs>
<clipPath id="clip0_1_8353">
<rect width="30" height="30" fill="white"/>
</clipPath>
</defs>
</svg>
