<svg width="30" height="30" viewBox="0 0 30 30" fill="none" xmlns="http://www.w3.org/2000/svg">
<g clip-path="url(#clip0_1_14060)">
<path d="M22.9779 10.3877L26.2404 10.6596C26.2404 10.6596 25.8373 15.3471 22.2373 16.4627C18.6373 17.5783 22.9779 10.3877 22.9779 10.3877Z" fill="#999893"/>
<path d="M6.33739 3.5249C5.26164 5.11806 4.3922 6.84117 3.74989 8.65303C3.21551 10.6874 7.91239 7.92178 7.91239 7.92178L6.33739 3.5249Z" fill="#999893"/>
<path d="M7.70619 4.7627C7.70619 4.7627 4.53744 7.06895 4.19057 8.16582C3.84369 9.2627 2.55932 13.8658 6.12182 12.9096C9.68432 11.9533 10.5281 6.25332 10.5281 6.25332L7.70619 4.7627Z" fill="#999893"/>
<path d="M7.50013 5.78418C7.50013 5.78418 4.91263 7.65918 4.63138 8.5498C4.35013 9.44043 3.29076 13.2373 6.20638 12.4123C9.12201 11.5873 9.80638 6.99355 9.80638 6.99355L7.50013 5.78418Z" fill="#BFBDB4"/>
<path d="M15.2158 3.80641C15.4869 4.89316 16.0141 5.89928 16.7533 6.74079C17.747 7.61266 18.2158 10.0127 19.4158 10.1439C20.6158 10.2752 22.7533 11.9439 24.1032 11.2127C25.4532 10.4814 25.6408 7.95016 25.1064 7.35016C23.9696 6.24769 22.9371 5.04257 22.022 3.75016C21.2427 2.50182 20.1013 1.52072 18.7501 0.937662C17.2126 0.140787 13.6783 -0.393588 13.4814 0.543912C13.2845 1.48141 15.2158 3.80641 15.2158 3.80641Z" fill="#999893"/>
<path d="M22.0031 10.7252C24.2658 10.7252 26.1 8.84479 26.1 6.5252C26.1 4.2056 24.2658 2.3252 22.0031 2.3252C19.7405 2.3252 17.9062 4.2056 17.9062 6.5252C17.9062 8.84479 19.7405 10.7252 22.0031 10.7252Z" fill="#999893"/>
<path d="M21.7404 10.5188C23.7183 10.5188 25.3217 8.87759 25.3217 6.85312C25.3217 4.82866 23.7183 3.1875 21.7404 3.1875C19.7626 3.1875 18.1592 4.82866 18.1592 6.85312C18.1592 8.87759 19.7626 10.5188 21.7404 10.5188Z" fill="#E2E0D7"/>
<path d="M15.4689 0.937554C15.4689 0.937554 14.1283 3.86255 11.8127 4.53755C9.49707 5.21255 5.1377 6.97505 4.48145 9.60005C4.48145 9.57193 5.68145 -0.618696 15.4689 0.937554Z" fill="#827420"/>
<path d="M20.6248 17.6248C21.6594 18.0002 22.5861 18.624 23.3233 19.4413C24.0605 20.2587 24.5858 21.2445 24.8529 22.3123C25.1494 23.4943 25.1241 24.734 24.7795 25.9029C24.435 27.0718 23.7838 28.1271 22.8935 28.9592C21.7635 29.76 20.395 30.1534 19.0123 30.0748C15.7966 30.0748 12.5998 28.9404 9.38414 27.7779C8.27965 27.4399 7.2378 26.9238 6.29977 26.2498C5.79141 25.8653 5.36406 25.384 5.04229 24.8338C4.72051 24.2836 4.51065 23.6752 4.42477 23.0435C4.34984 22.1358 4.51583 21.2244 4.90596 20.4013C5.29609 19.5782 5.89654 18.8727 6.64664 18.356C8.77023 16.8639 11.3076 16.0738 13.9029 16.0967C16.2086 16.2588 18.4756 16.7742 20.6248 17.6248Z" fill="#614D6D"/>
<path d="M19.828 17.8123C20.7475 18.1243 21.5767 18.6564 22.2434 19.3623C22.9101 20.0682 23.394 20.9265 23.653 21.8623C23.9214 22.896 23.8979 23.9839 23.5851 25.0051C23.2723 26.0262 22.6824 26.9407 21.8811 27.6467C20.848 28.338 19.6151 28.6677 18.3748 28.5842C15.4592 28.5842 12.5717 27.5904 9.65609 26.5873C8.65524 26.2965 7.7062 25.8504 6.84359 25.2654C6.38091 24.9385 5.99002 24.5203 5.69498 24.0366C5.39993 23.5529 5.20697 23.014 5.12797 22.4529C5.07154 21.6604 5.22775 20.8671 5.58044 20.1552C5.93314 19.4432 6.46954 18.8383 7.13422 18.4029C9.07173 17.097 11.3603 16.4104 13.6967 16.4342C15.7975 16.5867 17.864 17.0511 19.828 17.8123Z" fill="#957DA1"/>
<path d="M17.3436 18.6938C14.4317 20.0839 11.9882 22.2928 10.3123 25.0501C10.3123 25.0501 9.25296 21.0188 9.87171 18.0845C9.90921 18.0845 14.0623 19.922 17.3436 18.6938Z" fill="#FAEACF"/>
<path d="M7.0874 18.1123C7.0874 18.1123 8.67178 22.0873 10.5749 22.4998C12.478 22.9123 15.8249 23.5404 20.1187 19.3592L7.0874 18.1123Z" fill="#E8CCAA"/>
<path d="M24.4184 11.3467C24.4385 5.84806 20.0015 1.37421 14.5081 1.35407C9.0146 1.33394 4.54493 5.77515 4.52477 11.2738C4.50462 16.7724 8.94162 21.2463 14.4351 21.2664C19.9286 21.2866 24.3982 16.8454 24.4184 11.3467Z" fill="#A67A65"/>
<path d="M23.9679 10.6211C23.9875 5.29331 19.6885 0.958476 14.3659 0.938968C9.04326 0.91946 4.7126 5.22267 4.69307 10.5505C4.67354 15.8782 8.97254 20.2131 14.2951 20.2326C19.6178 20.2521 23.9484 15.9489 23.9679 10.6211Z" fill="#E5A98C"/>
<path d="M23.8386 10.3459C23.8574 5.23038 19.8515 1.0687 14.8914 1.05052C9.9312 1.03234 5.89498 5.16454 5.87623 10.28C5.85748 15.3955 9.8633 19.5572 14.8235 19.5754C19.7836 19.5936 23.8199 15.4614 23.8386 10.3459Z" fill="#E8CCAA"/>
<path d="M18.9361 11.6072C18.9497 7.87927 16.0269 4.84646 12.4077 4.83319C8.78857 4.81993 5.84358 7.83123 5.82992 11.5591C5.81625 15.287 8.73909 18.3198 12.3583 18.3331C15.9774 18.3464 18.9224 15.3351 18.9361 11.6072Z" fill="#FAEACF"/>
<path d="M15.4848 12.3393C15.487 11.7542 15.09 11.2784 14.5981 11.2766C14.1062 11.2748 13.7057 11.7476 13.7036 12.3327C13.7014 12.9178 14.0985 13.3936 14.5903 13.3954C15.0822 13.3972 15.4827 12.9243 15.4848 12.3393Z" fill="#425763"/>
<path d="M14.8968 11.9156C14.8968 11.7655 14.796 11.6438 14.6718 11.6438C14.5475 11.6438 14.4468 11.7655 14.4468 11.9156C14.4468 12.0658 14.5475 12.1875 14.6718 12.1875C14.796 12.1875 14.8968 12.0658 14.8968 11.9156Z" fill="white"/>
<path d="M16.5092 5.05301C16.7752 6.13979 17.2994 7.14639 18.0373 7.98738C19.0405 8.85926 19.5092 11.2593 20.7092 11.3905C21.9092 11.5218 24.0373 13.1905 25.3967 12.4593C26.7561 11.728 26.9061 9.18738 26.3717 8.58738C25.2387 7.48665 24.2122 6.28129 23.3061 4.98738C22.5247 3.74435 21.3882 2.76455 20.0436 2.17488C18.5061 1.38738 14.9998 0.853009 14.7748 1.79051C14.5498 2.72801 16.5092 5.05301 16.5092 5.05301Z" fill="#999893"/>
<path d="M8.36178 10.768C8.36393 10.1829 7.96692 9.70713 7.47504 9.70533C6.98317 9.70353 6.58269 10.1764 6.58054 10.7614C6.5784 11.3465 6.9754 11.8223 7.46728 11.8241C7.95915 11.8259 8.35964 11.353 8.36178 10.768Z" fill="#425763"/>
<path d="M7.83722 10.3982C7.83777 10.2481 7.73748 10.126 7.61322 10.1255C7.48896 10.1251 7.38778 10.2464 7.38723 10.3966C7.38668 10.5467 7.48697 10.6688 7.61123 10.6693C7.73549 10.6697 7.83667 10.5484 7.83722 10.3982Z" fill="white"/>
<path d="M20.8687 12.0748C20.8687 12.0748 21.6749 11.4467 22.3312 11.6905C22.9874 11.9342 22.8843 14.0155 21.2155 14.2405L20.8687 12.0748Z" fill="#FAEACF"/>
<path d="M12.6188 16.8748C12.0593 16.7856 11.5272 16.5709 11.0626 16.2466C10.8702 16.0894 10.6485 15.9719 10.4103 15.9011C10.1721 15.8303 9.92217 15.8075 9.6751 15.8341C9.55322 15.8341 9.35635 15.6466 9.15947 15.5435C8.9626 15.4404 8.64385 15.4216 8.61572 15.5435C8.67101 15.7606 8.76296 15.9667 8.8876 16.1529C8.91301 16.3615 8.91301 16.5724 8.8876 16.781C8.86437 16.8937 8.86368 17.0099 8.88555 17.1228C8.90743 17.2358 8.95144 17.3433 9.01506 17.4391C9.07868 17.535 9.16064 17.6173 9.25622 17.6814C9.35181 17.7454 9.45912 17.7899 9.57197 17.8123C10.064 17.9546 10.5898 17.9248 11.0626 17.7279C11.372 17.5498 12.6188 16.8748 12.6188 16.8748Z" fill="#A87483"/>
<path d="M4.62207 8.14693C5.55957 7.57506 6.49707 7.05006 7.3502 6.44068C8.0292 5.92125 8.7652 5.48091 9.54395 5.12818C10.112 4.64297 10.7675 4.27068 11.4752 4.03131C13.9502 3.30943 15.3752 0.103181 15.3752 0.103181C7.32207 -0.374944 5.12832 4.46256 4.62207 8.14693Z" fill="#999893"/>
<path d="M13.1249 3.7501C14.7084 4.54675 16.0706 5.72218 17.0906 7.17197C18.3374 9.20635 20.6249 12.3188 24.3749 11.5876C24.3749 11.5876 24.8062 0.937598 13.5749 0.787598C13.5749 0.787598 10.8281 2.7376 13.1249 3.7501Z" fill="#E2E0D7"/>
<path d="M14.672 0.937693C14.672 0.937693 13.4532 4.15332 11.3157 4.82832C9.17822 5.50332 5.14697 7.26582 4.5376 9.89082C4.5376 9.88144 5.6251 -0.599808 14.672 0.937693Z" fill="#E2E0D7"/>
<path d="M18.1689 13.0125C18.1604 13.4052 18.0745 13.7925 17.9163 14.1521C17.7581 14.5116 17.5306 14.8365 17.2468 15.1082C16.9629 15.3798 16.6284 15.5928 16.2622 15.7351C15.896 15.8774 15.5054 15.9462 15.1126 15.9375C14.1619 15.9398 13.2458 15.581 12.5496 14.9335C11.8535 14.2861 11.4292 13.3984 11.3626 12.45C11.3366 11.9889 11.4181 11.528 11.6006 11.1038C11.7832 10.6795 12.0618 10.3035 12.4145 10.0053C12.7672 9.70713 13.1844 9.49499 13.6331 9.3856C14.0818 9.27622 14.5498 9.27258 15.0001 9.37498C15.8719 9.5116 16.6675 9.95124 17.2471 10.6166C17.8267 11.2819 18.1531 12.1303 18.1689 13.0125Z" stroke="#425763" stroke-width="0.665625" stroke-miterlimit="10"/>
<path d="M10.2467 10.8376C10.2504 11.1842 10.1852 11.5282 10.0548 11.8494C9.92446 12.1706 9.73155 12.4627 9.48729 12.7087C9.24304 12.9547 8.95233 13.1497 8.63205 13.2823C8.31178 13.415 7.96833 13.4826 7.62167 13.4814C6.79773 13.459 6.01238 13.1274 5.42178 12.5524C4.83119 11.9775 4.47861 11.2013 4.43417 10.3782C4.39649 9.97448 4.45319 9.56749 4.59982 9.18941C4.74644 8.81133 4.97896 8.47253 5.27902 8.19975C5.57907 7.92697 5.93844 7.7277 6.32874 7.61766C6.71904 7.50763 7.12957 7.48985 7.52792 7.56573C8.29256 7.70629 8.98359 8.11083 9.48046 8.70878C9.97733 9.30674 10.2485 10.0602 10.2467 10.8376Z" stroke="#425763" stroke-width="0.665625" stroke-miterlimit="10"/>
<path d="M18.2627 12.5062L20.9252 12.0562" stroke="#425763" stroke-width="0.665625" stroke-miterlimit="10" stroke-linecap="round"/>
<path d="M15.8343 5.45616C16.1002 6.55888 16.6275 7.58141 17.3718 8.43741C18.3749 9.29991 18.8343 11.7093 20.0437 11.8405C21.2531 11.9718 23.3718 13.6405 24.7312 12.9093C26.0906 12.178 26.2499 9.59054 25.7062 8.99054C24.5732 7.8898 23.5467 6.68444 22.6406 5.39054C21.8603 4.14298 20.7193 3.16211 19.3687 2.57803C17.8124 1.79053 14.3062 1.25616 14.0624 2.18428C13.8187 3.11241 15.8343 5.45616 15.8343 5.45616Z" fill="#E2E0D7"/>
<path d="M22.2656 12.2813C22.2656 12.2813 23.4188 14.55 23.1469 15.1688C22.875 15.7875 25.6875 13.7438 25.7719 11.3438C25.8562 8.94375 23.1469 8.85938 23.1469 8.85938L22.2656 12.2813Z" fill="#E2E0D7"/>
<path d="M12.7031 3.88125C12.7031 3.88125 14.7469 5.25937 15.15 6.28125C15.5531 7.30313 18.9 10.6313 18.9 10.6313C18.0826 9.54637 17.367 8.38833 16.7625 7.17188C16.4292 6.37883 15.9333 5.66452 15.3067 5.07509C14.6802 4.48567 13.9369 4.03425 13.125 3.75L12.7031 3.88125Z" fill="#C4C4C4"/>
<path d="M22.5752 12.7217C22.5752 12.7217 24.3939 14.1936 24.4502 15.0842L23.0252 16.1904C23.0252 16.1904 23.2408 13.5654 22.5752 12.7217Z" fill="#999893"/>
<path d="M15.7314 2.00635C15.7314 2.00635 18.1689 2.14697 19.3314 3.47822C20.4939 4.80947 23.2408 8.16572 24.2158 8.5876C25.1908 9.00947 25.4158 11.4001 24.2627 11.0813C23.1096 10.7626 20.2596 8.4376 20.2596 8.4376C19.4521 7.84351 18.8862 6.978 18.6658 6.0001C18.0846 4.09697 15.7314 2.00635 15.7314 2.00635Z" fill="#EFEFEF"/>
<path d="M11.6345 1.87524C11.9158 1.81899 13.4158 1.48149 13.1908 2.23149C12.9658 2.98149 8.87828 3.75024 8.74703 3.75024C8.61578 3.75024 9.45953 2.32524 11.6345 1.87524Z" fill="#EFEFEF"/>
<path d="M20.7096 11.7281C20.7096 11.7281 22.4439 17.3531 20.8408 18.6562C19.2377 19.9594 26.3064 16.2562 26.5783 14.1937C26.6614 12.6455 26.4088 11.0977 25.8377 9.65625L20.7096 11.7281Z" fill="#E2E0D7"/>
<path d="M26.0437 10.0127C25.8839 10.1902 25.7744 10.4073 25.7266 10.6413C25.6788 10.8754 25.6944 11.1179 25.7718 11.3439C26.0437 12.1502 26.4843 14.4564 25.5937 15.0377C24.7031 15.6189 20.4375 18.5908 20.4375 18.5908C20.4375 18.5908 19.8656 18.9939 20.7937 18.9939C21.5138 18.9953 22.2261 18.8459 22.8849 18.5553C23.5437 18.2646 24.1343 17.8392 24.6187 17.3064C25.6875 15.9752 26.7093 15.8346 26.8875 14.4189C26.9054 12.9946 26.7416 11.5737 26.4 10.1908L26.0437 10.0127Z" fill="#999893"/>
<path d="M21.1688 14.3906C21.4522 15.2648 21.4782 16.2021 21.2438 17.0906C20.9732 17.6129 20.7805 18.1719 20.6719 18.75L23.4375 17.5969L21.1688 14.3906Z" fill="#999893"/>
<path opacity="0.39" d="M21.2812 18.9936C21.2812 18.9936 22.7062 23.9717 19.8655 25.7529C17.0249 27.5342 12.5249 27.5342 12.5249 27.5342C13.943 28.2272 15.4333 28.7617 16.9687 29.1279C18.6655 29.3998 21.553 30.0654 23.2874 26.9998C25.0218 23.9342 23.9999 19.4342 22.1249 18.8154L21.2812 18.9936Z" fill="#614D6D"/>
<path d="M8.43742 19.1718C8.35462 19.6075 8.36705 20.0559 8.47385 20.4864C8.58065 20.9168 8.7793 21.3191 9.05617 21.6655C9.99367 22.603 8.92492 21.7499 8.92492 21.7499C8.92492 21.7499 6.88117 19.3968 6.92804 18.1499H7.08742L8.43742 19.1718Z" fill="#614D6D"/>
<path d="M15.6374 22.6876L15.2343 28.3782C15.2343 28.3782 11.4843 27.5157 10.2655 27.0938C8.99806 26.5846 7.79074 25.937 6.66553 25.1626L8.4374 20.9907C8.4374 20.9907 12.4405 23.3063 15.6374 22.6876Z" fill="#DACCE2"/>
<path d="M8.74697 22.1064L12.347 23.3533L11.2313 26.5971L7.77197 25.0877L8.74697 22.1064Z" fill="#E8DFEF"/>
<path d="M14.4375 22.9033L14.9719 28.5939L15.7219 28.7721L16.2187 22.1064L14.4375 22.9033Z" fill="#614D6D"/>
<path d="M10.2095 11.0811L11.4563 11.3436" stroke="#425763" stroke-width="0.665625" stroke-miterlimit="10" stroke-linecap="round"/>
<path opacity="0.16" d="M22.3689 17.5311L21.2158 14.2404C22.263 14.0103 23.2727 13.6348 24.2158 13.1248C24.7783 12.6092 26.0908 11.4561 26.0908 11.4561L26.4189 13.5279C26.4189 13.5279 26.8221 15.2154 25.8471 15.7498C24.8721 16.2842 22.3689 17.5311 22.3689 17.5311Z" fill="#999893"/>
<path d="M24.1311 24.4592C24.994 24.5105 25.8311 24.7734 26.5684 25.2246C27.3058 25.6759 27.9208 26.3016 28.3592 27.0467C28.4627 27.2115 28.5317 27.3957 28.5618 27.5879C28.5919 27.7802 28.5825 27.9767 28.5343 28.1652C28.486 28.3538 28.3999 28.5306 28.2812 28.6848C28.1624 28.839 28.0135 28.9675 27.8436 29.0623C26.6338 29.7204 25.2786 30.0651 23.9014 30.0651C22.5242 30.0651 21.169 29.7204 19.9592 29.0623C19.6061 28.8415 19.3534 28.4912 19.2553 28.0865C19.1572 27.6818 19.2214 27.2547 19.4342 26.8967C19.9345 26.1163 20.6306 25.4807 21.453 25.053C22.2754 24.6254 23.1955 24.4206 24.1217 24.4592H24.1311Z" fill="#425763"/>
<path d="M24.0938 25.0315C24.8171 25.0656 25.5223 25.2691 26.1525 25.6258C26.7827 25.9824 27.3203 26.4821 27.7219 27.0846C27.8168 27.2158 27.8811 27.3666 27.9103 27.5259C27.9394 27.6852 27.9327 27.8489 27.8904 28.0053C27.8482 28.1616 27.7716 28.3065 27.6662 28.4294C27.5608 28.5524 27.4293 28.6502 27.2813 28.7159C26.2096 29.217 25.0376 29.4665 23.8547 29.4454C22.6718 29.4243 21.5094 29.133 20.4563 28.594C20.3152 28.5205 20.1916 28.4175 20.0939 28.292C19.9963 28.1664 19.9268 28.0213 19.8903 27.8664C19.8538 27.7116 19.8512 27.5507 19.8825 27.3948C19.9139 27.2388 19.9785 27.0914 20.0719 26.9627C20.5208 26.3325 21.121 25.8252 21.8172 25.4878C22.5135 25.1503 23.2835 24.9934 24.0563 25.0315H24.0938Z" fill="#A2B6BA"/>
<path d="M24.075 25.1157C24.6653 25.1408 25.2414 25.305 25.7562 25.595C26.271 25.885 26.7101 26.2926 27.0375 26.7845C27.1079 26.8948 27.1545 27.0186 27.1742 27.148C27.1939 27.2775 27.1863 27.4096 27.1519 27.5358C27.1174 27.6621 27.0569 27.7798 26.9743 27.8813C26.8916 27.9828 26.7886 28.0658 26.6718 28.1251C25.7987 28.533 24.8438 28.7358 23.8802 28.7179C22.9166 28.7 21.9699 28.462 21.1125 28.022C21.003 27.9577 20.9078 27.8718 20.8325 27.7696C20.7572 27.6674 20.7035 27.5509 20.6746 27.4273C20.6456 27.3037 20.6421 27.1755 20.6642 27.0505C20.6863 26.9255 20.7336 26.8063 20.8031 26.7001C21.1679 26.1861 21.6563 25.7724 22.2232 25.4971C22.7902 25.2218 23.4174 25.0939 24.0468 25.1251L24.075 25.1157Z" fill="#87999B"/>
<path d="M23.7093 27.7594C27.0644 27.7594 29.7843 25.0395 29.7843 21.6844C29.7843 18.3292 27.0644 15.6094 23.7093 15.6094C20.3541 15.6094 17.6343 18.3292 17.6343 21.6844C17.6343 25.0395 20.3541 27.7594 23.7093 27.7594Z" fill="#425763"/>
<path d="M23.7096 26.8874C26.6919 26.8874 29.1096 24.4697 29.1096 21.4874C29.1096 18.5051 26.6919 16.0874 23.7096 16.0874C20.7272 16.0874 18.3096 18.5051 18.3096 21.4874C18.3096 24.4697 20.7272 26.8874 23.7096 26.8874Z" fill="#A2B6BA"/>
<path d="M23.925 26.0248C26.6795 26.0248 28.9125 23.7918 28.9125 21.0373C28.9125 18.2828 26.6795 16.0498 23.925 16.0498C21.1705 16.0498 18.9375 18.2828 18.9375 21.0373C18.9375 23.7918 21.1705 26.0248 23.925 26.0248Z" fill="#CBDEE4"/>
<path d="M26.6624 20.6158C27.2734 20.6158 27.7687 20.1205 27.7687 19.5096C27.7687 18.8986 27.2734 18.4033 26.6624 18.4033C26.0514 18.4033 25.5562 18.8986 25.5562 19.5096C25.5562 20.1205 26.0514 20.6158 26.6624 20.6158Z" fill="#425763"/>
<path d="M26.7096 20.1096C27.0772 20.1096 27.3752 19.8116 27.3752 19.4439C27.3752 19.0763 27.0772 18.7783 26.7096 18.7783C26.342 18.7783 26.0439 19.0763 26.0439 19.4439C26.0439 19.8116 26.342 20.1096 26.7096 20.1096Z" fill="#4ED154"/>
<path d="M22.7064 19.0781C22.7937 18.5277 22.9925 18.0009 23.2907 17.5302C23.589 17.0594 23.9804 16.6546 24.4408 16.3406C24.6377 16.2281 24.6002 16.1062 24.3846 16.0781H24.0939C23.8596 16.0781 22.2189 16.1531 21.6377 19.1625L22.7064 19.0781Z" fill="#A2B6BA"/>
<path d="M25.4721 22.1439C25.4721 20.2489 24.0366 18.7127 22.2658 18.7127C20.4951 18.7127 19.0596 20.2489 19.0596 22.1439C19.0596 24.039 20.4951 25.5752 22.2658 25.5752C24.0366 25.5752 25.4721 24.039 25.4721 22.1439Z" fill="#425763"/>
<path d="M24.8696 22.0932C24.8749 20.6487 23.7837 19.4736 22.4323 19.4687C21.081 19.4637 19.9812 20.6307 19.9759 22.0753C19.9706 23.5199 21.0618 24.6949 22.4132 24.6999C23.7645 24.7048 24.8643 23.5378 24.8696 22.0932Z" fill="#3587C4"/>
<path d="M24.4663 21.9884C24.4707 20.7872 23.5635 19.81 22.44 19.8059C21.3164 19.8018 20.402 20.7722 20.3976 21.9735C20.3932 23.1747 21.3005 24.1518 22.424 24.1559C23.5476 24.16 24.4619 23.1896 24.4663 21.9884Z" fill="#4DA3EC"/>
<path d="M23.5781 20.9857C23.5792 20.6699 23.3115 20.4129 22.9802 20.4117C22.6488 20.4105 22.3792 20.6655 22.3781 20.9814C22.3769 21.2972 22.6446 21.5542 22.976 21.5554C23.3073 21.5566 23.5769 21.3016 23.5781 20.9857Z" fill="white"/>
<path d="M23.85 17.5124C24.0925 17.2451 24.3559 16.9974 24.6375 16.7718C24.6893 16.7299 24.7505 16.7012 24.8158 16.6882C24.8811 16.6751 24.9486 16.6781 25.0125 16.6968C25.549 16.8545 26.0627 17.0814 26.5406 17.3718C26.6193 17.4214 26.6793 17.4957 26.7113 17.583C26.7434 17.6703 26.7457 17.7658 26.7179 17.8545C26.6901 17.9433 26.6337 18.0204 26.5576 18.0738C26.4815 18.1272 26.3898 18.154 26.2969 18.1499C25.5998 18.1056 24.9 18.1245 24.2063 18.2061C24.123 18.213 24.0396 18.1951 23.9666 18.1546C23.8936 18.114 23.8343 18.0527 23.7961 17.9784C23.758 17.9041 23.7427 17.8202 23.7523 17.7372C23.7619 17.6543 23.7959 17.576 23.85 17.5124Z" fill="#E1F0F4"/>
</g>
<defs>
<clipPath id="clip0_1_14060">
<rect width="30" height="30" fill="white"/>
</clipPath>
</defs>
</svg>
