<svg width="30" height="30" viewBox="0 0 30 30" fill="none" xmlns="http://www.w3.org/2000/svg">
<g clip-path="url(#clip0_1_9927)">
<path d="M20.2688 17.3721C21.3048 17.7469 22.2329 18.3704 22.9718 19.1877C23.7106 20.005 24.2375 20.9911 24.5063 22.0596C24.8036 23.2429 24.7787 24.4843 24.4341 25.6548C24.0896 26.8253 23.438 27.8823 22.5469 28.7158C21.4155 29.5146 20.0489 29.9108 18.6657 29.8408C15.4407 29.8408 12.2344 28.6971 9.01879 27.5346C7.90655 27.1898 6.856 26.6709 5.90629 25.9971C5.39681 25.6136 4.96867 25.1327 4.64678 24.5823C4.32489 24.0318 4.11567 23.4229 4.03129 22.7908C3.95733 21.8832 4.12375 20.9721 4.51379 20.1492C4.90384 19.3263 5.50376 18.6207 6.25316 18.1033C8.37683 16.6031 10.9188 15.8094 13.5188 15.8346C15.8338 16.0014 18.1099 16.5198 20.2688 17.3721Z" fill="#293338"/>
<path d="M19.4532 17.5876C20.376 17.8984 21.2082 18.4311 21.8768 19.1389C22.5454 19.8468 23.0299 20.708 23.2876 21.6469C23.5605 22.6764 23.5438 23.7613 23.2394 24.782C22.9351 25.8026 22.3548 26.7194 21.5626 27.4313C20.5252 28.1208 19.2899 28.4502 18.047 28.3688C15.1314 28.3688 12.2345 27.3844 9.31885 26.3719C8.31902 26.0784 7.37039 25.6325 6.50635 25.0501C6.04694 24.7206 5.65895 24.3016 5.36572 23.8182C5.07249 23.3349 4.88009 22.7972 4.8001 22.2376C4.74168 21.4447 4.89701 20.6508 5.24988 19.9384C5.60275 19.2261 6.14026 18.6215 6.80635 18.1876C8.74438 16.8827 11.0326 16.1962 13.3689 16.2188C15.454 16.3683 17.5049 16.8297 19.4532 17.5876Z" fill="#425763"/>
<path d="M12.347 20.2779L13.6501 22.3217C13.6914 22.3912 13.7131 22.4705 13.7131 22.5514C13.7131 22.6322 13.6914 22.7115 13.6501 22.7811L10.9126 27.1873C10.9126 27.1873 8.1001 26.7186 7.58447 25.9217L8.11885 20.6248L9.3751 19.1436L12.347 20.2779Z" fill="#E8CCAA"/>
<path d="M24.362 12.0243C24.3822 6.51532 19.941 2.03305 14.4424 2.01289C8.94374 1.99274 4.46984 6.44233 4.44965 11.9513C4.42945 17.4603 8.87062 21.9426 14.3693 21.9628C19.8679 21.9829 24.3418 17.5333 24.362 12.0243Z" fill="#293338"/>
<path d="M7.9126 2.67196C7.9126 2.67196 8.89697 8.41618e-05 15.6001 0.337584C17.9345 0.440709 26.3157 5.22196 24.8813 14.0626C24.8813 14.0626 23.4751 18.4688 21.0751 18.3376C21.0751 18.3376 21.8251 17.7095 20.9251 15.422C20.0251 13.1345 18.9845 11.8407 17.5501 11.2032C16.1157 10.5657 7.9126 2.67196 7.9126 2.67196Z" fill="#72402A"/>
<path d="M20.8033 8.85957C23.1643 8.85957 25.0783 6.94559 25.0783 4.58457C25.0783 2.22355 23.1643 0.30957 20.8033 0.30957C18.4423 0.30957 16.5283 2.22355 16.5283 4.58457C16.5283 6.94559 18.4423 8.85957 20.8033 8.85957Z" fill="#72402A"/>
<path d="M20.4939 8.12803C22.3993 8.12803 23.9439 6.58341 23.9439 4.67803C23.9439 2.77264 22.3993 1.22803 20.4939 1.22803C18.5886 1.22803 17.0439 2.77264 17.0439 4.67803C17.0439 6.58341 18.5886 8.12803 20.4939 8.12803Z" fill="#89563A"/>
<path d="M24.0422 11.0834C24.0624 5.5744 19.6212 1.09213 14.1226 1.07198C8.62392 1.05182 4.15001 5.50142 4.12982 11.0104C4.10963 16.5194 8.5508 21.0017 14.0494 21.0218C19.5481 21.042 24.022 16.5924 24.0422 11.0834Z" fill="#A67A65"/>
<path d="M23.6064 10.3592C23.6434 11.6519 23.4204 12.939 22.9505 14.1439C22.4806 15.3489 21.7734 16.4472 20.871 17.3736C19.9685 18.3 18.8892 19.0357 17.697 19.537C16.5047 20.0383 15.224 20.295 13.9307 20.2919C12.6373 20.2887 11.3578 20.0258 10.1681 19.5187C8.97829 19.0116 7.90252 18.2707 7.00457 17.3399C6.10663 16.4091 5.40481 15.3074 4.94078 14.1002C4.47675 12.893 4.25996 11.6049 4.30327 10.3123C4.30327 4.9779 8.66264 1.18103 13.997 1.19978C19.3314 1.21853 23.6251 5.02478 23.6064 10.3592Z" fill="#E5A98C"/>
<path d="M23.4812 10.0919C23.4999 4.96606 19.4858 0.795959 14.5152 0.777741C9.54471 0.759523 5.50007 4.90008 5.48128 10.0259C5.4625 15.1518 9.47667 19.3219 14.4472 19.3401C19.4177 19.3583 23.4624 15.2178 23.4812 10.0919Z" fill="#E8CCAA"/>
<path d="M18.5499 11.3624C18.5636 7.62936 15.6407 4.59235 12.0216 4.57909C8.40241 4.56582 5.4574 7.58133 5.44372 11.3144C5.43004 15.0475 8.35286 18.0845 11.972 18.0977C15.5912 18.111 18.5362 15.0955 18.5499 11.3624Z" fill="#FAEACF"/>
<path d="M15.1084 12.0756C15.1105 11.4905 14.7135 11.0147 14.2216 11.0129C13.7298 11.0111 13.3293 11.484 13.3271 12.0691C13.325 12.6541 13.722 13.1299 14.2139 13.1317C14.7057 13.1335 15.1062 12.6607 15.1084 12.0756Z" fill="#425763"/>
<path d="M14.5745 11.7063C14.5751 11.5562 14.4748 11.4341 14.3505 11.4336C14.2263 11.4332 14.1251 11.5545 14.1245 11.7047C14.124 11.8548 14.2243 11.9769 14.3485 11.9774C14.4728 11.9778 14.574 11.8565 14.5745 11.7063Z" fill="white"/>
<path d="M7.97604 10.5136C7.97818 9.92849 7.58118 9.45274 7.0893 9.45093C6.59743 9.44913 6.19695 9.92197 6.1948 10.507C6.19266 11.0921 6.58966 11.5679 7.08154 11.5697C7.57341 11.5715 7.97389 11.0986 7.97604 10.5136Z" fill="#425763"/>
<path d="M7.45148 10.135C7.45203 9.9849 7.35174 9.86281 7.22748 9.86235C7.10322 9.8619 7.00204 9.98325 7.00148 10.1334C7.00093 10.2836 7.10122 10.4056 7.22549 10.4061C7.34975 10.4066 7.45093 10.2852 7.45148 10.135Z" fill="white"/>
<path d="M20.5029 11.8127C20.5029 11.8127 21.3092 11.194 21.9654 11.4377C22.6217 11.6815 22.5186 13.7627 20.8498 13.9877L20.5029 11.8127Z" fill="#FAEACF"/>
<path d="M12.2346 16.5842C11.6735 16.4894 11.1413 16.2682 10.6783 15.9373C10.4859 15.7801 10.2642 15.6626 10.026 15.5918C9.78779 15.521 9.53789 15.4982 9.29082 15.5248C9.16895 15.5248 8.97207 15.3373 8.7752 15.2342C8.57832 15.1311 8.25957 15.103 8.23145 15.2342C8.28839 15.4478 8.38026 15.6505 8.50332 15.8342C8.52855 16.0428 8.52855 16.2537 8.50332 16.4623C8.48009 16.575 8.4794 16.6912 8.50127 16.8041C8.52315 16.9171 8.56717 17.0246 8.63078 17.1205C8.6944 17.2163 8.77637 17.2986 8.87195 17.3627C8.96753 17.4267 9.07484 17.4712 9.1877 17.4936C9.67872 17.6381 10.2043 17.6117 10.6783 17.4186C10.9877 17.3061 12.2346 16.5842 12.2346 16.5842Z" fill="#931655"/>
<path d="M14.5124 0.937314C14.5124 0.937314 13.2937 4.15294 11.1562 4.82794C9.01865 5.50294 4.97803 7.30294 4.36865 9.92794C4.36865 9.92794 5.46553 -0.562687 14.5124 0.937314Z" fill="#89563A"/>
<path d="M11.4561 2.96245C12.2874 5.25565 13.7228 7.28164 15.6107 8.82626C17.4985 10.3709 19.7686 11.3767 22.1811 11.7374L23.9342 11.6343L18.7967 3.38432C18.7967 3.38432 14.5123 0.937447 11.4561 2.96245Z" fill="#89563A"/>
<path d="M10.8564 11.1279L17.9908 13.1717C17.9908 13.1717 16.5002 15.2904 14.4564 15.1311C12.4127 14.9717 11.3252 13.1717 10.8564 11.1279Z" stroke="#425763" stroke-width="0.665625" stroke-miterlimit="10"/>
<path d="M4.17188 9.21582L10.5094 11.0252C10.5094 11.0252 9.1875 12.9002 7.37813 12.7689C5.56875 12.6377 4.58437 11.0252 4.17188 9.21582Z" stroke="#425763" stroke-width="0.665625" stroke-miterlimit="10"/>
<path d="M12.1875 1.37825C13.1546 0.715496 14.3183 0.401418 15.4875 0.487621C17.5781 0.581371 25.2375 4.50012 23.925 12.422C23.925 12.422 23.2125 15.7126 22.1438 17.1095C21.3267 16.2771 20.7026 15.2754 20.3156 14.1751C19.5188 12.1314 18.5813 10.9689 17.2875 10.4251C15.9938 9.88137 12.1875 1.37825 12.1875 1.37825Z" fill="#89563A"/>
<path d="M12.8438 2.81259C12.8438 2.81259 14.3906 10.0313 23.2406 11.0907C23.2406 11.0907 23.2406 2.40946 14.475 1.63134C14.475 1.61259 12.8438 2.14696 12.8438 2.81259Z" fill="#B57555"/>
<path d="M17.9346 13.1814L19.9408 12.7783" stroke="#425763" stroke-width="0.665625" stroke-miterlimit="10"/>
<path d="M14.3248 3.15924C14.3248 3.15924 10.3686 2.36237 8.3623 3.83424C8.3623 3.83424 10.4529 -0.356384 15.3936 1.82799L14.3248 3.15924Z" fill="#B57555"/>
<path d="M10.3218 27.628L11.8593 25.4249L14.2312 21.6843L12.7874 21.478L14.6624 21.6843L15.5249 23.7562L12.1218 27.9562L10.3218 27.628Z" fill="#293338"/>
<path d="M7.84668 26.325L9.58106 25.2188L9.85293 26.8219C9.16978 26.7211 8.49792 26.5547 7.84668 26.325Z" fill="#A67A65"/>
<path opacity="0.49" d="M19.6875 19.9501C19.6875 19.9501 21.2906 22.9501 20.2219 24.7501C19.1531 26.5501 17.8125 28.8938 17.8125 28.8938C17.8125 28.8938 20.6813 30.3657 22.2844 28.022C23.8875 25.6782 25.6219 21.0845 21.75 18.647L19.6875 19.9501Z" fill="#293338"/>
<path d="M20.3345 13.0687L22.1626 17.1374C23.0915 15.9817 23.8088 14.6709 24.2813 13.2656C24.8157 11.3343 20.3345 13.0687 20.3345 13.0687Z" fill="#72402A"/>
<path d="M15.7314 2.8125C15.7314 2.8125 19.1346 3.00937 20.3346 5.2875C21.0284 6.45982 21.4482 7.77381 21.5627 9.13125L18.0939 6.12188L15.7314 2.8125Z" fill="#D69274"/>
<path d="M23.9908 24.4595C24.8554 24.5093 25.6944 24.7715 26.4335 25.2228C27.1726 25.6741 27.7891 26.3006 28.2283 27.047C28.3315 27.2124 28.3999 27.397 28.4293 27.5897C28.4587 27.7824 28.4486 27.9791 28.3994 28.1677C28.3503 28.3564 28.2632 28.533 28.1435 28.6868C28.0239 28.8407 27.8741 28.9686 27.7033 29.0626C26.4953 29.7207 25.1415 30.0655 23.7658 30.0655C22.3902 30.0655 21.0364 29.7207 19.8283 29.0626C19.4752 28.8418 19.2226 28.4915 19.1245 28.0868C19.0263 27.682 19.0905 27.255 19.3033 26.897C19.7976 26.1217 20.4857 25.489 21.2997 25.0614C22.1136 24.6339 23.0252 24.4264 23.944 24.4595H23.9908Z" fill="#425763"/>
<path d="M23.9624 25.0311C24.6858 25.0652 25.3909 25.2687 26.0211 25.6254C26.6513 25.982 27.1889 26.4817 27.5906 27.0842C27.685 27.2136 27.7499 27.3621 27.7807 27.5192C27.8116 27.6763 27.8077 27.8383 27.7693 27.9938C27.7309 28.1493 27.6589 28.2944 27.5583 28.4191C27.4578 28.5438 27.3312 28.6449 27.1874 28.7155C26.1176 29.2171 24.947 29.467 23.7655 29.4459C22.584 29.4248 21.4231 29.1332 20.3718 28.5936C20.23 28.521 20.1055 28.4186 20.0068 28.2934C19.9082 28.1683 19.8378 28.0233 19.8004 27.8684C19.763 27.7135 19.7595 27.5523 19.7902 27.3959C19.8209 27.2396 19.885 27.0917 19.9781 26.9623C20.4325 26.3357 21.0351 25.8314 21.732 25.4944C22.4289 25.1574 23.1984 24.9982 23.9718 25.0311H23.9624Z" fill="#A2B6BA"/>
<path d="M23.9435 25.1154C24.5323 25.142 25.1065 25.3069 25.6195 25.5968C26.1326 25.8868 26.5702 26.2935 26.8966 26.7842C26.9671 26.8945 27.0137 27.0184 27.0334 27.1478C27.0531 27.2772 27.0455 27.4093 27.0111 27.5356C26.9766 27.6619 26.9161 27.7795 26.8334 27.881C26.7508 27.9825 26.6477 28.0656 26.531 28.1248C25.6595 28.5326 24.7061 28.7353 23.7441 28.7175C22.782 28.6996 21.8368 28.4616 20.981 28.0217C20.8664 27.9615 20.7655 27.8782 20.6847 27.7771C20.6038 27.6759 20.5448 27.5591 20.5114 27.4341C20.4779 27.309 20.4707 27.1784 20.4902 27.0504C20.5097 26.9224 20.5555 26.7998 20.6248 26.6904C20.9895 26.1765 21.478 25.7627 22.0449 25.4875C22.6119 25.2122 23.239 25.0842 23.8685 25.1154H23.9435Z" fill="#87999B"/>
<path d="M23.5779 27.7594C26.9331 27.7594 29.6529 25.0395 29.6529 21.6844C29.6529 18.3292 26.9331 15.6094 23.5779 15.6094C20.2228 15.6094 17.5029 18.3292 17.5029 21.6844C17.5029 25.0395 20.2228 27.7594 23.5779 27.7594Z" fill="#425763"/>
<path d="M23.5782 26.8874C26.5606 26.8874 28.9782 24.4697 28.9782 21.4874C28.9782 18.5051 26.5606 16.0874 23.5782 16.0874C20.5959 16.0874 18.1782 18.5051 18.1782 21.4874C18.1782 24.4697 20.5959 26.8874 23.5782 26.8874Z" fill="#A2B6BA"/>
<path d="M23.7937 26.0248C26.5482 26.0248 28.7812 23.7918 28.7812 21.0373C28.7812 18.2828 26.5482 16.0498 23.7937 16.0498C21.0391 16.0498 18.8062 18.2828 18.8062 21.0373C18.8062 23.7918 21.0391 26.0248 23.7937 26.0248Z" fill="#CBDEE4"/>
<path d="M26.5311 20.6158C27.142 20.6158 27.6373 20.1205 27.6373 19.5096C27.6373 18.8986 27.142 18.4033 26.5311 18.4033C25.9201 18.4033 25.4248 18.8986 25.4248 19.5096C25.4248 20.1205 25.9201 20.6158 26.5311 20.6158Z" fill="#425763"/>
<path d="M26.5782 20.1096C26.9458 20.1096 27.2438 19.8116 27.2438 19.4439C27.2438 19.0763 26.9458 18.7783 26.5782 18.7783C26.2106 18.7783 25.9126 19.0763 25.9126 19.4439C25.9126 19.8116 26.2106 20.1096 26.5782 20.1096Z" fill="#4ED154"/>
<path d="M22.5752 19.0781C22.6603 18.527 22.8582 17.9994 23.1566 17.5283C23.4551 17.0573 23.8476 16.6529 24.3096 16.3406C24.4971 16.2281 24.4689 16.1062 24.2533 16.0781H23.9533C23.7283 16.0781 22.0783 16.1531 21.4971 19.1625L22.5752 19.0781Z" fill="#A2B6BA"/>
<path d="M25.3407 22.1439C25.3407 20.2489 23.9052 18.7127 22.1345 18.7127C20.3637 18.7127 18.9282 20.2489 18.9282 22.1439C18.9282 24.039 20.3637 25.5752 22.1345 25.5752C23.9052 25.5752 25.3407 24.039 25.3407 22.1439Z" fill="#425763"/>
<path d="M24.7378 22.0932C24.7431 20.6487 23.6519 19.4736 22.3005 19.4687C20.9491 19.4637 19.8494 20.6307 19.8441 22.0753C19.8388 23.5199 20.93 24.6949 22.2813 24.6999C23.6327 24.7048 24.7325 23.5378 24.7378 22.0932Z" fill="#3587C4"/>
<path d="M24.3345 21.9884C24.3389 20.7872 23.4317 19.81 22.3081 19.8059C21.1846 19.8018 20.2702 20.7722 20.2658 21.9735C20.2614 23.1747 21.1686 24.1518 22.2922 24.1559C23.4157 24.16 24.3301 23.1896 24.3345 21.9884Z" fill="#4DA3EC"/>
<path d="M23.4462 20.995C23.4474 20.6792 23.1797 20.4222 22.8483 20.421C22.517 20.4197 22.2474 20.6748 22.2462 20.9906C22.2451 21.3065 22.5128 21.5635 22.8441 21.5647C23.1755 21.5659 23.4451 21.3109 23.4462 20.995Z" fill="white"/>
<path d="M23.7187 17.5125C23.9577 17.2451 24.218 16.9974 24.4968 16.7719C24.5508 16.7306 24.6135 16.7023 24.6802 16.6893C24.7469 16.6763 24.8157 16.6789 24.8812 16.6969C25.414 16.8566 25.9243 17.0834 26.3999 17.3719C26.4777 17.4212 26.5373 17.4946 26.5694 17.5809C26.6016 17.6672 26.6046 17.7617 26.578 17.8499C26.5515 17.9381 26.4968 18.0151 26.4223 18.0693C26.3478 18.1235 26.2576 18.1518 26.1656 18.15C25.4684 18.1056 24.7687 18.1245 24.0749 18.2062C23.99 18.2184 23.9033 18.2037 23.8271 18.1643C23.7508 18.1249 23.6888 18.0627 23.6496 17.9863C23.6103 17.91 23.5959 17.8233 23.6083 17.7383C23.6207 17.6534 23.6593 17.5745 23.7187 17.5125Z" fill="#E1F0F4"/>
</g>
<defs>
<clipPath id="clip0_1_9927">
<rect width="30" height="30" fill="white"/>
</clipPath>
</defs>
</svg>
