<svg width="16" height="16" viewBox="0 0 16 16" fill="none" xmlns="http://www.w3.org/2000/svg">
<path d="M9.59378 1.59374C9.90977 1.27775 10.2849 1.02709 10.6978 0.856077C11.1106 0.685065 11.5531 0.597046 12 0.597046C12.4469 0.597046 12.8894 0.685065 13.3022 0.856077C13.7151 1.02709 14.0902 1.27775 14.4062 1.59374C14.7222 1.90973 14.9729 2.28486 15.1439 2.69772C15.3149 3.11058 15.4029 3.55308 15.4029 3.99996C15.4029 4.44683 15.3149 4.88934 15.1439 5.3022C14.9729 5.71506 14.7222 6.09019 14.4062 6.40618L5.07289 15.7395C4.90623 15.9062 4.68017 15.9999 4.44444 16H0.888889C0.653141 16 0.427049 15.9063 0.26035 15.7396C0.0936505 15.5729 0 15.3468 0 15.1111V11.5555C5.03444e-05 11.3198 0.0937339 11.0937 0.260444 10.9271L9.59378 1.59374ZM1.77778 14.2222H4.07644L13.1493 5.14929C13.4434 4.84229 13.6056 4.4323 13.601 4.00719C13.5964 3.58208 13.4255 3.17567 13.1249 2.87505C12.8243 2.57443 12.4179 2.40353 11.9928 2.39896C11.5677 2.3944 11.1577 2.55653 10.8507 2.85062L1.77778 11.9235V14.2222Z" fill="white"/>
<path d="M8.70489 2.48267C8.87158 2.31603 9.09763 2.22241 9.33333 2.22241C9.56903 2.22241 9.79509 2.31603 9.96178 2.48267L13.5173 6.03822C13.6793 6.20587 13.7688 6.4304 13.7668 6.66347C13.7648 6.89653 13.6713 7.11948 13.5065 7.28428C13.3417 7.44909 13.1188 7.54257 12.8857 7.5446C12.6526 7.54662 12.4281 7.45703 12.2604 7.29511L8.70489 3.73956C8.53825 3.57286 8.44463 3.34681 8.44463 3.11111C8.44463 2.87541 8.53825 2.64936 8.70489 2.48267Z" fill="white"/>
</svg>
