<svg width="30" height="30" viewBox="0 0 30 30" fill="none" xmlns="http://www.w3.org/2000/svg">
<g clip-path="url(#clip0_1_7041)">
<path d="M23.9062 3L26.4375 5.0625L28.5938 10.0312L3.9375 24.4688L1.21875 19.125L14.9062 6.9375L23.9062 3Z" fill="#14425B"/>
<path d="M29.3436 16.0312C27.9374 24.1875 18.9374 30.0937 10.9686 28.875C4.49987 27.9375 1.49987 22.4062 3.09362 16.7812C4.59362 11.3437 10.2186 6.28125 16.5936 5.15625C24.1874 3.84375 30.6561 8.34375 29.3436 16.0312Z" fill="#14425B"/>
<path d="M24.5625 3.28125L27 6.09375L28.9688 10.9687L4.3125 24.5625L1.5 19.6875L24.5625 3.28125Z" fill="#14425B"/>
<path d="M29.1561 15.5625C27.7499 23.7188 18.7499 29.625 10.7811 28.4063C4.31237 27.4688 1.31237 21.9375 2.90612 16.3125C4.40612 10.875 9.93737 5.81251 16.3124 4.68751C23.9999 3.28126 30.4686 7.87501 29.1561 15.5625Z" fill="#14425B"/>
<path d="M27.5625 11.9063C26.1563 20.25 17.0625 26.1563 9 24.9375C2.4375 23.9063 -0.656246 18.375 0.937504 12.5625C2.4375 6.9375 8.15625 1.875 14.5313 0.750002C22.3125 -0.656248 28.875 4.03125 27.5625 11.9063Z" fill="#14425B"/>
<path d="M27.9376 15.2812C26.7188 22.7812 18.4688 28.2187 11.2501 27.0937C5.43758 26.25 2.71883 21.1875 4.12508 16.0312C5.53133 11.0625 10.5938 6.46874 16.3126 5.43749C23.2501 4.12499 29.1563 8.24999 27.9376 15.2812Z" fill="#0B6D84"/>
<path d="M26.9063 13.7812C25.6875 21.4687 17.3438 26.9062 10.125 25.7812C4.21877 24.8438 1.40627 19.6875 2.81252 14.4375C4.12502 9.375 9.28127 4.6875 15.0938 3.65625C22.125 2.4375 28.0313 6.65625 26.9063 13.7812Z" fill="#0B6D84"/>
<path d="M26.4375 12.0937C25.2188 19.7812 16.875 25.2188 9.65627 24.0938C3.75002 23.1562 0.937519 18 2.34377 12.75C3.65627 7.6875 8.81252 3 14.625 1.96875C21.6563 0.749998 27.5625 4.96875 26.4375 12.0937Z" fill="#00ADF2"/>
<path d="M24.4689 11.625C23.4376 18 16.5001 22.5937 10.4064 21.6562C5.43765 20.9062 3.18765 16.5937 4.4064 12.0937C5.5314 7.87499 9.8439 4.03124 14.6251 3.18749C20.4376 2.06249 25.4064 5.62499 24.4689 11.625Z" fill="#43BBEF"/>
<path d="M26.5312 5.4375L27 10.0312L28.125 11.7188L28.5938 10.125L26.5312 5.4375Z" fill="#14425B"/>
<path d="M19.2188 11.8125L19.4063 10.7812C19.7813 8.62499 18.1876 7.12499 15.7501 7.21874H15.3751C13.0313 7.40624 10.6876 9.09374 10.1251 11.25L9.84383 12.1875C9.56258 12.4687 8.90633 12.9375 8.81258 13.4062L8.43758 14.5312C8.06258 15.8437 8.25008 17.25 9.09383 18.0937C9.65633 18.6562 10.5938 19.125 12.0001 19.125H13.5938C15.0938 19.125 16.2188 18.5625 17.1563 17.9062C18.4688 16.875 19.3126 15.4687 19.5938 14.1562L19.7813 13.0312C19.8751 12.5625 19.5001 12 19.2188 11.8125ZM15.0938 8.71874H15.3751C16.9688 8.62499 18.0001 9.65624 17.7188 11.1562L17.5313 11.9062L11.3438 12.1875L11.5313 11.4375C12.0001 10.0312 13.5001 8.81249 15.0938 8.71874ZM14.0626 16.125L13.7813 17.3437C13.6876 17.625 13.4063 17.9062 13.1251 17.9062C12.8438 17.9062 12.6563 17.7187 12.6563 17.3437L12.9376 16.125C12.3751 15.9375 12.1876 15.4687 12.2813 14.8125C12.4688 14.0625 13.3126 13.4062 14.1563 13.3125C15.0001 13.3125 15.5626 13.875 15.3751 14.625C15.2813 15.2812 14.7188 15.8437 14.0626 16.125Z" fill="#0B6D84"/>
<path d="M19.8751 11.5313L20.0626 10.5C20.3438 8.4375 18.7501 6.84375 16.4063 7.03125H16.0313C13.6876 7.21875 11.3438 8.90625 10.7813 11.0625L10.5001 12C10.2188 12.2813 9.56258 12.75 9.46883 13.2188L9.09383 14.3438C8.71883 15.6563 8.90633 17.0625 9.75008 17.9063C10.3126 18.4688 11.2501 18.9375 12.6563 18.9375H14.2501C15.7501 18.9375 16.8751 18.375 17.8126 17.7188C19.1251 16.6875 19.9688 15.2812 20.2501 13.9688L20.4376 12.8438C20.4376 12.2812 20.0626 11.8125 19.8751 11.5313ZM15.6563 8.53125H15.9376C17.5313 8.4375 18.5626 9.46875 18.2813 10.9688L18.0938 11.7188L11.9063 12L12.1876 11.25C12.5626 9.75 14.0626 8.625 15.6563 8.53125ZM14.7188 15.8438L14.4376 17.0625C14.3438 17.3438 14.0626 17.625 13.7813 17.625C13.5001 17.625 13.3126 17.4375 13.3126 17.0625L13.5938 15.8438C13.0313 15.6562 12.8438 15.1875 12.9376 14.5313C13.1251 13.7813 13.9688 13.125 14.8126 13.0312C15.6563 13.0312 16.2188 13.5938 16.0313 14.3438C15.8438 15.0938 15.2813 15.6562 14.7188 15.8438Z" fill="#0B6D84"/>
<path d="M18.8438 11.1562L19.0312 10.2187C19.4062 8.15625 17.8125 6.65625 15.5625 6.84375H15.1875C12.9375 6.9375 10.6875 8.625 10.125 10.6875L9.84375 11.625C9.5625 11.9062 9 12.375 8.90625 12.75L8.4375 13.7812C8.0625 15.0938 8.25 16.4062 9 17.25C9.5625 17.8125 10.4063 18.2812 11.8125 18.1875H13.4063C14.8125 18.1875 15.9375 17.625 16.7812 16.9688C18.0938 16.0312 18.9375 14.625 19.125 13.3125L19.3125 12.1875C19.4063 11.8125 19.0313 11.3438 18.8438 11.1562ZM14.8125 8.25H15.0938C16.5938 8.15625 17.625 9.1875 17.3438 10.5L17.1562 11.25L11.25 11.5313L11.4375 10.7813C11.8125 9.46875 13.3125 8.34375 14.8125 8.25ZM13.875 15.2812L13.5938 16.4062C13.5 16.6875 13.2188 16.9688 12.9375 16.9688C12.6563 16.9688 12.4687 16.7812 12.5625 16.5L12.8438 15.375C12.375 15.1875 12.0938 14.7188 12.2813 14.1563C12.4688 13.4063 13.2188 12.75 14.0625 12.75C14.8125 12.75 15.375 13.3125 15.1875 14.0625C15 14.5312 14.4375 15.0937 13.875 15.2812Z" fill="#F6F6F6"/>
<path d="M24.2813 11.25C24.7501 6.46875 21.0001 3.28125 15.9376 3.5625C11.0626 3.9375 6.00005 7.59375 4.4063 12.2813C2.5313 17.5313 5.5313 22.3125 11.6251 22.2188C17.9063 22.0313 23.7188 16.7813 24.2813 11.25Z" stroke="#F6F6F6" stroke-width="0.899156" stroke-miterlimit="10"/>
<path d="M26.7187 11.1562L26.3438 8.0625C26.3438 8.0625 27.6562 10.2187 27.9375 11.5312L26.5312 15L26.7187 11.1562Z" fill="#0B6D84"/>
</g>
<defs>
<clipPath id="clip0_1_7041">
<rect width="30" height="30" fill="white"/>
</clipPath>
</defs>
</svg>
