<svg width="64" height="64" viewBox="0 0 64 64" fill="none" xmlns="http://www.w3.org/2000/svg">
<path d="M45.5652 27.8261C45.5652 27.5493 45.4553 27.2839 45.2595 27.0882C45.0639 26.8925 44.7985 26.7826 44.5217 26.7826C44.245 26.7826 43.9795 26.8925 43.7839 27.0882C43.5881 27.2839 43.4782 27.5493 43.4782 27.8261C43.4782 30.8703 42.2689 33.7898 40.1163 35.9424C37.9637 38.095 35.0442 39.3043 32 39.3043C28.9557 39.3043 26.0362 38.095 23.8836 35.9424C21.731 33.7898 20.5217 30.8703 20.5217 27.8261C20.5217 27.5493 20.4118 27.2839 20.2161 27.0882C20.0204 26.8925 19.755 26.7826 19.4782 26.7826C19.2015 26.7826 18.9361 26.8925 18.7404 27.0882C18.5447 27.2839 18.4348 27.5493 18.4348 27.8261C18.4246 31.2501 19.7097 34.5513 22.0322 37.0673C24.3546 39.5833 27.5426 41.1279 30.9565 41.3913V44.5217H23.6521C23.3754 44.5217 23.11 44.6316 22.9143 44.8274C22.7186 45.023 22.6087 45.2884 22.6087 45.5652C22.6087 45.842 22.7186 46.1074 22.9143 46.303C23.11 46.4988 23.3754 46.6087 23.6521 46.6087H40.3478C40.6246 46.6087 40.89 46.4988 41.0856 46.303C41.2814 46.1074 41.3913 45.842 41.3913 45.5652C41.3913 45.2884 41.2814 45.023 41.0856 44.8274C40.89 44.6316 40.6246 44.5217 40.3478 44.5217H33.0434V41.3913C36.4573 41.1279 39.6454 39.5833 41.9678 37.0673C44.2903 34.5513 45.5753 31.2501 45.5652 27.8261Z" fill="#213A52"/>
<path d="M20.3756 24.696C20.9291 24.7771 21.4651 24.9499 21.9617 25.2073C21.8996 25.3035 21.8538 25.4093 21.8261 25.5204C21.6509 26.2765 21.5634 27.0503 21.5652 27.8265C21.5496 30.1392 22.2974 32.3926 23.6927 34.237C25.088 36.0816 27.0529 37.4142 29.2827 38.0283C31.5125 38.6424 33.8826 38.5037 36.0256 37.6337C38.1685 36.7636 39.9645 35.2109 41.1352 33.2162C42.3058 31.2215 42.7857 28.8963 42.5003 26.6012C42.215 24.306 41.1804 22.1692 39.5569 20.5218C37.9335 18.8745 35.8119 17.8089 33.5212 17.4901C31.2304 17.1713 28.8985 17.6172 26.8869 18.7586C26.8869 18.6021 26.7931 18.456 26.7722 18.2891C26.7722 18.0123 26.6622 17.7469 26.4665 17.5512C26.2708 17.3555 26.0054 17.2456 25.7287 17.2456C25.4519 17.2456 25.1865 17.3555 24.9908 17.5512C24.7951 17.7469 24.6852 18.0123 24.6852 18.2891C24.5287 19.3781 24.032 20.3897 23.2661 21.1795C22.4777 21.9493 21.4659 22.4497 20.3756 22.6091C20.0989 22.6091 19.8335 22.719 19.6378 22.9147C19.4421 23.1104 19.3322 23.3758 19.3322 23.6526C19.3322 23.9293 19.4421 24.1947 19.6378 24.3904C19.8335 24.5861 20.0989 24.696 20.3756 24.696ZM32 19.4786C33.651 19.4786 35.265 19.9682 36.6378 20.8855C38.0106 21.8028 39.0806 23.1065 39.7124 24.6319C40.3442 26.1572 40.5095 27.8357 40.1874 29.455C39.8653 31.0744 39.0703 32.5618 37.9028 33.7293C36.7353 34.8967 35.2479 35.6918 33.6286 36.0139C32.0092 36.336 30.3307 36.1707 28.8054 35.5389C27.2801 34.907 25.9763 33.8371 25.059 32.4642C24.1417 31.0915 23.6522 29.4775 23.6522 27.8265C23.6536 27.4493 23.6815 27.0727 23.7356 26.6995C24.2461 27.3783 24.5764 28.1752 24.6956 29.016C24.6956 29.2928 24.8055 29.5582 25.0013 29.7539C25.1969 29.9495 25.4624 30.0595 25.7391 30.0595C26.0159 30.0595 26.2813 29.9495 26.4769 29.7539C26.6727 29.5582 26.7826 29.2928 26.7826 29.016C26.9369 27.9249 27.4417 26.9136 28.2209 26.1344C29.0001 25.3552 30.0115 24.8504 31.1026 24.696C31.3793 24.696 31.6448 24.5861 31.8404 24.3904C32.0362 24.1947 32.1461 23.9293 32.1461 23.6526C32.1461 23.3758 32.0362 23.1104 31.8404 22.9147C31.6448 22.719 31.3793 22.6091 31.1026 22.6091C30.0111 22.4468 28.9991 21.9426 28.2122 21.1691C28.0573 21.0027 27.911 20.8286 27.7739 20.6473C29.0506 19.882 30.5114 19.478 32 19.4786ZM24.6956 22.6091C25.093 22.2317 25.4433 21.8077 25.7391 21.3464C26.0385 21.8051 26.3885 22.2286 26.7826 22.6091C27.16 23.0064 27.5839 23.3568 28.0452 23.6526C27.5865 23.9519 27.163 24.302 26.7826 24.696C26.3852 25.0734 26.0349 25.4973 25.7391 25.9586C25.4397 25.5 25.0897 25.0764 24.6956 24.696C24.3312 24.3013 23.9215 23.951 23.4748 23.6526C23.9188 23.3506 24.3283 23.0007 24.6956 22.6091Z" fill="#213A52"/>
</svg>
