<svg width="30" height="30" viewBox="0 0 30 30" fill="none" xmlns="http://www.w3.org/2000/svg">
<g clip-path="url(#clip0_1_10744)">
<path d="M23.4375 2.43779C23.4375 2.43779 20.5313 3.46904 21.1875 5.06279C21.8438 6.65654 21.5625 6.75029 21.2813 7.12529C21 7.50029 19.9687 8.25029 20.4375 8.53154C20.9062 8.81279 22.125 9.28154 22.3125 10.219C22.5 11.1565 21.9375 11.344 21.5625 11.8128C21.1875 12.2815 20.0625 12.3753 20.5312 13.6878C21 15.0003 22.125 15.1878 22.125 15.1878C22.125 15.1878 21.1875 13.8753 21.5625 13.5003C21.9375 13.1253 22.6875 12.5628 23.0625 12.7503C23.4375 12.9378 24.5625 12.3753 24.6562 11.719C24.75 11.0628 24.6563 11.344 25.4063 11.0628C26.1563 10.7815 26.8125 9.46904 26.5312 8.81279C26.25 8.15654 26.9063 6.46904 26.8125 6.18779C26.7188 5.90654 25.9688 5.15654 25.3125 4.50029C24.8438 3.84404 24.375 2.34404 23.4375 2.43779ZM16.5938 11.1565C16.5938 11.1565 15.5625 13.219 14.25 13.8753L17.9063 16.1253C17.9063 16.1253 17.7187 14.4378 19.125 12.2815C19.0312 12.3753 17.1563 12.0003 16.5938 11.1565Z" fill="#D67D56"/>
<path d="M24.0938 7.40595C24.0938 5.8122 22.2188 4.8747 21.8438 4.6872C21.4688 4.40595 19.7813 3.28095 18.375 4.03095C16.7813 4.96845 13.9688 10.031 17.25 12.4685H17.3438C21.0938 14.156 24.0938 9.1872 24.0938 7.40595Z" fill="#D67D56"/>
<path d="M23.25 2.25015C23.25 2.25015 23.8125 5.25015 22.0312 5.5314C20.3437 5.81265 20.3437 6.00015 20.1562 6.4689C19.9687 6.93765 19.7812 8.1564 19.3125 7.87515C18.75 7.68765 17.8125 6.75015 16.9688 7.0314C16.0312 7.31265 16.2187 7.87515 15.9375 8.43765C15.6562 9.00015 16.2187 9.93765 14.8125 10.2189C13.4062 10.5002 12.75 9.56265 12.75 9.56265C12.75 9.56265 14.3437 9.75015 14.4375 9.18765C14.5312 8.7189 14.7187 7.7814 14.3437 7.50015C13.9687 7.2189 13.9687 6.00015 14.4375 5.62515C15 5.25015 14.7188 5.43765 14.625 4.5939C14.5312 3.75015 15.2812 2.5314 16.0312 2.5314C16.7812 2.5314 17.8125 1.0314 18.1875 1.0314C18.5625 0.937651 19.5 1.31265 20.4375 1.50015C21.2812 1.7814 22.7812 1.4064 23.25 2.25015Z" fill="#D67D56"/>
<path d="M21.6563 9.28125C22.0705 9.28125 22.4063 8.94546 22.4063 8.53125C22.4063 8.11704 22.0705 7.78125 21.6563 7.78125C21.242 7.78125 20.9062 8.11704 20.9062 8.53125C20.9062 8.94546 21.242 9.28125 21.6563 9.28125Z" fill="#D67D56"/>
<path d="M18.5625 11.5313C19.1838 11.5313 19.6875 11.0276 19.6875 10.4063C19.6875 9.78493 19.1838 9.28125 18.5625 9.28125C17.9412 9.28125 17.4375 9.78493 17.4375 10.4063C17.4375 11.0276 17.9412 11.5313 18.5625 11.5313Z" fill="#D67D56"/>
<path d="M21.6563 2.53125C21.6563 2.53125 22.0313 4.125 21.4688 4.3125C20.9063 4.5 19.3126 5.15625 19.3126 5.15625L18.8438 6.5625C18.8438 6.5625 16.7813 5.4375 16.2188 6.09375C15.6563 6.75 16.2188 4.59375 16.3126 4.3125C16.5001 4.125 18.5626 2.53125 18.5626 2.53125H21.6563Z" fill="#D67D56"/>
<path d="M23.0627 1.40625C23.0627 1.40625 20.1564 2.4375 20.8127 4.03125C21.4689 5.625 21.1877 5.71875 20.9064 6.09375C20.6252 6.46875 19.6877 7.21875 20.1564 7.59375C20.6252 7.96875 21.8439 8.34375 22.0314 9.28125C22.2189 10.2188 21.6564 10.4062 21.2814 10.875C20.9064 11.3438 19.7814 11.4375 20.2502 12.75C20.7189 14.0625 21.8439 14.25 21.8439 14.25C21.8439 14.25 20.9064 12.9375 21.2814 12.5625C21.6564 12.1875 22.4064 11.625 22.7814 11.8125C23.1564 12 24.2814 11.4375 24.3752 10.7812C24.4689 10.125 24.3752 10.4062 25.1252 10.125C25.8752 9.84375 26.5314 8.53125 26.2502 7.875C25.9689 7.21875 26.6252 5.53125 26.5314 5.25C26.4377 4.96875 25.6877 4.21875 25.0314 3.5625C24.4689 2.8125 24.0939 1.40625 23.0627 1.40625Z" fill="#D67D56"/>
<path d="M16.2187 10.125C16.2187 10.125 15.1875 12.1875 13.875 12.8437L17.5313 15.0938C17.5313 15.0938 17.3438 13.4062 18.75 11.25C18.6562 11.3437 16.7812 11.0625 16.2187 10.125Z" fill="#E2A881"/>
<path d="M23.8125 6.3747C23.8125 4.78095 21.9375 3.84345 21.5625 3.65595C21.1875 3.3747 19.5 2.2497 18.0938 2.9997C16.5 3.9372 13.6875 8.9997 16.9688 11.4372H17.0625C20.7188 13.1247 23.7188 8.2497 23.8125 6.3747Z" fill="#EFBF9E"/>
<path d="M22.875 1.31265C22.875 1.31265 23.4375 4.31265 21.6563 4.5939C19.9688 4.87515 19.9688 5.06265 19.7813 5.5314C19.5938 6.00015 19.4063 7.2189 18.9375 6.93765C18.375 6.6564 17.4375 5.81265 16.5938 6.0939C15.75 6.37515 15.75 6.93765 15.5625 7.50015C15.375 8.06265 15.8437 9.00015 14.4375 9.2814C13.0312 9.56265 12.375 8.62515 12.375 8.62515C12.375 8.62515 13.9688 8.81265 14.0625 8.25015C14.1563 7.7814 14.3437 6.8439 13.9687 6.56265C13.5937 6.2814 13.5938 5.06265 14.0625 4.68765C14.625 4.31265 14.3438 4.50015 14.25 3.6564C14.1562 2.81265 14.9063 1.5939 15.6563 1.5939C16.3125 1.50015 17.4375 0.0939008 17.8125 0.0939008C18.1875 0.000150792 19.125 0.375151 20.0625 0.562651C21 0.750151 22.4062 0.375151 22.875 1.31265Z" fill="#D67D56"/>
<path d="M21.2813 1.59375C21.2813 1.59375 21.6563 3.1875 21.0938 3.375C20.5313 3.5625 18.9376 4.21875 18.9376 4.21875L18.4688 5.625C18.4688 5.625 16.4063 4.5 15.8438 5.15625C15.2813 5.8125 15.8438 3.65625 15.9376 3.375C16.1251 3.1875 18.1876 1.59375 18.1876 1.59375H21.2813Z" fill="#FCA377"/>
<path d="M15.8438 18.9375C16.125 17.9063 17.25 16.7813 17.8125 16.5C18.2813 16.2188 19.5938 15.5625 19.6875 15.1875C19.6875 14.9063 17.9063 13.4062 17.4375 13.0312H17.3438L17.25 12.9375L16.875 12.75L16.5938 12.5625H16.4063L13.4063 11.625C13.125 11.8125 13.2188 13.3125 13.2188 13.875C13.2188 14.4375 12.8438 15.9375 12.0938 16.7812C12.0938 16.7812 10.7813 17.1563 10.5 17.5313C10.2188 17.8125 9.09376 19.125 11.9063 20.8125C12 20.9063 12.0938 20.9062 12.1875 21C12.2813 21.0938 12.375 21.0938 12.4688 21.1875C15.2813 22.7813 15.8438 21.1875 16.0313 20.8125C16.2188 20.3438 15.8438 18.9375 15.8438 18.9375Z" fill="#D67D56"/>
<path d="M12.1874 20.5316L11.9999 24.1878C11.9999 24.1878 11.5312 25.3128 11.9062 25.5003C12.2812 25.6878 13.6874 25.8753 14.0624 24.9378C14.3437 24.0941 15.8436 21.6566 15.8436 21.4691C15.8436 21.2816 16.4999 20.1566 15.2811 19.3128C15.1874 19.3128 12.1874 18.7503 12.1874 20.5316Z" fill="#D67D56"/>
<path d="M13.4062 29.5312C13.3125 28.9688 13.0312 28.3125 13.2188 28.0312C13.4062 27.75 13.9687 26.625 13.875 26.3438C13.6875 26.0625 13.9687 25.125 13.9687 25.125C13.5937 24.4687 11.9062 24.6563 11.8125 24.9375C11.7188 25.3125 11.4375 25.875 11.4375 26.0625C11.4375 26.25 11.25 27 11.625 27.2813C12 27.5625 11.25 28.7813 11.25 28.7813L10.875 29.3437C11.3438 29.4375 12.9375 29.5312 13.4062 29.5312Z" fill="#D67D56"/>
<path d="M13.2188 29.25C13.125 29.25 13.125 29.1562 13.125 29.1562C12.375 29.0625 12.1875 28.875 11.4375 28.7812C11.3437 28.875 10.875 29.0625 10.7812 29.1562C10.5937 29.4375 11.25 30 11.25 30H13.4063C14.625 30 13.6875 29.5312 13.2188 29.25Z" fill="#D67D56"/>
<path d="M11.9062 20.0628L11.7187 23.719C11.7187 23.719 11.2499 24.844 11.6249 25.0315C11.9999 25.219 13.4062 25.4065 13.7812 24.469C14.0624 23.6253 15.5624 21.1878 15.5624 21.0003C15.5624 20.8128 16.2187 19.6878 14.9999 18.844C14.9999 18.7503 11.9062 18.2815 11.9062 20.0628Z" fill="#EFBF9E"/>
<path d="M13.125 29.0625C13.0313 28.5 12.75 27.8437 12.9375 27.5625C13.125 27.2812 13.6875 26.1563 13.5938 25.875C13.4063 25.5938 13.6875 24.6562 13.6875 24.6562C13.3125 24 11.625 24.1875 11.5313 24.4688C11.4375 24.8438 11.1562 25.4062 11.1562 25.5937C11.1562 25.7812 10.9688 26.5313 11.3438 26.8125C11.7188 27.0938 11.0625 28.3125 11.0625 28.3125L10.6875 28.875C11.1562 28.9687 12.6563 28.9688 13.125 29.0625Z" fill="#EFBF9E"/>
<path d="M12.9375 28.6875C12.8438 28.6875 12.8438 28.5937 12.8438 28.5937C12.0938 28.5 11.9062 28.3125 11.1562 28.2188C11.0625 28.3125 10.5938 28.5 10.5 28.5937C10.3125 28.875 10.9688 29.4375 10.9688 29.4375H13.125C14.3438 29.4375 13.4063 29.0625 12.9375 28.6875Z" fill="#EFBF9E"/>
<path d="M12.4688 27.4688C12.4688 27.5625 12.4688 27.5625 12.375 27.5625C12.2812 27.5625 12.1875 27.5625 12.1875 27.4688C12.1875 27.375 12.0937 27.375 12.0937 27.2813C12 26.625 11.9062 26.0625 11.9062 25.4063C11.9062 25.0313 12 24.6563 12.0937 24.2813C12.2812 23.7188 12.375 23.1563 12.5625 22.5C12.6562 22.0313 12.8438 21.5625 13.4063 21.375C13.5938 21.2813 13.9688 21.2813 14.1563 21.375C14.3438 21.5625 14.3438 21.75 14.25 21.9375L12.8438 26.4375C12.75 26.7188 12.5625 27.0938 12.4688 27.4688Z" fill="#FFE2CF"/>
<path d="M10.9688 21.4689L7.68751 22.6877C7.68751 22.6877 6.75001 23.4377 6.56251 23.1564C6.28126 22.7814 5.71876 21.5627 6.37501 21.0939C7.03126 20.5314 8.90626 18.4689 9.00001 18.4689C9.09376 18.3752 10.0313 17.4377 11.1563 18.3752C11.25 18.2814 12.6563 20.9064 10.9688 21.4689Z" fill="#D67D56"/>
<path d="M2.4375 22.9687C2.90625 22.875 3.65625 22.9688 3.84375 22.6875C4.03125 22.4063 4.875 21.5625 5.15625 21.6562C5.53125 21.6562 6.1875 21.1875 6.1875 21.1875C6.9375 21.375 7.21875 22.9687 7.03125 23.0625C6.75 23.25 6.28125 23.7187 6.09375 23.7187C5.90625 23.8125 5.25 24.0937 4.96875 23.9062C4.6875 23.8125 3.75 24.75 3.75 24.75C3.75 24.75 3.5625 25.0312 3.375 25.2187C3.09375 24.8437 2.625 23.4375 2.4375 22.9687Z" fill="#D67D56"/>
<path d="M2.7189 23.0629C2.81265 23.0629 2.81265 23.1566 2.9064 23.1566C3.18765 23.8129 3.4689 23.9066 3.75015 24.5629C3.75015 24.6566 3.6564 25.2191 3.6564 25.3129C3.4689 25.5941 2.7189 25.1254 2.7189 25.1254L2.06265 23.1566C1.68765 22.0316 2.3439 22.7816 2.7189 23.0629Z" fill="#D67D56"/>
<path d="M10.9688 20.9064L7.68751 22.1251C7.68751 22.1251 6.75001 22.8751 6.56251 22.5939C6.28126 22.2189 5.71876 21.0001 6.37501 20.5314C7.03126 20.0626 8.90626 17.9064 9.00001 17.9064C9.09376 17.9064 10.0313 16.8751 11.1563 17.8126C11.1563 17.7189 12.5625 20.3439 10.9688 20.9064Z" fill="#EFBF9E"/>
<path d="M2.34375 22.5C2.8125 22.4062 3.5625 22.5 3.75 22.2188C3.9375 21.9375 4.78125 21.0938 5.0625 21.1875C5.4375 21.1875 6.09375 20.7188 6.09375 20.7188C6.84375 20.9062 7.125 22.5 6.9375 22.5938C6.65625 22.7812 6.1875 23.25 6 23.25C5.8125 23.25 5.15625 23.625 4.875 23.4375C4.5 23.25 3.5625 24.1875 3.5625 24.1875C3.5625 24.1875 3.375 24.4687 3.1875 24.6562C3.09375 24.2812 2.53125 22.875 2.34375 22.5Z" fill="#EFBF9E"/>
<path d="M2.71888 22.5935C2.81263 22.5935 2.81263 22.6873 2.90638 22.6873C3.18763 23.3435 3.46888 23.4373 3.75013 24.0935C3.75013 24.1873 3.65638 24.7498 3.65638 24.8435C3.46888 25.1248 2.71888 24.656 2.71888 24.656L2.06263 22.6873C1.59388 21.4685 2.25013 22.2185 2.71888 22.5935Z" fill="#EFBF9E"/>
<path d="M4.03125 22.5935C4.03125 22.5935 3.9375 22.6873 3.9375 22.781C3.9375 22.8748 4.03125 22.9685 4.03125 22.9685H4.21875C4.875 22.8748 5.4375 22.781 6 22.5935L7.03125 22.031L8.53125 21.0935C8.90625 20.906 9.28125 20.531 9.375 19.9685C9.375 19.781 9.28125 19.4998 9.1875 19.3123C9 19.2185 8.8125 19.3123 8.625 19.406C7.40625 20.2498 6.28125 21.281 4.96875 21.9373L4.03125 22.5935Z" fill="#FFE2CF"/>
<path d="M16.6875 18.3747L15.5625 19.2185C15.5625 19.2185 14.4375 17.8122 12.1875 17.2497L12.6562 16.1247L13.2188 15.5622C13.2188 15.5622 14.25 15.4685 16.7812 17.4372L16.6875 18.3747Z" fill="#D67D56"/>
<path d="M15.4686 16.5L16.4061 16.4062C16.7811 16.4062 17.6248 16.5 17.9998 16.7812C18.3748 17.0625 18.4686 17.8125 18.0936 18.1875C17.7186 18.5625 17.5311 19.2187 16.6873 19.0312C15.8436 18.75 15.8436 18.6563 15.6561 18.375C15.4686 18.0938 15.1873 17.25 15.4686 16.5Z" fill="#D67D56"/>
<path d="M16.6875 10.1248C17.1563 10.8748 18.1875 11.2498 19.125 11.1561C20.0625 10.9686 20.8125 10.4061 21.375 9.65609C21.9375 8.90608 22.2188 7.96858 22.3125 7.12483C22.4063 6.74983 22.4063 6.46858 22.3125 6.09358C22.2188 5.71858 21.9375 5.43733 21.6563 5.34358C21.2813 5.24983 20.9063 5.53108 20.7188 5.81233C20.4375 6.09358 20.3438 6.37483 20.0625 6.65608C19.3125 7.68733 18.1875 7.59359 17.1563 7.31233C15.9375 7.12483 16.2188 9.56234 16.6875 10.1248Z" fill="#FFE2CF"/>
<path d="M14.719 16.0313C14.719 16.0313 14.5315 15.4688 14.344 15.0938C14.1565 14.8125 13.6877 14.0625 13.219 13.9687C12.7502 13.875 12.094 14.0625 11.9065 14.5313C11.719 15 11.344 15.5625 11.9065 16.2187C12.5627 16.7812 12.6565 16.7812 13.0315 16.7812C13.4065 16.875 14.2502 16.6875 14.719 16.0313Z" fill="#D67D56"/>
<path d="M15 12.375C15 12.375 14.625 13.5937 13.6875 14.7187L13.3125 14.5312C13.3125 14.5312 14.4375 13.2187 14.5313 12.2812L15 12.375ZM18.375 14.3437C18.375 14.3437 17.5313 15.2813 16.9688 16.5938L17.3438 16.7812C17.3438 16.7812 17.9062 15.0937 18.75 14.625L18.375 14.3437Z" fill="#D67D56"/>
<path d="M15.6563 18.2812C15.9375 17.25 17.0625 16.125 17.625 15.8438C18.0938 15.5625 19.4063 14.9063 19.5 14.5313C19.5 14.25 17.7188 12.75 17.25 12.375H17.1563L17.0625 12.2813L16.6875 12.0937L16.4063 11.9062H16.2188L13.2188 10.9688C12.9375 11.1562 13.0313 12.6563 13.0313 13.2188C13.0313 13.7813 12.6563 15.2813 11.9063 16.125C11.9063 16.125 10.5938 16.5 10.3125 16.875C10.0313 17.1562 8.90626 18.4688 11.7188 20.1562C11.8125 20.25 11.9063 20.25 12 20.3438C12.0938 20.4375 12.1875 20.4375 12.2813 20.5312C15.0938 22.125 15.6563 20.5312 15.8438 20.1562C15.9375 19.5938 15.6563 18.2812 15.6563 18.2812Z" fill="#EFBF9E"/>
<path d="M15.6563 19.5937C15.6563 19.5937 14.4375 19.6875 12.75 18.75C11.1563 17.625 10.5937 16.5938 10.5937 16.5938C10.125 16.6875 9.46875 17.4375 9.46875 17.4375C9.46875 17.4375 9.9375 17.625 10.6875 18.4687C11.4375 19.2187 11.25 20.4375 11.25 20.7187C11.25 20.9062 11.3437 21 11.4375 21C11.5312 21 11.625 21.0937 11.8125 21C12.0938 20.8125 13.0312 20.1562 14.0625 20.4375C15.0938 20.7187 15.5625 21 15.5625 21C15.5625 21 15.8438 20.0625 15.6563 19.5937Z" fill="#F75455"/>
<path d="M16.5 17.6247L15.375 18.4685C15.375 18.4685 14.1562 16.8747 12 16.2185L12.5625 15.281L13.125 14.7185C13.125 14.7185 14.1562 14.6247 16.6875 16.5935L16.5 17.6247Z" fill="#C6474E"/>
<path d="M14.8125 11.625C14.8125 11.625 14.4375 12.8437 13.5 13.9687L13.125 13.7812C13.125 13.7812 14.25 12.4687 14.3438 11.5312L14.8125 11.625ZM18.0937 13.5937C18.0937 13.5937 17.25 14.5312 16.6875 15.8437L17.0625 16.0312C17.0625 16.0312 17.625 14.3437 18.4688 13.875L18.0937 13.5937Z" fill="#F75455"/>
<path d="M15.0001 13.0311C15.2814 12.8436 15.7501 12.9374 16.0314 13.0311C16.4064 13.1249 16.8751 13.4061 16.9689 13.7811C17.0626 14.0624 16.9689 14.3436 16.7814 14.5311C16.5939 14.7186 16.3126 14.8124 16.0314 14.8124C15.7501 14.8124 15.3751 14.6249 15.1876 14.4374C14.8126 14.1561 14.3439 13.4061 15.0001 13.0311Z" fill="#FFE2CF"/>
<path d="M19.0312 15.1875C18.375 15.1875 17.9063 16.4062 17.9063 16.4062C17.7188 16.7812 17.7188 17.25 17.7188 17.25L18.0937 17.3437L20.1563 18.75C20.3438 18.9375 20.9062 18.75 21.375 18.2812C21.75 17.9062 21.5625 17.5312 21.5625 17.5312C21.5625 17.5312 19.6875 15.1875 19.0312 15.1875Z" fill="#D67D56"/>
<path d="M21.5625 17.7187C21 17.5312 20.9062 17.8125 20.9062 17.8125L20.3438 19.0312C20.3438 19.0312 20.625 19.4063 20.9062 19.6875C21.1875 19.875 21.8437 20.4375 21.8437 20.4375L22.3125 20.7188C22.4062 20.9063 23.0625 21 23.25 20.8125C23.4375 20.7188 23.5312 20.625 23.625 20.5312C23.7188 20.4375 22.9687 19.875 22.875 19.5937C22.7812 19.3125 22.125 17.8125 21.5625 17.7187Z" fill="#D67D56"/>
<path d="M22.3125 19.2188C22.3125 19.2188 22.3125 19.875 22.5 20.25C22.6875 20.625 23.0625 21.0938 23.4375 21.0938C23.7188 21 24 21.0938 23.9063 20.7188C23.8125 20.3438 24.0938 20.1563 23.7188 19.7813C23.3438 19.4063 22.5938 19.0312 22.5938 19.0312L22.3125 19.2188Z" fill="#D67D56"/>
<path d="M19.125 14.5312C18.4687 14.5312 18 15.75 18 15.75C17.8125 16.125 17.8125 16.5938 17.8125 16.5938L18.1875 16.6875L20.25 18.0937C20.4375 18.2812 21 18.0937 21.4687 17.625C21.8437 17.25 21.6563 16.875 21.6563 16.875C21.6563 16.875 19.7812 14.5312 19.125 14.5312Z" fill="#EFBF9E"/>
<path d="M21.6563 17.0625C21.0938 16.875 21 17.1562 21 17.1562L20.4375 18.375C20.4375 18.375 20.7188 18.75 21 19.0312C21.2813 19.2187 21.9375 20.0625 21.9375 20.0625C22.0313 20.25 22.2188 20.25 22.4063 20.1562C22.5938 20.0625 22.6875 19.9688 22.7812 19.875C22.875 19.7813 23.0625 19.4062 22.9688 19.125C22.875 18.8437 22.2188 17.1563 21.6563 17.0625Z" fill="#EFBF9E"/>
<path d="M22.2188 18.8438C22.2188 18.8438 22.2187 19.5 22.4062 19.875C22.5937 20.25 22.9687 20.7188 23.3437 20.7188C23.625 20.625 23.9062 20.7188 23.8125 20.3438C23.7187 19.9688 24 19.7813 23.625 19.4063C23.25 19.0313 22.5 18.6562 22.5 18.6562L22.2188 18.8438Z" fill="#EFBF9E"/>
<path d="M19.5 15.8434L21.8437 18.0934C22.125 18.3747 22.4062 18.5622 22.4062 19.0309C22.125 18.8434 21.9375 18.6559 21.6563 18.4684C21 17.9059 20.3438 17.4372 19.5938 16.9684C19.3125 16.7809 18.75 16.5934 18.6562 16.2184C18.6562 16.0309 18.6563 15.8434 18.8438 15.7497C19.2188 15.5622 19.4062 15.6559 19.5 15.8434Z" fill="#FFE2CF"/>
<path d="M13.4062 12C13.6875 12.5625 12.75 13.5 12.75 13.5C12.4688 13.7812 12 13.9687 12 13.9687L11.8125 13.5937L9.65625 12.1875C9.375 12.0937 9.375 11.4375 9.65625 10.875C9.84375 10.3125 10.2187 10.4063 10.2187 10.4063C10.2187 10.4063 13.125 11.4375 13.4062 12Z" fill="#D67D56"/>
<path d="M10.1247 10.5935C10.4997 11.0622 10.3122 11.2497 10.3122 11.2497L9.37466 12.1872C9.37466 12.1872 8.90591 12.0935 8.62466 11.906C8.34341 11.7185 7.59341 11.3435 7.59341 11.3435L7.12466 10.9685C6.93716 10.9685 6.56216 10.406 6.65591 10.1247C6.65591 9.9372 6.74966 9.7497 6.74966 9.65595C6.84341 9.5622 7.59341 10.031 7.87466 10.031C8.15591 10.031 9.74966 10.1247 10.1247 10.5935Z" fill="#D67D56"/>
<path d="M8.43737 10.4996C8.43737 10.4996 7.87487 10.6871 7.40612 10.6871C7.03112 10.6871 6.37487 10.4996 6.28112 10.1246C6.18737 9.84335 6.09362 9.5621 6.46862 9.46835C6.84362 9.3746 6.93737 9.09335 7.40612 9.28085C7.87487 9.46835 8.53112 10.0308 8.53112 10.0308L8.43737 10.4996Z" fill="#D67D56"/>
<path d="M13.9688 11.7187C14.25 12.2812 13.3125 13.2188 13.3125 13.2188C13.0312 13.5 12.5625 13.6875 12.5625 13.6875L12.375 13.3125L10.2188 11.9062C9.9375 11.8125 9.9375 11.1562 10.2188 10.5938C10.4062 10.0312 10.7813 10.125 10.7813 10.125C10.7813 10.125 13.6875 11.0625 13.9688 11.7187Z" fill="#EFBF9E"/>
<path d="M10.6875 10.3125C11.0625 10.7813 10.875 10.875 10.875 10.875L9.9375 11.8125C9.9375 11.8125 9.46875 11.7188 9.1875 11.5313C8.90625 11.3438 7.875 11.0625 7.875 11.0625C7.6875 11.0625 7.59375 10.875 7.59375 10.6875C7.59375 10.5 7.6875 10.3125 7.6875 10.2188C7.78125 10.125 8.0625 9.75 8.34375 9.75C8.625 9.75 10.3125 9.84375 10.6875 10.3125Z" fill="#EFBF9E"/>
<path d="M8.81237 10.4996C8.81237 10.4996 8.24987 10.6871 7.78112 10.6871C7.40612 10.6871 6.74987 10.4996 6.65612 10.1246C6.56237 9.84335 6.46862 9.5621 6.84362 9.46835C7.21862 9.3746 7.31237 9.09335 7.78112 9.28085C8.24987 9.46835 8.90612 10.0308 8.90612 10.0308L8.81237 10.4996Z" fill="#EFBF9E"/>
<path d="M12.6562 11.8122L9.65625 10.4997C9.375 10.3122 9 10.2184 8.625 10.3122C8.90625 10.4997 9.1875 10.5934 9.375 10.7809C10.125 11.1559 10.875 11.6247 11.5313 12.0934C11.8125 12.2809 12.1875 12.7497 12.5625 12.6559C12.75 12.6559 12.8438 12.4684 12.9375 12.2809C13.0313 11.9997 12.8438 11.9059 12.6562 11.8122ZM13.6875 18.7497C13.7813 18.7497 13.875 18.7497 13.9688 18.6559C14.0625 18.5622 13.9688 18.3747 13.9688 18.2809C13.6875 17.9059 12.5625 17.0622 12.1875 17.8122C11.9063 18.4684 13.3125 18.7497 13.6875 18.7497Z" fill="#FFE2CF"/>
<path d="M21.2813 8.25C21.6955 8.25 22.0313 7.91421 22.0313 7.5C22.0313 7.08579 21.6955 6.75 21.2813 6.75C20.867 6.75 20.5312 7.08579 20.5312 7.5C20.5312 7.91421 20.867 8.25 21.2813 8.25Z" fill="#604E46"/>
<path d="M21.2813 7.59375C21.3848 7.59375 21.4687 7.5098 21.4687 7.40625C21.4687 7.3027 21.3848 7.21875 21.2813 7.21875C21.1777 7.21875 21.0938 7.3027 21.0938 7.40625C21.0938 7.5098 21.1777 7.59375 21.2813 7.59375Z" fill="#8E8582"/>
<path d="M18.1875 10.5938C18.8088 10.5938 19.3125 10.0901 19.3125 9.46875C19.3125 8.84743 18.8088 8.34375 18.1875 8.34375C17.5662 8.34375 17.0625 8.84743 17.0625 9.46875C17.0625 10.0901 17.5662 10.5938 18.1875 10.5938Z" fill="#F75455"/>
<path d="M18.0938 10.3125C18.6115 10.3125 19.0312 9.97671 19.0312 9.5625C19.0312 9.14829 18.6115 8.8125 18.0938 8.8125C17.576 8.8125 17.1562 9.14829 17.1562 9.5625C17.1562 9.97671 17.576 10.3125 18.0938 10.3125Z" fill="#AA3F4A"/>
<path d="M15.1877 15.8437L16.1252 15.75C16.5002 15.75 17.344 15.8438 17.719 16.125C18.094 16.4063 18.1877 17.1563 17.8127 17.5313C17.4377 17.9063 17.2502 18.5625 16.4065 18.375C15.5627 18.0938 15.5627 18 15.3752 17.7188C15.094 17.3438 14.9065 16.5 15.1877 15.8437ZM14.4377 15.375C14.4377 15.375 14.2502 14.8125 14.0627 14.4375C13.8752 14.1562 13.4065 13.4062 12.9377 13.3125C12.469 13.2187 11.8127 13.4063 11.6252 13.875C11.4377 14.3438 11.0627 14.9063 11.6252 15.5625C12.2815 16.125 12.3752 16.125 12.7502 16.125C13.219 16.125 13.969 15.9375 14.4377 15.375Z" fill="#F75455"/>
</g>
<defs>
<clipPath id="clip0_1_10744">
<rect width="30" height="30" fill="white"/>
</clipPath>
</defs>
</svg>
