<svg width="30" height="30" viewBox="0 0 30 30" fill="none" xmlns="http://www.w3.org/2000/svg">
<g clip-path="url(#clip0_1_6200)">
<path d="M19.4062 19.3125C19.4062 19.3125 22.5 18.5625 23.3437 16.9688L20.25 16.0312L19.4062 19.3125Z" fill="#858585"/>
<path d="M14.4375 2.71849C14.4375 2.71849 11.0625 0.93724 8.62496 1.68724C6.28121 2.43724 1.68746 9.56224 6.56246 13.4997L6.65621 13.5935C11.625 17.531 13.5937 7.12474 13.5937 7.12474L14.4375 2.71849Z" fill="#8E8686"/>
<path d="M14.2502 3.65648C14.2502 3.65648 11.719 1.50023 9.37523 2.25023C6.93772 2.90648 2.90647 9.37523 7.68773 13.0315L7.78148 13.1252C12.7502 16.6877 14.719 7.21898 14.719 7.21898L14.2502 3.65648Z" fill="#B8B8B8"/>
<path d="M6.75013 10.4062C6.75013 10.4062 4.31263 11.25 4.59388 13.0312C4.87513 14.8125 5.81263 17.8125 9.65638 17.8125L10.0314 15.4687L6.75013 10.4062Z" fill="#8E8686"/>
<path d="M7.59391 9.65625C7.59391 9.65625 5.06266 10.6875 5.25016 12.375C5.43766 14.0625 6.84391 17.4375 10.6877 17.4375L11.0627 15.0938L7.59391 9.65625Z" fill="#B8B8B8"/>
<path d="M7.87506 27.4684C6.18756 26.5309 5.34381 24.3747 6.28131 22.2184C6.56256 21.4684 8.15631 19.5934 8.62506 19.2184C10.1251 18.0934 16.3126 17.2497 21.1876 20.9059C22.1251 21.5622 22.7813 22.5934 22.9688 23.9059V23.9997C23.6251 27.2809 22.5001 29.9997 19.5938 29.9997C16.2188 29.9059 10.7813 29.0622 7.87506 27.4684Z" fill="#7B7F79"/>
<path d="M7.31256 27.0934C5.62506 26.0621 4.78131 23.6246 5.71881 21.2809C6.00006 20.4371 7.59381 18.3746 8.06256 17.9996C9.56256 16.7809 15.7501 15.8434 20.6251 19.7809C21.5626 20.5309 22.2188 21.6559 22.4063 23.0621V23.1559C23.0626 26.8121 21.9376 29.7184 19.0313 29.7184C15.6563 29.7184 10.2188 28.7809 7.31256 27.0934Z" fill="#7B7F79"/>
<path d="M8.06256 26.4372C6.37506 25.4997 5.53131 23.3434 6.46881 21.1872C6.75006 20.4372 8.34381 18.5622 8.81256 18.1872C10.3126 17.0622 16.5001 16.2184 21.3751 19.8747C22.3126 20.5309 22.9688 21.5622 23.1563 22.8747V22.9684C23.8126 26.2497 22.6876 28.9684 19.7813 28.9684C16.4063 28.8747 10.9688 28.0309 8.06256 26.4372Z" fill="#C8CEC6"/>
<path d="M8.24994 24.4692C6.65619 23.7192 7.21869 22.0317 8.06244 20.1567C8.34369 19.5005 8.99994 18.938 9.46869 18.6567C10.8749 17.7192 16.4062 16.8755 20.9062 19.8755C21.7499 20.438 22.3124 21.2817 22.5937 22.4067V22.5005C23.1562 25.2192 21.0937 27.7505 18.6562 27.3755C15.5624 26.813 10.8749 25.7817 8.24994 24.4692Z" fill="#D1D1D1"/>
<path d="M8.06235 24.4686C6.74985 23.7186 8.1561 22.8749 8.81235 20.9999C9.0936 20.3436 10.4061 19.0311 10.7811 18.7499C11.9998 17.8124 14.9998 16.8749 18.8436 19.8749C19.5936 20.4374 20.0623 21.2811 20.2498 22.4061V22.4999C20.7186 25.2186 19.4061 27.3749 17.2498 26.9999C14.6248 26.4374 10.4061 25.7811 8.06235 24.4686Z" fill="#EBEBEB"/>
<path d="M17.9062 19.7813C17.9062 19.7813 18.75 22.4063 16.7812 23.4375C16.7812 23.4375 21.6562 24 23.0625 23.25C23.0625 23.25 23.5312 20.4375 19.5937 19.125L17.9062 19.7813ZM9.65625 18.0938C9.65625 18.0938 8.625 18.8438 7.59375 20.5313L8.8125 21.1875L9.09375 21.5625C9.09375 21.5625 9.84375 19.875 11.1562 19.125L9.65625 18.0938Z" fill="#EBEBEB"/>
<path d="M7.68748 20.1562C7.68748 20.1562 8.99998 23.4375 22.875 23.25L21.5625 26.7188C21.5625 26.7188 18 27.375 13.125 26.25C8.53123 25.0312 6.28123 24.5625 7.68748 20.1562Z" fill="#C8CEC6"/>
<path d="M7.12485 21.469C7.2186 21.1878 7.5936 21.0003 7.87485 21.1878C8.9061 21.9378 11.6249 23.344 17.4374 23.9065C18.7499 24.0003 20.5311 24.0003 22.7811 23.4378C22.7811 23.4378 22.8749 23.9065 22.7811 24.6565C22.4999 26.2503 20.9999 27.469 19.4061 27.469C17.5311 27.469 15.6561 27.3753 12.9374 26.719C8.7186 25.6878 6.18735 25.219 7.12485 21.469Z" fill="#F4F4F4"/>
<path d="M23.6357 12.2323C23.6524 7.62422 19.9303 3.87505 15.3222 3.85836C10.7141 3.84166 6.9649 7.56375 6.9482 12.1719C6.9315 16.78 10.6536 20.5292 15.2617 20.5459C19.8698 20.5626 23.619 16.8405 23.6357 12.2323Z" fill="#595959"/>
<path d="M23.28 11.6053C23.2964 7.10073 19.6999 3.43597 15.2471 3.41984C10.7943 3.4037 7.17136 7.0423 7.15504 11.5469C7.13872 16.0514 10.7352 19.7162 15.188 19.7323C19.6408 19.7485 23.2637 16.1099 23.28 11.6053Z" fill="#D1D1D1"/>
<path d="M23.1986 11.3509C23.2142 7.05346 19.827 3.55736 15.6331 3.54216C11.4391 3.52697 8.02668 6.99843 8.01111 11.2959C7.99553 15.5934 11.3827 19.0895 15.5767 19.1047C19.7706 19.1199 23.183 15.6484 23.1986 11.3509Z" fill="#DBDBDB"/>
<path d="M19.1076 12.4874C19.1191 9.32897 16.6519 6.75963 13.5971 6.74856C10.5423 6.73749 8.05658 9.28889 8.04514 12.4473C8.03369 15.6056 10.5008 18.175 13.5557 18.1861C16.6105 18.1971 19.0962 15.6457 19.1076 12.4874Z" fill="#EBEBEB"/>
<path d="M16.1256 13.0748C16.1273 12.6088 15.7929 12.2298 15.3787 12.2283C14.9645 12.2268 14.6273 12.6033 14.6256 13.0693C14.6239 13.5353 14.9583 13.9143 15.3726 13.9158C15.7868 13.9173 16.1239 13.5408 16.1256 13.0748Z" fill="#595959"/>
<path d="M15.7111 12.7826C15.7115 12.6791 15.6279 12.5948 15.5243 12.5944C15.4208 12.5941 15.3365 12.6777 15.3361 12.7812C15.3358 12.8848 15.4194 12.9691 15.5229 12.9694C15.6265 12.9698 15.7108 12.8862 15.7111 12.7826Z" fill="white"/>
<path d="M10.0192 12.0787C10.0209 11.6127 9.68644 11.2337 9.27223 11.2322C8.85801 11.2307 8.52086 11.6073 8.51917 12.0732C8.51748 12.5392 8.8519 12.9182 9.26611 12.9197C9.68033 12.9212 10.0175 12.5447 10.0192 12.0787Z" fill="#595959"/>
<path d="M9.60468 11.6937C9.60506 11.5902 9.52142 11.5059 9.41786 11.5056C9.31431 11.5052 9.23006 11.5888 9.22968 11.6924C9.22931 11.7959 9.31295 11.8802 9.4165 11.8806C9.52006 11.8809 9.60431 11.7973 9.60468 11.6937Z" fill="white"/>
<path d="M10.3125 26.3436C10.3125 26.3436 11.3438 26.1561 12 25.3124C12 25.3124 12.2813 26.7186 13.2188 27.0936L10.3125 26.3436ZM19.125 26.0624C19.125 26.0624 19.4062 26.9061 19.125 27.8436H20.4375C20.4375 27.8436 20.1562 26.0624 19.0312 24.6561L19.125 26.0624ZM7.875 23.5311C7.875 23.5311 7.6875 24.2811 7.96875 25.0311L6.9375 25.1249C6.9375 25.1249 7.03125 24.2811 7.40625 23.3436C7.40625 23.1561 7.875 23.2499 7.875 23.5311Z" fill="#C8CEC6"/>
<path d="M12.8437 24.9375C12.8437 24.9375 16.5 24.2812 18.1875 25.3125C18.1875 25.3125 18.6562 26.0625 18.1875 26.25C17.7188 26.4375 14.5312 24.9375 12.9375 25.4062C12.9375 25.5 12.5625 25.125 12.8437 24.9375ZM7.96875 23.1562C7.96875 23.1562 10.5937 23.25 11.625 24.2812C11.625 24.2812 11.8125 24.9375 11.5313 24.9375C11.25 25.0312 9.1875 23.4375 7.96875 23.5312C7.96875 23.5312 7.6875 23.25 7.96875 23.1562Z" fill="white"/>
<path d="M20.3438 13.0312C20.3438 13.0312 21.2812 12.4688 21.6562 12.8438C22.4062 13.5938 21.75 14.7188 20.3438 15V13.0312Z" fill="#DBDBDB"/>
<path d="M13.7812 16.5C13.7812 16.5 13.0312 16.4063 12.4687 15.9375C11.9062 15.4688 11.4375 15.5625 11.3438 15.5625C11.25 15.5625 11.0625 15.375 10.875 15.2812C10.6875 15.1875 10.4062 15.1875 10.4062 15.2812C10.4062 15.375 10.5937 15.75 10.5937 15.75V16.3125C10.5937 16.5 10.5937 17.0625 11.1562 17.1562C11.7187 17.25 12.1875 17.25 12.375 17.0625C12.6562 17.0625 13.7812 16.5 13.7812 16.5Z" fill="#6E6E6E"/>
<path d="M12.4687 21.75C12.4687 21.75 12.2812 23.25 9.18746 23.0625C6.09371 22.875 7.12496 20.9062 7.12496 20.9062L12.4687 21.75Z" fill="#C8CEC6"/>
<path d="M18.1877 23.3437C18.1877 23.3437 17.9064 24.8437 14.2502 24.6562C10.5939 24.4687 11.7189 22.5 11.7189 22.5L18.1877 23.3437ZM20.7189 19.9687C20.7189 19.9687 22.4064 20.625 22.5002 23.4375H23.2502C23.2502 23.4375 23.1564 20.8125 21.0002 19.6875L20.7189 19.9687Z" fill="#C8CEC6"/>
<path d="M17.7188 22.6875C17.7188 22.6875 17.5313 24.1875 14.6251 24C11.7188 23.8125 12.5626 21.8438 12.5626 21.8438L17.7188 22.6875Z" fill="#EBEBEB"/>
<path d="M12.2812 21.2813C12.2812 21.2813 12.6562 22.6875 9.74995 22.4062C6.8437 22.125 7.87495 20.0625 7.87495 20.0625L12.2812 21.2813Z" fill="#EBEBEB"/>
<path d="M11.7188 22.4063C11.7188 22.4063 12.0937 21.4688 12.8437 20.9062C12.8437 20.9062 12.375 21.8438 12.375 22.5938L11.7188 22.4063Z" fill="#C8CEC6"/>
<path d="M10.4063 20.156L10.9688 20.4372C11.1563 20.531 11.2501 20.8122 11.2501 20.9997C11.2501 21.1872 11.0626 21.3747 10.8751 21.5622C10.6876 21.656 10.5001 21.7497 10.2188 21.7497C9.84381 21.7497 9.56256 21.656 9.18756 21.4685C8.81256 21.1872 8.43756 20.6247 8.81256 20.2497C9.18756 19.8747 9.93756 20.0622 10.4063 20.156ZM15.6563 21.5622L16.2188 21.8435C16.4063 21.9372 16.5001 22.2185 16.5001 22.406C16.5001 22.5935 16.3126 22.781 16.1251 22.9685C15.9376 23.0622 15.7501 23.156 15.4688 23.156C15.0938 23.156 14.8126 23.0622 14.4376 22.8747C14.1563 22.6872 13.6876 22.1247 14.0626 21.7497C14.4376 21.281 15.1876 21.4685 15.6563 21.5622Z" fill="white"/>
<path d="M17.5313 7.12526L15.75 6.75026C15.75 6.75026 15.375 2.81276 10.3125 3.46901C10.3125 3.46901 12 1.12526 14.3438 1.68776C16.6875 2.25026 18.375 4.21901 17.8125 5.25026C17.4375 6.37526 17.5313 7.12526 17.5313 7.12526Z" fill="#858585"/>
<path d="M16.125 6.56263C16.125 6.56263 18 4.87513 17.4375 3.75013C16.875 2.62513 14.4375 1.03138 11.9063 2.15638L10.2188 3.00013C10.2188 3.00013 12.0938 0.37513 13.6875 0.0938799C15.2813 -0.18737 20.625 -0.0936199 22.2188 2.06263C23.8125 4.21888 23.3438 7.40638 21.75 8.71888C20.1563 10.0314 16.5 7.03138 16.125 6.56263Z" fill="#858585"/>
<path d="M15.9375 6.84387C15.9375 6.84387 17.625 5.25012 17.1562 4.31262C16.6875 3.37512 14.3437 1.78137 12 2.81262L10.4062 3.56262C10.4062 3.56262 12.1875 1.21887 13.5937 0.843866C15 0.468866 19.9687 0.750116 21.375 2.62512C22.7812 4.50012 22.4062 7.50012 21 8.81262C19.5937 10.1251 16.2187 7.12512 15.9375 6.84387Z" fill="#D4D4D4"/>
<path d="M19.5937 8.71878C19.5937 8.71878 20.8125 5.25003 23.1562 5.62503C25.5 6.00003 27.6562 10.5938 25.0312 13.6875C25.0312 13.6875 23.0625 15.375 23.5312 16.5938C23.5312 16.5938 23.9062 16.9688 24.8437 16.6875C24.8437 16.6875 23.7187 17.25 22.4999 17.25C21.2812 17.25 18.2812 15.1875 18.75 12.5625L19.5937 8.71878Z" fill="#858585"/>
<path d="M18.2813 8.25003C18.2813 8.25003 19.5 4.78128 21.8438 5.15628C24.1875 5.53128 26.3438 10.125 23.7188 13.2188C23.7188 13.2188 21.75 14.9063 22.2188 16.125C22.2188 16.125 22.125 17.0625 22.9688 16.875C22.9688 16.875 22.0313 17.1563 20.8125 17.1563C19.5938 17.1563 16.875 15 17.3438 12.2813C17.8125 9.56253 18.2813 8.25003 18.2813 8.25003Z" fill="#D4D4D4"/>
<path d="M17.8125 15.2812C17.8125 15.2812 18.2812 18.4688 21 18.375C23.7187 18.2813 24.8438 16.7813 24.8438 16.7813C24.8438 16.7813 23.7188 17.3438 21.2813 16.875C18.8438 16.4063 17.8125 15.2812 17.8125 15.2812Z" fill="#858585"/>
<path d="M18 6.75034C18 6.75034 19.2188 2.90659 14.7188 1.96909L13.3125 2.06284C13.3125 2.06284 15.9375 0.375338 19.3125 2.53159C22.5938 4.59409 20.9062 6.65659 20.9062 6.65659C20.9062 6.65659 18.8438 7.12534 18 6.75034ZM19.2188 8.90659C19.2188 8.90659 21.0938 7.40659 22.2188 7.87534C23.3438 8.34409 24.2812 9.84409 22.9688 11.3441C21.6562 12.9378 20.7188 14.4378 21.1875 15.7503C21.1875 15.7503 18.8438 13.5941 19.125 12.1878C19.4062 10.7816 19.875 9.56284 19.2188 8.90659Z" fill="#F0F0F0"/>
<path d="M21.3748 20.0625C21.3748 20.0625 20.4373 21.6562 20.4373 23.7187H18.7498C18.7498 23.7187 19.2186 21.75 20.9998 19.7813L21.3748 20.0625ZM9.56234 22.6875C9.56234 22.6875 6.74984 21.2812 9.46859 18.2812H9.09359C9.09359 18.2812 6.93734 20.0625 7.12484 21.5625C7.21859 22.9687 9.56234 22.6875 9.56234 22.6875Z" fill="#C8CEC6"/>
</g>
<defs>
<clipPath id="clip0_1_6200">
<rect width="30" height="30" fill="white"/>
</clipPath>
</defs>
</svg>
