<svg width="30" height="30" viewBox="0 0 30 30" fill="none" xmlns="http://www.w3.org/2000/svg">
<g clip-path="url(#clip0_1_14606)">
<path d="M25.9688 2.15625L9.65625 3.09375L14.0625 29.25L29.25 25.9688L25.9688 2.15625Z" fill="#602718"/>
<path d="M15 18.4688C15 18.4688 14.8125 20.625 15.2812 22.7812L15.75 24.75C15.75 24.75 12.6562 24.5625 11.5312 23.5312C10.4062 22.5 8.71875 18.4688 8.71875 18.4688L9.84375 16.9688L15 18.4688Z" fill="#8E4028"/>
<path d="M1.49998 17.5309C2.62498 22.7809 7.87498 26.1559 13.125 25.0309C18.375 23.9059 20.9062 18.7497 19.4062 13.4997C18.0937 9.18718 13.2187 5.43718 7.87498 6.65593C2.53123 7.87468 0.281228 12.2809 1.49998 17.5309Z" fill="#8E4028"/>
<path d="M1.49996 17.2505C2.62496 22.313 8.71871 27.3755 13.5937 26.3442C18.4687 25.313 20.4375 18.4692 19.3125 13.4067C18.2812 8.34421 14.5312 4.78171 8.43746 6.09421C3.56246 7.12546 0.468708 12.188 1.49996 17.2505Z" fill="#8E4028"/>
<path d="M14.6862 22.7114C18.2771 21.9244 20.532 18.2934 19.7228 14.6014C18.9136 10.9094 15.3466 8.55444 11.7557 9.3415C8.16487 10.1286 5.90992 13.7596 6.71915 17.4516C7.52839 21.1436 11.0954 23.4985 14.6862 22.7114Z" fill="#8E4028"/>
<path d="M4.31266 16.125C4.31266 16.125 4.12516 18.9375 5.15641 19.9687C6.18766 21 2.53141 21.8437 2.53141 21.8437C2.53141 21.8437 0.750157 19.0312 0.843907 17.25C0.937657 15.4687 4.31266 16.125 4.31266 16.125ZM8.62516 22.9688C7.31266 23.1562 10.4064 26.7187 11.9064 27C13.4064 27.2812 15.8439 26.9062 16.8752 26.3438C17.9064 25.7812 19.6877 21.6562 19.8752 20.4375L20.2502 18.1875C20.2502 18.1875 19.9689 18.375 19.3127 18.9375C18.0939 19.6875 15.5627 21.8438 8.62516 22.9688ZM13.1252 19.2188C13.1252 19.2188 10.8752 18.75 9.75016 19.5C9.75016 19.5 9.18766 20.25 9.56266 20.3438C9.93766 20.5313 10.4064 20.8125 10.5939 20.4375C10.9689 20.25 12.2814 19.3125 13.1252 19.2188ZM17.9064 17.1562C17.9064 17.1562 18.2814 15.6562 19.2189 15.4688C19.2189 15.4688 19.9689 15.5625 19.9689 15.8437C19.9689 16.125 20.0627 16.5938 19.6877 16.5C19.3127 16.5 18.1877 16.7812 17.9064 17.1562Z" fill="#8E4028"/>
<path d="M9.09375 22.9689L5.90625 22.0314L5.53125 23.6252C5.53125 23.6252 7.5 25.8752 10.875 26.5314L9.09375 22.9689ZM15.4688 17.0627L13.7812 17.6252L13.4062 16.4064L15.375 15.7502L15.4688 17.0627ZM12.4688 15.0002C12.4688 15.0002 10.875 14.1564 9.28125 14.8127C7.59375 15.4689 6.46875 17.1564 7.3125 17.4377C8.15625 17.7189 8.4375 16.8752 8.71875 16.2189C9 15.5627 10.2188 14.9064 11.7188 15.8439C11.7188 15.8439 12.375 15.5627 12.4688 15.0002ZM5.15625 10.3127C8.90625 8.5314 14.625 6.8439 18.0938 10.1252C16.6875 11.0627 13.7812 12.0939 13.7812 12.0939L12.6562 11.8127C9 10.5002 5.34375 11.9064 3.1875 13.0314C3.5625 11.8127 4.125 10.7814 5.15625 10.3127Z" fill="#8E4028"/>
<path d="M1.21875 10.0314L2.4375 13.2189C2.4375 13.2189 7.21875 9.46891 12.0937 11.1564L13.0312 11.4377C13.0312 11.4377 17.625 10.1252 17.9063 9.18766C17.9063 9.18766 18.75 7.78141 18 6.18766C18 6.18766 17.625 7.21891 17.5313 8.06266C17.5313 8.06266 17.1562 5.15641 14.9062 4.40641C14.9062 4.40641 15.2812 4.68766 15.2812 6.00016C15.2812 6.00016 11.25 3.56266 8.53125 3.93766C8.53125 3.93766 9.84375 4.87516 9.9375 6.28141C9.9375 6.28141 6.75 5.34391 3.65625 6.18766C3.65625 6.18766 4.125 7.03141 4.96875 7.68766C4.96875 7.59391 3 8.62516 1.21875 10.0314Z" fill="#8E4028"/>
<path d="M4.875 12.1875L6.75 13.6875C6.75 13.6875 5.25 16.7813 5.90625 19.7813L1.125 18.0937L1.3125 12.75C1.3125 12.8438 3.1875 12.4688 4.875 12.1875Z" fill="#8E4028"/>
<path d="M6.46875 18.6562C6.375 18.6562 4.21875 18.5625 4.21875 18.5625V19.125L6.65625 20.1562L6.28125 18.9375L6.46875 18.6562ZM1.6875 13.6875L6 13.7812C6 13.7812 5.71875 13.5 5.53125 14.8125L2.8125 15.375C2.71875 15.375 1.40625 15.1875 1.40625 15.1875L1.6875 13.6875ZM4.03125 6C4.03125 6 6 7.125 8.15625 7.21875L4.59375 8.90625C4.59375 8.90625 7.21875 9.1875 8.25 9.09375C9.28125 9 10.5 9.1875 10.5 9.1875L5.34375 10.5C5.34375 10.5 9.375 10.125 11.25 10.9687C11.25 10.9687 6.1875 10.4062 2.34375 13.3125L1.6875 13.125L0 10.7812C0 10.7812 2.15625 9.09375 3.5625 8.625L4.6875 7.96875L3.65625 6.09375L4.03125 6Z" fill="#8E4028"/>
<path d="M0.09375 10.6875L4.40625 10.125L2.34375 11.3438L6.46875 11.0625C6.46875 11.0625 4.40625 11.5312 3.65625 13.0312L3 13.3125L1.40625 13.125L0.09375 10.6875ZM18.1875 8.15625C18.1875 8.15625 16.9688 9.375 15.75 9.5625L10.3125 10.5938L12.8438 11.4375C12.8438 11.4375 16.5938 10.5 17.25 9.9375C18 9.28125 18.1875 8.15625 18.1875 8.15625ZM14.25 4.59375C14.25 4.59375 15.0938 6.84375 14.7188 8.34375C14.7188 8.34375 15.6562 6.84375 15.375 5.25C15.375 5.25 15.0938 4.59375 14.25 4.59375Z" fill="#8E4028"/>
<path d="M10.4064 4.03125C10.4064 4.03125 12.9377 4.59375 13.9689 5.8125C15.0002 7.03125 14.9064 7.78125 14.9064 7.78125C14.9064 7.78125 14.2502 6.28125 13.2189 5.90625C12.1877 5.53125 10.4064 4.03125 10.4064 4.03125ZM5.90645 6.09375C5.8127 6.09375 8.71895 5.71875 10.5939 6.84375C12.4689 7.96875 13.6877 8.4375 13.6877 8.4375L10.1252 7.5C10.1252 7.59375 7.3127 6.09375 5.90645 6.09375ZM4.21895 20.25C4.21895 20.25 2.6252 19.4062 1.8752 19.5937C1.1252 19.7812 0.843946 23.4375 3.65645 23.4375C6.5627 23.4375 4.21895 20.25 4.21895 20.25Z" fill="#8E4028"/>
<path d="M4.40626 20.5317C4.40626 20.5317 2.34376 18.6567 1.50001 18.9379C0.656261 19.2192 0.468761 24.0004 3.84376 23.9067C7.21876 23.9067 4.40626 20.5317 4.40626 20.5317Z" fill="#8E4028"/>
<path d="M3.93756 20.0627C3.93756 20.0627 2.62506 19.5002 1.96881 19.6877C1.31256 19.8752 1.12506 23.1564 3.56256 23.0627C6.00006 22.9689 3.93756 20.0627 3.93756 20.0627Z" fill="#8E4028"/>
<path d="M4.31256 20.2502C4.31256 20.2502 3.00006 19.6877 2.34381 19.8752C1.68756 20.0627 1.50006 23.3439 3.93756 23.2502C6.37506 23.1564 4.31256 20.2502 4.31256 20.2502ZM13.6876 25.2189C14.9063 26.2502 17.3438 25.3127 17.0626 24.2814L13.6876 25.2189Z" fill="#8E4028"/>
<path d="M10.5937 23.1562C11.0625 23.25 11.7187 23.3437 12.1875 23.25C14.25 23.0625 16.125 22.5937 18.0937 21.75C17.8125 21.9375 17.625 22.125 17.3437 22.2187C17.1562 22.6875 16.9688 23.25 16.9688 23.625C17.1562 23.625 17.3437 23.7187 17.7187 23.625C16.4062 24.5625 14.3437 25.0312 13.5 24.8437C12.8437 24.75 11.625 24.1875 10.4062 23.4375C10.4062 23.3437 10.5 23.25 10.5937 23.1562Z" fill="#8E4028"/>
<path d="M10.125 23.0625C10.2188 23.0625 10.2187 22.9688 10.3125 22.875H10.2187C10.3125 22.875 10.3125 22.7812 10.4063 22.7812C10.875 22.9687 11.625 23.0625 12.0937 23.0625C14.1562 22.875 16.0313 22.4062 18 21.4688V21.8437C17.7188 22.125 17.4375 22.2187 17.1562 22.3125C16.9687 22.875 16.9688 23.3438 16.9688 23.9063C17.1562 23.9063 17.3437 23.8125 17.625 23.625C16.4062 24.75 13.125 25.5938 12.1875 25.3125C11.625 25.125 11.25 24.2813 10.125 23.0625Z" fill="#8E4028"/>
<path d="M16.9688 22.5C16.875 22.875 16.6875 23.3437 16.7812 23.7187V23.8125C16.5937 23.9062 16.5 24 16.3125 24L14.7187 24.5625C14.4375 24.6563 13.875 24.75 13.5937 24.6562C13.125 24.5625 12.5625 24.2813 12.0937 24.0938L11.0625 23.5313C11.5312 23.625 11.9063 23.625 12.2813 23.625C13.875 23.3438 15.375 23.0625 16.9688 22.5Z" fill="#8E4028"/>
<path d="M16.9688 22.5C16.9688 22.7812 16.875 22.9688 16.7812 23.1563C16.6875 23.25 16.4062 23.3438 16.3125 23.4375C16.5 23.4375 16.6875 23.5312 16.7812 23.8125C16.0312 24.1875 13.7812 24.8437 12.9375 24.6562C12.6562 24.5625 12.375 24.5625 12.0937 24.4688C12.1875 24.375 12.9375 24.1875 13.125 24.0938C12.6562 24.0938 12.0937 24 11.9062 23.9062C11.8125 23.8125 11.625 23.7188 11.5312 23.5313H12.1875C13.875 23.3438 15.375 22.9688 16.9688 22.5Z" fill="#8E4028"/>
<path d="M16.8749 22.8753C16.8749 22.9691 16.7812 23.0628 16.7812 23.1566C16.6874 23.2503 16.4062 23.3441 16.3124 23.4378C16.4999 23.4378 16.6874 23.5316 16.7812 23.8128C16.1249 24.1878 14.6249 24.7503 13.7812 24.6566C13.4999 24.4691 13.3124 24.0941 13.2187 23.7191C14.4374 23.5316 15.5624 23.2503 16.8749 22.8753ZM8.24994 21.0941C9.09369 20.9066 10.0312 21.0003 10.6874 21.2816C11.5312 21.1878 11.9999 21.0941 12.5624 20.9066C13.8749 19.6878 13.1249 18.2816 12.1874 17.3441C11.8124 16.9691 11.1562 16.7816 10.5937 16.9691C9.09369 17.3441 8.06244 18.0003 7.68744 18.2816C7.49994 18.9378 7.40619 20.9066 8.24994 21.0941Z" fill="#8E4028"/>
<path d="M8.24982 21.0939C9.09357 21.0002 9.74982 21.0939 10.4061 21.2814C11.2498 21.0939 11.7186 21.0002 12.2811 20.7189C12.9373 19.8752 12.5623 18.4689 11.7186 17.8127C10.8748 17.7189 8.24982 18.4689 7.78107 19.1252C7.49982 19.7814 7.68732 20.7189 8.24982 21.0939Z" fill="#8E4028"/>
<path d="M12.4688 18.8438C12.2812 18.4688 11.625 17.625 11.25 17.3438C10.4062 17.25 8.4375 17.5312 7.96875 18.1875C7.875 18.4687 7.59375 19.6875 7.59375 19.9687C8.71875 20.7187 12.1875 20.4375 12.375 19.0312C12.4688 18.9375 12.4688 18.9375 12.4688 18.8438Z" fill="#8E4028"/>
<path d="M8.15625 18.8438C7.875 19.2188 7.78125 19.6875 7.78125 20.0625C7.875 20.4375 8.0625 20.8125 8.4375 21.0938C9 21.0938 9.5625 21.0938 10.125 21.1875C10.7812 20.8125 10.9688 20.1562 10.875 19.5937C10.7813 18.9375 10.2187 18.2812 9.375 18.2812C8.90625 18.4688 8.4375 18.6563 8.15625 18.8438Z" fill="#8E4028"/>
<path d="M9.18731 18.9379C8.71856 19.0316 8.34356 19.5004 8.43731 19.9691C8.53106 20.4379 8.99981 20.8129 9.46856 20.7191C9.93731 20.6254 10.3123 20.1566 10.2186 19.6879C10.1248 19.2191 9.65606 18.8441 9.18731 18.9379ZM16.4061 15.2816C16.1248 16.5004 16.4998 17.9066 17.1561 19.1254C17.9998 19.5004 19.5936 19.0316 20.2498 18.2816C20.4373 16.9691 20.0623 15.1879 19.0311 14.4379C18.0936 13.6879 16.6873 14.0629 16.4061 15.2816Z" fill="#8E4028"/>
<path d="M16.4064 15.7505C16.1252 16.7818 16.4065 18.4693 17.0627 19.5943C17.9065 19.5943 19.5002 19.0318 19.9689 18.3755C20.1564 17.2505 19.6877 15.6568 18.7502 15.0005C17.9065 14.2505 16.6877 14.6255 16.4064 15.7505Z" fill="#8E4028"/>
<path d="M16.4062 16.0314C16.2188 16.5001 16.2188 16.8751 16.4062 17.5314C17.4375 18.4689 19.875 18.0939 19.6875 16.0314C19.5 15.5626 19.2188 15.0939 18.8438 14.8126C17.9063 14.2501 16.6875 15.0001 16.4062 16.0314Z" fill="#8E4028"/>
<path d="M17.25 15.6566C16.3125 15.8441 16.0312 16.7816 16.125 17.6253C16.2187 18.3753 16.875 19.2191 17.8125 19.1253C18.75 18.9378 19.0312 18.0003 18.9375 17.1566C18.8437 16.4066 18.1875 15.5628 17.25 15.6566Z" fill="#8E4028"/>
<path d="M17.3436 16.406C16.8749 16.4997 16.5936 16.9685 16.6874 17.531C16.7811 18.0935 17.2499 18.4685 17.6249 18.3747C18.0936 18.281 18.3749 17.8122 18.2811 17.2497C18.2811 16.6872 17.8124 16.3122 17.3436 16.406Z" fill="#8E4028"/>
<path d="M17.0624 15.5631C16.5936 15.6568 16.3124 16.0318 16.4061 16.4068C16.4999 16.7818 16.8749 17.0631 17.3436 16.9693C17.8124 16.8756 18.0936 16.5006 17.9999 16.1256C17.9061 15.7506 17.5311 15.4693 17.0624 15.5631ZM8.4374 18.1881C7.96865 18.2818 7.6874 18.6568 7.78115 19.0318C7.8749 19.4068 8.2499 19.6881 8.71865 19.5943C9.1874 19.5006 9.46865 19.1256 9.3749 18.7506C9.28115 18.3756 8.90615 18.0943 8.4374 18.1881Z" fill="#8E4028"/>
<path d="M5.90625 19.0312L6.9375 21.1875C10.4063 21.8438 14.4375 19.9687 14.4375 19.9687C14.5312 18.8437 13.875 16.4062 13.875 16.4062C10.0313 16.7813 5.90625 19.0312 5.90625 19.0312ZM6.5625 19.5C6.5625 19.5 10.125 17.0625 13.3125 16.7812C13.3125 16.7812 13.9688 19.2188 13.875 20.1563C13.875 20.1563 10.5 21.8437 7.5 21.375L6.5625 19.5Z" fill="#8E4028"/>
<path d="M5.625 18.8443L6.9375 21.3755C10.4062 22.0318 14.4375 20.063 14.4375 20.063C14.5312 18.938 13.6875 16.2193 13.6875 16.2193C9.9375 16.5005 5.625 18.8443 5.625 18.8443ZM6.46875 19.0318C6.46875 19.0318 10.125 16.9693 13.4062 16.7818C13.4062 16.7818 13.9688 18.938 13.9688 19.8755C13.9688 19.8755 10.5938 21.563 7.59375 21.0943L6.46875 19.0318ZM12.0937 15.188L12.4688 14.9068C12.4688 14.9068 10.5 12.938 8.71875 14.3443C6.9375 15.7505 6.9375 16.7818 6.9375 16.7818C6.9375 16.7818 9.09375 13.4068 12.0937 15.188ZM21.375 15.4693L20.0625 15.2818L19.9687 15.0005C19.9687 15.0005 20.8125 14.7193 21.2813 14.813L21.375 15.4693Z" fill="#8E4028"/>
<path d="M19.0312 14.8125L21.0938 14.5312L21.1875 17.625L19.875 18.2812C19.875 18.2812 19.7812 15.4688 19.0312 14.8125Z" fill="#B79576"/>
<path d="M14.8125 18.2812C14.8125 18.2812 14.625 20.3437 15.0938 22.3125L15.5625 24.1875C15.5625 24.1875 12.6562 24 11.625 23.0625C10.5937 22.125 9 18.2812 9 18.2812L10.0312 16.875L14.8125 18.2812Z" fill="#FCC097"/>
<path d="M2.15629 17.8124C3.28129 22.7811 8.06254 25.5936 13.0313 24.4686C18 23.3436 20.25 18.4686 18.75 13.4999C17.5313 9.46861 13.0313 5.99986 8.06254 7.12486C3.09379 8.24986 1.03129 12.8436 2.15629 17.8124Z" fill="#E8BD89"/>
<path d="M2.06238 17.1562C3.09363 21.9374 8.81238 26.7187 13.4999 25.6874C18.1874 24.6562 19.9686 18.2812 18.9374 13.4999C17.9061 8.81242 14.5311 6.09367 8.81238 7.40617C4.12488 8.34367 1.03113 12.3749 2.06238 17.1562Z" fill="#E8BD89"/>
<path d="M14.4992 22.2486C17.8878 21.5059 20.0147 18.0748 19.2498 14.5851C18.4849 11.0954 15.1178 8.86852 11.7293 9.61124C8.34072 10.354 6.21382 13.785 6.97871 17.2747C7.7436 20.7644 11.1106 22.9913 14.4992 22.2486Z" fill="#FFD097"/>
<path d="M4.68736 16.1252C4.68736 16.1252 4.49986 18.8439 5.53111 19.7814C6.56236 20.7189 2.99986 21.5627 2.99986 21.5627C2.99986 21.5627 1.31236 18.8439 1.40611 17.2502C1.59361 15.5627 4.68736 16.1252 4.68736 16.1252Z" fill="#63310F"/>
<path d="M8.71891 22.5C7.50016 22.6875 10.4064 26.0625 11.8127 26.25C13.2189 26.5312 15.5627 26.1562 16.5002 25.5937C17.4377 25.0312 19.1252 21.1875 19.4064 19.9687L19.6877 18.4688C19.6877 18.4688 19.5002 18.4688 18.8439 18.9375C17.7189 19.875 15.2814 21.4687 8.71891 22.5Z" fill="#D8B18B"/>
<path d="M13.0313 19.0312C13.0313 19.0312 10.9688 18.5625 9.84377 19.3125C9.84377 19.3125 9.37502 19.9688 9.65627 20.1562C10.0313 20.3438 10.4063 20.625 10.6875 20.25C10.9688 19.875 12.1875 19.125 13.0313 19.0312ZM17.5313 17.0625C17.5313 17.0625 17.8125 15.6562 18.75 15.4688C18.75 15.4688 19.4063 15.5625 19.5 15.8437C19.5938 16.125 19.5938 16.5 19.3125 16.5C18.8438 16.4063 17.8125 16.6875 17.5313 17.0625Z" fill="#343F3D"/>
<path d="M18.1875 11.25C18.1875 11.25 17.3438 10.0312 14.9062 11.4375L15.8438 8.625C15.8438 8.625 17.3438 9.375 18.1875 11.1562" fill="#E5895B"/>
<path d="M9.1875 22.5L6.1875 21.5625L5.8125 23.0625C5.8125 23.0625 7.59375 25.125 10.875 25.7812L9.1875 22.5Z" fill="#B79576"/>
<path d="M15.2812 16.9688L13.6875 17.5313L13.3125 16.3125L15.0938 15.75L15.2812 16.9688Z" fill="#343F3D"/>
<path d="M12.375 15.0002C12.375 15.0002 10.875 14.1564 9.375 14.8127C7.78125 15.4689 6.65625 17.0627 7.5 17.2502C8.34375 17.4377 8.625 16.7814 8.90625 16.2189C9.1875 15.6564 10.3125 15.0002 11.7188 15.8439C11.625 15.8439 12.375 15.5627 12.375 15.0002ZM19.6875 12.8439C19.6875 12.8439 18.0938 12.1877 16.5 12.8439C14.9063 13.5002 13.9687 14.8127 14.7187 15.0002C15.4687 15.1877 15.9375 14.7189 16.2188 14.0627C16.5 13.5002 18 12.1877 19.3125 13.0314C19.3125 13.1252 19.5938 13.4064 19.6875 12.8439ZM5.4375 10.5939C9 8.90642 14.625 7.03142 17.9063 10.0314C16.5938 10.9689 13.5938 12.2814 13.5938 12.2814L12.5625 12.0002C9.09375 10.7814 5.71875 12.0939 3.65625 13.2189C3.9375 12.0939 4.5 11.0627 5.4375 10.5939Z" fill="#63310F"/>
<path d="M1.78125 10.3127L3 13.3127C3 13.3127 7.5 9.75016 12.0938 11.3439L12.9375 11.6252C12.9375 11.6252 17.25 10.3127 17.5313 9.46891C17.5313 9.46891 18.2812 8.15641 17.625 6.65641C17.625 6.65641 17.25 7.59391 17.1563 8.43766C17.1563 8.43766 16.7813 5.62516 14.7188 5.06266C14.7188 5.06266 15.0938 5.34391 15 6.56266C15 6.56266 12 4.12516 9.46875 4.50016C9.46875 4.50016 10.6875 5.53141 10.7813 6.84391C10.7813 6.84391 6.9375 6.00016 4.03125 6.75016C4.03125 6.75016 4.5 7.50016 5.25 8.15641C5.34375 8.06266 3.46875 9.00016 1.78125 10.3127Z" fill="url(#paint0_linear_1_14606)"/>
<path d="M5.25 12.375L7.03125 13.7812C7.03125 13.7812 5.625 16.7812 6.28125 19.5L1.78125 17.9063L1.875 12.9375L5.25 12.375Z" fill="#63310F"/>
<path d="M6.75 18.4688C6.65625 18.4688 4.59375 18.375 4.59375 18.375V18.9375L6.9375 19.9687L6.5625 18.75L6.75 18.4688Z" fill="#343F3D"/>
<path d="M2.25 13.7812L6.28125 13.875C6.28125 13.875 6 13.5938 5.8125 14.8125L3.1875 15.2812C3.09375 15.2812 1.96875 15.0938 1.96875 15.0938L2.25 13.7812Z" fill="url(#paint1_linear_1_14606)"/>
<path d="M4.40625 6.5625C4.40625 6.5625 6.1875 7.59375 8.25 7.6875L4.96875 9.28125C4.96875 9.28125 7.40625 9.5625 8.4375 9.46875C9.375 9.375 10.5938 9.5625 10.5938 9.5625L5.8125 10.7812C5.8125 10.7812 9.5625 10.4062 11.4375 11.1562C11.4375 11.1562 6.65625 10.5937 3.09375 13.3125L2.34375 13.125L0.9375 10.875C0.9375 10.875 2.71875 9.375 4.125 8.90625L5.0625 8.34375L4.125 6.5625H4.40625Z" fill="#B85A1B"/>
<path d="M0.65625 10.9688L4.6875 10.5L2.8125 11.7188L6.75 11.5313C6.75 11.5313 4.78125 12 4.125 13.4063L3.46875 13.6875L1.96875 13.5L0.65625 10.9688Z" fill="#63310F"/>
<path d="M17.8125 8.625C17.8125 8.625 16.5938 9.75 15.5625 9.9375L10.4062 10.875L12.8437 11.625C12.8437 11.625 16.4062 10.7812 16.9688 10.125C17.5312 9.46875 17.8125 8.625 17.8125 8.625ZM14.7187 4.96875C14.7187 4.96875 15.5625 7.03125 15.0938 8.53125C15.0938 8.53125 15.9375 7.125 15.75 5.625C15.75 5.53125 15.5625 4.96875 14.7187 4.96875Z" fill="#B85A1B"/>
<path d="M10.4999 4.6875C10.4999 4.6875 12.9374 5.25 13.7812 6.375C14.6249 7.5 14.6249 8.25 14.6249 8.25C14.6249 8.25 13.9687 6.84375 13.1249 6.46875C12.1874 6.09375 10.4999 4.6875 10.4999 4.6875ZM6.18742 6.65625C6.09367 6.65625 8.81242 6.28125 10.5937 7.40625C12.3749 8.53125 13.4999 8.90625 13.4999 8.90625L10.1249 8.0625C10.1249 8.0625 7.49992 6.65625 6.18742 6.65625Z" fill="#FFBA7B"/>
<path d="M4.68753 19.9686C4.68753 19.9686 3.18753 19.1248 2.53128 19.3123C1.87503 19.4998 1.50003 22.9686 4.21878 22.9686C6.93753 22.9686 4.68753 19.9686 4.68753 19.9686Z" fill="#63310F"/>
<path d="M4.78112 20.2498C4.78112 20.2498 2.90612 18.4686 2.06237 18.7498C1.21862 19.0311 1.12487 23.5311 4.31237 23.4373C7.49987 23.3436 4.78112 20.2498 4.78112 20.2498Z" fill="#E8BD89"/>
<path d="M4.40601 19.7814C4.40601 19.7814 3.18726 19.2189 2.62476 19.4064C2.06226 19.5939 1.78101 22.5939 4.12476 22.5002C6.37476 22.4064 4.40601 19.7814 4.40601 19.7814Z" fill="#C18053"/>
<path d="M4.68767 19.9689C4.68767 19.9689 3.46892 19.4064 2.90642 19.5939C2.34392 19.7814 2.15642 22.8752 4.40642 22.6877C6.65642 22.5939 4.68767 19.9689 4.68767 19.9689Z" fill="#CE9D67"/>
<path d="M13.5938 24.6562C14.7188 25.5938 17.0625 24.75 16.7812 23.7188L13.5938 24.6562Z" fill="#FFBC8F"/>
<path d="M10.5938 22.6875C11.0625 22.7813 11.625 22.875 12.0937 22.7812C14.0625 22.5938 15.75 22.125 17.7187 21.375C17.4375 21.5625 17.25 21.75 16.9688 21.8438C16.7813 22.3125 16.5938 22.7813 16.5938 23.1563C16.7813 23.1563 16.9687 23.25 17.25 23.1563C16.0312 24 14.0625 24.4688 13.2188 24.2813C12.6563 24.1875 11.4375 23.625 10.3125 22.9688C10.5 22.875 10.5938 22.7813 10.5938 22.6875Z" fill="#9A4C18"/>
<path d="M10.2188 22.5938C10.3125 22.5938 10.3125 22.5 10.4063 22.4062H10.3125C10.4063 22.4062 10.4063 22.3125 10.5 22.3125C10.9688 22.5 11.625 22.5938 12.0938 22.5938C14.0625 22.4063 15.75 21.9375 17.625 21.0938V21.4687C17.3437 21.75 17.0625 21.8437 16.7812 21.9375C16.5938 22.5 16.5938 22.9688 16.5938 23.4375C16.7813 23.4375 16.9688 23.3437 17.25 23.25C16.0312 24.375 12.9375 25.0312 12.1875 24.8438C11.625 24.5625 11.25 23.7188 10.2188 22.5938Z" fill="#63310F"/>
<path d="M16.5938 22.125C16.5 22.5 16.4062 22.875 16.4062 23.25V23.3437C16.3125 23.3437 16.125 23.4375 15.9375 23.4375C15.4688 23.625 14.9062 23.8125 14.4375 23.9062C14.1562 24 13.6875 24.0938 13.3125 24C12.8438 23.9062 12.2812 23.625 11.9062 23.4375C11.625 23.25 11.25 23.1562 10.9688 22.9687C11.3438 23.0625 11.8125 23.0625 12.0937 23.0625C13.6875 22.875 15.1875 22.5938 16.5938 22.125Z" fill="#792936"/>
<path d="M16.5938 22.125C16.5938 22.3125 16.5 22.5938 16.4062 22.6875C16.3125 22.7813 16.0312 22.875 15.9375 22.9687C16.125 22.9687 16.2187 23.0625 16.3125 23.25C15.5625 23.625 13.5 24.1875 12.75 24.0938C12.4688 24 12.2812 24 12 23.9062C12.0938 23.8125 12.8437 23.625 13.0312 23.625C12.5625 23.625 12.0937 23.5312 11.9062 23.4375C11.8125 23.3437 11.625 23.25 11.5312 23.0625H12.1875C13.6875 22.875 15.1875 22.5938 16.5938 22.125Z" fill="url(#paint2_linear_1_14606)"/>
<path d="M16.5938 22.4062C16.5938 22.5 16.5 22.5938 16.5 22.6875C16.4063 22.7813 16.125 22.875 16.0313 22.9688C16.2188 22.9688 16.3125 23.0625 16.4063 23.25C15.75 23.625 14.3437 24.0938 13.5 24.0938C13.3125 23.9063 13.125 23.625 13.0312 23.25C14.25 23.0625 15.2813 22.7812 16.5938 22.4062Z" fill="url(#paint3_linear_1_14606)"/>
<path d="M8.4376 20.8128C9.28135 20.6253 10.1251 20.8128 10.6876 21.0003C11.5313 20.9066 11.9063 20.8128 12.4688 20.6253C13.6876 19.5003 13.0313 18.1878 12.0938 17.2503C11.7188 16.8753 11.1563 16.6878 10.5938 16.8753C9.1876 17.2503 8.15635 17.8128 7.78135 18.0941C7.6876 18.7503 7.6876 20.6253 8.4376 20.8128Z" fill="#343F3D"/>
<path d="M8.43741 20.8127C9.18741 20.7189 9.84366 20.8127 10.4999 21.0002C11.3437 20.8127 11.7187 20.7189 12.1874 20.4377C12.7499 19.5939 12.4687 18.2814 11.6249 17.7189C10.7812 17.6252 8.53116 18.2814 8.06241 18.9377C7.78116 19.5939 8.06241 20.4377 8.53116 20.8127H8.43741Z" fill="url(#paint4_linear_1_14606)"/>
<path d="M12.3752 18.6564C12.2814 18.2814 11.5314 17.4377 11.2502 17.2502C10.4064 17.1564 8.62516 17.4377 8.15641 18.0002C8.06266 18.2814 7.87516 19.5002 7.96891 19.6877C9.00016 20.4377 12.0939 20.0627 12.3752 18.7502V18.6564Z" fill="white"/>
<path d="M8.34375 18.6563C8.0625 19.0313 7.96875 19.4063 8.0625 19.7813C8.15625 20.1563 8.34375 20.5313 8.625 20.7188C9.1875 20.7188 9.75 20.7188 10.2187 20.8125C10.7812 20.5313 11.0625 19.875 10.9687 19.3125C10.875 18.75 10.3125 18.0938 9.5625 18.0938C9 18.2812 8.625 18.4688 8.34375 18.6563Z" fill="#343F3D"/>
<path d="M9.28115 18.7497C8.8124 18.8434 8.53115 19.2184 8.6249 19.6872C8.71865 20.1559 9.09365 20.4372 9.5624 20.4372C10.0311 20.3434 10.3124 19.9684 10.2186 19.4997C10.1249 19.0309 9.7499 18.6559 9.28115 18.7497ZM16.1249 15.2809C15.8436 16.4059 16.2186 17.8122 16.8749 18.9372C17.6249 19.3122 19.3124 18.8434 19.9686 18.1872C20.1561 16.9684 19.5936 15.1872 18.6561 14.4372C17.7186 13.7809 16.4061 14.1559 16.1249 15.2809Z" fill="#343F3D"/>
<path d="M16.1252 15.6559C15.844 16.5934 16.1252 18.2809 16.7814 19.2184C17.5314 19.2184 19.1252 18.6559 19.5002 18.0934C19.6877 17.0622 19.2189 15.5622 18.3752 14.9059C17.5314 14.3434 16.4065 14.6247 16.1252 15.6559Z" fill="url(#paint5_linear_1_14606)"/>
<path d="M16.1249 16.0308C16.0311 16.4995 15.9374 16.7808 16.1249 17.437C17.0624 18.3745 19.4061 17.9995 19.2186 16.0308C19.0311 15.562 18.7499 15.187 18.3749 14.9058C17.5311 14.3433 16.4061 14.9995 16.1249 16.0308Z" fill="white"/>
<path d="M16.8751 15.6564C16.0314 15.7502 15.7501 16.7814 15.8439 17.4377C15.9376 18.1877 16.5939 18.9377 17.4376 18.8439C18.2814 18.7502 18.5626 17.7189 18.4689 17.0627C18.3751 16.3127 17.7189 15.5627 16.8751 15.6564Z" fill="#343F3D"/>
<path d="M17.0626 16.3122C16.6876 16.406 16.4064 16.8747 16.5001 17.3435C16.5939 17.906 16.9689 18.281 17.4376 18.1872C17.8126 18.0935 18.0939 17.6247 18.0001 17.156C17.8126 16.5935 17.4376 16.2185 17.0626 16.3122Z" fill="#343F3D"/>
<path d="M16.6874 15.4688C16.3124 15.5625 15.9374 15.9375 16.0312 16.3125C16.1249 16.6875 16.4999 16.9688 16.8749 16.875C17.2499 16.7812 17.6249 16.4063 17.5312 16.0313C17.5312 15.6563 17.1562 15.4688 16.6874 15.4688ZM8.62492 18C8.24992 18.0938 7.87492 18.4688 7.96867 18.8438C8.06242 19.2188 8.43742 19.5 8.81242 19.4063C9.18742 19.3125 9.56242 18.9375 9.46867 18.5625C9.46867 18.1875 9.09367 18 8.62492 18Z" fill="#FFFFFC"/>
<path d="M6.1875 18.8439L7.125 20.9064C10.4062 21.5626 14.1562 19.7814 14.1562 19.7814C14.25 18.6564 13.5938 16.4064 13.5938 16.4064C10.0313 16.6876 6.1875 18.8439 6.1875 18.8439ZM6.84375 19.3126C6.84375 19.3126 10.2188 16.9689 13.2188 16.7814C13.2188 16.7814 13.7812 19.0314 13.6875 19.9689C13.6875 19.9689 10.5 21.5626 7.6875 21.0939L6.84375 19.3126ZM15 16.2189L15.5625 19.1251C18.75 19.5939 21.1875 17.6251 21.1875 17.6251C21.375 16.6876 21.2812 14.9064 21.2812 14.9064C19.2188 14.3439 15 16.2189 15 16.2189ZM15.4688 16.8751C15.4688 16.8751 19.2188 14.4376 21.0938 14.7189C21.0938 14.7189 21.0937 16.9689 20.9062 17.8126C20.9062 17.8126 18.4688 19.5939 15.9375 19.2189L15.4688 16.8751Z" fill="white"/>
<path d="M6 18.6564L7.21875 21.0001C10.5 21.6564 14.3438 19.7814 14.3438 19.7814C14.4375 18.6564 13.6875 16.1251 13.6875 16.1251C10.0313 16.4064 6 18.6564 6 18.6564ZM6.75 18.8439C6.75 18.8439 10.2188 16.9689 13.2188 16.6876C13.2188 16.6876 13.7813 18.7501 13.6875 19.5939C13.6875 19.5939 10.5 21.1876 7.6875 20.7189L6.75 18.8439ZM14.9062 15.8439L15.5625 19.3126C18.75 19.7814 21.2813 17.6251 21.2813 17.6251C21.4688 16.6876 21.375 14.4376 21.375 14.4376C19.2188 14.0626 14.9062 15.8439 14.9062 15.8439ZM15.4688 16.2189C15.4688 16.2189 19.2188 14.6251 21.0938 14.9064C21.0938 14.9064 21.0938 16.7814 20.9062 17.5314C20.9062 17.5314 18.4688 19.3126 15.8438 18.9376L15.4688 16.2189Z" fill="#343F3D"/>
<path d="M12 15.1871L12.375 14.9059C12.375 14.9059 10.5 13.1246 8.90625 14.3434C7.3125 15.5621 7.21875 16.6871 7.21875 16.6871C7.21875 16.6871 9.1875 13.4996 12 15.1871Z" fill="url(#paint6_linear_1_14606)"/>
<path d="M19.3125 13.2184L19.6875 12.9371C19.6875 12.9371 17.8125 11.1559 16.2187 12.3746C14.5312 13.6871 14.5312 14.7184 14.5312 14.7184C14.5312 14.7184 16.5 11.5309 19.3125 13.2184Z" fill="url(#paint7_linear_1_14606)"/>
<path d="M20.8125 15.4687L19.5 15.2812L19.4062 15C19.4062 15 20.1562 14.8125 20.625 14.8125L20.8125 15.4687Z" fill="#E8BD89"/>
<path d="M6 21.2812C6 21.2812 6 22.875 4.96875 23.4375V23.625L5.625 23.7187C5.625 23.7187 6.46875 22.9688 6 21.2812Z" fill="#8E4028"/>
<path d="M25.9688 2.25L11.8125 3.84375L15.4687 28.0312L29.25 25.7812L25.9688 2.25Z" fill="#8F672F"/>
<path d="M20.0625 15.6562L15 16.2187L16.3125 24.9375L21.2813 24.1875L20.0625 15.6562Z" fill="#9E7544"/>
<path d="M18.75 14.9998L16.2187 15.2811C15.8437 15.2811 15.6562 15.6561 15.6562 15.9373L16.3125 20.5311C16.4062 20.8123 16.6875 21.0936 16.9687 20.9998L19.5 20.6248C19.7812 20.5311 20.0625 20.2498 19.9687 19.9686L19.4062 15.4686C19.3125 15.1873 19.0312 14.9061 18.75 14.9998Z" fill="#C9D1CD"/>
<path d="M26.25 14.8125L21.0937 15.375L22.4062 24.0938L27.375 23.25L26.25 14.8125ZM18.75 6L13.6875 6.5625L14.7187 14.25L19.6875 13.5L18.75 6ZM24.8438 5.0625L19.7812 5.71875L21.0937 14.4375L26.0625 13.5938L24.8438 5.0625Z" fill="#9E7544"/>
<path d="M13.8752 24.0939L16.6877 23.6252C17.1565 23.5314 17.5315 23.1564 17.5315 22.6877C17.5315 22.1252 17.1565 21.6564 16.594 21.5627L13.594 21.1877C12.844 21.0939 12.2815 21.7502 12.469 22.4064L12.7502 23.4377C12.9377 24.0002 13.4065 24.1877 13.8752 24.0939Z" fill="#8E4028"/>
<path d="M14.0627 25.7814L16.8752 25.3127C17.344 25.2189 17.719 24.8439 17.719 24.3752C17.719 23.8127 17.344 23.3439 16.7815 23.2502L13.7815 22.8752C13.0315 22.7814 12.469 23.4377 12.6565 24.0939L12.9377 25.1252C13.1252 25.6877 13.594 25.8752 14.0627 25.7814Z" fill="#8E4028"/>
<path d="M14.2502 27.6564L17.0627 27.1877C17.5315 27.0939 17.9065 26.7189 17.9065 26.2502C17.9065 25.6877 17.5315 25.2189 16.969 25.1252L14.0627 24.8439C13.3127 24.7502 12.7502 25.4064 12.9377 26.0627L13.219 27.0939C13.4065 27.4689 13.8752 27.7502 14.2502 27.6564Z" fill="#8E4028"/>
<path d="M14.0623 23.8121L16.2185 23.4371C16.5935 23.3433 16.8748 23.0621 16.8748 22.6871C16.8748 22.2183 16.5935 21.8433 16.1248 21.8433L13.781 21.5621C13.2185 21.4683 12.7498 22.0308 12.8435 22.4996C12.9373 22.7808 12.9373 23.0621 13.1248 23.3433C13.3123 23.7183 13.6873 23.9058 14.0623 23.8121Z" fill="#FFD097"/>
<path d="M14.2498 25.5933L16.406 25.2183C16.781 25.1246 17.0623 24.8433 17.0623 24.4683C17.0623 23.9996 16.781 23.6246 16.3123 23.6246L14.0623 23.3433C13.4998 23.2496 13.031 23.8121 13.1248 24.2808C13.2185 24.5621 13.2185 24.8433 13.406 25.1246C13.4998 25.4996 13.8748 25.6871 14.2498 25.5933Z" fill="#FFD097"/>
<path d="M14.531 27.3746L16.6873 26.9996C17.0623 26.9058 17.3435 26.6246 17.3435 26.2496C17.3435 25.7808 17.0623 25.4058 16.5935 25.4058L14.2498 25.1246C13.6873 25.0308 13.2185 25.5933 13.3123 26.0621C13.406 26.3433 13.406 26.6246 13.5935 26.9058C13.781 27.2808 14.156 27.4683 14.531 27.3746Z" fill="#FFD097"/>
<path d="M16.7814 23.1563L13.1252 23.0625C13.1252 23.0625 12.8439 23.3438 13.2189 23.625C13.5939 23.9063 16.3127 23.625 16.3127 23.625L16.7814 23.1563Z" fill="#D8B18B"/>
<path d="M17.1564 24.9375L13.5002 24.75C13.5002 24.75 13.2189 25.0313 13.5939 25.3125C13.9689 25.5938 16.6877 25.3125 16.6877 25.3125C16.6877 25.3125 17.0627 25.125 17.1564 24.9375Z" fill="#D8B18B"/>
<path d="M17.1564 26.8125L13.5002 26.625C13.5002 26.625 13.2189 26.9063 13.5939 27.1875C13.9689 27.4688 16.6877 27.1875 16.6877 27.1875C16.6877 27.1875 17.0627 27 17.1564 26.8125Z" fill="#D8B18B"/>
<path d="M13.3125 7.96894L16.5 7.59394C17.0625 7.50019 17.4375 7.12519 17.5312 6.65644C17.5312 6.09394 17.1562 5.62519 16.5 5.53144L13.0312 5.06269C12.1875 4.96894 11.5312 5.62519 11.7187 6.28144C11.8125 6.65644 11.9062 7.03144 12.0937 7.31269C12.1875 7.78144 12.75 8.06269 13.3125 7.96894Z" fill="#8E4028"/>
<path d="M13.6875 10.3127L16.875 9.93769C17.4375 9.84394 17.8125 9.46894 17.9062 9.00019C17.9062 8.43769 17.5312 7.96894 16.875 7.87519L13.4062 7.40644C12.5625 7.31269 11.9062 7.96894 12.0937 8.62519C12.1875 9.00019 12.2812 9.37519 12.4687 9.65644C12.6562 10.1252 13.125 10.3127 13.6875 10.3127Z" fill="#8E4028"/>
<path d="M14.0625 12.5627L17.25 12.1877C17.8125 12.0939 18.1875 11.7189 18.2812 11.2502C18.2812 10.6877 17.9062 10.2189 17.25 10.1252L13.7812 9.65644C12.9375 9.56269 12.2812 10.2189 12.4687 10.8752C12.5625 11.2502 12.6562 11.6252 12.8437 11.9064C13.0312 12.3752 13.5 12.6564 14.0625 12.5627Z" fill="#8E4028"/>
<path d="M13.5002 8.06206L15.8439 7.68706C16.2189 7.59331 16.5939 7.31206 16.5939 6.93706C16.5939 6.46831 16.3127 6.09331 15.8439 5.99956L13.3127 5.62456C12.7502 5.53081 12.1877 6.09331 12.3752 6.65581L12.6564 7.49956C12.7502 7.96831 13.1252 8.15581 13.5002 8.06206Z" fill="#FFD097"/>
<path d="M13.7814 9.93706L16.1252 9.56206C16.5002 9.46831 16.8752 9.18705 16.8752 8.81205C16.8752 8.3433 16.5939 7.96831 16.1252 7.87456L13.5939 7.49956C13.0314 7.40581 12.4689 7.96831 12.6564 8.53081L12.9377 9.37456C13.0314 9.84331 13.4064 10.0308 13.7814 9.93706Z" fill="#FFD097"/>
<path d="M14.0627 11.8121L16.4064 11.4371C16.7814 11.3433 17.1564 11.0621 17.1564 10.6871C17.1564 10.2183 16.8752 9.84331 16.4064 9.74956L13.8752 9.37456C13.3127 9.28081 12.7502 9.84331 12.9377 10.4058L13.2189 11.2496C13.2189 11.7183 13.6877 11.9058 14.0627 11.8121Z" fill="#FFD097"/>
<path d="M17.0627 11.1562L13.2189 10.9687C13.2189 10.9687 12.9377 11.25 13.3127 11.5312C13.6877 11.8125 16.5939 11.5312 16.5939 11.5312C16.5939 11.5312 16.9689 11.3437 17.0627 11.1562ZM16.7814 9.28125L12.9377 9.09375C12.9377 9.09375 12.6564 9.375 13.0314 9.65625C13.4064 9.9375 16.3127 9.65625 16.3127 9.65625C16.3127 9.65625 16.5939 9.5625 16.7814 9.28125ZM16.3127 7.5L12.4689 7.3125C12.4689 7.3125 12.1877 7.59375 12.5627 7.875C12.9377 8.15625 15.8439 7.875 15.8439 7.875C15.8439 7.875 16.2189 7.78125 16.3127 7.5Z" fill="#D8B18B"/>
<path d="M16.4065 17.344C16.3127 16.6877 16.7815 16.0315 17.4377 15.9377C18.094 15.844 18.7502 16.3127 18.844 16.969C18.9377 17.344 18.3752 17.8127 18.094 18.094L18.6565 19.5002L17.2502 19.6877L17.344 18.094C17.0627 18.094 16.5002 17.8127 16.4065 17.344Z" fill="#343F3D"/>
<path d="M12.2812 11.7188L14.1562 21.375H14.8125L13.4062 12.4688L12.2812 11.7188Z" fill="#602718"/>
<path d="M25.9688 2.25L26.1562 3.09375L11.9062 4.78125L11.8125 3.84375L25.9688 2.25Z" fill="#9E7544"/>
<path d="M19.125 26.625L18.75 27L20.1562 28.125L29.25 20.9062L28.0312 19.125L19.125 26.625Z" fill="#9A4C18"/>
<path d="M29.1563 23.2503C28.5001 26.4378 25.2188 28.8753 21.8438 28.4066C18.5626 28.0316 16.7813 25.0316 17.7188 21.9378C18.6563 19.0316 21.7501 17.0628 24.6563 17.3441C27.7501 17.7191 29.7188 20.2503 29.1563 23.2503Z" fill="#9A4C18"/>
<path d="M29.8126 24.3755C29.1564 27.3755 25.9689 29.7193 22.6876 29.3443C19.5001 28.9693 17.7189 26.1568 18.6564 23.1568C19.5939 20.438 22.5939 18.563 25.5001 18.8443C28.5001 19.0318 30.3751 21.4693 29.8126 24.3755Z" fill="#9A4C18"/>
<path d="M20.0625 26.9063L21.375 27.8438L28.7813 21.5625L27.8438 19.9688L20.0625 26.9063Z" fill="#F49937"/>
<path d="M29.1564 24.2811C28.5939 26.9061 25.8751 28.7811 23.2501 28.4999C20.5314 28.2186 19.1251 25.7811 19.8751 23.2499C20.6251 20.8124 23.1564 19.2186 25.5939 19.4999C28.1251 19.7811 29.7189 21.8436 29.1564 24.2811Z" fill="#F49937"/>
<path d="M28.4064 23.1561C27.8439 25.9686 24.9377 28.0311 22.0314 27.6561C19.1252 27.2811 17.5314 24.7499 18.3752 22.0311C19.2189 19.4999 21.8439 17.7186 24.4689 17.9999C27.1877 18.2811 28.9689 20.5311 28.4064 23.1561Z" fill="#FFEDC0"/>
<path d="M28.0314 23.3436C27.4689 25.9686 24.7501 27.8436 22.1251 27.5624C19.4064 27.2811 18.0001 24.8436 18.7501 22.3124C19.5001 19.8749 22.0314 18.2811 24.4689 18.5624C26.9064 18.7499 28.5939 20.8124 28.0314 23.3436Z" fill="#FFD766"/>
<path d="M26.9998 23.1565C26.531 25.1252 24.4685 26.6252 22.406 26.344C20.3435 26.0627 19.2185 24.2815 19.781 22.3127C20.3435 20.4377 22.3123 19.1252 24.281 19.3127C26.156 19.594 27.3748 21.2815 26.9998 23.1565Z" fill="#FFEDC0"/>
<path d="M27.0935 22.6877C26.6248 24.6565 24.5623 26.1565 22.4998 25.8752C20.4373 25.594 19.3123 23.8127 19.8748 21.844C20.4373 19.969 22.406 18.6565 24.3748 18.844C26.2498 19.1252 27.4685 20.8127 27.0935 22.6877Z" fill="#F49937"/>
<path d="M26.4373 23.1562C26.0623 24.8437 24.2811 26.0624 22.5936 25.8749C20.8123 25.6874 19.8748 24.0937 20.3436 22.4999C20.8123 20.9062 22.4998 19.7812 24.0936 19.9687C25.6873 20.0624 26.8123 21.4687 26.4373 23.1562Z" fill="#FFD766"/>
<path d="M24.5625 19.6875L24.8438 21.5625L26.8125 22.3125L24.8438 23.3437L24.375 25.5L22.875 24.0938L20.625 24.5625L21.75 22.6875L20.9062 21L23.0625 21.1875L24.5625 19.6875Z" fill="#F49937"/>
</g>
<defs>
<linearGradient id="paint0_linear_1_14606" x1="18.4699" y1="7.41686" x2="2.26943" y2="9.06638" gradientUnits="userSpaceOnUse">
<stop stop-color="#F38C05"/>
<stop offset="1" stop-color="#B85A1B"/>
</linearGradient>
<linearGradient id="paint1_linear_1_14606" x1="6.91712" y1="13.9311" x2="2.62064" y2="14.3685" gradientUnits="userSpaceOnUse">
<stop stop-color="#F38C05"/>
<stop offset="1" stop-color="#B85A1B"/>
</linearGradient>
<linearGradient id="paint2_linear_1_14606" x1="12.7304" y1="23.4248" x2="12.2192" y2="23.3916" gradientUnits="userSpaceOnUse">
<stop stop-color="#BDD6DE"/>
<stop offset="1" stop-color="white"/>
</linearGradient>
<linearGradient id="paint3_linear_1_14606" x1="14.0178" y1="23.5188" x2="13.2092" y2="24.037" gradientUnits="userSpaceOnUse">
<stop stop-color="white"/>
<stop offset="1" stop-color="#BDD6DE"/>
</linearGradient>
<linearGradient id="paint4_linear_1_14606" x1="10.6299" y1="18.7935" x2="10.8013" y2="19.6735" gradientUnits="userSpaceOnUse">
<stop stop-color="#BDD6DE"/>
<stop offset="1" stop-color="white"/>
</linearGradient>
<linearGradient id="paint5_linear_1_14606" x1="18.2318" y1="16.9034" x2="18.4739" y2="17.7031" gradientUnits="userSpaceOnUse">
<stop stop-color="#BDD6DE"/>
<stop offset="1" stop-color="white"/>
</linearGradient>
<linearGradient id="paint6_linear_1_14606" x1="12.9903" y1="14.6547" x2="7.70278" y2="15.193" gradientUnits="userSpaceOnUse">
<stop stop-color="#F38C05"/>
<stop offset="1" stop-color="#B85A1B"/>
</linearGradient>
<linearGradient id="paint7_linear_1_14606" x1="20.2451" y1="12.6392" x2="14.9566" y2="13.1777" gradientUnits="userSpaceOnUse">
<stop stop-color="#F38C05"/>
<stop offset="1" stop-color="#B85A1B"/>
</linearGradient>
<clipPath id="clip0_1_14606">
<rect width="30" height="30" fill="white"/>
</clipPath>
</defs>
</svg>
