<svg width="30" height="30" viewBox="0 0 30 30" fill="none" xmlns="http://www.w3.org/2000/svg">
<g clip-path="url(#clip0_1_7510)">
<path d="M6.375 2.4375L27.2812 0L27 1.5H28.125L27.9375 2.90625H28.875L28.7812 3.5625L30 3.65625L26.1562 29.9062L0.65625 27L6.375 2.4375Z" fill="#8E4964"/>
<path d="M25.4062 28.3125L1.78125 26.4375L6.9375 3.5625L28.5938 4.40625L25.4062 28.3125Z" fill="#FFDEF5"/>
<path d="M24.8438 27.5625L1.875 25.7812L7.125 3L28.0312 3.65625L24.8438 27.5625Z" fill="#9EB1BA"/>
<path d="M24.1875 26.1562L2.53125 25.875L7.78125 3.09375L27.375 2.25L24.1875 26.1562Z" fill="#D6DFE5"/>
<path d="M23.3438 24.9375L1.875 25.7812L7.03125 3L26.5312 1.03125L23.3438 24.9375Z" fill="#FFDEF5"/>
<path d="M21.6562 22.7812L4.125 23.5312L8.34375 4.96875L24.2812 3.28125L21.6562 22.7812Z" fill="white"/>
<path d="M22.4062 23.8125L3 24.6562L7.6875 4.03125L25.4062 2.15625L22.4062 23.8125Z" fill="white"/>
<path d="M1.21875 26.3438L22.9688 26.1562L23.3438 24.9375L1.40625 25.7812L1.21875 26.3438Z" fill="#8E4964"/>
<path d="M22.9688 26.1562H24.1875L27.2813 0L26.5312 0.84375L22.9688 26.1562Z" fill="#8E4964"/>
<path d="M8.25 4.875L6.5625 12.375L14.7188 11.8125L15.9375 4.125L8.25 4.875Z" fill="#AEFFF5"/>
<path d="M16.7812 4.125L15.5625 11.625L23.25 11.0625L24.4688 3.375L16.7812 4.125Z" fill="#B7C6CE"/>
<path d="M6.46875 13.2188L4.125 23.5312L21.6562 22.7812L22.9688 12L6.46875 13.2188Z" fill="#FFA9E0"/>
<mask id="mask0_1_7510" style="mask-type:luminance" maskUnits="userSpaceOnUse" x="4" y="12" width="19" height="12">
<path d="M6.46875 13.2188L4.125 23.5312L21.6562 22.7812L22.9688 12L6.46875 13.2188Z" fill="white"/>
</mask>
<g mask="url(#mask0_1_7510)">
<path d="M13.2867 16.5212C14.4469 15.2669 14.5246 13.452 13.4604 12.4677C12.3961 11.4833 10.5928 11.7021 9.43269 12.9564C8.27253 14.2107 8.19478 16.0255 9.25904 17.0099C10.3233 17.9943 12.1266 17.7755 13.2867 16.5212Z" fill="#8E4964"/>
<path d="M23.6109 16.0595C24.7711 14.8052 24.8488 12.9904 23.7846 12.006C22.7203 11.0216 20.9171 11.2404 19.7569 12.4947C18.5967 13.7491 18.519 15.5639 19.5833 16.5482C20.6475 17.5326 22.4508 17.3138 23.6109 16.0595Z" fill="#8E4964"/>
<path d="M12.4688 14.0624C12.4688 14.0624 13.875 11.9999 16.7812 11.9062C19.6875 11.8124 21.75 14.2499 21.375 17.4374L12.4688 14.0624Z" fill="#8E4964"/>
<path d="M12.8943 17.0176C13.9842 15.8393 14.0357 14.1146 13.0095 13.1654C11.9832 12.2162 10.2678 12.4019 9.17793 13.5801C8.08809 14.7584 8.03653 16.4831 9.06278 17.4323C10.089 18.3816 11.8045 18.1959 12.8943 17.0176Z" fill="#8E4964"/>
<path d="M23.305 16.4377C24.3948 15.2595 24.4464 13.5348 23.4201 12.5856C22.3939 11.6363 20.6784 11.822 19.5886 13.0003C18.4987 14.1786 18.4472 15.9033 19.4734 16.8525C20.4997 17.8017 22.2151 17.616 23.305 16.4377Z" fill="#8E4964"/>
<path d="M12.375 14.6249C12.375 14.6249 13.7812 12.5624 16.6875 12.4687C19.5937 12.3749 21.6562 14.8124 21.2812 17.9999L12.375 14.6249Z" fill="#8E4964"/>
<path d="M10.5 20.1563C10.5 18.1876 11.625 16.3126 13.5 15.2813C14.25 14.9063 15.0937 14.6251 16.2188 14.5313C20.5312 14.3438 21.375 16.8751 21.2813 18.4688C21.2813 20.0626 19.7812 25.2188 15.8438 25.5938C12.4688 25.9688 10.5938 23.9063 10.5 20.1563Z" fill="#8E4964"/>
<path d="M13.1787 16.5969C14.1983 15.4946 14.2544 13.8886 13.3042 13.0096C12.354 12.1307 10.7572 12.3118 9.73763 13.4141C8.7181 14.5163 8.66192 16.1224 9.61215 17.0013C10.5624 17.8802 12.1592 17.6992 13.1787 16.5969Z" fill="#8E4964"/>
<path d="M13.016 13.8727C13.0412 13.4592 12.4331 13.0858 11.6578 13.0387C10.8825 12.9916 10.2337 13.2886 10.2086 13.702C10.1835 14.1155 10.7916 14.4889 11.5668 14.536C12.3421 14.5831 12.9909 14.2861 13.016 13.8727Z" fill="#8E4964"/>
<path d="M23.3701 15.8061C24.3897 14.7039 24.4458 13.0978 23.4956 12.2189C22.5454 11.34 20.9486 11.521 19.929 12.6233C18.9095 13.7256 18.8533 15.3316 19.8036 16.2105C20.7538 17.0895 22.3506 16.9084 23.3701 15.8061Z" fill="#8E4964"/>
<path d="M10.875 19.875C10.875 18 12 16.125 13.7812 15.1875C14.5312 14.8125 15.375 14.5312 16.4062 14.5312C20.5312 14.3437 21.2812 16.7812 21.2812 18.2812C21.2812 19.7812 19.7812 24.75 16.125 25.125C12.8438 25.5 10.9687 23.5312 10.875 19.875Z" fill="#8E4964"/>
<path d="M11.25 19.5939C11.25 17.8126 12.2812 16.1251 13.9687 15.1876C14.625 14.8126 15.4688 14.6251 16.4063 14.5314C20.3438 14.3439 21 16.6876 21 18.0939C21 19.5001 19.5938 24.1876 16.125 24.5626C13.0313 24.9376 11.3438 23.0626 11.25 19.5939Z" fill="#8E4964"/>
<path d="M11.625 19.4062C11.625 17.8125 12.5625 16.125 14.1563 15.2812C14.8125 15 15.5625 14.7187 16.4063 14.7187C20.0625 14.5312 20.7188 16.6875 20.7188 18C20.7188 19.3125 19.4062 23.625 16.2187 24C13.3125 24.375 11.7188 22.5937 11.625 19.4062Z" fill="#8E4964"/>
<path d="M19.5937 17.25C19.3125 17.1562 19.0312 17.0625 18.5625 17.0625C17.7187 17.0625 16.9688 17.7187 16.9688 18.4687V19.6875C16.9688 20.25 17.5312 20.7187 18.1875 20.7187C18.9375 20.7187 19.5938 20.3437 19.875 19.6875C20.0625 19.3125 20.1562 18.8437 20.25 18.375C20.3438 17.9062 20.0625 17.4375 19.5937 17.25Z" fill="#8E4964"/>
<path d="M19.5 17.625C19.2187 17.5312 18.9375 17.4375 18.5625 17.4375C17.8125 17.4375 17.0625 18.1875 16.9688 19.0312V20.4375C16.9688 21.0937 17.4375 21.5625 18.0937 21.5625C18.75 21.5625 19.5 21.0937 19.6875 20.4375C19.875 20.0625 19.9687 19.5 20.0625 19.0312C20.1562 18.375 19.875 17.8125 19.5 17.625Z" fill="#8E4964"/>
<path d="M17.2503 18.9375C17.6253 18.0937 18.1878 17.625 18.7503 17.9062C19.3128 18.1875 19.594 19.125 19.3128 20.0625C19.0315 21.1875 18.1878 21.75 17.6253 21.375C17.0628 21 16.8753 19.875 17.2503 18.9375Z" fill="#8E4964"/>
<path d="M17.5313 18.7501C17.8125 18.0939 18.2812 17.8126 18.6562 18.0001C19.0312 18.1876 19.3125 18.8439 19.125 19.5939C18.9375 20.4376 18.2812 20.8126 17.8125 20.5314C17.3437 20.2501 17.25 19.4064 17.5313 18.7501Z" fill="#8E4964"/>
<path d="M18.1878 19.0312C18.2816 18.75 18.5628 18.6562 18.8441 18.6562C19.1253 18.75 19.2191 19.0312 19.1253 19.3125C19.0316 19.6875 18.6566 19.875 18.3753 19.6875C18.0941 19.5937 18.0003 19.3125 18.1878 19.0312ZM12.7503 17.5312C13.0316 17.3437 13.4066 17.25 13.7816 17.25C14.6253 17.1562 15.1878 17.7187 15.0941 18.4687C15.0941 18.8437 15.0003 19.2187 14.9066 19.6875C14.7191 20.25 14.1566 20.7187 13.5003 20.8125C12.7503 20.9062 12.1878 20.5312 12.0941 19.9687C12.0003 19.5937 12.0003 19.2187 12.0003 18.75C11.9066 18.2812 12.2816 17.8125 12.7503 17.5312Z" fill="#8E4964"/>
<path d="M12.8437 17.9063C13.125 17.7188 13.4062 17.625 13.7812 17.625C14.5312 17.625 15.0937 18.1875 15 19.0312C15 19.4062 14.9062 19.875 14.8125 20.3438C14.625 21 14.1562 21.4688 13.5 21.6563C12.8437 21.75 12.2812 21.375 12.0937 20.7188C12 20.3438 12 19.875 12 19.3125C12 18.6563 12.375 18.1875 12.8437 17.9063Z" fill="#8E4964"/>
<path d="M14.719 19.0312C14.5315 18.2812 13.969 17.9062 13.5003 18.0937C12.9378 18.3749 12.469 19.3124 12.5628 20.2499C12.6565 21.2812 13.3128 21.8437 13.969 21.3749C14.6253 20.9999 14.9065 19.8749 14.719 19.0312Z" fill="#8E4964"/>
<path d="M14.5313 18.8437C14.4375 18.2812 13.9688 18 13.5938 18.1875C13.125 18.375 12.8438 19.125 12.8438 19.7812C12.9375 20.5312 13.4062 20.9062 13.9687 20.5312C14.4375 20.25 14.625 19.5 14.5313 18.8437Z" fill="#8E4964"/>
<path d="M13.875 19.125C13.7812 18.8437 13.5937 18.75 13.3125 18.8438C13.0312 18.9375 12.8437 19.2187 12.9375 19.5C12.9375 19.7812 13.3125 19.9688 13.5937 19.7812C13.875 19.7812 13.9687 19.4062 13.875 19.125ZM19.125 13.4062C19.125 13.4062 19.4062 17.1563 21.4687 18.4688C21.4687 18.4688 23.0625 14.8125 19.125 13.4062ZM15.1875 13.2188C15.1875 13.2188 13.5 17.9062 10.5937 19.5937C10.5937 19.5937 10.0312 14.625 15.1875 13.2188ZM17.8125 13.9687C17.8125 13.9687 17.8125 15.8438 16.125 18C16.125 18 16.7812 15 15.75 13.875C15.75 13.875 16.875 13.2187 17.8125 13.9687Z" fill="#8E4964"/>
<path d="M19.594 14.4375C19.594 14.4375 19.4065 15.75 17.5315 16.875C17.5315 16.875 18.5628 15 17.6253 13.9687C17.6253 13.875 18.7503 13.6875 19.594 14.4375ZM15.469 13.7812C15.469 13.7812 16.3128 14.7187 15.5628 16.6875C15.5628 16.6875 15.0003 14.8125 13.594 14.9062C13.5003 14.9062 14.344 13.9688 15.469 13.7812ZM10.219 16.7812C10.219 16.7812 9.18776 19.0312 9.46901 20.9062C9.75026 22.7812 10.7815 24.375 10.3128 25.875C10.3128 25.875 11.0628 23.4375 11.1565 22.0313C11.2503 20.5313 10.8753 18.4687 11.6253 17.1562L10.219 16.7812Z" fill="#8E4964"/>
<path d="M23.2582 13.2013C23.2833 12.7878 22.6752 12.4144 21.9 12.3673C21.1247 12.3202 20.4759 12.6172 20.4508 13.0306C20.4256 13.4441 21.0337 13.8175 21.809 13.8646C22.5842 13.9117 23.2331 13.6147 23.2582 13.2013Z" fill="#8E4964"/>
<path d="M10.8753 16.4062C10.8753 16.4062 9.84401 18.6562 10.1253 20.5312C10.4065 22.4062 10.7815 24.5625 10.219 26.0625C10.219 26.0625 11.344 23.0625 11.4378 21.5625C11.5315 20.0625 11.5315 18.0937 12.2815 16.6875L10.8753 16.4062ZM22.7815 15.6562C22.7815 15.6562 23.1565 17.9062 22.3128 19.7812C21.469 21.6562 20.8128 22.3125 19.969 24.8437C19.969 24.8437 20.2503 22.2187 20.6253 20.8125C21.0003 19.3125 21.6565 17.4375 21.2815 16.125L22.7815 15.6562Z" fill="#8E4964"/>
<path d="M22.2188 15.2812C22.2188 15.2812 22.5938 17.5313 21.75 19.4063C20.9063 21.2813 19.9687 23.4375 19.9687 24.9375C19.9687 24.9375 19.7812 21.9375 20.0625 20.4375C20.4375 18.9375 21 16.9688 20.625 15.5625L22.2188 15.2812ZM13.5937 16.4063C13.5937 16.4063 12.75 18.375 12 19.4063L11.5312 21.1875L11.625 18.6563C11.5312 18.6563 13.125 17.3438 13.5937 16.4063Z" fill="#8E4964"/>
<path d="M19.875 16.5C19.875 16.5 20.0625 17.625 20.25 18L20.1563 20.1563L20.7188 17.625C20.8125 17.7188 19.9688 16.7813 19.875 16.5ZM10.875 13.5938C10.875 13.5938 9.46877 14.7188 10.0313 16.4063C10.0313 16.4063 8.90627 15.1875 10.2188 13.4063L10.875 13.5938ZM22.5 13.2188C22.5 13.2188 23.4375 13.5 23.1563 15.2812C23.1563 15.2812 24.375 13.7813 23.0625 12.8438L22.5 13.2188ZM15.75 14.5313C15.75 14.5313 16.5938 16.3125 16.125 18C16.125 18 16.7813 15.5625 16.4063 14.4375C16.4063 14.4375 15.8438 14.3438 15.75 14.5313ZM16.6875 13.2188C16.6875 13.2188 19.4063 13.125 21.4688 15.1875C21.4688 15.1875 22.0313 15.8437 22.0313 16.2187C22.0313 16.6875 20.5313 21.4688 20.5313 21.4688L21.1875 16.0313C21.1875 16.0313 20.7188 15.2812 20.25 14.9062C19.6875 14.625 18.1875 13.5 16.6875 13.2188ZM12.5625 15.5625C12.5625 15.5625 12.375 16.875 11.7188 17.4375C10.9688 18 11.0625 18.8438 11.0625 18.8438L10.7813 22.125L10.5938 18.375C10.5938 18.375 11.1563 17.625 11.3438 17.0625C11.625 16.5 11.9063 15.6563 11.9063 15.6563L12.5625 15.5625Z" fill="#8E4964"/>
</g>
<mask id="mask1_1_7510" style="mask-type:luminance" maskUnits="userSpaceOnUse" x="4" y="12" width="19" height="12">
<path d="M6.46875 13.2188L4.125 23.5312L21.6562 22.7812L22.9688 12L6.46875 13.2188Z" fill="white"/>
</mask>
<g mask="url(#mask1_1_7510)">
<path d="M13.0442 17.2766C14.1341 16.0983 14.1856 14.3736 13.1594 13.4244C12.1331 12.4752 10.4177 12.6609 9.32784 13.8392C8.23799 15.0175 8.18643 16.7422 9.21268 17.6914C10.2389 18.6406 11.9544 18.4549 13.0442 17.2766Z" fill="#B2642F"/>
<path d="M22.8689 16.7922C23.9588 15.614 24.0103 13.8893 22.9841 12.94C21.9578 11.9908 20.2424 12.1765 19.1525 13.3548C18.0627 14.5331 18.0111 16.2578 19.0374 17.207C20.0636 18.1562 21.7791 17.9705 22.8689 16.7922Z" fill="#B2642F"/>
<path d="M12.2812 14.9061C12.2812 14.9061 13.5937 12.9374 16.4062 12.9374C19.2187 12.8436 21.1875 15.0936 20.8125 18.1874L12.2812 14.9061Z" fill="#B2642F"/>
<path d="M12.6094 17.7104C13.6289 16.6081 13.6851 15.0021 12.7349 14.1232C11.7846 13.2443 10.1878 13.4253 9.1683 14.5276C8.14876 15.6299 8.09258 17.2359 9.04281 18.1148C9.99304 18.9938 11.5899 18.8127 12.6094 17.7104Z" fill="#B2642F"/>
<path d="M22.4527 17.1765C23.4722 16.0742 23.5284 14.4681 22.5781 13.5892C21.6279 12.7103 20.0311 12.8914 19.0116 13.9937C17.992 15.0959 17.9358 16.702 18.8861 17.5809C19.8363 18.4598 21.4331 18.2787 22.4527 17.1765Z" fill="#B2642F"/>
<path d="M12.0938 15.4686C12.0938 15.4686 13.4062 13.4999 16.2187 13.4999C19.0312 13.4061 21 15.6561 20.625 18.7499L12.0938 15.4686Z" fill="#F79248"/>
<path d="M10.3125 20.625C10.3125 18.75 11.3438 16.9687 13.2188 16.0312C13.875 15.6562 14.8125 15.375 15.75 15.375C19.875 15.1875 20.625 17.625 20.625 19.125C20.625 20.625 19.125 25.5 15.4688 25.875C12.1875 26.25 10.4062 24.2812 10.3125 20.625Z" fill="#BC7458"/>
<path d="M12.8754 17.2813C13.8598 16.2171 13.9182 14.6703 13.006 13.8266C12.0938 12.9828 10.5563 13.1616 9.57193 14.2258C8.58755 15.2901 8.52905 16.8368 9.44128 17.6806C10.3535 18.5243 11.891 18.3456 12.8754 17.2813Z" fill="#F79248"/>
<path d="M12.6855 14.6983C12.7075 14.3365 12.1387 14.0075 11.4151 13.9636C10.6916 13.9196 10.0872 14.1772 10.0652 14.539C10.0432 14.9008 10.612 15.2297 11.3355 15.2737C12.0591 15.3177 12.6635 15.06 12.6855 14.6983Z" fill="#FFBE92"/>
<path d="M22.5663 16.6107C23.5507 15.5464 23.6092 13.9997 22.6969 13.1559C21.7847 12.3121 20.2472 12.4909 19.2628 13.5552C18.2785 14.6194 18.22 16.1662 19.1322 17.0099C20.0444 17.8537 21.5819 17.6749 22.5663 16.6107Z" fill="#F79248"/>
<path d="M10.6875 20.4374C10.6875 18.6561 11.7188 16.8749 13.4063 15.9374C14.0625 15.5624 14.9062 15.3749 15.8438 15.2811C19.7812 15.0936 20.5312 17.4374 20.5312 18.8436C20.5312 20.2499 19.125 24.9374 15.5625 25.4061C12.5625 25.7811 10.7812 23.9061 10.6875 20.4374Z" fill="#E5A98C"/>
<path d="M11.0625 20.156C11.0625 18.4685 12 16.781 13.6875 15.9373C14.3438 15.5623 15.0938 15.3748 16.0312 15.3748C19.7812 15.1873 20.4375 17.4373 20.4375 18.7498C20.4375 20.0623 19.125 24.5623 15.75 24.9373C12.75 25.2185 11.0625 23.4373 11.0625 20.156Z" fill="#E8CCAA"/>
<path d="M11.3438 20.0623C11.3438 18.5623 12.2812 16.9686 13.7812 16.2186C14.3437 15.9373 15.0937 15.6561 15.9375 15.6561C19.4062 15.5623 19.9687 17.5311 19.9687 18.7498C19.9687 19.9686 18.75 24.0936 15.75 24.3748C12.9375 24.7498 11.4375 23.0623 11.3438 20.0623Z" fill="#FAEACF"/>
<path d="M18.9375 17.9063C18.6563 17.8125 18.375 17.7188 18 17.7188C17.25 17.7188 16.5 18.375 16.5 19.0312V20.1563C16.5 20.7188 16.9687 21.0938 17.625 21.1875C18.2812 21.1875 18.9375 20.8125 19.2187 20.25C19.3125 19.875 19.5 19.5 19.5937 19.0312C19.6875 18.5625 19.4063 18.0938 18.9375 17.9063Z" fill="#3C505B"/>
<path d="M18.8438 18.2813C18.6563 18.1875 18.2813 18.0938 17.9063 18.0938C17.1563 18.0938 16.5 18.8438 16.4062 19.5938V20.9062C16.4062 21.5625 16.875 21.9375 17.4375 22.0313C18.0938 22.0313 18.75 21.5625 18.9375 20.9062C19.0313 20.5312 19.2188 20.0625 19.3125 19.5C19.5 18.9375 19.3125 18.4688 18.8438 18.2813Z" fill="white"/>
<path d="M16.7812 19.5936C17.0624 18.8436 17.7187 18.3748 18.1874 18.5623C18.7499 18.7498 18.9374 19.6873 18.6562 20.6248C18.3749 21.6561 17.6249 22.2186 17.0624 21.8436C16.4999 21.4686 16.4062 20.4373 16.7812 19.5936Z" fill="#54B9EB"/>
<path d="M17.0625 19.4062C17.3438 18.8437 17.8125 18.4687 18.1875 18.6562C18.5625 18.8437 18.75 19.4999 18.5625 20.1562C18.375 20.9062 17.7187 21.3749 17.3437 21.0937C16.875 20.8124 16.7813 20.0624 17.0625 19.4062Z" fill="#3C505B"/>
<path d="M17.6249 19.5937C17.7186 19.3125 17.9999 19.2188 18.1874 19.3125C18.3749 19.4063 18.5624 19.6875 18.4686 19.9687C18.3749 20.25 18.0936 20.4375 17.8124 20.3438C17.5311 20.1563 17.4374 19.875 17.6249 19.5937Z" fill="white"/>
<path d="M12.4688 18.1875C12.75 18.0938 13.0313 17.9063 13.4063 17.9063C14.1563 17.8125 14.7188 18.375 14.625 19.0313C14.625 19.4063 14.5312 19.7813 14.4375 20.1563C14.3438 20.7188 13.7813 21.1875 13.125 21.2813C12.4688 21.375 11.9063 21 11.7188 20.5313C11.625 20.25 11.625 19.7813 11.625 19.3125C11.7188 18.9375 12 18.4688 12.4688 18.1875Z" fill="#3C505B"/>
<path d="M12.5624 18.5625C12.8436 18.375 13.1249 18.2812 13.4999 18.2812C14.2499 18.2812 14.8124 18.8437 14.7186 19.5937C14.7186 19.9687 14.6249 20.4375 14.5311 20.9062C14.4374 21.4687 13.8749 22.0313 13.3124 22.125C12.6561 22.2188 12.0936 21.8438 11.9999 21.1875C11.9061 20.8125 11.9061 20.3438 11.9061 19.875C11.8124 19.3125 12.0936 18.8437 12.5624 18.5625Z" fill="white"/>
<path d="M14.3438 19.5936C14.1563 18.8436 13.6875 18.4686 13.125 18.7499C12.5625 19.0311 12.1875 19.9686 12.1875 20.8124C12.2812 21.8436 12.9375 22.3124 13.5938 21.8436C14.25 21.4686 14.5313 20.4374 14.3438 19.5936Z" fill="#54B9EB"/>
<path d="M14.1561 19.5C14.0624 18.9375 13.5936 18.6562 13.2186 18.8437C12.7499 19.0312 12.4686 19.6875 12.5624 20.3437C12.6561 21.0937 13.1249 21.4687 13.5936 21.0937C14.0624 20.8125 14.2499 20.0625 14.1561 19.5Z" fill="#3C505B"/>
<path d="M13.5 19.6873C13.4062 19.4998 13.2188 19.3123 12.9375 19.406C12.6563 19.4998 12.5625 19.781 12.5625 20.0623C12.5625 20.3435 12.8438 20.531 13.125 20.3435C13.5 20.3435 13.5938 19.9685 13.5 19.6873Z" fill="white"/>
<path d="M18.5624 14.25C18.5624 14.25 18.8437 17.8125 20.8124 19.0312C20.8124 19.125 22.3124 15.5625 18.5624 14.25ZM14.7187 14.0625C14.7187 14.0625 13.1249 18.4688 10.4062 20.1562C10.4062 20.1562 9.9374 15.375 14.7187 14.0625ZM17.3437 14.8125C17.3437 14.8125 17.3437 16.5937 15.7499 18.6562C15.7499 18.6562 16.4062 15.8437 15.3749 14.7187C15.2812 14.7187 16.4062 14.0625 17.3437 14.8125Z" fill="#F79248"/>
<path d="M18.9376 15.2812C18.9376 15.2812 18.7501 16.5938 16.9688 17.5313C16.9688 17.5313 17.9063 15.75 17.0626 14.7187C17.1563 14.8125 18.1876 14.5312 18.9376 15.2812ZM15.0938 14.625C15.0938 14.625 15.8438 15.4688 15.1876 17.4375C15.1876 17.4375 14.6251 15.6562 13.3126 15.75C13.2188 15.75 13.9688 14.8125 15.0938 14.625Z" fill="#F79248"/>
<path d="M10.0315 17.5312C10.0315 17.5312 9.00026 19.6875 9.28151 21.4687C9.56276 23.25 10.594 24.75 10.0315 26.25C10.0315 26.25 10.7815 24 10.8753 22.5937C10.969 21.1875 10.594 19.2187 11.344 17.9062L10.0315 17.5312Z" fill="#B2642F"/>
<path d="M22.4804 14.1123C22.5024 13.7505 21.9336 13.4216 21.2101 13.3776C20.4865 13.3337 19.8821 13.5913 19.8601 13.9531C19.8381 14.3149 20.4069 14.6438 21.1304 14.6878C21.854 14.7317 22.4584 14.4741 22.4804 14.1123Z" fill="#FFBE92"/>
<path d="M10.6878 17.1562C10.6878 17.1562 9.65651 19.3125 9.93776 21.0938C10.219 22.875 10.5003 24.9375 10.0315 26.3438C10.0315 26.3438 11.0628 23.5313 11.1565 22.125C11.2503 20.7188 11.2503 18.75 12.0003 17.5313L10.6878 17.1562Z" fill="#F79248"/>
<path d="M22.0312 16.5C22.0312 16.5 22.4062 18.6562 21.5625 20.4375C20.7187 22.2187 20.0625 22.7812 19.3125 25.2187L19.875 21.375C20.25 19.9687 20.9062 18.1875 20.5312 16.875L22.0312 16.5Z" fill="#B2642F"/>
<path d="M21.4689 16.0312C21.4689 16.0312 21.8439 18.1875 21.0002 19.9687C20.1564 21.75 19.3127 23.8125 19.3127 25.2187C19.3127 25.2187 19.1252 22.4062 19.4064 21C19.7814 19.5937 20.3439 17.625 19.9689 16.4062L21.4689 16.0312Z" fill="#F79248"/>
<path d="M13.2188 17.1562C13.2188 17.1562 12.4687 19.0313 11.625 20.0625L11.25 21.6563L11.3438 19.2188C11.3438 19.3125 12.8438 18.0938 13.2188 17.1562ZM19.3125 17.25C19.3125 17.25 19.5 18.2813 19.6875 18.75L19.5938 20.8125L20.1562 18.4688C20.1562 18.375 19.4062 17.5313 19.3125 17.25Z" fill="#B2642F"/>
<path d="M10.6877 14.5313C10.6877 14.5313 9.37522 15.5625 9.84397 17.25C9.84397 17.25 8.81272 16.125 10.0315 14.4375L10.6877 14.5313ZM21.7502 14.1563C21.7502 14.1563 22.6877 14.4375 22.4065 16.125C22.4065 16.125 23.6252 14.7188 22.3127 13.7812L21.7502 14.1563Z" fill="#FFBE92"/>
<path d="M15.375 15.375C15.375 15.375 16.125 17.0625 15.6563 18.6563C15.6563 18.6563 16.3125 16.3125 15.9375 15.2812C15.9375 15.2812 15.375 15.1875 15.375 15.375Z" fill="#B2642F"/>
<path d="M16.2187 14.1562C16.2187 14.1562 18.8438 14.0625 20.7188 16.0312C20.7188 16.0312 21.2812 16.5937 21.1875 17.0625C21.1875 17.4375 19.7812 22.0312 19.7812 22.0312L20.3438 16.875C20.3438 16.875 19.875 16.125 19.4062 15.75C19.125 15.375 17.625 14.3437 16.2187 14.1562ZM12.375 16.4062C12.375 16.4062 12.2812 17.625 11.5312 18.1875C10.875 18.75 10.875 19.5 10.875 19.5L10.5937 22.5937L10.4062 19.0312C10.4062 19.0312 10.9687 18.2812 11.1562 17.7187C11.4375 17.1562 11.625 16.4062 11.625 16.4062H12.375Z" fill="#FFA96E"/>
</g>
<mask id="mask2_1_7510" style="mask-type:luminance" maskUnits="userSpaceOnUse" x="6" y="3" width="10" height="9">
<path d="M14.9063 10.875L6.9375 11.3438L7.96875 4.6875L15.75 3.9375L14.9063 10.875Z" fill="white"/>
</mask>
<g mask="url(#mask2_1_7510)">
<path d="M9.74999 4.3125C9.18749 4.40625 8.71874 4.6875 8.34374 5.15625C8.24999 5.34375 8.15624 5.53125 7.87499 5.71875C7.12499 6.5625 7.68749 7.78125 8.99999 7.59375C10.4062 7.40625 11.1562 6.84375 11.625 5.71875C12 4.78125 11.1562 4.03125 10.0312 4.3125H9.74999ZM14.4375 3.84375C15 3.84375 15.4687 4.125 15.6562 4.5C15.75 4.6875 15.8437 4.875 16.0312 5.0625C16.6875 5.71875 15.6562 7.21875 14.25 7.21875C12.8437 7.21875 12.0937 6.84375 12 5.71875C11.9062 4.78125 12.9375 3.9375 14.0625 3.9375L14.4375 3.84375Z" fill="#A3704D"/>
<path d="M14.5311 7.78131L14.7186 3.93756H14.4373C13.3123 3.84381 12.1873 3.84381 11.0623 4.03131C10.3123 4.12506 9.46859 4.40631 8.81234 4.87506C8.62484 5.90631 8.34359 7.50006 7.59359 8.90631C7.59359 8.90631 5.99984 11.7188 7.59359 11.9063C9.18734 12.0938 14.2498 12.0001 15.1873 10.9688C16.1248 10.0313 14.6248 8.25006 14.5311 7.78131Z" fill="#A3704D"/>
<path d="M14.5312 3.84376C13.6875 3.75001 12.375 3.65626 11.1562 3.75001C10.125 3.84376 9.5625 4.12501 9.09375 4.31251C9.09375 4.96876 8.90625 7.03126 7.96875 8.81251C7.96875 8.81251 6.5625 11.3438 7.96875 11.5313C9.46875 11.7188 13.9687 11.625 14.7187 10.6875C15.4688 9.75001 14.1562 8.15626 14.1562 7.78126C14.25 7.31251 14.3438 4.68751 14.5312 3.84376Z" fill="#FBCC94"/>
<path d="M9.74966 4.50003C9.28091 4.59378 8.81216 4.87503 8.62466 5.25003C8.43716 5.43753 8.34341 5.53128 8.15591 5.81253C7.49966 6.46878 7.96841 7.59378 9.09341 7.40628C10.3122 7.21878 10.9684 6.75003 11.4372 5.71878C11.7184 4.87503 11.0622 4.21878 10.0309 4.50003H9.74966Z" fill="#FAB88C"/>
<path d="M9.65589 4.68746C9.28089 4.78121 8.90589 4.96871 8.62464 5.34371C8.62464 5.43746 8.43714 5.62496 8.24964 5.81246C7.68714 6.37496 8.06214 7.40621 9.18714 7.21871C10.2184 7.03121 10.8746 6.65621 11.2496 5.71871C11.5309 4.96871 10.8746 4.40621 10.0309 4.59371L9.65589 4.68746Z" fill="#FFD097"/>
<path d="M9.28122 6.28122C9.18747 6.46872 8.90622 6.74997 8.71872 6.74997C8.43747 6.74997 8.24997 6.56247 8.34372 6.37497C8.43747 6.09372 8.71872 5.90622 8.90622 5.90622C9.18747 5.81247 9.37497 5.99997 9.28122 6.28122Z" fill="#A3704D"/>
<path d="M8.8125 6.375C8.8125 6.46875 8.71875 6.5625 8.625 6.5625C8.625 6.5625 8.53125 6.46875 8.53125 6.375C8.53125 6.28125 8.625 6.1875 8.71875 6.1875C8.8125 6.1875 8.90625 6.28125 8.8125 6.375ZM14.3438 4.03125C14.8125 4.03125 15.1875 4.21875 15.375 4.59375C15.4687 4.6875 15.5625 4.875 15.6563 5.0625C16.2188 5.71875 15.375 6.9375 14.0625 6.9375C12.8437 6.9375 12.1875 6.65625 12.0937 5.625C12 4.875 12.9375 4.03125 13.875 4.03125H14.3438Z" fill="#FAB88C"/>
<path d="M14.3436 4.21875C14.8123 4.21875 15.0936 4.40625 15.2811 4.6875C15.3748 4.78125 15.4686 4.96875 15.5623 5.0625C16.0311 5.625 15.2811 6.75 14.1561 6.75C13.0311 6.75 12.5623 6.46875 12.3748 5.625C12.2811 4.96875 13.1248 4.21875 13.9686 4.21875H14.3436Z" fill="#FFD097"/>
<path d="M14.3438 5.81247C14.3438 6.09372 14.5312 6.28122 14.8125 6.18747C15.0938 6.18747 15.2812 5.90622 15.2812 5.71872C15.2812 5.43747 15.0938 5.24997 14.8125 5.34372C14.5312 5.34372 14.3438 5.53122 14.3438 5.81247Z" fill="#A3704D"/>
<path d="M7.0311 10.6875C7.0311 10.6875 8.24985 10.5 9.18735 10.6875C10.1249 10.875 13.5936 10.5 15.2811 10.0312C15.2811 10.0312 15.6561 10.4063 15.3749 10.7813C15.0936 11.1563 11.3436 12.9375 10.5936 13.2188C9.8436 13.4063 7.12485 12 7.0311 11.7188C6.93735 11.3438 6.8436 10.875 7.0311 10.6875Z" fill="#5D8993"/>
<path d="M14.7188 5.8125C14.7188 5.90625 14.8125 5.90625 14.9062 5.90625C15 5.90625 15.0938 5.8125 15.0938 5.71875C15.0938 5.71875 15 5.625 14.9062 5.625C14.8125 5.625 14.7188 5.71875 14.7188 5.8125Z" fill="#FAB88C"/>
<path d="M7.40591 10.5C7.40591 10.5 8.53091 10.3125 9.37466 10.5C10.2184 10.6875 13.4059 10.3125 14.9997 9.9375C14.9997 9.9375 15.3747 10.3125 15.0934 10.6875C14.8122 11.0625 11.4372 12.75 10.7809 12.9375C10.1247 13.125 7.59341 11.8125 7.49966 11.5312C7.31216 11.1562 7.21841 10.6875 7.40591 10.5Z" fill="#CBDEE4"/>
<path d="M12.6563 6.65625C12.6563 6.65625 13.6875 7.125 14.4375 6.9375L14.5313 7.125C14.5313 7.125 13.5938 7.3125 12.6563 6.65625ZM10.3125 6.84375C10.3125 6.84375 9.1875 7.5 8.4375 7.40625L8.34375 7.59375C8.34375 7.59375 9.28125 7.6875 10.3125 6.84375Z" fill="#A3704D"/>
<path d="M7.9687 6.09375C7.9687 6.09375 7.7812 6.9375 8.99995 6.84375C10.2187 6.75 11.2499 5.71875 11.2499 5.71875C11.2499 5.71875 10.9687 7.03125 9.0937 7.3125C7.31245 7.5 7.9687 6.09375 7.9687 6.09375ZM15.7499 5.4375C15.7499 5.4375 15.6562 6.28125 14.4374 6.375C13.1249 6.46875 12.3749 5.625 12.3749 5.625C12.3749 5.625 12.3749 6.84375 14.1562 6.84375C16.0312 6.84375 15.7499 5.4375 15.7499 5.4375Z" fill="#FBCC94"/>
<path d="M11.3435 8.90625C11.3435 9 11.2498 9.09375 11.156 9.09375C11.0623 9.09375 10.9685 9 11.0623 9C11.0623 8.90625 11.156 8.8125 11.2498 8.8125C11.3435 8.8125 11.3435 8.90625 11.3435 8.90625Z" fill="#A3704D"/>
<path d="M7.21875 10.7812C7.21875 10.7812 7.59375 10.5937 7.96875 10.5937C8.34375 10.5937 10.2188 10.9687 11.7188 10.6875L15.1875 10.125L15.0938 9.9375L11.1562 10.5C9.84375 10.5937 8.34375 10.125 7.21875 10.6875V10.7812Z" fill="#5D8993"/>
<path d="M12.9375 10.6876L11.0625 11.0626C10.7812 11.5313 10.5 12.0001 10.4062 12.5626C10.5938 12.6563 10.6875 12.6563 10.7812 12.6563C11.1562 12.6563 13.2187 11.5313 13.9687 11.1563C14.625 10.6876 13.4062 10.5001 12.9375 10.6876Z" fill="#D5EAEF"/>
<path d="M13.3125 10.3125C13.3125 10.3125 13.2187 10.7812 12.9375 11.25L12.4688 12.0937L13.5937 11.3438C13.7812 11.25 15.2812 10.875 14.7187 10.5938C14.0625 10.4063 13.3125 10.3125 13.3125 10.3125Z" fill="#CBDEE4"/>
<path opacity="0.4" d="M12.375 12.1874C12.4687 12.0937 12.8438 11.7187 12.9375 11.4374C13.125 11.1562 13.3125 10.8749 13.5937 11.0624C13.875 11.1562 13.7812 11.5312 13.7812 11.5312L12.375 12.1874ZM10.5938 13.1249C10.5 13.0312 10.3125 12.6562 10.2187 12.3749C10.125 12.0937 9.9375 11.9062 9.65625 11.9999C9.375 12.1874 9.375 12.5624 9.375 12.5624L10.5938 13.1249Z" fill="#5D8993"/>
<path d="M11.5313 11.4376C11.5313 11.4376 11.625 11.0626 11.8125 10.9688C12 10.8751 12.6563 10.5938 12.75 10.7813C12.8438 10.8751 13.125 11.1563 12.75 11.2501C12.375 11.4376 12.4688 11.7188 12.0938 11.8126C11.8125 11.9063 11.4375 11.7188 11.5313 11.4376Z" fill="#EEFDFF"/>
<path d="M8.90625 4.78129C8.90625 4.78129 9.75 4.31254 10.2188 4.21879C10.6875 4.12504 13.5938 3.93754 14.625 4.03129V3.84379C14.625 3.84379 12 3.46879 10.3125 3.84379C8.90625 4.12504 8.8125 4.50004 8.8125 4.50004L8.90625 4.78129Z" fill="#A3704D"/>
</g>
<path d="M2.81229 15.0939C2.71854 12.9376 5.06229 10.6876 7.96854 10.0314L11.3435 9.28136C14.4373 8.62511 17.531 9.75011 18.0935 12.0001C18.7498 14.3439 16.3123 16.9689 12.7498 17.6251L8.90604 18.2814C8.90604 18.9376 9.56229 19.8751 10.406 20.8126C10.4998 21.0001 10.406 21.1876 10.2185 21.1876C8.90604 20.9064 6.28104 20.1564 5.34354 18.0939C3.93729 17.6251 2.90604 16.5001 2.81229 15.0939Z" fill="#4C6980"/>
<path d="M3.37502 14.9062C3.28127 12.8437 5.43752 10.7812 8.15627 10.2187L11.25 9.56242C14.0625 8.90617 16.875 10.0312 17.3438 11.9999C17.9063 14.1562 15.6563 16.4999 12.4688 17.1562L9.09377 17.8124C8.90627 17.8124 8.71877 17.9062 8.53127 17.9062C8.53127 18.4687 8.71877 19.1249 9.28127 19.8749C9.37502 20.0624 9.18752 20.2499 9.00002 20.1562C8.06252 19.8749 6.56252 19.1249 5.81252 17.6249C4.31252 17.2499 3.37502 16.2187 3.37502 14.9062Z" fill="white"/>
<path d="M6.09375 13.3125L6 13.4063C5.8125 13.7813 5.4375 14.25 5.15625 14.5313C5.0625 14.4375 4.96875 14.4375 4.96875 14.3438C5.34375 14.0625 5.625 13.5938 5.8125 13.2188L6.09375 13.3125ZM8.4375 14.4375L8.71875 14.5313C8.71875 14.5313 8.71875 14.625 8.625 14.625C8.34375 15.0938 7.96875 15.5625 7.5 15.9375C8.0625 16.125 8.71875 16.2188 9.5625 16.125C9.46875 16.2188 9.375 16.4063 9.375 16.5C8.53125 16.5 7.78125 16.4062 7.21875 16.2187C6.5625 16.5937 5.90625 16.9687 5.15625 17.1562C5.15625 17.0625 5.0625 16.9688 4.96875 16.875C5.625 16.6875 6.28125 16.4063 6.84375 16.125C6.5625 15.9375 6.28125 15.75 6.09375 15.5625C5.8125 15.75 5.53125 16.0312 5.25 16.2187C5.25 16.125 5.15625 16.0313 5.0625 16.0313C5.8125 15.5625 6.375 15 6.65625 14.5313H7.125C7.125 14.5313 7.125 14.625 7.03125 14.625C6.9375 14.7188 6.84375 14.8125 6.84375 14.9062L8.4375 14.4375ZM6.84375 12.75C6.84375 13.3125 6.84375 14.0625 6 14.8125L5.8125 14.625C6.46875 13.9688 6.5625 13.3125 6.5625 12.8438L4.96875 13.125V12.75L6.9375 12.2813V11.7188L7.40625 11.625C7.40625 11.625 7.40625 11.7188 7.3125 11.7188V12.1875L9.46875 11.7188V12.0938L7.96875 12.375V13.6875C7.96875 14.0625 7.78125 14.1563 7.03125 14.25C7.03125 14.1563 6.9375 14.0625 6.9375 13.9688C7.21875 13.9688 7.40625 13.875 7.5 13.875C7.59375 13.875 7.59375 13.875 7.59375 13.7813V12.4688L6.84375 12.75ZM6.375 15.0938C6.5625 15.375 6.84375 15.6562 7.125 15.75C7.5 15.4687 7.875 15.1875 8.0625 14.8125L6.375 15.0938ZM9.28125 13.875C9.09375 13.5938 8.71875 13.2188 8.34375 12.9375L8.625 12.75C9 13.0313 9.375 13.4063 9.65625 13.6875L9.28125 13.875ZM11.0625 15.0938C10.875 15.5625 10.6875 15.9375 10.2188 16.2187L9.9375 16.0313C10.4063 15.75 10.5938 15.375 10.7812 15L11.0625 15.0938ZM12.4688 12.0938C12.4688 12 12.375 11.9063 12.2813 11.9063L10.2188 12.4688C10.2188 12.4688 10.2188 12.5625 10.125 12.5625L10.0312 12.1875L10.5 12.0938C10.6875 11.8125 10.875 11.3438 11.0625 10.9688L11.5313 11.0625L11.4375 11.1562C11.3438 11.4375 11.1562 11.7188 10.9688 12L12.1875 11.7188C12.0938 11.625 11.9063 11.4375 11.8125 11.4375L12.0938 11.25C12.375 11.4375 12.75 11.8125 12.9375 12L12.4688 12.0938ZM12.375 12.1875L12.2813 14.0625C12.2813 14.3438 12.0938 14.4375 11.4375 14.5313C11.4375 14.4375 11.3438 14.3438 11.3438 14.25C11.9063 14.1563 11.9062 14.1563 11.9062 14.0625V13.6875L10.6875 14.0625V14.8125L10.3125 14.9062V12.6563L12.375 12.1875ZM12 12.5625L10.6875 12.8438V13.2188L12 12.9375V12.5625ZM10.6875 13.7813L12 13.5V13.125L10.6875 13.4063V13.7813ZM11.8125 15.5625C11.8125 15.6563 11.9063 15.75 12.1875 15.6563L13.3125 15.4688C13.5938 15.4688 13.5938 15.375 13.6875 14.9062C13.7813 14.9062 13.9688 15 14.0625 15C13.9688 15.5625 13.875 15.75 13.4063 15.8438L12.1875 16.0313C11.625 16.125 11.4375 16.0313 11.4375 15.6563V14.9062L11.9062 14.8125C11.9062 14.8125 11.9063 14.9062 11.8125 14.9062V15.5625ZM12.8438 15.1875C12.6562 15 12.2812 14.8125 11.9062 14.7188L12.1875 14.4375C12.5625 14.5312 12.9375 14.7188 13.125 14.9062L12.8438 15.1875ZM14.9062 11.5313C15.1875 11.4375 15.1875 11.4375 15.2812 10.875C15.375 10.875 15.5625 10.9688 15.6563 10.9688C15.5625 11.625 15.4688 11.8125 15 11.9063L13.875 12.0938C13.3125 12.1875 13.125 12.0938 13.2188 11.7188L13.3125 10.4063L13.7812 10.3125C13.7812 10.3125 13.7813 10.4063 13.6875 10.4063V11.0625L15.1875 10.2188L15.5625 10.4063L15.4688 10.5L13.7812 11.4375V11.7188C13.7812 11.9063 13.7813 11.9063 14.1563 11.8125L14.9062 11.5313ZM14.8125 13.6875C15.0938 13.6875 15.0938 13.5938 15.1875 13.0312C15.2813 13.125 15.4688 13.125 15.5625 13.125C15.4688 13.7813 15.375 13.9688 14.9062 14.0625L13.7812 14.25C13.2188 14.3438 13.0312 14.25 13.125 13.875L13.2188 12.4688L13.6875 12.375C13.6875 12.375 13.6875 12.4688 13.5938 12.4688V13.125L15.0938 12.2813L15.4688 12.4688H15.2812C14.8125 12.75 14.1562 13.0313 13.5 13.3125V13.6875C13.5 13.875 13.5 13.875 13.875 13.7813L14.8125 13.6875ZM15.0938 15.5625C14.9063 15.2813 14.4375 14.9062 13.9688 14.7188L14.3438 14.4375C14.8125 14.625 15.2812 14.9062 15.4688 15.2812L15.0938 15.5625Z" fill="#4C6980" stroke="#4C6980" stroke-width="0.216375" stroke-miterlimit="10"/>
<path d="M7.5 5.53125L7.3125 6.84375L15.8437 6.5625L16.0312 5.25L7.5 5.53125Z" fill="#4C6980"/>
<path d="M17.3435 7.59375C17.3435 7.59375 16.6873 7.03125 17.2498 5.90625L17.9998 6.1875L17.3435 7.59375ZM20.906 5.15625C20.906 5.15625 20.6248 6.375 21.656 6.75C22.781 7.125 22.406 8.53125 22.1248 9.75C22.1248 9.75 25.5935 6.9375 22.781 4.5C22.6873 4.5 20.906 4.875 20.906 5.15625Z" fill="#993A6E"/>
<path d="M17.2498 6.65628C17.2498 6.65628 16.8748 10.0313 18.4686 10.7813C20.2498 11.5313 22.3123 11.0625 23.4373 6.46878C23.4373 6.46878 23.0623 4.59378 20.7186 4.96878C18.6561 5.25003 17.2498 6.37503 17.2498 6.65628Z" fill="#BC7458"/>
<path d="M17.3438 6.75011C17.3438 6.75011 17.0625 9.93761 18.4688 10.5939C20.0625 11.2501 22.0313 10.8751 22.9688 6.56261C22.9688 6.56261 22.5938 4.78136 20.5313 5.15636C18.6563 5.43761 17.3438 6.46886 17.3438 6.75011Z" fill="#E5A98C"/>
<path d="M17.4374 6.93758C17.4374 6.93758 17.1562 9.84383 18.4687 10.3126C19.9687 10.9688 21.7499 10.5001 22.5937 6.75008C22.5937 6.75008 22.3124 5.15633 20.3437 5.43758C18.6562 5.71883 17.4374 6.56258 17.4374 6.93758Z" fill="#E8CCAA"/>
<path d="M17.4377 7.03137C17.4377 7.03137 17.1565 9.75012 18.3752 10.2189C19.7815 10.7814 21.3752 10.4064 22.1252 6.84387C22.1252 6.84387 21.844 5.43762 20.0627 5.62512C18.5627 5.90637 17.4377 6.84387 17.4377 7.03137Z" fill="#FAEACF"/>
<path d="M17.25 6.74997C17.25 6.74997 17.5313 7.31247 18.4688 7.03122C19.4063 6.74997 22.0313 4.68747 22.0313 4.68747C22.0313 4.68747 20.9063 3.93747 18.9375 4.87497C17.9063 5.34372 17.3438 6.46872 17.25 6.74997Z" fill="#993A6E"/>
<path d="M18.8438 5.53125C18.5625 5.71875 18.1875 6.46875 17.9063 6.75C17.625 7.03125 17.1562 6.9375 17.1562 6.5625C17.1562 6.1875 16.875 5.53125 17.4375 4.40625C17.4375 4.40625 18.375 4.03125 19.0312 4.78125C19.125 4.96875 19.0313 5.34375 18.8438 5.53125ZM21.5625 5.25C21.8438 5.34375 22.3125 5.625 22.6875 5.8125C23.0625 6.09375 23.625 5.71875 23.7187 5.25C23.7187 4.78125 23.7187 4.125 23.3437 3.28125C23.3437 3.28125 22.125 3.375 21.4687 4.5C21.1875 4.875 21.2812 5.15625 21.5625 5.25Z" fill="#D8649E"/>
<path d="M17.3438 6.93759C17.3438 6.93759 17.625 7.50009 18.5625 7.21884C19.5 6.93759 22.125 4.87509 22.125 4.87509C22.125 4.87509 21 4.12509 19.0312 5.06259C18 5.43759 17.4375 6.65634 17.3438 6.93759Z" fill="#D8649E"/>
<path d="M20.6249 5.0625C20.6249 5.0625 20.3436 6.28125 21.3749 6.65625C22.4999 7.03125 22.4061 8.25 22.1249 9.46875C22.1249 9.46875 24.8436 6.46875 22.4061 4.3125C22.4999 4.40625 20.6249 4.875 20.6249 5.0625Z" fill="#D8649E"/>
<path d="M21.7502 5.15625C22.0314 5.25 22.3127 5.4375 22.5939 5.625C22.8752 5.8125 23.3439 5.53125 23.3439 5.25C23.3439 4.875 23.3439 4.40625 23.0627 3.84375C23.0627 3.84375 22.2189 3.9375 21.6564 4.78125C21.4689 4.875 21.5627 5.0625 21.7502 5.15625Z" fill="#FFD4F7"/>
<path d="M21.8438 5.25C22.0313 5.34375 22.2188 5.4375 22.4063 5.625C22.5938 5.71875 22.8751 5.625 22.8751 5.34375C22.8751 5.0625 22.8751 4.6875 22.6876 4.3125C22.6876 4.3125 22.0313 4.40625 21.7501 4.96875C21.6563 5.0625 21.6563 5.15625 21.8438 5.25Z" fill="#BF6A93"/>
<path d="M18.6562 5.4375C18.4687 5.625 18.1875 5.8125 18 6.09375C17.8125 6.28125 17.4375 6.28125 17.4375 6C17.4375 5.71875 17.4375 5.25 17.625 4.6875C17.625 4.6875 18.2812 4.40625 18.75 4.96875C18.8437 5.0625 18.8437 5.34375 18.6562 5.4375Z" fill="#FFD4F7"/>
<path d="M18.6562 5.53125C18.4687 5.625 18.2812 5.8125 18.1875 6C18 6.1875 17.8125 6.09375 17.8125 5.90625C17.8125 5.71875 17.8125 5.34375 18 4.875C18 4.875 18.4688 4.6875 18.8438 5.0625C18.75 5.25 18.75 5.4375 18.6562 5.53125Z" fill="#BF6A93"/>
<path d="M18 6.65625C18.1875 6.65625 18.2813 6.5625 18.5625 6.5625C18.9375 6.5625 19.2188 6.75 19.2188 7.125C19.2188 7.3125 19.125 7.5 19.125 7.6875C19.0313 7.96875 18.75 8.15625 18.4688 8.25C18.0938 8.25 17.8125 8.15625 17.8125 7.875C17.8125 7.6875 17.7188 7.5 17.8125 7.3125C17.625 7.03125 17.8125 6.84375 18 6.65625Z" fill="#3C505B"/>
<path d="M18.0939 6.84375C18.1877 6.75 18.3752 6.75 18.5627 6.65625C18.9377 6.65625 19.2189 6.9375 19.1252 7.3125C19.1252 7.5 19.0314 7.78125 19.0314 7.96875C18.9377 8.25 18.6564 8.53125 18.3752 8.53125C18.0939 8.53125 17.8127 8.34375 17.7189 8.0625C17.7189 7.875 17.6252 7.6875 17.7189 7.40625C17.6252 7.21875 17.8127 7.03125 18.0939 6.84375Z" fill="white"/>
<path d="M18.9375 7.40621C18.8438 7.03121 18.5625 6.84371 18.375 6.93746C18.0937 7.03121 17.9062 7.49996 17.9062 7.96871C17.9062 8.43746 18.2812 8.71872 18.5625 8.53122C18.8437 8.34372 19.0313 7.78121 18.9375 7.40621Z" fill="#D8649E"/>
<path d="M18.8437 7.3125C18.75 7.03125 18.5625 6.9375 18.375 7.03125C18.1875 7.125 18 7.5 18 7.78125C18 8.15625 18.2812 8.34375 18.5625 8.15625C18.75 8.0625 18.9375 7.59375 18.8437 7.3125Z" fill="#3C505B"/>
<path d="M18.5625 7.50001C18.5625 7.40626 18.375 7.31251 18.2813 7.40626C18.1875 7.40626 18.0938 7.59376 18.0938 7.78126C18.0938 7.96876 18.2813 7.96876 18.375 7.96876C18.4688 7.78126 18.5625 7.59376 18.5625 7.50001Z" fill="white"/>
<path d="M21.4688 6.5625C21.375 6.46875 21.1875 6.46875 20.9062 6.46875C20.4375 6.46875 20.0625 6.84375 20.0625 7.125V7.6875C20.0625 7.96875 20.3438 8.15625 20.625 8.25C21 8.25 21.375 8.0625 21.4688 7.78125C21.5625 7.59375 21.6563 7.40625 21.6563 7.125C21.9375 6.9375 21.75 6.65625 21.4688 6.5625Z" fill="#3C505B"/>
<path d="M21.4687 6.75C21.375 6.65625 21.1875 6.65625 21 6.65625C20.625 6.65625 20.25 7.03125 20.1562 7.40625V8.0625C20.1562 8.34375 20.4375 8.625 20.7188 8.625C21.0938 8.625 21.4688 8.4375 21.5625 8.0625C21.6562 7.875 21.75 7.59375 21.75 7.3125C21.8438 7.125 21.6562 6.9375 21.4687 6.75Z" fill="white"/>
<path d="M20.2502 7.5001C20.4377 7.1251 20.7189 6.84385 21.0002 6.9376C21.2814 7.03135 21.4689 7.5001 21.2814 8.0626C21.0939 8.6251 20.7189 8.90635 20.3439 8.71885C20.1564 8.4376 20.0627 7.8751 20.2502 7.5001Z" fill="#D8649E"/>
<path d="M20.4377 7.40622C20.5314 7.12497 20.8127 6.93747 21.0002 7.03122C21.1877 7.12497 21.3752 7.49997 21.1877 7.78122C21.0939 8.15622 20.7189 8.43747 20.5314 8.24997C20.3439 8.06247 20.2502 7.68747 20.4377 7.40622Z" fill="#3C505B"/>
<path d="M20.7189 7.5C20.8127 7.40625 20.9064 7.3125 21.0002 7.3125C21.0939 7.3125 21.1877 7.5 21.0939 7.6875C21.0002 7.875 20.8127 7.96875 20.7189 7.875C20.7189 7.78125 20.6252 7.59375 20.7189 7.5Z" fill="white"/>
<path d="M18.1875 6.28125C18.1875 6.28125 19.4062 4.6875 20.5312 5.0625C20.5312 5.0625 20.7188 5.53125 20.0625 5.8125C19.4062 6.1875 18.1875 6.28125 18.1875 6.28125ZM21.4688 5.53125C21.4688 5.53125 22.5938 5.71875 22.875 6.09375C23.1562 6.46875 23.1562 7.03125 22.875 7.6875C22.875 7.6875 22.7813 7.21875 22.5938 6.84375C22.4063 6.46875 21.9375 5.625 21.4688 5.53125Z" fill="#EA7DB8"/>
<path d="M24 9.65625C24 8.4375 22.9688 8.4375 22.9688 8.4375C22.9688 8.4375 22.3125 8.4375 21.8438 8.90625C21.4688 8.4375 20.9063 8.4375 20.9063 8.4375C20.9063 8.4375 19.7813 8.34375 19.5 9.65625C19.125 11.1563 21.4688 12.2812 21.6563 12.375C21.75 12.2812 24 11.0625 24 9.65625Z" fill="#362222"/>
<path d="M24 9.46875C24 8.34375 22.9688 8.34375 22.9688 8.34375C22.9688 8.34375 22.3125 8.25 21.8438 8.71875C21.4688 8.25 20.8125 8.25 20.8125 8.25C20.8125 8.25 19.6875 8.15625 19.4063 9.46875C19.0313 10.9688 21.375 12 21.5625 12.0937C21.6563 12 24 10.875 24 9.46875Z" fill="#960F62"/>
<path d="M23.7187 9.46875C23.7187 8.90625 23.5312 8.71875 23.25 8.53125C23.0625 8.4375 22.7812 8.4375 22.5 8.53125C22.3125 8.625 22.0312 8.71875 21.75 9C21.5625 8.8125 21.2812 8.625 21.0937 8.53125C20.8125 8.4375 20.4375 8.4375 20.1562 8.53125C19.875 8.625 19.5937 8.90625 19.5 9.46875C19.2187 10.6875 21.2812 11.625 21.375 11.7187C21.6562 11.625 23.7187 10.5938 23.7187 9.46875Z" fill="#DD82D4"/>
<path d="M23.0626 9.46875C23.0626 9.09375 22.8751 8.90625 22.6876 8.8125C22.5001 8.71875 22.3126 8.71875 22.1251 8.8125C21.9376 8.90625 21.7501 9 21.5626 9.1875C21.4688 9 21.2813 8.90625 21.0938 8.90625C20.9063 8.8125 20.6251 8.8125 20.3438 8.90625C20.1563 9 19.9688 9.1875 19.8751 9.5625C19.6876 10.5 21.1876 11.1562 21.2813 11.1562C21.4688 11.0625 22.9688 10.3125 23.0626 9.46875Z" fill="#F9B6EA"/>
<path d="M22.6874 10.5C22.4999 10.5937 22.2187 10.5937 22.1249 10.5C22.0312 10.4062 21.8437 10.2187 21.8437 10.0312C21.7499 9.46873 22.3124 8.34373 23.1562 8.81248C24.0937 9.28123 23.1562 10.3125 22.6874 10.5Z" fill="#FFB3B3"/>
<path d="M21.2812 12C21.2812 12 23.1562 11.3437 23.9062 9.84375C23.9062 9.84375 23.7187 10.9687 21.5625 12.0937L21.2812 12Z" fill="#DD82D4"/>
<path d="M22.9688 9.28127H22.875L22.7812 9.18752C22.7812 9.09377 22.875 8.71877 23.0625 8.90627C23.3438 9.00002 23.1563 9.28127 22.9688 9.28127Z" fill="white"/>
<path d="M20.9065 9.28125C20.9065 9.375 20.8127 9.46875 20.719 9.46875C20.6252 9.5625 20.5315 9.5625 20.4377 9.5625C20.1565 9.5625 19.7815 9.28125 20.2502 8.90625C20.8127 8.625 21.0002 9 20.9065 9.28125Z" fill="#FFB3B3"/>
<path opacity="0.28" d="M19.5938 10.5C19.5938 10.5 21.6562 12.5625 23.8125 10.3125C23.8125 10.3125 22.875 11.4375 21.6563 12.1875C21.6563 12.2812 19.7812 11.625 19.5938 10.5Z" fill="#362222"/>
</g>
<defs>
<clipPath id="clip0_1_7510">
<rect width="30" height="30" fill="white"/>
</clipPath>
</defs>
</svg>
