<svg width="30" height="30" viewBox="0 0 30 30" fill="none" xmlns="http://www.w3.org/2000/svg">
<g clip-path="url(#clip0_1_18708)">
<path d="M7.96875 11.625C7.96875 11.625 7.40625 11.5312 6.9375 11.1562C6.5625 10.7812 6.09375 10.875 6.09375 10.875C6 10.875 5.90625 10.7812 5.71875 10.6875C5.625 10.5938 5.4375 10.5938 5.34375 10.6875C5.34375 10.7812 5.53125 11.1562 5.53125 11.1562V11.625C5.53125 11.8125 5.53125 12.1875 6 12.375C6.46875 12.4688 6.75 12.4688 6.9375 12.375C7.125 12.0938 7.96875 11.625 7.96875 11.625Z" fill="#BC4D3F"/>
<path d="M3.9373 20.4376C2.71855 19.5939 2.2498 18.4689 2.90605 16.7814C3.09355 16.2189 4.8748 14.0626 5.15605 13.7814C6.1873 12.9376 10.4998 10.7814 14.2498 13.8751C14.9061 14.4376 14.9998 17.1564 15.1873 18.1876V18.2814C15.6561 21.0001 14.8123 23.1564 12.5623 22.9689C10.1248 22.7814 6.09355 21.8439 3.9373 20.4376Z" fill="#2E561D"/>
<path d="M16.1248 4.68754C15.2811 2.81254 13.1248 0.656289 10.4998 0.281289C9.56234 3.90522e-05 8.43734 -0.187461 7.03109 0.187539C-0.187656 2.06254 2.90609 10.5 2.90609 10.5C3.74984 9.18754 5.53109 4.68754 8.71859 5.06254C10.0311 5.15629 11.0623 4.78129 11.7186 4.31254C12.5623 5.43754 13.6873 7.78129 13.5936 11.4375C13.5936 11.4375 13.7811 12.9375 15.8436 13.0313C15.8436 13.0313 15.6561 11.9063 16.0311 11.25C16.2186 10.5 16.9686 6.75004 16.1248 4.68754Z" fill="#8E4028"/>
<path d="M6.9375 12.5623C6.9375 14.1561 5.8125 15.4686 4.40625 15.3748C3 15.2811 1.78125 13.9686 1.78125 12.3748C1.78125 10.7811 2.90625 9.4686 4.3125 9.56235C5.71875 9.56235 6.9375 10.9686 6.9375 12.5623Z" fill="#8E4028"/>
<path d="M7.03125 12.6562C7.03125 14.1562 6 15.2813 4.6875 15.1875C3.375 15.0938 2.25 13.875 2.25 12.4687C2.25 11.0625 3.28125 9.9375 4.59375 9.9375C5.90625 9.9375 7.03125 11.1562 7.03125 12.6562Z" fill="#FFEFAB"/>
<path d="M4.4062 20.0629C3.2812 19.4067 2.62495 18.5629 3.2812 17.0629C3.4687 16.5942 5.24995 14.3442 5.5312 14.1567C6.56245 13.4067 10.3125 13.2192 13.9687 15.9379C14.625 16.4067 15.1875 17.2504 15.375 18.1879V18.2817C15.8437 20.7192 15.0937 22.5942 12.8437 22.4067C10.4062 22.1254 6.4687 21.2817 4.4062 20.0629Z" fill="#71AF5D"/>
<path d="M4.49997 18.6558C3.37497 18.0933 3.74997 16.8745 4.31247 15.6558C4.49997 15.187 4.96872 14.812 5.24997 14.6245C6.18747 13.9683 10.2187 13.5933 13.5937 15.8433C14.25 16.312 14.7187 16.9683 14.9062 17.7183V17.812C15.375 19.7808 13.7812 21.4683 12 21.0933C9.74997 20.6245 6.37497 19.687 4.49997 18.6558Z" fill="#E8A554"/>
<path d="M4.4062 18.6567C3.4687 18.0942 4.4062 17.5317 4.9687 16.3129C5.06245 15.9379 5.99995 15.0004 6.2812 14.8129C7.12495 14.1567 9.2812 13.5942 12.1875 15.8442C12.75 16.2192 13.125 16.8754 13.3125 17.7192V17.8129C13.6875 19.7817 12.6562 21.2817 11.1562 20.9067C9.0937 20.3442 5.99995 19.6879 4.4062 18.6567Z" fill="#FFD097"/>
<path d="M6.09375 12.9375C6.09375 12.9375 5.34375 13.5 4.59375 14.9062L5.0625 15.4687L4.96875 15.5625C4.96875 15.5625 6.28125 14.4375 7.21875 13.9687L6.09375 12.9375Z" fill="#71AF5D"/>
<path d="M4.40636 15.75C4.40636 15.75 5.06261 17.9063 15.1876 18.375L14.2501 20.8125C14.2501 20.8125 11.6251 21.0938 8.06261 20.0625C4.68761 19.0313 3.37511 18.75 4.40636 15.75Z" fill="#71AF5D"/>
<path d="M3.7499 16.5934C3.84365 16.4059 4.03115 16.3122 4.21865 16.4059C4.96865 16.9684 6.9374 17.9997 11.0624 18.6559C12.0937 18.8434 13.3124 18.8434 15.0937 18.5622C15.0937 18.5622 15.1874 18.9372 15.0937 19.4059C14.9062 20.5309 13.7812 21.3747 12.5624 21.2809C11.1562 21.1872 9.84365 21.0934 7.8749 20.4372C4.8749 19.5934 3.09365 19.1247 3.7499 16.5934Z" fill="#A0E58C"/>
<path d="M14.9999 5.81255C14.9999 9.6563 12.1874 14.5313 8.62486 14.1563C5.34361 13.7813 2.99986 11.5313 2.71861 8.25005C2.43736 4.7813 4.78111 1.68755 8.43736 1.50005C12.2811 1.31255 14.9999 1.7813 14.9999 5.81255Z" fill="#8E4028"/>
<path d="M14.8124 6.18732C14.8124 9.93732 11.4374 13.8748 7.96864 13.4998C4.78114 13.2186 2.99989 10.9686 2.71864 7.78107C2.43739 4.40607 4.78114 1.40607 8.24989 1.21857C12.0936 1.03107 14.8124 2.24982 14.8124 6.18732Z" fill="#E8A554"/>
<path d="M11.7186 8.71875C11.8123 11.25 9.93733 13.0312 7.59358 12.8438C5.43733 12.6562 3.65608 10.6875 3.46858 8.4375C3.28108 6.09375 4.87483 4.125 7.12483 4.03125C9.56233 4.03125 11.6248 6.09375 11.7186 8.71875Z" fill="#FFD097"/>
<path d="M3.28125 6.84375C3.28125 6.84375 3.46875 5.8125 5.53125 5.90625C7.6875 5.90625 10.6875 6.28125 12 4.78125L11.5312 4.3125C11.5312 4.3125 10.2188 5.0625 8.0625 5.0625C6 5.0625 3.28125 5.53125 3.1875 5.8125C3 6 3.28125 6.84375 3.28125 6.84375Z" fill="#E8A554"/>
<path d="M9.84375 8.34375C9.84375 8.8125 9.5625 9.09375 9.1875 9.09375C8.8125 9.09375 8.53125 8.71875 8.53125 8.34375C8.53125 7.875 8.8125 7.59375 9.1875 7.59375C9.5625 7.59375 9.84375 7.96875 9.84375 8.34375ZM5.0625 7.875C5.0625 8.25 4.78125 8.625 4.5 8.625C4.21875 8.625 3.9375 8.25 3.9375 7.875C3.9375 7.5 4.21875 7.125 4.5 7.125C4.78125 7.125 5.0625 7.5 5.0625 7.875Z" fill="#8E4028"/>
<path d="M4.78125 7.59375C4.78125 7.6875 4.6875 7.78125 4.59375 7.78125C4.5 7.78125 4.40625 7.6875 4.40625 7.59375C4.40625 7.5 4.5 7.40625 4.59375 7.40625C4.6875 7.40625 4.78125 7.5 4.78125 7.59375Z" fill="white"/>
<path d="M6.9375 17.4375C6.9375 17.4375 7.21875 16.7812 7.78125 16.4062C7.78125 16.4062 7.5 17.0625 7.5 17.5313L6.9375 17.4375Z" fill="#8E4028"/>
<path d="M6 20.0625C6 20.0625 6.75 19.9688 7.21875 19.4062C7.21875 19.4062 7.40625 20.4375 8.15625 20.7187C8.0625 20.7187 6.1875 20.1562 6 20.0625Z" fill="#71AF5D"/>
<path d="M8.15625 13.875L9.375 14.3437L11.8125 14.8125L11.9062 12.75C11.9062 12.75 9 13.7812 8.15625 13.875Z" fill="#8E4028"/>
<path d="M5.15625 17.3438C5.15625 17.3438 4.6875 16.7813 5.0625 16.0313C5.34375 15.375 6.5625 14.25 6.5625 14.25L5.34375 14.4375C5.34375 14.4375 3.84375 15.1875 3.65625 16.5938L5.15625 17.3438Z" fill="#A0E58C"/>
<path d="M4.21875 17.9997C4.21875 17.9997 4.125 18.4684 4.3125 19.0309H3.5625C3.5625 19.0309 3.5625 18.4684 3.84375 17.8122C3.9375 17.7184 4.21875 17.8122 4.21875 17.9997Z" fill="#71AF5D"/>
<path d="M7.87484 18.9375C7.87484 18.9375 10.4998 18.5625 11.7186 19.5C11.7186 19.5 12.0936 20.0625 11.7186 20.1562C11.4373 20.25 9.09359 19.0312 7.87484 19.3125C7.87484 19.3125 7.68734 19.0313 7.87484 18.9375ZM4.40609 17.4375C4.40609 17.4375 6.28109 17.625 7.03109 18.375C7.03109 18.375 7.12484 18.8438 6.93734 18.8438C6.74984 18.8438 5.24984 17.7187 4.40609 17.7187C4.40609 17.7187 4.21859 17.5312 4.40609 17.4375Z" fill="#E0F9D7"/>
<path d="M13.875 3.09376C13.875 3.09376 12.75 5.62501 9.375 5.34376C6 5.06251 3.75 5.53126 2.8125 6.84376C2.8125 6.84376 2.8125 1.40626 7.59375 0.656256C12.4688 -0.0937436 13.875 2.34376 13.875 3.09376Z" fill="#FFEFAB"/>
<path d="M4.3125 10.6875C4.3125 10.6875 5.25 12.4687 5.625 12.6562C6 12.8438 8.90625 12.8437 9.5625 12.5625C10.2188 12.2812 9.9375 10.5938 9.9375 10.5938L4.3125 10.6875Z" fill="#FFD097"/>
<path d="M8.15613 11.625C8.15613 11.625 7.59363 11.5312 7.21863 11.25C6.84363 10.9687 6.37488 11.0625 6.37488 11.0625C6.28113 11.0625 6.18738 10.9688 6.09363 10.875C5.99988 10.7813 5.81238 10.7813 5.71863 10.875C5.62488 10.9688 5.81238 11.25 5.81238 11.25V11.625C5.81238 11.8125 5.81238 12.0937 6.28113 12.1875C6.74988 12.2812 7.03113 12.1875 7.21863 12.0937L8.15613 11.625Z" fill="#B23D3D"/>
<path d="M19.0312 8.4375C19.0312 9.84375 17.9062 10.875 16.4063 10.875C15 10.7812 13.875 9.65625 13.7812 8.34375C13.7812 6.9375 14.9062 5.90625 16.3125 5.90625C17.9062 5.90625 19.0312 7.03125 19.0312 8.4375Z" fill="#E8A554"/>
<path d="M19.0312 9C19.0312 10.4062 17.9062 11.4375 16.4063 11.4375C15 11.3437 13.875 10.2187 13.7812 8.90625C13.7812 7.5 14.9062 6.46875 16.3125 6.46875C17.8125 6.46875 19.0312 7.59375 19.0312 9Z" fill="#E8A554"/>
<path d="M20.5312 13.9692C20.5312 16.3129 18.6562 18.1879 16.5 18.0004C14.25 17.9067 12.4688 15.9379 12.4688 13.5942C12.4688 11.2504 14.25 9.37544 16.4062 9.46919C18.75 9.56294 20.5312 11.5317 20.5312 13.9692Z" fill="#E8A554"/>
<path d="M20.1562 13.7812C20.1562 15.9375 18.2813 17.625 16.125 17.4375C13.875 17.3438 12.1875 15.4688 12.0938 13.4062C12.0938 11.25 13.875 9.65625 16.0313 9.65625C18.375 9.75 20.1562 11.625 20.1562 13.7812Z" fill="#FFEFAB"/>
<path d="M18.5625 8.4375C18.5625 9.84375 17.4375 10.875 15.9375 10.875C14.5312 10.7812 13.4062 9.65625 13.4062 8.34375C13.4062 6.9375 14.5312 5.90625 15.9375 5.90625C17.3437 5.90625 18.5625 7.03125 18.5625 8.4375Z" fill="#FFEFAB"/>
<path d="M11.4375 14.1563C11.4375 14.1563 12.1875 16.5 10.4062 17.25C10.4062 17.25 14.8125 18 16.0312 17.3438C16.0312 17.3438 16.4062 14.9062 12.8437 13.5938L11.4375 14.1563Z" fill="#71AF5D"/>
<path d="M9.46875 8.0625C9.46875 8.15625 9.375 8.25 9.28125 8.25C9.1875 8.25 9.09375 8.15625 9.09375 8.0625C9.09375 7.96875 9.1875 7.875 9.28125 7.875C9.375 7.875 9.46875 7.96875 9.46875 8.0625Z" fill="white"/>
<path d="M9.375 17.8129C9.375 17.8129 12.9375 18.1879 12.4688 14.6254C12.4688 14.6254 13.5 14.0629 14.25 14.8129C15.0938 15.5629 16.3125 16.3129 15.8437 18.4691C15.8437 18.5629 9.84375 19.0316 9.375 17.8129Z" fill="#A0E58C"/>
<path d="M12.5625 19.6875C12.5625 19.6875 12.75 20.4375 12.5625 21.1875L13.6875 21.2813C13.6875 21.2813 13.4062 19.7813 12.375 18.375L12.5625 19.6875Z" fill="#71AF5D"/>
<path d="M13.5938 8.4374C13.5938 8.4374 14.4375 7.96865 14.8125 8.34365C15.4688 8.9999 14.9063 10.0312 13.6875 10.1249L13.5938 8.4374Z" fill="#E8BD89"/>
<path d="M14.1561 10.0312C14.1561 10.0312 13.9686 11.7188 15.0936 12.4688C15.0936 12.4688 14.5311 12.5625 14.0623 12C13.5936 11.4375 13.6873 10.125 13.6873 10.125L14.1561 10.0312Z" fill="#E8A554"/>
<path d="M5.53125 1.96834C5.53125 1.96834 8.4375 0.374594 10.875 1.49959C10.875 1.49959 11.625 2.53084 9.75 2.71834C7.96875 2.90584 7.96875 1.78084 5.53125 1.96834ZM17.7188 11.4371C17.7188 11.4371 18.9375 13.7808 16.9688 15.2808C16.6875 15.4683 16.6875 15.8433 16.7812 16.1246C17.0625 16.5933 17.625 16.5933 17.9063 16.3121C18.8438 15.2808 19.9688 13.3121 17.7188 11.4371Z" fill="white"/>
<path d="M16.4062 6.65625C16.4062 6.65625 17.5312 8.0625 16.7812 9.28125C16.7812 9.28125 16.7812 9.84375 17.1562 9.84375C17.5312 9.84375 18 9.65625 17.9063 9.1875C17.8125 8.71875 17.9062 6.9375 16.4062 6.65625Z" fill="white"/>
<path d="M24.6563 15.6564C26.3438 16.2189 27.8438 17.7189 28.4063 19.7814C28.9688 21.9377 28.2188 24.4689 26.625 25.6877C25.5938 26.4377 24.375 26.7189 23.1563 26.7189C20.3438 26.7189 17.4375 25.6877 14.625 24.6564C13.6875 24.2814 12.75 24.0002 11.9063 23.3439C11.0625 22.6877 10.4063 21.6564 10.2188 20.5314C10.0313 18.8439 10.9688 17.2502 12.1875 16.4064C14.25 15.0002 16.4063 14.3439 18.6563 14.4377C20.5313 14.3439 22.875 15.0002 24.6563 15.6564Z" fill="#3B0909"/>
<path d="M25.125 17.0627C26.9062 17.6252 28.5937 19.1252 29.0625 21.1877C29.625 23.3439 28.875 25.8752 27.1875 27.0939C26.1562 27.8439 24.8437 28.1252 23.5312 28.1252C20.5312 28.1252 17.5312 27.0939 14.4375 26.0627C13.4062 25.6877 12.375 25.4064 11.5312 24.7502C10.5937 24.0939 9.93746 23.0627 9.74996 21.9377C9.56246 20.2502 10.5 18.6564 11.8125 17.8127C14.0625 16.4064 16.3125 15.7502 18.6562 15.8439C20.7187 15.7502 23.1562 16.4064 25.125 17.0627Z" fill="#3B0909"/>
<path d="M24.6563 16.3125C26.3438 16.875 27.8438 18.375 28.4063 20.4375C28.9688 22.5937 28.2188 25.125 26.625 26.3437C25.5938 27.0937 24.375 27.375 23.1563 27.375C20.3438 27.375 17.4375 26.3437 14.625 25.3125C13.6875 24.9375 12.75 24.6562 11.9063 24C11.0625 23.3437 10.4063 22.3125 10.2188 21.1875C10.0313 19.5 10.9688 17.9062 12.1875 17.0625C14.25 15.6562 16.4063 15 18.6563 15.0937C20.5313 14.9062 22.875 15.6562 24.6563 16.3125Z" fill="#B23D3D"/>
<path d="M16.7812 25.875L18.8438 18.9375L20.0625 17.8125L21 18.0937L18.5625 26.3438C18.6562 26.4375 17.25 26.25 16.7812 25.875Z" fill="#C68383"/>
<path opacity="0.1" d="M25.4993 23.4237C25.9625 21.9955 25.3 20.501 24.0195 20.0857C22.739 19.6704 21.3254 20.4915 20.8622 21.9198C20.399 23.348 21.0615 24.8425 22.342 25.2578C23.6225 25.6731 25.0361 24.852 25.4993 23.4237Z" fill="white"/>
<path d="M26.3438 16.6875C26.3438 16.6875 29.4376 19.125 28.4063 23.1563L29.2501 22.9688C29.2501 22.9688 29.6251 18.75 26.3438 16.6875ZM11.9063 17.0625C11.9063 17.0625 9.84384 19.4063 10.5938 22.6875L9.84384 22.3125C9.84384 22.3125 9.56259 19.0313 11.3438 17.1563L11.9063 17.0625ZM11.8126 24.6563L12.4688 24.2813L17.8126 26.4375L17.3438 26.9063C17.4376 26.8125 12.5626 25.2188 11.8126 24.6563Z" fill="#3B0909"/>
<path d="M24.2812 16.0309C24.1875 15.9372 23.3437 17.0622 23.3437 17.0622C23.3437 17.0622 26.25 18.2809 26.7187 19.3122C27.1875 20.3434 26.25 25.1247 25.7812 25.7809C25.3125 26.3434 23.9062 27.2809 23.1562 27.3747C23.1562 27.3747 27.0937 27.8434 28.0312 24.7497C28.9687 21.6559 28.7812 18.0934 24.2812 16.0309Z" fill="#932F2F"/>
<path d="M27.1873 9.84375C27.1873 14.4375 23.6248 18.0938 19.0311 18C14.4373 17.9063 10.7811 14.25 10.8748 9.75C10.8748 5.15625 14.6248 1.5 19.1248 1.5C23.7186 1.59375 27.2811 5.34375 27.1873 9.84375Z" fill="#4A3531"/>
<path d="M26.9998 9.28125C26.9998 13.875 23.4373 17.5313 18.8435 17.4375C14.3435 17.4375 10.5935 13.6875 10.6873 9.1875C10.6873 4.59375 14.4373 0.9375 18.9373 0.9375C23.4373 1.03125 26.9998 4.6875 26.9998 9.28125Z" fill="#7A594F"/>
<path d="M27.0031 8.99028C27.0189 4.64104 23.5899 1.10281 19.3442 1.08743C15.0985 1.07204 11.6439 4.58533 11.6281 8.93457C11.6124 13.2838 15.0414 16.822 19.2871 16.8374C23.5328 16.8528 26.9874 13.3395 27.0031 8.99028Z" fill="#7A594F"/>
<path d="M23.2337 10.4503C23.2457 7.13662 20.6531 4.4409 17.4429 4.42926C14.2327 4.41763 11.6207 7.09449 11.6087 10.4082C11.5966 13.7219 14.1893 16.4176 17.3994 16.4293C20.6096 16.4409 23.2216 13.764 23.2337 10.4503Z" fill="#997567"/>
<path d="M17.7187 14.4375C17.7187 14.4375 17.0625 14.3437 16.5938 14.0625C16.125 13.7812 15.6563 13.875 15.5625 13.875C15.4688 13.875 15.375 13.7812 15.1875 13.6875C15 13.5938 14.8125 13.5938 14.8125 13.6875C14.8125 13.7812 15 14.0625 15 14.0625V14.4375C15 14.5312 15 14.9062 15.4687 15C15.9375 15.0937 16.3125 15 16.5 14.9062C16.7813 14.9062 17.7187 14.4375 17.7187 14.4375Z" fill="#362826"/>
<path d="M24.75 11.4375C24.75 11.4375 25.3125 16.125 19.5 16.9688C19.5 16.9688 23.8125 17.4375 26.4375 12.2813C26.4375 12.2813 27 11.3438 26.5312 10.125C26.5312 10.125 25.5 11.3437 24.75 11.4375Z" fill="#7A594F"/>
<path d="M17.9061 7.96923C17.9061 7.96923 18.2811 7.40673 18.8436 7.40673C19.4061 7.40673 21.2811 7.31298 21.5623 7.78173C21.8436 8.15673 21.1873 8.43798 21.1873 8.43798L17.9061 7.96923ZM15.1873 7.50048C15.1873 7.50048 15.2811 6.75048 14.9061 6.65673C14.5311 6.56298 13.0311 5.90673 12.5623 6.28173C12.0936 6.65673 12.1873 7.12548 12.1873 7.12548L15.1873 7.50048ZM25.2186 9.18798C25.2186 9.18798 26.4373 8.62548 26.8123 9.09423C27.2811 9.46923 27.7498 11.9067 25.7811 12.2817C23.8123 12.6567 25.2186 9.18798 25.2186 9.18798Z" fill="#362826"/>
<path d="M25.2185 9.09365C25.2185 9.09365 26.2498 8.6249 26.6248 8.9999C26.9998 9.3749 27.3748 11.3437 25.6873 11.7187C23.9998 12.0937 25.2185 9.09365 25.2185 9.09365Z" fill="#7A594F"/>
<path d="M20.5698 10.8941C20.5717 10.3763 20.2374 9.95539 19.8232 9.95389C19.409 9.95239 19.0717 10.3709 19.0698 10.8887C19.0679 11.4064 19.4022 11.8274 19.8164 11.8289C20.2306 11.8304 20.5679 11.4119 20.5698 10.8941Z" fill="#362826"/>
<path d="M14.3296 9.56598C14.3314 9.04822 13.9972 8.62727 13.583 8.62576C13.1688 8.62426 12.8314 9.04278 12.8296 9.56055C12.8277 10.0783 13.162 10.4993 13.5762 10.5008C13.9904 10.5023 14.3277 10.0837 14.3296 9.56598Z" fill="#362826"/>
<path d="M13.8453 9.16835C13.8458 9.01302 13.7623 8.8868 13.6588 8.88642C13.5552 8.88605 13.4708 9.01166 13.4703 9.16699C13.4697 9.32232 13.5532 9.44855 13.6567 9.44892C13.7603 9.4493 13.8447 9.32368 13.8453 9.16835Z" fill="white"/>
<path d="M20.0865 10.5453C20.087 10.39 20.0035 10.2637 19.9 10.2634C19.7964 10.263 19.712 10.3886 19.7115 10.5439C19.7109 10.6993 19.7944 10.8255 19.8979 10.8259C20.0015 10.8262 20.0859 10.7006 20.0865 10.5453Z" fill="white"/>
<path d="M13.2188 3.18743C13.2188 3.18743 17.9062 1.78118 22.9688 4.49993C22.9688 4.49993 24.2812 6.65618 24.75 10.0312L27.0937 8.71868C27.0937 8.71868 27.2812 3.09368 21.6562 1.31243C16.0312 -0.468822 13.2188 3.18743 13.2188 3.18743Z" fill="#362826"/>
<path d="M24.375 9L25.9688 8.34375L25.5937 7.59375L23.9062 8.15625L24.375 9ZM23.8125 7.3125L25.5 6.65625L25.125 5.90625L23.4375 6.46875L23.8125 7.3125Z" fill="#7A594F"/>
<path d="M13.125 12.9376C13.125 12.9376 16.4063 12.8438 19.3125 14.5313L19.5937 13.8751C19.5937 13.8751 16.875 12.2813 13.2188 12.5626L13.125 12.9376Z" fill="#4A3531"/>
<path d="M18.4688 13.875L17.4375 17.7187H18.6562L19.5 13.6875L18.4688 13.875ZM13.7812 12.75L13.5937 15.8437L12.75 15L12.9375 12.4688L13.7812 12.75Z" fill="#4A3531"/>
<path d="M18.6562 13.2188C18.6562 13.2188 19.5 13.7812 19.3125 15.0938L19.9687 14.25L20.0625 12.6562L18.6562 13.2188ZM12.75 13.3125C12.75 13.3125 13.125 12.4687 13.875 12.4687L12.9375 12.2812L12.75 13.3125Z" fill="#997567"/>
<path d="M13.2189 14.9062C13.2189 14.9062 14.0626 15.9375 15.0001 16.2187C15.9376 16.5 18.3751 16.3125 18.3751 16.3125C18.3751 16.3125 18.7501 17.4375 18.5626 17.5313C18.3751 17.625 15.0001 18.75 15.0001 18.75L12.9376 15.1875C12.6564 14.625 13.2189 14.9062 13.2189 14.9062Z" fill="#4A3531"/>
<path d="M15 18.75C15 18.75 18 18.4688 19.5 17.8125L19.2187 14.5312L18.1875 17.1562L15.75 17.8125L15 18.75Z" fill="#4A3531"/>
<path d="M13.5938 22.9688C13.5938 22.9688 14.8125 23.3437 15.1875 23.25C15.6563 23.1562 15.8437 23.3437 15.8437 23.3437L17.1562 24.0938H15.4688L15 25.0313V23.625L13.5938 22.9688Z" fill="#7A594F"/>
<path d="M9.65625 13.7812L11.3438 13.4062L11.1562 14.25L9.65625 13.7812Z" fill="#E8A554"/>
<path d="M3.5625 15.8437L5.71875 13.3125L6.09375 13.4063L3.09375 17.5313L3.5625 15.8437Z" fill="#2E561D"/>
<path d="M16.4062 27L16.0312 27.4688L17.9062 28.7813L28.3125 18.375L26.625 16.2188L16.4062 27Z" fill="#9A4C18"/>
<path d="M28.5939 21.2813C28.2189 25.4063 24.3752 28.9687 20.1564 28.875C15.9377 28.875 13.2189 25.3125 14.0627 21.2813C14.8127 17.5313 18.4689 14.5312 22.2189 14.5312C25.9689 14.5312 28.8752 17.4375 28.5939 21.2813Z" fill="#9A4C18"/>
<path d="M29.6253 22.5937C29.2503 26.5312 25.594 29.9062 21.3753 29.8125C17.2503 29.8125 14.6253 26.4375 15.3753 22.5937C16.1253 18.9375 19.6878 16.125 23.344 16.125C27.094 16.125 29.9065 18.9375 29.6253 22.5937Z" fill="#9A4C18"/>
<path d="M17.625 27.2812L19.4063 28.2188L27.9375 19.2187L26.5312 17.3438L17.625 27.2812Z" fill="#F49937"/>
<path d="M28.7813 22.6875C28.5 26.0625 25.3125 28.875 21.8438 28.875C18.375 28.875 16.2188 26.0625 16.7813 22.6875C17.3438 19.5938 20.3438 17.0625 23.5313 17.0625C26.7188 17.0625 29.0625 19.5 28.7813 22.6875Z" fill="#F49937"/>
<path d="M27.6563 21.2817C27.2813 24.8442 24 27.938 20.25 27.938C16.5938 27.938 14.1563 24.8442 14.9063 21.3755C15.5625 18.0005 18.75 15.4692 22.0313 15.3755C25.4063 15.2817 27.9375 17.9067 27.6563 21.2817Z" fill="#FFEDC0"/>
<path d="M27.1875 21.5625C26.9063 24.9375 23.7188 27.75 20.25 27.75C16.7813 27.75 14.625 24.9375 15.1875 21.5625C15.75 18.4688 18.75 15.9375 21.9375 15.9375C25.125 15.9375 27.4688 18.375 27.1875 21.5625Z" fill="#FFD766"/>
<path d="M25.8752 21.5629C25.594 24.1879 23.1565 26.3442 20.5315 26.3442C17.9065 26.3442 16.1252 24.1879 16.594 21.6567C17.0627 19.2192 19.4065 17.2504 21.844 17.2504C24.2815 17.1567 26.0627 19.0317 25.8752 21.5629Z" fill="#FFEDC0"/>
<path d="M25.8752 20.9062C25.594 23.4375 23.2502 25.5937 20.5315 25.5937C17.9065 25.5937 16.1252 23.4375 16.594 20.9062C17.0627 18.4687 19.3127 16.5938 21.844 16.5C24.3752 16.5 26.1565 18.4687 25.8752 20.9062Z" fill="#F49937"/>
<path d="M25.1248 21.5625C24.8436 23.7188 22.8748 25.5938 20.6248 25.5938C18.3748 25.5938 16.9686 23.8125 17.3436 21.6563C17.7186 19.5938 19.6873 17.9063 21.7498 17.9063C23.8123 17.8125 25.3123 19.4063 25.1248 21.5625Z" fill="#FFD766"/>
<path d="M22.3125 17.4375L22.875 19.7812L25.5 20.4375L23.0625 22.0312L22.9688 24.75L20.8125 23.25L18 24.1875L19.2188 21.6562L17.8125 19.5937L20.5312 19.5L22.3125 17.4375Z" fill="#F49937"/>
</g>
<defs>
<clipPath id="clip0_1_18708">
<rect width="30" height="30" fill="white"/>
</clipPath>
</defs>
</svg>
