<svg width="30" height="30" viewBox="0 0 30 30" fill="none" xmlns="http://www.w3.org/2000/svg">
<g clip-path="url(#clip0_1_16577)">
<path d="M13.3405 18.1125C13.6579 19.7619 13.7211 21.4502 13.528 23.1187C13.1811 25.6312 13.1999 25.4718 13.1999 25.4718C13.1999 25.4718 16.7155 24.8906 17.8874 23.5406C19.0593 22.1906 20.5499 17.3437 20.5499 17.3437L19.1249 15.7312L13.3405 18.1125Z" fill="#8E4028"/>
<path d="M28.9032 15.4686C28.5597 18.4696 27.0384 21.2112 24.6738 23.0906C22.3091 24.9701 19.2948 25.8333 16.2938 25.4905C10.0501 24.778 6.54382 19.1155 7.70632 12.928C8.64382 7.78114 13.9501 2.89676 20.1938 3.60926C26.4376 4.32176 29.6251 9.21551 28.9032 15.4686Z" fill="#8E4028"/>
<path d="M28.7908 15.1312C28.097 21.1312 21.6751 27.6843 15.8533 27.0187C10.0314 26.353 7.01263 18.7499 7.70638 12.7124C8.40013 6.67492 12.272 2.2218 19.5001 3.0468C22.3343 3.41799 24.9051 4.89947 26.6473 7.16555C28.3895 9.43163 29.1605 12.2968 28.7908 15.1312Z" fill="#8E4028"/>
<path d="M22.8638 15.9686C23.3664 11.5912 20.3337 7.64755 16.09 7.16029C11.8463 6.67303 7.99862 9.82664 7.496 14.2041C6.99339 18.5815 10.0261 22.5251 14.2698 23.0124C18.5135 23.4996 22.3612 20.346 22.8638 15.9686Z" fill="#8E4028"/>
<path d="M25.4998 14.1843C25.4998 14.1843 26.0342 17.4656 24.9467 18.7593C23.8592 20.0531 28.2186 20.6343 28.2186 20.6343C28.2186 20.6343 29.9717 17.1187 29.5967 15.1125C29.2217 13.1062 25.4998 14.1843 25.4998 14.1843Z" fill="#8E4028"/>
<path d="M21.3283 22.5657C22.8283 22.6595 19.7533 27.0938 18.0377 27.5813C16.1219 28.0639 14.1098 28.0055 12.2252 27.4126C10.9971 26.8407 8.4377 22.3126 8.01582 20.9157C7.56582 19.3032 7.34082 18.3657 7.34082 18.3657C7.34082 18.3657 7.67832 18.5907 8.52207 19.1063C9.9002 19.9501 13.1721 22.0876 21.3283 22.5657Z" fill="#8E4028"/>
<path d="M15.5908 18.8344C15.5908 18.8344 18.1033 18.0469 19.5564 18.8344C19.5564 18.8344 20.2502 19.5937 19.8471 19.8281C19.4439 20.0625 18.9096 20.4844 18.6283 20.0906C17.7681 19.3712 16.7079 18.9327 15.5908 18.8344Z" fill="#8E4028"/>
<path d="M9.90939 16.9876C9.90939 16.9876 9.34689 15.3094 8.16564 15.2063C8.16564 15.2063 7.32189 15.4407 7.34064 15.7782C7.35939 16.1157 7.27502 16.6407 7.69689 16.5094C8.46859 16.3707 9.26384 16.5426 9.90939 16.9876Z" fill="#8E4028"/>
<path d="M20.7657 22.6407L24.3751 21.1594L25.0032 22.9219C23.516 24.8129 21.4733 26.19 19.1626 26.8594L20.7657 22.6407Z" fill="#8E4028"/>
<path d="M12.6187 16.5657L14.6624 17.0063L14.9905 15.5438L12.6468 15.0845L12.6187 16.5657Z" fill="#8E4028"/>
<path d="M15.9375 13.7905C16.478 13.4401 17.0859 13.2066 17.722 13.1049C18.3581 13.0031 19.0084 13.0355 19.6313 13.1999C21.6375 13.7905 23.1937 15.5999 22.2469 15.9562C21.3 16.3124 20.8031 15.5343 20.3719 14.8312C19.9406 14.128 18.4406 13.4905 16.875 14.7187C16.875 14.7187 16.0406 14.4655 15.9375 13.7905Z" fill="#8E4028"/>
<path d="M23.8408 7.56573C19.2658 5.92511 12.4502 4.75323 8.84082 8.85011C10.5158 9.62352 12.2656 10.2235 14.0627 10.6407L15.3096 10.1439C19.3971 8.26886 23.7471 9.39386 26.3814 10.472C26.2044 9.82739 25.8839 9.23117 25.444 8.7279C25.004 8.22463 24.456 7.82734 23.8408 7.56573Z" fill="#8E4028"/>
<path d="M28.3408 6.75009L27.2815 10.6032C27.2815 10.6032 21.2627 6.85321 15.8533 9.30009L14.794 9.70321C14.794 9.70321 9.37521 8.68134 8.94396 7.65009C8.60133 7.14848 8.37764 6.57532 8.28991 5.97422C8.20219 5.37313 8.25273 4.75995 8.43771 4.18134C8.77492 4.85106 9.0571 5.54711 9.28146 6.26259C9.28146 6.26259 9.37521 2.81259 11.8408 1.77196C11.8408 1.77196 11.4565 2.14696 11.6346 3.64696C11.6346 3.64696 16.0596 0.365711 19.1815 0.450086C18.3837 1.2101 17.896 2.2389 17.8127 3.33759C20.1175 2.48558 22.5909 2.19005 25.0315 2.47509C24.6935 3.16183 24.2542 3.79389 23.7283 4.35009C25.3252 5.03052 26.8672 5.83289 28.3408 6.75009Z" fill="#8E4028"/>
<path d="M24.375 9.7124L22.4062 11.6812C22.4062 11.6812 24.5156 15.1312 24.0938 18.6468L29.4375 16.1155L28.6125 9.98428C28.6125 9.98428 26.3813 9.77803 24.375 9.7124Z" fill="#8E4028"/>
<path d="M23.25 17.3625C23.325 17.3625 25.8844 16.9688 25.8844 16.9688L25.9875 17.6531L23.2688 19.1531L23.5406 17.6813L23.25 17.3625Z" fill="#8E4028"/>
<path d="M28.2094 11.0249L23.25 11.6624C23.25 11.6624 23.5875 11.2874 23.9063 12.7593C23.9063 12.7593 26.9906 13.0312 27.15 13.0312C27.3094 13.0312 28.7906 12.6655 28.7906 12.6655L28.2094 11.0249Z" fill="#8E4028"/>
<path d="M24.6186 2.4751C23.2242 3.39359 21.6636 4.03054 20.0248 4.3501L24.2998 5.7751C22.9069 6.07918 21.4986 6.30764 20.0811 6.45947C19.2102 6.51737 18.3451 6.64274 17.4936 6.83447L23.5592 7.7251C23.5592 7.7251 18.8717 7.78135 16.7529 8.94385C16.7529 8.94385 22.5467 7.71572 27.2811 10.5751L28.0498 10.2657L29.7373 7.36885C28.3655 6.4717 26.8765 5.76818 25.3123 5.27822L24.0936 4.75322C24.0936 4.75322 24.7404 3.09385 25.0311 2.4751H24.6186Z" fill="#8E4028"/>
<path d="M29.7377 7.38755L24.7221 7.28442L27.1877 8.4938L22.3877 8.70942C22.3877 8.70942 24.8158 9.0188 25.8189 10.6594L26.6064 10.9219L28.3971 10.5L29.7377 7.38755Z" fill="#8E4028"/>
<path d="M8.4375 6.60938C9.30081 7.28546 10.3134 7.74514 11.3906 7.95L17.8125 8.4375L15 9.70313C15 9.70313 10.4719 9.1125 9.66563 8.4375C9.11464 7.93623 8.69326 7.30898 8.4375 6.60938Z" fill="#8E4028"/>
<path d="M12.6001 2.01562C12.6001 2.01562 11.8782 4.6875 12.5438 6.4125C11.7975 5.38784 11.391 4.15511 11.3813 2.8875C11.4689 2.63367 11.6333 2.41337 11.8516 2.25715C12.07 2.10092 12.3316 2.01651 12.6001 2.01562Z" fill="#8E4028"/>
<path d="M16.9875 0.881348C16.9875 0.881348 14.0625 1.8751 13.125 3.3376C12.5704 4.02222 12.2838 4.8853 12.3188 5.76572C12.6258 4.83664 13.2159 4.02692 14.0063 3.4501C15.0935 2.7087 16.0936 1.847 16.9875 0.881348Z" fill="#8E4028"/>
<path d="M22.5001 2.8124C22.5001 2.8124 19.2095 2.71865 17.1563 4.24677C16.0723 5.07302 14.925 5.8128 13.7251 6.45927L17.7563 4.9874C17.7563 4.9874 20.822 2.90615 22.5001 2.8124Z" fill="#8E4028"/>
<path d="M26.0154 18.9C26.0154 18.9 27.7404 17.7 28.631 17.8781C29.5217 18.0563 30.356 22.2375 27.056 22.5656C23.756 22.8938 26.0154 18.9 26.0154 18.9Z" fill="#8E4028"/>
<path d="M25.8845 19.2468C25.8845 19.2468 28.0126 16.8749 29.0626 17.0905C30.1126 17.3061 30.8626 22.8655 26.9345 23.1655C23.0064 23.4655 25.8845 19.2468 25.8845 19.2468Z" fill="#8E4028"/>
<path d="M26.3061 18.6563C26.9625 18.2397 27.7143 17.9977 28.4904 17.9531C29.2498 18.1125 29.8217 21.8344 27.0279 21.9937C24.2342 22.1531 26.3061 18.6563 26.3061 18.6563Z" fill="#8E4028"/>
<path d="M25.9407 18.9375C26.5971 18.521 27.349 18.279 28.1251 18.2344C28.8751 18.3938 29.4469 22.1156 26.6626 22.275C23.8782 22.4344 25.9407 18.9375 25.9407 18.9375Z" fill="#8E4028"/>
<path d="M15.6471 25.8281C14.3908 27.1687 11.4096 26.3625 11.5877 25.1062L15.6471 25.8281Z" fill="#8E4028"/>
<path d="M19.0125 23.0157C18.4281 23.1981 17.8236 23.3083 17.2125 23.3438C14.8312 23.3366 12.4622 23.0022 10.1719 22.3501C10.4574 22.5553 10.7739 22.7135 11.1094 22.8188C11.4106 23.2909 11.6086 23.8212 11.6906 24.3751C11.4562 24.3751 11.2406 24.5251 10.8562 24.3751C12.4018 25.2352 14.1868 25.5646 15.9375 25.3126C17.1771 24.821 18.3318 24.1376 19.3594 23.2876C19.2355 23.208 19.1194 23.117 19.0125 23.0157Z" fill="#8E4028"/>
<path d="M19.5093 22.8937L19.303 22.7437H19.3687C19.2921 22.7181 19.2218 22.6766 19.1624 22.6218C18.5499 22.907 17.8939 23.0876 17.2218 23.1562C14.8223 23.1872 12.437 22.7838 10.1812 21.9656V22.3875C10.5061 22.607 10.8682 22.7658 11.2499 22.8562C11.5053 23.4155 11.6395 24.0226 11.6437 24.6375C11.3596 24.6003 11.08 24.5343 10.8093 24.4406C12.3937 25.6125 16.2843 26.1375 17.2499 25.7156C17.9999 25.3968 18.3468 24.3843 19.5093 22.9031V22.8937Z" fill="#8E4028"/>
<path d="M11.5875 23.0344C11.7998 23.4547 11.9393 23.9081 12 24.375V24.4407C12.1808 24.5161 12.3654 24.5818 12.5531 24.6375C13.1631 24.8401 13.7909 24.9844 14.4281 25.0688C14.8719 25.1438 15.325 25.1438 15.7687 25.0688C16.3654 24.8509 16.9349 24.5646 17.4656 24.2157C17.8406 23.9907 18.1969 23.7469 18.5531 23.4938C18.0952 23.6057 17.6273 23.6716 17.1562 23.6907C15.2642 23.6822 13.3785 23.4716 11.5312 23.0625L11.5875 23.0344Z" fill="#8E4028"/>
<path d="M11.5874 23.0344C11.6458 23.2814 11.7406 23.5184 11.8687 23.7375C12.0577 23.8379 12.2517 23.9286 12.4499 24.0094C12.3349 24.0178 12.2266 24.0666 12.1442 24.1473C12.0618 24.228 12.0107 24.3352 11.9999 24.45C12.9374 24.8063 15.5999 25.3032 16.5187 25.0032C16.8403 24.914 17.1539 24.798 17.4562 24.6563C17.0397 24.5396 16.6172 24.4457 16.1905 24.375C16.6793 24.3503 17.1578 24.2259 17.5968 24.0094C17.7695 23.8974 17.9063 23.7379 17.9905 23.55C17.7307 23.5978 17.4672 23.6229 17.203 23.625C15.3155 23.6283 13.433 23.4303 11.5874 23.0344Z" fill="#8E4028"/>
<path d="M11.7002 23.4375C11.7431 23.5562 11.7998 23.6694 11.8689 23.775C12.058 23.8753 12.252 23.966 12.4502 24.0469C12.3352 24.0552 12.2269 24.1041 12.1445 24.1848C12.0621 24.2654 12.011 24.3727 12.0002 24.4875C13.148 24.952 14.3817 25.1662 15.6189 25.1156C15.8893 24.8035 16.0621 24.4188 16.1158 24.0094C14.63 23.9486 13.1525 23.7572 11.7002 23.4375Z" fill="#8E4028"/>
<path d="M21.4502 20.3907C20.5025 20.3066 19.5498 20.4816 18.6939 20.897C17.9402 20.9322 17.1859 20.8403 16.4627 20.6251C14.7939 19.4251 15.5252 17.6626 16.4627 16.5001C16.6726 16.2452 16.9462 16.0502 17.2557 15.935C17.5652 15.8198 17.8996 15.7883 18.2252 15.8438C19.4694 16.0165 20.6727 16.4101 21.7783 17.0063C22.0971 17.7938 22.4064 20.0907 21.4221 20.3813L21.4502 20.3907Z" fill="#8E4028"/>
<path d="M21.4501 20.3907C20.5874 20.3702 19.7313 20.5466 18.9469 20.9063C18.1888 20.8813 17.4418 20.716 16.7438 20.4188C16.3784 19.9007 16.2106 19.2689 16.2708 18.6378C16.331 18.0066 16.6152 17.4179 17.0719 16.9782C18.0844 16.7907 21.1969 17.3719 21.8251 18.0751C22.0247 18.4473 22.0961 18.8749 22.0283 19.2917C21.9605 19.7086 21.7573 20.0915 21.4501 20.3813V20.3907Z" fill="#8E4028"/>
<path d="M16.3311 18.3C16.6104 17.6055 17.0174 16.9695 17.5311 16.425C18.5342 16.2375 20.7654 16.3031 21.3842 17.0062C21.6829 17.66 21.9062 18.3457 22.0498 19.05C20.8873 20.0531 16.8467 20.0906 16.3686 18.4969V18.3375L16.3311 18.3Z" fill="#8E4028"/>
<path d="M21.3748 17.8124C21.5494 17.9852 21.687 18.1918 21.7791 18.4195C21.8713 18.6473 21.9161 18.8914 21.9108 19.137C21.9055 19.3826 21.8503 19.6246 21.7485 19.8481C21.6467 20.0717 21.5004 20.2722 21.3186 20.4374C20.6807 20.4439 20.0478 20.5515 19.4436 20.7562C19.0822 20.5974 18.7826 20.3249 18.5906 19.9801C18.3985 19.6353 18.3244 19.2372 18.3796 18.8464C18.4348 18.4556 18.6163 18.0935 18.8964 17.8155C19.1765 17.5374 19.5399 17.3585 19.9311 17.3062C20.4423 17.4187 20.9392 17.5885 21.4123 17.8124H21.3748Z" fill="#8E4028"/>
<path d="M20.1748 18.0001C20.446 18.0263 20.6961 18.1578 20.8714 18.3664C21.0467 18.575 21.1332 18.8441 21.1123 19.1157C21.0978 19.3918 20.9759 19.6512 20.7727 19.8386C20.5695 20.026 20.3011 20.1266 20.0248 20.1189C19.7519 20.0927 19.5002 19.9598 19.3247 19.7492C19.1491 19.5385 19.0638 19.2671 19.0873 18.9939C19.0921 18.8567 19.1242 18.722 19.1817 18.5974C19.2392 18.4729 19.321 18.3611 19.4223 18.2685C19.5236 18.176 19.6423 18.1046 19.7715 18.0585C19.9007 18.0124 20.0378 17.9925 20.1748 18.0001Z" fill="#8E4028"/>
<path d="M11.4092 14.6624C11.8567 16.1851 11.6953 17.822 10.9592 19.2281C10.3458 19.4426 9.68708 19.4941 9.04776 19.3774C8.40844 19.2607 7.81041 18.9799 7.31232 18.5624C6.9467 17.0999 7.16232 14.9999 8.24982 13.9781C8.47122 13.7379 8.7515 13.5598 9.06291 13.4613C9.37432 13.3628 9.70606 13.3474 10.0253 13.4165C10.3445 13.4857 10.6401 13.637 10.8828 13.8555C11.1256 14.0741 11.307 14.3522 11.4092 14.6624Z" fill="#8E4028"/>
<path d="M11.4281 15.1125C11.8516 16.6028 11.7286 18.1955 11.0812 19.6031C9.83245 19.6528 8.60152 19.294 7.57497 18.5812C7.39792 17.8757 7.39058 17.1383 7.55354 16.4295C7.71649 15.7206 8.04512 15.0604 8.51247 14.5031C8.71828 14.2873 8.97574 14.1276 9.26048 14.039C9.54522 13.9505 9.84784 13.936 10.1397 13.997C10.4316 14.058 10.7031 14.1925 10.9286 14.3877C11.154 14.5829 11.3259 14.8323 11.4281 15.1125Z" fill="#8E4028"/>
<path d="M11.4468 15.5156C11.6732 16.0704 11.7507 16.6747 11.6718 17.2687C10.6312 18.5062 7.7249 18.3468 7.69678 15.9374C7.85489 15.3865 8.14814 14.8838 8.5499 14.4749C9.46865 13.6312 10.978 14.2968 11.4468 15.5156Z" fill="#8E4028"/>
<path d="M10.4341 15.1875C10.9071 15.2747 11.3285 15.5403 11.6112 15.9294C11.8938 16.3185 12.0162 16.8013 11.9529 17.2781C11.8966 18.2156 11.2591 19.2468 10.2091 19.1531C9.73433 19.0659 9.31145 18.7989 9.02855 18.4077C8.74565 18.0166 8.62452 17.5313 8.6904 17.0531C8.73727 16.1812 9.37477 15.1218 10.4341 15.1875Z" fill="#8E4028"/>
<path d="M10.3877 16.0032C10.6636 16.0579 10.9075 16.2173 11.0683 16.4481C11.2292 16.6788 11.2943 16.9629 11.2502 17.2407C11.2606 17.523 11.1607 17.7982 10.9717 18.0082C10.7828 18.2182 10.5195 18.3464 10.2377 18.3657C9.96253 18.3131 9.71865 18.1555 9.55766 17.9263C9.39667 17.6971 9.33123 17.4142 9.37517 17.1375C9.36227 16.8537 9.46099 16.576 9.65022 16.364C9.83945 16.152 10.1042 16.0225 10.3877 16.0032Z" fill="#8E4028"/>
<path d="M10.6404 15.0001C10.8072 15.0171 10.9652 15.0829 11.0949 15.1892C11.2245 15.2955 11.3199 15.4377 11.3692 15.5979C11.4185 15.7581 11.4195 15.9293 11.3721 16.0901C11.3247 16.2509 11.2309 16.3942 11.1025 16.502C10.9742 16.6099 10.8169 16.6775 10.6503 16.6964C10.4837 16.7154 10.3153 16.6849 10.1659 16.6087C10.0166 16.5324 9.89306 16.4139 9.81071 16.2679C9.72836 16.1218 9.69085 15.9548 9.70288 15.7876C9.73882 15.5657 9.85325 15.3642 10.0253 15.2197C10.1974 15.0751 10.4157 14.9972 10.6404 15.0001Z" fill="#8E4028"/>
<path d="M20.8968 17.0437C21.0594 17.0712 21.2106 17.1453 21.332 17.2569C21.4534 17.3686 21.5398 17.513 21.5808 17.6728C21.6218 17.8325 21.6157 18.0008 21.563 18.1571C21.5104 18.3134 21.4136 18.4511 21.2844 18.5535C21.1551 18.656 20.9989 18.7187 20.8347 18.7342C20.6705 18.7497 20.5053 18.7173 20.3592 18.6409C20.213 18.5645 20.0921 18.4473 20.0112 18.3036C19.9302 18.1599 19.8927 17.9958 19.9031 17.8312C19.94 17.5994 20.0626 17.3898 20.2466 17.244C20.4306 17.0982 20.6626 17.0267 20.8968 17.0437Z" fill="#8E4028"/>
<path d="M14.5031 15.75C14.2486 17.122 14.1542 18.5188 14.2219 19.9125C14.2219 19.9125 19.0219 21.6282 22.9969 20.4094L23.9344 17.7469C23.9344 17.7469 18.9656 15.5532 14.5031 15.75ZM22.3219 20.5688C18.9844 21.5063 14.8219 19.9313 14.8219 19.9313C14.7624 18.6146 14.8378 17.2952 15.0469 15.9938C18.7969 15.9 23.1844 18.3469 23.1844 18.3469L22.3219 20.5688Z" fill="#8E4028"/>
<path d="M14.5221 15.4406C14.2322 16.9349 14.1065 18.4564 14.1471 19.9781C14.1471 19.9781 19.0315 21.8531 23.0065 20.5968L24.244 17.5125C24.244 17.5125 18.9846 15.2437 14.5221 15.4406ZM22.3502 20.2593C19.0127 21.1968 14.8502 19.6218 14.8502 19.6218C14.7925 18.3974 14.8775 17.1704 15.1033 15.9656C18.8533 15.8812 23.3346 17.7843 23.3346 17.7843L22.3502 20.2593Z" fill="#8E4028"/>
<path d="M16.3781 13.9969L15.9375 13.6687C15.9375 13.6687 17.9062 11.25 20.1375 12.5719C22.3687 13.8937 22.4438 15.1969 22.4438 15.1969C22.4438 15.1969 19.5937 11.6062 16.3781 13.9969Z" fill="#8E4028"/>
<path d="M5.6252 15.3937L7.15332 15V14.6156C6.64134 14.5289 6.11842 14.5289 5.60645 14.6156L5.6252 15.3937Z" fill="#8E4028"/>
<path d="M8.25938 14.3812L5.8125 14.325L6.10313 17.8687L7.70625 18.525C7.70625 18.525 7.44375 15.1968 8.25938 14.3812Z" fill="#B79576"/>
<path d="M13.5752 17.8781C13.8664 19.4233 13.9233 21.0035 13.744 22.5656C13.4252 24.9281 13.4346 24.7781 13.4346 24.7781C13.4346 24.7781 16.7533 24.225 17.869 22.9594C18.9846 21.6937 20.3815 17.1188 20.3815 17.1188L19.0408 15.6094L13.5752 17.8781Z" fill="#FCC097"/>
<path d="M28.1251 15.8438C27.4407 21.7407 22.2095 25.5094 16.3313 24.8344C10.4532 24.1594 7.31259 18.7501 8.43759 12.8719C8.9631 10.2533 10.4379 7.92124 12.5785 6.32399C14.7191 4.72674 17.3746 3.97698 20.0345 4.21881C25.922 4.89381 28.8282 9.94694 28.1251 15.8438Z" fill="#E8BD89"/>
<path d="M28.1251 15.075C27.4689 20.7 21.422 26.9063 15.9376 26.325C10.4532 25.7438 7.60323 18.4969 8.25011 12.8344C8.89698 7.17191 12.4689 3.75003 19.2751 4.50003C24.7595 5.12816 28.7814 9.37503 28.1251 15.075Z" fill="#E8BD89"/>
<path d="M22.5432 15.8648C23.0169 11.7394 20.1609 8.0231 16.1641 7.56419C12.1673 7.10528 8.54326 10.0775 8.06958 14.2029C7.5959 18.3283 10.452 22.0446 14.4487 22.5035C18.4455 22.9624 22.0696 19.9902 22.5432 15.8648Z" fill="#FFD097"/>
<path d="M25.031 14.1844C25.031 14.1844 25.5279 17.2688 24.5154 18.4875C23.5029 19.7063 27.5998 20.2782 27.5998 20.2782C27.5998 20.2782 29.2498 16.9688 28.8935 15.075C28.5373 13.1813 25.031 14.1844 25.031 14.1844Z" fill="#63310F"/>
<path d="M21.1032 22.0782C22.5095 22.1625 19.6126 26.3532 18.0001 26.7657C16.1961 27.2211 14.3014 27.1692 12.5251 26.6157C11.3626 26.0719 8.9251 21.8063 8.5501 20.4844C8.12822 18.9657 8.05322 18.8157 8.05322 18.8157C8.05322 18.8157 8.29697 18.8157 9.09385 19.275C10.397 20.1094 13.4157 21.6282 21.1032 22.0782Z" fill="#D8B18B"/>
<path d="M15.6938 18.5626C15.6938 18.5626 18.0563 17.8219 19.4438 18.5626C19.4438 18.5626 20.1001 19.2751 19.7251 19.5001C19.3501 19.7251 18.8907 20.1188 18.572 19.7438C17.7565 19.0642 16.7517 18.6518 15.6938 18.5626Z" fill="#343F3D"/>
<path d="M10.3126 16.8187C10.3126 16.8187 9.78763 15.2437 8.67201 15.1499C8.67201 15.1499 7.87513 15.3655 7.89388 15.6843C7.91263 16.003 7.82826 16.4999 8.23138 16.3687C8.9573 16.2401 9.70467 16.4017 10.3126 16.8187Z" fill="#343F3D"/>
<path d="M8.80322 10.2095C8.80322 10.2095 9.6376 8.69072 12.5532 9.99385L11.1938 6.88135C10.1126 7.69893 9.29195 8.81273 8.83135 10.0876" fill="#E5895B"/>
<path d="M12.9564 12.5249L14.9908 13.0874L14.3533 20.4749L11.7002 20.3062L12.9564 12.5249Z" fill="#D8B18B"/>
<path d="M20.5687 22.1438L23.953 20.7563L24.5437 22.4157C23.1483 24.2123 21.223 25.5243 19.0405 26.1657L20.5687 22.1438Z" fill="#B79576"/>
<path d="M12.8999 16.425L14.8124 16.8374L15.1218 15.4593L12.9187 15.0281L12.8999 16.425Z" fill="#343F3D"/>
<path d="M16.022 13.8094C16.5307 13.4788 17.1028 13.258 17.7017 13.1611C18.3006 13.0643 18.9131 13.0935 19.5001 13.2469C21.3751 13.8094 22.8563 15.5157 21.9657 15.8532C21.0751 16.1907 20.6063 15.4501 20.2032 14.7844C19.8001 14.1188 18.3845 13.5282 16.922 14.6907C16.922 14.6907 16.1157 14.4469 16.022 13.8094Z" fill="#63310F"/>
<path d="M23.4376 7.94999C19.1251 6.39374 12.422 4.91249 8.99072 8.79374C10.6781 9.60401 12.4235 10.2872 14.2126 10.8375L15.3845 10.3781C19.2282 8.57812 23.3438 9.66562 25.8188 10.6875C25.653 10.0816 25.3529 9.52092 24.9406 9.047C24.5284 8.57308 24.0146 8.19812 23.4376 7.94999Z" fill="#63310F"/>
<path d="M27.7127 7.18129L26.7096 10.8C26.7096 10.8 21.0846 7.25629 15.9377 9.58129L14.9439 9.96567C14.9439 9.96567 9.80644 9.02817 9.43144 8.02504C9.1131 7.55134 8.9071 7.01122 8.82912 6.44584C8.75113 5.88046 8.80323 5.30474 8.98143 4.76254C9.29442 5.38872 9.55167 6.04124 9.75018 6.71254C9.75018 6.71254 9.82518 3.47817 12.1877 2.48442C12.1877 2.48442 11.8314 2.83129 12.0002 4.24692C12.0002 4.24692 15.1783 1.07817 18.1127 1.16254C17.3988 1.96588 16.9646 2.97904 16.8752 4.05004C16.8752 4.05004 21.1689 2.62504 24.6189 3.11254C24.3067 3.77618 23.8923 4.38673 23.3908 4.92192C24.887 5.56357 26.3319 6.31891 27.7127 7.18129Z" fill="url(#paint0_linear_1_16577)"/>
<path d="M23.9346 9.96558L22.0596 11.8406C23.2222 13.8247 23.7764 16.1067 23.6533 18.4031L28.6877 16.0218L27.9096 10.2375C27.9096 10.2375 25.8564 10.0312 23.9346 9.96558Z" fill="#63310F"/>
<path d="M22.9126 17.175C22.9876 17.175 25.397 16.8 25.397 16.8L25.4907 17.4469L22.9313 18.8625L23.1845 17.475L22.9126 17.175Z" fill="#343F3D"/>
<path d="M27.5811 11.25L22.8936 11.8406C22.8936 11.8406 23.2123 11.4844 23.5123 12.8812C23.5123 12.8812 26.4186 13.1344 26.5686 13.1344C26.7186 13.1344 27.9092 12.8062 27.9092 12.8062L27.5811 11.25Z" fill="url(#paint1_linear_1_16577)"/>
<path d="M24.1968 3.1499C22.8873 4.02409 21.4189 4.63249 19.8749 4.94053L23.9062 6.28115C22.5905 6.56741 21.2605 6.78334 19.9218 6.92803C19.1019 6.98415 18.2872 7.10008 17.4843 7.2749L23.203 8.12803C23.203 8.12803 18.7499 8.1749 16.7905 9.27178C16.7905 9.27178 22.2468 8.10928 26.7093 10.7999L27.4312 10.5093L28.7718 7.69678C27.5628 6.88019 26.2389 6.24826 24.8437 5.82178L23.6999 5.3249C23.6999 5.3249 24.3093 3.76865 24.5812 3.17803L24.1968 3.1499Z" fill="#B85A1B"/>
<path d="M29.0623 7.78135L24.3748 7.67822L26.7092 8.82197L22.1904 9.01885C22.1904 9.01885 24.4779 9.31885 25.4154 10.8938L26.1654 11.147L27.8529 10.7438L29.0623 7.78135Z" fill="#63310F"/>
<path d="M8.95312 7.05005C9.77768 7.68601 10.7417 8.11662 11.7656 8.3063L17.8125 8.80317L15.1312 9.9938C15.1312 9.9938 10.875 9.37505 10.1156 8.80317C9.58966 8.32346 9.19033 7.72125 8.95312 7.05005Z" fill="#B85A1B"/>
<path d="M12.0936 2.48449C11.7144 3.8341 11.695 5.25943 12.0373 6.61886C11.3285 5.65716 10.9444 4.49477 10.9404 3.30011C11.0217 3.05969 11.1771 2.85123 11.3843 2.70468C11.5915 2.55813 11.8398 2.48104 12.0936 2.48449Z" fill="#B85A1B"/>
<path d="M17.0063 1.64062C17.0063 1.64062 14.2876 2.57812 13.3595 3.96563C12.8358 4.60995 12.5657 5.42352 12.6001 6.25313C12.8893 5.3734 13.4466 4.60628 14.1938 4.05937C15.2204 3.36288 16.164 2.55137 17.0063 1.64062Z" fill="#FFBA7B"/>
<path d="M22.1624 3.44996C20.4013 3.42778 18.6695 3.90214 17.1655 4.81871C16.1445 5.60019 15.063 6.29926 13.9312 6.90934L17.7374 5.51246C17.7374 5.51246 20.6249 3.55309 22.1624 3.44996Z" fill="#FFBA7B"/>
<path d="M25.5185 18.6282C25.5185 18.6282 27.1404 17.4938 27.9748 17.6907C28.8092 17.8876 29.606 21.7969 26.5029 22.1063C23.3998 22.4157 25.5185 18.6282 25.5185 18.6282Z" fill="#63310F"/>
<path d="M25.397 18.9469C25.397 18.9469 27.4033 16.7157 28.397 16.9219C29.3908 17.1282 30.0939 22.3594 26.3908 22.6407C22.6876 22.9219 25.397 18.9469 25.397 18.9469Z" fill="#E8BD89"/>
<path d="M25.7907 18.3938C26.4094 17.9994 27.1203 17.7732 27.8532 17.7375C28.5657 17.8875 29.1001 21.3938 26.4751 21.5438C23.8501 21.6938 25.7907 18.3938 25.7907 18.3938Z" fill="#C18053"/>
<path d="M25.4435 18.6562C26.0623 18.2619 26.7732 18.0357 27.506 18C28.2185 18.15 28.7529 21.6562 26.1279 21.8062C23.5029 21.9562 25.4435 18.6562 25.4435 18.6562Z" fill="#CE9D67"/>
<path d="M15.7501 25.1531C14.5594 26.4187 11.747 25.6594 11.9251 24.4688L15.7501 25.1531Z" fill="#FFBC8F"/>
<path d="M18.9187 22.5001C18.3693 22.6792 17.7989 22.7863 17.2219 22.8188C14.9799 22.8127 12.7495 22.4972 10.5938 21.8813C10.8644 22.0705 11.1613 22.219 11.475 22.322C11.7605 22.7744 11.9459 23.2826 12.0187 23.8126C11.8031 23.8126 11.5969 23.9532 11.2312 23.8126C12.6892 24.601 14.3651 24.8907 16.0031 24.6376C17.1684 24.1827 18.2563 23.5503 19.2281 22.7626C19.1167 22.6854 19.0131 22.5975 18.9187 22.5001Z" fill="#9A4C18"/>
<path d="M19.3781 22.3875C19.3125 22.3875 19.2562 22.2937 19.1906 22.2469H19.2563C19.1848 22.2207 19.1182 22.1827 19.0594 22.1344C18.4825 22.4022 17.8643 22.5702 17.2312 22.6312C14.9724 22.6778 12.7238 22.3157 10.5938 21.5625V21.9563C10.8996 22.1609 11.2392 22.3101 11.5969 22.3969C11.8424 22.9256 11.9704 23.5014 11.9719 24.0844C11.703 24.0474 11.439 23.9814 11.1844 23.8875C12.6844 25.0031 16.35 25.4906 17.2594 25.0969C17.9625 24.7969 18.2906 23.8313 19.3781 22.4438V22.3875Z" fill="#63310F"/>
<path d="M11.9155 22.5C12.1182 22.8996 12.2513 23.3307 12.3093 23.775V23.8406L12.8249 24.0281C13.4176 24.2157 14.0265 24.3475 14.6437 24.4219C15.0744 24.4814 15.5121 24.4655 15.9374 24.375C16.5011 24.169 17.039 23.8984 17.5405 23.5687C17.8874 23.3531 18.2343 23.1281 18.5624 22.8844C18.1323 22.9923 17.6927 23.0582 17.2499 23.0813C15.4558 23.0853 13.6667 22.8904 11.9155 22.5Z" fill="#792936"/>
<path d="M11.9155 22.5C11.9777 22.731 12.0658 22.9543 12.178 23.1656C12.3609 23.2599 12.5487 23.3444 12.7405 23.4187C12.6325 23.4284 12.531 23.4745 12.4526 23.5495C12.3743 23.6244 12.3237 23.7238 12.3093 23.8313C13.6739 24.3096 15.1255 24.4886 16.5655 24.3562C16.8655 24.2777 17.1575 24.171 17.4374 24.0375C17.0491 23.9295 16.6546 23.845 16.2562 23.7844C16.7165 23.7648 17.1673 23.6465 17.578 23.4375C17.7446 23.3333 17.878 23.1837 17.9624 23.0063C17.7145 23.0493 17.4639 23.0744 17.2124 23.0813C15.4313 23.0732 13.656 22.8784 11.9155 22.5Z" fill="url(#paint2_linear_1_16577)"/>
<path d="M12.0283 22.8657C12.069 22.9761 12.1192 23.0828 12.1783 23.1845C12.3612 23.2787 12.549 23.3632 12.7408 23.4376C12.6328 23.4473 12.5313 23.4934 12.4529 23.5683C12.3746 23.6433 12.324 23.7426 12.3096 23.8501C13.3914 24.2908 14.5548 24.4953 15.7221 24.4501C15.9776 24.1571 16.1407 23.795 16.1908 23.4095C14.7906 23.3447 13.3982 23.1628 12.0283 22.8657Z" fill="url(#paint3_linear_1_16577)"/>
<path d="M21.2064 20.025C20.3169 19.9535 19.4242 20.1185 18.6189 20.5031C17.9095 20.544 17.1984 20.4583 16.5189 20.25C14.9439 19.1156 15.6283 17.4375 16.5189 16.3594C16.719 16.1197 16.9783 15.9365 17.271 15.828C17.5637 15.7195 17.8797 15.6893 18.1877 15.7406C19.3705 15.9178 20.513 16.3018 21.5627 16.875C21.8627 17.6156 22.1533 19.7813 21.2252 20.0625L21.2064 20.025Z" fill="#343F3D"/>
<path d="M21.2064 20.025C20.3946 20.0104 19.59 20.1803 18.8533 20.5219C18.1412 20.4906 17.4401 20.3351 16.7814 20.0625C16.4392 19.5733 16.2823 18.9781 16.339 18.3837C16.3957 17.7893 16.6622 17.2345 17.0908 16.8188C18.0283 16.6406 20.7377 17.1563 21.3377 17.8125C21.5154 18.1692 21.5749 18.5733 21.5075 18.966C21.4401 19.3588 21.2492 19.7199 20.9627 19.9969L21.2064 20.025Z" fill="url(#paint4_linear_1_16577)"/>
<path d="M16.3877 18.0563C16.6468 17.3919 17.032 16.7838 17.5221 16.2657C18.4596 16.0782 20.5689 16.1438 21.1596 16.8C21.3824 17.4311 21.5333 18.0852 21.6096 18.75C20.5127 19.6875 16.8752 19.6875 16.4346 18.1782C16.4303 18.1283 16.4303 18.0781 16.4346 18.0282L16.3877 18.0563Z" fill="white"/>
<path d="M18.8439 17.4937C18.3957 17.2896 17.9276 17.1325 17.447 17.0249C17.077 17.0708 16.7324 17.2373 16.4664 17.4987C16.2005 17.76 16.028 18.1017 15.9758 18.4709C15.9235 18.8401 15.9942 19.2163 16.1772 19.5412C16.3601 19.8662 16.6449 20.1218 16.9877 20.2687C17.5554 20.0753 18.1504 19.9741 18.7502 19.9687C19.0745 19.6648 19.2721 19.2495 19.3033 18.8062C19.3171 18.5679 19.2836 18.3293 19.2047 18.104C19.1259 17.8788 19.0033 17.6713 18.8439 17.4937Z" fill="#343F3D"/>
<path d="M11.7562 14.625C12.1728 16.0645 12.0183 17.6091 11.3249 18.9375C10.7243 19.1562 10.0791 19.2236 9.44634 19.1336C8.81355 19.0437 8.21266 18.7993 7.69679 18.4219C7.52107 17.6517 7.52435 16.8514 7.70638 16.0827C7.88841 15.3139 8.24434 14.5972 8.74679 13.9875C8.9598 13.765 9.22611 13.6005 9.52049 13.5096C9.81487 13.4188 10.1276 13.4046 10.429 13.4685C10.7303 13.5323 11.0104 13.6721 11.2427 13.8745C11.475 14.0769 11.6517 14.3352 11.7562 14.625Z" fill="#343F3D"/>
<path d="M11.7752 15.0562C12.1681 16.4601 12.0519 17.9578 11.447 19.2843C10.2741 19.3409 9.11501 19.0116 8.14705 18.3468C7.98758 17.6792 7.98944 16.9831 8.15247 16.3163C8.3155 15.6496 8.63501 15.0312 9.08455 14.5124C9.27701 14.3209 9.51376 14.1798 9.7738 14.1017C10.0338 14.0236 10.3091 14.0109 10.5753 14.0647C10.8414 14.1185 11.0902 14.2371 11.2995 14.4101C11.5088 14.583 11.6722 14.805 11.7752 15.0562Z" fill="url(#paint5_linear_1_16577)"/>
<path d="M11.7937 15.4407C12.0043 15.9636 12.0754 16.5321 12 17.0907C11.0625 18.2532 8.25 18.1032 8.25 15.8626C8.40329 15.3448 8.67996 14.8719 9.05625 14.4845C9.92812 13.6595 11.3437 14.2876 11.7937 15.4407Z" fill="white"/>
<path d="M10.8281 15.1219C11.2776 15.2001 11.6789 15.4505 11.9467 15.8199C12.2145 16.1893 12.3278 16.6485 12.2625 17.1C12.2156 17.9531 11.6062 18.975 10.6219 18.9C10.1724 18.8218 9.77112 18.5714 9.5033 18.202C9.23547 17.8327 9.12218 17.3734 9.1875 16.9219C9.23437 16.0688 9.84375 15.0656 10.8281 15.1219Z" fill="#343F3D"/>
<path d="M10.7907 15.9375C11.0526 15.9856 11.2853 16.134 11.4394 16.3511C11.5935 16.5683 11.6568 16.8369 11.6157 17.1C11.6263 17.3634 11.5346 17.6207 11.3599 17.8181C11.1852 18.0156 10.941 18.1378 10.6782 18.1594C10.4175 18.1091 10.1862 17.9602 10.0325 17.7436C9.87887 17.5271 9.81464 17.2596 9.85324 16.9969C9.84269 16.7335 9.93434 16.4762 10.109 16.2787C10.2838 16.0813 10.528 15.9591 10.7907 15.9375Z" fill="#343F3D"/>
<path d="M11.0345 14.9155C11.1881 14.9411 11.331 15.0106 11.4459 15.1157C11.5609 15.2208 11.6429 15.3569 11.6822 15.5076C11.7214 15.6583 11.7162 15.8171 11.6671 15.9649C11.618 16.1127 11.5272 16.2431 11.4056 16.3404C11.284 16.4377 11.1368 16.4976 10.9819 16.5131C10.8269 16.5285 10.6708 16.4988 10.5324 16.4274C10.394 16.356 10.2792 16.2461 10.202 16.1109C10.1247 15.9757 10.0882 15.821 10.097 15.6655C10.1252 15.4432 10.2388 15.2406 10.4138 15.1006C10.5888 14.9606 10.8114 14.8942 11.0345 14.9155Z" fill="#FFFFFC"/>
<path d="M17.7 16.8749C17.8536 16.9005 17.9965 16.97 18.1115 17.0751C18.2264 17.1802 18.3084 17.3163 18.3477 17.467C18.3869 17.6176 18.3817 17.7765 18.3326 17.9243C18.2836 18.0721 18.1927 18.2025 18.0711 18.2998C17.9495 18.397 17.8024 18.457 17.6474 18.4725C17.4925 18.4879 17.3363 18.4581 17.1979 18.3868C17.0595 18.3154 16.9448 18.2055 16.8675 18.0703C16.7902 17.9351 16.7538 17.7804 16.7625 17.6249C16.7742 17.5138 16.8077 17.4062 16.8613 17.3082C16.9149 17.2102 16.9874 17.1238 17.0746 17.054C17.1618 16.9843 17.262 16.9325 17.3693 16.9018C17.4767 16.871 17.5891 16.8619 17.7 16.8749Z" fill="#FFFFFC"/>
<path d="M14.6718 15.6562C14.4317 16.9477 14.3405 18.2626 14.3999 19.5749C14.3999 19.5749 18.928 21.1968 22.6686 20.0437L23.6061 17.5405C23.6061 17.5405 18.8718 15.478 14.6718 15.6562ZM22.0405 20.1937C18.8905 21.0749 14.9811 19.603 14.9811 19.603C14.9227 18.3489 14.9949 17.0922 15.1968 15.853C18.7405 15.7687 22.8655 18.0749 22.8655 18.0749L22.0405 20.1937Z" fill="white"/>
<path d="M5.625 14.7C5.70429 15.7662 5.86095 16.8253 6.09375 17.8688C8.08904 19.1034 10.4886 19.5073 12.7781 18.9938L13.125 15.5344C13.125 15.5344 8.04375 13.8938 5.625 14.7ZM12.3563 19.1157C9.45938 19.8844 6.44062 18.1032 6.44062 18.1032C6.18889 16.9267 6.00111 15.7374 5.87812 14.5407C7.99688 13.9875 12.6 16.3594 12.6 16.3594L12.3563 19.1157Z" fill="white"/>
<path d="M14.6907 15.3657C14.4118 16.7886 14.2923 18.2382 14.3344 19.6875C14.3344 19.6875 18.9375 21.4219 22.6782 20.2688L23.8407 17.3625C23.8407 17.3625 18.8907 15.1782 14.6907 15.3657ZM22.0594 19.9032C18.9094 20.7844 15 19.3125 15 19.3125C14.9436 18.1573 15.0223 16.9995 15.2344 15.8625C17.9036 15.9665 20.5326 16.5476 22.9969 17.5782L22.0594 19.9032Z" fill="#343F3D"/>
<path d="M5.5498 14.3156C5.64589 15.5542 5.82441 16.7851 6.08418 18C7.06962 18.651 8.17493 19.099 9.33552 19.3179C10.4961 19.5368 11.6887 19.5222 12.8436 19.275L13.1248 15.1406C13.1248 15.1406 7.99668 13.5094 5.5498 14.3156ZM12.3748 18.75C9.44043 19.5187 6.38418 17.7375 6.38418 17.7375C6.15572 16.7311 5.99907 15.7098 5.91543 14.6812C8.0623 14.1281 12.6092 15.5719 12.6092 15.5719L12.3748 18.75Z" fill="#343F3D"/>
<path d="M16.4438 14.0062L15.9751 13.6969C15.9751 13.6969 17.8501 11.3812 19.9782 12.6656C22.1063 13.95 22.1532 15.1312 22.1532 15.1312C22.1532 15.1312 19.472 11.7562 16.4438 14.0062Z" fill="url(#paint6_linear_1_16577)"/>
<path d="M8.5873 14.0624L7.84668 13.1249C7.84668 13.1249 9.05605 10.6968 11.4654 11.2499C13.4436 11.6718 13.5561 11.203 14.0248 14.5874C13.3598 13.8176 12.4238 13.3336 11.4112 13.2358C10.3986 13.138 9.38732 13.4341 8.5873 14.0624Z" fill="url(#paint7_linear_1_16577)"/>
<path d="M6.3 15.3187L7.73438 15V14.6343C7.25343 14.5529 6.7622 14.5529 6.28125 14.6343L6.3 15.3187Z" fill="#E8BD89"/>
<path d="M24.1502 20.3062C24.1502 20.3062 24.347 22.1812 25.5658 22.6405L25.622 22.8562L24.7877 23.0905C24.7877 23.0905 23.7564 22.3687 24.1502 20.3062Z" fill="#8E4028"/>
<path d="M8.11871 19.0688C8.06956 19.5761 7.90862 20.0663 7.64746 20.5039C7.3863 20.9416 7.03141 21.316 6.6083 21.6002C6.18519 21.8843 5.70438 22.0712 5.20043 22.1474C4.69648 22.2236 4.18191 22.1871 3.69371 22.0407C2.64532 21.709 1.74692 21.0192 1.15566 20.092C0.564409 19.1649 0.31793 18.0594 0.45934 16.9688C0.504855 16.4636 0.66125 15.9745 0.91738 15.5366C1.17351 15.0987 1.52307 14.7226 1.94116 14.4352C2.35925 14.1479 2.83557 13.9562 3.33619 13.874C3.83682 13.7918 4.34941 13.8209 4.83746 13.9595C5.90172 14.2833 6.81613 14.975 7.41725 15.911C8.01836 16.8471 8.267 17.9664 8.11871 19.0688Z" fill="#282828"/>
<path d="M12.3188 13.397L14.1469 13.4251L13.4062 16.1626L11.8125 15.872L12.3188 13.397Z" fill="#282828"/>
<path d="M3.79688 13.7906L9.375 13.125C9.375 13.125 12.6562 15.9375 12.4781 15.9375C12.3 15.9375 6.34687 16.6219 6.34687 16.6219L3.79688 13.7906Z" fill="#282828"/>
<path d="M6.66543 16.2187L5.5498 27.0187L12.1779 24.0187L13.5373 15.5718L6.66543 16.2187Z" fill="#282828"/>
<path d="M3.89059 26.7845L1.74372 25.7063C1.28352 25.4808 0.904677 25.118 0.659501 24.6679C0.414326 24.2179 0.314906 23.7028 0.374967 23.1938L1.55622 14.7563L7.91247 16.6313L6.60934 25.622C6.41247 26.9251 5.19372 27.3188 3.89059 26.7845Z" fill="#282828"/>
<path d="M9.00928 13.1812L10.2562 12.1219C10.3397 12.0258 10.4558 11.964 10.5822 11.9485C10.7085 11.9329 10.8362 11.9646 10.9405 12.0375L13.9218 12.6281C14.022 12.6897 14.1073 12.7727 14.1716 12.8712C14.2359 12.9697 14.2776 13.0812 14.2938 13.1977C14.3099 13.3142 14.3 13.4328 14.2649 13.5451C14.2298 13.6573 14.1702 13.7604 14.0905 13.8469L11.6999 16.0312L9.00928 13.1812Z" fill="#282828"/>
<path d="M11.6999 13.9218L13.6405 13.2749L12.9093 15.3562L10.9312 15.5624L11.6999 13.9218Z" fill="#97A9AF"/>
<path d="M4.125 14.5218L9.375 13.9312C9.375 13.9312 11.6625 15.7405 11.5031 15.7124C11.3438 15.6843 6.28125 16.7718 6.28125 16.7718L4.125 14.5218Z" fill="#E4E8EA"/>
<path d="M6.28144 16.7719L5.41895 25.875L11.5408 23.3532L12.9564 15.2063L6.28144 16.7719Z" fill="#7D9093"/>
<path d="M4.42489 25.6593L2.67177 25.1906C2.26473 25.0147 1.92151 24.7181 1.68846 24.3408C1.45541 23.9636 1.34378 23.5239 1.36864 23.0812L2.51239 14.9343L7.84677 16.875L7.57489 24.2625C7.39677 25.4343 5.52177 26.1281 4.42489 25.6593Z" fill="#BACCD3"/>
<path d="M7.7719 19.1999C7.72714 19.6521 7.58304 20.0888 7.3499 20.4788C7.11675 20.8688 6.80032 21.2025 6.42323 21.4559C6.04614 21.7094 5.6177 21.8765 5.16855 21.9451C4.71939 22.0138 4.26062 21.9823 3.82502 21.8531C2.88966 21.5559 2.08828 20.9398 1.56059 20.1123C1.03291 19.2848 0.812405 18.2984 0.937521 17.3249C0.97965 16.8733 1.12056 16.4365 1.35026 16.0455C1.57996 15.6544 1.89285 15.3186 2.26675 15.0619C2.64066 14.8051 3.06643 14.6338 3.51393 14.5599C3.96142 14.486 4.41969 14.5114 4.85627 14.6343C5.80399 14.9272 6.6171 15.5467 7.15098 16.3827C7.68485 17.2187 7.90487 18.217 7.7719 19.1999Z" fill="#445C7F"/>
<path d="M7.09682 18.8719C7.05854 19.2554 6.93626 19.6259 6.73866 19.9568C6.54106 20.2878 6.273 20.5712 5.95351 20.7869C5.63403 21.0025 5.27097 21.1452 4.89012 21.2047C4.50928 21.2643 4.12 21.2392 3.74994 21.1313C2.95481 20.8772 2.27377 20.3527 1.82508 19.6488C1.37638 18.945 1.18837 18.1062 1.29369 17.2781C1.33185 16.8968 1.45276 16.5283 1.648 16.1985C1.84324 15.8686 2.1081 15.5854 2.42409 15.3685C2.74009 15.1516 3.09961 15.0062 3.47758 14.9426C3.85554 14.8789 4.24284 14.8985 4.61244 15C5.41739 15.2476 6.10858 15.7724 6.56338 16.4812C7.01818 17.19 7.20717 18.037 7.09682 18.8719Z" fill="#668BC6"/>
<path d="M6.40302 18.6844C6.37357 18.9776 6.2799 19.2607 6.12869 19.5135C5.97748 19.7664 5.77243 19.9829 5.52812 20.1475C5.2838 20.3122 5.00621 20.421 4.71509 20.4663C4.42396 20.5116 4.12643 20.4922 3.84365 20.4094C3.23433 20.2184 2.71206 19.8183 2.36901 19.2797C2.02596 18.7411 1.88416 18.0987 1.96865 17.4657C1.99453 17.1723 2.08497 16.8883 2.23351 16.634C2.38204 16.3797 2.58499 16.1614 2.8278 15.9948C3.07061 15.8281 3.34728 15.7172 3.63799 15.6701C3.92869 15.6229 4.22622 15.6406 4.50927 15.7219C5.12358 15.9132 5.65053 16.3153 5.99706 16.8574C6.34358 17.3995 6.48737 18.0466 6.40302 18.6844Z" fill="#70D2F9"/>
<path d="M6.3282 17.5875C6.32182 17.7337 6.2813 17.8764 6.2099 18.0041C6.13849 18.1318 6.03819 18.2411 5.917 18.3231C5.79582 18.4051 5.65712 18.4576 5.51201 18.4764C5.3669 18.4952 5.2194 18.4797 5.08133 18.4313C4.78017 18.3425 4.52046 18.1494 4.34868 17.8866C4.17691 17.6238 4.10429 17.3084 4.14383 16.9969C4.15021 16.8507 4.19073 16.7081 4.26213 16.5804C4.33353 16.4526 4.43384 16.3434 4.55503 16.2614C4.67621 16.1794 4.81491 16.1269 4.96002 16.1081C5.10513 16.0893 5.25262 16.1047 5.3907 16.1532C5.69395 16.2385 5.95601 16.4309 6.12837 16.6946C6.30073 16.9583 6.37172 17.2755 6.3282 17.5875Z" fill="white"/>
<path d="M9.30957 13.9219L10.5658 12.9094C10.6473 12.8165 10.76 12.7566 10.8826 12.7411C11.0053 12.7255 11.1293 12.7554 11.2314 12.825L13.6408 13.2469L11.2502 15.4594L9.30957 13.9219Z" fill="#D5DEE2"/>
<path d="M6.25329 24.1874C6.23729 24.3119 6.19644 24.432 6.13315 24.5404C6.06987 24.6489 5.98544 24.7435 5.88488 24.8187C5.78433 24.8939 5.66969 24.9481 5.54777 24.9782C5.42586 25.0082 5.29915 25.0135 5.17516 24.9936C4.92049 24.9413 4.69534 24.7939 4.54555 24.5814C4.39575 24.3689 4.33259 24.1073 4.36891 23.8499C4.38605 23.7262 4.42773 23.6071 4.49151 23.4998C4.55528 23.3924 4.63987 23.2988 4.74031 23.2246C4.84074 23.1504 4.95499 23.0969 5.07635 23.0675C5.19772 23.038 5.32375 23.0331 5.44704 23.053C5.70206 23.1011 5.92853 23.2461 6.07888 23.4576C6.22922 23.6692 6.29173 23.9307 6.25329 24.1874Z" fill="#474747"/>
<path d="M6.01857 24.15C6.00606 24.2436 5.97479 24.3339 5.92663 24.4152C5.87847 24.4965 5.81441 24.5673 5.73827 24.6233C5.66214 24.6793 5.57549 24.7194 5.48351 24.7412C5.39153 24.7629 5.29611 24.7659 5.20294 24.75C5.014 24.7092 4.84733 24.5988 4.73613 24.4407C4.62494 24.2826 4.57739 24.0884 4.60294 23.8968C4.61417 23.8026 4.64462 23.7117 4.6924 23.6296C4.74018 23.5476 4.80428 23.4763 4.88073 23.4201C4.95718 23.3638 5.04436 23.3239 5.13687 23.3027C5.22938 23.2815 5.32526 23.2795 5.41857 23.2968C5.6086 23.3355 5.77663 23.4455 5.8882 23.6041C5.99976 23.7627 6.04641 23.958 6.01857 24.15Z" fill="#F91919"/>
<path d="M5.82177 23.8032C5.81252 23.8614 5.78082 23.9136 5.7335 23.9486C5.68617 23.9837 5.62698 23.9988 5.56865 23.9907C5.50784 23.9793 5.454 23.9443 5.41888 23.8934C5.38375 23.8425 5.37019 23.7797 5.38115 23.7188C5.3904 23.6625 5.42073 23.6118 5.46599 23.5769C5.51125 23.5421 5.56806 23.5258 5.6249 23.5313C5.6863 23.5428 5.74096 23.5774 5.77759 23.628C5.81423 23.6786 5.83004 23.7413 5.82177 23.8032Z" fill="white"/>
<path d="M9.54357 16.8751C9.52706 17.0182 9.46965 17.1536 9.37821 17.265C9.28676 17.3764 9.16516 17.4591 9.02795 17.5032C8.79357 17.5032 8.64357 17.3063 8.69982 16.9969C8.71462 16.8521 8.77125 16.7147 8.86281 16.6015C8.95437 16.4883 9.0769 16.4042 9.21545 16.3594C9.44982 16.3032 9.59982 16.5282 9.54357 16.8751Z" fill="#97A9AF"/>
<path d="M10.8845 17.072C10.8709 17.2175 10.8134 17.3555 10.7196 17.4676C10.6259 17.5798 10.5003 17.6608 10.3595 17.7001C10.1251 17.7001 9.97512 17.5126 10.0314 17.1938C10.0492 17.0486 10.108 16.9115 10.201 16.7986C10.294 16.6857 10.4173 16.6016 10.5564 16.5563C10.7907 16.5282 10.9407 16.7532 10.8845 17.072Z" fill="#97A9AF"/>
<path d="M12.3377 17.3719C12.3192 17.5182 12.259 17.6561 12.1642 17.7691C12.0695 17.8822 11.9442 17.9656 11.8033 18.0094C11.569 18.0094 11.419 17.8125 11.4752 17.4937C11.4963 17.3519 11.5566 17.2188 11.6494 17.1095C11.7422 17.0001 11.8637 16.9189 12.0002 16.875C12.244 16.875 12.394 17.0531 12.3377 17.3719Z" fill="#97A9AF"/>
<path d="M6.91895 16.3312L7.41582 15.5812L10.6596 15.0093L11.2502 15.4593L6.91895 16.3312Z" fill="white"/>
<path d="M7.88457 18.5344L8.5877 18.7782L7.69707 24.9375L6.91895 25.2375L7.88457 18.5344Z" fill="#BACCD3"/>
<path d="M12.403 18.3938L8.5874 18.7782L7.69678 24.9375L11.5405 23.3532L12.403 18.3938Z" fill="#97A9AF"/>
<path d="M12.6096 25.0406L8.61581 23.9531C8.28352 23.8637 7.99174 23.6634 7.78884 23.3855C7.58594 23.1076 7.4841 22.7687 7.50019 22.4249C7.51441 22.0359 7.67658 21.6669 7.95361 21.3934C8.23063 21.1198 8.60161 20.9624 8.99081 20.9531L13.4721 20.8687C13.7159 20.8623 13.9576 20.9147 14.1769 21.0214C14.3961 21.1282 14.5865 21.2862 14.7318 21.4821C14.877 21.678 14.973 21.9059 15.0116 22.1468C15.0502 22.3876 15.0302 22.6341 14.9533 22.8656C14.7937 23.388 14.5834 23.8935 14.3252 24.3749C14.1515 24.6583 13.8896 24.8769 13.5797 24.9972C13.2698 25.1174 12.929 25.1327 12.6096 25.0406Z" fill="#8E4028"/>
<path d="M12.2719 27.075L8.2688 25.9875C7.93564 25.8984 7.64274 25.6985 7.43827 25.4208C7.23381 25.143 7.12996 24.804 7.1438 24.4594C7.15802 24.0703 7.3202 23.7014 7.59722 23.4278C7.87425 23.1543 8.24523 22.9968 8.63443 22.9875L13.1251 22.9031C13.3675 22.9009 13.607 22.9561 13.824 23.0641C14.0411 23.1721 14.2295 23.3299 14.3739 23.5246C14.5183 23.7193 14.6147 23.9454 14.6551 24.1844C14.6955 24.4235 14.6787 24.6687 14.6063 24.9C14.4475 25.4093 14.2403 25.9021 13.9876 26.3719C13.8194 26.6621 13.5598 26.8884 13.2495 27.0156C12.9391 27.1428 12.5954 27.1637 12.2719 27.075Z" fill="#8E4028"/>
<path d="M11.5966 29.7468L7.59351 28.6593C7.26035 28.5702 6.96745 28.3703 6.76298 28.0926C6.55851 27.8148 6.45466 27.4758 6.46851 27.1312C6.48057 26.7423 6.64234 26.3731 6.92008 26.1006C7.19782 25.8281 7.57007 25.6733 7.95914 25.6687L12.4404 25.5749C12.6835 25.5707 12.9241 25.6245 13.1422 25.7319C13.3604 25.8393 13.5497 25.9971 13.6946 26.1924C13.8394 26.3877 13.9356 26.6147 13.9751 26.8546C14.0146 27.0945 13.9963 27.3404 13.9216 27.5718C13.7713 28.0887 13.567 28.5883 13.3123 29.0624C13.1413 29.3492 12.8806 29.5717 12.5704 29.6954C12.2603 29.8191 11.9181 29.8372 11.5966 29.7468Z" fill="#8E4028"/>
<path d="M11.9718 26.7562L8.81241 25.9031C8.54067 25.8405 8.29891 25.6859 8.12807 25.4655C7.95722 25.2451 7.86779 24.9725 7.87491 24.6937C7.88711 24.3779 8.02247 24.0794 8.25201 23.8621C8.48154 23.6449 8.78702 23.5261 9.10303 23.5312L12.6468 23.4375C12.8384 23.4338 13.0282 23.4762 13.2001 23.5609C13.372 23.6457 13.5211 23.7704 13.6349 23.9246C13.7488 24.0789 13.824 24.2581 13.8543 24.4474C13.8847 24.6366 13.8692 24.8304 13.8093 25.0125C13.6918 25.4413 13.5283 25.8562 13.3218 26.25C13.1831 26.4704 12.976 26.6392 12.7321 26.7307C12.4883 26.8221 12.2212 26.8311 11.9718 26.7562Z" fill="#FFD097"/>
<path d="M12.5814 24.2437L9.422 23.4374C9.1494 23.3764 8.90661 23.2223 8.73548 23.0015C8.56434 22.7808 8.47558 22.5072 8.4845 22.228C8.49636 21.9203 8.62518 21.6286 8.84469 21.4126C9.0642 21.1966 9.35785 21.0725 9.66575 21.0655L13.2001 20.9999C13.388 20.9909 13.5754 21.0263 13.7471 21.103C13.9188 21.1798 14.0701 21.2958 14.1887 21.4418C14.3073 21.5878 14.3899 21.7596 14.4299 21.9434C14.4699 22.1272 14.4661 22.3178 14.4189 22.4999C14.2964 22.903 14.1331 23.2925 13.9314 23.6624C13.8039 23.8964 13.6015 24.0808 13.3568 24.1862C13.112 24.2916 12.839 24.3118 12.5814 24.2437Z" fill="#FFD097"/>
<path d="M11.4749 29.0624L8.14682 28.5093C7.88303 28.4357 7.65169 28.2755 7.49011 28.0544C7.32854 27.8333 7.24613 27.5642 7.25619 27.2905C7.25616 26.9755 7.38001 26.6731 7.60101 26.4486C7.82202 26.224 8.12245 26.0954 8.43744 26.0905L11.9812 26.0249C12.1706 26.0263 12.357 26.0722 12.5254 26.1588C12.6938 26.2454 12.8395 26.3704 12.9507 26.5236C13.062 26.6768 13.1358 26.8541 13.166 27.041C13.1963 27.228 13.1822 27.4194 13.1249 27.5999C12.9984 28.0015 12.8352 28.3907 12.6374 28.7624C12.3937 29.2312 11.9999 29.1562 11.4749 29.0624Z" fill="#FFD097"/>
<path d="M8.75635 22.7437L14.072 23.1187C14.1239 23.1789 14.1606 23.2508 14.1789 23.3282C14.1973 23.4056 14.1968 23.4862 14.1775 23.5634C14.1582 23.6406 14.1207 23.712 14.0681 23.7716C14.0154 23.8313 13.9493 23.8774 13.8751 23.9062C13.3032 24.253 9.28135 23.4468 9.28135 23.4468C9.0744 23.238 8.89769 23.0014 8.75635 22.7437Z" fill="#D8B18B"/>
<path d="M7.81885 25.2095L13.1438 25.5845C13.1935 25.647 13.2279 25.7201 13.2444 25.7982C13.261 25.8762 13.2592 25.957 13.2392 26.0343C13.2192 26.1115 13.1816 26.1831 13.1292 26.2433C13.0769 26.3035 13.0113 26.3508 12.9376 26.3813C12.3657 26.7188 8.34385 25.9126 8.34385 25.9126C8.13754 25.7033 7.9609 25.4667 7.81885 25.2095Z" fill="#D8B18B"/>
<path d="M7.5 27.9375L12.825 28.3125C12.8769 28.3728 12.9136 28.4446 12.9319 28.522C12.9503 28.5994 12.9498 28.6801 12.9305 28.7572C12.9112 28.8344 12.8737 28.9058 12.8211 28.9655C12.7685 29.0251 12.7023 29.0712 12.6281 29.1C12.0563 29.4469 8.025 28.6406 8.025 28.6406C7.82109 28.4293 7.6447 28.193 7.5 27.9375Z" fill="#BF916B"/>
</g>
<defs>
<linearGradient id="paint0_linear_1_16577" x1="8.78456" y1="5.98129" x2="27.7127" y2="5.98129" gradientUnits="userSpaceOnUse">
<stop stop-color="#F38C05"/>
<stop offset="1" stop-color="#B85A1B"/>
</linearGradient>
<linearGradient id="paint1_linear_1_16577" x1="22.9123" y1="12.15" x2="27.9279" y2="12.15" gradientUnits="userSpaceOnUse">
<stop stop-color="#F38C05"/>
<stop offset="1" stop-color="#B85A1B"/>
</linearGradient>
<linearGradient id="paint2_linear_1_16577" x1="16.8673" y1="25.2352" x2="17.5635" y2="25.2744" gradientUnits="userSpaceOnUse">
<stop stop-color="#BDD6DE"/>
<stop offset="1" stop-color="white"/>
</linearGradient>
<linearGradient id="paint3_linear_1_16577" x1="16.6899" y1="23.2239" x2="17.651" y2="23.278" gradientUnits="userSpaceOnUse">
<stop stop-color="white"/>
<stop offset="1" stop-color="#BDD6DE"/>
</linearGradient>
<linearGradient id="paint4_linear_1_16577" x1="4.69688" y1="-3.56022" x2="4.59694" y2="-2.52184" gradientUnits="userSpaceOnUse">
<stop stop-color="#BDD6DE"/>
<stop offset="1" stop-color="white"/>
</linearGradient>
<linearGradient id="paint5_linear_1_16577" x1="-4.33089" y1="-4.89231" x2="-4.52008" y2="-3.93456" gradientUnits="userSpaceOnUse">
<stop stop-color="#BDD6DE"/>
<stop offset="1" stop-color="white"/>
</linearGradient>
<linearGradient id="paint6_linear_1_16577" x1="15.9751" y1="13.7062" x2="22.1532" y2="13.7062" gradientUnits="userSpaceOnUse">
<stop stop-color="#F38C05"/>
<stop offset="1" stop-color="#B85A1B"/>
</linearGradient>
<linearGradient id="paint7_linear_1_16577" x1="7.84668" y1="12.8437" x2="14.0248" y2="12.8437" gradientUnits="userSpaceOnUse">
<stop stop-color="#F38C05"/>
<stop offset="1" stop-color="#B85A1B"/>
</linearGradient>
<clipPath id="clip0_1_16577">
<rect width="30" height="30" fill="white"/>
</clipPath>
</defs>
</svg>
