<svg width="24" height="24" viewBox="0 0 24 24" fill="none" xmlns="http://www.w3.org/2000/svg">
<path d="M6.00005 10.8002H18C18.3183 10.8002 18.6235 10.9266 18.8486 11.1517C19.0736 11.3767 19.2 11.6819 19.2 12.0002V20.4002C19.2 20.7185 19.0736 21.0237 18.8486 21.2487C18.6235 21.4738 18.3183 21.6002 18 21.6002H6.00005C5.68179 21.6002 5.37656 21.4738 5.15152 21.2487C4.92648 21.0237 4.80005 20.7185 4.80005 20.4002V12.0002C4.80005 11.6819 4.92648 11.3767 5.15152 11.1517C5.37656 10.9266 5.68179 10.8002 6.00005 10.8002ZM14.4 7.2002L14.814 2.1042L18 1.2002L17.584 6.2962L14.4 7.2002ZM9.60005 8.4002L10.014 3.3042L13.2 2.4002L12.785 7.49619L9.60005 8.4002ZM4.80005 9.6002L5.21405 4.5042L8.40005 3.6002L7.98405 8.6962L4.80005 9.6002Z" fill="#F4BB2E"/>
</svg>
