<svg width="30" height="30" viewBox="0 0 30 30" fill="none" xmlns="http://www.w3.org/2000/svg">
<g clip-path="url(#clip0_1_9398)">
<path d="M13.7812 1.50017C13.7812 1.50017 19.8749 0.281419 21.7499 4.40642C23.6249 8.53142 20.6249 9.84392 20.6249 9.84392L18.5624 7.96892C18.5624 7.96892 21.6562 5.34392 18.9374 3.65642C16.2187 1.96892 14.4374 2.53142 14.4374 2.53142L13.7812 1.50017ZM21.9374 18.0002C21.9374 18.0002 24.4687 25.3127 19.4999 25.6877L16.5937 24.4689L16.4062 25.3127C16.4062 25.3127 18.0937 27.1877 20.5312 26.9064C22.9687 26.6252 26.4374 21.9377 23.2499 17.9064L21.9374 18.0002ZM3.18744 10.5002C3.18744 10.5002 -1.50006 14.5314 0.562441 18.4689C2.62494 22.4064 5.53119 21.0939 5.53119 21.0939L5.34369 18.2814C5.34369 18.2814 1.31244 19.0314 1.68744 15.9377C2.06244 12.8439 3.65619 11.7189 3.65619 11.7189L3.28119 10.5939M11.6249 13.5002C11.6249 13.5002 12.9374 14.8127 13.1249 16.5002L15.4687 15.6564C15.4687 15.6564 13.3124 13.1252 13.4999 12.0002C13.4999 12.0002 12.3749 13.5002 11.6249 13.5002Z" fill="#962C2C"/>
<path d="M13.5938 16.2188C13.5938 16.2188 18.1875 9.00004 29.1563 10.5L29.7188 10.7813C29.7188 10.7813 30.0938 14.1563 30 15.9375C29.8125 17.7188 29.1563 22.6875 24.75 23.1563C20.3438 23.625 17.1563 22.2188 13.3125 16.125" fill="#962C2C"/>
<path d="M15.2812 16.2185C15.2812 16.2185 19.0312 10.2185 28.2188 11.4373L28.6875 11.7185C28.6875 11.7185 29.0625 14.531 28.875 16.031C28.7812 17.4373 28.2188 21.656 24.5625 22.031C20.9063 22.406 18.2812 21.281 15.0938 16.2185" fill="#E52E2E"/>
<path d="M12.6565 15.4687C12.6565 15.4687 18.6565 10.4062 15.9377 0.65625L15.5627 0.1875C15.5627 0.1875 12.3752 0.28125 10.8752 0.5625C9.3752 0.84375 4.78145 2.15625 4.96895 6.1875C5.15645 10.2188 6.7502 12.9375 12.844 15.6562M19.4065 17.8125C19.4065 17.8125 19.594 22.7812 24.9377 22.3125C24.9377 22.3125 22.5002 22.9688 19.1252 21.75L19.4065 17.8125Z" fill="#962C2C"/>
<path d="M17.3438 16.0313C17.3438 16.0313 20.0625 11.7188 26.5312 12.5626L26.9062 12.7501C26.9062 12.7501 27.1875 14.8126 27.0937 15.8438C27 16.8751 26.625 19.8751 24 20.1563C21.375 20.4376 19.5 19.5938 17.25 16.0313" fill="#EF5858"/>
<path d="M13.6877 1.5C13.6877 1.5 16.8752 5.4375 13.9689 11.3438L13.6877 11.625C13.6877 11.625 11.7189 11.1563 10.7814 10.7813C9.84394 10.4063 7.12519 9 7.68769 6.46875C8.25019 3.9375 9.65644 2.4375 13.7814 1.40625" fill="#E52E2E"/>
<path d="M10.5937 17.625C10.5937 17.625 12.0937 20.3438 10.5937 23.1563L9.1875 21.8438L10.5937 17.625Z" fill="#A3704D"/>
<path d="M14.156 19.2186C14.156 19.2186 14.7185 25.2186 11.531 26.3436C8.34353 27.3748 2.81228 27.5623 3.37478 21.1873C3.93728 14.8123 11.4373 17.3436 11.4373 17.3436L14.156 19.2186Z" fill="#734F36"/>
<path d="M13.5002 19.5001C13.5002 19.5001 13.969 24.8439 11.1565 25.7814C8.34399 26.7189 3.46899 26.9064 3.93774 21.2814C4.40649 15.6564 10.969 17.9064 10.969 17.9064L13.5002 19.5001Z" fill="#A3704D"/>
<path d="M9.56232 5.43755C9.56232 5.43755 11.2498 12.0938 16.6873 16.125C18.4686 17.4375 18.8436 19.875 17.5311 21.5625C17.2498 21.9375 16.8748 22.3125 16.4061 22.5C14.0623 23.5313 11.4373 22.5938 8.99982 20.25C6.56232 17.9063 1.78107 14.625 2.53107 5.81255C2.43732 5.81255 8.71857 4.2188 9.56232 5.43755Z" fill="#734F36"/>
<path d="M16.2185 19.8748C17.4373 20.7186 18.1873 22.2186 17.9998 23.7186C17.8123 25.4998 17.156 27.6561 15.3748 28.2186C12.1873 29.2498 6.65603 29.4373 7.21853 23.0623C7.78103 16.6873 15.281 19.2186 15.281 19.2186L16.2185 19.8748Z" fill="#734F36"/>
<path d="M8.9998 6.28122C8.9998 6.28122 10.5936 12.8437 16.0311 16.3125C17.0623 16.9687 17.5311 18.0937 17.3436 19.3125C17.1561 20.25 16.7811 21.1875 15.8436 21.6562C13.7811 22.5937 11.3436 21.75 9.09355 19.6875C6.84355 17.625 2.53105 14.625 3.1873 6.65622C3.1873 6.65622 8.2498 5.24997 8.9998 6.28122Z" fill="#A3704D"/>
<path d="M4.78131 1.5C4.78131 1.5 2.62506 1.5 1.68756 3.09375C0.750055 4.6875 0.750056 7.3125 2.53131 8.71875C2.53131 8.71875 3.84381 9.375 4.12506 8.90625C4.40631 8.4375 4.78131 6.9375 4.78131 6.9375V1.5Z" fill="#734F36"/>
<path d="M4.12524 1.96875C4.12524 1.96875 2.71899 2.0625 1.96899 3.46875C1.21899 4.875 1.12524 6.9375 2.62524 8.15625C2.62524 8.15625 3.65649 8.71875 3.93774 8.25C4.21899 7.78125 4.50024 6.5625 4.50024 6.5625L4.12524 1.96875Z" fill="#A3704D"/>
<path d="M3.37513 6.56237C3.37513 6.56237 3.00013 8.62487 6.46888 9.18737C9.93763 9.74987 12.0001 9.18737 12.2814 8.24987C12.5626 7.31237 12.3751 6.84362 10.7814 5.62487C9.18763 4.40612 9.00013 1.68737 6.28138 1.21862C3.56263 0.749873 2.71888 3.74987 3.37513 6.56237Z" fill="#A3704D"/>
<path d="M4.03159 6.46841C4.03159 6.46841 3.75034 8.15591 6.65659 8.71841C9.56284 9.18716 11.3441 8.71841 11.5316 7.96841C11.7191 7.21841 11.5316 6.84341 10.3128 5.81216C9.09409 4.78091 8.81284 2.43716 6.46909 2.06216C4.12534 1.68716 3.46909 4.03091 4.03159 6.46841ZM15.7503 20.3434C16.8753 21.0934 17.4378 22.4059 17.3441 23.7184C17.1566 25.3122 16.5941 27.1872 15.0941 27.6559C12.2816 28.5934 7.40659 28.7809 7.87534 23.1559C8.34409 17.5309 14.9066 19.7809 14.9066 19.7809L15.7503 20.3434Z" fill="#A3704D"/>
<path opacity="0.53" d="M3.75025 4.21875C3.75025 4.21875 3.56275 6.46875 7.12524 7.3125C10.6877 8.15625 12.0002 7.96875 12.0002 7.96875C12.0002 7.96875 11.719 9 10.219 9.09375C8.71899 9.09375 2.9065 10.3125 3.75025 4.21875Z" fill="#A3704D"/>
<path opacity="0.46" d="M1.6875 3.375C1.6875 3.375 1.3125 6.75 3.65625 6.84375C3.65625 6.84375 4.3125 7.5 4.21875 7.875C4.125 8.25 4.03125 8.8125 3.5625 8.8125C3.09375 8.8125 0.0937524 7.96875 1.6875 3.375Z" fill="#734F36"/>
<path d="M5.53117 3.28141C5.53117 3.00016 5.71867 2.71891 5.90617 2.53141C6.18742 2.43766 6.56242 2.53141 6.74992 2.71891C7.40617 3.18766 7.87492 3.84391 8.34367 4.59391C8.43742 4.78141 8.53117 4.87516 8.53117 5.06266C8.43742 5.34391 8.15617 5.53141 7.87492 5.53141C6.65617 5.53141 5.34367 4.59391 5.53117 3.28141ZM15.7499 16.6877C14.8124 15.8439 13.6874 15.2814 12.6562 14.5314C11.5312 13.6877 10.6874 12.5627 10.2187 11.3439C10.1249 11.0627 10.0312 10.8752 9.93742 10.6877C9.74992 10.5002 9.56242 10.3127 9.37492 10.2189C8.90617 10.1252 8.43742 10.5939 8.34367 11.0627C8.24992 11.5314 8.53117 12.0939 8.81242 12.4689L10.7812 15.6564C11.7187 16.9689 12.9374 18.2814 14.4374 18.7502C14.8124 18.8439 15.1874 18.9377 15.5624 18.8439C15.9374 18.7502 16.2187 18.4689 16.4062 18.1877C16.4999 17.6252 16.1249 17.0627 15.7499 16.6877Z" fill="#A3704D"/>
<path d="M5.90625 8.99982C5.90625 9.18732 5.8125 9.37482 5.8125 9.46857C5.625 10.1248 5.625 10.7811 5.71875 11.4373C6.09375 13.9686 7.3125 16.4061 9 18.3748C9.1875 18.6561 9.46875 18.8436 9.46875 19.2186C9.46875 19.4998 9.1875 19.9686 8.90625 19.8748C8.8125 19.8748 8.625 19.7811 8.53125 19.5936L6 17.0623C5.25 16.3123 4.5 15.5623 4.03125 14.6248C3.28125 13.2186 3.1875 11.5311 3.09375 9.93732C3.09375 9.65607 3.09375 9.37482 3.1875 9.09357C3.28125 8.81232 3.46875 8.53107 3.65625 8.43732C4.03125 8.15607 4.5 8.15607 4.875 8.34357C5.25 8.43732 5.90625 8.71857 5.90625 8.99982ZM7.6875 20.0623C7.40625 20.4373 7.03125 20.8123 6.65625 21.1873C6 22.0311 5.8125 23.2498 6.1875 24.1873C6.5625 25.0311 7.21875 25.5936 7.96875 26.1561C7.125 26.5311 6.09375 26.5311 5.34375 25.9686C4.6875 25.4998 4.21875 24.6561 3.9375 23.9061C3.75 23.3436 3.5625 22.6873 3.5625 22.0311C3.5625 20.6248 4.125 19.3123 5.0625 18.3748C5.34375 18.0936 5.71875 17.8123 6.09375 17.8123C6.75 17.8123 7.125 18.3748 7.5 18.7498C8.0625 19.0311 7.96875 19.5936 7.6875 20.0623Z" fill="#734F36"/>
<path opacity="0.38" d="M8.90609 23.25C9.09359 24.2812 9.56234 25.3125 10.4061 25.875C11.0623 26.3437 11.9061 26.5312 12.7498 26.5312C13.5936 26.5312 14.4373 26.4375 15.1873 26.25C15.5623 26.1562 16.0311 26.25 16.1248 26.5312C16.2186 26.8125 16.0311 27.0937 15.7498 27.2812C14.9998 27.9375 13.9686 28.2187 12.9373 28.3125C11.9061 28.4062 10.9686 28.2187 9.93734 28.125C9.46859 28.0312 8.99984 27.9375 8.62484 27.75C8.15609 27.4687 7.96859 26.9062 7.78109 26.4375C7.31234 24.9375 7.40609 23.3437 7.96859 21.9375C8.06234 21.6562 8.62484 20.1562 8.99984 20.8125C9.09359 21 8.81234 21.75 8.81234 21.9375C8.81234 22.3125 8.81234 22.7812 8.90609 23.25Z" fill="#734F36"/>
<path d="M8.4375 19.4062C8.4375 19.4062 6.65625 21.1875 6 23.9062C5.34375 26.625 4.125 24.0938 4.125 24.0938C4.125 24.0938 4.3125 26.0625 7.96875 26.4375C7.96875 26.4375 7.40625 21.6562 8.4375 20.1562L9 19.9687L8.4375 19.4062Z" fill="#A3704D"/>
<path d="M15.469 18C15.469 18 16.219 24 13.0315 25.2188C9.84399 26.4375 4.40649 26.7188 4.68774 20.3438C4.96899 13.9688 12.5627 16.2188 12.5627 16.2188L15.469 18Z" fill="#A3704D"/>
<path d="M14.8127 18.2811C14.8127 18.2811 15.4689 23.5311 12.7502 24.6561C9.93766 25.6873 5.15641 26.0623 5.43766 20.4373C5.71891 14.8123 12.3752 16.7811 12.3752 16.7811L14.8127 18.2811Z" fill="#FCC097"/>
<path d="M10.4063 4.31259C10.4063 4.31259 12.2813 10.9688 17.9063 14.7188C19.6876 15.9376 20.2501 18.3751 19.0313 20.1563C18.7501 20.5313 18.3751 20.9063 17.9063 21.0938C15.6563 22.2188 12.9376 21.3751 10.4063 19.1251C7.87507 16.8751 2.90632 13.8751 3.28132 5.06259C3.28132 5.06259 9.46882 3.18759 10.4063 4.31259Z" fill="#A3704D"/>
<path d="M17.6252 18.5625C18.9377 19.4063 19.6877 20.8125 19.5002 22.3125C19.4065 24.0938 18.844 26.25 17.0627 26.9063C13.8752 28.125 8.43774 28.5 8.71899 22.125C9.00024 15.75 16.594 18 16.594 18L17.6252 18.5625Z" fill="#A3704D"/>
<path d="M9.84384 5.25015C9.84384 5.25015 11.7188 11.7189 17.2501 15.0001C18.2813 15.5626 18.8438 16.7814 18.6563 17.9064C18.5626 18.8439 18.1876 19.7814 17.2501 20.2501C15.1876 21.2814 12.7501 20.4376 10.5001 18.4689C8.25008 16.5001 3.75009 13.7814 4.12509 5.81265C4.12509 5.81265 9.09384 4.2189 9.84384 5.25015Z" fill="#FCC097"/>
<path d="M5.4375 0.65625C5.4375 0.65625 3.28125 0.75 2.4375 2.4375C1.59375 4.125 1.59375 6.75 3.46875 8.0625C3.46875 8.0625 4.78125 8.71875 5.0625 8.15625C5.34375 7.5 5.625 6 5.625 6L5.4375 0.65625Z" fill="#A3704D"/>
<path d="M4.78125 1.125C4.78125 1.125 3.375 1.3125 2.625 2.71875C1.875 4.125 1.96875 6.1875 3.5625 7.3125C3.5625 7.3125 4.59375 7.78125 4.875 7.40625C5.15625 6.9375 5.4375 5.71875 5.4375 5.71875L4.78125 1.125Z" fill="#E8AB82"/>
<path d="M4.21866 5.7189C4.21866 5.7189 3.93741 7.7814 7.40616 8.25015C10.8749 8.7189 12.9374 8.06265 13.2187 7.12515C13.4062 6.18765 13.2187 5.7189 11.6249 4.5939C10.0312 3.4689 9.65616 0.656401 6.93741 0.281401C4.21866 -0.0935989 3.46866 2.9064 4.21866 5.7189Z" fill="#A3704D"/>
<path d="M4.87499 5.53125C4.87499 5.53125 4.59374 7.21875 7.59374 7.6875C10.5 8.0625 12.2812 7.5 12.4687 6.75C12.6562 6 12.4687 5.625 11.1562 4.59375C9.84374 3.5625 9.46874 1.21875 7.21874 0.9375C4.96874 0.65625 4.21874 3.1875 4.87499 5.53125Z" fill="#E8AB82"/>
<path d="M17.1564 19.0311C18.2814 19.7811 18.9377 20.9998 18.8439 22.4061C18.7502 23.9998 18.2814 25.8748 16.6877 26.4373C13.8752 27.4686 9.09391 27.8436 9.37516 22.2186C9.65641 16.5936 16.3127 18.5623 16.3127 18.5623L17.1564 19.0311Z" fill="#FCC097"/>
<path opacity="0.53" d="M4.59371 3.375C4.59371 3.375 4.49996 5.625 8.06246 6.28125C11.625 6.9375 12.9375 6.75 12.9375 6.75C12.9375 6.75 12.6562 7.78125 11.1562 7.96875C9.6562 8.15625 3.93746 9.5625 4.59371 3.375ZM2.43746 2.625C2.43746 2.625 2.15621 6 4.49996 6.09375C4.49996 6.09375 5.15621 6.65625 5.06246 7.125C5.06246 7.5 4.96871 7.96875 4.49996 7.96875C4.03121 7.96875 1.03121 7.21875 2.43746 2.625Z" fill="#A3704D"/>
<path d="M6.1875 2.3439C6.1875 2.06265 6.28125 1.7814 6.5625 1.5939C6.84375 1.4064 7.21875 1.5939 7.40625 1.68765C8.15625 2.06265 8.625 2.81265 9.09375 3.4689C9.28125 3.75015 9.375 3.8439 9.28125 4.0314C9.28125 4.31265 8.90625 4.4064 8.625 4.50015C7.5 4.5939 6.1875 3.6564 6.1875 2.3439ZM16.9688 15.3751C16.0312 14.5314 14.8125 14.0626 13.7813 13.4064C12.6563 12.6564 11.8125 11.5314 11.25 10.3126C11.1562 10.0314 11.0625 9.8439 10.875 9.6564C10.6875 9.4689 10.5 9.2814 10.2187 9.18765C9.75 9.0939 9.28125 9.56265 9.1875 10.1251C9.1875 10.5939 9.375 11.0626 9.75 11.5314C9.75 11.5314 10.9688 13.5939 11.9062 14.7189C12.9375 16.0314 14.1562 17.2501 15.75 17.6252C16.125 17.7189 16.5 17.7189 16.875 17.6252C17.25 17.5314 17.5312 17.2502 17.625 16.8752C17.7187 16.3127 17.3438 15.7501 16.9688 15.3751Z" fill="#FFE8D9"/>
<path opacity="0.3" d="M6.84391 8.06242C6.84391 8.24992 6.75016 8.43742 6.75016 8.53117C6.56266 9.18742 6.65641 9.84367 6.75016 10.4999C7.21891 13.0312 8.53141 15.3749 10.2189 17.2499C10.4064 17.5312 10.6877 17.7187 10.7814 18.0937C10.8752 18.3749 10.5939 18.8437 10.2189 18.7499C10.0314 18.7499 9.93766 18.6562 9.84391 18.5624L7.21891 16.1249C6.46891 15.3749 5.71891 14.6249 5.15641 13.7812C4.31266 12.3749 4.12516 10.6874 4.03141 9.09367C4.03141 8.81242 3.93766 8.53117 4.03141 8.24992C4.12516 7.96867 4.31266 7.78117 4.50016 7.59367C4.87516 7.31242 5.34391 7.31242 5.71891 7.40617C6.18766 7.49992 6.84391 7.78117 6.84391 8.06242Z" fill="#A3704D"/>
<path opacity="0.38" d="M9.09413 19.0312C8.81288 19.5 8.43788 19.7813 8.15663 20.1563C7.50038 21 7.31288 22.2187 7.78163 23.25C8.15663 24.0937 8.90663 24.6562 9.56288 25.125C8.71913 25.5938 7.68788 25.5 6.84413 25.0313C6.09413 24.5625 5.71913 23.8125 5.34413 22.9688C5.15663 22.4063 4.96913 21.75 4.87538 21.0938C4.78163 19.6875 5.34413 18.2813 6.28163 17.3438C6.56288 17.0625 6.93788 16.7812 7.31288 16.7812C7.96913 16.7812 8.34413 17.3437 8.81288 17.625C9.37538 18 9.37538 18.5625 9.09413 19.0312Z" fill="#A3704D"/>
<path opacity="0.38" d="M10.3125 22.2187C10.5 23.2499 11.0625 24.1874 11.9062 24.7499C12.5625 25.2187 13.5 25.4062 14.25 25.3124C15.0937 25.3124 15.9375 25.1249 16.6875 24.9374C17.0625 24.8437 17.5312 24.8437 17.625 25.2187C17.7187 25.4999 17.5312 25.7812 17.3438 25.9687C16.5938 26.6249 15.5625 26.9999 14.625 27.0937C13.5938 27.1874 12.6562 27.0937 11.625 26.9999C11.1562 26.9062 10.6875 26.9062 10.3125 26.6249C9.84375 26.3437 9.5625 25.8749 9.375 25.3124C8.8125 23.9062 8.8125 22.2187 9.375 20.8124C9.46875 20.5312 10.0313 18.9374 10.4063 19.5937C10.5 19.7812 10.3125 20.5312 10.3125 20.7187C10.2188 21.2812 10.3125 21.7499 10.3125 22.2187Z" fill="#A3704D"/>
<path d="M9.75 18.375C9.75 18.375 8.0625 20.25 7.5 22.9687C6.9375 25.6875 5.625 23.25 5.625 23.25C5.625 23.25 5.90625 25.2188 9.46875 25.5C9.46875 25.5 8.71875 20.7187 9.65625 19.2187L10.2187 18.9375L9.75 18.375Z" fill="#734F36"/>
<path d="M18.8437 15.75C18.8437 15.75 20.5313 17.5313 19.4063 22.9688L17.5312 21.2813L18.8437 15.75Z" fill="#A3704D"/>
<path d="M18.1875 16.0312C18.1875 16.0312 19.875 17.8125 18.75 23.25L16.875 21.5625L18.1875 16.0312Z" fill="#FCC097"/>
<path d="M14.3437 20.1564C15.0937 20.2501 15.9374 20.6251 16.3124 21.3751C16.7812 22.3126 16.2187 23.4376 15.3749 23.9064C14.4374 24.3751 13.3124 24.1876 12.5624 23.5314C12.0937 23.1564 11.7187 22.5939 11.5312 22.0314C11.1562 20.2501 12.9374 19.9689 14.3437 20.1564Z" fill="#FFE8D9"/>
<path d="M4.3125 25.125C4.3125 25.125 7.40625 27.4688 8.34375 21.6562C8.34375 21.6562 8.625 22.125 8.625 22.3125C8.625 22.5 7.21875 25.9687 9.5625 28.125L7.875 26.25L8.0625 26.7187C8.0625 26.7187 7.40625 26.8125 7.21875 26.7187C7.03125 26.7187 4.875 26.3437 4.3125 25.125Z" fill="#734F36"/>
<path d="M16.5938 27.2813L16.2188 27.75L17.8125 28.7813L26.625 20.0625L25.125 18.1875L16.5938 27.2813Z" fill="#9A4C18"/>
<path d="M26.8123 22.5C26.531 25.9688 23.3435 28.9688 19.6873 28.875C16.1248 28.875 13.8748 25.875 14.531 22.5C15.1873 19.3125 18.1873 16.875 21.3748 16.7812C24.656 16.7812 27.0935 19.2188 26.8123 22.5Z" fill="#9A4C18"/>
<path d="M27.6562 23.6252C27.3749 26.9064 24.1874 29.7189 20.7187 29.7189C17.2499 29.7189 14.9999 26.9064 15.6562 23.6252C16.3124 20.6252 19.2187 18.1877 22.3124 18.1877C25.5937 18.0939 27.9374 20.5314 27.6562 23.6252Z" fill="#9A4C18"/>
<path d="M17.5312 27.4687L19.0312 28.3125L26.25 20.7188L25.0312 19.2188L17.5312 27.4687Z" fill="#F49937"/>
<path d="M27 23.625C26.7188 26.4375 24.0938 28.875 21.1875 28.7812C18.2813 28.7812 16.4063 26.3438 16.9688 23.625C17.4375 21 19.9688 18.9375 22.5938 18.9375C25.2188 18.9375 27.2813 20.9062 27 23.625Z" fill="#F49937"/>
<path d="M26.0626 22.5C25.7813 25.5 22.9688 28.125 19.8751 28.0312C16.7813 28.0312 14.8126 25.5 15.3751 22.5C15.9376 19.6875 18.5626 17.5312 21.3751 17.4375C24.1876 17.4375 26.2501 19.5937 26.0626 22.5Z" fill="#FFEDC0"/>
<path d="M25.6875 22.6875C25.4063 25.5 22.7813 27.9375 19.875 27.8438C16.9688 27.8438 15.0938 25.4062 15.6563 22.6875C16.125 20.0625 18.6563 18 21.2813 18C23.9063 18 25.875 20.0625 25.6875 22.6875Z" fill="#FFD766"/>
<path d="M24.4686 22.6875C24.2811 24.8438 22.2186 26.7188 19.9686 26.7188C17.7186 26.7188 16.3123 24.9375 16.6873 22.7812C17.0623 20.7188 19.0311 19.125 21.0936 19.0312C23.1561 19.0312 24.7498 20.625 24.4686 22.6875Z" fill="#FFEDC0"/>
<path d="M24.5623 22.125C24.3748 24.2812 22.3123 26.0625 20.0623 26.0625C17.8123 26.0625 16.4061 24.2812 16.7811 22.125C17.1561 20.0625 19.1248 18.4688 21.1873 18.4688C23.2498 18.4688 24.7498 20.0625 24.5623 22.125Z" fill="#F49937"/>
<path d="M23.9065 22.6875C23.719 24.5625 22.0315 26.0625 20.1565 26.0625C18.2815 26.0625 17.0627 24.5625 17.344 22.6875C17.6252 20.9063 19.3127 19.5938 21.094 19.5C22.7815 19.5938 24.094 20.9063 23.9065 22.6875Z" fill="#FFD766"/>
<path d="M21.5625 19.2188L22.0313 21.1875L24.1875 21.75L22.2188 23.1563L22.0313 25.4063L20.25 24.0938L17.9063 24.9375L18.9375 22.7812L17.7188 21.0938L20.0625 21L21.5625 19.2188Z" fill="#F49937"/>
</g>
<defs>
<clipPath id="clip0_1_9398">
<rect width="30" height="30" fill="white"/>
</clipPath>
</defs>
</svg>
