<svg width="30" height="30" viewBox="0 0 30 30" fill="none" xmlns="http://www.w3.org/2000/svg">
<g clip-path="url(#clip0_1_9807)">
<path d="M19.9689 16.875C21.8439 17.5313 23.5314 19.2188 24.1876 21.4688C24.7501 23.8125 24.0001 26.7188 22.2189 28.0312C21.0939 28.875 19.6876 29.1563 18.3751 29.1563C15.1876 29.1563 12.0001 28.0313 8.81261 26.9063C7.78136 26.5313 6.65636 26.1563 5.71886 25.4063C4.78136 24.6563 4.03136 23.5313 3.84386 22.2188C3.65636 20.3438 4.68761 18.5625 6.00011 17.625C8.34386 16.0312 10.6876 15.375 13.2189 15.375C15.4689 15.375 18.0001 16.125 19.9689 16.875Z" fill="#293338"/>
<path d="M19.2188 17.0625C20.9063 17.625 22.5 19.0313 22.9688 21.0938C23.5313 23.1563 22.7813 25.6875 21.1875 26.8125C20.1563 27.5625 18.9375 27.75 17.7188 27.75C14.8125 27.75 12 26.8125 9.09377 25.7813C8.15627 25.4063 7.12502 25.125 6.28127 24.4688C5.43752 23.8125 4.68752 22.875 4.59377 21.75C4.40627 20.1563 5.34377 18.5625 6.56252 17.7188C8.62502 16.3125 10.875 15.75 13.0313 15.75C15.0938 15.75 17.3438 16.4063 19.2188 17.0625Z" fill="#425763"/>
<path d="M12.1875 19.6875L13.5 21.75C13.5937 21.8438 13.5937 22.0313 13.5 22.2188L10.7812 26.5312C10.7812 26.5312 7.96875 26.0625 7.5 25.3125L8.0625 20.0625L9.28125 18.6562L12.1875 19.6875Z" fill="#E8CCAA"/>
<path d="M24.0523 11.5953C24.072 6.15871 19.6807 1.73554 14.2442 1.71584C8.80764 1.69615 4.38447 6.08737 4.36477 11.5239C4.34507 16.9605 8.7363 21.3836 14.1729 21.4033C19.6094 21.423 24.0326 17.0318 24.0523 11.5953Z" fill="#293338"/>
<path d="M7.78125 2.34384C7.78125 2.34384 8.71875 -0.281158 15.375 9.15974e-05C17.7187 0.0938416 25.9688 4.78134 24.5625 13.5938C24.5625 13.5938 23.1563 17.9063 20.8125 17.8126C20.8125 17.8126 21.5625 17.1563 20.625 14.9063C19.6875 12.6563 18.75 11.3438 17.25 10.6876C15.8437 10.1251 7.78125 2.34384 7.78125 2.34384Z" fill="#72402A"/>
<path d="M20.5312 8.4375C22.8612 8.4375 24.75 6.5487 24.75 4.21875C24.75 1.8888 22.8612 0 20.5312 0C18.2013 0 16.3125 1.8888 16.3125 4.21875C16.3125 6.5487 18.2013 8.4375 20.5312 8.4375Z" fill="#72402A"/>
<path d="M20.25 7.6875C22.114 7.6875 23.625 6.17646 23.625 4.3125C23.625 2.44854 22.114 0.9375 20.25 0.9375C18.386 0.9375 16.875 2.44854 16.875 4.3125C16.875 6.17646 18.386 7.6875 20.25 7.6875Z" fill="#89563A"/>
<path d="M23.73 10.646C23.7497 5.20949 19.3585 0.786325 13.9219 0.766626C8.48537 0.746926 4.0622 5.13815 4.0425 10.5747C4.02281 16.0113 8.41403 20.4344 13.8506 20.4541C19.2871 20.4738 23.7103 16.0826 23.73 10.646Z" fill="#A67A65"/>
<path d="M23.25 9.9375C23.25 15.1875 18.9375 19.5 13.6875 19.4063C8.4375 19.4063 4.21875 15.0938 4.21875 9.84375C4.21875 4.59375 8.53125 0.84375 13.7812 0.84375C19.0312 0.84375 23.3438 4.6875 23.25 9.9375Z" fill="#E5A98C"/>
<path d="M23.2144 9.67685C23.2328 4.60273 19.2603 0.4749 14.3415 0.457076C9.4227 0.439253 5.42033 4.53819 5.40194 9.61231C5.38356 14.6864 9.35612 18.8143 14.2749 18.8321C19.1937 18.8499 23.1961 14.751 23.2144 9.67685Z" fill="#E8CCAA"/>
<path d="M18.2888 10.9146C18.3021 7.23841 15.4167 4.24781 11.8441 4.23486C8.27154 4.22192 5.36459 7.19153 5.35127 10.8677C5.33795 14.5438 8.22331 17.5344 11.7959 17.5474C15.3685 17.5603 18.2754 14.5907 18.2888 10.9146Z" fill="#FAEACF"/>
<path d="M14.868 11.6536C14.8701 11.084 14.494 10.621 14.028 10.6193C13.562 10.6176 13.1826 11.0779 13.1805 11.6475C13.1784 12.217 13.5545 12.6801 14.0205 12.6818C14.4865 12.6835 14.8659 12.2231 14.868 11.6536Z" fill="#425763"/>
<path d="M14.3409 11.2328C14.3414 11.0775 14.2579 10.9513 14.1544 10.9509C14.0508 10.9505 13.9664 11.0761 13.9659 11.2314C13.9653 11.3868 14.0488 11.513 14.1523 11.5134C14.2559 11.5137 14.3403 11.3881 14.3409 11.2328Z" fill="white"/>
<path d="M7.78499 10.1038C7.78705 9.53423 7.41096 9.07115 6.94497 9.06946C6.47898 9.06778 6.09955 9.52811 6.09749 10.0977C6.09542 10.6672 6.47151 11.1303 6.9375 11.132C7.40349 11.1337 7.78292 10.6733 7.78499 10.1038Z" fill="#425763"/>
<path d="M7.25834 9.68349C7.25891 9.52816 7.17542 9.40193 7.07186 9.40156C6.96831 9.40118 6.88391 9.5268 6.88334 9.68213C6.88278 9.83746 6.96627 9.96368 7.06982 9.96406C7.17338 9.96443 7.25778 9.83882 7.25834 9.68349Z" fill="white"/>
<path d="M20.25 11.3435C20.25 11.3435 21 10.6873 21.6562 10.9685C22.3125 11.2498 22.2187 13.2185 20.5312 13.4998L20.25 11.3435Z" fill="#FAEACF"/>
<path d="M12.0937 16.0313C12.0937 16.0313 11.1563 15.9375 10.5938 15.375C9.9375 15 9.28125 15 9.1875 15C9.09375 15 8.90625 14.8125 8.71875 14.7188C8.53125 14.625 8.25 14.625 8.15625 14.7188C8.15625 14.8125 8.4375 15.2812 8.4375 15.2812C8.4375 15.2812 8.53125 15.6563 8.4375 15.9375C8.34375 16.125 8.4375 16.7813 9.09375 16.9688C9.75 17.1563 10.2188 17.0625 10.5938 16.875L12.0937 16.0313Z" fill="#931655"/>
<path d="M14.3438 0.656419C14.3438 0.656419 13.1251 3.84392 11.0626 4.50017C9.00007 5.15642 4.96882 6.93767 4.40632 9.46892C4.31257 9.46892 5.34382 -0.843581 14.3438 0.656419Z" fill="#89563A"/>
<path d="M11.25 2.62523C11.25 2.62523 13.4062 9.84398 21.8437 11.2502L23.5312 11.1565L18.4688 3.00023C18.5625 3.00023 14.3438 0.656484 11.25 2.62523Z" fill="#89563A"/>
<path d="M10.6875 10.6875L17.7188 12.6563C17.7188 12.6563 16.2188 14.7188 14.25 14.625C12.2813 14.4375 11.1562 12.6562 10.6875 10.6875Z" stroke="#425763" stroke-width="0.659156" stroke-miterlimit="10"/>
<path d="M4.125 8.8125L10.4063 10.5938C10.4063 10.5938 9.09375 12.4688 7.3125 12.2813C5.53125 12.0938 4.5 10.5938 4.125 8.8125Z" stroke="#425763" stroke-width="0.659156" stroke-miterlimit="10"/>
<path d="M12 1.03149C12 1.03149 13.2187 0.0939925 15.2812 0.187742C17.3437 0.281492 24.9375 4.12524 23.625 12.0002C23.625 12.0002 22.9687 15.2815 21.8437 16.6877C21.8437 16.6877 20.8125 15.844 20.0625 13.7815C19.3125 11.719 18.375 10.594 17.0625 10.0315C15.75 9.37524 12 1.03149 12 1.03149Z" fill="#89563A"/>
<path d="M12.6562 2.4375C12.6562 2.4375 14.1562 9.5625 22.875 10.5938C22.875 10.5938 22.875 2.0625 14.25 1.21875C14.25 1.3125 12.6562 1.78125 12.6562 2.4375Z" fill="#B57555"/>
<path d="M17.7188 12.6562L19.6875 12.2812" stroke="#425763" stroke-width="0.659156" stroke-miterlimit="10"/>
<path d="M14.1562 2.81237C14.1562 2.81237 10.2187 2.06237 8.25 3.46862C8.25 3.46862 10.3125 -0.656377 15.1875 1.49987L14.1562 2.81237Z" fill="#B57555"/>
<path d="M10.125 27L11.7187 24.75L14.0625 21.0938L12.5625 20.9062L14.4375 21.0938L15.2812 23.1563L11.9062 27.2813L10.125 27Z" fill="#293338"/>
<path d="M7.6875 25.6875L9.375 24.5625L9.65625 26.1562C9.75 26.1562 8.8125 26.0625 7.6875 25.6875Z" fill="#A67A65"/>
<path opacity="0.5" d="M19.4063 19.4063C19.4063 19.4063 21 22.4062 19.9688 24.1875L17.625 28.3125C17.625 28.3125 20.4375 29.7187 22.0313 27.4687C23.625 25.2187 25.3125 20.625 21.4688 18.1875L19.4063 19.4063Z" fill="#293338"/>
<path d="M20.0625 12.5626L21.8437 16.5939C21.8437 16.5939 23.4375 14.7189 23.9063 12.7501C24.4688 10.8751 20.0625 12.5626 20.0625 12.5626Z" fill="#72402A"/>
<path d="M15.4688 2.53125C15.4688 2.53125 18.8438 2.71875 20.0625 4.96875C21.2812 7.21875 21.2813 8.71875 21.2813 8.71875L17.8125 5.71875L15.4688 2.53125Z" fill="#D69274"/>
<path d="M15.1875 27.2812L14.8125 27.75L16.5938 28.9687L26.4375 19.125L24.8438 17.0625L15.1875 27.2812Z" fill="#9A4C18"/>
<path d="M26.7188 21.9376C26.3438 25.8751 22.7813 29.1563 18.75 29.1563C14.7188 29.1563 12.1875 25.7813 12.9375 22.0313C13.6875 18.4688 17.0625 15.6563 20.625 15.6563C24.2813 15.4688 27 18.2813 26.7188 21.9376Z" fill="#9A4C18"/>
<path d="M27.6562 23.1562C27.375 26.9062 23.8125 30 19.875 30C15.9375 30 13.5 26.8125 14.25 23.1562C14.9062 19.7812 18.2812 17.0625 21.75 17.0625C25.3125 17.0625 27.9375 19.6875 27.6562 23.1562Z" fill="#9A4C18"/>
<path d="M16.3125 27.5625L18 28.4062L26.0625 19.9687L24.75 18.1875L16.3125 27.5625Z" fill="#F49937"/>
<path d="M26.9062 23.1563C26.6249 26.3438 23.6249 28.9688 20.3437 28.9688C17.0624 28.9688 14.9999 26.25 15.5624 23.1563C16.1249 20.1563 18.9374 17.9063 21.9374 17.8125C24.9374 17.9063 27.1874 20.1563 26.9062 23.1563Z" fill="#F49937"/>
<path d="M25.7812 21.9377C25.4999 25.3127 22.3124 28.1252 18.8437 28.1252C15.3749 28.1252 13.1249 25.2189 13.7812 21.9377C14.3437 18.7502 17.4374 16.3127 20.5312 16.3127C23.7187 16.2189 26.0624 18.6564 25.7812 21.9377Z" fill="#FFEDC0"/>
<path d="M25.4062 22.125C25.1249 25.3125 22.1249 27.9375 18.8437 27.9375C15.5624 27.9375 13.4999 25.2188 14.0624 22.125C14.6249 19.125 17.4374 16.875 20.4374 16.7812C23.4374 16.7812 25.6874 19.125 25.4062 22.125Z" fill="#FFD766"/>
<path d="M24.0936 22.125C23.8123 24.5625 21.5623 26.625 19.0311 26.625C16.4998 26.625 14.9061 24.5625 15.2811 22.125C15.6561 19.7812 17.9061 18 20.2498 17.9062C22.5936 18 24.3748 19.7812 24.0936 22.125Z" fill="#FFEDC0"/>
<path d="M24.1876 21.5625C23.9063 24 21.6563 26.0625 19.1251 25.9688C16.5938 25.9688 15.0001 23.9062 15.4688 21.5625C15.8438 19.3125 18.0938 17.4375 20.3438 17.4375C22.6876 17.4375 24.3751 19.2187 24.1876 21.5625Z" fill="#F49937"/>
<path d="M23.4376 22.125C23.2501 24.1875 21.2814 25.875 19.2189 25.875C17.1564 25.875 15.7501 24.1875 16.0314 22.125C16.4064 20.1563 18.2814 18.5625 20.2501 18.5625C22.2189 18.5625 23.6251 20.1563 23.4376 22.125Z" fill="#FFD766"/>
<path d="M20.7187 18.2812L21.2812 20.4375L23.8125 21.0938L21.4687 22.5938L21.375 25.2187L19.3125 23.7187L16.6875 24.6562L17.8125 22.2188L16.5 20.3438L19.125 20.25L20.7187 18.2812Z" fill="#F49937"/>
</g>
<defs>
<clipPath id="clip0_1_9807">
<rect width="30" height="30" fill="white"/>
</clipPath>
</defs>
</svg>
