<svg width="20" height="20" viewBox="0 0 20 20" fill="none" xmlns="http://www.w3.org/2000/svg">
<path d="M0.67198 11.1673C0.941721 10.9905 1.26233 10.9079 1.5839 10.9324C1.90546 10.9568 2.20993 11.0868 2.44989 11.3023C3.03986 11.8262 5.16376 13.5352 7.66064 13.5542C8.0292 13.5575 8.39703 13.5206 8.75758 13.4442C9.90718 13.1989 10.9613 12.6264 11.793 11.7957C12.6248 10.9651 13.1986 9.91168 13.4454 8.7624C13.5196 8.41233 13.5562 8.05531 13.5543 7.69745C13.5474 6.03053 12.6874 4.07963 11.2545 2.4817C10.8035 1.97773 10.7445 1.25776 11.1085 0.687792C11.2814 0.412608 11.5407 0.202498 11.8457 0.0903242C12.1508 -0.0218501 12.4844 -0.0297631 12.7944 0.0678226C14.8303 0.6883 16.6194 1.93373 17.9081 3.62765C19.231 5.34929 19.9639 7.45142 19.998 9.62236C20.0256 11.0152 19.7637 12.3987 19.2291 13.6852C18.7148 14.9276 17.9597 16.0559 17.0072 17.005C16.0482 17.9639 14.9303 18.7119 13.6853 19.2289C12.3971 19.7636 11.012 20.0251 9.61754 19.9968C7.93063 19.9714 6.27739 19.5208 4.81078 18.6869C4.72148 18.6365 4.64299 18.569 4.57979 18.4882C4.51659 18.4075 4.46992 18.315 4.44243 18.2162C4.41495 18.1174 4.40719 18.0142 4.41961 17.9124C4.43202 17.8106 4.46437 17.7123 4.51479 17.623C4.56522 17.5337 4.63274 17.4552 4.71349 17.392C4.79425 17.3288 4.88667 17.2821 4.98546 17.2546C5.08426 17.2271 5.1875 17.2194 5.2893 17.2318C5.39109 17.2442 5.48944 17.2766 5.57874 17.327C6.81956 18.0325 8.21832 18.4136 9.64554 18.4349C10.8057 18.4587 11.9586 18.2463 13.0342 17.8107C14.1098 17.3751 15.0855 16.7254 15.9022 15.901C16.726 15.0854 17.3753 14.1108 17.8107 13.0364C18.2461 11.962 18.4586 10.8104 18.4351 9.65135C18.4065 7.87797 17.8305 6.15676 16.7858 4.72346C15.7411 3.29015 14.2789 2.21483 12.5994 1.64475C13.4764 2.6727 15.1063 4.95258 15.1173 7.69045C15.1193 8.16543 15.0713 8.6344 14.9743 9.08738C14.6644 10.5313 13.9418 11.8541 12.8944 12.8952C11.8517 13.9408 10.5284 14.6619 9.08457 14.9711C8.62159 15.0701 8.13861 15.1181 7.65064 15.1151C6.51569 15.1071 5.33875 14.8231 4.15081 14.2701C3.25914 13.8512 2.42474 13.3199 1.66793 12.6892C1.93761 13.4501 2.31329 14.1692 2.78388 14.8251C2.90454 14.9935 2.95337 15.2029 2.91962 15.4074C2.88586 15.6118 2.77229 15.7944 2.60388 15.915C2.43548 16.0357 2.22604 16.0845 2.02163 16.0508C1.81723 16.017 1.63461 15.9035 1.51394 15.7351C0.879327 14.8506 0.391115 13.8697 0.0680089 12.8302C-0.0290952 12.525 -0.0224045 12.1962 0.0870395 11.8952C0.196484 11.5942 0.402519 11.3379 0.672979 11.1663L0.67198 11.1673Z" fill="white"/>
</svg>
