<svg width="30" height="30" viewBox="0 0 30 30" fill="none" xmlns="http://www.w3.org/2000/svg">
<g clip-path="url(#clip0_1_9252)">
<path d="M13.7812 2.34395C13.7812 2.34395 19.7812 1.12519 21.6562 5.15645C23.5312 9.1877 20.6249 10.6877 20.6249 10.6877L18.5624 8.8127C18.5624 8.8127 21.6562 6.1877 18.9374 4.5002C16.2187 2.8127 14.4374 3.3752 14.4374 3.3752L13.7812 2.4377M21.9374 18.7502C21.9374 18.7502 24.4687 26.0627 19.4999 26.3439L16.6874 25.1252L16.4062 25.9689C16.4062 25.9689 18.0937 27.8439 20.5312 27.5627C22.9687 27.2814 26.4374 22.5939 23.2499 18.5627L21.9374 18.7502ZM3.18744 11.2502C3.18744 11.2502 -1.50006 15.1877 0.562441 19.2189C2.62494 23.2502 5.53119 21.8439 5.53119 21.8439L5.34369 19.0314C5.34369 19.0314 1.40619 19.7814 1.78119 16.6877C2.15619 13.5939 3.74994 12.4689 3.74994 12.4689L3.37494 11.3439M11.6249 14.2502C11.6249 14.2502 12.9374 15.5627 13.0312 17.1564L15.3749 16.4064C15.3749 16.4064 13.3124 13.8752 13.4062 12.7502C13.4999 12.7502 12.3749 14.2502 11.6249 14.2502Z" fill="#962C2C"/>
<path d="M13.5937 16.9688C13.5937 16.9688 18.1875 9.75004 29.0625 11.25L29.625 11.5313C29.625 11.5313 30 14.9063 29.9062 16.6875C29.7187 18.375 29.0625 23.4375 24.75 23.9063C20.4375 24.375 17.1562 22.9688 13.4062 16.875" fill="#962C2C"/>
<path d="M15.2812 16.9685C15.2812 16.9685 19.0312 10.9685 28.125 12.1873L28.5938 12.4685C28.5938 12.4685 28.9688 15.281 28.7813 16.6873C28.5938 18.0935 28.125 22.3123 24.4688 22.6873C20.8125 23.0623 18.1875 21.9373 15 16.8748" fill="#E52E2E"/>
<path d="M12.6562 16.2187C12.6562 16.2187 18.5625 11.1562 15.8437 1.40625L15.5625 0.9375C15.5625 0.9375 12.375 1.03125 10.875 1.3125C9.37498 1.59375 4.87498 2.90625 4.96873 6.9375C5.06248 10.9688 6.74998 13.6875 12.75 16.3125M19.4062 18.5625C19.4062 18.5625 19.5937 23.4375 24.9375 23.0625C24.9375 23.0625 22.5 23.7188 19.125 22.5L19.4062 18.5625Z" fill="#962C2C"/>
<path d="M17.3438 16.7813C17.3438 16.7813 20.0625 12.4688 26.5312 13.3126L26.9062 13.5001C26.9062 13.5001 27.1875 15.5626 27.0937 16.5938C27 17.6251 26.625 20.6251 24 20.9063C21.375 21.1876 19.5 20.3438 17.25 16.7813" fill="#EF5858"/>
<path d="M13.6877 2.34375C13.6877 2.34375 16.8752 6.28125 13.9689 12.0938L13.6877 12.375C13.6877 12.375 11.7189 12 10.7814 11.5313C9.84394 11.1563 7.12519 9.75 7.68769 7.21875C8.25019 4.6875 9.65644 3.1875 13.7814 2.15625" fill="#E52E2E"/>
<path d="M10.6875 18.375C10.6875 18.375 12.0937 21.0937 10.6875 23.9062L9.28125 22.5938L10.6875 18.375Z" fill="#A3704D"/>
<path d="M14.156 19.9686C14.156 19.9686 14.7185 25.9686 11.531 27.0936C8.34353 28.2186 2.81228 28.3123 3.37478 21.9373C3.93728 15.5623 11.3435 18.0936 11.3435 18.0936L14.156 19.9686Z" fill="#734F36"/>
<path d="M13.4998 20.2501C13.4998 20.2501 13.9686 25.5001 11.1561 26.4376C8.34359 27.3751 3.56234 27.5626 4.03109 21.9376C4.49984 16.3126 11.0623 18.5626 11.0623 18.5626L13.4998 20.2501Z" fill="#A3704D"/>
<path d="M9.56273 6.18773C9.56273 6.18773 11.2502 12.844 16.594 16.7815C18.3752 18.094 18.7502 20.5315 17.4377 22.219C17.1565 22.594 16.7815 22.969 16.3127 23.1565C14.0627 24.1877 11.344 23.2502 8.90648 21.0002C6.46898 18.7502 1.78148 15.469 2.53148 6.65648C2.53148 6.65648 8.81273 4.96898 9.56273 6.18773Z" fill="#734F36"/>
<path d="M16.219 20.6251C17.4378 21.4689 18.1878 22.9689 18.0003 24.4689C17.8128 26.2501 17.1565 28.4064 15.3753 28.9689C12.1878 30.0001 6.65651 30.1876 7.21901 23.9064C7.78151 17.6251 15.1878 20.0626 15.1878 20.0626L16.219 20.6251Z" fill="#734F36"/>
<path d="M8.99984 7.03122C8.99984 7.03122 10.5936 13.5 15.9373 17.0625C16.8748 17.7187 17.4373 18.8437 17.2498 20.0625C17.0623 21 16.6873 21.9375 15.7498 22.4062C13.6873 23.3437 11.2498 22.5 9.09359 20.4375C6.93734 18.375 2.62484 15.375 3.28109 7.40622C3.28109 7.40622 8.24984 5.99997 8.99984 7.03122Z" fill="#A3704D"/>
<path d="M4.78131 2.34375C4.78131 2.34375 2.62506 2.34375 1.68756 3.9375C0.750055 5.53125 0.750056 8.15625 2.53131 9.5625C2.53131 9.5625 3.75006 10.2187 4.12506 9.75C4.50006 9.28125 4.87506 7.78125 4.87506 7.78125L4.78131 2.34375Z" fill="#734F36"/>
<path d="M4.21899 2.8125C4.21899 2.8125 2.81274 2.90625 2.06274 4.3125C1.31274 5.71875 1.21899 7.78125 2.71899 8.90625C2.71899 8.90625 3.75024 9.46875 4.03149 9C4.31274 8.625 4.59399 7.40625 4.59399 7.40625L4.21899 2.8125Z" fill="#A3704D"/>
<path d="M3.37513 7.40634C3.37513 7.40634 3.00013 9.46884 6.46888 10.0313C9.93763 10.5938 12.0001 10.0313 12.2814 9.18759C12.5626 8.25009 12.3751 7.78134 10.7814 6.56259C9.18763 5.34384 9.00013 2.43759 6.28138 2.06259C3.56263 1.68759 2.71888 4.59384 3.37513 7.40634Z" fill="#A3704D"/>
<path d="M4.12529 7.21881C4.12529 7.21881 3.84404 8.90631 6.75029 9.46881C9.65654 10.0313 11.344 9.46881 11.6253 8.71881C11.8128 7.96881 11.6253 7.59381 10.4065 6.56256C9.18779 5.53131 8.81279 3.09381 6.56279 2.71881C4.31279 2.34381 3.56279 4.87506 4.12529 7.21881ZM15.7503 21.0938C16.8753 21.8438 17.4378 23.1563 17.344 24.4688C17.1565 26.0626 16.594 27.8438 15.094 28.4063C12.2815 29.3438 7.50029 29.5313 7.96904 23.9063C8.43779 18.2813 15.0003 20.5313 15.0003 20.5313L15.7503 21.0938Z" fill="#A3704D"/>
<path opacity="0.53" d="M3.844 5.0625C3.844 5.0625 3.6565 7.3125 7.21899 8.0625C10.7815 8.8125 12.094 8.71875 12.094 8.71875C12.094 8.71875 11.8127 9.75 10.3127 9.84375C8.81275 9.9375 3.00025 11.1562 3.844 5.0625Z" fill="#A3704D"/>
<path opacity="0.46" d="M1.78118 4.21875C1.78118 4.21875 1.40618 7.59375 3.74993 7.6875C3.74993 7.6875 4.40618 8.34375 4.31243 8.71875C4.21868 9.09375 4.12493 9.5625 3.65618 9.5625C3.09368 9.65625 0.187432 8.71875 1.78118 4.21875Z" fill="#734F36"/>
<path d="M5.53112 4.12516C5.53112 3.84391 5.71862 3.56266 5.90612 3.37516C6.18737 3.28141 6.46862 3.37516 6.74987 3.56266C7.49987 3.93766 7.96862 4.68766 8.43737 5.34391C8.53112 5.53141 8.62487 5.71891 8.62487 5.90641C8.53112 6.18766 8.15611 6.28141 7.87486 6.28141C6.74986 6.37516 5.43737 5.34391 5.53112 4.12516ZM15.7499 17.4377C14.8124 16.5939 13.6874 16.1252 12.6561 15.3752C11.6249 14.5314 10.6874 13.4064 10.2186 12.1877C10.1249 11.9064 10.0311 11.7189 9.93737 11.5314C9.84362 11.3439 9.56237 11.1564 9.37487 11.0627C8.90612 10.9689 8.43736 11.4377 8.34361 11.9064C8.24986 12.3752 8.53111 12.9377 8.81236 13.3127L10.7811 16.5002C11.7186 17.8127 12.9374 19.1252 14.4374 19.5939C14.8124 19.6877 15.1874 19.7814 15.5624 19.6877C15.9374 19.5939 16.2186 19.3127 16.4061 19.0314C16.4999 18.3752 16.1249 17.8127 15.7499 17.4377Z" fill="#A3704D"/>
<path d="M6 9.84357C6 10.0311 5.90625 10.2186 5.90625 10.3123C5.625 10.9686 5.625 11.6248 5.71875 12.2811C6.09375 14.8123 7.3125 17.2498 8.90625 19.1248C9.09375 19.4061 9.375 19.5936 9.375 19.9686C9.375 20.2498 9.1875 20.6248 8.8125 20.6248C8.71875 20.6248 8.53125 20.5311 8.4375 20.3436L6 17.8123C5.25 17.0623 4.5 16.3123 4.03125 15.3748C3.28125 13.9686 3.1875 12.2811 3.09375 10.6873C3.09375 10.4061 3.09375 10.1248 3.1875 9.84357C3.28125 9.56232 3.46875 9.37482 3.75 9.18732C4.125 8.90607 4.59375 8.90607 4.96875 9.09357C5.25 9.18732 6 9.46857 6 9.84357Z" fill="#734F36"/>
<path d="M7.78125 20.8125C7.5 21.1875 7.125 21.5625 6.75 21.9375C6.09375 22.7813 5.90625 24 6.28125 24.9375C6.65625 25.7813 7.3125 26.3438 8.0625 26.9063C7.21875 27.2813 6.1875 27.2813 5.4375 26.7188C4.78125 26.25 4.3125 25.4063 4.03125 24.6563C3.84375 24.0938 3.65625 23.4375 3.65625 22.7813C3.65625 21.375 4.21875 20.0625 5.15625 19.125C5.4375 18.8438 5.8125 18.5625 6.1875 18.5625C6.84375 18.5625 7.21875 19.125 7.59375 19.5C8.0625 19.7813 8.0625 20.3438 7.78125 20.8125Z" fill="#734F36"/>
<path opacity="0.38" d="M8.90609 24C9.09359 25.0312 9.56234 25.9687 10.4061 26.625C11.0623 27.0937 11.9061 27.2812 12.7498 27.2812C13.5936 27.2812 14.4373 27.1875 15.1873 27C15.5623 26.9062 16.0311 27 16.1248 27.2812C16.2186 27.5625 16.0311 27.8437 15.7498 28.0312C14.9998 28.6875 13.9686 28.9687 12.9373 29.0625C11.9061 29.1562 10.9686 28.9687 9.93734 28.875C9.46859 28.7812 8.99984 28.6875 8.62484 28.5C8.15609 28.2187 7.96859 27.6562 7.78109 27.1875C7.31234 25.6875 7.40609 24.0937 7.96859 22.6875C8.06234 22.4062 8.62484 20.9062 8.99984 21.5625C9.09359 21.75 8.81234 22.5 8.81234 22.6875C8.81234 23.0625 8.81234 23.5312 8.90609 24Z" fill="#734F36"/>
<path d="M8.53125 20.1562C8.53125 20.1562 6.75 21.9375 6.09375 24.6562C5.4375 27.375 4.21875 24.8438 4.21875 24.8438C4.21875 24.8438 4.40625 26.8125 7.96875 27.1875C7.96875 27.1875 7.40625 22.4062 8.4375 20.9062L9 20.7188L8.53125 20.1562Z" fill="#A3704D"/>
<path d="M15.469 18.6563C15.469 18.6563 16.219 24.6563 13.1252 25.875C9.93774 27.0938 4.50024 27.4688 4.78149 21.0938C5.06274 14.7188 12.6565 16.9688 12.6565 16.9688L15.469 18.6563Z" fill="#A3704D"/>
<path d="M14.8124 19.0311C14.8124 19.0311 15.4687 24.2811 12.7499 25.3123C10.0312 26.3436 5.15619 26.7186 5.43744 21.0936C5.71869 15.4686 12.3749 17.4373 12.3749 17.4373L14.8124 19.0311Z" fill="#FCC097"/>
<path d="M10.4062 5.15637C10.4062 5.15637 12.2812 11.7189 17.9062 15.5626C19.6874 16.7814 20.2499 19.2189 19.0312 21.0001C18.7499 21.3751 18.3749 21.7501 17.9062 21.9376C15.6562 23.0626 12.9374 22.2189 10.4062 19.9689C7.87494 17.7189 2.99994 14.6251 3.37494 5.81262C3.37494 5.81262 9.56244 3.93762 10.4062 5.15637Z" fill="#A3704D"/>
<path d="M17.6248 19.3125C18.9373 20.1563 19.5935 21.5625 19.4998 23.0625C19.406 24.8438 18.8435 27 17.0623 27.6563C13.8748 28.875 8.43725 29.25 8.7185 22.875C8.99975 16.5 16.5935 18.75 16.5935 18.75L17.6248 19.3125Z" fill="#A3704D"/>
<path d="M9.84379 6.00015C9.84379 6.00015 11.7188 12.4689 17.1563 15.7501C18.1875 16.3126 18.6563 17.5314 18.5625 18.6564C18.4688 19.5939 18.0938 20.5314 17.1563 21.0001C15.0938 22.0314 12.6563 21.1876 10.4063 19.3126C8.15629 17.4376 3.75004 14.5314 4.12504 6.56265C4.12504 6.56265 9.09379 4.9689 9.84379 6.00015Z" fill="#FCC097"/>
<path d="M5.43728 1.40625C5.43728 1.40625 3.28103 1.5 2.43728 3.1875C1.59353 4.875 1.68728 7.40625 3.46853 8.71875C3.46853 8.71875 4.78103 9.375 5.06228 8.8125C5.34353 8.34375 5.71853 6.84375 5.71853 6.84375L5.43728 1.40625Z" fill="#A3704D"/>
<path d="M4.87517 1.96875C4.87517 1.96875 3.46892 2.15625 2.71892 3.5625C1.96892 4.96875 2.06267 7.03125 3.56267 8.0625C3.56267 8.0625 4.59392 8.53125 4.87517 8.15625C5.15642 7.78125 5.43767 6.46875 5.43767 6.46875L4.87517 1.96875Z" fill="#E8AB82"/>
<path d="M4.21877 6.56265C4.21877 6.56265 3.93752 8.62515 7.40627 9.0939C10.875 9.56265 12.9375 8.9064 13.125 7.9689C13.3125 7.0314 13.125 6.56265 11.5313 5.43765C9.93752 4.31265 9.56252 1.50015 6.84377 1.12515C4.12502 0.750151 3.46877 3.75015 4.21877 6.56265Z" fill="#A3704D"/>
<path d="M4.96855 6.37492C4.96855 6.37492 4.6873 8.06242 7.6873 8.43742C10.6873 8.81242 12.2811 8.24992 12.5623 7.49992C12.7498 6.74992 12.5623 6.37492 11.2498 5.34367C9.9373 4.31242 9.65605 1.96867 7.3123 1.78117C4.96855 1.59367 4.3123 4.03117 4.96855 6.37492Z" fill="#E8AB82"/>
<path d="M17.1562 19.7811C18.2812 20.5311 18.9374 21.7498 18.8437 23.1561C18.7499 24.7498 18.2812 26.6248 16.6874 27.1873C13.9687 28.2186 9.09369 28.5936 9.37494 22.9686C9.65619 17.3436 16.3124 19.3123 16.3124 19.3123L17.1562 19.7811Z" fill="#FCC097"/>
<path opacity="0.53" d="M4.59372 4.125C4.59372 4.125 4.49997 6.375 8.06247 7.03125C11.625 7.6875 12.9375 7.5 12.9375 7.5C12.9375 7.5 12.6562 8.53125 11.1562 8.625C9.65622 8.8125 3.93747 10.3125 4.59372 4.125Z" fill="#A3704D"/>
<path opacity="0.53" d="M2.53107 3.46875C2.53107 3.46875 2.24982 6.84375 4.59357 6.84375C4.59357 6.84375 5.24982 7.40625 5.15607 7.875C5.06232 8.34375 5.06232 8.71875 4.59357 8.71875C4.03107 8.8125 1.12482 7.96875 2.53107 3.46875Z" fill="#A3704D"/>
<path d="M6.28111 3.18765C6.28111 2.9064 6.37486 2.62515 6.65611 2.43765C6.93736 2.25015 7.21861 2.43765 7.49986 2.5314C8.24986 2.9064 8.71861 3.6564 9.18736 4.31265C9.28111 4.50015 9.37486 4.68765 9.37486 4.87515C9.37486 5.1564 8.99986 5.25015 8.71861 5.3439C7.49986 5.43765 6.18736 4.50015 6.28111 3.18765ZM16.9686 16.1251C16.0311 15.2814 14.8124 14.8126 13.7811 14.1564C12.6561 13.4064 11.8124 12.2814 11.2499 11.0626C11.1561 10.8751 11.0624 10.5939 10.8749 10.4064C10.6874 10.2189 10.4999 10.0314 10.2186 9.93765C9.74986 9.8439 9.28111 10.3126 9.18736 10.8751C9.18736 11.3439 9.37486 11.8126 9.74986 12.2814C9.74986 12.2814 10.9686 14.3439 11.9061 15.3751C12.9374 16.6876 14.1561 17.9064 15.6561 18.2814C16.0311 18.3751 16.4061 18.3751 16.7811 18.2814C17.1561 18.1876 17.4374 17.9064 17.5311 17.5314C17.7186 17.0626 17.3436 16.5001 16.9686 16.1251Z" fill="#FFE8D9"/>
<path opacity="0.3" d="M6.93766 8.90617C6.93766 9.09367 6.84391 9.28117 6.84391 9.37492C6.65641 10.0312 6.75016 10.6874 6.84391 11.3437C7.31266 13.8749 8.53141 16.2187 10.3127 18.0937C10.5002 18.3749 10.7814 18.5624 10.8752 18.9374C10.9689 19.3124 10.5939 19.6874 10.3127 19.5937C10.2189 19.5937 10.0314 19.4999 9.93766 19.4062L7.40641 16.9687C6.65641 16.2187 5.90641 15.5624 5.34391 14.6249C4.50016 13.2187 4.40641 11.5312 4.21891 9.93742C4.21891 9.65617 4.12516 9.37492 4.21891 9.09367C4.21891 8.71867 4.40641 8.53117 4.68766 8.34367C5.06266 8.06242 5.53141 8.06242 5.90641 8.15617C6.18766 8.24992 6.84391 8.53117 6.93766 8.90617Z" fill="#A3704D"/>
<path opacity="0.38" d="M9.09413 19.7812C8.81288 20.25 8.43788 20.5312 8.15663 20.9062C7.50038 21.75 7.31288 22.9687 7.78163 23.9062C8.15663 24.75 8.90663 25.3125 9.56288 25.7812C8.71913 26.25 7.68788 26.1562 6.93788 25.6875C6.18788 25.2187 5.81288 24.4688 5.43788 23.625C5.25038 23.0625 5.06288 22.4062 4.96913 21.75C4.87538 20.3438 5.43788 19.0312 6.37538 18C6.75038 17.8125 7.12538 17.5312 7.50038 17.5312C8.15663 17.5312 8.53163 18.0937 9.00038 18.375C9.37538 18.75 9.37538 19.3125 9.09413 19.7812Z" fill="#A3704D"/>
<path opacity="0.38" d="M10.4062 22.8751C10.5938 23.9064 11.1562 24.8439 12 25.4064C12.6562 25.8751 13.5937 25.9689 14.3437 25.9689C15.1875 25.9689 16.0312 25.7814 16.7812 25.5939C17.1562 25.5001 17.625 25.5001 17.7187 25.8751C17.8125 26.1564 17.625 26.4376 17.4375 26.6251C16.6875 27.2814 15.6562 27.6564 14.7187 27.7501C13.6875 27.8439 12.75 27.7501 11.7187 27.6564C11.25 27.5626 10.7812 27.5626 10.4062 27.2814C9.9375 27.0001 9.65625 26.5314 9.46875 25.9689C8.90625 24.5626 8.90625 22.8751 9.46875 21.4689C9.5625 21.1876 10.125 19.6876 10.5 20.2501C10.5937 20.4376 10.4062 21.1876 10.4062 21.3751C10.3125 22.0314 10.3125 22.5001 10.4062 22.8751Z" fill="#A3704D"/>
<path d="M9.84375 19.125C9.84375 19.125 8.15625 21 7.59375 23.7187C7.03125 26.4375 5.71875 24 5.71875 24C5.71875 24 6 25.9688 9.5625 26.25C9.5625 26.25 8.8125 21.4687 9.75 19.9687L10.3125 19.6875L9.84375 19.125Z" fill="#734F36"/>
<path d="M18.8437 16.5C18.8437 16.5 20.5313 18.2813 19.4063 23.625L17.5312 21.9375L18.8437 16.5Z" fill="#A3704D"/>
<path d="M18.1875 16.7812C18.1875 16.7812 19.875 18.5625 18.75 23.9063L16.875 22.2188L18.1875 16.7812Z" fill="#FCC097"/>
<path d="M14.3435 20.8123C15.0935 20.9061 15.9373 21.2811 16.3123 22.0311C16.781 22.9686 16.2185 24.0936 15.3748 24.5623C14.531 25.0311 13.3123 24.8436 12.5623 24.1873C12.0935 23.8123 11.7185 23.2498 11.6248 22.6873C11.156 20.9998 13.031 20.7186 14.3435 20.8123Z" fill="#FFE8D9"/>
<path d="M4.40625 25.875C4.40625 25.875 7.5 28.2188 8.4375 22.4062C8.4375 22.4062 8.71875 22.875 8.71875 23.0625C8.71875 23.25 7.3125 26.7188 9.65625 28.7813L7.96875 26.9063L8.15625 27.375C8.15625 27.375 7.5 27.4688 7.3125 27.375C7.03125 27.375 4.875 27.0938 4.40625 25.875Z" fill="#734F36"/>
</g>
<defs>
<clipPath id="clip0_1_9252">
<rect width="30" height="30" fill="white"/>
</clipPath>
</defs>
</svg>
