<svg width="30" height="30" viewBox="0 0 30 30" fill="none" xmlns="http://www.w3.org/2000/svg">
<g clip-path="url(#clip0_1_18277)">
<path d="M21.6563 17.5313C24.038 17.5313 25.9688 15.6005 25.9688 13.2188C25.9688 10.837 24.038 8.90625 21.6563 8.90625C19.2745 8.90625 17.3438 10.837 17.3438 13.2188C17.3438 15.6005 19.2745 17.5313 21.6563 17.5313Z" fill="#493426"/>
<path d="M17.3438 5.34375L17.4375 5.4375C18 6 20.625 8.90625 20.3438 14.625C20.3438 14.625 20.625 16.4062 22.9688 16.4062C22.9688 16.4062 22.7813 15.1875 23.1563 14.3438C23.5313 13.5 24.4688 9.09375 23.4375 6.75C22.4063 4.40625 19.5938 1.875 16.2188 1.59375" fill="#302119"/>
<path d="M5.71879 26.3438C3.56254 25.125 2.53129 22.0313 3.65629 19.0313C4.03129 18 6.09379 15.375 6.65629 14.9063C8.53129 13.4063 16.5938 12.1875 22.875 17.25C24 18.1875 24.8438 19.6875 25.2188 21.375V21.4688C26.0625 26.0625 24.6563 29.8125 20.8125 29.8125C16.5 29.7188 9.46879 28.5938 5.71879 26.3438Z" fill="#692A2A"/>
<path d="M6.4688 25.2187C4.5938 24.0937 3.56255 21.4687 4.5938 18.9374C4.9688 18.0937 6.75005 15.7499 7.31255 15.3749C9.00005 14.0624 16.125 13.0312 21.75 17.3437C22.7813 18.0937 23.5313 19.4061 23.8125 20.9061V20.9999C24.5625 24.9374 23.25 28.1249 19.9688 28.1249C16.0313 28.1249 9.8438 27.1874 6.4688 25.2187Z" fill="#BD4F53"/>
<path d="M5.99988 22.9686C4.03113 22.0311 4.78113 19.8749 5.81238 17.5311C6.18738 16.7811 7.03113 16.0311 7.59363 15.6561C9.37489 14.5311 16.2186 13.4999 21.8436 17.2499C22.8749 17.9061 23.6249 19.0311 23.9061 20.3436V20.4374C24.6561 23.9061 22.1249 26.9061 19.0311 26.4374C15.0936 25.8749 9.37488 24.5624 5.99988 22.9686Z" fill="#E8A77B"/>
<path d="M5.81249 22.9689C4.12499 22.0314 5.90624 21.0002 6.74999 18.6564C7.03124 17.9064 8.71874 16.2189 9.18749 15.8439C10.6875 14.7189 14.4375 13.4064 19.3125 17.2502C20.1562 17.9064 20.9062 19.0314 21.0937 20.3439V20.4377C21.75 23.9064 20.0625 26.5314 17.3437 26.0627C14.0625 25.4064 8.71874 24.5627 5.81249 22.9689Z" fill="#FFDEC2"/>
<path d="M18.0937 17.0625C18.0937 17.0625 18.9375 21.2812 16.4062 22.5938C16.4062 22.5938 22.7812 22.4062 24.4688 21.375C24.4688 21.375 25.0312 17.8125 20.0625 16.2187L18.0937 17.0625ZM7.78125 15.5625C7.78125 15.5625 6.65625 16.4062 5.625 18.0937L6.84375 18.8438L7.03125 20.7188C7.03125 20.7188 6.75 17.8125 9.1875 16.6875L7.78125 15.5625Z" fill="#BD4F53"/>
<path d="M5.71872 19.5C5.71872 19.5 10.5 24 24.2812 21.375L22.6875 25.6875C22.6875 25.6875 18.1875 26.5313 12.0937 25.0313C6.37497 23.625 3.93747 24.9375 5.71872 19.5Z" fill="#8E4028"/>
<path d="M4.6877 19.2186C4.78145 18.8436 4.96895 19.9686 5.34395 20.1561C6.65645 20.9998 9.46895 22.7811 16.6877 23.5311C18.3752 23.7186 21.3752 22.4061 24.2814 21.7498C24.2814 21.7498 24.3752 22.4061 24.2814 23.2498C24.0002 25.2186 22.1252 26.8123 20.1564 26.8123C17.8127 26.8123 15.4689 26.7186 12.0939 25.8748C6.5627 24.4686 3.46895 23.9061 4.6877 19.2186Z" fill="#E08484"/>
<path d="M8.625 25.3125C8.625 25.3125 9.9375 25.0312 10.7813 24C10.7813 24 11.0625 25.7812 12.2813 26.1562C12.2813 26.25 9 25.5 8.625 25.3125Z" fill="#BD4F53"/>
<path d="M14.9062 23.4375C14.9062 23.4375 20.0625 22.7812 19.5 17.7187C19.5 17.7187 20.9062 16.875 22.0312 17.9062C23.1562 18.9375 24.8438 19.9687 24.1875 23.0625C24.0938 23.0625 15.6562 25.125 14.9062 23.4375ZM7.5 21.5625C7.5 21.5625 6.65625 19.125 7.3125 17.9062C7.96875 16.6875 9.09375 15.9375 9.09375 15.9375L8.15625 15.1875C8.15625 15.1875 5.0625 17.4375 4.59375 19.875L7.5 21.5625Z" fill="#E08484"/>
<path d="M19.5937 24.8437C19.5937 24.8437 19.875 25.875 19.5937 27.0937H21.1875C21.1875 27.0937 20.9062 24.8437 19.4062 23.0625L19.5937 24.8437ZM5.53125 21.75C5.53125 21.75 5.34375 22.5937 5.625 23.625L4.3125 23.7187C4.3125 23.7187 4.40625 22.6875 4.875 21.5625C4.96875 21.2812 5.53125 21.375 5.53125 21.75Z" fill="#BD4F53"/>
<path d="M11.9062 23.625C11.9062 23.625 16.4061 22.7813 18.5624 24.0938C18.5624 24.0938 19.1249 25.0312 18.5624 25.3125C17.9999 25.5 14.0624 23.625 11.9999 24.2812C11.9999 24.1875 11.5312 23.8125 11.9062 23.625ZM5.8124 21.5625C5.8124 21.5625 9.09365 21.6563 10.4062 22.9688C10.4062 22.9688 10.6874 23.7187 10.2187 23.8125C9.7499 23.9062 7.3124 21.9375 5.71865 22.0312C5.8124 22.0312 5.53115 21.6562 5.8124 21.5625Z" fill="#F4ABAB"/>
<path d="M9.9375 2.71875C9.9375 2.71875 13.7812 0.75 16.9688 2.0625C16.9688 2.0625 17.9062 3.28125 15.5625 3.5625C13.2188 3.84375 13.2188 2.53125 9.9375 2.71875Z" fill="white"/>
<path d="M23.1413 10.1058C23.1583 5.39409 19.3526 1.56068 14.6409 1.54361C9.92925 1.52654 6.09584 5.33227 6.07876 10.0439C6.06169 14.7556 9.86742 18.589 14.5791 18.6061C19.2908 18.6232 23.1242 14.8175 23.1413 10.1058Z" fill="#8E4028"/>
<path d="M22.7031 9.55539C22.7198 4.94727 19.0397 1.19826 14.4833 1.18175C9.92697 1.16524 6.21978 4.88748 6.20309 9.49561C6.18639 14.1037 9.8665 17.8527 14.4229 17.8692C18.9792 17.8858 22.6864 14.1635 22.7031 9.55539Z" fill="#E8A77B"/>
<path d="M22.6373 9.30669C22.6532 4.90567 19.2243 1.32547 14.9786 1.31008C10.733 1.2947 7.27822 4.84996 7.26227 9.25098C7.24633 13.652 10.6752 17.2322 14.9209 17.2476C19.1666 17.263 22.6213 13.7077 22.6373 9.30669Z" fill="#E8BD89"/>
<path d="M18.379 10.4187C18.3906 7.20854 15.8816 4.59707 12.775 4.58581C9.66843 4.57456 7.1406 7.16777 7.12897 10.3779C7.11734 13.5881 9.62631 16.1996 12.7329 16.2108C15.8395 16.2221 18.3673 13.6288 18.379 10.4187Z" fill="#FFDEC2"/>
<path d="M6.75 8.8125C6.75 8.8125 7.03125 7.59375 9.84375 7.59375C12.6562 7.59375 16.6875 7.875 18.375 6.09375L17.8125 5.4375C17.8125 5.4375 16.125 6.375 13.3125 6.375C10.5 6.375 6.84375 7.125 6.65625 7.40625C6.46875 7.6875 6.75 8.8125 6.75 8.8125Z" fill="#E8A77B"/>
<path d="M15.4262 10.9703C15.4281 10.4525 15.0939 10.0316 14.6796 10.0301C14.2654 10.0286 13.9281 10.4471 13.9262 10.9648C13.9244 11.4826 14.2586 11.9036 14.6729 11.9051C15.0871 11.9066 15.4244 11.488 15.4262 10.9703Z" fill="#8E4028"/>
<path d="M15.0212 10.6737C15.0216 10.5702 14.9379 10.4859 14.8344 10.4855C14.7308 10.4852 14.6466 10.5688 14.6462 10.6724C14.6458 10.7759 14.7295 10.8602 14.833 10.8605C14.9366 10.8609 15.0208 10.7773 15.0212 10.6737Z" fill="white"/>
<path d="M9.20017 9.99567C9.20205 9.4779 8.86779 9.05695 8.45357 9.05545C8.03936 9.05395 7.70205 9.47247 7.70017 9.99023C7.6983 10.508 8.03256 10.929 8.44678 10.9305C8.86099 10.932 9.1983 10.5134 9.20017 9.99567Z" fill="#8E4028"/>
<path d="M8.79609 9.60585C8.79646 9.5023 8.71282 9.41805 8.60927 9.41767C8.50572 9.4173 8.42146 9.50094 8.42109 9.60449C8.42071 9.70805 8.50436 9.7923 8.60791 9.79267C8.71146 9.79305 8.79571 9.7094 8.79609 9.60585Z" fill="white"/>
<path d="M19.4065 3.65604C19.4065 3.65604 18.0002 6.74979 14.0627 6.46854C10.1252 6.09354 7.3127 6.84354 6.09395 8.43729C6.09395 8.43729 5.90645 2.24979 11.719 1.31229C17.5315 0.374794 19.4065 2.81229 19.4065 3.65604Z" fill="#493426"/>
<path d="M16.875 4.875L16.9687 4.96875C17.5312 5.53125 20.1562 8.4375 19.875 14.1563C19.875 14.1563 20.1562 15.9375 22.5 15.9375C22.5 15.9375 22.3125 14.7188 22.6875 13.875C23.0625 13.0312 24 8.625 22.9687 6.28125C21.9375 3.9375 19.125 1.40625 15.6562 1.125" fill="#493426"/>
<path d="M19.6875 10.9687C19.6875 10.9687 20.625 10.4063 21.0938 10.7813C21.8438 11.5313 21.1875 12.75 19.7813 12.9375L19.6875 10.9687Z" fill="#E8BD89"/>
<path d="M17.5312 6.375C17.5312 6.375 19.4062 8.53125 19.6875 10.9687C19.6875 10.9687 19.5 7.21875 17.7187 5.90625L17.5312 6.375ZM20.3438 12.8437C20.3438 12.8437 20.0625 14.8125 21.375 15.6563C21.375 15.6563 20.7187 15.8438 20.1562 15.0938C19.5937 14.4375 19.7812 12.9375 19.7812 12.9375L20.3438 12.8437Z" fill="#E8A77B"/>
<path d="M12.094 22.2188C12.094 22.2188 11.344 20.8125 12.3752 19.5C12.3752 19.5 11.0627 19.6875 10.969 22.2188C10.8752 22.2188 11.6252 22.6875 12.094 22.2188Z" fill="#A85038"/>
<path d="M13.5 14.4375C13.5 14.4375 12.75 14.3437 12.1875 13.875C11.625 13.4062 11.0625 13.5 10.9688 13.5C10.875 13.5 10.6875 13.3125 10.5 13.2188C10.3125 13.125 10.0312 13.125 10.0312 13.2188C10.0312 13.3125 10.2187 13.7812 10.2187 13.7812V14.3438C10.2187 14.5312 10.2188 15.0938 10.7813 15.1875C11.3438 15.2813 11.8125 15.2813 12.0937 15.0938C12.375 15.0938 13.5 14.4375 13.5 14.4375Z" fill="#A53829"/>
<path d="M19.5938 23.9062C19.5938 23.9062 21.8438 25.875 24 24.9375C26.1563 24 20.5313 27.375 20.5313 27.375L19.5938 23.9062Z" fill="#BD4F53"/>
<path d="M16.5937 4.96875C16.5937 4.96875 15.0937 4.78125 14.625 3.1875C14.0625 1.6875 13.5937 0.1875 10.9687 0.1875C8.34372 0.1875 5.15622 2.15625 6.09372 4.96875C7.03122 7.78125 16.7812 7.78125 16.5937 4.96875Z" fill="#493426"/>
<path d="M15.6563 5.0625C15.6563 5.0625 14.4376 4.875 13.9688 3.65625C13.5001 2.34375 13.1251 1.125 10.8751 1.125C8.62507 1.125 6.18757 2.71875 7.03132 5.0625C7.87507 7.40625 15.8438 7.40625 15.6563 5.0625Z" fill="#604637"/>
<path d="M20.4375 17.3438C20.4375 17.3438 25.5 22.125 22.2188 26.0625C22.2188 26.0625 22.875 27.0937 23.7188 25.5937C24.4688 24.0937 25.9688 19.0312 20.4375 17.3438Z" fill="#BD4F53"/>
<path d="M16.4062 26.8125L16.0312 27.2812L17.7187 28.5L27.4687 18.8438L25.875 16.875L16.4062 26.8125Z" fill="#9A4C18"/>
<path d="M27.6562 21.5625C27.375 25.4063 23.8125 28.6875 19.7812 28.5938C15.8437 28.5938 13.4062 25.3125 14.1562 21.5625C14.8125 18.0938 18.1875 15.2812 21.75 15.2812C25.2187 15.2812 27.9375 18 27.6562 21.5625Z" fill="#9A4C18"/>
<path d="M28.5939 22.7812C28.3127 26.4375 24.8439 29.5312 20.9064 29.5312C17.0627 29.5312 14.6252 26.4375 15.3752 22.875C16.0314 19.5 19.3127 16.9687 22.7814 16.875C26.2502 16.7812 28.8752 19.4062 28.5939 22.7812Z" fill="#9A4C18"/>
<path d="M17.4375 27.0937L19.125 27.9375L27 19.6875L25.7812 17.9062L17.4375 27.0937Z" fill="#F49937"/>
<path d="M27.8438 22.875C27.5626 25.9688 24.6563 28.5938 21.4688 28.5938C18.2813 28.5938 16.2188 25.9688 16.7813 22.875C17.3438 19.9688 20.0626 17.7188 22.9688 17.625C25.9688 17.625 28.1251 19.875 27.8438 22.875Z" fill="#F49937"/>
<path d="M26.8126 21.5625C26.5313 24.9375 23.4376 27.75 19.9688 27.6562C16.5938 27.6562 14.3438 24.8438 15.0001 21.5625C15.5626 18.4687 18.5626 16.0312 21.6563 16.0312C24.7501 16.0312 27.0938 18.375 26.8126 21.5625Z" fill="#FFEDC0"/>
<path d="M26.3438 21.8438C26.0626 24.9375 23.1563 27.5625 19.9688 27.5625C16.7813 27.5625 14.7188 24.9375 15.2813 21.8438C15.8438 18.9375 18.5626 16.6875 21.4688 16.5938C24.4688 16.5938 26.6251 18.8438 26.3438 21.8438Z" fill="#FFD766"/>
<path d="M25.1249 21.8437C24.8436 24.2812 22.5936 26.25 20.1561 26.25C17.7186 26.25 16.1249 24.2812 16.4999 21.8437C16.8749 19.5937 19.0311 17.8125 21.3749 17.7188C23.6249 17.7188 25.3124 19.5 25.1249 21.8437Z" fill="#FFEDC0"/>
<path d="M25.2186 21.1875C24.9374 23.5313 22.7811 25.5938 20.2499 25.5C17.8124 25.5 16.2186 23.5313 16.5936 21.1875C16.9686 18.9375 19.1249 17.1562 21.3749 17.1562C23.7186 17.1562 25.4061 18.9375 25.2186 21.1875Z" fill="#F49937"/>
<path d="M24.4688 21.8437C24.2813 23.9062 22.4063 25.5 20.25 25.5C18.1875 25.5 16.7813 23.8125 17.1563 21.8437C17.5313 19.875 19.3125 18.375 21.2813 18.375C23.25 18.375 24.6563 19.875 24.4688 21.8437Z" fill="#FFD766"/>
<path d="M21.8438 18L22.4063 20.1562L24.75 20.8125L22.5938 22.3125L22.4063 24.8437L20.4375 23.3437L17.8125 24.2812L18.9375 21.8437L17.625 19.9687H20.1563L21.8438 18Z" fill="#F49937"/>
</g>
<defs>
<clipPath id="clip0_1_18277">
<rect width="30" height="30" fill="white"/>
</clipPath>
</defs>
</svg>
