<svg width="20" height="20" viewBox="0 0 20 20" fill="none" xmlns="http://www.w3.org/2000/svg">
<path d="M2.50001 13.3333C2.03977 13.3333 1.66667 13.7064 1.66667 14.1667C1.66667 14.6269 2.03977 15 2.50001 15V13.3333ZM8.74117 12.656C9.005 12.2789 8.91317 11.7593 8.53601 11.4955C8.15893 11.2317 7.63935 11.3235 7.37552 11.7007L8.74117 12.656ZM10.4247 7.34606C10.1615 7.72366 10.2543 8.24308 10.6319 8.50617C11.0095 8.76933 11.5289 8.6765 11.792 8.29894L10.4247 7.34606ZM11.2558 7.61083L10.5731 7.133L10.5722 7.13439L11.2558 7.61083ZM17.5 6.66667C17.9603 6.66667 18.3333 6.29357 18.3333 5.83333C18.3333 5.3731 17.9603 5 17.5 5V6.66667ZM2.50001 15H4.4975V13.3333H2.50001V15ZM4.4975 15C6.12907 14.9999 7.65802 14.2037 8.59359 12.867L7.22811 11.9113C6.60441 12.8025 5.58522 13.3333 4.4975 13.3333V15ZM8.59359 12.867L8.74117 12.656L7.37552 11.7007L7.22811 11.9113L8.59359 12.867ZM11.792 8.29894L11.9395 8.08728L10.5722 7.13439L10.4247 7.34606L11.792 8.29894ZM11.9386 8.08867C12.5623 7.19753 13.5815 6.66675 14.6693 6.66667L14.6692 5C13.0376 5.00013 11.5087 5.79629 10.5731 7.133L11.9386 8.08867ZM14.6693 6.66667H17.5V5H14.6692L14.6693 6.66667Z" fill="#0F5C82"/>
<path d="M15 3.33337L17.5 5.83337L15 8.33337" stroke="#0F5C82" stroke-width="1.66667" stroke-linecap="round" stroke-linejoin="round"/>
<path d="M2.5 5.83337H4.4975C5.85714 5.83347 7.13122 6.49695 7.91083 7.61087L11.2558 12.3892C12.0354 13.5031 13.3095 14.1666 14.6692 14.1667H17.5" stroke="#0F5C82" stroke-width="1.66667" stroke-linecap="round" stroke-linejoin="round"/>
<path d="M15 16.6667L17.5 14.1667L15 11.6667" stroke="#0F5C82" stroke-width="1.66667" stroke-linecap="round" stroke-linejoin="round"/>
</svg>
