<svg width="30" height="30" viewBox="0 0 30 30" fill="none" xmlns="http://www.w3.org/2000/svg">
<g clip-path="url(#clip0_1_13559)">
<path d="M26.0583 23.3447C26.9794 19.6255 22.185 15.2382 15.3497 13.5454C8.51436 11.8526 2.22656 13.4953 1.30547 17.2145C0.384384 20.9337 5.17881 25.321 12.0141 27.0138C18.8494 28.7066 25.1372 27.0639 26.0583 23.3447Z" fill="#3D210F"/>
<path d="M26.0992 23.1997C26.9207 19.8825 22.0456 15.8212 15.2103 14.1284C8.37495 12.4356 2.16787 13.7523 1.34636 17.0695C0.524852 20.3866 5.4 24.448 12.2353 26.1408C19.0706 27.8336 25.2777 26.5168 26.0992 23.1997Z" fill="#80461D"/>
<path d="M25.1579 5.11815C25.5562 3.50984 23.0271 1.49972 19.5089 0.628425C15.9907 -0.242873 12.8158 0.354591 12.4175 1.9629C12.0192 3.57121 14.5483 5.58133 18.0665 6.45263C21.5847 7.32392 24.7596 6.72646 25.1579 5.11815Z" fill="#80461D"/>
<path d="M24.8438 24.0939C25.4063 23.7189 26.1563 23.0627 26.5313 22.0314C27.0001 20.3439 26.2501 18.9377 26.2501 18.9377C25.5001 17.4377 21.1876 15.1877 15.7501 13.5939C10.3126 11.9064 5.43757 11.4377 3.93757 12.2814C3.93757 12.2814 2.53132 13.0314 1.96882 14.7189C1.59382 15.8439 1.96882 16.7814 2.25007 17.3439C2.25007 17.4377 2.34382 17.5314 2.43757 17.6252C2.43757 17.8127 2.53132 17.8127 2.53132 17.8127C3.75007 19.3127 7.78132 21.3752 12.8438 22.8752C17.8126 24.3752 22.3126 24.9377 24.1876 24.3752L24.2813 24.2814C24.5626 24.2814 24.6563 24.1877 24.8438 24.0939ZM24.5626 12.4689C24.9376 12.1877 25.5001 11.7189 25.6876 10.9689C26.0626 9.75016 25.5001 8.81266 25.5001 8.81266C24.9376 7.68766 22.0313 6.18766 18.2813 5.06266C14.5313 3.93766 11.1563 3.56266 10.1251 4.21891C10.1251 4.21891 9.18757 4.78141 8.71882 6.00016C8.43757 6.75016 8.71882 7.50016 8.90632 7.87516C8.90632 7.96891 9.00007 8.06266 9.00007 8.06266L9.09382 8.15641C9.93757 9.18766 12.7501 10.6877 16.2188 11.7189C19.6876 12.7502 22.7813 13.1252 24.0938 12.6564H24.1876C24.3751 12.5627 24.4688 12.4689 24.5626 12.4689Z" fill="#80461D"/>
<path d="M24.8436 18.5625C25.3123 18.2812 25.9686 17.625 26.3436 16.6875C26.8123 15.1875 26.1561 13.9688 26.1561 13.9688C25.4998 12.6562 21.8436 10.6875 17.1561 9.1875C12.4686 7.78125 8.34359 7.40625 6.93734 8.15625C6.93734 8.15625 5.71859 8.8125 5.24984 10.3125C4.96859 11.25 5.24984 12.1875 5.43734 12.75C5.43734 12.8438 5.53109 12.9375 5.62484 13.0312C5.53109 13.125 5.62484 13.2188 5.62484 13.2188C6.65609 14.5312 10.1248 16.3125 14.4373 17.625C18.7498 18.9375 22.6873 19.4062 24.2811 18.8438L24.3748 18.75C24.5623 18.75 24.7498 18.6562 24.8436 18.5625ZM25.3123 6.75C26.9061 4.03125 23.1561 0 23.1561 0C20.9061 2.53125 14.9998 -0.28125 12.8436 1.5C12.2811 1.96875 11.9998 2.4375 11.9998 2.90625C11.8123 3.46875 11.9998 3.9375 12.1873 4.21875V4.3125C12.1873 4.40625 12.2811 4.40625 12.2811 4.40625C12.9373 5.15625 14.9998 6.1875 17.6248 6.9375C20.1561 7.78125 22.4998 8.0625 23.4373 7.78125H23.5311C23.6248 7.78125 24.0936 7.96875 24.1873 7.96875C24.4686 7.78125 24.8436 7.40625 25.3123 6.75Z" fill="#80461D"/>
<path d="M25.7548 22.3058C26.5016 19.2902 21.8104 15.5339 15.2766 13.9158C8.74285 12.2976 2.84078 13.4305 2.09395 16.4461C1.34712 19.4616 6.03835 23.218 12.5721 24.8361C19.1059 26.4543 25.0079 25.3214 25.7548 22.3058Z" fill="#965123"/>
<path d="M23.3438 24.7502C23.8126 24.3752 24.5626 23.7189 24.8438 22.6877C25.3126 21.0002 24.6563 19.5939 24.6563 19.5939C24.0001 18.0939 20.2501 15.9377 15.3751 14.4377C10.5001 12.9377 6.18758 12.5627 4.87508 13.4064C4.87508 13.4064 3.56258 14.1564 3.09383 15.8439C2.71883 16.9689 3.00008 18.0002 3.28133 18.5627C3.28133 18.6564 3.37508 18.7502 3.46883 18.8439C3.56258 18.9377 3.56258 19.0314 3.56258 19.0314C4.59383 20.5314 8.15633 22.5002 12.6563 23.9064C17.1563 25.3127 21.1876 25.6877 22.7813 25.1252L22.8751 25.0314C23.0626 24.9377 23.2501 24.8439 23.3438 24.7502Z" fill="#BF763B"/>
<path d="M18.2812 16.5C18.2812 16.5 23.9062 19.3125 22.5 22.3125C20.4375 26.5312 9.5625 23.0625 4.78125 20.4375C4.78125 20.4375 9 23.7188 16.9688 25.0313C16.9688 25.0313 21 25.7812 22.6875 25.2188C24.375 24.6562 25.0312 23.1562 24.9375 21.9375C24.8438 20.8125 25.5 19.5 18.2812 16.5Z" fill="#965123"/>
<path d="M23.6248 17.7186C23.9998 17.4374 24.6561 16.9686 24.8436 16.2186C25.2186 14.9999 24.6561 13.9686 24.6561 13.9686C24.0936 12.8436 20.9061 11.2499 16.7811 10.0311C12.7498 8.81236 9.18734 8.43736 8.06234 8.99986C8.06234 8.99986 7.03109 9.46861 6.65609 10.6874C6.37484 11.4374 6.65609 12.1874 6.84359 12.6561C6.84359 12.7499 6.93734 12.8436 6.93734 12.9374L7.03109 13.0311C7.96859 14.1561 10.9686 15.6561 14.7186 16.7811C18.4686 17.9061 21.8436 18.2811 23.1561 17.9061H23.2498C23.4373 17.8124 23.5311 17.7186 23.6248 17.7186Z" fill="#BF763B"/>
<path d="M19.4062 10.875C19.4062 10.875 22.4062 12.5625 21.375 15C20.3437 17.4375 12.1875 16.0312 8.25 13.9687C8.25 13.9687 11.8125 16.5937 18.4688 17.7187C18.4688 17.7187 21.8437 18.375 23.25 17.9062C24.6562 17.5312 25.2188 16.2187 25.0312 15.2812C24.8438 14.3437 25.4062 13.3125 19.4062 10.875Z" fill="#965123"/>
<path d="M23.5993 11.2644C23.9976 9.65608 21.1425 7.56525 17.2223 6.59437C13.302 5.62349 9.80115 6.14024 9.40284 7.74854C9.00453 9.35685 11.8596 11.4477 15.7799 12.4186C19.7001 13.3894 23.201 12.8727 23.5993 11.2644Z" fill="#965123"/>
<path d="M23.625 11.7189C23.9063 11.5314 24.375 11.1564 24.5625 10.5939C24.8438 9.65639 24.375 8.81264 24.375 8.81264C23.9063 7.96889 21.375 6.65639 18.0938 5.62514C14.8125 4.68764 12 4.31264 11.0625 4.78139C11.0625 4.78139 10.2188 5.15639 9.93753 6.18764C9.75003 6.84389 9.93753 7.40639 10.125 7.68764C10.125 7.78139 10.2188 7.78139 10.2188 7.87514C10.3125 7.96889 10.3125 8.06264 10.3125 8.06264C11.0625 8.90639 13.5 10.1251 16.5 11.0626C19.5 12.0001 22.125 12.2814 23.25 12.0001H23.3438L23.625 11.7189Z" fill="#BF763B"/>
<path d="M20.9062 6.46875C20.9062 6.46875 22.9688 7.6875 22.2188 9.65625C21.375 11.625 15.4688 11.25 12.75 9.65625C12.75 9.65625 15.375 11.1562 20.0625 11.9062C20.0625 11.9062 22.4062 12.375 23.4375 12C24.4688 11.625 24.8437 10.5938 24.75 9.84375C24.6562 9.09375 25.125 8.25 20.9062 6.46875Z" fill="#965123"/>
<path d="M24.0937 6.0937C23.7187 7.68745 21.2812 8.24995 17.7187 7.4062C14.1562 6.56245 11.7187 4.5937 12.0937 2.99995C12.4687 1.4062 15.5624 1.2187 19.0312 2.06245C22.4999 2.9062 24.5624 4.49995 24.0937 6.0937Z" fill="#965123"/>
<path d="M20.7188 2.8125C20.7188 2.8125 22.5 3.75 21.9375 4.96875C21.375 6.1875 16.6875 5.34375 14.4375 4.125C14.4375 4.125 16.5 5.53125 20.3438 6.28125C20.3438 6.28125 22.3125 6.65625 23.0625 6.46875C23.9063 6.28125 24.1875 5.625 24.0938 5.15625C23.9063 4.6875 24.1875 4.125 20.7188 2.8125Z" fill="#965123"/>
<path d="M24.2814 6C25.5002 3.9375 22.8752 1.03125 22.8752 1.03125C21.0002 2.90625 15.1877 0.46875 13.4064 1.6875C12.9377 2.0625 12.7502 2.4375 12.7502 2.71875C12.6564 3.09375 12.8439 3.46875 12.9377 3.75L13.1252 3.9375C13.6877 4.5 15.5627 5.34375 17.9064 6.09375C20.2502 6.75 22.2189 7.125 23.0627 6.9375H23.1564C23.2502 6.9375 23.3439 6.84375 23.3439 6.84375C23.5314 6.75 23.9064 6.46875 24.2814 6Z" fill="#BF763B"/>
<path d="M13.0311 3.84375C13.0311 3.84375 17.3436 6 19.7811 5.625C22.2186 5.25 24.3748 3.5625 23.5311 1.59375C23.5311 1.59375 25.5936 4.21875 24.5623 5.8125C23.5311 7.40625 22.5936 7.03125 21.3748 6.84375C19.9686 6.75 14.2498 5.25 13.0311 3.84375ZM19.6873 19.9687C19.3123 20.25 18.8436 20.25 18.7498 20.0625C18.5623 19.875 18.7498 19.5 19.1248 19.2187C19.4998 18.9375 19.8748 18.9375 20.0623 19.125C20.2498 19.3125 20.0623 19.6875 19.6873 19.9687ZM14.8123 3.375C14.4373 3.65625 13.9686 3.5625 13.6873 3.1875C13.4061 2.90625 13.4998 2.4375 13.8748 2.15625C14.2498 1.875 14.7186 1.96875 14.9998 2.34375C15.2811 2.71875 15.1873 3.1875 14.8123 3.375ZM16.9686 2.625C16.5936 2.8125 16.1248 2.71875 16.0311 2.53125C15.9373 2.34375 16.2186 2.0625 16.5936 1.875C16.9686 1.6875 17.4373 1.78125 17.5311 1.96875C17.6248 2.15625 17.4373 2.53125 16.9686 2.625ZM12.8436 21.6562C12.3748 21.6562 11.9998 21.375 11.9998 21.0937C11.9998 20.8125 12.3748 20.625 12.8436 20.7187C13.3123 20.7187 13.6873 21 13.6873 21.2812C13.6873 21.5625 13.3123 21.75 12.8436 21.6562ZM5.15606 15.5625C4.68731 15.5625 4.31231 15.0937 4.40606 14.7187C4.40606 14.25 4.87481 13.9687 5.24981 13.9687C5.71856 13.9687 6.09356 14.4375 5.99981 14.8125C5.99981 15.2812 5.62481 15.5625 5.15606 15.5625ZM17.0623 20.9062C16.5936 20.9062 16.2186 20.7187 16.2186 20.4375C16.2186 20.1562 16.5936 19.9687 17.0623 19.9687C17.5311 19.9687 17.9061 20.1562 17.9061 20.4375C17.8123 20.7187 17.5311 20.9062 17.0623 20.9062Z" fill="#965123"/>
<path d="M22.8751 23.25C22.4064 23.4375 22.0314 23.3438 21.9376 23.0625C21.8439 22.7813 22.1251 22.5 22.5001 22.4062C22.9689 22.2188 23.3439 22.3125 23.4376 22.5938C23.6251 22.7813 23.3439 23.1562 22.8751 23.25ZM24.4689 20.9062C24.3751 21.2812 24.0939 21.5625 23.8126 21.5625C23.5314 21.4688 23.4376 21.0938 23.5314 20.7188C23.6251 20.3438 23.9064 20.0625 24.1876 20.0625C24.3751 20.1562 24.5626 20.5312 24.4689 20.9062Z" fill="#80461D"/>
<path d="M22.9688 12.6563C21.1875 12.2813 19.0312 12.375 16.7812 12.75C16.5 12.8438 16.2188 12.8438 16.0313 12.8438H15C14.7188 12.75 14.4375 12.6562 13.9688 12.5625C13.7812 12.4687 13.5 12.375 13.2188 12.1875C11.1563 11.0625 9.09375 10.4062 7.21875 10.2187C5.34375 10.0312 1.78125 10.0312 1.78125 10.0312L1.59375 12.1875C1.59375 12.1875 2.34375 12.375 2.34375 12.8438C2.34375 13.3125 2.90625 17.9063 2.90625 17.9063C2.90625 17.9063 3.1875 19.5 4.40625 20.1562C5.71875 20.7188 8.34375 21.6562 10.125 20.625C11.9062 19.5938 13.4062 15.5625 13.7812 15.0938C14.0625 14.625 14.1562 14.4375 14.8125 14.5312C15.375 14.625 15.4688 14.9062 15.6563 15.375C15.8438 15.9375 16.4062 20.25 17.9062 21.8437C19.4062 23.4375 22.2188 23.3438 23.5312 23.1563C24.9375 22.9688 25.5 21.4688 25.5 21.4688L27.1875 16.7812C27.2812 16.4062 28.0312 16.4062 28.0312 16.4062C28.125 15.9375 28.3125 14.0625 28.3125 14.0625L22.9688 12.6563Z" fill="#020202"/>
<path opacity="0.48" d="M11.8125 12.5626C11.5313 12.2813 11.0625 12.0938 10.4063 11.8126C8.25 11.0626 6.75 10.7813 5.15625 10.9688C3.5625 11.1563 3.46875 13.6876 3.46875 13.6876L3.75 17.4376C3.9375 18.0938 4.125 19.1251 5.53125 19.6876C5.90625 17.5313 7.40625 13.4063 11.8125 12.5626Z" fill="#9DB0D6"/>
<path opacity="0.48" d="M11.8125 12.5625C7.40625 13.4062 6 17.4375 5.53125 19.6875C5.8125 19.7813 6.1875 19.875 6.5625 19.9687C6.5625 19.9687 9.5625 20.7188 10.7812 19.125C12 17.4375 12.5625 14.4375 12.5625 14.0625C12.4687 13.7813 12.5625 13.2188 11.8125 12.5625ZM25.125 14.25C20.625 15 19.125 19.2188 18.6562 21.4688C19.875 22.2188 21.4688 22.3125 21.4688 22.3125C23.8125 22.6875 24.375 21.4688 24.75 20.7188C25.125 19.9688 25.875 17.25 25.875 17.25C25.875 17.25 26.25 15.0938 25.125 14.25Z" fill="#6276A5"/>
<path opacity="0.48" d="M25.1249 14.2502C25.0312 14.1564 24.9374 14.1564 24.8437 14.0627C23.3437 13.4064 21.8437 13.2189 19.5937 13.3127C17.3437 13.3127 17.1562 14.3439 16.9687 14.7189C16.7812 15.0939 16.6874 18.1877 17.5312 20.1564C17.7187 20.7189 18.1874 21.0939 18.6562 21.3752C19.1249 19.2189 20.5312 15.0002 25.1249 14.2502Z" fill="#9DB0D6"/>
<path opacity="0.27" d="M11.0561 14.5827C11.2551 13.7253 9.98543 12.698 8.22018 12.2883C6.45493 11.8786 4.86258 12.2415 4.66357 13.0989C4.46456 13.9563 5.73424 14.9835 7.49949 15.3933C9.26474 15.803 10.8571 15.4401 11.0561 14.5827Z" fill="#9DB0D6"/>
<path opacity="0.27" d="M24.7158 16.0716C24.7969 15.1952 23.3999 14.3493 21.5956 14.1823C19.7912 14.0153 18.2627 14.5904 18.1815 15.4668C18.1004 16.3432 19.4974 17.1891 21.3018 17.3561C23.1062 17.5231 24.6347 16.948 24.7158 16.0716Z" fill="#9DB0D6"/>
<path d="M17.25 27.2813L16.875 27.75L18.6562 28.9688L28.5 19.2188L26.9063 17.1562L17.25 27.2813Z" fill="#9A4C18"/>
<path d="M28.6877 22.0311C28.4064 25.8748 24.7502 29.2498 20.7189 29.1561C16.7814 29.1561 14.2502 25.8748 15.0002 22.0311C15.7502 18.4686 19.1252 15.7498 22.6877 15.6561C26.2502 15.5623 28.9689 18.3748 28.6877 22.0311Z" fill="#9A4C18"/>
<path d="M29.6253 23.1562C29.3441 26.8125 25.7816 30 21.8441 30C18.0003 30 15.4691 26.8125 16.2191 23.25C16.8753 19.875 20.2503 17.25 23.7191 17.1562C27.2816 17.0625 30.0003 19.6875 29.6253 23.1562Z" fill="#9A4C18"/>
<path d="M18.375 27.5625L20.0625 28.4062L28.125 20.0625L26.7188 18.2812L18.375 27.5625Z" fill="#F49937"/>
<path d="M28.8752 23.2498C28.5939 26.4373 25.6877 29.0623 22.4064 29.0623C19.2189 29.0623 17.0627 26.3435 17.7189 23.2498C18.2814 20.3435 21.0939 17.9998 24.0002 17.9998C27.0002 17.906 29.1564 20.2498 28.8752 23.2498Z" fill="#F49937"/>
<path d="M27.8437 21.9375C27.4687 25.3125 24.3749 28.2188 20.9062 28.125C17.4374 28.125 15.1874 25.2188 15.8437 21.9375C16.4062 18.8438 19.4062 16.3125 22.5937 16.3125C25.7812 16.3125 28.1249 18.75 27.8437 21.9375Z" fill="#FFEDC0"/>
<path d="M27.3752 22.2185C27.0939 25.406 24.1877 28.031 20.9064 28.031C17.7189 28.031 15.5627 25.3123 16.2189 22.2185C16.7814 19.3123 19.5939 16.9685 22.5002 16.9685C25.5002 16.8748 27.6564 19.2185 27.3752 22.2185Z" fill="#FFD766"/>
<path d="M26.1565 22.2189C25.8752 24.6564 23.6252 26.7189 21.094 26.7189C18.6565 26.7189 16.969 24.6564 17.4377 22.3126C17.8127 19.9689 20.0627 18.1876 22.3127 18.1876C24.6565 18.0939 26.344 19.8751 26.1565 22.2189Z" fill="#FFEDC0"/>
<path d="M26.1565 21.5625C25.8752 24 23.6252 25.9688 21.1877 25.9688C18.7502 25.9688 17.0627 24 17.5315 21.5625C17.9065 19.3125 20.1565 17.4375 22.4065 17.4375C24.7502 17.5312 26.4377 19.3125 26.1565 21.5625Z" fill="#F49937"/>
<path d="M25.4063 22.2188C25.2188 24.2813 23.25 25.9688 21.1875 25.9688C19.125 25.9688 17.7188 24.2813 18.0938 22.2188C18.4688 20.25 20.25 18.75 22.2188 18.6562C24.1875 18.6562 25.6875 20.25 25.4063 22.2188Z" fill="#FFD766"/>
<path d="M22.7813 18.2812L23.3438 20.5312L25.7813 21.1875L23.5313 22.6875L23.3438 25.2187L21.375 23.8125L18.75 24.6562L19.875 22.2188L18.5625 20.3438H21.1875L22.7813 18.2812Z" fill="#F49937"/>
</g>
<defs>
<clipPath id="clip0_1_13559">
<rect width="30" height="30" fill="white"/>
</clipPath>
</defs>
</svg>
