<svg width="30" height="30" viewBox="0 0 30 30" fill="none" xmlns="http://www.w3.org/2000/svg">
<path d="M25.2188 25.875C25.3125 25.7813 25.3125 25.5938 25.3125 25.4063L25.5 22.7813C26.0625 22.2188 25.4062 20.3438 24.9375 19.5L22.7812 14.625L22.5 13.9688L17.5312 3.75004C16.7812 2.34379 14.7188 2.15629 13.6875 3.37504L7.96875 9.93754L3.46875 15H3.5625L1.125 19.3125L0.46875 21C0.46875 21.9375 2.0625 24 3.1875 24.1875L22.5 27.2813C23.625 27.4688 25.5938 26.5313 26.0625 25.7813L25.125 26.1563L25.2188 25.875Z" fill="#704413"/>
<path d="M13.781 1.7811L0.749774 18.4686C-0.375226 19.8749 0.374774 22.0311 2.06227 22.4061L24.1873 26.2499C26.2498 26.6249 27.7498 24.5624 26.906 22.6874L17.8123 2.24985C17.0623 0.562353 14.906 0.374853 13.781 1.7811Z" fill="#AA671D"/>
<path d="M13.6876 4.12493L2.71882 18.0937C1.78132 19.2187 2.43757 21.0937 3.84382 21.3749L22.3126 24.6562C24.0001 24.9374 25.3126 23.2499 24.6563 21.7499L17.0626 4.49993C16.4063 3.18743 14.6251 2.99993 13.6876 4.12493Z" fill="url(#paint0_linear_1_4839)"/>
<path d="M13.7813 3.28103L2.0625 18.1873C1.03125 19.406 1.6875 21.3748 3.28125 21.656L23.0625 25.1248C24.8438 25.406 26.3438 23.6248 25.5 21.9373L17.4375 3.65603C16.6875 2.15603 14.8125 1.96853 13.7813 3.28103Z" fill="white"/>
<path d="M13.9689 4.875L4.03142 17.625C3.18767 18.6562 3.75017 20.3437 5.06267 20.625L21.9377 23.625C23.5314 23.9062 24.6564 22.4062 24.0002 20.9062L17.0627 5.15625C16.5002 3.9375 14.9064 3.84375 13.9689 4.875Z" fill="url(#paint1_linear_1_4839)"/>
<path d="M15.1876 19.9689C15.0001 20.9064 14.1564 21.6564 13.2189 21.4689C12.2814 21.2814 11.6251 20.4376 11.7189 19.4064C11.8126 18.4689 12.7501 17.8126 13.6876 17.9064C14.6251 18.0001 15.2814 18.9376 15.1876 19.9689ZM16.6876 8.71887C16.8751 7.68762 16.1251 6.84387 15.1876 6.65637C14.2501 6.56262 13.3126 7.31262 13.2189 8.25012C13.1251 8.43762 13.1251 8.43762 13.1251 8.53137L12.5626 14.9064C12.4689 15.6564 12.9376 16.4064 13.6876 16.5001C14.4376 16.5939 15.0939 16.1251 15.2814 15.2814L16.5939 8.90637C16.6876 8.90637 16.6876 8.81262 16.6876 8.71887Z" fill="#493E3A"/>
<path d="M16.6875 26.4375L16.3125 27L18.0937 28.2188L28.5 17.9063L26.8125 15.75L16.6875 26.4375Z" fill="#9A4C18"/>
<path d="M28.7814 20.8123C28.4064 24.9373 24.6564 28.406 20.3439 28.406C16.1251 28.406 13.5001 24.9373 14.2501 20.906C15.0001 17.156 18.5626 14.2498 22.4064 14.156C26.1564 14.0623 29.0626 16.9685 28.7814 20.8123Z" fill="#9A4C18"/>
<path d="M29.8125 22.1248C29.4375 26.0623 25.7812 29.3436 21.5625 29.3436C17.4375 29.3436 14.8125 25.9686 15.6562 22.2186C16.4062 18.6561 19.875 15.8436 23.5312 15.7498C27.2812 15.6561 30.0937 18.4686 29.8125 22.1248Z" fill="#9A4C18"/>
<path d="M17.8125 26.7188L19.5937 27.6562L28.125 18.75L26.7188 16.875L17.8125 26.7188Z" fill="#F49937"/>
<path d="M28.9688 22.125C28.6876 25.5 25.5938 28.3125 22.1251 28.2188C18.7501 28.2188 16.5001 25.4062 17.1563 22.125C17.7188 19.0312 20.7188 16.5938 23.8126 16.5C26.9063 16.5 29.2501 18.9375 28.9688 22.125Z" fill="#F49937"/>
<path d="M27.8439 20.8125C27.5626 24.375 24.1876 27.375 20.5314 27.375C16.8751 27.375 14.5314 24.375 15.1876 20.8125C15.8439 17.5312 19.0314 14.9062 22.3126 14.9062C25.5939 14.8125 28.1251 17.4375 27.8439 20.8125Z" fill="#FFEDC0"/>
<path d="M27.3751 21C27.0938 24.375 24.0001 27.1875 20.5313 27.1875C17.1563 27.1875 14.9063 24.375 15.5626 21.0938C16.1251 18 19.1251 15.5625 22.2188 15.4688C25.3126 15.4688 27.6563 17.9062 27.3751 21Z" fill="#FFD766"/>
<path d="M26.0623 21C25.781 23.5312 23.4373 25.6875 20.7185 25.6875C18.0935 25.6875 16.406 23.5312 16.781 21C17.2498 18.5625 19.4998 16.5938 21.9373 16.5938C24.4685 16.6875 26.3435 18.5625 26.0623 21Z" fill="#FFEDC0"/>
<path d="M26.0624 20.4377C25.7812 22.9689 23.4374 25.1252 20.8124 25.1252C18.1874 25.1252 16.4999 22.9689 16.9687 20.5314C17.4374 18.0939 19.6874 16.2189 22.1249 16.2189C24.5624 16.0314 26.3437 18.0002 26.0624 20.4377Z" fill="#F49937"/>
<path d="M25.3123 21C25.0311 23.1562 23.0623 24.9375 20.8123 24.9375C18.5623 24.9375 17.1561 23.1562 17.5311 21C17.9061 18.9375 19.8748 17.25 21.9373 17.25C23.9998 17.3438 25.4998 18.9375 25.3123 21Z" fill="#FFD766"/>
<path d="M22.5 16.9688L23.1563 19.3125L25.6875 19.9687L23.3438 21.5625L23.1563 24.2812L21 22.6875L18.2813 23.7187L19.4063 21.0937L18.0938 19.125L20.8125 19.0312L22.5 16.9688Z" fill="#F49937"/>
<defs>
<linearGradient id="paint0_linear_1_4839" x1="2.29572" y1="14.0149" x2="24.8422" y2="14.0149" gradientUnits="userSpaceOnUse">
<stop stop-color="#FFC982"/>
<stop offset="1" stop-color="#FFEA61"/>
</linearGradient>
<linearGradient id="paint1_linear_1_4839" x1="3.63673" y1="13.8906" x2="24.232" y2="13.8906" gradientUnits="userSpaceOnUse">
<stop stop-color="#FFC982"/>
<stop offset="1" stop-color="#FFEA61"/>
</linearGradient>
</defs>
</svg>
