<svg width="30" height="30" viewBox="0 0 30 30" fill="none" xmlns="http://www.w3.org/2000/svg">
<g clip-path="url(#clip0_1_18506)">
<path d="M7.40625 12.5625C7.40625 12.5625 6.75 12.4687 6.375 12.0937C5.90625 11.7187 5.53125 11.7187 5.4375 11.7187C5.34375 11.7187 5.25 11.5312 5.0625 11.5312C4.96875 11.4375 4.6875 11.4375 4.6875 11.5312C4.6875 11.625 4.875 12 4.875 12V12.4688C4.875 12.6562 4.875 13.125 5.34375 13.2188C5.8125 13.4063 6.1875 13.3125 6.375 13.2188C6.5625 13.0313 7.40625 12.5625 7.40625 12.5625Z" fill="#BC4D3F"/>
<path d="M3.18757 21.8437C1.87507 21 1.40632 19.7812 2.06257 18C2.25007 17.4375 4.12507 15.0937 4.50007 14.8125C5.62507 13.9687 10.2188 11.625 14.1563 15C14.9063 15.6562 15.0001 18.4687 15.1876 19.5937V19.6875C15.7501 22.5937 14.8126 24.8437 12.4688 24.6562C9.65632 24.375 5.43757 23.3437 3.18757 21.8437Z" fill="#2E561D"/>
<path d="M16.0312 5.15594C15.0937 3.09344 12.8437 0.93719 10.0312 0.46844C9.09369 0.28094 7.87494 -0.000310272 6.37494 0.46844C-1.31256 2.43719 2.06244 11.4372 2.06244 11.4372C2.99994 10.0309 4.87494 5.24969 8.24994 5.53094C9.65619 5.71844 10.6874 5.24969 11.4374 4.78094C12.2812 5.99969 13.4999 8.43719 13.4062 12.2809C13.4062 12.2809 13.5937 13.8747 15.7499 13.9684C15.7499 13.9684 15.5624 12.8434 15.9374 12.0934C16.1249 11.3434 16.9687 7.31219 16.0312 5.15594Z" fill="#8E4028"/>
<path d="M6.375 13.5933C6.375 15.2808 5.15625 16.687 3.65625 16.5933C2.15625 16.4995 0.9375 15.0933 0.9375 13.4058C0.9375 11.7183 2.0625 10.312 3.65625 10.4058C5.0625 10.312 6.28125 11.812 6.375 13.5933Z" fill="#8E4028"/>
<path d="M6.46875 13.5937C6.46875 15.1875 5.34375 16.3125 3.9375 16.2187C2.53125 16.125 1.40625 14.8125 1.40625 13.3125C1.40625 11.8125 2.53125 10.5938 3.9375 10.5938C5.25 10.7812 6.375 12.0937 6.46875 13.5937Z" fill="#FFEFAB"/>
<path d="M3.65626 21.4686C2.43751 20.7186 1.78126 19.8748 2.43751 18.2811C2.62501 17.7186 4.50001 15.4686 4.87501 15.1873C6.00001 14.4373 9.93751 14.1561 13.875 17.0623C14.625 17.6248 15.0938 18.4686 15.375 19.4061V19.4998C15.9375 22.0311 15 23.9998 12.6563 23.9061C9.93751 23.7186 5.81251 22.7811 3.65626 21.4686Z" fill="#71AF5D"/>
<path d="M3.74997 20.0626C2.62497 19.4063 2.99997 18.1876 3.56247 16.8751C3.74997 16.4063 4.21872 15.9376 4.59372 15.7501C5.62497 15.0938 9.84372 14.6251 13.4062 17.0626C14.0625 17.5313 14.5312 18.1876 14.7187 19.0313V19.1251C15.1875 21.2813 13.5937 23.0626 11.625 22.5938C9.28122 22.1251 5.71872 21.0938 3.74997 20.0626Z" fill="#E8A554"/>
<path d="M3.65617 19.9687C2.62492 19.4062 3.65617 18.8438 4.21867 17.4375C4.31242 17.0625 5.34367 16.125 5.62492 15.9375C6.56242 15.2813 8.81242 14.625 11.9062 17.0625C12.4687 17.5313 12.9374 18.1875 13.0312 19.0312V19.125C13.4062 21.2812 12.3749 22.7812 10.6874 22.4062C8.62492 21.75 5.34367 21.0937 3.65617 19.9687Z" fill="#FFD097"/>
<path d="M5.43731 13.9688C5.43731 13.9688 4.59356 14.625 3.84356 16.0313L4.31231 16.5938L4.21856 16.6875C4.21856 16.6875 5.62481 15.4688 6.56231 15L5.43731 13.9688ZM3.56231 16.9688C3.56231 16.9688 4.21856 19.3125 14.9998 19.7813C14.9998 19.7813 14.4373 21.4687 13.9686 22.3125C13.9686 22.3125 11.1561 22.6875 7.40606 21.4688C3.93731 20.4375 2.53106 20.1563 3.56231 16.9688Z" fill="#71AF5D"/>
<path d="M2.90605 17.8122C2.9998 17.6247 3.28105 17.5309 3.46855 17.6247C4.21855 18.1872 6.28105 19.3122 10.781 20.0622C11.8123 20.2497 13.2185 20.2497 14.9998 19.9684C14.9998 19.9684 15.0935 20.3434 14.9998 20.9059C14.8123 22.1247 13.5935 22.9684 12.3748 22.8747C10.8748 22.7809 9.46855 22.5934 7.40605 22.0309C4.1248 20.9059 2.2498 20.4372 2.90605 17.8122Z" fill="#A0E58C"/>
<path d="M14.8123 6.37465C14.8123 10.4059 11.8123 15.5621 8.06231 15.1871C4.59356 14.8121 2.15606 12.3746 1.78106 8.90589C1.49981 5.24964 4.03106 1.96839 7.78106 1.78089C11.9998 1.59339 14.8123 2.1559 14.8123 6.37465Z" fill="#8E4028"/>
<path d="M14.6252 6.74969C14.6252 10.6872 11.0627 14.9059 7.40641 14.5309C4.03141 14.2497 2.15641 11.9059 1.87516 8.43719C1.50016 4.87469 4.03141 1.68719 7.68766 1.49969C11.7189 1.31219 14.6252 2.62469 14.6252 6.74969Z" fill="#E8A554"/>
<path d="M11.4376 9.46865C11.5313 12.0936 9.46881 14.0624 7.12506 13.8749C4.78131 13.5936 2.81256 11.5311 2.62506 9.1874C2.43756 6.65615 4.12506 4.59365 6.46881 4.4999C9.09381 4.40615 11.3438 6.65615 11.4376 9.46865Z" fill="#FFD097"/>
<path d="M2.34375 7.5C2.34375 7.5 2.53125 6.46875 4.78125 6.46875C7.03125 6.5625 10.2187 6.84375 11.625 5.25L11.0625 4.6875C11.0625 4.6875 9.65625 5.4375 7.40625 5.4375C5.15625 5.4375 2.34375 5.90625 2.15625 6.1875C2.15625 6.5625 2.34375 7.5 2.34375 7.5Z" fill="#E8A554"/>
<path d="M9.375 9.09375C9.375 9.5625 9.09375 9.9375 8.71875 9.84375C8.34375 9.84375 8.0625 9.46875 8.0625 9C8.0625 8.53125 8.34375 8.15625 8.71875 8.25C9.09375 8.25 9.375 8.625 9.375 9.09375ZM4.3125 8.53125C4.3125 9 4.03125 9.28125 3.75 9.28125C3.375 9.28125 3.1875 8.90625 3.1875 8.53125C3.1875 8.0625 3.46875 7.78125 3.75 7.78125C4.03125 7.78125 4.3125 8.15625 4.3125 8.53125Z" fill="#8E4028"/>
<path d="M4.03125 8.25C4.03125 8.34375 3.9375 8.4375 3.84375 8.4375C3.75 8.4375 3.65625 8.34375 3.65625 8.25C3.65625 8.15625 3.75 8.0625 3.84375 8.0625C3.9375 8.0625 4.03125 8.15625 4.03125 8.25Z" fill="white"/>
<path d="M6.28125 18.6563C6.28125 18.6563 6.5625 18 7.125 17.625C7.125 17.625 6.84375 18.375 6.84375 18.8438L6.28125 18.6563Z" fill="#8E4028"/>
<path d="M5.34375 21.4687C5.34375 21.4687 6.09375 21.375 6.65625 20.8125C6.65625 20.8125 6.84375 21.8437 7.59375 22.125C7.5 22.125 5.53125 21.5625 5.34375 21.4687Z" fill="#71AF5D"/>
<path d="M7.6875 14.9062L8.90625 15.4688L11.4375 15.9375L11.5313 13.7812C11.5313 13.7812 8.4375 14.8125 7.6875 14.9062Z" fill="#8E4028"/>
<path d="M4.40625 18.5625C4.40625 18.5625 3.9375 17.9062 4.3125 17.1562C4.6875 16.4062 6 15.2812 6 15.2812L4.6875 15.5625C4.6875 15.5625 3.09375 16.4063 2.90625 17.9063L4.40625 18.5625Z" fill="#A0E58C"/>
<path d="M3.46875 19.3124C3.46875 19.3124 3.375 19.7811 3.5625 20.4374H2.8125C2.8125 20.4374 2.8125 19.8749 3.09375 19.2186C3.09375 18.9374 3.46875 19.0311 3.46875 19.3124Z" fill="#71AF5D"/>
<path d="M7.3125 20.25C7.3125 20.25 10.125 19.875 11.4375 20.8125C11.4375 20.8125 11.8125 21.4688 11.4375 21.5625C11.0625 21.6562 8.625 20.4375 7.3125 20.625C7.3125 20.625 7.03125 20.3438 7.3125 20.25ZM3.65625 18.75C3.65625 18.75 5.625 18.9375 6.375 19.6875C6.375 19.6875 6.5625 20.1562 6.28125 20.1562C6 20.1562 4.5 18.9375 3.5625 18.9375C3.5625 19.0313 3.46875 18.75 3.65625 18.75Z" fill="#E0F9D7"/>
<path d="M13.5938 3.56244C13.5938 3.56244 12.375 6.2812 8.8125 5.9062C5.34375 5.5312 2.90625 6.0937 1.875 7.49995C1.875 7.49995 1.875 1.78119 6.9375 0.937445C12.1875 0.093695 13.5938 2.71869 13.5938 3.56244Z" fill="#FFEFAB"/>
<path d="M3.46875 11.625C3.46875 11.625 4.5 13.5 4.875 13.7813C5.25 13.9688 8.34375 13.9688 9 13.6875C9.65625 13.4063 9.46875 11.625 9.46875 11.625H3.46875Z" fill="#FFD097"/>
<path d="M7.6875 12.4688C7.6875 12.4688 7.03125 12.375 6.65625 12.0937C6.1875 11.8125 5.8125 11.9062 5.71875 11.9062C5.625 11.9062 5.53125 11.8125 5.34375 11.7188C5.25 11.625 4.96875 11.625 4.96875 11.7188C4.96875 11.8125 5.15625 12.0937 5.15625 12.0937V12.4688C5.15625 12.5625 5.15625 13.0312 5.625 13.0312C6.09375 13.0312 6.375 13.0313 6.65625 12.9375C6.9375 12.8438 7.6875 12.4688 7.6875 12.4688Z" fill="#B23D3D"/>
<path d="M19.2188 9.09375C19.2188 10.5938 18 11.7188 16.5 11.625C15 11.5312 13.7812 10.3125 13.7812 8.90625C13.7812 7.40625 15 6.28125 16.5 6.28125C17.9063 6.46875 19.2188 7.6875 19.2188 9.09375Z" fill="#E8A554"/>
<path d="M19.125 9.75019C19.125 11.2502 17.9062 12.3752 16.4062 12.2814C14.9062 12.1877 13.6875 10.9689 13.6875 9.56269C13.6875 8.15644 14.9062 6.93769 16.4062 7.03144C17.8125 7.03144 19.125 8.25019 19.125 9.75019Z" fill="#E8A554"/>
<path d="M20.7188 15.0003C20.7188 17.5315 18.75 19.4065 16.4062 19.3128C14.0625 19.219 12.1875 17.0628 12.1875 14.6253C12.1875 12.1878 14.0625 10.219 16.4062 10.3128C18.75 10.3128 20.7188 12.469 20.7188 15.0003Z" fill="#E8A554"/>
<path d="M20.3438 14.8131C20.3438 17.0631 18.375 18.8444 16.0312 18.7506C13.6875 18.6569 11.8125 16.6881 11.8125 14.4381C11.8125 12.1881 13.6875 10.4069 16.0312 10.5006C18.375 10.5944 20.3438 12.5631 20.3438 14.8131Z" fill="#FFEFAB"/>
<path d="M18.6562 9.18769C18.6562 10.6877 17.4375 11.8127 15.9375 11.7189C14.4375 11.6252 13.2188 10.4064 13.2188 9.00019C13.2188 7.59394 14.4375 6.37519 15.9375 6.46894C17.3437 6.46894 18.6562 7.68769 18.6562 9.18769Z" fill="#FFEFAB"/>
<path d="M11.0625 15.2812C11.0625 15.2812 11.9062 17.7187 10.0312 18.5625C10.0312 18.5625 14.625 19.3125 15.9375 18.6562C15.9375 18.6562 16.3125 16.0312 12.5625 14.625L11.0625 15.2812Z" fill="#71AF5D"/>
<path d="M9 8.71875C9 8.8125 8.90625 8.90625 8.8125 8.90625C8.71875 8.90625 8.625 8.8125 8.625 8.71875C8.625 8.625 8.71875 8.53125 8.8125 8.53125C8.90625 8.53125 9 8.625 9 8.71875Z" fill="white"/>
<path d="M8.90625 19.1254C8.90625 19.1254 12.6562 19.5004 12.1875 15.7504C12.1875 15.7504 13.2188 15.1879 14.1563 15.9379C15 16.6879 16.3125 17.5316 15.8437 19.8754C15.75 19.8754 9.46875 20.3441 8.90625 19.1254Z" fill="#A0E58C"/>
<path d="M12.2813 21.0937C12.2813 21.0937 12.4688 21.8438 12.2813 22.6875L13.5 22.7812C13.5 22.7812 13.2188 21.1875 12.0938 19.7812L12.2813 21.0937Z" fill="#71AF5D"/>
<path d="M13.3125 9.1874C13.3125 9.1874 14.1563 8.71865 14.625 9.09365C15.2813 9.84365 14.7188 10.8749 13.4063 11.0624L13.3125 9.1874Z" fill="#E8BD89"/>
<path d="M13.9686 10.875C13.9686 10.875 13.6873 12.6562 14.9061 13.5C14.9061 13.5 14.3436 13.5937 13.7811 12.9375C13.3123 12.2812 13.4061 10.9687 13.4061 10.9687L13.9686 10.875Z" fill="#E8A554"/>
<path d="M4.78125 2.34349C4.78125 2.34349 7.78125 0.655988 10.5 1.87474C10.5 1.87474 11.3438 2.99974 9.375 3.18724C7.40625 3.28099 7.40625 2.15599 4.78125 2.34349ZM17.7187 12.281C17.7187 12.281 19.0312 14.8122 16.875 16.406C16.5938 16.5935 16.5 16.9685 16.6875 17.2497C16.9687 17.7185 17.5312 17.8122 17.9062 17.4372C18.8438 16.406 20.0625 14.3435 17.7187 12.281Z" fill="white"/>
<path d="M16.3125 7.21875C16.3125 7.21875 17.5312 8.71875 16.6875 9.9375C16.6875 9.9375 16.6875 10.5 17.0625 10.5C17.4375 10.5 17.9063 10.3125 17.9063 9.84375C17.8125 9.46875 17.9062 7.59375 16.3125 7.21875Z" fill="white"/>
<path d="M26.4375 15C26.4375 15 28.5 15.9375 28.3125 16.5938C28.125 17.25 26.9063 18.1875 26.9063 18.1875L20.0625 16.5938L20.9062 14.625L26.4375 15Z" fill="#3B0909"/>
<path d="M25.3125 15.2812C25.3125 15.2812 27.375 16.2188 27.1875 16.875C27 17.5313 25.7813 18.4688 25.7813 18.4688L19.0312 16.875L19.875 14.9062L25.3125 15.2812Z" fill="#B23D3D"/>
<path d="M25.125 16.7812C26.9062 17.4375 28.5937 18.9375 29.0625 21.1875C29.625 23.4375 28.875 26.1562 27.1875 27.4688C26.1562 28.3125 24.8437 28.5 23.5312 28.5C20.5312 28.5 17.5312 27.4688 14.4375 26.3438C13.4062 25.9688 12.375 25.5938 11.5312 24.9375C10.6875 24.2813 9.93746 23.1562 9.74996 21.9375C9.56246 20.1562 10.5 18.4688 11.8125 17.5313C14.0625 16.0313 16.3125 15.375 18.6562 15.375C20.7187 15.375 23.1562 16.125 25.125 16.7812Z" fill="#3B0909"/>
<path d="M25.5938 18.2812C27.4688 18.9375 29.2501 20.4375 29.8126 22.6875C30.3751 24.9375 29.5313 27.6562 27.8438 28.9688C26.7188 29.8125 25.3126 30 23.9063 30C20.7188 30 17.5313 28.9688 14.2501 27.8438C13.2188 27.4688 12.0938 27.0938 11.1563 26.4375C10.2188 25.7813 9.46881 24.6562 9.28131 23.4375C9.09381 21.6562 10.1251 19.9687 11.5313 19.0312C13.8751 17.5312 16.3126 16.875 18.7501 16.875C20.9063 16.875 23.5313 17.625 25.5938 18.2812Z" fill="#3B0909"/>
<path d="M25.125 17.4375C26.9062 18.0938 28.5937 19.5938 29.0625 21.8438C29.625 24.0938 28.875 26.8125 27.1875 28.125C26.1562 28.9688 24.8437 29.1562 23.5312 29.1562C20.5312 29.1562 17.5312 28.125 14.4375 27C13.4062 26.625 12.375 26.25 11.5312 25.5938C10.6875 24.9375 9.93746 23.8125 9.74996 22.5938C9.56246 20.8125 10.5 19.125 11.8125 18.1875C14.0625 16.6875 16.3125 16.0312 18.6562 16.0312C20.7187 16.0312 23.1562 16.7812 25.125 17.4375Z" fill="#B23D3D"/>
<path d="M16.7812 27.6562L19.0312 20.3438L20.3438 19.2188L21.375 19.5L18.75 28.3125C18.75 28.3125 17.25 28.0312 16.7812 27.6562Z" fill="#C68383"/>
<path opacity="0.1" d="M26.0242 25.1238C26.5193 23.597 25.8028 21.9968 24.4238 21.5495C23.0448 21.1023 21.5255 21.9774 21.0304 23.5041C20.5352 25.0309 21.2517 26.6311 22.6307 27.0784C24.0097 27.5256 25.529 26.6505 26.0242 25.1238Z" fill="white"/>
<path d="M20.3439 19.3125C20.3439 19.3125 18.1877 23.7187 17.4377 27.9375L12.6564 26.0625C12.6564 26.0625 12.2814 22.3125 13.7814 18L16.2189 18.9375L20.3439 19.3125Z" fill="#997567"/>
<path d="M26.9065 17.9062C26.9065 17.9062 30.1877 20.4375 29.1565 24.75L30.0002 24.5625C30.0002 24.5625 30.3752 20.0625 26.9065 17.9062ZM11.5315 18.2812C11.5315 18.2812 9.28147 20.8125 10.219 24.1875L9.46897 23.8125C9.46897 23.8125 9.09397 20.3438 11.0627 18.375L11.5315 18.2812ZM11.5315 26.3438L12.2815 25.875L18.0002 28.125L17.4377 28.5938C17.4377 28.5938 12.2815 27 11.5315 26.3438Z" fill="#3B0909"/>
<path d="M13.7811 17.7188C13.7811 17.7188 13.5936 20.8125 15.2811 21C16.8749 21.0938 19.2186 21.8438 23.4374 18.375L13.7811 17.7188Z" fill="#997567"/>
<path d="M24.75 17.1559C24.6562 17.0622 23.8125 18.1872 23.8125 18.1872C23.8125 18.1872 26.9063 19.4997 27.375 20.6247C27.9375 21.7497 26.9062 26.8122 26.3438 27.4684C25.7812 28.1247 24.2812 29.0622 23.5312 29.1559C23.5312 29.1559 27.6562 29.6247 28.6875 26.3434C29.7188 23.0622 29.4375 19.4059 24.75 17.1559Z" fill="#932F2F"/>
<path d="M27.8438 10.6875C27.8438 15.4687 24 19.4062 19.2188 19.4062C14.4375 19.4062 10.5 15.4687 10.5 10.6875C10.5 5.90625 14.4375 1.875 19.2188 1.875C24.0938 1.875 27.8438 5.8125 27.8438 10.6875Z" fill="#4A3531"/>
<path d="M13.7814 18.4688C13.7814 18.4688 12.9377 24.2812 13.1252 26.25L12.1877 25.875C12.1877 25.875 11.6252 23.4375 11.8127 21.4687C12.0002 19.5 12.7502 18.1875 12.7502 18.1875L13.4064 17.7188L13.7814 18.4688Z" fill="#997567"/>
<path d="M27.5625 10.0312C27.5625 14.8125 23.7188 18.75 18.9375 18.75C14.1563 18.75 10.2188 14.8125 10.2188 10.0312C10.2188 5.25 14.1563 1.3125 18.9375 1.3125C23.7188 1.3125 27.5625 5.15625 27.5625 10.0312Z" fill="#7A594F"/>
<path d="M27.5859 9.7593C27.6026 5.15118 23.9645 1.40232 19.4599 1.386C14.9553 1.36968 11.2901 5.09207 11.2734 9.70019C11.2567 14.3083 14.8948 18.0572 19.3994 18.0735C23.904 18.0898 27.5692 14.3674 27.5859 9.7593Z" fill="#7A594F"/>
<path d="M23.6178 11.289C23.6306 7.76817 20.8707 4.90394 17.4534 4.89156C14.0362 4.87918 11.2556 7.72333 11.2428 11.2441C11.2301 14.765 13.99 17.6292 17.4072 17.6416C20.8245 17.6539 23.6051 14.8098 23.6178 11.289Z" fill="#997567"/>
<path d="M17.7187 15.5625C17.7187 15.5625 17.0625 15.4688 16.5 15.1875C16.0313 14.9063 15.5625 14.9062 15.4688 15C15.375 15 15.1875 14.9062 15.0938 14.8125C14.9063 14.7188 14.7188 14.7188 14.7188 14.8125C14.7188 14.9062 14.9062 15.1875 14.9062 15.1875V15.5625C14.9062 15.75 14.9062 16.125 15.375 16.2187C15.9375 16.3125 16.3125 16.2188 16.5 16.125L17.7187 15.5625Z" fill="#362826"/>
<path d="M25.2188 12.2812C25.2188 12.2812 25.7812 17.25 19.5938 18.0937C19.5938 18.0937 24.0937 18.5625 27 13.125C27 13.125 27.5625 12.0938 27.0938 10.875C27.0938 10.875 25.9688 12.2812 25.2188 12.2812Z" fill="#7A594F"/>
<path d="M18 8.62452C18 8.62452 18.375 7.96827 19.0312 7.96827C19.6875 7.96827 21.5625 7.87452 21.8438 8.34327C22.125 8.81202 21.4688 9.18702 21.4688 9.18702L18 8.62452ZM15 8.15577C15 8.15577 15.1875 7.40577 14.625 7.21827C14.1563 7.03077 12.6562 6.37452 12.0937 6.74952C11.5312 7.12452 11.8125 7.68702 11.8125 7.68702L15 8.15577ZM25.6875 9.93702C25.6875 9.93702 27 9.37452 27.4688 9.84327C27.9375 10.2183 28.4063 12.8433 26.3438 13.312C24.1875 13.687 25.6875 9.93702 25.6875 9.93702Z" fill="#362826"/>
<path d="M25.6876 9.84365C25.6876 9.84365 26.7189 9.3749 27.1876 9.7499C27.5626 10.1249 28.0314 12.2812 26.2501 12.6562C24.4689 13.0312 25.6876 9.84365 25.6876 9.84365Z" fill="#7A594F"/>
<path d="M20.8826 11.8108C20.8847 11.2413 20.5086 10.7782 20.0426 10.7765C19.5766 10.7748 19.1972 11.2351 19.1951 11.8047C19.1931 12.3742 19.5692 12.8373 20.0352 12.839C20.5011 12.8407 20.8806 12.3803 20.8826 11.8108Z" fill="#362826"/>
<path d="M14.16 10.302C14.162 9.73247 13.786 9.26939 13.32 9.26771C12.854 9.26602 12.4746 9.72636 12.4725 10.2959C12.4704 10.8654 12.8465 11.3285 13.3125 11.3302C13.7785 11.3319 14.1579 10.8716 14.16 10.302Z" fill="#362826"/>
<path d="M13.6084 9.98671C13.609 9.83138 13.5255 9.70516 13.422 9.70478C13.3184 9.70441 13.234 9.83002 13.2334 9.98535C13.2329 10.1407 13.3164 10.2669 13.4199 10.2673C13.5235 10.2677 13.6079 10.142 13.6084 9.98671Z" fill="white"/>
<path d="M20.2393 11.349C20.2399 11.1937 20.1564 11.0675 20.0528 11.0671C19.9493 11.0667 19.8649 11.1923 19.8643 11.3477C19.8637 11.503 19.9472 11.6292 20.0508 11.6296C20.1543 11.63 20.2387 11.5043 20.2393 11.349Z" fill="white"/>
<path d="M13.0312 3.56284C13.0312 3.56284 18 2.06284 23.3438 4.87533C23.3438 4.87533 24.75 7.12533 25.2188 10.7816L27.75 9.37533C27.75 9.37533 27.9375 3.37534 21.9375 1.50034C15.9375 -0.374665 13.0312 3.56284 13.0312 3.56284Z" fill="#362826"/>
<path d="M24.75 9.75L26.5312 9.09375L26.1562 8.25L24.2812 8.8125L24.75 9.75ZM24.1875 7.96875L25.9688 7.3125L25.5937 6.46875L23.8125 7.03125L24.1875 7.96875Z" fill="#7A594F"/>
<path d="M12.8438 13.9691C12.8438 13.9691 16.3125 13.8754 19.4063 15.6566L19.6875 14.9066C19.6875 14.9066 16.875 13.2191 12.9375 13.5004L12.8438 13.9691Z" fill="#4A3531"/>
<path d="M18.4688 14.9062L17.4375 19.0312H18.75L19.5937 14.7188L18.4688 14.9062ZM13.5937 13.6875L13.3125 17.0625L12.4688 16.0313L12.6562 13.5L13.5937 13.6875Z" fill="#4A3531"/>
<path d="M18.75 14.25C18.75 14.25 19.6875 14.8125 19.4063 16.2187L20.0625 15.375L20.1562 13.6875L18.75 14.25ZM12.4688 14.3437C12.4688 14.3437 12.8438 13.4062 13.6875 13.4062L12.6562 13.2188L12.4688 14.3437Z" fill="#997567"/>
<path d="M12.9377 15.9374C12.9377 15.9374 13.8752 16.9687 14.9064 17.3437C15.9377 17.7187 18.4689 17.4374 18.4689 17.4374C18.4689 17.4374 18.8439 18.5624 18.6564 18.7499C18.4689 18.9374 14.8127 20.1562 14.8127 20.1562L12.5627 16.4062C12.3752 15.6562 12.9377 15.9374 12.9377 15.9374Z" fill="#4A3531"/>
<path d="M14.8125 20.1563C14.8125 20.1563 18 19.875 19.5937 19.2188L19.2188 15.75L18.0937 18.5625L15.5625 19.2188L14.8125 20.1563Z" fill="#4A3531"/>
<path d="M13.0314 26.25C13.0314 26.25 12.6564 22.7812 12.7501 21.0937C12.8439 19.4062 13.5001 18 13.5001 18L12.6564 18.1875C12.6564 18.1875 10.8751 20.5312 12.0939 25.875L13.0314 26.25Z" fill="#C68383"/>
<path d="M13.4062 24.5625C13.4062 24.5625 14.625 24.9375 15.0938 24.8437C15.5625 24.75 15.75 24.9375 15.75 24.9375L17.1562 25.6875H15.2812L14.8125 26.625V25.3125L13.4062 24.5625Z" fill="#7A594F"/>
<path d="M9.1875 14.8125L10.9687 14.3438L10.7812 15.2812L9.1875 14.8125Z" fill="#E8A554"/>
<path d="M2.71875 17.0625L5.0625 14.25L5.4375 14.4375L2.25 18.75L2.71875 17.0625Z" fill="#2E561D"/>
</g>
<defs>
<clipPath id="clip0_1_18506">
<rect width="30" height="30" fill="white"/>
</clipPath>
</defs>
</svg>
