<svg width="64" height="64" viewBox="0 0 64 64" fill="none" xmlns="http://www.w3.org/2000/svg">
<path d="M23.6522 43.1304C25.9574 43.1304 27.8261 41.2617 27.8261 38.9565C27.8261 36.6513 25.9574 34.7826 23.6522 34.7826C21.347 34.7826 19.4783 36.6513 19.4783 38.9565C19.4783 41.2617 21.347 43.1304 23.6522 43.1304Z" stroke="#213A52" stroke-width="1.94783" stroke-linecap="round" stroke-linejoin="round"/>
<path d="M37.5652 43.1304C39.8704 43.1304 41.7391 41.2617 41.7391 38.9565C41.7391 36.6513 39.8704 34.7826 37.5652 34.7826C35.26 34.7826 33.3913 36.6513 33.3913 38.9565C33.3913 41.2617 35.26 43.1304 37.5652 43.1304Z" stroke="#213A52" stroke-width="1.94783" stroke-linecap="round" stroke-linejoin="round"/>
<path d="M27.8261 38.9565V20.8695H41.7392V38.9565" stroke="#213A52" stroke-width="1.94783" stroke-linecap="round" stroke-linejoin="round"/>
<path d="M27.8261 26.4348H41.7392" stroke="#213A52" stroke-width="1.94783" stroke-linecap="round" stroke-linejoin="round"/>
</svg>
