<svg width="64" height="64" viewBox="0 0 64 64" fill="none" xmlns="http://www.w3.org/2000/svg">
<path d="M45.3357 41.3286L41.8191 40.0765L40.8382 36.1739L42.633 34.0034C43.2635 33.2395 43.61 32.2809 43.6139 31.2904C43.6138 30.8209 43.5326 30.3549 43.3739 29.913L40.6817 22.2121C40.4675 21.6108 40.036 21.1114 39.4721 20.8121C38.9083 20.5128 38.2529 20.4353 37.6348 20.5948L34.2748 21.44C33.6533 21.5917 33.1109 21.97 32.7538 22.5008C32.3967 23.0317 32.2507 23.6767 32.3443 24.3095L33.5861 32.3235C33.7026 33.0448 34.0015 33.7244 34.4544 34.2979C34.9073 34.8713 35.4991 35.3195 36.1739 35.6L38.793 36.6435L39.7843 40.5878L37.6974 43.5513C37.4838 43.8414 37.3561 44.1858 37.329 44.5451C37.3019 44.9044 37.3763 45.264 37.544 45.5829C37.7116 45.9018 37.9656 46.1672 38.2769 46.3485C38.5882 46.53 38.9442 46.6201 39.3043 46.6086C39.4878 46.6101 39.6704 46.5855 39.847 46.5356L45.2522 45.0017C45.6367 44.8772 45.9734 44.637 46.2162 44.3138C46.459 43.9907 46.5961 43.6005 46.6087 43.1965C46.6246 42.7898 46.5095 42.3888 46.2803 42.0526C46.0511 41.7163 45.72 41.4625 45.3357 41.3286ZM38.1357 22.6086H38.2609C38.3566 22.6057 38.4509 22.6335 38.5297 22.6879C38.6086 22.7424 38.668 22.8206 38.6991 22.9113L39.8782 26.2504C38.841 26.3124 37.8054 26.1058 36.8713 25.6506C35.9373 25.1955 35.1364 24.5072 34.5461 23.6521C34.6118 23.5882 34.6899 23.5385 34.7757 23.506L38.1357 22.6086ZM35.6522 31.9999L34.8487 26.8348C35.546 27.3402 36.3215 27.728 37.1443 27.9826C37.9319 28.2256 38.7515 28.3488 39.5757 28.3478C39.9249 28.342 40.2734 28.3142 40.6191 28.2643L41.433 30.5599C41.5121 30.7881 41.5509 31.0282 41.5478 31.2695C41.5473 31.7732 41.3701 32.2606 41.0469 32.6469L39.3982 34.64L37.0087 33.6695C36.6559 33.5349 36.3447 33.3097 36.1066 33.0167C35.8684 32.7235 35.7117 32.3729 35.6522 31.9999ZM39.6487 44.4069L41.2974 42.1008L44.1565 43.1443L39.6487 44.4069Z" fill="#213A52"/>
<path d="M29.7147 18.3096L26.3443 17.4644C25.7261 17.3024 25.0696 17.3788 24.5052 17.6784C23.9407 17.978 23.5095 18.479 23.2973 19.0818L20.6052 26.7826C20.4421 27.2342 20.3608 27.7113 20.3651 28.1913C20.3707 29.1815 20.7171 30.1396 21.346 30.9044L23.1513 33.0435L22.1599 36.967L18.6434 38.1983C18.2612 38.3329 17.9326 38.5875 17.7069 38.9241C17.4812 39.2608 17.3705 39.6613 17.3913 40.0661C17.4033 40.4766 17.5465 40.8724 17.8001 41.1954C18.0536 41.5184 18.4041 41.7517 18.7999 41.8609L24.2051 43.4052C24.3649 43.4502 24.5297 43.4748 24.6956 43.4783C25.004 43.4791 25.3078 43.4044 25.5807 43.2607C25.8536 43.117 26.087 42.9087 26.2608 42.6539C26.4965 42.3333 26.6236 41.9457 26.6236 41.5478C26.6236 41.1499 26.4965 40.7624 26.2608 40.4417L24.1739 37.4783L25.2173 33.5339L27.826 32.4904C28.5047 32.2128 29.1009 31.7659 29.5576 31.1923C30.0142 30.6187 30.3163 29.9375 30.4347 29.2139L31.6765 21.2C31.7772 20.5593 31.6305 19.9042 31.2663 19.3675C30.9021 18.8308 30.3474 18.4526 29.7147 18.3096ZM25.7391 19.4783H25.8643L29.2243 20.3235C29.3123 20.3456 29.392 20.3927 29.4539 20.4592C28.6731 21.5861 27.544 22.4256 26.24 22.8487C25.5638 23.0518 24.8583 23.1399 24.153 23.1096L25.2695 19.7705C25.3068 19.6783 25.3723 19.6004 25.4567 19.5479C25.5411 19.4954 25.64 19.471 25.7391 19.4783ZM19.8225 39.9931L22.6817 38.9496L24.3304 41.2557L19.8225 39.9931ZM27.0017 30.5287L24.6017 31.4992L22.953 29.5166C22.6299 29.1303 22.4525 28.6428 22.4521 28.1392C22.4662 27.8925 22.5191 27.6495 22.6087 27.4191L23.4226 25.1339C23.7683 25.1833 24.1168 25.2112 24.466 25.2174C25.2902 25.2184 26.1098 25.0953 26.8973 24.8522C27.7201 24.5976 28.4956 24.2099 29.193 23.7044L28.3269 28.8696C28.2747 29.2394 28.1242 29.5885 27.8911 29.8803C27.658 30.1721 27.3508 30.3961 27.0017 30.5287Z" fill="#213A52"/>
</svg>
