<svg width="30" height="30" viewBox="0 0 30 30" fill="none" xmlns="http://www.w3.org/2000/svg">
<g clip-path="url(#clip0_1_7205)">
<path d="M1.78125 21.4688L0.65625 23.25L4.21875 27.0938L8.25 26.7188L1.78125 21.4688Z" fill="#2D2D2D"/>
<path d="M28.875 9.09375L26.3438 3.9375L25.2188 7.125L28.5 9.75L28.875 9.09375Z" fill="#2D2D2D"/>
<path d="M25.8752 7.5L11.5315 6.09375C9.3752 6.1875 7.5002 7.78125 7.03145 9.84375L3.9377 24.5625C3.3752 26.25 4.40645 28.0312 6.09395 28.5938C6.3752 28.6875 6.65645 28.6875 7.03145 28.7812L22.5002 29.0625C24.9377 28.9688 26.9065 27.2812 27.2815 24.9375L29.1565 11.25C29.4377 9.5625 28.3127 7.875 26.6252 7.5C26.344 7.5 26.0627 7.5 25.8752 7.5Z" fill="#2D2D2D"/>
<path d="M23.4373 2.34375L8.24981 2.625C5.99981 2.71875 4.12481 4.21875 3.56231 6.375L0.374813 20.9062C-0.0939374 22.5938 0.843563 24.375 2.53106 24.9375C2.81231 25.0312 3.18731 25.0312 3.56231 25.0312L19.5936 25.3125C22.0311 25.3125 24.0936 23.5312 24.5623 21.1875L26.9061 6.09375C27.1873 4.3125 25.9686 2.71875 24.2811 2.4375C23.9998 2.34375 23.7186 2.34375 23.4373 2.34375Z" fill="#2D2D2D"/>
<path d="M21.4688 22.875C22.3125 22.125 22.875 21.0937 23.25 19.9687C23.4375 19.3125 25.5937 5.15625 25.5937 5.15625L27.9375 9.9375L26.25 22.5938C26.25 22.5938 25.7812 25.5938 24.6562 26.4375L21.4688 22.875Z" fill="url(#paint0_linear_1_7205)"/>
<path d="M21.5625 23.25C20.9062 23.7188 20.1562 24 19.4062 24.2813C18.8438 24.2813 2.8125 23.7188 2.8125 23.7188L6.375 27.5625L20.5312 27.6563C20.5312 27.6563 23.4375 27.5625 24.2812 26.7188L21.4688 23.625" fill="#3F3F3F"/>
<path d="M22.0312 22.875L24.9375 26.25C24.75 26.625 24.375 27 23.9062 27.0938L20.8125 23.1563L22.0312 22.875Z" fill="#2D2D2D"/>
<path d="M22.4999 2.53125L8.7187 2.8125C6.6562 2.90625 4.9687 4.40625 4.49995 6.375L1.49995 20.25C1.0312 21.8438 1.87495 23.5313 3.56245 24C3.8437 24.0938 4.12495 24.0938 4.4062 24.0938L19.0312 24.375C21.2812 24.375 23.1562 22.6875 23.5312 20.4375L25.6874 6.09375C25.9687 4.5 24.9374 2.90625 23.2499 2.625C23.0624 2.53125 22.7812 2.53125 22.4999 2.53125Z" fill="#2D2D2D"/>
<path d="M21.8439 3.46873L9.09393 3.65623C7.21893 3.74998 5.62518 5.06248 5.25018 6.93748L2.43768 19.6875C1.96893 21.1875 2.81268 22.7812 4.31268 23.1562C4.59393 23.25 4.78143 23.25 5.06268 23.25L18.5627 23.5312C20.6252 23.5312 22.4064 21.9375 22.6877 19.875L24.6564 6.65623C25.0314 5.15623 24.0002 3.74998 22.5002 3.46873C22.3127 3.46873 22.0314 3.37498 21.8439 3.46873Z" fill="url(#paint1_linear_1_7205)"/>
<path d="M21.6563 7.21875C20.5313 6.65625 19.875 5.4375 19.9688 4.21875C19.9688 4.125 19.9688 3.9375 19.9688 3.84375L20.0625 3.375L16.5 3.75L14.1563 16.875C13.7813 18.4688 12.4688 19.5938 10.875 19.6875C10.5 19.6875 10.0313 19.5938 9.65628 19.4062C8.81253 18.9375 8.34378 18 8.62503 17.0625C9.00003 15.5625 10.3125 14.3438 11.9063 14.25C12.1875 14.25 12.4688 14.25 12.75 14.3438L13.3125 11.0625C13.0313 11.0625 12.75 11.0625 12.4688 11.0625C9.00003 11.3438 6.18753 13.875 5.43753 17.25C5.06253 19.0312 5.71878 20.9062 7.12503 22.0312C8.06253 22.6875 9.18753 22.9688 10.3125 22.9688C13.875 22.7812 16.875 20.25 17.625 16.7812L18.8438 9.9375C20.25 10.875 21.9375 11.25 23.625 11.0625L24.2813 7.6875C23.3438 7.78125 22.4063 7.59375 21.6563 7.21875Z" fill="#23239E"/>
<path d="M20.0625 5.8125C19.0313 5.25 18.75 4.875 18.75 3.46875C18.75 3.375 19.0313 3.28125 19.0313 3.1875L19.4063 3.28125L14.625 3.5625L12.5625 15.4688C12.1875 17.0625 10.875 18.1875 9.28128 18.2812C8.90628 18.2812 8.43753 18.1875 8.06253 18C7.21878 17.5313 6.75003 16.5938 6.93753 15.6563C7.31253 14.0625 8.62503 12.9375 10.2188 12.8437C10.5 12.8437 10.7813 12.8438 11.0625 12.9375L11.625 9.5625C11.3438 9.5625 11.0625 9.5625 10.7813 9.5625C7.31253 9.84375 4.50003 12.375 3.75003 15.75C3.37503 17.5312 4.03128 19.4062 5.43753 20.5312C6.37503 21.1875 7.50003 21.4688 8.62503 21.4688C12.1875 21.2812 15.1875 18.75 16.0313 15.2812L17.25 8.4375C18.6563 9.375 20.3438 9.75 22.0313 9.65625L22.6875 7.59375C21.75 7.78125 20.8125 6.1875 20.0625 5.8125Z" fill="#B942BC"/>
<path d="M20.9063 6.46875C19.7813 5.90625 19.125 4.6875 19.2188 3.46875C19.2188 3.375 18.9375 3.375 19.0313 3.28125H18.2813L16.5938 3.46875L14.3438 16.125C13.9688 17.7188 11.5313 19.5 9.93753 19.5938C9.56253 19.5938 9.09378 19.5 8.71878 19.3125C7.87503 18.8438 7.50003 17.25 7.78128 16.3125C8.15628 14.8125 9.46878 13.5938 11.0625 13.5C11.3438 13.5 11.625 13.5 11.9063 13.5938L12.4688 10.2187C12.1875 10.2187 11.9063 10.2187 11.625 10.2187C8.15628 10.5 5.34378 13.0312 4.59378 16.4062C4.21878 18.1875 4.87503 20.0625 6.28128 21.1875C7.21878 21.8438 8.34378 22.125 9.46878 22.125C13.0313 21.9375 16.0313 19.4062 16.7813 15.9375L18 9.09375C19.4063 10.0312 21.0938 10.4062 22.7813 10.2187L23.4375 6.75C22.5938 7.03125 21.75 6.9375 20.9063 6.46875Z" fill="white"/>
</g>
<defs>
<linearGradient id="paint0_linear_1_7205" x1="27.5888" y1="6.60178" x2="23.1076" y2="26.0737" gradientUnits="userSpaceOnUse">
<stop stop-color="#767D82"/>
<stop offset="1" stop-color="#522448"/>
</linearGradient>
<linearGradient id="paint1_linear_1_7205" x1="6.99796" y1="6.21185" x2="22.6257" y2="23.1998" gradientUnits="userSpaceOnUse">
<stop stop-color="#767D82"/>
<stop offset="1" stop-color="#522448"/>
</linearGradient>
<clipPath id="clip0_1_7205">
<rect width="30" height="30" fill="white"/>
</clipPath>
</defs>
</svg>
