<svg width="30" height="30" viewBox="0 0 30 30" fill="none" xmlns="http://www.w3.org/2000/svg">
<g clip-path="url(#clip0_1_13064)">
<path d="M5.34375 3.84375L8.53125 1.6875L26.8125 24.375L22.0312 28.4062L19.6875 25.5L5.34375 3.84375Z" fill="#4F722D"/>
<path d="M26.9061 14.9997C28.5936 22.9685 23.9061 29.9997 16.1248 29.9997C8.15608 29.9997 1.12482 22.8747 0.562325 14.7185C-0.000175118 7.21849 5.24983 1.68724 11.9998 1.87474C18.7498 2.06224 25.3123 7.68724 26.9061 14.9997Z" fill="#4F722D"/>
<path d="M29.5312 12.9373C31.3125 20.8123 26.7187 27.6561 19.0312 27.6561C11.25 27.6561 4.3125 20.6248 3.65625 12.5623C2.90625 5.24982 7.96875 -0.187678 14.7187 -0.000177804C21.2812 0.187322 27.8437 5.71857 29.5312 12.9373Z" fill="#4F722D"/>
<path d="M6.46875 4.5L9.46875 2.53125L26.0625 23.25L21.6563 26.9062L19.5938 24.2812L6.46875 4.5Z" fill="#689940"/>
<path d="M26.1563 14.7186C27.7501 22.0311 23.4376 28.4061 16.3126 28.4061C9.09383 28.4061 2.71883 21.8436 2.15633 14.4373C1.59383 7.59359 6.37508 2.62484 12.5626 2.71859C18.6563 2.90609 24.6563 8.06234 26.1563 14.7186Z" fill="#689940"/>
<path d="M27.094 13.9686C28.6877 21.0936 24.469 27.3749 17.4377 27.3749C10.3127 27.3749 3.93773 20.9061 3.37523 13.5936C2.81273 6.84361 7.40648 1.96861 13.594 2.15611C19.594 2.34361 25.594 7.40611 27.094 13.9686Z" fill="#9CD367"/>
<path d="M28.4998 12.8436C30.0935 19.9686 25.8748 26.2499 18.9373 26.2499C11.8123 26.2499 5.43726 19.7811 4.87476 12.4686C4.31226 5.71861 8.90601 0.843608 14.9998 1.03111C21.0935 1.12486 26.9998 6.28111 28.4998 12.8436Z" fill="#7DB84D"/>
<path d="M25.5937 12.4688L20.8125 5.0625L17.25 5.8125L20.8125 11.8125C20.8125 11.8125 23.25 15.5625 20.3438 16.5938C16.7813 17.8125 14.625 13.7812 14.625 13.7812L10.875 6.5625L6.28125 7.5L14.9062 25.5C16.2188 25.9688 17.5313 26.1562 18.9375 26.25C19.5938 26.25 20.1563 26.1562 20.8125 26.0625L17.25 19.5C17.25 19.5 20.0625 20.3438 22.0312 19.3125C24 18.375 24 16.0313 24 16.0313C26.7188 18.0938 28.4062 17.4375 28.875 17.1562C28.9687 16.2188 28.9687 15.2812 28.875 14.25C26.8125 14.8125 25.5937 12.4688 25.5937 12.4688Z" fill="#FAFAFA"/>
<path d="M14.9062 25.5L13.125 28.125C13.125 28.125 17.3438 28.9688 19.875 27.8438L20.7188 26.0625L14.9062 25.5Z" fill="#FAFAFA"/>
<path opacity="0.27" d="M11.9063 18.3752C13.5938 18.8439 15.375 18.4689 16.5938 17.7189C17.8125 17.0627 18.9375 15.6564 19.4063 13.9689C20.5313 9.84392 17.5313 0.656423 9.37505 5.43767C1.2188 10.2189 7.7813 17.3439 11.9063 18.3752Z" fill="#9CD367"/>
</g>
<defs>
<clipPath id="clip0_1_13064">
<rect width="30" height="30" fill="white"/>
</clipPath>
</defs>
</svg>
