<svg width="30" height="30" viewBox="0 0 30 30" fill="none" xmlns="http://www.w3.org/2000/svg">
<g clip-path="url(#clip0_1_17547)">
<path d="M21.1874 9.375L25.3124 9.65625C25.3124 9.65625 27.1874 11.9062 25.2187 12.9375C23.2499 13.9688 20.2499 13.5 20.2499 13.5L21.1874 9.375ZM6.18745 9.9375L4.68745 10.0312C3.6562 10.0312 2.81245 10.7812 2.5312 11.7187C2.3437 12.6562 2.3437 13.6875 3.56245 14.25C5.99995 15.375 7.0312 13.5937 7.0312 13.5937L6.18745 9.9375Z" fill="#363232"/>
<path d="M14.2497 23.0625C13.5935 23.0625 12.9372 22.9687 12.281 22.7812L10.6872 22.4062C6.56224 21.4687 3.65599 18.5625 3.93724 15.375L4.21849 10.875L5.24974 10.9687L4.96849 15.4688C4.78099 18 7.31224 20.5313 10.8747 21.2813L12.3747 21.6562C15.4685 22.3125 18.8435 21.75 20.906 20.1562C22.1247 19.2188 22.781 18.0937 22.8747 16.7812L23.4372 10.5938L24.4685 10.7812L23.906 16.9688C23.8122 18.5625 22.9685 20.0625 21.5622 21.0938C19.8747 22.5 17.0622 23.25 14.2497 23.0625Z" fill="#363232"/>
<path d="M3.28105 12.75C3.3748 12 3.84355 11.4375 4.40605 11.3437L24.9373 9.9375C25.406 9.9375 25.781 10.5 25.781 11.1562C25.6873 11.8125 25.3123 12.375 24.8435 12.375L4.21855 14.0625C3.65605 14.25 3.1873 13.5937 3.28105 12.75Z" fill="#363232"/>
<path d="M14.0623 24.6562L11.9998 24.375L10.406 24C5.99978 23.0625 3.09353 19.9688 3.28103 16.6875L3.65603 12H4.68728L4.40603 16.6875C4.21853 19.3125 6.84353 21.9375 10.5935 22.7812L12.1873 23.1563C15.4685 23.9063 19.031 23.25 21.1873 21.6563C22.406 20.7188 23.156 19.5 23.2498 18.0937L23.906 11.625L25.031 11.8125L24.3748 18.2813C24.281 19.9688 23.4373 21.4688 21.9373 22.5938C19.8748 24.0938 17.0623 24.8438 14.0623 24.6562Z" fill="#363232"/>
<path d="M11.4375 22.9688L11.0625 26.25C11.0625 26.25 12.5625 27.2813 16.125 26.9063L16.5938 23.25L11.4375 22.9688Z" fill="#363232"/>
<path d="M19.781 27.6563C20.531 29.5313 16.781 30.4688 12.7498 29.7188C9.56229 29.1563 7.59354 27.75 7.68729 26.625C7.78104 25.5937 9.65604 24.8438 12.281 24.8438C15.4685 24.8438 19.1248 25.9688 19.781 27.6563Z" fill="#363232"/>
<path d="M19.2187 27.4687C19.8749 28.875 16.5937 29.4375 12.8437 28.7812C9.93744 28.3125 8.06244 27.2812 8.15619 26.4375C8.24994 25.6875 9.93744 25.125 12.2812 25.2187C15.2812 25.3125 18.6562 26.25 19.2187 27.4687Z" fill="#665A9E"/>
<path d="M17.4377 27C17.9064 27.9375 15.5627 28.4062 12.8439 27.9375C10.7814 27.5625 9.56266 26.8125 9.65641 26.25C9.75016 25.6875 10.8752 25.4062 12.5627 25.4062C14.6252 25.5 16.9689 26.1562 17.4377 27Z" fill="#9685A6"/>
<path d="M11.9062 23.0625L11.5312 26.3438C11.5312 26.3438 12.6563 27.375 15.5625 26.8125L15.9375 23.1563L11.9062 23.0625Z" fill="#665A9E"/>
<path d="M15.75 23.5313L15.375 27C15.375 27 15.6562 27.1875 16.3125 26.4375L16.6875 23.25L15.75 23.5313Z" fill="#363232"/>
<path d="M12.4688 23.0625L12.1875 25.7812C12.1875 25.7812 12.375 26.3438 13.5 26.3438L13.7812 23.1563L12.4688 23.0625Z" fill="#9685A6"/>
<path d="M14.1563 23.9062C13.5001 23.9062 12.8438 23.8125 12.1876 23.625L10.5938 23.25C6.4688 22.3125 3.6563 19.2188 3.8438 15.9375L4.2188 11.25L5.25005 11.3438L4.9688 16.0312C4.7813 18.6562 7.31255 21.2812 10.8751 22.125L12.3751 22.5C15.4688 23.1562 18.8438 22.5937 20.9063 20.9062C22.1251 19.9687 22.7813 18.75 22.8751 17.3437L23.5313 10.875L24.1876 10.9687L23.6251 17.4375C23.5313 19.125 23.0626 20.7187 21.6563 21.8437C19.6876 23.3437 16.9688 24.0938 14.1563 23.9062Z" fill="url(#paint0_linear_1_17547)"/>
<path d="M2.9998 12.375C3.09355 11.8125 3.5623 11.4375 4.1248 11.4375L24.5623 11.0625C25.031 11.0625 25.4998 11.4375 25.406 12C25.406 12.4688 24.9373 12.8437 24.4685 12.8437L3.9373 13.4062C3.3748 13.4062 2.90605 12.9375 2.9998 12.375Z" fill="#665A9E"/>
<path d="M3.09355 11.25C3.1873 10.6875 3.65605 10.3125 4.21855 10.3125L24.656 9.9375C25.1248 9.9375 25.5935 10.3125 25.4998 10.875C25.4998 11.3438 25.031 11.7187 24.5623 11.7187L4.03105 12.2812C3.46855 12.2812 2.9998 11.8125 3.09355 11.25Z" fill="#ABA6D8"/>
<path d="M6.46875 13.2188C6.93474 13.2188 7.3125 12.5052 7.3125 11.625C7.3125 10.7448 6.93474 10.0312 6.46875 10.0312C6.00276 10.0312 5.625 10.7448 5.625 11.625C5.625 12.5052 6.00276 13.2188 6.46875 13.2188Z" fill="#363232"/>
<path d="M13.3123 21.0937L12.4685 20.9999C8.43729 20.4374 5.53104 17.7187 5.71854 14.9062L6.37479 5.99993C6.56229 3.28118 9.84354 0.843683 13.8748 0.562433L14.7185 0.468683C19.2185 0.187433 23.0623 2.53118 22.8748 5.71868L22.2185 16.2187C21.9373 19.5937 17.8123 21.7499 13.3123 21.0937Z" fill="#363232"/>
<path d="M13.5002 20.344L12.6564 20.2502C8.90641 19.6877 6.28141 17.1565 6.46891 14.6252L7.03141 6.46899C7.21891 3.93774 10.2189 1.68774 13.9689 1.40649L14.8127 1.31274C18.9377 1.03149 22.5002 3.18774 22.3127 6.18774L21.7502 15.9377C21.5627 18.9377 17.6252 20.9065 13.5002 20.344Z" fill="#665A9E"/>
<path d="M12.7501 19.3125L12.0939 19.2187C9.00011 18.75 6.84386 16.4062 7.03136 14.1562L7.50011 6.6562C7.68761 4.31245 10.1251 2.24995 13.3126 1.87495H13.9689C17.5314 1.49995 20.5314 3.4687 20.3439 6.18745L19.7814 15.1875C19.5939 18 16.2189 19.875 12.7501 19.3125Z" fill="url(#paint1_linear_1_17547)"/>
<path d="M11.8127 18.1873L11.2502 18.0935C9.00016 17.7185 7.50016 15.9373 7.68766 14.156L8.15641 8.34354C8.34391 6.46854 10.2189 4.49979 12.5627 3.93729L13.1252 3.74979C16.0314 2.99979 18.6564 4.40604 18.3752 6.93729L17.5314 14.8123C17.2502 17.156 14.4377 18.656 11.8127 18.1873Z" fill="#DDC3F2"/>
<path d="M7.5 6.9375C7.5 6.9375 9 8.34375 10.4063 8.25V9.5625C10.4063 9.5625 8.34375 8.8125 7.40625 8.71875L7.5 6.9375ZM7.21875 9.9375C7.21875 9.9375 7.875 11.1562 10.2187 11.0625L10.125 12.375C10.125 12.375 8.0625 11.7187 7.03125 11.625L7.21875 9.9375ZM6.84375 12.6562C6.84375 12.6562 7.3125 13.875 9.84375 13.6875L9.75 14.9062L6.65625 14.5313L6.84375 12.6562Z" fill="#363232"/>
<path d="M7.40625 7.78125C7.40625 7.78125 8.90625 9.1875 10.3125 9.09375L10.4063 9.75C10.4063 9.75 8.34375 9.75 7.3125 9.5625L7.40625 7.78125ZM7.03125 10.6875C7.03125 10.6875 7.78125 12 10.2187 11.8125L10.125 12.375H7.03125V10.6875ZM6.65625 13.5C6.65625 13.5 7.3125 14.8125 9.84375 14.5312L9.75 15.2812C9.75 15.2812 7.59375 15.4687 6.65625 15.375V13.5Z" fill="#665A9E"/>
<path d="M12.0937 5.53115L10.875 16.8749C10.875 16.8749 12.5625 16.9686 13.2188 16.6874C13.875 16.4061 14.7187 5.8124 14.7187 5.8124C14.7187 5.8124 14.1562 4.78115 12.0937 5.53115Z" fill="#F0E1FF"/>
<path d="M21.8437 14.4375V13.875C19.9687 15.2812 15.6563 15.4687 15.6563 15.4687L15.5625 16.125C18.1875 16.3125 20.7188 16.2188 21.75 15.9375C21.75 15.4687 21.8437 14.8125 21.8437 14.4375ZM16.0312 12C16.0312 12 21.9375 12.0937 22.7812 9.65625L22.5 11.9062C22.5 11.9062 19.4062 12.9375 15.9375 12.6562L16.0312 12ZM22.125 9C22.125 8.625 22.2188 7.96875 22.2188 7.59375C20.1563 8.53125 16.5 8.625 16.5 8.625L16.4062 9.375C18.5625 9.5625 20.625 9.28125 21.8437 9C21.8437 8.90625 22.125 9 22.125 9Z" fill="#665A9E"/>
<path d="M18.1875 5.71869C18.0937 6.46869 16.5938 6.93743 14.8125 6.74993C12.9375 6.65618 11.5312 5.90619 11.5312 5.15619C11.625 4.49994 13.125 3.93744 15 4.12494C16.7812 4.31244 18.2812 4.96869 18.1875 5.71869Z" fill="white"/>
<path d="M22.5938 13.125C22.8526 13.125 23.0625 12.4115 23.0625 11.5312C23.0625 10.651 22.8526 9.9375 22.5938 9.9375C22.3349 9.9375 22.125 10.651 22.125 11.5312C22.125 12.4115 22.3349 13.125 22.5938 13.125Z" fill="#363232"/>
<path d="M17.5313 22.4999L18.0937 23.6249C18.0937 23.6249 14.7188 25.0312 9.375 23.0624L9.65625 21.8437C9.65625 21.7499 14.5313 23.0624 17.5313 22.4999Z" fill="#9685A6"/>
<path d="M16.875 23.9062L17.25 24.4688C17.25 24.4688 14.4375 24.9375 10.4062 24L10.875 23.625C10.875 23.5312 14.5312 24.1875 16.875 23.9062ZM15.6563 14.8125C15.6563 14.8125 21.4687 14.9062 22.4062 12.4688L22.125 14.7188C22.125 14.7188 19.0312 15.75 15.5625 15.5625L15.6563 14.8125ZM22.2188 9.9375C20.4375 11.5313 16.125 11.4375 16.125 11.4375L16.0312 12.1875C19.0312 12.4688 21.75 11.7188 22.4062 11.4375C22.4062 10.9688 22.3125 10.5 22.2188 9.9375ZM16.5 8.0625C16.5 8.0625 21.4687 8.25 22.3125 5.8125V8.15625C22.3125 8.15625 19.5938 9.46875 16.4062 9.1875L16.5 8.0625Z" fill="#363232"/>
<path d="M29.1562 18.4688C29.1562 14.5313 25.3125 14.3438 25.3125 14.3438C25.3125 14.3438 23.0625 14.0626 21.5625 15.8438C20.1562 14.1563 18.1875 14.2501 18.1875 14.2501C18.1875 14.2501 14.4375 13.9688 14.1562 18.4688C13.7812 23.1563 21 26.5313 21.4687 26.8126C21.9375 26.4376 29.25 23.0626 29.1562 18.4688Z" fill="#363232"/>
<path d="M29.5312 17.7188C29.5312 13.7813 25.6875 13.5938 25.6875 13.5938C25.6875 13.5938 23.4375 13.3126 21.9375 15.0938C20.5312 13.4063 18.5625 13.5001 18.5625 13.5001C18.5625 13.5001 14.8125 13.2188 14.5312 17.7188C14.1562 22.4063 21.375 25.7813 21.8437 26.0626C22.2187 25.7813 29.5312 22.4063 29.5312 17.7188Z" fill="#960F0F"/>
<path d="M28.5939 17.625C28.5939 15.6562 27.7501 14.8125 26.9064 14.4375C26.1564 14.0625 25.2189 14.0625 24.3751 14.4375C23.7189 14.7188 22.6876 15.1875 21.9376 16.125C21.2814 15.375 20.4376 14.9063 19.7814 14.625C18.8439 14.1563 17.6251 14.25 16.7814 14.8125C16.0314 15.2813 15.2814 16.2188 15.1876 17.9063C14.9064 21.8438 21.3751 24.75 21.7501 24.9375C22.1251 24.5625 28.5939 21.5625 28.5939 17.625Z" fill="#DD4545"/>
<path d="M26.0625 17.7188C26.0625 16.3125 25.4062 15.6563 24.75 15.375C24.1875 15.0938 23.5312 15.0938 22.875 15.375C22.4062 15.5625 21.6562 15.9375 21.0937 16.5938C20.625 16.0313 19.9687 15.6563 19.5 15.4688C18.75 15.1875 17.9062 15.1875 17.25 15.5625C16.6875 15.9375 16.125 16.5938 16.0312 17.8125C15.75 20.7188 20.625 22.875 20.9062 23.0625C21.2812 22.7813 26.0625 20.625 26.0625 17.7188Z" fill="#F96464"/>
<path d="M25.1251 21.0937C24.4689 21.3749 23.7189 21.2812 23.3439 20.9999C22.9689 20.7187 22.5001 20.2499 22.4064 19.4999C22.1251 17.7187 23.7189 13.4062 26.7189 15.1874C29.7189 16.9687 26.7189 20.4374 25.1251 21.0937Z" fill="#FFB3B3"/>
<path d="M25.3125 18.4688C24.9375 18.5626 24.6562 18.5626 24.4687 18.4688C24.2812 18.3751 24.0937 18.0938 24 17.7188C23.9062 16.8751 24.5625 14.8126 26.0625 15.6563C27.5625 16.4063 26.1562 18.0938 25.3125 18.4688Z" fill="white"/>
<path d="M19.1251 16.875C19.0314 17.1563 18.9376 17.4375 18.6564 17.625C18.4689 17.8125 18.1876 17.9063 17.8126 17.9063C17.0626 17.9063 15.8439 16.9688 17.1564 15.8438C18.4689 14.7188 19.2189 16.125 19.1251 16.875Z" fill="#FFB3B3"/>
</g>
<defs>
<linearGradient id="paint0_linear_1_17547" x1="3.87051" y1="17.4242" x2="24.1626" y2="17.4371" gradientUnits="userSpaceOnUse">
<stop stop-color="#B3B2EB"/>
<stop offset="1" stop-color="#9583A3"/>
</linearGradient>
<linearGradient id="paint1_linear_1_17547" x1="7.25597" y1="10.1371" x2="20.0328" y2="11.0373" gradientUnits="userSpaceOnUse">
<stop stop-color="#B3B2EB"/>
<stop offset="1" stop-color="#9583A3"/>
</linearGradient>
<clipPath id="clip0_1_17547">
<rect width="30" height="30" fill="white"/>
</clipPath>
</defs>
</svg>
