<svg width="30" height="30" viewBox="0 0 30 30" fill="none" xmlns="http://www.w3.org/2000/svg">
<g clip-path="url(#clip0_1_12458)">
<path d="M14.231 18.6655C14.681 18.6655 19.2185 18.7312 22.5185 23.7187C22.7343 24.0453 22.8795 24.4133 22.9449 24.7993C23.0103 25.1852 22.9943 25.5806 22.8981 25.96C22.802 26.3395 22.6276 26.6947 22.3863 27.0029C22.145 27.3111 21.842 27.5655 21.4966 27.7499C18.3373 29.278 12.581 31.2749 6.07477 27.6749C5.38571 27.2413 4.89265 26.5563 4.70014 25.7652C4.50762 24.9741 4.63079 24.1392 5.04352 23.4374C6.01226 21.9172 7.36256 20.6775 8.9598 19.8419C10.557 19.0062 12.3454 18.6039 14.1466 18.6749L14.231 18.6655Z" fill="#4A6370"/>
<path d="M14.1657 19.7812C15.5824 19.8484 16.9635 20.2473 18.1979 20.9458C19.4322 21.6444 20.4851 22.6231 21.272 23.8031C21.4548 24.0618 21.5781 24.3576 21.6331 24.6695C21.6881 24.9814 21.6734 25.3017 21.5901 25.6072C21.5067 25.9128 21.3568 26.1961 21.1511 26.4369C20.9454 26.6777 20.6889 26.87 20.4001 27C18.3017 27.9792 16.0074 28.4663 13.6922 28.4241C11.377 28.3818 9.10198 27.8114 7.04072 26.7562C6.76326 26.6145 6.51998 26.414 6.32777 26.1688C6.13556 25.9236 5.99904 25.6395 5.92768 25.3362C5.85631 25.0329 5.85182 24.7177 5.91451 24.4125C5.97721 24.1073 6.10558 23.8194 6.29072 23.5687C7.17337 22.3411 8.34993 21.3545 9.71265 20.6994C11.0754 20.0442 12.5807 19.7414 14.0907 19.8187L14.1657 19.7812Z" fill="#A2B6BA"/>
<path d="M14.1282 19.9407C15.2814 19.9942 16.4059 20.3182 17.4107 20.8866C18.4156 21.4549 19.2726 22.2518 19.9126 23.2126C20.063 23.4226 20.1649 23.6634 20.2109 23.9175C20.2569 24.1717 20.2459 24.4329 20.1786 24.6823C20.1113 24.9317 19.9895 25.1631 19.8219 25.3596C19.6543 25.5562 19.4451 25.713 19.2094 25.8188C17.4995 26.6152 15.6305 27.0114 13.7445 26.9773C11.8585 26.9432 10.0051 26.4797 8.32507 25.622C8.09966 25.5058 7.90213 25.3421 7.74611 25.1422C7.59009 24.9423 7.47929 24.711 7.42136 24.4641C7.36343 24.2172 7.35975 23.9607 7.41056 23.7123C7.46137 23.4638 7.56548 23.2294 7.71569 23.0251C8.42993 22.0198 9.38562 21.2104 10.4948 20.6714C11.6039 20.1324 12.8308 19.8811 14.0626 19.9407H14.1282Z" fill="#87999B"/>
<path d="M13.4154 25.1343C19.9859 25.1343 25.3123 19.8079 25.3123 13.2375C25.3123 6.66699 19.9859 1.34058 13.4154 1.34058C6.84497 1.34058 1.51855 6.66699 1.51855 13.2375C1.51855 19.8079 6.84497 25.1343 13.4154 25.1343Z" fill="#4A6370"/>
<path d="M13.4158 23.4188C19.2562 23.4188 23.9908 18.6842 23.9908 12.8438C23.9908 7.00339 19.2562 2.2688 13.4158 2.2688C7.57541 2.2688 2.84082 7.00339 2.84082 12.8438C2.84082 18.6842 7.57541 23.4188 13.4158 23.4188Z" fill="#A2B6BA"/>
<path d="M13.8375 21.7219C19.2275 21.7219 23.5969 17.3525 23.5969 11.9625C23.5969 6.57255 19.2275 2.20312 13.8375 2.20312C8.44755 2.20312 4.07812 6.57255 4.07812 11.9625C4.07812 17.3525 8.44755 21.7219 13.8375 21.7219Z" fill="#CBDEE4"/>
<path d="M19.1905 11.1374C20.3866 11.1374 21.3562 10.1678 21.3562 8.97178C21.3562 7.77574 20.3866 6.80615 19.1905 6.80615C17.9945 6.80615 17.0249 7.77574 17.0249 8.97178C17.0249 10.1678 17.9945 11.1374 19.1905 11.1374Z" fill="#4A6370"/>
<path d="M19.2842 10.1626C20.0091 10.1626 20.5967 9.57497 20.5967 8.8501C20.5967 8.12522 20.0091 7.5376 19.2842 7.5376C18.5593 7.5376 17.9717 8.12522 17.9717 8.8501C17.9717 9.57497 18.5593 10.1626 19.2842 10.1626Z" fill="#4ED154"/>
<path d="M11.4467 8.11875C11.4467 8.11875 12.0092 4.3125 14.8498 2.8125C15.2248 2.60625 15.1592 2.35312 14.7279 2.29688H14.1561C13.7061 2.29688 10.4717 2.4375 9.34668 8.325L11.4467 8.11875Z" fill="#A2B6BA"/>
<path d="M17.0078 14.3161C17.0214 10.6037 14.2244 7.58397 10.7606 7.57127C7.29672 7.55858 4.4777 10.5577 4.46409 14.2701C4.45048 17.9825 7.24745 21.0022 10.7113 21.0149C14.1751 21.0276 16.9941 18.0285 17.0078 14.3161Z" fill="#4A6370"/>
<path d="M15.6774 14.0284C15.6878 11.2014 13.5555 8.90183 10.9149 8.89215C8.27434 8.88248 6.12531 11.1664 6.11495 13.9933C6.10459 16.8203 8.23681 19.1199 10.8774 19.1296C13.518 19.1393 15.667 16.8554 15.6774 14.0284Z" fill="#3587C4"/>
<path d="M14.8896 13.8371C14.8982 11.4813 13.1214 9.56496 10.9209 9.5569C8.7204 9.54883 6.92954 11.4521 6.92091 13.8079C6.91227 16.1637 8.68913 18.08 10.8896 18.0881C13.0901 18.0962 14.881 16.1929 14.8896 13.8371Z" fill="#4DA3EC"/>
<path d="M13.1408 11.8697C13.1431 11.2484 12.6203 10.7428 11.9731 10.7404C11.3259 10.738 10.7994 11.2398 10.7971 11.8611C10.7948 12.4824 11.3176 12.988 11.9648 12.9904C12.612 12.9928 13.1385 12.491 13.1408 11.8697Z" fill="white"/>
<path d="M13.6877 5.07184C14.16 4.54654 14.6741 4.06055 15.2252 3.61871C15.3239 3.53957 15.4398 3.48476 15.5636 3.4587C15.6874 3.43264 15.8155 3.43607 15.9377 3.46871C16.9841 3.78383 17.9859 4.2312 18.919 4.79996C19.0733 4.89485 19.1917 5.03843 19.2554 5.20804C19.3191 5.37766 19.3245 5.56365 19.2707 5.73667C19.217 5.9097 19.1072 6.05991 18.9586 6.1636C18.81 6.2673 18.6312 6.31857 18.4502 6.30934C17.087 6.23008 15.7195 6.26771 14.3627 6.42184C14.2014 6.4339 14.0401 6.39768 13.8993 6.3178C13.7586 6.23792 13.6448 6.11798 13.5724 5.97324C13.5001 5.8285 13.4724 5.66551 13.4929 5.50499C13.5135 5.34448 13.5813 5.1937 13.6877 5.07184Z" fill="#E1F0F4"/>
<path d="M16.8092 27.75L16.4248 28.2656L18.2342 29.5219L28.5279 19.3031L26.8404 17.1562L16.8092 27.75Z" fill="#9A4C18"/>
<path d="M28.7436 22.1999C28.5146 24.249 27.5432 26.1434 26.0129 27.5252C24.4825 28.907 22.4992 29.6806 20.4374 29.6999C19.5136 29.726 18.5963 29.5387 17.7567 29.1525C16.9171 28.7664 16.1779 28.1918 15.5965 27.4735C15.0151 26.7552 14.6072 25.9124 14.4046 25.0108C14.2019 24.1091 14.2099 23.1729 14.428 22.2749C14.8386 20.4193 15.8544 18.7529 17.3156 17.5377C18.7768 16.3226 20.6005 15.6277 22.4999 15.5624C23.3638 15.5254 24.2256 15.675 25.0266 16.0011C25.8275 16.3271 26.5488 16.8219 27.1413 17.4518C27.7338 18.0816 28.1836 18.8318 28.4601 19.6511C28.7366 20.4705 28.8333 21.3398 28.7436 22.1999Z" fill="#225E22"/>
<path d="M29.775 23.4375C29.5215 25.4077 28.5579 27.2176 27.0648 28.5277C25.5718 29.8378 23.6519 30.558 21.6656 30.5532C20.7754 30.5916 19.8884 30.4232 19.0743 30.0611C18.2602 29.6991 17.541 29.1533 16.9733 28.4666C16.4056 27.7799 16.0047 26.9709 15.8022 26.1032C15.5997 25.2355 15.6011 24.3327 15.8062 23.4657C16.2332 21.6942 17.2308 20.1123 18.6454 18.9637C20.06 17.8151 21.813 17.1636 23.6343 17.1094C24.4709 17.0555 25.3093 17.1838 26.0915 17.4854C26.8737 17.787 27.5811 18.2548 28.165 18.8564C28.7488 19.4581 29.1951 20.1793 29.473 20.9702C29.751 21.7611 29.854 22.6029 29.775 23.4375Z" fill="#225E22"/>
<path d="M17.9624 28.0219L19.7062 28.9594L28.1155 20.1469L26.728 18.3L17.9624 28.0219Z" fill="#949494"/>
<path d="M28.9596 23.5032C28.7533 25.1618 27.9529 26.6893 26.7066 27.8029C25.4603 28.9164 23.8527 29.5405 22.1815 29.5595C21.4282 29.5832 20.6796 29.4335 19.9933 29.1222C19.307 28.8108 18.7013 28.3459 18.2231 27.7635C17.7448 27.1811 17.4067 26.4966 17.2348 25.7628C17.0628 25.0291 17.0617 24.2656 17.2315 23.5314C17.5612 22.0142 18.3838 20.6489 19.5709 19.6483C20.758 18.6477 22.2429 18.0682 23.794 18.0001C24.5124 17.9593 25.2311 18.0765 25.8994 18.3435C26.5676 18.6106 27.1692 19.0209 27.6617 19.5456C28.1542 20.0702 28.5257 20.6965 28.7499 21.3803C28.9742 22.0641 29.0457 22.7888 28.9596 23.5032Z" fill="#358761"/>
<path d="M27.8437 22.153C27.6268 23.9246 26.7766 25.5581 25.4499 26.7521C24.1232 27.9461 22.4095 28.6201 20.6249 28.6499C19.8191 28.6741 19.0184 28.5127 18.2848 28.1782C17.5513 27.8437 16.9044 27.3451 16.3943 26.7207C15.8841 26.0964 15.5243 25.3632 15.3427 24.5777C15.1611 23.7922 15.1625 22.9754 15.3468 22.1905C15.7045 20.5698 16.5898 19.1135 17.8639 18.0498C19.1379 16.9861 20.7289 16.375 22.3874 16.3124C23.1466 16.2776 23.9043 16.4081 24.6082 16.6948C25.312 16.9815 25.9452 17.4176 26.464 17.973C26.9828 18.5283 27.3749 19.1897 27.6131 19.9114C27.8513 20.6331 27.93 21.3979 27.8437 22.153Z" fill="#75EF75"/>
<path d="M22.2563 16.9219C20.7051 16.9847 19.2188 17.5612 18.0309 18.5607C16.843 19.5602 16.0209 20.9261 15.6938 22.4438C15.4876 23.3785 15.5547 24.3529 15.8871 25.2506C16.2196 26.1483 16.8034 26.9313 17.5688 27.5063C19.3206 23.8796 21.3354 20.3859 23.5969 17.0531C23.1566 16.9577 22.7068 16.9136 22.2563 16.9219Z" fill="#75EF75"/>
<path d="M17.522 27.5063C18.4266 28.134 19.5054 28.4619 20.6063 28.4438C21.9218 28.4426 23.2073 28.051 24.3001 27.3188C23.5501 25.2375 22.0407 23.4657 20.6438 21.6282C19.5028 23.5326 18.4608 25.4945 17.522 27.5063Z" fill="#4ED154"/>
<path d="M23.55 17.0532C22.5563 18.572 21.5625 20.1001 20.625 21.6657C22.0219 23.5407 23.5312 25.2751 24.2812 27.3563C25.1291 26.8138 25.8462 26.0903 26.3811 25.2376C26.916 24.385 27.2554 23.4245 27.375 22.4251C27.5261 21.2133 27.2169 19.989 26.5086 18.9943C25.8003 17.9995 24.7445 17.3069 23.55 17.0532Z" fill="#75EF75"/>
<path d="M23.897 18.375C22.1539 20.9349 20.6027 23.6203 19.2563 26.4094C19.9476 26.9043 20.7781 27.167 21.6282 27.1594C22.9184 27.1454 24.1593 26.6617 25.1188 25.799C26.0782 24.9362 26.6903 23.7534 26.8407 22.4719C26.9475 21.5452 26.7051 20.612 26.1607 19.8544C25.6164 19.0969 24.8093 18.5694 23.897 18.375Z" fill="#4ED154"/>
<path d="M26.0627 22.4249C25.896 23.708 25.2726 24.8881 24.3067 25.749C23.3408 26.6098 22.097 27.0939 20.8033 27.1124C20.222 27.1301 19.6444 27.0151 19.1142 26.776C18.5841 26.5369 18.1155 26.18 17.744 25.7326C17.3725 25.2852 17.1079 24.759 16.9704 24.1939C16.8328 23.6289 16.8259 23.0399 16.9502 22.4718C17.197 21.2776 17.8375 20.2008 18.769 19.4138C19.7004 18.6268 20.869 18.1752 22.0877 18.1312C22.6444 18.105 23.2002 18.2009 23.716 18.412C24.2318 18.6231 24.6952 18.9445 25.0739 19.3535C25.4525 19.7625 25.7372 20.2493 25.908 20.7798C26.0788 21.3104 26.1316 21.8718 26.0627 22.4249Z" fill="#75EF75"/>
<path d="M26.1281 21.7874C25.9533 23.0562 25.3293 24.2203 24.3694 25.0683C23.4096 25.9163 22.1775 26.3921 20.8969 26.4093C20.3179 26.4385 19.74 26.333 19.2086 26.1013C18.6773 25.8695 18.2069 25.5176 17.8344 25.0734C17.462 24.6292 17.1975 24.1046 17.062 23.541C16.9264 22.9773 16.9234 22.3899 17.0531 21.8249C17.302 20.6384 17.9416 19.5697 18.8695 18.7896C19.7975 18.0095 20.9602 17.5631 22.1718 17.5218C22.7279 17.4857 23.285 17.574 23.8026 17.7802C24.3202 17.9864 24.7854 18.3053 25.1643 18.7138C25.5432 19.1224 25.8263 19.6102 25.993 20.1419C26.1597 20.6735 26.2059 21.2357 26.1281 21.7874Z" fill="#358761"/>
<path d="M21.9936 18.7499C20.959 18.7828 19.9661 19.1648 19.1763 19.8338C18.3864 20.5028 17.8463 21.4193 17.6436 22.4343C17.5479 22.9164 17.5605 23.4138 17.6805 23.8905C17.8004 24.3671 18.0248 24.8112 18.3373 25.1906C19.8561 23.0812 21.5248 21.1312 22.8654 18.8437C22.5795 18.7785 22.2869 18.747 21.9936 18.7499Z" fill="#C0FFC0"/>
<path d="M22.8655 18.853C21.5249 21.1405 19.8562 23.0905 18.3374 25.1999C18.657 25.5655 19.0523 25.8571 19.4958 26.0546C19.9394 26.2521 20.4206 26.3508 20.9062 26.3437C21.9859 26.3187 23.0217 25.911 23.8287 25.1932C24.6357 24.4755 25.1616 23.4944 25.3124 22.4249C25.4269 21.6311 25.2389 20.8233 24.7857 20.1617C24.3324 19.5001 23.6471 19.033 22.8655 18.853Z" fill="#75EF75"/>
<path d="M22.5938 18.3188L23.1938 20.672L25.7626 21.3282L23.3907 22.9313L23.2126 25.6313L21.0938 24.0845L18.3376 25.0595L19.5188 22.4907L18.1313 20.4938L20.8407 20.4188L22.5938 18.3188Z" fill="#358761"/>
<path d="M22.3593 19.425L21.1499 20.8594L19.2749 20.9157L20.2124 22.2938L19.3968 24.0563L21.178 23.4282C21.553 22.1532 21.9843 20.8875 22.378 19.6219L22.3593 19.425Z" fill="#75EF75"/>
<path d="M22.7717 21.0375L22.4061 19.6218C22.0123 20.8875 21.5811 22.1531 21.2061 23.4281H21.3186L22.7811 24.4968L22.9029 22.6218L24.5342 21.525L22.7717 21.0375Z" fill="#4ED154"/>
</g>
<defs>
<clipPath id="clip0_1_12458">
<rect width="30" height="30" fill="white"/>
</clipPath>
</defs>
</svg>
