<svg width="30" height="30" viewBox="0 0 30 30" fill="none" xmlns="http://www.w3.org/2000/svg">
<g clip-path="url(#clip0_1_6354)">
<path d="M19.2188 19.2188C19.2188 19.2188 22.2188 18.4688 23.1563 16.875L20.0625 15.9375L19.2188 19.2188Z" fill="#858585"/>
<path d="M14.3436 2.62474C14.3436 2.62474 10.9686 0.84349 8.62484 1.59349C6.28109 2.34349 1.78109 9.37474 6.56234 13.3122L6.65609 13.406C11.6248 17.3435 13.4998 7.03099 13.4998 7.03099L14.3436 2.62474Z" fill="#8E8686"/>
<path d="M14.1561 3.65648C14.1561 3.65648 11.6248 1.50023 9.28106 2.25023C6.93731 2.90648 2.90606 9.37523 7.59356 12.9377L7.68731 13.0315C12.6561 16.594 14.5311 7.21898 14.5311 7.21898L14.1561 3.65648Z" fill="#B8B8B8"/>
<path d="M6.75013 10.3125C6.75013 10.3125 4.31263 11.1562 4.59388 12.8437C4.87513 14.5312 5.81263 17.625 9.65638 17.625L10.0314 15.2812L6.75013 10.3125Z" fill="#8E8686"/>
<path d="M7.49984 9.5625C7.49984 9.5625 4.96859 10.5938 5.24984 12.2813C5.53109 13.9688 6.84359 17.3438 10.6873 17.3438L11.0623 15L7.49984 9.5625Z" fill="#B8B8B8"/>
<path d="M7.87517 27.188C6.18767 26.2505 5.43767 24.0943 6.28142 21.938C6.56267 21.188 8.15642 19.313 8.62517 18.938C10.1252 17.813 16.2189 17.063 21.0939 20.6255C21.9377 21.2818 22.5939 22.313 22.8752 23.6255V23.7193C23.5314 27.0005 22.4064 29.6255 19.5002 29.6255C16.1252 29.6255 10.7814 28.7818 7.87517 27.188Z" fill="#7B7F79"/>
<path d="M7.31267 26.8126C5.62517 25.7814 4.87517 23.4376 5.71892 21.0939C6.00017 20.2501 7.59392 18.1876 8.06267 17.8126C9.56267 16.5939 15.6564 15.7501 20.5314 19.5939C21.3752 20.3439 22.0314 21.4689 22.3127 22.8751V22.9689C22.9689 26.6251 21.8439 29.4376 18.9377 29.4376C15.5627 29.4376 10.2189 28.5939 7.31267 26.8126Z" fill="#7B7F79"/>
<path d="M8.06267 26.2495C6.37517 25.312 5.62517 23.1558 6.46892 20.9995C6.75017 20.2495 8.34391 18.3745 8.81266 17.9995C10.3127 16.8745 16.4064 16.1245 21.2814 19.687C22.1252 20.3433 22.7814 21.3745 23.0627 22.687V22.7808C23.7189 26.062 22.5939 28.687 19.6877 28.687C16.3127 28.5933 10.8752 27.7495 8.06267 26.2495Z" fill="#C8CEC6"/>
<path d="M8.15644 24.2817C6.65644 23.5317 7.12519 21.8442 7.96894 19.9692C8.25019 19.313 8.90644 18.7505 9.37519 18.4692C10.7814 17.5317 16.2189 16.688 20.7189 19.688C21.5627 20.2505 22.1252 21.0942 22.4064 22.1255V22.2192C22.9689 24.938 21.0002 27.3755 18.5627 27.0005C15.4689 26.5317 10.7814 25.5005 8.15644 24.2817Z" fill="#D1D1D1"/>
<path d="M8.06235 24.2811C6.74985 23.5311 8.1561 22.6874 8.81235 20.9061C9.0936 20.2499 10.4061 18.9374 10.7811 18.6561C11.9998 17.7186 14.9061 16.7811 18.8436 19.7811C19.5936 20.3436 20.0623 21.1874 20.2498 22.2186V22.3124C20.7186 25.0311 19.4061 27.0936 17.3436 26.7186C14.5311 26.2499 10.3123 25.4999 8.06235 24.2811Z" fill="#EBEBEB"/>
<path d="M17.8125 19.5937C17.8125 19.5937 18.6562 22.2187 16.6875 23.25C16.6875 23.25 21.5625 23.8125 22.875 23.0625C22.875 23.0625 23.3438 20.25 19.4063 18.9375L17.8125 19.5937ZM9.5625 18C9.5625 18 8.53125 18.75 7.5 20.4375L8.625 21.0937L8.90625 21.375C8.90625 21.375 9.65625 19.6875 10.875 19.0312L9.5625 18Z" fill="#EBEBEB"/>
<path d="M7.68749 19.9688C7.68749 19.9688 8.99999 23.1563 22.7812 22.9688L21.4687 26.3438C21.4687 26.3438 17.9062 27 13.125 25.875C8.53124 24.75 6.18749 24.2812 7.68749 19.9688Z" fill="#C8CEC6"/>
<path d="M7.12504 21.2815C7.21879 21.0003 7.59378 20.8128 7.87503 21.0003C8.90628 21.6565 11.625 23.0628 17.3438 23.719C18.6563 23.8128 20.4375 23.8128 22.6875 23.2503C22.6875 23.2503 22.7813 23.719 22.6875 24.3753C22.4063 25.969 20.9063 27.1878 19.4063 27.1878C17.5313 27.1878 15.6563 27.094 13.0313 26.4378C8.62503 25.5003 6.18754 25.0315 7.12504 21.2815Z" fill="#F4F4F4"/>
<path d="M23.4601 12.1086C23.4766 7.55227 19.7963 3.84523 15.24 3.82872C10.6836 3.81221 6.97658 7.49248 6.96007 12.0488C6.94356 16.6052 10.6238 20.3122 15.1802 20.3287C19.7365 20.3452 23.4436 16.665 23.4601 12.1086Z" fill="#595959"/>
<path d="M23.1 11.4881C23.1161 7.03532 19.5195 3.41254 15.0667 3.3964C10.6139 3.38027 6.99115 6.97689 6.97502 11.4297C6.95888 15.8825 10.5555 19.5053 15.0083 19.5214C19.4611 19.5375 23.0839 15.9409 23.1 11.4881Z" fill="#D1D1D1"/>
<path d="M23.0122 11.3268C23.0276 7.08112 19.6822 3.62714 15.5401 3.61214C11.398 3.59713 8.02761 7.02677 8.01223 11.2725C7.99685 15.5182 11.3422 18.9721 15.4844 18.9871C19.6265 19.0021 22.9968 15.5725 23.0122 11.3268Z" fill="#DBDBDB"/>
<path d="M18.8573 12.3783C18.8686 9.27167 16.4432 6.74445 13.4402 6.73357C10.4371 6.72269 7.99355 9.23227 7.9823 12.3389C7.97104 15.4455 10.3964 17.9727 13.3994 17.9836C16.4025 17.9945 18.846 15.4849 18.8573 12.3783Z" fill="#EBEBEB"/>
<path d="M16.0514 12.9429C16.0531 12.4769 15.7187 12.098 15.3045 12.0965C14.8902 12.095 14.5531 12.4715 14.5514 12.9375C14.5497 13.4035 14.8841 13.7825 15.2983 13.784C15.7126 13.7855 16.0497 13.4089 16.0514 12.9429Z" fill="#595959"/>
<path d="M15.6325 12.6527C15.6329 12.5492 15.5492 12.4649 15.4457 12.4645C15.3421 12.4642 15.2579 12.5478 15.2575 12.6514C15.2571 12.7549 15.3408 12.8392 15.4443 12.8395C15.5479 12.8399 15.6321 12.7563 15.6325 12.6527Z" fill="white"/>
<path d="M9.99232 11.9195C9.994 11.4535 9.65959 11.0745 9.24537 11.073C8.83116 11.0715 8.494 11.4481 8.49232 11.9141C8.49063 12.3801 8.82504 12.759 9.23926 12.7605C9.65347 12.762 9.99063 12.3855 9.99232 11.9195Z" fill="#595959"/>
<path d="M9.57343 11.6303C9.57381 11.5267 9.49017 11.4425 9.38661 11.4421C9.28306 11.4417 9.19881 11.5254 9.19843 11.6289C9.19806 11.7325 9.2817 11.8167 9.38525 11.8171C9.48881 11.8175 9.57306 11.7338 9.57343 11.6303Z" fill="white"/>
<path d="M10.2187 26.1567C10.2187 26.1567 11.25 25.9692 11.9062 25.1254C11.9062 25.1254 12.1875 26.5317 13.125 26.8129L10.2187 26.1567ZM18.9375 25.7817C18.9375 25.7817 19.2188 26.6254 18.9375 27.5629H20.1562C20.1562 27.5629 19.875 25.7817 18.75 24.3754L18.9375 25.7817ZM7.78125 23.3442C7.78125 23.3442 7.59375 24.0942 7.875 24.8442L6.84375 24.9379C6.84375 24.9379 6.9375 24.0942 7.3125 23.2504C7.40625 22.8754 7.78125 22.9692 7.78125 23.3442Z" fill="#C8CEC6"/>
<path d="M12.8439 24.75C12.8439 24.75 16.4064 24.0937 18.0939 25.125C18.0939 25.125 18.5626 25.875 18.0939 26.0625C17.6251 26.25 14.4376 24.75 12.8439 25.2187C12.8439 25.2187 12.4689 24.8437 12.8439 24.75ZM7.96886 22.9688C7.96886 22.9688 10.5939 23.0625 11.6251 24.0938C11.6251 24.0938 11.8126 24.75 11.5314 24.75C11.2501 24.8437 9.18761 23.25 7.96886 23.3437C7.87511 23.3437 7.68761 23.0625 7.96886 22.9688Z" fill="white"/>
<path d="M20.1562 12.9375C20.1562 12.9375 21.0937 12.375 21.4687 12.8438C22.2187 13.5938 21.5625 14.7188 20.1562 14.9063V12.9375Z" fill="#DBDBDB"/>
<path d="M13.6875 16.3125C13.6875 16.3125 12.9375 16.2187 12.375 15.75C11.8125 15.375 11.3438 15.375 11.25 15.375C11.1563 15.375 10.9688 15.1875 10.7813 15.0938C10.5938 15 10.3125 15 10.3125 15.0938C10.3125 15.1875 10.5 15.5625 10.5 15.5625V16.125C10.5 16.3125 10.5 16.875 11.0625 16.9688C11.625 17.0625 12 17.0625 12.2813 16.875C12.6563 16.9687 13.6875 16.3125 13.6875 16.3125Z" fill="#6E6E6E"/>
<path d="M12.375 21.5625C12.375 21.5625 12.1875 23.0625 9.18747 22.875C6.18748 22.6875 7.03122 20.625 7.03122 20.625L12.375 21.5625Z" fill="#C8CEC6"/>
<path d="M18.0002 23.0625C18.0002 23.0625 17.7189 24.5625 14.0627 24.375C10.4064 24.1875 11.5314 22.2188 11.5314 22.2188L18.0002 23.0625ZM20.5314 19.7813C20.5314 19.7813 22.1252 20.4375 22.3127 23.1563H23.0627C23.0627 23.1563 22.9689 20.5312 20.8127 19.5L20.5314 19.7813Z" fill="#C8CEC6"/>
<path d="M17.6251 22.4062C17.6251 22.4062 17.4376 23.9062 14.5313 23.7187C11.6251 23.4375 12.4688 21.5625 12.4688 21.5625L17.6251 22.4062Z" fill="#EBEBEB"/>
<path d="M12.1875 21C12.1875 21 12.5625 22.4062 9.6562 22.125C6.74995 21.8437 7.7812 19.875 7.7812 19.875L12.1875 21Z" fill="#EBEBEB"/>
<path d="M11.625 22.2188C11.625 22.2188 12 21.375 12.75 20.7188C12.75 20.7188 12.2813 21.6562 12.2813 22.3125L11.625 22.2188Z" fill="#C8CEC6"/>
<path d="M10.3124 19.9687L10.8749 20.25C11.0624 20.3438 11.1562 20.625 11.1562 20.8125C11.1562 21 10.9687 21.1875 10.7812 21.375C10.5937 21.4687 10.4062 21.5625 10.1249 21.5625C9.74991 21.5625 9.46866 21.4688 9.09366 21.2813C8.81241 21.0938 8.34366 20.5313 8.71866 20.1563C9.09366 19.6875 9.84366 19.875 10.3124 19.9687Z" fill="white"/>
<path d="M15.5624 21.375L16.1249 21.6563C16.3124 21.75 16.4062 22.0313 16.4062 22.2188C16.4062 22.4063 16.2187 22.5937 16.0312 22.7812C15.8437 22.875 15.6562 22.9688 15.3749 22.9688C14.9999 22.9688 14.7187 22.875 14.3437 22.6875C14.0624 22.5 13.5937 21.9375 13.9687 21.5625C14.3437 21.0938 15.0937 21.2812 15.5624 21.375Z" fill="white"/>
<path d="M17.4375 7.03104L15.6563 6.65604C15.6563 6.65604 15.2812 2.81229 10.3125 3.37479C10.3125 3.37479 12 1.12479 14.3438 1.59354C16.6875 2.06229 18.2812 4.12479 17.8125 5.15604C17.3438 6.18729 17.4375 7.03104 17.4375 7.03104Z" fill="#858585"/>
<path d="M16.0312 6.56204C16.0312 6.56204 17.9062 4.87454 17.3438 3.84329C16.7812 2.81204 14.4375 1.21829 11.8125 2.24954L10.125 3.09329C10.125 3.09329 12 0.56204 13.5937 0.18704C15.1875 -0.18796 20.4375 -0.000460163 22.0312 2.15579C23.625 4.21829 23.1562 7.40579 21.5625 8.71829C19.9688 10.0308 16.4062 6.93704 16.0312 6.56204Z" fill="#858585"/>
<path d="M15.8438 6.75012C15.8438 6.75012 17.5313 5.15637 17.0625 4.21887C16.5938 3.28137 14.3438 1.78137 12 2.81262L10.3125 3.46887C10.3125 3.46887 12.0937 1.12512 13.5 0.750116C14.9062 0.375116 19.7813 0.656366 21.2813 2.53137C22.7813 4.40637 22.3125 7.40637 20.9062 8.62512C19.5 9.84387 16.125 7.12512 15.8438 6.75012Z" fill="#D4D4D4"/>
<path d="M19.5002 8.71837C19.5002 8.71837 20.7189 5.24962 22.9689 5.71837C25.2189 6.18712 27.4689 10.6871 24.8439 13.6871C24.8439 13.6871 22.8752 15.3746 23.3439 16.5934C23.3439 16.5934 23.7189 16.9684 24.6564 16.6871C24.6564 16.6871 23.5314 17.2496 22.3127 17.2496C21.0939 17.2496 18.0939 15.2809 18.6564 12.6559L19.5002 8.71837Z" fill="#858585"/>
<path d="M18.0937 8.24962C18.0937 8.24962 19.3125 4.78087 21.5625 5.24962C23.8125 5.71837 26.0625 10.2184 23.4375 13.2184C23.4375 13.2184 21.4687 14.9059 21.9375 16.1246C21.9375 16.1246 21.8437 17.0621 22.6875 16.8746C22.6875 16.8746 21.8437 17.1559 20.625 17.1559C19.4062 17.1559 16.6875 14.9996 17.25 12.3746L18.0937 8.24962Z" fill="#D4D4D4"/>
<path d="M17.7188 15.0938C17.7188 15.0938 18.1875 18.2812 20.9062 18.1875C23.625 18.0937 24.6562 16.6875 24.6562 16.6875C24.6562 16.6875 23.5313 17.25 21.1875 16.7812C18.75 16.4062 17.7188 15.0938 17.7188 15.0938Z" fill="#858585"/>
<path d="M17.9062 6.65659C17.9062 6.65659 19.125 2.81284 14.625 1.96909L13.2188 2.06284C13.2188 2.06284 15.75 0.375338 19.2187 2.53159C22.4062 4.50034 20.8125 6.56284 20.8125 6.56284C20.8125 6.56284 18.75 7.03159 17.9062 6.65659ZM19.125 8.81284C19.125 8.81284 21 7.31284 22.125 7.78159C23.25 8.25034 24.1875 9.75034 22.875 11.2503C21.5625 12.7503 20.625 14.3441 21.0937 15.5628C21.0937 15.5628 18.8437 13.4066 19.0312 12.0003C19.2187 10.5941 19.7812 9.46909 19.125 8.81284Z" fill="#F0F0F0"/>
<path d="M21.1873 19.875C21.1873 19.875 20.2498 21.4687 20.2498 23.4375H18.5623C18.5623 23.4375 19.0311 21.4687 20.8123 19.5937L21.1873 19.875ZM9.56234 22.4062C9.56234 22.4062 6.74984 21.0937 9.46859 18H9.09359C9.09359 18 6.93734 19.7812 7.12484 21.1875C7.21859 22.7812 9.56234 22.4062 9.56234 22.4062Z" fill="#C8CEC6"/>
<path d="M16.5938 27.4688L16.2188 27.9375L17.8125 29.0625L27 19.9688L25.5 18.0938L16.5938 27.4688Z" fill="#9A4C18"/>
<path d="M27.1876 22.5938C26.9064 26.1563 23.5314 29.25 19.7814 29.25C16.1251 29.25 13.7814 26.1563 14.4376 22.6875C15.0939 19.4063 18.2814 16.7813 21.5626 16.7813C24.9376 16.5938 27.4689 19.125 27.1876 22.5938Z" fill="#9A4C18"/>
<path d="M28.1253 23.7184C27.844 27.1872 24.5628 30.0934 20.9065 29.9997C17.344 29.9997 15.0003 27.0934 15.6565 23.7184C16.3128 20.5309 19.4065 18.0934 22.594 18.0934C25.8753 17.9997 28.4065 20.4372 28.1253 23.7184Z" fill="#9A4C18"/>
<path d="M17.625 27.75L19.125 28.5938L26.625 20.7188L25.4063 19.125L17.625 27.75Z" fill="#F49937"/>
<path d="M27.3752 23.7188C27.094 26.625 24.3752 29.1563 21.3752 29.0625C18.3752 29.0625 16.4065 26.5313 16.969 23.7188C17.5315 21 20.0627 18.8438 22.7815 18.8438C25.594 18.75 27.6565 20.9063 27.3752 23.7188Z" fill="#F49937"/>
<path d="M26.3438 22.4999C26.0626 25.5936 23.1563 28.3124 19.8751 28.3124C16.6876 28.3124 14.6251 25.6874 15.1876 22.5936C15.7501 19.6874 18.5626 17.4374 21.4688 17.3436C24.4688 17.2499 26.6251 19.4999 26.3438 22.4999Z" fill="#FFEDC0"/>
<path d="M25.969 22.7813C25.6877 25.6875 22.969 28.2188 19.969 28.125C16.969 28.125 15.0002 25.5938 15.5627 22.7813C16.1252 20.0625 18.6565 17.9063 21.3752 17.9063C24.1877 17.8125 26.2502 19.9688 25.969 22.7813Z" fill="#FFD766"/>
<path d="M24.8439 22.7812C24.5627 25.0312 22.5002 26.9062 20.1564 26.9062C17.8127 26.9062 16.3127 25.0312 16.6877 22.7812C17.0627 20.625 19.1252 18.9375 21.2814 18.9375C23.4377 18.9375 25.0314 20.5312 24.8439 22.7812Z" fill="#FFEDC0"/>
<path d="M24.8438 22.2186C24.5626 24.4686 22.5001 26.3436 20.1563 26.3436C17.9063 26.3436 16.3126 24.4686 16.7813 22.3123C17.1563 20.1561 19.2188 18.5623 21.2813 18.4686C23.5313 18.3748 25.1251 20.0623 24.8438 22.2186Z" fill="#F49937"/>
<path d="M24.1877 22.7813C24.0002 24.6563 22.2189 26.25 20.2502 26.25C18.2814 26.25 17.0627 24.6563 17.3439 22.7813C17.6252 21 19.4064 19.5 21.1877 19.5C23.0627 19.5 24.3752 20.9063 24.1877 22.7813Z" fill="#FFD766"/>
<path d="M21.75 19.125L22.2188 21.1875L24.4688 21.75L22.4062 23.1563L22.2188 25.5937L20.4375 24.1875L18 25.0313L19.0312 22.7812L17.8125 21H20.1562L21.75 19.125Z" fill="#F49937"/>
</g>
<defs>
<clipPath id="clip0_1_6354">
<rect width="30" height="30" fill="white"/>
</clipPath>
</defs>
</svg>
