<svg width="24" height="24" viewBox="0 0 24 24" fill="none" xmlns="http://www.w3.org/2000/svg">
<path fill-rule="evenodd" clip-rule="evenodd" d="M10.7982 4.84424V11.7999L8.80555 9.58281L7.18501 11.3918L12.0586 16.8212L13.6792 15.0122L13.6552 14.975L16.7882 11.4866L15.2397 9.77127L13.199 12.046V5.05907C14.9583 5.5623 16.4658 6.76955 17.3311 8.43962C17.3783 8.43584 17.4236 8.4291 17.4693 8.4223C17.5398 8.41181 17.6111 8.40121 17.6912 8.40121C20.5576 8.56115 22.7999 10.9321 22.7999 13.803C22.7999 16.6739 20.5576 19.0448 17.6912 19.2048H5.18305C3.03996 19.0897 1.32672 17.3805 1.20663 15.2377C1.08654 13.0949 2.59808 11.205 4.71489 10.8512C5.12628 7.66455 7.66017 5.20663 10.7982 4.84424ZM12.1547 13.202H12.0586L12.1066 13.2584L12.1547 13.202Z" fill="#F4BB2E"/>
</svg>
