<svg width="30" height="30" viewBox="0 0 30 30" fill="none" xmlns="http://www.w3.org/2000/svg">
<g clip-path="url(#clip0_1_3539)">
<path d="M21.0937 8.34375C23.3719 8.34375 25.2187 6.49692 25.2187 4.21875C25.2187 1.94058 23.3719 0.09375 21.0937 0.09375C18.8156 0.09375 16.9688 1.94058 16.9688 4.21875C16.9688 6.49692 18.8156 8.34375 21.0937 8.34375Z" fill="#6A8189"/>
<path d="M20.5312 8.25C22.7059 8.25 24.4687 6.48712 24.4687 4.3125C24.4687 2.13788 22.7059 0.375 20.5312 0.375C18.3566 0.375 16.5938 2.13788 16.5938 4.3125C16.5938 6.48712 18.3566 8.25 20.5312 8.25Z" fill="#425763"/>
<path d="M22.875 4.125C22.875 4.125 27.375 9.5625 24.2812 16.6875L21.75 6.84375L23.0625 5.34375" fill="#6A8189"/>
<path d="M20.2501 18.375C22.1251 18.9375 23.8126 20.5313 24.3751 22.5938C24.9376 24.75 24.1876 27.4688 22.5001 28.6875C21.3751 29.5313 20.0626 29.7188 18.7501 29.7188C15.6564 29.7188 12.4689 28.6875 9.37511 27.6563C8.34386 27.2813 7.31261 26.9063 6.37511 26.25C5.43761 25.5938 4.68761 24.5625 4.50011 23.3438C4.31261 21.6563 5.34386 19.9688 6.65636 19.125C8.90636 17.625 11.3439 17.0625 13.6876 17.0625C15.7501 16.9688 18.2814 17.7188 20.2501 18.375Z" fill="#B74F88"/>
<path d="M19.9687 16.9687C21.6562 17.5312 23.3437 19.125 23.8125 21.1875C24.375 23.3437 23.625 26.0625 22.0312 27.2812C21 28.125 19.6875 28.3125 18.4687 28.3125C15.5625 28.3125 12.5625 27.2812 9.65622 26.25C8.71872 25.875 7.68746 25.5 6.84372 24.8437C5.99997 24.1875 5.24996 23.1562 5.15621 21.9375C4.96871 20.25 5.90621 18.5625 7.21871 17.7187C9.37496 16.2187 11.625 15.6562 13.875 15.6562C15.6562 15.6562 18.0937 16.3125 19.9687 16.9687Z" fill="#F29EDE"/>
<path d="M18.75 18C18.75 18 13.7813 20.0625 10.2188 25.7812C10.2188 25.7812 8.90629 20.8125 9.65629 17.25C9.65629 17.25 14.625 19.5 18.75 18Z" fill="#B74F88"/>
<path d="M16.875 18C16.875 18 13.125 19.5 10.5 23.8125C10.5 23.8125 9.56255 20.1562 10.125 17.4375C10.125 17.4375 13.875 19.125 16.875 18Z" fill="#FAEACF"/>
<path opacity="0.6" d="M7.5 17.4375C7.5 17.4375 8.90625 21.0937 10.6875 21.375C12.4687 21.6562 15.4688 22.3125 19.4063 18.4688L7.5 17.4375Z" fill="#B74F88"/>
<path opacity="0.28" d="M21.209 24.5321C21.832 22.6113 21.259 20.7046 19.9293 20.2734C18.5995 19.8421 17.0165 21.0495 16.3936 22.9703C15.7706 24.891 16.3436 26.7977 17.6733 27.229C19.0031 27.6603 20.5861 26.4528 21.209 24.5321Z" fill="white"/>
<path d="M7.96894 15.9375C7.96894 15.9375 7.87519 16.125 7.68769 16.4062C6.75019 17.3438 5.15644 16.9688 4.78144 15.6563C4.03144 12.9375 3.18769 7.3125 8.25019 3.09375L7.96894 15.9375Z" fill="#425763"/>
<path d="M7.03125 4.40629C7.03125 4.40629 7.59375 6.56254 10.5938 6.84379C13.5938 7.03129 23.9062 5.53129 23.9062 5.53129C23.9062 5.53129 21.1875 0.281291 14.9062 4.13982e-05C10.0312 -0.187459 7.40625 3.65629 7.03125 4.40629Z" fill="#6A8189"/>
<path d="M19.5938 4.87509L20.625 9.37509C20.625 9.37509 14.9062 11.3438 6.09375 7.21884C6.09375 7.21884 6.09375 4.21884 8.90625 2.34384C11.7188 0.468838 19.5938 4.87509 19.5938 4.87509Z" fill="#6A8189"/>
<path d="M23.408 11.2716C23.4262 6.24925 19.3695 2.16309 14.3472 2.14489C9.32481 2.12669 5.23865 6.18335 5.22045 11.2057C5.20225 16.228 9.25891 20.3142 14.2812 20.3324C19.3036 20.3506 23.3898 16.2939 23.408 11.2716Z" fill="#A67A65"/>
<path d="M23.0017 10.5808C23.0193 5.71382 19.0881 1.75404 14.2211 1.7364C9.35408 1.71876 5.39429 5.64996 5.37666 10.517C5.35902 15.384 9.29022 19.3438 14.1572 19.3614C19.0242 19.379 22.984 15.4478 23.0017 10.5808Z" fill="#E5A98C"/>
<path d="M22.8856 10.3462C22.9024 5.68626 19.2225 1.89528 14.6661 1.87877C10.1098 1.86226 6.40244 5.62647 6.38555 10.2864C6.36867 14.9463 10.0486 18.7373 14.605 18.7538C19.1613 18.7703 22.8687 15.0061 22.8856 10.3462Z" fill="#E8CCAA"/>
<path d="M18.3286 11.4854C18.341 8.06811 15.6647 5.28814 12.351 5.27614C9.03728 5.26413 6.34096 8.02463 6.32857 11.4419C6.31619 14.8592 8.99244 17.6391 12.3062 17.6511C15.6199 17.6631 18.3162 14.9026 18.3286 11.4854Z" fill="#FAEACF"/>
<path d="M7.125 4.31251C7.125 4.31251 7.6875 6.37501 10.5 6.65626C13.3125 6.93751 23.0625 5.34376 23.0625 5.34376C23.0625 5.34376 20.625 0.468763 14.625 0.187513C9.9375 -0.0937366 7.5 3.56251 7.125 4.31251Z" fill="#425763"/>
<path d="M15.268 12.1976C15.2699 11.6799 14.8937 11.2588 14.4277 11.2571C13.9617 11.2554 13.5824 11.6738 13.5805 12.1915C13.5787 12.7093 13.9549 13.1304 14.4209 13.1321C14.8869 13.1338 15.2662 12.7154 15.268 12.1976Z" fill="#425763"/>
<path d="M14.7041 11.7941C14.7047 11.6388 14.6212 11.5125 14.5177 11.5122C14.4141 11.5118 14.3297 11.6374 14.3291 11.7927C14.3286 11.9481 14.4121 12.0743 14.5156 12.0747C14.6192 12.075 14.7036 11.9494 14.7041 11.7941Z" fill="white"/>
<path d="M8.68553 10.7208C8.6874 10.2031 8.31116 9.78197 7.84517 9.78028C7.37918 9.77859 6.9999 10.197 6.99803 10.7147C6.99615 11.2325 7.37239 11.6536 7.83838 11.6553C8.30437 11.657 8.68365 11.2386 8.68553 10.7208Z" fill="#425763"/>
<path d="M8.21489 10.4113C8.21545 10.2559 8.13196 10.1297 8.02841 10.1293C7.92485 10.129 7.84045 10.2546 7.83989 10.4099C7.83932 10.5652 7.92281 10.6915 8.02637 10.6918C8.12992 10.6922 8.21432 10.5666 8.21489 10.4113Z" fill="white"/>
<path d="M20.1562 11.9063C20.1562 11.9063 20.9062 11.3438 21.4687 11.5313C22.0312 11.7188 21.9375 13.6876 20.4375 13.8751L20.1562 11.9063Z" fill="#FAEACF"/>
<path d="M17.3438 5.43745C17.3438 5.43745 19.4062 9.0937 19.0312 14.9062C18.8437 17.7187 22.3125 19.125 24.0938 16.9687L24.1875 16.8749C25.6875 15.0937 24.5625 10.2187 23.625 6.93745C23.0625 4.9687 21.1875 4.2187 19.3125 4.87495L17.3438 5.43745Z" fill="#425763"/>
<path d="M19.125 4.78121L20.0625 8.99996C20.0625 8.99996 14.25 11.1562 5.90625 7.21871C5.90625 7.21871 6.375 4.12496 9 2.34371C11.625 0.562458 19.125 4.78121 19.125 4.78121Z" fill="#425763"/>
<path d="M6.65625 6.46875C6.65625 6.46875 7.40625 5.4375 8.34375 5.4375C9.28125 5.4375 13.125 8.0625 19.3125 7.21875C19.3125 7.21875 18.0937 8.4375 16.6875 8.625C15.1875 8.71875 9.9375 8.25 6.65625 6.46875Z" fill="#6A8189"/>
<path d="M12.5625 16.3125C12.5625 16.3125 11.7187 16.2187 11.1562 15.75C10.5937 15.2812 10.0312 15.375 9.84375 15.375C9.75 15.375 9.5625 15.1875 9.375 15.0938C9.1875 15 8.90625 15 8.90625 15.0938C8.90625 15.1875 9.1875 15.6563 9.1875 15.6563C9.1875 15.6563 9.28125 16.0312 9.1875 16.2187C9.09375 16.4062 9.1875 16.9687 9.84375 17.1562C10.5 17.3437 10.9687 17.25 11.25 17.0625C11.4375 16.9688 12.5625 16.3125 12.5625 16.3125Z" fill="#A67A65"/>
<path d="M24.9375 8.53125C24.9375 8.53125 20.0625 4.875 13.5 4.3125C6.9375 3.75 6.1875 5.25 6.1875 5.25L8.34375 2.34375C8.34375 2.34375 16.2187 2.34375 20.0625 4.03125C23.9062 5.71875 24.5625 6.75 24.5625 6.75L24.9375 8.53125Z" fill="#F29EDE"/>
<path opacity="0.28" d="M8.0625 3.93745L9.09375 2.99995C9.09375 2.99995 14.7188 2.5312 18.75 4.68745C18.75 4.5937 12.4688 3.2812 8.0625 3.93745Z" fill="white"/>
<path d="M15.8437 27.5625L15.5625 27.9375L17.1562 29.0625L26.0625 20.1562L24.5625 18.2812L15.8437 27.5625Z" fill="#9A4C18"/>
<path d="M26.2501 22.6875C25.9689 26.25 22.6876 29.25 19.0314 29.1562C15.3751 29.1562 13.1251 26.1563 13.7814 22.6875C14.4376 19.4063 17.5314 16.875 20.8126 16.875C24.0939 16.875 26.5314 19.4063 26.2501 22.6875Z" fill="#9A4C18"/>
<path d="M27.1878 23.8126C26.9065 27.1876 23.719 30.0001 20.0628 30.0001C16.5003 30.0001 14.2503 27.0938 14.9065 23.8126C15.5628 20.7188 18.5628 18.2813 21.7503 18.2813C25.0315 18.1876 27.469 20.6251 27.1878 23.8126Z" fill="#9A4C18"/>
<path d="M16.875 27.75L18.375 28.5938L25.6875 20.9062L24.4688 19.3125L16.875 27.75Z" fill="#F49937"/>
<path d="M26.4374 23.8125C26.1561 26.7188 23.5311 29.1563 20.5311 29.0625C17.6249 29.0625 15.6561 26.625 16.2186 23.8125C16.6874 21.0938 19.3124 19.0312 21.9374 19.0312C24.6561 19.0312 26.7186 21.0938 26.4374 23.8125Z" fill="#F49937"/>
<path d="M25.4999 22.6875C25.2187 25.7812 22.3124 28.4062 19.1249 28.3125C15.9374 28.3125 13.9687 25.6875 14.5312 22.6875C15.0937 19.875 17.8124 17.625 20.6249 17.5312C23.6249 17.5312 25.7812 19.7812 25.4999 22.6875Z" fill="#FFEDC0"/>
<path d="M25.1249 22.875C24.8436 25.7813 22.2186 28.2188 19.2186 28.125C16.3124 28.125 14.3436 25.6875 14.9061 22.875C15.3749 20.1563 17.9999 18.0938 20.6249 18.0938C23.3436 18.0938 25.3124 20.1563 25.1249 22.875Z" fill="#FFD766"/>
<path d="M23.9061 22.875C23.6248 25.125 21.5623 26.9063 19.3123 26.9063C17.0623 26.9063 15.5623 25.0312 15.9373 22.875C16.3123 20.8125 18.2811 19.125 20.4373 19.125C22.5936 19.125 24.1873 20.7188 23.9061 22.875Z" fill="#FFEDC0"/>
<path d="M23.9998 22.3125C23.8123 24.4688 21.7498 26.3438 19.4061 26.3438C17.1561 26.3438 15.6561 24.4688 16.0311 22.3125C16.4061 20.25 18.3748 18.5625 20.5311 18.5625C22.6873 18.5625 24.1873 20.25 23.9998 22.3125Z" fill="#F49937"/>
<path d="M23.3439 22.875C23.1564 24.75 21.3752 26.3438 19.5002 26.25C17.6252 26.25 16.3127 24.6562 16.6877 22.875C16.9689 21.0937 18.6564 19.6875 20.4377 19.6875C22.2189 19.6875 23.5314 21.0937 23.3439 22.875Z" fill="#FFD766"/>
<path d="M20.9062 19.3125L21.375 21.375L23.625 21.9375L21.5625 23.3437L21.4687 25.6875L19.5937 24.2812L17.25 25.125L18.2812 22.9687L17.0625 21.1875H19.4062L20.9062 19.3125Z" fill="#F49937"/>
</g>
<defs>
<clipPath id="clip0_1_3539">
<rect width="30" height="30" fill="white"/>
</clipPath>
</defs>
</svg>
