<svg width="30" height="30" viewBox="0 0 30 30" fill="none" xmlns="http://www.w3.org/2000/svg">
<g clip-path="url(#clip0_1_4096)">
<path d="M28.9689 4.96881L28.4064 4.31256C28.1252 3.93756 27.8439 3.56256 27.4689 3.18756C26.6252 2.25006 25.6877 1.50006 24.8439 1.50006L9.37516 1.03131H8.90641L7.78141 0.937563C5.43766 0.843813 3.28141 2.53131 2.90641 4.68756L0.468913 19.1251C0.468913 19.4063 0.375163 19.5938 0.375163 19.8751L0.187663 20.7188C0.187663 21.0001 0.0939128 21.2813 0.187663 21.5626C0.187663 21.9376 0.281413 22.3126 0.375163 22.5938C0.937663 25.2188 3.09391 28.5001 5.15641 28.5001L23.7189 29.1563C26.0627 29.2501 27.4689 27.6563 27.9377 25.5938V25.6876L28.0314 25.0313C28.0314 24.9376 28.0314 24.7501 28.1252 24.6563L28.8752 17.1563L29.7189 9.09381L29.8127 8.62506V7.96881C29.9064 6.75006 29.3439 5.43756 28.9689 4.96881Z" fill="#2E2966"/>
<path d="M25.2185 3.65631L9.09352 3.09381C6.74977 3.00006 4.59352 4.68756 4.21852 6.84381L1.31227 20.2501C0.937273 22.5938 3.37477 27.4688 5.90602 27.5626L23.0623 28.2188C25.5935 28.3126 26.906 26.3438 27.1873 24.0001L28.6873 9.37506C28.8748 7.21881 27.5623 3.75006 25.2185 3.65631Z" fill="#16666E"/>
<path d="M24.3752 3.18753L9.1877 2.62503C6.9377 2.53128 4.8752 4.12503 4.59395 6.18753L2.0627 20.8125C1.6877 23.0625 3.1877 24 5.53145 24.0938L20.9064 25.125C23.2502 25.2188 26.5314 21.8438 26.7189 19.5938L27.9377 7.03128C28.2189 5.06253 26.5314 3.28128 24.3752 3.18753Z" fill="#44BAFF"/>
<path d="M24.1875 2.53128L9.84374 2.06253C7.68749 1.96878 5.62499 3.56253 5.24999 5.53128L2.90624 18.5625C2.53124 20.8125 4.12499 22.7813 6.46874 22.875L21.8437 23.625C24.1875 23.7188 26.3437 21.9375 26.5312 19.6875L28.6875 9.00003C28.9687 6.93753 26.4375 2.53128 24.1875 2.53128Z" fill="#1D9FBF"/>
<path d="M23.0627 3.28125L8.2502 2.71875C6.09395 2.71875 4.1252 4.21875 3.7502 6.1875L1.3127 20.3438C0.937697 22.5 2.4377 24.375 4.78145 24.4688L20.6252 25.2188C22.8752 25.3125 24.9377 23.625 25.1252 21.375L26.5314 7.03125C26.7189 5.0625 25.2189 3.375 23.0627 3.28125Z" fill="#23B4CC"/>
<path d="M23.1564 2.53128L8.34395 1.96878C6.1877 1.87503 4.21895 3.46878 3.84395 5.43753L1.59395 18.75C1.21895 20.9063 2.71895 22.7813 5.0627 22.875L20.9064 23.625C23.1564 23.7188 25.2189 22.0313 25.4064 19.7813L26.7189 6.28128C26.8127 4.31253 25.2189 2.62503 23.1564 2.53128Z" fill="#1D9FBF"/>
<path d="M27.0938 4.59375L28.125 5.625C28.4063 6 28.9688 7.21875 28.7813 8.34375L27.0938 24.9375L25.2188 21.1875L27.0938 4.59375Z" fill="#1A8496"/>
<path d="M12.8436 11.625L5.6249 11.25C5.15615 11.25 4.8749 10.7813 4.96865 10.4063L5.9999 5.25C6.09365 4.875 6.3749 4.6875 6.7499 4.6875L13.6874 4.96875C14.1561 4.96875 14.4374 5.34375 14.3436 5.8125L13.5936 11.0625C13.4999 11.3438 13.2186 11.625 12.8436 11.625Z" fill="white"/>
<path d="M7.78125 7.96875L8.25 5.25L12.1875 8.25L7.3125 10.875L7.78125 7.96875Z" fill="#16666E"/>
<path d="M11.5311 20.7188L3.9374 20.25C3.46865 20.25 3.1874 19.7813 3.28115 19.4063L4.40615 13.5938C4.4999 13.2188 4.78115 13.0312 5.15615 13.0312L12.4686 13.4063C12.9374 13.4063 13.2186 13.7813 13.1249 14.25L12.2811 20.1563C12.1874 20.4375 11.9061 20.7188 11.5311 20.7188Z" fill="#7BFFDC"/>
<path d="M6.28125 16.6875L6.75 13.5938L10.875 16.9688L8.34375 18.375L5.71875 19.7813L6.28125 16.6875Z" fill="#16666E"/>
<path d="M23.1562 12.1876L15.6562 11.8126C15.2812 11.8126 14.9062 11.4376 14.9999 10.9689L15.7499 5.6251C15.8437 5.2501 16.1249 4.96885 16.4999 5.0626L23.7187 5.34385C24.0937 5.34385 24.4687 5.71885 24.3749 6.09385L23.9062 11.4376C23.9062 11.9064 23.5312 12.1876 23.1562 12.1876Z" fill="#83FFBB"/>
<path d="M17.8125 8.53125L18.1875 5.71875L20.25 7.21875L22.4062 8.71875L19.9687 10.0312L17.4375 11.4375L17.8125 8.53125Z" fill="#16666E"/>
<path d="M22.4062 21.3751L14.5312 20.9064C14.1562 20.9064 13.7812 20.5314 13.8749 20.0626L14.7187 14.0626C14.8124 13.6876 15.0937 13.4064 15.4687 13.5001L23.0624 13.9689C23.4374 13.9689 23.7187 14.3439 23.7187 14.7189L23.2499 20.8126C23.0624 21.0939 22.7812 21.3751 22.4062 21.3751Z" fill="#FDFF97"/>
<path d="M16.7812 17.25L17.1562 14.1562L19.3125 15.8437L21.5625 17.5313L18.9375 19.0312L16.4062 20.4375L16.7812 17.25Z" fill="#16666E"/>
</g>
<defs>
<clipPath id="clip0_1_4096">
<rect width="30" height="30" fill="white"/>
</clipPath>
</defs>
</svg>
