<svg width="20" height="20" viewBox="0 0 20 20" fill="none" xmlns="http://www.w3.org/2000/svg">
<path d="M19.6673 19.6798C19.4535 19.8803 19.1729 19.9943 18.8798 19.9998C18.7339 20.0025 18.589 19.9755 18.4539 19.9205C18.3187 19.8655 18.1962 19.7836 18.0936 19.6798L14.5286 16.0686C12.9537 17.3128 11.0045 17.9881 8.99745 17.9848C7.81507 17.9891 6.64357 17.7589 5.55066 17.3077C4.45774 16.8565 3.46507 16.1932 2.63003 15.3561C1.79264 14.522 1.12903 13.5301 0.67759 12.4377C0.226154 11.3454 -0.00413389 10.1744 5.61659e-05 8.99245C5.61659e-05 6.58498 0.933795 4.32375 2.63003 2.63002C3.46497 1.79269 4.45759 1.12915 5.55051 0.677733C6.64343 0.226318 7.81498 -0.00401254 8.99745 5.28926e-05C11.4074 5.28926e-05 13.6686 0.933792 15.3649 2.62877C18.5861 5.84749 18.8798 10.9587 16.0774 14.5449L19.6673 18.1086C19.7723 18.2107 19.8557 18.3329 19.9127 18.4678C19.9697 18.6028 19.999 18.7477 19.999 18.8942C19.999 19.0407 19.9697 19.1857 19.9127 19.3206C19.8557 19.4555 19.7723 19.5777 19.6673 19.6798ZM13.7924 4.20125C13.1646 3.56877 12.4175 3.06719 11.5944 2.72559C10.7713 2.384 9.88861 2.20918 8.99745 2.21128C7.20247 2.21128 5.48249 2.92377 4.20376 4.20125C3.57127 4.82834 3.06957 5.57475 2.72776 6.3972C2.38595 7.21966 2.21082 8.10179 2.21253 8.99245C2.21253 10.7862 2.92502 12.5049 4.20376 13.7836C4.83298 14.4137 5.58023 14.9135 6.40278 15.2545C7.22532 15.5955 8.10702 15.7711 8.99745 15.7711C9.88789 15.7711 10.7696 15.5955 11.5921 15.2545C12.4147 14.9135 13.1619 14.4137 13.7911 13.7836C14.4238 13.1567 14.9256 12.4103 15.2674 11.5878C15.6093 10.7653 15.7843 9.88314 15.7824 8.99245C15.7824 7.17497 15.0699 5.47999 13.7911 4.20125H13.7924Z" fill="#FF9701"/>
</svg>
