<svg width="30" height="30" viewBox="0 0 30 30" fill="none" xmlns="http://www.w3.org/2000/svg">
<g clip-path="url(#clip0_1_6757)">
<path d="M13.5938 8.34375L9.5625 1.96875L0.1875 6.9375L3.84375 11.25L13.5938 8.34375Z" fill="#714113"/>
<path d="M11.9062 6.9375L9.46875 3.375L1.21875 6.75L3.84375 10.875L11.9062 6.9375Z" fill="#BB7C46"/>
<path d="M11.9062 6.9375L12.75 2.71875L29.1563 3.375L27.75 7.96875L11.9062 6.9375Z" fill="#714113"/>
<path d="M12.6562 7.59375L13.5 3.375L27.4687 4.03125L26.0625 8.625L12.6562 7.59375Z" fill="#BB7C46"/>
<path d="M21.0938 30.0937L4.03125 25.2188L3.9375 10.5L21.0938 13.3125V30.0937Z" fill="#714113"/>
<path d="M21.0938 30.0937L27.4687 22.5L27.375 7.96875L21.0938 13.3125V30.0937Z" fill="#714113"/>
<path d="M27.75 7.96875L11.9062 6.9375L3.84375 10.875L21.0938 13.3125L27.75 7.96875Z" fill="#714113"/>
<path d="M21.844 11.156L14.8127 9.74974C13.6877 9.56224 12.9377 8.43724 13.219 7.31224L14.2502 2.34349C14.4377 1.21849 15.5627 0.468491 16.6877 0.749741L23.719 2.15599C24.844 2.34349 25.594 3.46849 25.3127 4.59349L24.3752 9.46849C24.094 10.5935 22.969 11.3435 21.844 11.156Z" fill="#7A0F0F"/>
<path d="M22.969 11.2497L15.9377 9.84349C14.8127 9.65599 14.0627 8.53099 14.344 7.40599L15.3752 2.43724C15.5627 1.31224 16.6877 0.562241 17.8127 0.843491L24.844 2.24974C25.969 2.43724 26.719 3.56224 26.4377 4.68724L25.4065 9.65599C25.219 10.781 24.094 11.531 22.969 11.2497Z" fill="#E22222"/>
<path d="M22.4065 11.3435L15.3752 9.93724C14.2502 9.74974 13.5002 8.62474 13.7815 7.49974L14.8127 2.53099C15.0002 1.40599 16.1252 0.655991 17.2502 0.937241L24.2815 2.34349C25.4065 2.53099 26.1565 3.65599 25.8752 4.78099L24.844 9.74974C24.6565 10.8747 23.5315 11.6247 22.4065 11.3435Z" fill="#E26546"/>
<path d="M18.6562 2.34375L17.3438 8.90625L23.7187 7.03125L18.6562 2.34375Z" fill="#7A0F0F"/>
<path d="M17.9062 15.6567L12 11.5317C11.0625 10.8755 10.7812 9.56298 11.5312 8.62548L14.4375 4.40673C15.0937 3.46923 16.4062 3.18798 17.3437 3.93798L23.25 8.06298C24.1875 8.71923 24.4687 10.0317 23.7187 10.9692L20.8125 15.188C20.1562 16.0317 18.8437 16.313 17.9062 15.6567Z" fill="#0F1D7A"/>
<path d="M18.8437 16.2192L12.9375 12.0942C12 11.438 11.7187 10.1255 12.4687 9.18798L15.375 4.96923C16.0312 4.03173 17.3437 3.75048 18.2812 4.50048L24.1875 8.62548C25.125 9.28173 25.4062 10.5942 24.6562 11.5317L21.75 15.7505C21.0937 16.5942 19.875 16.8755 18.8437 16.2192Z" fill="#2F44E2"/>
<path d="M18.2812 16.0317L12.375 11.9067C11.4375 11.2505 11.1562 9.93798 11.9062 9.00048L14.8125 4.78173C15.4687 3.84423 16.7812 3.56298 17.7187 4.31298L23.625 8.43798C24.5625 9.09423 24.8437 10.4067 24.0937 11.3442L21.1875 15.563C20.5312 16.5005 19.2187 16.688 18.2812 16.0317Z" fill="#4658E2"/>
<path d="M18.4688 6.28125L14.7188 11.7188L21.2813 12.5625L18.4688 6.28125Z" fill="#0F1D7A"/>
<path d="M14.8125 9.65578L6.56252 11.812C5.43752 12.0933 4.31252 11.437 4.03127 10.312L2.53127 4.78078C2.25002 3.65578 3.00002 2.43703 4.03127 2.15578L12.375 -0.000470094C13.5 -0.28172 14.625 0.37453 14.9063 1.49953L16.3125 7.03078C16.5938 8.24953 15.9375 9.37453 14.8125 9.65578Z" fill="#1E579B"/>
<path d="M13.2188 9.84328L6.28127 11.6245C5.15627 11.9058 4.03127 11.2495 3.75002 10.1245L2.43752 5.15578C2.15627 4.03078 2.81252 2.90578 3.93752 2.62453L10.875 0.84328C12 0.56203 13.125 1.21828 13.4063 2.34328L14.7188 7.31203C15 8.43703 14.25 9.56203 13.2188 9.84328Z" fill="#1E579B"/>
<path d="M14.25 9.46828L7.31252 11.2495C6.18752 11.5308 5.06252 10.8745 4.78127 9.74953L3.46877 4.78078C3.18752 3.65578 3.84377 2.53078 4.96877 2.24953L11.9063 0.46828C13.0313 0.18703 14.1563 0.84328 14.4375 1.96828L15.75 6.93703C16.0313 8.06203 15.375 9.18703 14.25 9.46828Z" fill="#A6CAFF"/>
<path d="M13.7813 9.84328L6.84377 11.6245C5.71877 11.9058 4.59377 11.2495 4.31252 10.1245L3.00002 5.15578C2.71877 4.03078 3.37502 2.90578 4.50002 2.62453L11.4375 0.84328C12.5625 0.56203 13.6875 1.21828 13.9688 2.34328L15.2813 7.31203C15.5625 8.34328 14.9063 9.56203 13.7813 9.84328Z" fill="url(#paint0_linear_1_6757)"/>
<path d="M6.46875 3.375L8.15625 9.75L13.125 5.34375L6.46875 3.375Z" fill="#1E579B"/>
<path d="M20.7188 12.375L19.0312 8.90625L0.09375 6.84375L4.125 12.0937L20.7188 12.375Z" fill="#714113"/>
<path d="M20.5312 28.875L5.0625 24.5625V11.625L20.5312 13.875V28.875Z" fill="url(#paint1_linear_1_6757)"/>
<path d="M20.5312 28.875L26.5312 22.4062V9L20.5312 13.875V28.875Z" fill="#BB7C46"/>
<path d="M26.5312 9L12.2813 8.15625L5.0625 11.625L20.5312 13.875L26.5312 9Z" fill="#714113"/>
<path d="M8.8125 14.9999V23.4374C8.8125 23.9062 9.28125 24.1874 9.65625 23.9999L17.25 20.0624C17.625 19.8749 17.7188 19.2187 17.25 19.0312L9.65625 14.5312C9.28125 14.2499 8.8125 14.5312 8.8125 14.9999Z" fill="#99633A"/>
<path d="M9.75 16.3124V22.2187C9.75 22.6874 10.2188 22.9687 10.5938 22.7812L15.8438 20.0624C16.2188 19.8749 16.3125 19.2187 15.8438 19.0312L10.5938 15.8437C10.2188 15.5624 9.75 15.8437 9.75 16.3124Z" fill="#BB7C46"/>
<path d="M19.875 13.2188L22.9687 6.375L29.9062 3.1875L27.5625 7.875L19.875 13.2188Z" fill="#714113"/>
<path d="M20.5312 13.875L18.8438 10.4063L2.34375 8.34375L5.0625 11.625L20.5312 13.875Z" fill="#99633A"/>
<path d="M20.5312 13.875L23.5313 7.03125L28.2188 4.78125L26.5312 9L20.5312 13.875Z" fill="#99633A"/>
<path d="M10.0312 22.875L9.375 23.9062L17.5313 19.9687L16.2187 19.7812L10.0312 22.875Z" fill="#714113"/>
</g>
<defs>
<linearGradient id="paint0_linear_1_6757" x1="2.95408" y1="6.21047" x2="15.3427" y2="6.21047" gradientUnits="userSpaceOnUse">
<stop stop-color="#4280E2"/>
<stop offset="1" stop-color="#4F96FF"/>
</linearGradient>
<linearGradient id="paint1_linear_1_6757" x1="7.10878" y1="26.732" x2="19.6765" y2="12.4392" gradientUnits="userSpaceOnUse">
<stop stop-color="#DDC8AC"/>
<stop offset="1" stop-color="#DDA866"/>
</linearGradient>
<clipPath id="clip0_1_6757">
<rect width="30" height="30" fill="white"/>
</clipPath>
</defs>
</svg>
