<svg width="30" height="30" viewBox="0 0 30 30" fill="none" xmlns="http://www.w3.org/2000/svg">
<g clip-path="url(#clip0_1_16448)">
<path d="M0.75 3.46875L24.6562 1.78125L28.3125 25.6875L2.90625 28.3125L0.75 3.46875Z" fill="white"/>
<path d="M24.1875 2.34375L27.6562 25.2187L3.375 27.6562L1.3125 4.03125L24.1875 2.34375ZM25.125 1.125L24.0938 1.21875L1.3125 2.8125L0.09375 2.90625L0.1875 4.125L2.25 27.9375L2.34375 29.0625L3.5625 28.9687L27.75 26.25L28.9688 26.1562L28.7812 24.9375L25.3125 2.15625L25.125 1.125Z" fill="#95A39B"/>
<path d="M25.5 21.8437L4.59375 24L3.1875 5.34375L22.7812 3.9375L25.5 21.8437Z" fill="#96D0EA"/>
<mask id="mask0_1_16448" style="mask-type:luminance" maskUnits="userSpaceOnUse" x="3" y="3" width="23" height="21">
<path d="M25.5 21.8437L4.59375 24L3.1875 5.34375L22.7812 3.9375L25.5 21.8437Z" fill="white"/>
</mask>
<g mask="url(#mask0_1_16448)">
<path d="M17.9062 19.5938C19.2187 20.0625 20.5312 21.0938 20.9062 22.7812C21.375 24.375 20.7187 26.3438 19.5 27.2813C18.6562 27.9375 17.7187 28.0312 16.6875 28.0312C14.4375 28.0312 12.0937 27.2812 9.8437 26.5312C9.0937 26.25 8.3437 25.9688 7.68745 25.4063C7.0312 24.9375 6.4687 24.1875 6.37495 23.25C6.18745 22.0312 7.0312 20.7188 7.9687 20.0625C9.6562 18.9375 11.4375 18.5625 13.125 18.5625C14.5312 18.5625 16.5 19.125 17.9062 19.5938Z" fill="#B83D68"/>
<path d="M18.1874 17.9063C19.5936 18.4688 20.9061 19.875 21.3749 21.9375C21.8436 24 21.1874 26.5313 19.9686 27.75C19.1249 28.5938 18.0936 28.7813 17.0624 28.7813C14.6249 28.7813 12.1874 27.75 9.74987 26.8125C8.90612 26.4375 8.15612 26.0625 7.40612 25.5C6.65612 24.8438 6.09362 23.9063 5.99987 22.6875C5.81237 21.0938 6.65612 19.4063 7.68737 18.6563C9.46862 17.25 11.3436 16.6875 13.2186 16.6875C14.7186 16.6875 16.5936 17.3438 18.1874 17.9063Z" fill="#B83D68"/>
<path d="M13.4062 21.8437C17.5484 21.8437 20.9062 18.4859 20.9062 14.3438C20.9062 10.2016 17.5484 6.84375 13.4062 6.84375C9.26411 6.84375 5.90625 10.2016 5.90625 14.3438C5.90625 18.4859 9.26411 21.8437 13.4062 21.8437Z" fill="#7F5C4E"/>
<path d="M17.6247 18.5625C18.9372 19.0312 20.0622 20.0625 20.531 21.75C20.906 23.3438 20.3435 25.3125 19.2185 26.25C18.4685 26.9063 17.531 27 16.5935 27C14.4372 27 12.281 26.25 10.1247 25.5C9.37473 25.2188 8.71848 24.9375 8.06223 24.4688C7.40598 24 6.84348 23.1562 6.84348 22.3125C6.65598 21.0938 7.40598 19.7813 8.24973 19.125C9.74973 18 11.531 17.625 13.1247 17.625C14.4372 17.625 16.3122 18.0938 17.6247 18.5625Z" fill="#DB8CB1"/>
<path d="M16.6875 19.4062C17.7187 19.7812 18.5625 20.6249 18.9375 21.8437C19.3125 23.1562 18.8437 24.6562 17.9062 25.4062C17.25 25.8749 16.5937 26.0624 15.8437 26.0624C14.1562 26.0624 12.4687 25.4062 10.7812 24.8437C10.2187 24.6562 9.56247 24.3749 9.18747 23.9999C8.62497 23.6249 8.24997 22.9687 8.15622 22.3124C8.06247 21.2812 8.62497 20.3437 9.37497 19.8749C10.5937 19.0312 11.9062 18.6562 13.125 18.6562C14.25 18.5624 15.6562 19.0312 16.6875 19.4062Z" fill="#E8A7C6"/>
<path d="M17.1562 19.5C17.1562 19.5 15.375 23.25 12 23.625C8.625 24 8.625 18.9375 8.625 18.9375C8.625 18.9375 13.5937 21.75 17.1562 19.5Z" fill="#E8CCAA"/>
<path d="M13.4063 21C17.0824 21 20.0625 18.0199 20.0625 14.3438C20.0625 10.6676 17.0824 7.6875 13.4063 7.6875C9.7301 7.6875 6.75 10.6676 6.75 14.3438C6.75 18.0199 9.7301 21 13.4063 21Z" fill="#A67A65"/>
<path opacity="0.48" d="M19.125 16.2187C19.125 16.2187 16.875 21 12.75 21.5625C8.625 22.125 8.625 15.375 8.625 15.375C8.625 15.375 14.4375 19.125 19.125 16.2187Z" fill="#A67A65"/>
<path d="M13.4062 20.25C16.9788 20.25 19.875 17.3538 19.875 13.7812C19.875 10.2087 16.9788 7.3125 13.4062 7.3125C9.83366 7.3125 6.9375 10.2087 6.9375 13.7812C6.9375 17.3538 9.83366 20.25 13.4062 20.25Z" fill="#E5A98C"/>
<path d="M19.7982 13.6179C19.8107 10.1489 17.0926 7.32676 13.7272 7.31456C10.3617 7.30237 7.62322 10.1047 7.61065 13.5737C7.59808 17.0428 10.3162 19.8649 13.6816 19.8771C17.0471 19.8893 19.7856 17.0869 19.7982 13.6179Z" fill="#E8CCAA"/>
<path d="M16.4279 14.5854C16.4369 12.1001 14.4715 10.0782 12.038 10.0694C9.60447 10.0606 7.62442 12.0682 7.61542 14.5535C7.60642 17.0387 9.57187 19.0606 12.0054 19.0694C14.4389 19.0782 16.4189 17.0707 16.4279 14.5854Z" fill="#FAEACF"/>
<path d="M16.0312 9.46864C16.0312 9.46864 15.375 12.1874 11.3437 12.6561C7.31246 13.1249 5.81246 15.6561 5.81246 15.6561C5.81246 15.6561 5.06246 11.8124 7.49996 10.3124C9.93746 8.81239 13.0312 7.21864 16.0312 9.46864Z" fill="#B29A34"/>
<path d="M12.5624 8.43759C12.5624 8.43759 18.2811 8.90634 18.7499 12.9376C19.2186 16.9688 19.7811 20.6251 23.0624 21.4688C23.0624 21.4688 21.6561 20.0626 22.1249 18.8438C22.6874 17.6251 26.4374 6.46884 18.9374 4.59384C11.4374 2.71884 12.5624 8.43759 12.5624 8.43759Z" fill="#B29A34"/>
<path d="M13.0313 9.09376C13.0313 9.09376 17.0625 10.3125 17.5313 13.9688C18 17.7188 18.4688 20.9063 21.4688 21.6563C21.4688 21.6563 20.1563 20.3438 20.625 19.3125C21.1875 18.1875 24.375 8.06251 17.625 6.28126C10.875 4.50001 13.0313 9.09376 13.0313 9.09376Z" fill="#B29A34"/>
<path d="M12.5625 8.81239C12.5625 8.81239 17.7188 9.93739 18.1875 13.4999C18.6563 17.1561 19.125 20.4374 22.125 21.1874C22.125 21.1874 20.8125 19.9686 21.2813 18.8436C21.8438 17.7186 25.125 7.59364 18.2813 5.81239C11.4375 4.03114 12.5625 8.81239 12.5625 8.81239Z" fill="#E8E26B"/>
<path d="M14.0624 8.24998C14.0624 8.24998 8.34366 6.74998 7.03116 9.37498C5.71866 12 5.24991 12.1875 5.43741 15.6562C5.43741 15.6562 4.12491 12.375 4.21866 10.7812C4.31241 9.28123 5.99991 4.03123 10.0312 3.93748C14.0624 3.84373 15.5624 5.71873 15.3749 6.18748C15.1874 6.65623 14.0624 8.24998 14.0624 8.24998Z" fill="#B29A34"/>
<path d="M14.9999 9.28123C14.9999 9.28123 9.28116 7.78123 7.96866 10.4062C6.65616 13.0312 6.18741 13.2187 6.37491 16.6875C6.37491 16.6875 5.06241 13.4062 5.15616 11.8125C5.34366 10.2187 6.93741 5.06248 10.9687 4.96873C14.9999 4.87498 16.4999 6.74998 16.3124 7.21873C16.1249 7.59373 14.9999 9.28123 14.9999 9.28123Z" fill="#E8E26B"/>
<path d="M15.8436 7.40611C15.8436 7.40611 20.6249 7.12486 21.0936 10.5936C21.5624 14.0624 20.8124 16.4999 20.8124 16.4999C20.8124 16.4999 20.9999 12.8436 20.0624 11.7186C19.1249 10.4999 16.8749 9.65611 16.2186 8.99986C15.2811 8.24986 15.8436 7.40611 15.8436 7.40611Z" fill="#F7F1A9"/>
<path d="M15.9373 8.62495C15.9373 8.62495 15.2811 11.3437 11.2498 11.8124C7.21859 12.2812 5.71859 14.8124 5.71859 14.8124C5.71859 14.8124 4.96859 10.8749 7.49984 9.4687C10.0311 8.06245 12.9373 6.37495 15.9373 8.62495Z" fill="#E8E26B"/>
<path d="M6.84375 11.3437C6.84375 11.3437 7.59375 6.37491 10.7812 6.09366C14.0625 5.71866 15 8.43741 13.7812 9.18741C12.4687 9.93741 7.78125 9.93741 6.84375 11.3437Z" fill="#F7F1A9"/>
<path d="M4.875 13.2188L5.4375 13.5937L6.75 16.4062L6.9375 18C6.9375 18 5.90625 17.3438 4.96875 13.875L4.875 13.2188Z" fill="#B29A34"/>
<path d="M6.65625 13.7812L6.375 13.875L6.09375 15.8437L6.75 16.4062L7.3125 13.6875L6.65625 13.7812Z" fill="#B29A34"/>
<path d="M15.485 14.7994C15.4867 14.3334 15.1523 13.9544 14.738 13.9529C14.3238 13.9514 13.9867 14.328 13.985 14.7939C13.9833 15.2599 14.3177 15.6389 14.7319 15.6404C15.1461 15.6419 15.4833 15.2654 15.485 14.7994Z" fill="#425763"/>
<path d="M14.812 14.7187C14.9156 14.7187 14.9995 14.6348 14.9995 14.5312C14.9995 14.4277 14.9156 14.3438 14.812 14.3438C14.7085 14.3438 14.6245 14.4277 14.6245 14.5312C14.6245 14.6348 14.7085 14.7187 14.812 14.7187Z" fill="white"/>
<path d="M9.943 13.5779C9.94469 13.112 9.61027 12.733 9.19606 12.7315C8.78184 12.73 8.44469 13.1065 8.443 13.5725C8.44131 14.0385 8.77573 14.4175 9.18994 14.419C9.60416 14.4205 9.94131 14.0439 9.943 13.5779Z" fill="#425763"/>
<path d="M9.18701 13.5C9.29056 13.5 9.37451 13.4161 9.37451 13.3125C9.37451 13.2089 9.29056 13.125 9.18701 13.125C9.08346 13.125 8.99951 13.2089 8.99951 13.3125C8.99951 13.4161 9.08346 13.5 9.18701 13.5Z" fill="white"/>
<path d="M13.2183 18.2813C13.2183 18.2813 12.4683 18.1875 11.9995 17.8125C11.437 17.4375 10.9683 17.4375 10.8745 17.4375C10.7808 17.4375 10.5933 17.25 10.4058 17.1562C10.2183 17.0625 10.0308 17.0625 9.93701 17.1562C9.93701 17.25 10.1245 17.625 10.1245 17.625C10.1245 17.625 10.1245 17.9063 10.1245 18.0938C10.1245 18.2812 10.1245 18.8438 10.687 18.9375C11.2495 19.0313 11.6245 19.0313 11.9058 18.8438C12.187 18.6563 13.2183 18.2813 13.2183 18.2813Z" fill="#A67A65"/>
</g>
<path d="M18.75 27.9375L18.4688 28.4062L20.0625 29.4375L28.9687 20.625L27.4687 18.75L18.75 27.9375Z" fill="#9A4C18"/>
<path d="M29.156 23.0625C28.8748 26.625 25.5935 29.5312 21.9373 29.5312C18.3748 29.5312 16.031 26.5313 16.6873 23.0625C17.3435 19.875 20.4373 17.3438 23.6248 17.25C26.906 17.3438 29.4373 19.7813 29.156 23.0625Z" fill="#9A4C18"/>
<path d="M29.9999 24.1875C29.7187 27.5625 26.5312 30.375 22.9687 30.375C19.4999 30.375 17.2499 27.4688 17.9062 24.1875C18.5624 21.0937 21.5624 18.75 24.6562 18.6562C27.9374 18.6562 30.2812 21.0937 29.9999 24.1875Z" fill="#9A4C18"/>
<path d="M19.7812 28.125L21.2813 28.9688L28.5938 21.2813L27.375 19.6875L19.7812 28.125Z" fill="#F49937"/>
<path d="M29.3437 24.1875C29.0624 27.0937 26.4374 29.4375 23.4374 29.4375C20.5312 29.4375 18.6562 27 19.1249 24.1875C19.5937 21.5625 22.1249 19.4062 24.8437 19.4062C27.5624 19.4062 29.6249 21.4687 29.3437 24.1875Z" fill="#F49937"/>
<path d="M28.3122 23.0625C28.0309 26.1562 25.2184 28.6875 22.0309 28.6875C18.9372 28.6875 16.8747 26.0625 17.4372 23.0625C17.9997 20.25 20.7184 18 23.5309 18C26.4372 18 28.5934 20.1562 28.3122 23.0625Z" fill="#FFEDC0"/>
<path d="M27.9374 23.3436C27.6562 26.2499 25.0312 28.5936 22.0312 28.5936C19.1249 28.5936 17.2499 26.1561 17.7187 23.3436C18.1874 20.7186 20.7187 18.5624 23.4374 18.5624C26.2499 18.4686 28.2187 20.5311 27.9374 23.3436Z" fill="#FFD766"/>
<path d="M26.8123 23.3438C26.6248 25.5938 24.5623 27.3751 22.2186 27.3751C19.9686 27.3751 18.4686 25.5001 18.8436 23.3438C19.2186 21.2813 21.1873 19.5938 23.3436 19.5938C25.4998 19.5001 26.9998 21.1876 26.8123 23.3438Z" fill="#FFEDC0"/>
<path d="M26.9061 22.7813C26.7186 24.9375 24.6561 26.8125 22.4061 26.8125C20.1561 26.8125 18.6561 25.0313 19.0311 22.875C19.4061 20.8125 21.3748 19.125 23.4373 19.125C25.4998 19.0313 27.0936 20.625 26.9061 22.7813Z" fill="#F49937"/>
<path d="M26.1559 23.3438C25.9684 25.2188 24.1872 26.7188 22.3122 26.7188C20.4372 26.7188 19.1247 25.125 19.4997 23.3438C19.7809 21.5625 21.4684 20.1563 23.2497 20.1563C25.1247 20.0625 26.3434 21.4688 26.1559 23.3438Z" fill="#FFD766"/>
<path d="M23.8125 19.7812L24.2813 21.75L26.5312 22.3125L24.4688 23.7187L24.2813 26.0625L22.5 24.75L20.1563 25.5937L21.1875 23.3437L19.9688 21.6562L22.3125 21.5625L23.8125 19.7812Z" fill="#F49937"/>
</g>
<defs>
<clipPath id="clip0_1_16448">
<rect width="30" height="30" fill="white"/>
</clipPath>
</defs>
</svg>
