<svg width="30" height="30" viewBox="0 0 30 30" fill="none" xmlns="http://www.w3.org/2000/svg">
<g clip-path="url(#clip0_1_5719)">
<path d="M8.24995 4.125C8.24995 4.125 7.31245 2.15625 5.99995 2.15625C4.68745 2.15625 1.7812 3.9375 2.43745 9.1875C2.43745 9.1875 5.9062 10.4062 7.9687 8.8125C7.9687 8.8125 6.37495 6.09375 8.24995 4.125Z" fill="#827420"/>
<path d="M7.3123 4.125C7.3123 4.125 6.65605 2.53125 5.6248 2.53125C4.59355 2.53125 2.4373 3.9375 2.9998 8.34375C2.9998 8.34375 5.6248 9.375 7.1248 7.96875C7.1248 8.0625 5.90605 5.71875 7.3123 4.125Z" fill="#E3D146"/>
<path d="M13.875 3C13.875 3 16.875 4.3125 18.1875 6.46875C19.5 8.625 22.0312 11.625 26.0625 10.9687C26.0625 10.9687 26.5312 0.28125 14.3437 0.09375C14.3437 0.09375 11.3437 1.96875 13.875 3Z" fill="#998522"/>
<path d="M15.5625 0.187323C15.5625 0.187323 14.25 3.09357 11.9062 3.84357C9.5625 4.59357 5.15625 6.18732 4.5 8.81232C4.5 8.81232 5.71875 -1.40643 15.5625 0.187323Z" fill="#827420"/>
<path d="M6.84375 6.84375C8.34527 6.84375 9.5625 5.58455 9.5625 4.03125C9.5625 2.47795 8.34527 1.21875 6.84375 1.21875C5.34223 1.21875 4.125 2.47795 4.125 4.03125C4.125 5.58455 5.34223 6.84375 6.84375 6.84375Z" fill="#B74F88"/>
<path d="M6.84375 6C7.93106 6 8.8125 5.07659 8.8125 3.9375C8.8125 2.79841 7.93106 1.875 6.84375 1.875C5.75644 1.875 4.875 2.79841 4.875 3.9375C4.875 5.07659 5.75644 6 6.84375 6Z" fill="#ED5A9D"/>
<path d="M20.7188 16.8749C22.5938 17.5311 24.3751 19.2186 24.9376 21.5624C25.5001 23.9999 24.6563 26.9061 22.9688 28.2186C21.8438 29.1561 20.4376 29.3436 19.1251 29.3436C15.9376 29.3436 12.6563 28.2186 9.46881 26.9999C8.43756 26.7186 7.31256 26.2499 6.37506 25.5936C5.43756 24.8436 4.59381 23.7186 4.50006 22.4061C4.31256 20.5311 5.34381 18.6561 6.75006 17.7186C9.09381 16.1249 11.5313 15.4686 14.0626 15.4686C16.1251 15.3749 18.7501 16.2186 20.7188 16.8749Z" fill="#C98C75"/>
<path d="M19.9688 17.1562C21.6563 17.7187 23.25 19.2188 23.8125 21.1875C24.375 23.25 23.625 25.7812 22.0313 27C21 27.75 19.7813 27.9375 18.4688 27.9375C15.5625 27.9375 12.6563 26.9063 9.75002 25.9688C8.81252 25.5938 7.78127 25.3125 6.93752 24.6562C6.09377 24 5.34377 23.0625 5.25002 21.8437C5.06252 20.25 6.00002 18.6563 7.21877 17.8125C9.37502 16.4063 11.5313 15.8438 13.7813 15.8438C15.75 15.8438 18.0938 16.5 19.9688 17.1562Z" fill="#FAEACF"/>
<path d="M17.4374 18C17.4374 18 13.4062 19.6875 10.4062 24.375C10.4062 24.375 9.37492 20.3438 9.93742 17.4375C9.93742 17.3438 14.1562 19.2188 17.4374 18Z" fill="#FAEACF"/>
<path d="M7.125 17.4375C7.125 17.4375 8.71875 21.4688 10.5938 21.75C12.4688 22.125 15.8438 22.7812 20.1562 18.5625L7.125 17.4375Z" fill="#E8CCAA"/>
<path opacity="0.28" d="M22.1101 25.1159C22.797 22.9981 22.1959 20.9059 20.7677 20.4426C19.3394 19.9794 17.6248 21.3207 16.938 23.4384C16.2511 25.5562 16.8522 27.6485 18.2804 28.1117C19.7087 28.5749 21.4233 27.2336 22.1101 25.1159Z" fill="white"/>
<path d="M24.5048 10.635C24.5246 5.14668 20.0916 0.681384 14.6033 0.661497C9.11494 0.64161 4.64965 5.07466 4.62976 10.563C4.60987 16.0513 9.04292 20.5166 14.5312 20.5365C20.0196 20.5564 24.4849 16.1233 24.5048 10.635Z" fill="#A67A65"/>
<path d="M24.0555 9.8693C24.0748 4.5363 19.7672 0.19738 14.4342 0.178056C9.10124 0.158732 4.76232 4.46632 4.743 9.79932C4.72367 15.1323 9.03126 19.4712 14.3643 19.4906C19.6973 19.5099 24.0362 15.2023 24.0555 9.8693Z" fill="#E5A98C"/>
<path d="M23.915 9.65653C23.9335 4.53064 19.9192 0.360681 14.9486 0.34267C9.97804 0.324659 5.93355 4.46542 5.91498 9.59131C5.8964 14.7172 9.91078 18.8872 14.8813 18.9052C19.8519 18.9232 23.8964 14.7824 23.915 9.65653Z" fill="#E8CCAA"/>
<path d="M19.0303 10.8781C19.0438 7.1502 16.1166 4.11748 12.4923 4.10435C8.86791 4.09121 5.91883 7.10264 5.90532 10.8306C5.89181 14.5585 8.81899 17.5912 12.4434 17.6043C16.0677 17.6175 19.0168 14.606 19.0303 10.8781Z" fill="#FAEACF"/>
<path d="M15.6302 11.5644C15.6323 10.9949 15.2142 10.5316 14.6964 10.5298C14.1787 10.5279 13.7573 10.9881 13.7552 11.5576C13.7531 12.1272 14.1712 12.5904 14.689 12.5923C15.2067 12.5941 15.6281 12.134 15.6302 11.5644Z" fill="#425763"/>
<path d="M15.0166 11.2343C15.0172 11.0789 14.9337 10.9527 14.8302 10.9523C14.7266 10.952 14.6422 11.0776 14.6416 11.2329C14.6411 11.3882 14.7246 11.5145 14.8281 11.5148C14.9317 11.5152 15.0161 11.3896 15.0166 11.2343Z" fill="white"/>
<path d="M8.46858 10.08C8.47064 9.51049 8.05258 9.04727 7.53482 9.04539C7.01705 9.04351 6.59564 9.5037 6.59358 10.0732C6.59152 10.6428 7.00958 11.106 7.52734 11.1079C8.04511 11.1098 8.46652 10.6496 8.46858 10.08Z" fill="#425763"/>
<path d="M7.85551 9.65614C7.85607 9.50081 7.77258 9.37459 7.66903 9.37421C7.56548 9.37384 7.48107 9.49946 7.48051 9.65479C7.47995 9.81012 7.56344 9.93634 7.66699 9.93671C7.77055 9.93709 7.85495 9.81147 7.85551 9.65614Z" fill="white"/>
<path d="M21 11.3435C21 11.3435 21.8438 10.6873 22.5 10.9685C23.1563 11.2498 23.0625 13.3123 21.375 13.4998L21 11.3435Z" fill="#FAEACF"/>
<path d="M12.6562 16.125C12.6562 16.125 11.7187 16.0312 11.0625 15.4687C10.4062 15 9.75 15 9.65625 15.0938C9.5625 15.0938 9.375 14.9062 9.09375 14.8125C8.90625 14.7188 8.625 14.7188 8.53125 14.8125C8.53125 14.9062 8.8125 15.375 8.8125 15.375C8.8125 15.375 8.90625 15.75 8.8125 16.0313C8.71875 16.2188 8.8125 16.875 9.46875 17.0625C10.125 17.25 10.6875 17.1563 10.9687 16.9688C11.4375 16.875 12.6562 16.125 12.6562 16.125Z" fill="#B74F88"/>
<path d="M13.2187 3.0003C13.2187 3.0003 15.9375 4.3128 17.1562 6.46905C18.375 8.6253 20.7187 11.6253 24.4687 10.9691C24.4687 10.9691 24.9375 0.281552 13.5937 0.0940525C13.6875 0.000302464 10.875 1.96905 13.2187 3.0003Z" fill="#E3D146"/>
<path d="M14.7187 0.187682C14.7187 0.187682 13.5 3.37518 11.3438 4.12518C9.1875 4.87518 5.25 6.56268 4.59375 9.18768C4.59375 9.18768 5.71875 -1.31232 14.7187 0.187682Z" fill="#E3D146"/>
<path d="M11.7188 2.15625C11.7188 2.15625 13.875 9.46875 22.5 10.9688L24.2812 10.875L19.125 2.625C19.0312 2.625 14.7188 0.187501 11.7188 2.15625Z" fill="#E3D146"/>
<path d="M20.0625 8.0625C20.0625 8.0625 21.1875 5.625 22.875 5.625C24.4688 5.625 27.4688 7.40625 27.375 12.75C27.375 13.7812 26.625 14.625 25.5937 14.8125C24.0937 15.0938 21.9375 15.0937 20.3438 13.9687C20.3438 13.9687 22.4062 10.5 20.0625 8.0625Z" fill="#827420"/>
<path d="M13.125 1.96875C13.125 1.96875 14.7188 9.1875 23.5312 10.2187C23.5312 10.2187 23.5312 1.5 14.7187 0.75C14.7187 0.84375 13.125 1.40625 13.125 1.96875Z" fill="#FFEF92"/>
<path d="M6.75 4.87483C6.75 4.87483 8.625 1.03108 12 0.843585C15.375 0.656085 15.8438 0.656085 15.9375 1.21858C15.9375 1.78108 16.4062 2.24983 14.3438 2.15608C12.1875 2.15608 8.25 3.09358 6.75 4.87483Z" fill="#FFEF92"/>
<path d="M22.4062 10.5C23.9078 10.5 25.125 9.2408 25.125 7.6875C25.125 6.1342 23.9078 4.875 22.4062 4.875C20.9047 4.875 19.6875 6.1342 19.6875 7.6875C19.6875 9.2408 20.9047 10.5 22.4062 10.5Z" fill="#ED5A9D"/>
<path d="M21.1875 8.0625C21.1875 8.0625 22.0312 6 23.3437 6C24.4687 6 26.7187 7.40625 26.7187 11.625C26.7187 12.75 25.875 13.5937 24.8437 13.7812C23.8125 13.875 22.5 13.7812 21.4687 12.9375C21.4687 12.9375 22.9688 10.0312 21.1875 8.0625Z" fill="#E3D146"/>
<path d="M22.3125 8.34375C22.3125 8.34375 22.875 7.03125 23.7188 7.03125C24.5625 7.03125 26.25 8.15625 25.7813 11.7188C25.7813 11.7188 23.7188 12.4688 22.5 11.4375C22.5 11.4375 23.4375 9.65625 22.3125 8.34375Z" fill="#FFEF92"/>
<path d="M4.68766 20.25C4.68766 20.25 5.81266 23.4375 12.3752 24.9375C18.9377 26.4375 21.9377 26.8125 23.3439 25.7812C24.7502 24.75 25.2189 24.5625 25.2189 24.5625C25.2189 24.5625 24.9377 29.9062 19.2189 29.3437C13.5002 28.7812 6.18766 25.875 6.18766 25.875C6.18766 25.875 3.00016 23.8125 4.68766 20.25Z" fill="#5CD9EA"/>
<path d="M18.4688 26.1563L16.0312 29.0625C16.0312 29.0625 18.5625 29.8125 20.7188 29.5313C22.7812 29.25 24.8437 28.0313 25.2187 24.6562C25.125 24.6562 23.3438 27.4688 18.4688 26.1563Z" fill="#188689"/>
<path d="M12.4688 4.125C12.4688 4.125 15.9375 9.65625 21.2813 10.6875L21.375 11.9062C21.375 11.8125 16.2188 10.5 12.4688 4.125Z" fill="#827420"/>
<path d="M5.15632 21C5.15632 21 4.21882 23.625 6.56257 24.8437C8.90632 26.0625 18.2813 28.6875 18.2813 28.6875L17.1563 29.3437L6.28132 26.25C6.28132 26.25 3.00007 25.2188 4.50007 20.25L5.15632 21Z" fill="#188689"/>
<path d="M13.9688 1.40625C13.9688 1.40625 17.4375 1.40625 19.875 3.5625L20.4375 4.21875L19.0312 6.5625C18.9375 6.65625 14.625 2.34375 13.9688 1.40625Z" fill="#FFF6CA"/>
<path d="M15.75 27.2812L15.375 27.75L17.0625 28.9688L27.0938 19.0312L25.5 16.875L15.75 27.2812Z" fill="#9A4C18"/>
<path d="M27.3749 21.8438C26.9999 25.7813 23.3437 29.1563 19.3124 29.1563C15.2812 29.1563 12.6562 25.7813 13.4062 21.9376C14.1562 18.2813 17.6249 15.4688 21.1874 15.4688C24.8437 15.2813 27.6562 18.0938 27.3749 21.8438Z" fill="#9A4C18"/>
<path d="M28.3122 23.0625C28.0309 26.8125 24.3747 30.0938 20.4372 30C16.4997 30 13.9684 26.8125 14.7184 23.0625C15.4684 19.5938 18.8434 16.875 22.3122 16.875C25.9684 16.875 28.6872 19.5 28.3122 23.0625Z" fill="#9A4C18"/>
<path d="M16.7812 27.4687L18.5625 28.4062L26.7188 19.7812L25.4062 18L16.7812 27.4687Z" fill="#F49937"/>
<path d="M27.5625 23.0625C27.2812 26.25 24.2812 28.9688 20.9062 28.9688C17.625 28.9688 15.4687 26.25 16.125 23.0625C16.6875 20.0625 19.5937 17.7188 22.5937 17.625C25.5937 17.7188 27.8437 20.0625 27.5625 23.0625Z" fill="#F49937"/>
<path d="M26.4373 21.7502C26.156 25.2189 22.9685 28.1252 19.3123 28.1252C15.7498 28.1252 13.4998 25.2189 14.156 21.8439C14.8123 18.6564 17.8123 16.1252 20.9998 16.1252C24.3748 16.0314 26.8123 18.4689 26.4373 21.7502Z" fill="#FFEDC0"/>
<path d="M26.0625 22.0312C25.7812 25.2187 22.7812 27.9375 19.4062 27.9375C16.125 27.9375 13.9687 25.2187 14.625 22.0312C15.1875 19.0312 18.0937 16.6875 21.0937 16.5938C24.0937 16.5938 26.3437 18.9375 26.0625 22.0312Z" fill="#FFD766"/>
<path d="M24.7501 22.0312C24.4688 24.5625 22.2188 26.625 19.5938 26.625C17.0626 26.625 15.3751 24.5625 15.8438 22.125C16.2188 19.7812 18.4688 17.9062 20.8126 17.9062C23.2501 17.8125 24.9376 19.6875 24.7501 22.0312Z" fill="#FFEDC0"/>
<path d="M24.7501 21.375C24.4688 23.8125 22.2188 25.875 19.6876 25.875C17.1563 25.875 15.4688 23.8125 15.9376 21.375C16.3126 19.0312 18.5626 17.25 20.9063 17.1562C23.3438 17.25 25.0313 19.0312 24.7501 21.375Z" fill="#F49937"/>
<path d="M23.9999 22.0312C23.8124 24.0937 21.8437 25.875 19.6874 25.875C17.5312 25.875 16.1249 24.0937 16.4999 22.0312C16.8749 20.0625 18.7499 18.4688 20.7187 18.4688C22.7812 18.4688 24.2812 20.0625 23.9999 22.0312Z" fill="#FFD766"/>
<path d="M21.375 18.0938L21.9375 20.3438L24.375 21L22.125 22.5L21.9375 25.125L19.875 23.625L17.25 24.5625L18.375 22.125L17.0625 20.1563L19.6875 20.0625L21.375 18.0938Z" fill="#F49937"/>
</g>
<defs>
<clipPath id="clip0_1_5719">
<rect width="30" height="30" fill="white"/>
</clipPath>
</defs>
</svg>
