<svg width="30" height="30" viewBox="0 0 30 30" fill="none" xmlns="http://www.w3.org/2000/svg">
<g clip-path="url(#clip0_1_11730)">
<path d="M1.21874 18.375C1.21874 18.375 1.40624 10.875 6.09374 6.84375C10.7812 2.8125 15 2.8125 19.875 6.84375C24.75 10.875 26.4375 15.1875 24.6562 19.125C22.875 23.1562 18.9375 30.9375 6.28124 27.0937C6.28124 27.0937 0.65624 23.1562 1.21874 18.375Z" fill="#50544E"/>
<path d="M2.25013 15C2.25013 15 -4.31237 24.1875 6.09388 25.6875C16.5001 27.1875 2.25013 15 2.25013 15Z" fill="#50544E"/>
<path d="M3.00013 14.625C3.00013 14.625 -3.56237 23.8125 6.84388 25.3125C17.2501 26.8125 3.00013 14.625 3.00013 14.625Z" fill="#CECECE"/>
<path d="M22.6875 17.1562C22.6875 17.1562 22.5937 19.5938 23.9062 20.9062C25.2187 22.125 26.5312 23.8125 26.5312 23.8125L23.1562 24.5625L24.75 26.1562C24.75 26.1562 20.5312 27.1875 17.625 27.4688C14.7187 27.75 13.5937 26.8125 13.5937 26.8125C13.5937 26.8125 24.8437 25.5938 22.6875 17.1562ZM9 5.625C9 5.625 6.5625 4.78125 5.25 3.375C3.9375 1.96875 1.21875 2.90625 0.374996 6.1875C-0.468754 9.46875 1.96875 18.4688 6 13.7812C10.0312 9.09375 9 5.625 9 5.625Z" fill="#50544E"/>
<path d="M13.5938 5.90624C13.5938 5.90624 16.6876 5.81249 19.5001 4.12499C22.3126 2.43749 28.0313 3.56249 29.7188 7.78124C31.4063 12 26.4376 23.4375 17.9063 17.4375C9.3751 11.4375 13.5938 5.90624 13.5938 5.90624Z" fill="#50544E"/>
<path d="M14.8126 6.84378C14.8126 6.84378 17.4376 6.75003 19.8751 5.34378C22.3126 3.93753 27.1876 4.87503 28.5938 8.34378C30.0001 11.7188 25.7813 21.2813 18.5626 16.3125C11.3438 11.3438 14.8126 6.84378 14.8126 6.84378Z" fill="#E8E8E8"/>
<path d="M16.3126 7.68747C16.3126 7.68747 18.4689 7.59372 20.3439 6.37497C22.2189 5.15622 26.1564 5.99997 27.3751 8.90622C28.5001 11.9062 25.1251 20.0625 19.2189 15.75C13.3126 11.4375 16.3126 7.68747 16.3126 7.68747Z" fill="#CECECE"/>
<path d="M14.2501 7.96872C14.2501 7.96872 16.4064 7.87497 18.2814 6.65622C20.1564 5.43747 24.0939 6.28122 25.3126 9.18747C26.4376 12.1875 23.0626 20.3437 17.1564 16.0312C11.2501 11.7187 14.2501 7.96872 14.2501 7.96872Z" fill="#D1A599"/>
<path d="M8.62476 6.56246C8.62476 6.56246 6.84351 5.99996 5.71851 4.87496C4.59351 3.74996 2.43726 4.49996 1.78101 7.31246C1.12476 10.125 3.09351 18.0937 6.37476 13.875C9.65601 9.65621 8.62476 6.56246 8.62476 6.56246Z" fill="#E8E8E8"/>
<path d="M8.90601 7.40621C8.90601 7.40621 7.68726 7.31246 6.56226 6.18746C5.43726 5.06246 3.28101 5.81246 2.62476 8.62496C1.96851 11.4375 3.93726 19.4062 7.21851 15.1875C10.4998 10.9687 8.90601 7.40621 8.90601 7.40621Z" fill="#D1A599"/>
<path d="M5.06238 12.9375C5.06238 12.9375 3.28113 15.9375 2.81238 17.5313C2.34363 19.125 3.65613 24.0938 7.12488 24.8438C10.5936 25.6875 5.06238 12.9375 5.06238 12.9375Z" fill="#E8E8E8"/>
<path d="M2.43754 18.6562C2.43754 18.6562 1.78129 11.4375 5.81254 7.87497C9.84379 4.31247 13.4063 2.99997 17.625 6.56247C21.8438 10.125 24.5625 15.4687 23.0625 19.0312C21.5625 22.5937 18.1875 29.7187 7.21879 26.3437C7.21879 26.3437 1.96879 22.875 2.43754 18.6562Z" fill="#CECECE"/>
<path d="M2.53105 18.0937C2.53105 18.0937 3.09355 11.8125 6.7498 8.71872C10.406 5.62497 12.5623 4.59372 16.2185 7.78122C19.8748 10.9687 22.2185 15.375 20.906 18.5625C19.5935 21.75 16.5935 28.0312 6.7498 24.9375C6.7498 24.9375 2.15605 21.8437 2.53105 18.0937Z" fill="#E8E8E8"/>
<path d="M15.9375 12C15.9375 12 15.2813 11.1562 13.875 11.7187C12.4688 12.2812 9.65628 17.625 12.1875 18.2812C14.7188 18.9375 17.4375 14.25 15.9375 12Z" fill="white"/>
<path d="M15.1874 13.0312C15.1874 13.0312 14.8124 12.375 13.7811 12.8437C12.7499 13.3125 10.9686 17.0625 12.6561 17.5312C14.3436 18 16.2186 14.625 15.1874 13.0312Z" fill="#F6F6F6"/>
<path d="M4.6873 20.5312C4.6873 20.5312 3.9373 25.4063 8.90605 25.9688C11.2498 26.25 14.4373 19.7812 14.4373 19.7812C14.4373 19.7812 7.40605 22.5 4.6873 20.5312Z" fill="#913A40"/>
<path d="M5.9998 22.7813C5.9998 23.0625 6.28105 23.3438 6.5623 23.4375L8.15605 24.1875C8.6248 24.375 9.09355 24.2813 9.3748 23.9063L9.46855 23.8125C9.84355 23.3438 9.65605 22.5938 9.09355 22.3125C8.53105 22.0313 7.78105 21.75 7.1248 21.5625C6.46855 21.375 5.8123 22.0313 5.9998 22.7813Z" fill="#230506"/>
<path d="M5.34389 22.0312C5.43764 22.3125 5.62514 22.5937 5.90639 22.7812L7.50014 23.5312C7.96889 23.7187 8.43764 23.625 8.71889 23.25L8.81264 23.1562C9.18764 22.6875 9.00014 21.9375 8.43764 21.6562C7.87514 21.375 7.12514 21.0937 6.46889 20.9062C5.81264 20.7187 5.15639 21.2812 5.34389 22.0312ZM8.53139 11.625C8.53139 11.625 7.96889 10.875 6.75014 11.4375C5.53139 12 3.09389 16.3125 5.34389 16.875C7.59389 17.3437 9.84389 13.4062 8.53139 11.625Z" fill="white"/>
<path d="M7.87486 12.375C7.87486 12.375 7.49986 11.9063 6.65611 12.1875C5.81236 12.5625 4.21861 15.5625 5.71861 15.9375C7.21861 16.4063 8.71861 13.6875 7.87486 12.375Z" fill="#F6F6F6"/>
<path d="M11.4375 12.75C11.4375 12.75 13.125 10.5937 14.8125 10.3125C16.5 10.0312 18.6562 11.625 19.0312 13.125C19.0312 13.125 18.4687 12.9375 17.625 12.1875C16.7812 11.4375 13.5 10.5 11.4375 12.75ZM5.8125 11.25C5.8125 11.25 6.75 9.65622 7.78125 9.46872C8.8125 9.28122 10.0312 10.4062 10.2188 11.5312C10.2188 11.5312 9.9375 11.4375 9.375 10.875C8.90625 10.2187 7.03125 9.56247 5.8125 11.25Z" fill="#131313"/>
<path d="M22.9688 11.5312C22.9688 11.5312 24.9376 16.0312 23.8126 20.5312L22.2188 20.7188C22.3126 20.7188 23.9063 17.1562 22.9688 11.5312ZM11.0626 17.625C11.0626 17.625 6.09382 15.8438 3.65632 17.5313C1.21882 19.2188 2.34382 22.125 3.75007 22.2188C5.25007 22.3125 7.03132 21.375 7.03132 21.375C7.03132 21.375 8.15632 24.375 12.2813 24.1875C14.1563 24.0937 14.9063 19.5937 14.9063 19.5937C14.9063 19.5937 12.1876 17.8125 11.0626 17.625Z" fill="#50544E"/>
<path d="M12.0001 17.9063C12.0001 17.9063 6.5626 16.0313 4.03135 17.4375C1.5001 18.8438 3.09385 21.75 4.59385 21.8438C6.09385 21.9375 7.03135 21.4688 7.03135 21.4688C7.03135 21.4688 10.1251 23.8125 12.0001 23.5313C13.8751 23.25 14.9063 19.4063 14.9063 19.4063C14.9063 19.4063 13.1251 18 12.0001 17.9063Z" fill="#CECECE"/>
<path d="M9.84353 17.25C9.84353 17.25 7.21853 16.125 5.99978 16.5C4.78103 16.875 5.53103 18.8437 6.37478 19.125C7.21853 19.4062 11.2498 18.5625 9.84353 17.25Z" fill="#230506"/>
<path d="M6.84375 16.4062C7.51685 16.4062 8.0625 15.7347 8.0625 14.9062C8.0625 14.0778 7.51685 13.4062 6.84375 13.4062C6.17065 13.4062 5.625 14.0778 5.625 14.9062C5.625 15.7347 6.17065 16.4062 6.84375 16.4062Z" fill="#230506"/>
<path d="M14.0625 17.9063C14.8909 17.9063 15.5625 17.1507 15.5625 16.2187C15.5625 15.2868 14.8909 14.5312 14.0625 14.5312C13.2341 14.5312 12.5625 15.2868 12.5625 16.2187C12.5625 17.1507 13.2341 17.9063 14.0625 17.9063Z" fill="#230506"/>
<path d="M14.5312 16.5938C14.8937 16.5938 15.1875 16.2999 15.1875 15.9375C15.1875 15.5751 14.8937 15.2812 14.5312 15.2812C14.1688 15.2812 13.875 15.5751 13.875 15.9375C13.875 16.2999 14.1688 16.5938 14.5312 16.5938Z" fill="#E8E8E8"/>
<path d="M7.21875 15.0938C7.47763 15.0938 7.6875 14.8839 7.6875 14.625C7.6875 14.3661 7.47763 14.1562 7.21875 14.1562C6.95987 14.1562 6.75 14.3661 6.75 14.625C6.75 14.8839 6.95987 15.0938 7.21875 15.0938Z" fill="#E8E8E8"/>
<path d="M2.8125 19.5938C2.8125 19.5938 4.21875 22.0312 6.84375 20.9062C6.84375 20.9062 9.375 23.0625 10.6875 22.6875C12 22.3125 14.1562 21 14.1562 21C14.1562 21 13.125 23.8125 11.25 23.625C9.375 23.4375 6.84375 21.6563 6.84375 21.6563C6.84375 21.6563 3.09375 23.1562 2.8125 19.5938Z" fill="#B2B2B2"/>
<path d="M21.2813 17.4375C21.2813 17.4375 21.1875 19.7812 22.5 21L25.5 23.5312L22.0312 24L23.5312 25.6875C23.5312 25.6875 20.9062 26.5312 17.9063 26.8125C14.9063 27.0938 12.1875 27 12.1875 27C12.1875 27 23.4375 25.7812 21.2813 17.4375Z" fill="#CECECE"/>
<path d="M23.5312 23.8125L18.8438 22.5938L23.1563 25.3125L22.7812 24.4687L23.5312 23.8125Z" fill="#50544E"/>
<path d="M10.2188 17.3438C10.2188 17.3438 11.1563 18.9375 10.4063 19.3125C9.6563 19.7813 10.2188 20.9063 12.5626 20.625C14.9063 20.3438 15.4688 19.4063 15.4688 19.4063C15.4688 19.4063 11.5313 17.0625 10.2188 17.3438ZM5.1563 17.25C5.1563 17.25 4.9688 18.6562 5.62505 19.125C6.2813 19.5938 1.21881 18.9375 5.1563 17.25ZM16.9688 23.25L20.1563 25.0313L14.9063 24.8438L16.9688 23.25Z" fill="#E8E8E8"/>
<path d="M13.4062 27.1875L15.9375 25.3125C15.9375 25.3125 17.625 26.5312 19.6875 26.5312L13.4062 27.1875Z" fill="#B2B2B2"/>
</g>
<defs>
<clipPath id="clip0_1_11730">
<rect width="30" height="30" fill="white"/>
</clipPath>
</defs>
</svg>
