<svg width="30" height="30" viewBox="0 0 30 30" fill="none" xmlns="http://www.w3.org/2000/svg">
<g clip-path="url(#clip0_1_5844)">
<path d="M7.59369 4.37793C7.59369 4.37793 6.65619 2.50293 5.33431 2.50293C4.01244 2.50293 1.19056 4.20918 1.87494 9.42168C1.87494 9.42168 5.30619 10.5748 7.31244 9.00918C7.34056 9.00918 5.71869 6.29043 7.59369 4.37793Z" fill="#827420"/>
<path d="M6.70301 4.3502C6.70301 4.3502 6.01864 2.74707 5.00614 2.74707C3.99364 2.74707 1.87489 4.20019 2.42801 8.57832C2.42801 8.57832 5.00614 9.51582 6.50614 8.24082C6.50614 8.24082 5.29676 5.95332 6.70301 4.3502Z" fill="#E3D146"/>
<path d="M13.1249 3.27187C14.7961 4.03984 16.2564 5.20105 17.3811 6.65625C18.6936 8.70937 21.178 11.7938 25.1624 11.0719C25.1624 11.0719 25.6218 0.553125 13.5843 0.375C13.5843 0.375 10.6405 2.30625 13.1249 3.27187Z" fill="#998522"/>
<path d="M14.8221 0.478156C14.8221 0.478156 13.5002 3.37503 11.2502 4.04066C9.00021 4.70628 4.68771 6.45941 3.99396 9.05628C3.94709 9.05628 5.13771 -1.03122 14.8221 0.478156Z" fill="#827420"/>
<path d="M6.24365 7.05928C7.74518 7.05928 8.9624 5.81687 8.9624 4.28428C8.9624 2.75169 7.74518 1.50928 6.24365 1.50928C4.74213 1.50928 3.5249 2.75169 3.5249 4.28428C3.5249 5.81687 4.74213 7.05928 6.24365 7.05928Z" fill="#B74F88"/>
<path d="M6.24395 6.23447C7.3209 6.23447 8.19395 5.34044 8.19395 4.2376C8.19395 3.13475 7.3209 2.24072 6.24395 2.24072C5.16699 2.24072 4.29395 3.13475 4.29395 4.2376C4.29395 5.34044 5.16699 6.23447 6.24395 6.23447Z" fill="#ED5A9D"/>
<path d="M19.9405 17.0158C20.9618 17.3835 21.8773 17.9964 22.6063 18.8006C23.3354 19.6049 23.8558 20.5759 24.1217 21.6283C24.4146 22.795 24.39 24.0188 24.0504 25.1728C23.7108 26.3267 23.0686 27.3688 22.1905 28.1908C21.0715 28.9842 19.7163 29.3743 18.3467 29.2971C15.1592 29.2971 11.9998 28.1721 8.81234 27.0189C7.71526 26.6901 6.6796 26.1834 5.74672 25.5189C5.23878 25.1424 4.81124 24.6681 4.48925 24.1239C4.16725 23.5797 3.95729 22.9767 3.87172 22.3502C3.81683 21.4681 3.99082 20.5869 4.37683 19.7918C4.76284 18.9968 5.34775 18.3151 6.07484 17.8127C8.17244 16.3273 10.686 15.543 13.2561 15.5721C15.5451 15.7076 17.7996 16.1945 19.9405 17.0158Z" fill="#C98C75"/>
<path d="M19.1343 17.231C20.0381 17.5424 20.8522 18.0698 21.5058 18.7675C22.1593 19.4652 22.6325 20.3119 22.8843 21.2341C23.1481 22.2578 23.124 23.3344 22.8147 24.3452C22.5053 25.356 21.9227 26.2616 21.1312 26.9623C20.1085 27.6456 18.8901 27.9749 17.6624 27.8998C14.7749 27.8998 11.9156 26.9623 9.02805 25.9216C8.02778 25.6381 7.07858 25.1983 6.21555 24.6185C5.76285 24.2967 5.37996 23.8866 5.08994 23.413C4.79993 22.9393 4.6088 22.4118 4.52805 21.8623C4.47757 21.0766 4.63989 20.2918 4.99791 19.5906C5.35593 18.8894 5.89641 18.2977 6.56243 17.8779C8.49957 16.5742 10.7903 15.8968 13.1249 15.9373C15.1811 16.0681 17.2064 16.5042 19.1343 17.231Z" fill="#FAEACF"/>
<path d="M16.678 18.0844C13.8094 19.4644 11.4051 21.6504 9.75922 24.375C9.75922 24.375 8.70921 20.3813 9.31859 17.4844C9.31859 17.475 13.3967 19.2938 16.678 18.0844Z" fill="#FAEACF"/>
<path d="M6.5625 17.5029C6.5625 17.5029 8.12813 21.4404 10.0031 21.8061C11.8781 22.1717 15.2063 22.8279 19.4531 18.6842L6.5625 17.5029Z" fill="#E8CCAA"/>
<path opacity="0.28" d="M21.3582 25.1726C22.0323 23.0942 21.4209 21.0338 19.9926 20.5706C18.5643 20.1073 16.86 21.4167 16.1859 23.495C15.5118 25.5734 16.1232 27.6338 17.5515 28.0971C18.9797 28.5603 20.6841 27.251 21.3582 25.1726Z" fill="white"/>
<path d="M23.6756 10.7914C23.6956 5.34967 19.3046 0.922152 13.8681 0.902226C8.43154 0.8823 4.00821 5.27751 3.98826 10.7192C3.96832 16.1609 8.35932 20.5884 13.7958 20.6083C19.2323 20.6283 23.6557 16.2331 23.6756 10.7914Z" fill="#A67A65"/>
<path d="M23.2252 10.0842C23.2446 4.8082 18.9916 0.515508 13.7259 0.496208C8.46027 0.476908 4.17593 4.73831 4.1566 10.0143C4.13726 15.2903 8.39024 19.583 13.6559 19.6023C18.9215 19.6216 23.2059 15.3602 23.2252 10.0842Z" fill="#E5A98C"/>
<path d="M23.1054 9.81833C23.1239 4.75461 19.1599 0.635062 14.2515 0.617071C9.34313 0.599081 5.34904 4.68946 5.33048 9.75319C5.31192 14.8169 9.27592 18.9365 14.1843 18.9544C19.0927 18.9724 23.0868 14.8821 23.1054 9.81833Z" fill="#E8CCAA"/>
<path d="M18.2399 11.0707C18.2535 7.37902 15.3641 4.37572 11.7864 4.3626C8.20861 4.34949 5.29731 7.33154 5.28378 11.0232C5.27025 14.7148 8.15961 17.7181 11.7374 17.7313C15.3151 17.7444 18.2264 14.7623 18.2399 11.0707Z" fill="#FAEACF"/>
<path d="M14.8356 11.7842C14.8377 11.2095 14.4449 10.7421 13.9582 10.7404C13.4715 10.7386 13.0753 11.203 13.0732 11.7777C13.071 12.3525 13.4639 12.8198 13.9506 12.8216C14.4373 12.8234 14.8335 12.3589 14.8356 11.7842Z" fill="#425763"/>
<path d="M14.3108 11.4144C14.3114 11.2695 14.211 11.1516 14.0868 11.1511C13.9625 11.1507 13.8614 11.2678 13.8608 11.4128C13.8603 11.5578 13.9606 11.6757 14.0849 11.6761C14.2091 11.6766 14.3103 11.5594 14.3108 11.4144Z" fill="white"/>
<path d="M7.78779 10.2315C7.78989 9.65675 7.39705 9.1894 6.91036 9.18762C6.42366 9.18584 6.0274 9.65029 6.0253 10.225C6.02319 10.7997 6.41603 11.2671 6.90273 11.2689C7.38943 11.2706 7.78568 10.8062 7.78779 10.2315Z" fill="#425763"/>
<path d="M7.27274 9.8622C7.27327 9.71722 7.17296 9.59933 7.0487 9.59887C6.92444 9.59842 6.82327 9.71557 6.82274 9.86055C6.82221 10.0055 6.92251 10.1234 7.04678 10.1239C7.17104 10.1243 7.27221 10.0072 7.27274 9.8622Z" fill="white"/>
<path d="M20.1655 11.5217C20.1655 11.5217 20.9624 10.903 21.6093 11.1467C22.2562 11.3905 22.1624 13.4436 20.5124 13.6686L20.1655 11.5217Z" fill="#FAEACF"/>
<path d="M12.0001 16.2374C11.4466 16.1532 10.9202 15.9413 10.4626 15.6186C10.0773 15.3091 9.58541 15.1642 9.09387 15.2155C8.97199 15.2155 8.77512 15.028 8.57824 14.9249C8.38137 14.8217 8.06262 14.803 8.04387 14.9249C8.02512 15.0467 8.30637 15.5249 8.30637 15.5249C8.33167 15.7303 8.33167 15.9381 8.30637 16.1436C8.28311 16.2551 8.28216 16.37 8.30355 16.4818C8.32494 16.5937 8.36827 16.7001 8.43102 16.7951C8.49377 16.8901 8.57471 16.9718 8.66916 17.0353C8.76362 17.0989 8.86973 17.1431 8.98137 17.1655C9.46637 17.3136 9.98834 17.2837 10.4532 17.0811C10.7626 16.9499 12.0001 16.2374 12.0001 16.2374Z" fill="#B74F88"/>
<path d="M12.5249 3.25332C14.0935 4.03996 15.443 5.20267 16.453 6.6377C17.653 8.69082 19.9499 11.7752 23.6343 11.0439C23.6343 11.0439 24.0655 0.53457 12.9468 0.356445C12.9468 0.356445 10.228 2.2877 12.5249 3.25332Z" fill="#E3D146"/>
<path d="M14.0623 0.497056C14.0623 0.497056 12.8529 3.67518 10.7342 4.34081C8.61543 5.00643 4.6123 6.75956 4.00293 9.37518C4.00293 9.37518 5.09043 -1.01232 14.0623 0.497056Z" fill="#E3D146"/>
<path d="M11.0156 2.46551C11.8362 4.7323 13.2536 6.73545 15.1183 8.26346C16.9829 9.79147 19.2255 10.7876 21.6094 11.1468L23.3344 11.0436L18.2625 2.88738C18.2625 2.88738 14.0625 0.478008 11.0156 2.46551Z" fill="#E3D146"/>
<path d="M19.2656 8.30645C19.2656 8.30645 20.3906 5.93457 22.0781 5.93457C23.625 5.93457 26.625 7.7252 26.475 12.9564C26.4614 13.439 26.2797 13.9016 25.9614 14.2645C25.643 14.6274 25.2079 14.8677 24.7312 14.9439C23.2688 15.1783 21.1031 15.2439 19.5938 14.0627C19.5938 14.0627 21.5625 10.6783 19.2656 8.30645Z" fill="#827420"/>
<path d="M12.3843 2.30645C12.3843 2.30645 13.9124 9.44082 22.6968 10.4814C22.6968 10.4814 22.6968 1.90332 14.0437 1.10645C13.9968 1.14395 12.3843 1.65957 12.3843 2.30645Z" fill="#FFEF92"/>
<path d="M6.10303 5.16581C6.10303 5.16581 7.9124 1.37831 11.2499 1.21894C14.5874 1.05956 15.0843 1.05956 15.1218 1.62206C15.1593 2.18456 15.5624 2.62519 13.5468 2.55956C11.5312 2.49394 7.63115 3.39394 6.10303 5.16581Z" fill="#FFEF92"/>
<path d="M21.5811 10.6779C23.0826 10.6779 24.2998 9.43552 24.2998 7.90293C24.2998 6.37034 23.0826 5.12793 21.5811 5.12793C20.0795 5.12793 18.8623 6.37034 18.8623 7.90293C18.8623 9.43552 20.0795 10.6779 21.5811 10.6779Z" fill="#ED5A9D"/>
<path d="M20.3721 8.26885C20.3721 8.26885 21.2252 6.27197 22.5002 6.27197C23.7752 6.27197 25.8002 7.70635 25.8096 11.8313C25.8121 12.3494 25.6214 12.8498 25.2746 13.2346C24.9279 13.6195 24.4501 13.8613 23.9346 13.9126C23.3584 14.0148 22.7674 13.9977 22.1982 13.8622C21.6289 13.7267 21.0936 13.4759 20.6252 13.1251C20.6252 13.1251 22.1252 10.3126 20.3721 8.26885Z" fill="#E3D146"/>
<path d="M21.5625 8.55957C21.5625 8.55957 22.0969 7.29395 22.9031 7.29395C23.7094 7.29395 25.3125 8.43769 24.9 11.8971C24.9 11.8971 22.8656 12.6658 21.675 11.6346C21.675 11.6346 22.6406 9.8252 21.5625 8.55957Z" fill="#FFEF92"/>
<path d="M4.12524 20.353C4.12524 20.353 5.21274 23.4937 11.6815 25.0405C18.1502 26.5874 21.1034 26.9155 22.4909 25.8843C23.0593 25.4315 23.6645 25.027 24.3002 24.6749C24.263 25.3915 24.0731 26.0918 23.7431 26.7289C23.4132 27.3661 22.9508 27.9253 22.3871 28.3692C21.8234 28.8131 21.1713 29.1314 20.4745 29.3026C19.7777 29.4739 19.0524 29.4943 18.3471 29.3624C12.7221 28.7905 5.45649 25.9593 5.45649 25.9593C4.58891 25.3481 3.9747 24.4407 3.72951 23.4082C3.48432 22.3756 3.62506 21.289 4.12524 20.353Z" fill="#5CD9EA"/>
<path d="M17.6529 26.147L15.2998 29.0626C16.7941 29.4733 18.3494 29.6162 19.8936 29.4845C21.9467 29.1845 23.9436 28.0314 24.2998 24.647C24.2998 24.6376 22.5467 27.4782 17.6529 26.147Z" fill="#188689"/>
<path d="M11.7939 4.35938C11.7939 4.35938 15.1971 9.79687 20.4752 10.8469L20.6252 12.0094C20.6252 12.0094 15.4689 10.65 11.7939 4.35938Z" fill="#827420"/>
<path d="M4.52805 21.075C4.27979 21.7653 4.28491 22.5214 4.54249 23.2083C4.80007 23.8951 5.29335 24.4681 5.9343 24.825C8.27805 26.0344 17.4937 28.575 17.4937 28.575L16.4062 29.175L5.69992 26.25C5.69992 26.25 2.43742 25.2281 3.96555 20.3906L4.52805 21.075Z" fill="#188689"/>
<path d="M13.2188 1.74365C15.3571 1.8088 17.4152 2.57277 19.0781 3.91865L19.6219 4.51865L18.1969 6.84365C18.1969 6.84365 13.9125 2.5874 13.2188 1.74365Z" fill="#FFF6CA"/>
<path d="M19.1718 18.8625C19.1718 18.8625 21.853 23.55 18.2905 26.2969C19.6018 26.6903 21.0126 26.5799 22.2468 25.9875C22.2468 25.9875 25.1999 21.2344 20.6249 17.8125L19.1718 18.8625Z" fill="#E8CCAA"/>
<path d="M23.9719 24.4592C24.8348 24.5105 25.6719 24.7734 26.4093 25.2246C27.1466 25.6759 27.7616 26.3016 28.2 27.0467C28.3036 27.2115 28.3725 27.3957 28.4026 27.5879C28.4327 27.7802 28.4233 27.9767 28.3751 28.1652C28.3268 28.3538 28.2407 28.5306 28.122 28.6848C28.0033 28.839 27.8544 28.9675 27.6844 29.0623C26.4746 29.7204 25.1194 30.0651 23.7422 30.0651C22.365 30.0651 21.0098 29.7204 19.8 29.0623C19.4469 28.8415 19.1943 28.4912 19.0961 28.0865C18.998 27.6818 19.0622 27.2547 19.275 26.8967C19.7754 26.1163 20.4714 25.4807 21.2938 25.053C22.1163 24.6254 23.0364 24.4206 23.9625 24.4592H23.9719Z" fill="#425763"/>
<path d="M23.9341 25.0315C24.6574 25.0656 25.3626 25.2691 25.9928 25.6258C26.623 25.9824 27.1606 26.4821 27.5623 27.0846C27.6571 27.2158 27.7215 27.3666 27.7506 27.5259C27.7798 27.6852 27.773 27.8489 27.7308 28.0053C27.6885 28.1616 27.6119 28.3065 27.5066 28.4294C27.4012 28.5524 27.2697 28.6502 27.1216 28.7159C26.0499 29.217 24.8779 29.4665 23.695 29.4454C22.5121 29.4243 21.3497 29.133 20.2966 28.594C20.1555 28.5205 20.0319 28.4175 19.9343 28.292C19.8366 28.1664 19.7671 28.0213 19.7307 27.8664C19.6942 27.7116 19.6915 27.5507 19.7229 27.3948C19.7542 27.2388 19.8188 27.0914 19.9123 26.9627C20.3611 26.3325 20.9613 25.8252 21.6576 25.4878C22.3538 25.1503 23.1238 24.9934 23.8966 25.0315H23.9341Z" fill="#A2B6BA"/>
<path d="M23.9158 25.1154C24.5062 25.1405 25.0822 25.3048 25.5971 25.5948C26.1119 25.8848 26.5509 26.2923 26.8783 26.7842C26.9488 26.8945 26.9954 27.0184 27.0151 27.1478C27.0348 27.2772 27.0272 27.4093 26.9927 27.5356C26.9583 27.6619 26.8978 27.7795 26.8151 27.881C26.7324 27.9825 26.6294 28.0656 26.5127 28.1248C25.6395 28.5327 24.6846 28.7355 23.7211 28.7176C22.7575 28.6998 21.8108 28.4617 20.9533 28.0217C20.841 27.959 20.7428 27.8739 20.6648 27.7717C20.5868 27.6694 20.5307 27.5522 20.4999 27.4274C20.4691 27.3025 20.4644 27.1727 20.4859 27.0459C20.5075 26.9191 20.5549 26.7981 20.6252 26.6904C20.99 26.1765 21.4784 25.7627 22.0453 25.4875C22.6123 25.2122 23.2395 25.0842 23.8689 25.1154H23.9158Z" fill="#87999B"/>
<path d="M23.5501 27.7594C26.9052 27.7594 29.6251 25.0395 29.6251 21.6844C29.6251 18.3292 26.9052 15.6094 23.5501 15.6094C20.195 15.6094 17.4751 18.3292 17.4751 21.6844C17.4751 25.0395 20.195 27.7594 23.5501 27.7594Z" fill="#425763"/>
<path d="M23.5499 26.8874C26.5322 26.8874 28.9499 24.4697 28.9499 21.4874C28.9499 18.5051 26.5322 16.0874 23.5499 16.0874C20.5676 16.0874 18.1499 18.5051 18.1499 21.4874C18.1499 24.4697 20.5676 26.8874 23.5499 26.8874Z" fill="#A2B6BA"/>
<path d="M23.7658 26.0248C26.5203 26.0248 28.7533 23.7918 28.7533 21.0373C28.7533 18.2828 26.5203 16.0498 23.7658 16.0498C21.0113 16.0498 18.7783 18.2828 18.7783 21.0373C18.7783 23.7918 21.0113 26.0248 23.7658 26.0248Z" fill="#CBDEE4"/>
<path d="M26.5032 20.6158C27.1142 20.6158 27.6095 20.1205 27.6095 19.5096C27.6095 18.8986 27.1142 18.4033 26.5032 18.4033C25.8923 18.4033 25.397 18.8986 25.397 19.5096C25.397 20.1205 25.8923 20.6158 26.5032 20.6158Z" fill="#425763"/>
<path d="M26.5499 20.1096C26.9175 20.1096 27.2155 19.8116 27.2155 19.4439C27.2155 19.0763 26.9175 18.7783 26.5499 18.7783C26.1823 18.7783 25.8843 19.0763 25.8843 19.4439C25.8843 19.8116 26.1823 20.1096 26.5499 20.1096Z" fill="#4ED154"/>
<path d="M22.5468 19.0781C22.634 18.5277 22.8328 18.0009 23.1311 17.5302C23.4293 17.0594 23.8207 16.6546 24.2812 16.3406C24.478 16.2281 24.4405 16.1062 24.2249 16.0781H23.9343C23.6999 16.0781 22.0593 16.1531 21.478 19.1625L22.5468 19.0781Z" fill="#A2B6BA"/>
<path d="M25.3124 22.1439C25.3124 20.2489 23.8769 18.7127 22.1062 18.7127C20.3354 18.7127 18.8999 20.2489 18.8999 22.1439C18.8999 24.039 20.3354 25.5752 22.1062 25.5752C23.8769 25.5752 25.3124 24.039 25.3124 22.1439Z" fill="#425763"/>
<path d="M24.7095 22.084C24.7147 20.6394 23.6235 19.4643 22.2722 19.4594C20.9208 19.4544 19.821 20.6215 19.8157 22.066C19.8104 23.5106 20.9016 24.6857 22.253 24.6906C23.6044 24.6956 24.7042 23.5285 24.7095 22.084Z" fill="#3587C4"/>
<path d="M24.3067 21.9884C24.3111 20.7872 23.4038 19.81 22.2803 19.8059C21.1567 19.8018 20.2424 20.7722 20.238 21.9735C20.2335 23.1747 21.1408 24.1518 22.2643 24.1559C23.3879 24.16 24.3023 23.1896 24.3067 21.9884Z" fill="#4DA3EC"/>
<path d="M23.4179 20.9857C23.4191 20.6699 23.1514 20.4129 22.82 20.4117C22.4886 20.4105 22.2191 20.6655 22.2179 20.9814C22.2168 21.2972 22.4844 21.5542 22.8158 21.5554C23.1472 21.5566 23.4168 21.3016 23.4179 20.9857Z" fill="white"/>
<path d="M23.6908 17.5124C23.9356 17.2473 24.1988 16.9999 24.4783 16.7718C24.5302 16.7299 24.5913 16.7012 24.6566 16.6882C24.7219 16.6751 24.7894 16.6781 24.8533 16.6968C25.3899 16.8545 25.9036 17.0814 26.3815 17.3718C26.4601 17.4214 26.5201 17.4957 26.5522 17.583C26.5842 17.6703 26.5865 17.7658 26.5587 17.8545C26.5309 17.9433 26.4746 18.0204 26.3984 18.0738C26.3223 18.1272 26.2306 18.154 26.1377 18.1499C25.4406 18.1056 24.7409 18.1245 24.0471 18.2061C23.9639 18.213 23.8805 18.1951 23.8074 18.1546C23.7344 18.114 23.6751 18.0527 23.6369 17.9784C23.5988 17.9041 23.5835 17.8202 23.5931 17.7372C23.6027 17.6543 23.6367 17.576 23.6908 17.5124Z" fill="#E1F0F4"/>
</g>
<defs>
<clipPath id="clip0_1_5844">
<rect width="30" height="30" fill="white"/>
</clipPath>
</defs>
</svg>
