<svg width="30" height="30" viewBox="0 0 30 30" fill="none" xmlns="http://www.w3.org/2000/svg">
<g clip-path="url(#clip0_1_6587)">
<path d="M7.59399 22.9684C8.15649 27.2809 19.3127 23.8122 17.344 25.5934C14.6252 28.1247 11.2502 29.7184 11.2502 29.7184C10.8752 29.9059 9.37524 29.0622 8.25024 27.9372C6.84399 26.5309 5.53149 25.0309 5.81274 24.6559C5.81274 24.6559 7.50024 22.5934 7.59399 22.9684Z" fill="#72143F"/>
<path d="M14.0625 15.1875C14.0625 15.1875 10.4062 15.4688 8.8125 13.2188C8.4375 12.5625 7.78125 11.9062 7.78125 11.1562C7.875 10.875 7.96875 10.5 7.875 10.0312C7.6875 8.8125 6.09375 8.15625 5.0625 8.0625C4.3125 8.15625 3.75 8.625 3.65625 9.28125C3.5625 9.375 3.5625 9.5625 3.5625 9.84375V10.3125C3.9375 12.9375 5.0625 17.25 8.4375 20.1562C14.625 25.2188 14.0625 15.1875 14.0625 15.1875Z" fill="#962050"/>
<path d="M12.4688 16.125C12.4688 16.125 9.1875 15.5625 7.5 13.9688C7.125 13.5938 6.75 12.2813 6.75 11.8125C6.84375 11.625 6.84375 11.3438 6.84375 11.0625C6.75 10.3125 6.09375 9.5625 5.34375 9.5625C4.875 9.5625 4.5 9.84375 4.40625 10.3125C4.3125 10.4063 4.3125 10.5 4.40625 10.6875V11.0625C4.6875 12.8438 5.71875 17.7188 10.9687 21C15.5625 23.7188 12.4688 16.125 12.4688 16.125Z" fill="#DB529D"/>
<path d="M6.9375 23.4377C6.9375 23.4377 11.3438 18.7502 12.6562 7.594C13.0312 4.0315 17.4375 -0.562251 22.3125 1.68775C27.5625 4.12525 28.5 11.8127 26.1562 15.094C21 22.4065 15.8438 28.6877 11.625 28.219L6.9375 23.4377Z" fill="#72143F"/>
<path d="M7.21875 24.5622C7.21875 24.5622 12.4688 18.7497 13.7812 7.49971C14.1562 4.78096 17.8125 0.937205 21.5625 2.62471C25.5 4.49971 26.8125 11.0622 25.0312 13.6872C21.1875 19.5935 14.25 28.8747 11.0625 28.4997L7.21875 24.5622Z" fill="#F45BA7"/>
<path d="M7.87505 23.8129C10.0313 27.5629 13.4063 27.6567 13.4063 27.6567L11.0625 28.7817C10.7813 28.9692 9.37505 28.3129 8.43755 27.3754C7.31255 26.2504 6.6563 25.2192 6.8438 24.8442C6.93755 24.8442 7.68755 23.5317 7.87505 23.8129Z" fill="#D6D6D6"/>
<path d="M21.0937 10.4062C21.0937 10.4062 22.4062 5.43745 23.8124 6.18745C25.3124 6.93745 26.6249 10.5 25.4999 13.125C24.3749 15.6562 15.9374 27.1875 12.4687 28.0312C12.4687 28.0312 11.8124 27.75 13.5937 25.6875C15.5624 23.4375 20.9062 14.1562 21.0937 10.4062Z" fill="#D15298"/>
<path d="M23.9998 15.4687C23.9998 15.4687 20.7186 14.625 20.4373 15.1875C20.1561 15.75 21.1873 16.7812 21.2811 17.4375C21.2811 18 20.6248 19.6875 20.6248 19.6875L23.9998 15.4687ZM19.6873 20.9062C19.6873 20.9062 14.3436 16.5937 18.6561 22.0312L19.6873 20.9062ZM18.0936 22.5938C18.0936 22.5938 12.8436 18.375 17.1561 23.7187L18.0936 22.5938ZM16.5936 24.2812C16.5936 24.2812 11.5311 20.1562 15.7498 25.3125L16.5936 24.2812ZM15.0936 25.875C15.0936 25.875 10.1248 21.8438 14.2498 26.9062L15.0936 25.875Z" fill="#C44B8E"/>
<path d="M6.65644 11.438C6.75019 12.188 6.37519 12.6567 5.90644 12.6567C5.34394 12.6567 4.87519 12.0005 4.78144 11.3442C4.68769 10.5942 4.96894 10.0317 5.53144 10.1255C6.00019 10.1255 6.56269 10.688 6.65644 11.438Z" fill="#F45BA7"/>
<path d="M23.4787 9.29342C24.1518 8.12762 23.2071 6.32209 21.3687 5.26067C19.5303 4.19925 17.4944 4.28387 16.8213 5.44967C16.1482 6.61548 17.0928 8.421 18.9312 9.48242C20.7696 10.5438 22.8056 10.4592 23.4787 9.29342Z" fill="#FF7BCA"/>
<path d="M24.3291 10.0885C25.5459 7.98107 24.4603 5.07643 21.9045 3.6008C19.3487 2.12516 16.2905 2.63732 15.0737 4.74473C13.857 6.85215 14.9425 9.75679 17.4983 11.2324C20.0541 12.7081 23.1124 12.1959 24.3291 10.0885Z" fill="#FF7BCA"/>
<path d="M23.0014 7.38597C23.3379 6.80307 22.484 5.67994 21.094 4.87741C19.704 4.07487 18.3043 3.89682 17.9678 4.47972C17.6312 5.06262 18.4852 6.18574 19.8752 6.98828C21.2652 7.79082 22.6648 7.96887 23.0014 7.38597Z" fill="#FFAEE2"/>
<path d="M5.53125 14.8125C5.53125 14.8125 6.9375 17.0625 9.1875 17.625L8.71875 19.2188C8.71875 19.2188 6.1875 16.7812 5.53125 14.8125Z" fill="#C44B8E"/>
<path d="M10.4998 27.8438L11.6248 27.375L13.2186 27.8438L11.1561 28.875C11.1561 28.875 9.46856 28.5938 10.4998 27.8438Z" fill="#AFA1A7"/>
<path d="M4.6875 14.3438C4.6875 14.3438 7.40625 19.125 9.84375 19.875L9.09375 20.8125C9.09375 20.8125 5.625 18.6562 4.6875 14.3438Z" fill="#72143F"/>
<path d="M8.2501 18.0937L10.1251 15.4688L10.7814 15.6563C10.7814 15.6563 9.65635 19.0312 9.1876 19.6875C9.28135 19.6875 7.59385 19.125 8.2501 18.0937Z" fill="#C44B8E"/>
</g>
<defs>
<clipPath id="clip0_1_6587">
<rect width="30" height="30" fill="white"/>
</clipPath>
</defs>
</svg>
