<svg width="64" height="64" viewBox="0 0 64 64" fill="none" xmlns="http://www.w3.org/2000/svg">
<path d="M41.7391 19.4783H42.8522C42.8522 19.0329 42.5867 18.6304 42.1772 18.4551C41.7677 18.2798 41.2932 18.3655 40.9709 18.6729L41.7391 19.4783ZM41.7391 36.174V37.287C42.3539 37.287 42.8522 36.7887 42.8522 36.174H41.7391ZM34.7826 36.174L33.6696 36.1809C33.6734 36.7929 34.1706 37.287 34.7826 37.287V36.174ZM42.8522 36.174C42.8522 35.5592 42.3539 35.0609 41.7391 35.0609C41.1244 35.0609 40.6261 35.5592 40.6261 36.174H42.8522ZM41.7391 44.5218V45.6348C42.3539 45.6348 42.8522 45.1365 42.8522 44.5218H41.7391ZM40.3478 44.5218H39.2348C39.2348 45.1365 39.7331 45.6348 40.3478 45.6348V44.5218ZM41.4609 40.3479C41.4609 39.7331 40.9626 39.2348 40.3478 39.2348C39.7331 39.2348 39.2348 39.7331 39.2348 40.3479H41.4609ZM27.5478 20.8696C27.5478 20.2549 27.0495 19.7566 26.4348 19.7566C25.82 19.7566 25.3217 20.2549 25.3217 20.8696H27.5478ZM25.3217 44.5218C25.3217 45.1365 25.82 45.6348 26.4348 45.6348C27.0495 45.6348 27.5478 45.1365 27.5478 44.5218H25.3217ZM23.3739 20.8696C23.3739 20.2549 22.8756 19.7566 22.2609 19.7566C21.6461 19.7566 21.1478 20.2549 21.1478 20.8696H23.3739ZM31.7217 20.8696C31.7217 20.2549 31.2234 19.7566 30.6087 19.7566C29.994 19.7566 29.4957 20.2549 29.4957 20.8696H31.7217ZM40.6261 19.4783V36.174H42.8522V19.4783H40.6261ZM41.7391 35.0609H34.7826V37.287H41.7391V35.0609ZM35.8957 36.167C35.8797 33.6216 35.9484 31.2024 36.7928 28.6523C37.6318 26.1186 39.2661 23.3755 42.5074 20.2837L40.9709 18.6729C37.5116 21.9728 35.6517 25.0168 34.6795 27.9526C33.7128 30.8721 33.6535 33.6049 33.6696 36.1809L35.8957 36.167ZM40.6261 36.174V44.5218H42.8522V36.174H40.6261ZM41.7391 43.4087H40.3478V45.6348H41.7391V43.4087ZM41.4609 44.5218V40.3479H39.2348V44.5218H41.4609ZM25.3217 20.8696V44.5218H27.5478V20.8696H25.3217ZM21.1478 20.8696V25.0435H23.3739V20.8696H21.1478ZM21.1478 25.0435C21.1478 27.9634 23.5149 30.3305 26.4348 30.3305V28.1044C24.7443 28.1044 23.3739 26.734 23.3739 25.0435H21.1478ZM26.4348 30.3305C29.3547 30.3305 31.7217 27.9634 31.7217 25.0435H29.4957C29.4957 26.734 28.1253 28.1044 26.4348 28.1044V30.3305ZM31.7217 25.0435V20.8696H29.4957V25.0435H31.7217Z" fill="#213A52"/>
</svg>
