<svg width="30" height="30" viewBox="0 0 30 30" fill="none" xmlns="http://www.w3.org/2000/svg">
<g clip-path="url(#clip0_1_4420)">
<path d="M6.09375 11.1562C6.09375 11.1562 7.3125 17.7188 6.1875 21L9.84375 18.6562L9.375 13.125L6.09375 11.1562ZM24.6562 22.7812C24.6562 22.7812 28.5938 13.4063 24.1875 6.09375L20.4375 12.5625L20.9062 20.5313L24.6562 22.7812Z" fill="#77315B"/>
<path d="M21.0001 18.4687C22.8751 19.125 24.5626 20.625 25.1251 22.7812C25.6876 25.0312 24.9376 27.6562 23.1564 28.9687C22.0314 29.8125 20.6251 30 19.3126 30C16.1251 30 13.0314 28.9687 9.84386 27.8437C8.81261 27.4687 7.68761 27.0937 6.75011 26.4375C5.81261 25.7812 5.06261 24.75 4.87511 23.4375C4.68761 21.75 5.71886 19.9687 7.03136 19.125C9.37511 17.625 11.7189 16.9687 14.1564 17.0625C16.4064 17.0625 19.0314 17.8125 21.0001 18.4687Z" fill="#77315B"/>
<path d="M23.3437 6.375C23.3437 6.375 28.125 14.3437 22.7812 19.5L18.9375 17.4375L23.3437 6.375Z" fill="#425763"/>
<path d="M21.1876 17.3437C23.0626 18 24.7501 19.5 25.3126 21.6562C25.8751 23.9062 25.1251 26.5312 23.3439 27.8437C22.2189 28.6875 20.8126 28.875 19.5001 28.875C16.3126 28.875 13.2189 27.8437 10.0314 26.7187C9.00011 26.3437 7.87511 25.9687 6.93761 25.3125C6.00011 24.6562 5.25011 23.625 5.06261 22.3125C4.87511 20.625 5.90636 18.8437 7.21886 18C9.56261 16.5 11.9064 15.8437 14.3439 15.9375C16.6876 15.9375 19.2189 16.6875 21.1876 17.3437Z" fill="#B74F88"/>
<path d="M20.906 15.9375C22.6873 16.5937 23.3435 18.75 23.906 20.9062C24.4685 23.1562 24.656 25.2187 23.0623 26.4375C22.031 27.2812 20.7185 27.4687 19.4998 27.4687C16.4998 27.4687 13.4998 26.4375 10.5935 25.3125C9.56227 24.9375 8.62477 24.5625 7.68727 23.9062C6.84352 23.25 6.09352 22.2187 5.90602 20.9062C5.62477 19.2187 6.56227 17.5312 7.87476 16.6875C10.031 15.1875 12.281 14.5312 14.6248 14.625C16.5935 14.5312 19.031 15.2812 20.906 15.9375Z" fill="#D19780"/>
<path opacity="0.28" d="M22.2223 23.6256C22.8612 21.6556 22.3012 19.709 20.9715 19.2777C19.6417 18.8465 18.0458 20.0939 17.4069 22.0639C16.768 24.0339 17.328 25.9805 18.6577 26.4117C19.9875 26.843 21.5834 25.5956 22.2223 23.6256Z" fill="white"/>
<path d="M10.8752 17.4375C10.8752 17.4375 11.3439 24.4687 15.1877 27C15.1877 27 9.75017 26.1562 8.71892 24.8437C7.68767 23.5312 6.00017 22.875 6.37517 19.7812C6.37517 19.7812 6.75017 16.875 9.37517 16.125L10.8752 17.4375Z" fill="#5077B5"/>
<path d="M9.37517 16.9688C9.37517 16.9688 8.43767 25.3125 14.5314 27.0938C14.5314 27.0938 9.09392 26.25 8.06267 24.9375C7.03142 23.625 5.34392 22.9688 5.71892 19.875C5.71892 19.875 6.09392 16.9687 8.71892 16.2188L9.37517 16.9688Z" fill="#B74F88"/>
<path d="M12 23.5313C12 23.5313 16.7812 25.7813 20.4375 25.0313C24.0937 24.2813 24.75 20.0625 24.75 20.0625C24.75 20.0625 25.875 25.125 22.875 26.9063C19.875 28.6875 14.3438 27 14.3438 27L12 23.5313Z" fill="#5077B5"/>
<path d="M7.3125 16.875C7.3125 16.875 8.0625 24.0938 10.7812 26.9063C10.7812 26.9063 7.78125 26.5312 7.125 25.3125L5.625 20.0625C5.625 20.0625 5.71875 18.5625 7.3125 16.875Z" fill="#CEB46B"/>
<path d="M18.6561 17.5312C18.6561 17.5312 19.4061 21.1875 16.8748 22.4062C14.3436 23.625 17.5311 29.5312 17.5311 29.5312C17.5311 29.5312 17.3436 25.7812 18.2811 25.0312C19.2186 24.375 26.2498 21 22.4061 15.1875C22.4061 15.2812 18.7498 16.7812 18.6561 17.5312Z" fill="#425763"/>
<path d="M24.351 10.0929C24.3696 4.96705 20.2713 0.796794 15.1971 0.778408C10.123 0.760022 5.99459 4.90047 5.97601 10.0264C5.95744 15.1523 10.0558 19.3225 15.1299 19.3409C20.204 19.3593 24.3324 15.2188 24.351 10.0929Z" fill="#A67A65"/>
<path d="M23.952 9.48495C23.9701 4.51439 19.9972 0.470505 15.0784 0.452682C10.1596 0.434859 6.15756 4.44985 6.13955 9.42041C6.12153 14.391 10.0944 18.4349 15.0132 18.4527C19.932 18.4705 23.934 14.4555 23.952 9.48495Z" fill="#E5A98C"/>
<path d="M23.8467 9.25383C23.8639 4.49037 20.1423 0.615288 15.5342 0.598591C10.9261 0.581893 7.17644 4.4299 7.15918 9.19336C7.14192 13.9568 10.8636 17.8319 15.4717 17.8486C20.0798 17.8653 23.8294 14.0173 23.8467 9.25383Z" fill="#E5A98C"/>
<path d="M19.3338 10.3772C19.3464 6.90813 16.6283 4.08603 13.2628 4.07384C9.89732 4.06164 7.15887 6.86397 7.1463 10.333C7.13373 13.802 9.8518 16.6241 13.2173 16.6363C16.5828 16.6485 19.3212 13.8462 19.3338 10.3772Z" fill="#E8CCAA"/>
<path d="M16.1054 11.0339C16.1073 10.5162 15.7311 10.0951 15.2651 10.0934C14.7991 10.0917 14.4198 10.5101 14.4179 11.0278C14.4161 11.5456 14.7923 11.9667 15.2583 11.9684C15.7243 11.9701 16.1036 11.5517 16.1054 11.0339Z" fill="#425763"/>
<path d="M15.5479 10.7211C15.5485 10.5658 15.465 10.4395 15.3614 10.4392C15.2579 10.4388 15.1735 10.5644 15.1729 10.7197C15.1723 10.8751 15.2558 11.0013 15.3594 11.0017C15.4629 11.002 15.5473 10.8764 15.5479 10.7211Z" fill="white"/>
<path d="M9.44969 9.63014C9.45156 9.11237 9.07532 8.69127 8.60933 8.68958C8.14334 8.68789 7.76406 9.10626 7.76219 9.62402C7.76031 10.1418 8.13655 10.5629 8.60254 10.5646C9.06853 10.5663 9.44781 10.1479 9.44969 9.63014Z" fill="#425763"/>
<path d="M12.9959 7.95739C12.9974 7.54318 12.7048 7.20633 12.3423 7.20501C11.9799 7.2037 11.6849 7.53842 11.6834 7.95264C11.6819 8.36685 11.9745 8.7037 12.3369 8.70501C12.6994 8.70633 12.9944 8.37161 12.9959 7.95739Z" fill="#B74F88"/>
<path d="M8.98637 9.22402C8.98693 9.06869 8.90344 8.94246 8.79989 8.94209C8.69634 8.94171 8.61193 9.06733 8.61137 9.22266C8.61081 9.37799 8.6943 9.50421 8.79785 9.50459C8.9014 9.50496 8.98581 9.37935 8.98637 9.22402Z" fill="white"/>
<path d="M13.4063 15.2812C13.4063 15.2812 12.5625 15.1875 12 14.7187C11.4375 14.25 10.7812 14.3438 10.6875 14.3438C10.5938 14.3438 10.4062 14.1562 10.2188 14.0625C10.0312 13.9688 9.75 13.9688 9.75 14.0625C9.75 14.1562 10.0313 14.625 10.0313 14.625C10.0313 14.625 10.125 15 10.0313 15.1875C9.9375 15.375 10.0312 16.0313 10.6875 16.125C11.3438 16.3125 11.8125 16.2188 12.0938 16.0313C12.375 15.8438 13.4063 15.2812 13.4063 15.2812Z" fill="#A67A65"/>
<path d="M13.9685 3.84398C13.9685 3.84398 12.7497 7.03148 14.6247 8.34398C16.4997 9.65648 23.4372 12.7502 22.1247 16.219C22.1247 16.219 28.3122 9.00023 23.0622 3.75023C16.406 -2.99977 13.9685 3.46898 13.9685 3.84398Z" fill="#425763"/>
<path d="M6.09354 10.6877C6.09354 10.6877 6.46854 6.93768 7.68729 6.56268C8.90604 6.18768 12.0935 7.31268 13.781 6.18768C13.781 6.18768 17.8123 1.68768 16.9685 0.843928C16.1248 0.000177532 12.7498 0.187678 10.406 1.40643C8.06229 2.62518 5.43729 5.90643 6.09354 10.6877Z" fill="#425763"/>
<path d="M16.7812 3.46873C16.7812 3.46873 15.0937 5.53123 16.6875 7.12498C18.2812 8.71873 22.3125 9.93748 23.3438 12C23.3438 12 24 4.21873 16.7812 3.46873ZM14.8125 2.24998C14.8125 2.24998 14.25 4.87498 12.8438 5.15623C11.4375 5.43748 7.6875 5.71873 7.6875 5.71873C7.6875 5.71873 11.3438 1.49998 14.8125 2.24998Z" fill="#5E6D72"/>
<path d="M8.8125 2.43738C8.8125 2.43738 22.5938 0.749877 25.3125 9.18738C25.3125 9.18738 25.5938 1.96863 17.25 0.187377C12.1875 -0.843874 8.8125 2.43738 8.8125 2.43738Z" fill="#B74F88"/>
</g>
<defs>
<clipPath id="clip0_1_4420">
<rect width="30" height="30" fill="white"/>
</clipPath>
</defs>
</svg>
