<svg width="30" height="30" viewBox="0 0 30 30" fill="none" xmlns="http://www.w3.org/2000/svg">
<g clip-path="url(#clip0_1_16328)">
<path d="M0.75 3.5625L25.5938 1.78125L29.3438 26.625L3 29.3438L0.75 3.5625Z" fill="white"/>
<path d="M25.125 2.34375L28.6875 26.0625L3.46875 28.6875L1.3125 4.125L25.125 2.34375ZM26.0625 1.125L25.0312 1.21875L1.3125 2.90625L0.09375 3L0.1875 4.21875L2.34375 28.875L2.4375 30L3.65625 29.9062L28.7812 27.1875L30 27.0937L29.8125 25.875L26.25 2.15625L26.0625 1.125Z" fill="#95A39B"/>
<path d="M26.4375 22.5937L4.78125 24.8438L3.28125 5.53125L23.625 4.03125L26.4375 22.5937Z" fill="#96D0EA"/>
<mask id="mask0_1_16328" style="mask-type:luminance" maskUnits="userSpaceOnUse" x="3" y="4" width="24" height="21">
<path d="M26.4375 22.5937L4.78125 24.8438L3.28125 5.53125L23.625 4.03125L26.4375 22.5937Z" fill="white"/>
</mask>
<g mask="url(#mask0_1_16328)">
<path d="M18.5629 20.25C19.9691 20.7188 21.2816 21.8438 21.6566 23.5313C22.1254 25.2188 21.4691 27.1875 20.1566 28.2188C19.3129 28.875 18.2816 28.9688 17.2504 28.9688C14.9066 28.9688 12.4691 28.2188 10.1254 27.375C9.37536 27.0938 8.53161 26.8125 7.87536 26.25C7.21911 25.7813 6.56286 24.9375 6.46911 24C6.28161 22.6875 7.12536 21.375 8.15661 20.7188C9.93786 19.5938 11.7191 19.125 13.5004 19.125C15.0941 19.2188 17.0629 19.7813 18.5629 20.25Z" fill="#B83D68"/>
<path d="M18.844 18.5625C20.344 19.125 21.6565 20.625 22.1253 22.7812C22.594 24.9375 21.9378 27.5625 20.6253 28.7813C19.7815 29.625 18.6565 29.8125 17.6253 29.8125C15.094 29.8125 12.5628 28.7813 10.0315 27.75C9.18778 27.375 8.34403 27 7.59403 26.3438C6.84403 25.6875 6.28153 24.6563 6.09403 23.4375C5.90653 21.75 6.75028 20.0625 7.87528 19.2188C9.75028 17.7188 11.6253 17.1562 13.594 17.1562C15.2815 17.25 17.2503 17.9062 18.844 18.5625Z" fill="#B83D68"/>
<path d="M21.7259 14.8242C21.7415 10.5267 18.2704 7.03034 13.9729 7.01477C9.67543 6.9992 6.17902 10.4704 6.16345 14.7678C6.14788 19.0653 9.61904 22.5617 13.9165 22.5773C18.214 22.5928 21.7104 19.1217 21.7259 14.8242Z" fill="#7F5C4E"/>
<path d="M18.2814 19.2188C19.5939 19.6875 20.8126 20.8125 21.2814 22.5C21.6564 24.1875 21.0939 26.1563 19.8751 27.1875C19.1251 27.8438 18.0939 27.9375 17.1564 27.9375C14.9064 27.9375 12.6564 27.1875 10.4064 26.3438C9.65637 26.0625 8.90637 25.7813 8.25012 25.3125C7.59387 24.8438 7.03137 24 6.93762 23.0625C6.75012 21.75 7.50012 20.4375 8.43762 19.7813C10.0314 18.6563 11.8126 18.1875 13.5001 18.1875C15.0001 18.1875 16.8751 18.75 18.2814 19.2188Z" fill="#DB8CB1"/>
<path d="M17.3437 20.0627C18.375 20.4377 19.3125 21.3752 19.6875 22.5939C20.0625 23.9064 19.5937 25.5002 18.6562 26.2502C18 26.7189 17.25 26.9064 16.5 26.9064C14.7187 26.9064 13.0312 26.2502 11.25 25.6877C10.6875 25.5002 10.0312 25.2189 9.56247 24.8439C8.99997 24.4689 8.62497 23.8127 8.53122 23.0627C8.43747 22.0314 8.99997 21.0002 9.74997 20.5314C11.0625 19.6877 12.375 19.3127 13.6875 19.3127C14.8125 19.2189 16.2187 19.6877 17.3437 20.0627Z" fill="#E8A7C6"/>
<path d="M17.8125 20.1563C17.8125 20.1563 15.9375 24 12.4688 24.4688C9 24.8438 9 19.5938 9 19.5938C9 19.5938 14.0625 22.5 17.8125 20.1563Z" fill="#E8CCAA"/>
<path d="M20.8821 14.821C20.896 10.9896 17.8012 7.87227 13.9697 7.85839C10.1382 7.84451 7.02095 10.9393 7.00707 14.7708C6.99319 18.6022 10.088 21.7195 13.9194 21.7334C17.7509 21.7473 20.8682 18.6525 20.8821 14.821Z" fill="#A67A65"/>
<path opacity="0.48" d="M19.7813 16.7812C19.7813 16.7812 17.4375 21.75 13.125 22.3125C8.8125 22.875 8.8125 15.9375 8.8125 15.9375C8.8125 15.9375 15 19.7812 19.7813 16.7812Z" fill="#A67A65"/>
<path d="M20.6314 14.316C20.6449 10.5881 17.6338 7.55506 13.9059 7.54155C10.1779 7.52804 7.1449 10.5392 7.13139 14.2671C7.11788 17.995 10.129 21.028 13.8569 21.0415C17.5849 21.0551 20.6179 18.0439 20.6314 14.316Z" fill="#E5A98C"/>
<path d="M20.5308 14.1197C20.5437 10.5471 17.742 7.6408 14.273 7.62823C10.8039 7.61566 7.98121 10.5016 7.96826 14.0742C7.95532 17.6468 10.757 20.5532 14.2261 20.5657C17.6951 20.5783 20.5178 17.6923 20.5308 14.1197Z" fill="#E8CCAA"/>
<path d="M17.0663 15.0528C17.0757 12.464 15.0266 10.3579 12.4895 10.3487C9.95248 10.3395 7.88818 12.4307 7.8788 15.0195C7.86942 17.6084 9.91851 19.7145 12.4556 19.7237C14.9926 19.7329 17.0569 17.6417 17.0663 15.0528Z" fill="#FAEACF"/>
<path d="M16.5941 9.75013C16.5941 9.75013 15.9378 12.5626 11.7191 13.0314C7.50032 13.5001 6.00032 16.1251 6.00032 16.1251C6.00032 16.1251 5.25032 12.1876 7.78157 10.6876C10.3128 9.18763 13.5003 7.40638 16.5941 9.75013Z" fill="#B29A34"/>
<path d="M13.0317 8.71892C13.0317 8.71892 18.9379 9.18767 19.4067 13.4064C19.8754 17.6252 20.4379 21.3752 23.9067 22.2189C23.9067 22.2189 22.4067 20.7189 22.9692 19.5002C23.5317 18.2814 27.4692 6.65642 19.6879 4.68767C11.9067 2.71892 13.0317 8.71892 13.0317 8.71892Z" fill="#B29A34"/>
<path d="M13.5001 9.37508C13.5001 9.37508 17.7189 10.5938 18.1876 14.4376C18.6564 18.2813 19.1251 21.6563 22.3126 22.4063C22.3126 22.4063 20.9064 21.0938 21.4689 19.9688C22.0314 18.8438 25.4064 8.34383 18.3751 6.46883C11.3439 4.59383 13.5001 9.37508 13.5001 9.37508Z" fill="#B29A34"/>
<path d="M13.0316 9.09371C13.0316 9.09371 18.3753 10.2187 18.8441 13.9687C19.3128 17.7187 19.7816 21.1875 22.9691 21.9375C22.9691 21.9375 21.5628 20.625 22.1253 19.5C22.6878 18.375 26.0628 7.87496 19.0316 5.99996C12.0003 4.12496 13.0316 9.09371 13.0316 9.09371Z" fill="#E8E26B"/>
<path d="M14.6251 8.53132C14.6251 8.53132 8.71887 6.93757 7.31262 9.65632C5.90637 12.3751 5.43762 12.5626 5.62512 16.1251C5.62512 16.1251 4.21887 12.7501 4.40637 11.0626C4.50012 9.46882 6.28137 4.03132 10.4064 3.93757C14.5314 3.84382 16.1251 5.81257 15.9376 6.28132C15.7501 6.84382 14.6251 8.53132 14.6251 8.53132Z" fill="#B29A34"/>
<path d="M15.5626 9.56256C15.5626 9.56256 9.65637 7.96881 8.25012 10.6876C6.84387 13.4063 6.37512 13.5938 6.56262 17.1563C6.56262 17.1563 5.15637 13.7813 5.34387 12.0938C5.53137 10.4063 7.21887 5.06257 11.3439 4.96882C15.4689 4.87507 17.0626 6.84382 16.8751 7.31257C16.6876 7.87507 15.5626 9.56256 15.5626 9.56256Z" fill="#E8E26B"/>
<path d="M16.4066 7.59385C16.4066 7.59385 21.3754 7.3126 21.8441 10.8751C22.3129 14.4376 21.5629 16.9689 21.5629 16.9689C21.5629 16.9689 21.7504 13.2189 20.8129 12.0001C19.8754 10.7814 17.5316 9.84385 16.7816 9.1876C15.8441 8.53135 16.4066 7.59385 16.4066 7.59385Z" fill="#F7F1A9"/>
<path d="M16.5001 8.90638C16.5001 8.90638 15.8438 11.7189 11.6251 12.1876C7.4063 12.6564 5.9063 15.2814 5.9063 15.2814C5.9063 15.2814 5.1563 11.2501 7.7813 9.75013C10.4063 8.25013 13.4063 6.56263 16.5001 8.90638Z" fill="#E8E26B"/>
<path d="M7.125 11.7188C7.125 11.7188 7.875 6.56256 11.25 6.28131C14.625 5.90631 15.5625 8.71881 14.25 9.46881C12.9375 10.2188 8.0625 10.3126 7.125 11.7188Z" fill="#F7F1A9"/>
<path d="M5.0625 13.6875L5.625 14.0625L7.03125 16.9687L7.21875 18.6562C7.21875 18.6562 6.1875 18 5.15625 14.3437L5.0625 13.6875Z" fill="#B29A34"/>
<path d="M6.9375 14.25L6.65625 14.3437L6.28125 16.4062L7.03125 16.9688L7.59375 14.1562L6.9375 14.25Z" fill="#B29A34"/>
<path d="M16.0109 15.3057C16.0126 14.8397 15.6781 14.4608 15.2639 14.4593C14.8497 14.4578 14.5126 14.8343 14.5109 15.3003C14.5092 15.7663 14.8436 16.1453 15.2578 16.1468C15.672 16.1483 16.0092 15.7717 16.0109 15.3057Z" fill="#425763"/>
<path d="M15.5827 15.0197C15.5831 14.9161 15.4994 14.8319 15.3959 14.8315C15.2923 14.8311 15.2081 14.9148 15.2077 15.0183C15.2073 15.1219 15.291 15.2061 15.3945 15.2065C15.4981 15.2069 15.5823 15.1232 15.5827 15.0197Z" fill="white"/>
<path d="M10.2677 14.0457C10.2694 13.5797 9.93498 13.2008 9.52076 13.1993C9.10655 13.1977 8.76939 13.5743 8.76771 14.0403C8.76602 14.5063 9.10044 14.8852 9.51465 14.8868C9.92886 14.8883 10.266 14.5117 10.2677 14.0457Z" fill="#425763"/>
<path d="M9.7458 13.7597C9.74617 13.6561 9.66253 13.5719 9.55898 13.5715C9.45542 13.5711 9.37117 13.6547 9.3708 13.7583C9.37042 13.8619 9.45406 13.9461 9.55762 13.9465C9.66117 13.9469 9.74542 13.8632 9.7458 13.7597Z" fill="white"/>
<path d="M13.6875 18.9375C13.6875 18.9375 12.9375 18.8438 12.375 18.4688C11.8125 18.0938 11.3438 18.0937 11.25 18.0937C11.1563 18.0937 10.9688 17.9062 10.7813 17.8125C10.5938 17.7188 10.4063 17.7188 10.3125 17.8125C10.3125 17.9062 10.5 18.2812 10.5 18.2812V18.75C10.5 18.9375 10.5 19.5 11.0625 19.5937C11.625 19.6875 12 19.6875 12.2813 19.5C12.5625 19.3125 13.6875 18.9375 13.6875 18.9375Z" fill="#A67A65"/>
</g>
</g>
<defs>
<clipPath id="clip0_1_16328">
<rect width="30" height="30" fill="white"/>
</clipPath>
</defs>
</svg>
