<svg width="30" height="30" viewBox="0 0 30 30" fill="none" xmlns="http://www.w3.org/2000/svg">
<g clip-path="url(#clip0_1_7266)">
<path d="M3.28102 14.4375C3.28102 14.4375 -0.28148 11.4375 2.15602 6.5625L5.62477 8.4375L3.28102 14.4375ZM17.8123 5.53125C17.8123 5.53125 17.0623 10.5938 21.3748 12.6562C25.6873 14.7188 24.4685 20.0625 23.6248 24.75C23.6248 24.75 35.0623 14.625 24.8435 3.84375C24.8435 3.84375 17.906 4.5 17.8123 5.53125Z" fill="#993A6E"/>
<path d="M2.34398 10.4062C2.34398 10.4062 1.78148 25.7812 9.09398 28.875C16.7815 32.0625 24.6565 30.1875 27.5627 12.2812C27.5627 12.2812 25.8752 4.59375 16.8752 4.6875C8.43773 4.6875 2.25023 8.8125 2.34398 10.4062Z" fill="#BC7458"/>
<path d="M3.00014 10.6874C3.00014 10.6874 2.53139 24.9374 9.28138 27.7499C16.4064 30.7499 23.7189 28.9687 26.3439 12.3749C26.3439 12.3749 24.7501 5.24994 16.5001 5.34369C8.71889 5.43744 3.00014 9.28119 3.00014 10.6874Z" fill="#E5A98C"/>
<path d="M3.28114 11.3438C3.28114 11.3438 2.81239 24.1875 9.18739 26.7188C15.7499 29.3438 22.4999 27.75 25.0311 12.8438C25.0311 12.8438 23.5311 6.46875 15.9374 6.46875C8.53114 6.65625 3.18739 10.0313 3.28114 11.3438Z" fill="#E8CCAA"/>
<path d="M3.46851 12.1875C3.46851 12.1875 2.99976 24.1875 8.81226 26.5312C14.8123 28.9688 20.9998 27.4688 23.2498 13.5938C23.2498 13.5938 21.9373 7.6875 14.9998 7.6875C8.24976 7.78125 3.37476 10.9688 3.46851 12.1875Z" fill="#FAEACF"/>
<path d="M2.4375 10.6875C2.4375 10.6875 4.03125 13.3125 7.96875 12.375C11.9063 11.4375 21.9375 4.3125 21.9375 4.3125C21.9375 4.3125 17.3438 0.562496 9.1875 3.1875C4.96875 4.5 2.625 9.5625 2.4375 10.6875Z" fill="#993A6E"/>
<path d="M9.37519 5.90619C8.25019 6.74994 6.93769 9.65619 5.62519 11.0624C4.40644 12.3749 2.25019 11.6249 1.96894 9.84369C1.68769 7.87495 0.000187159 4.87494 2.53144 0.0936945C2.53144 0.0936945 6.84394 -0.656305 9.84394 2.99994C10.5002 3.93744 10.3127 5.24994 9.37519 5.90619ZM20.5314 6.56244C21.7502 7.31244 23.5314 8.34369 24.9377 9.56244C26.3439 10.6874 28.4064 9.74994 28.4064 7.96869C28.4064 5.99995 28.0314 3.37494 26.6252 -5.54607e-05C26.6252 -5.54607e-05 22.2189 -0.281306 19.7814 3.74994C19.2189 4.68744 19.5002 5.99994 20.5314 6.56244Z" fill="#D8649E"/>
<path d="M3.09375 11.4375C3.09375 11.4375 4.6875 14.0625 8.625 13.125C12.5625 12.1875 22.5938 5.0625 22.5938 5.0625C22.5938 5.0625 18 1.3125 9.84375 3.9375C5.53125 5.25 3.28125 10.3125 3.09375 11.4375Z" fill="#D8649E"/>
<path d="M16.8751 5.25C16.8751 5.25 16.1251 10.3125 20.4376 12.375C24.7501 14.4375 24.6564 19.3125 23.9064 23.9062C23.9064 23.9062 33.0001 12.9375 23.9064 3.46875C23.8126 3.5625 16.9689 4.3125 16.8751 5.25Z" fill="#D8649E"/>
<path d="M21.2813 6.1875C22.2188 6.75 23.5313 7.5 24.5625 8.4375C25.5938 9.1875 27.1875 8.53125 27.1875 7.21875C27.1875 5.71875 26.9062 3.75 25.875 1.3125C25.875 1.3125 22.5938 1.125 20.7187 4.125C20.3437 4.78125 20.5313 5.71875 21.2813 6.1875Z" fill="#FFD4F7"/>
<path d="M21.5623 6.56246C22.2185 6.93746 23.156 7.59371 23.906 8.24996C24.656 8.90621 25.6873 8.34371 25.6873 7.40621C25.6873 6.37496 25.4998 4.87496 24.7498 2.99996C24.7498 2.99996 22.406 2.81246 21.1873 4.96871C20.8123 5.53121 20.9998 6.28121 21.5623 6.56246Z" fill="#BF6A93"/>
<path d="M8.43736 5.62497C7.59361 6.18747 6.46861 7.12497 5.53111 8.06247C4.68736 8.99997 3.09361 8.43747 2.90611 7.21872C2.71861 5.81247 2.81236 3.93747 3.46861 1.40622C3.46861 1.40622 6.56236 0.843716 8.71861 3.46872C9.28111 4.12497 9.09361 5.06247 8.43736 5.62497Z" fill="#FFD4F7"/>
<path d="M8.3437 6.09375C7.7812 6.5625 6.93745 7.21875 6.2812 7.96875C5.62495 8.71875 4.49995 8.34375 4.31245 7.40625C4.2187 6.28125 4.31245 4.78125 4.7812 2.90625C4.7812 2.90625 7.0312 2.4375 8.5312 4.5C8.99995 4.96875 8.9062 5.71875 8.3437 6.09375Z" fill="#BF6A93"/>
<path d="M6.09382 10.6875C6.65632 10.5 7.31257 10.3125 8.25007 10.3125C10.0313 10.4062 11.3438 11.625 11.2501 13.125L10.8751 15.6563C10.5938 16.875 9.46882 17.7188 8.06257 17.8125H7.96882C6.46882 17.9062 5.06257 16.9687 4.78132 15.75C4.59382 15 4.40632 14.0625 4.40632 13.125C4.31257 12.0938 4.96882 11.1562 6.09382 10.6875Z" fill="#3C505B"/>
<path d="M6.1875 11.5313C6.75 11.25 7.40625 11.0625 8.25 11.0625C9.9375 11.1563 11.1563 12.5625 11.0625 14.25L10.6875 17.0625C10.4062 18.375 9.375 19.4062 7.96875 19.5H7.875C6.46875 19.5938 5.15625 18.5625 4.78125 17.1562C4.59375 16.3125 4.40625 15.2812 4.40625 14.25C4.59375 13.0312 5.15625 12 6.1875 11.5313Z" fill="white"/>
<path d="M10.4064 14.2501C9.9376 12.5626 8.71885 11.6251 7.59385 12.0938C6.3751 12.5626 5.53135 14.5313 5.8126 16.5938C6.09385 18.8438 7.59385 20.0626 9.0001 19.2188C10.4064 18.3751 10.8751 16.1251 10.4064 14.2501Z" fill="#D8649E"/>
<path d="M9.93727 13.875C9.56227 12.6563 8.62477 12 7.78102 12.2813C6.84352 12.6563 6.18727 14.0625 6.46852 15.5625C6.74977 17.25 7.87477 18.0938 8.90602 17.5313C9.84352 16.9688 10.3123 15.2813 9.93727 13.875Z" fill="#3C505B"/>
<path d="M8.62519 14.3437C8.43769 13.7812 7.87519 13.5 7.40644 13.6875C6.84394 13.875 6.56269 14.4375 6.65644 15.0937C6.75019 15.75 7.40644 16.2187 8.06269 15.9375C8.53144 15.6562 8.81269 14.9062 8.62519 14.3437Z" fill="white"/>
<path d="M20.7188 11.9062C20.1563 11.625 19.5 11.3437 18.5625 11.3437C16.875 11.25 15.375 12.375 15.375 13.875L15.4688 16.4062C15.6563 17.625 16.6875 18.5625 18.0937 18.8437H18.1875C19.6875 19.0312 21.0938 18.2812 21.5625 17.0625C21.8438 16.3125 22.0313 15.4687 22.2188 14.4375C22.3125 13.5 21.75 12.4687 20.7188 11.9062Z" fill="#3C505B"/>
<path d="M20.5312 12.6562C19.9687 12.375 19.3125 12.0937 18.5625 12C16.875 11.9062 15.5625 13.2187 15.4688 14.9062L15.5625 17.7187C15.6563 19.0312 16.6875 20.1562 18 20.3437H18.0937C19.5 20.5312 20.9063 19.6875 21.2813 18.2812C21.5625 17.5312 21.75 16.5 21.9375 15.375C22.0312 14.3437 21.4687 13.2187 20.5312 12.6562Z" fill="white"/>
<path d="M16.125 15.0937C16.6875 13.4062 18 12.6562 19.125 13.2187C20.25 13.7812 20.9062 15.8437 20.5312 17.8125C20.0625 19.9687 18.4687 21.0937 17.1562 20.1562C15.75 19.125 15.4687 16.875 16.125 15.0937Z" fill="#D8649E"/>
<path d="M16.6875 14.7187C17.1563 13.5 18.0938 12.9375 18.9375 13.3125C19.875 13.7812 20.3438 15.1875 19.9688 16.6875C19.5938 18.2812 18.375 19.125 17.3438 18.375C16.4063 17.7187 16.125 16.0312 16.6875 14.7187Z" fill="#3C505B"/>
<path d="M17.9061 15.2813C18.1873 14.8125 18.6561 14.5313 19.1248 14.7188C19.5936 14.9063 19.9686 15.5625 19.7811 16.125C19.5936 16.7813 18.9373 17.1563 18.3748 16.7813C17.8123 16.5938 17.6248 15.8438 17.9061 15.2813Z" fill="white"/>
<path d="M6.75 9.18747C6.75 9.18747 11.5312 2.62497 16.5 5.15622C16.5 5.15622 17.4375 7.03122 14.7187 8.15622C12 9.28122 6.75 9.18747 6.75 9.18747ZM20.25 7.59372C20.25 7.59372 24.4687 8.99997 25.5937 10.6875C26.7187 12.375 26.8125 14.625 25.9687 17.1562C25.9687 17.1562 25.6875 15.1875 24.9375 13.5937C24.1875 12 22.3125 8.34372 20.25 7.59372Z" fill="#EA7DB8"/>
</g>
<defs>
<clipPath id="clip0_1_7266">
<rect width="30" height="30" fill="white"/>
</clipPath>
</defs>
</svg>
