<svg width="30" height="30" viewBox="0 0 30 30" fill="none" xmlns="http://www.w3.org/2000/svg">
<g clip-path="url(#clip0_1_5561)">
<path d="M8.71881 4.21875C8.71881 4.21875 7.78131 2.25 6.37506 2.25C4.96881 2.25 2.15631 4.03125 2.81256 9.375C2.81256 9.375 6.37506 10.5938 8.43756 9C8.43756 9 6.75006 6.1875 8.71881 4.21875Z" fill="#827420"/>
<path d="M7.78138 4.125C7.78138 4.125 7.12513 2.4375 6.00013 2.4375C4.87513 2.4375 2.81263 4.03125 3.37513 8.53125C3.37513 8.53125 6.00013 9.5625 7.59388 8.15625C7.59388 8.15625 6.37513 5.8125 7.78138 4.125Z" fill="#E3D146"/>
<path d="M14.4375 3C14.4375 3 17.4375 4.40625 18.8438 6.46875C20.25 8.53125 22.7813 11.8125 26.9063 11.0625C26.9063 11.0625 27.375 0.1875 15 0C14.9063 0.09375 11.9063 2.0625 14.4375 3Z" fill="#998522"/>
<path d="M16.2187 0.187497C16.2187 0.187497 14.8125 3.1875 12.4688 3.84375C10.125 4.5 5.625 6.375 4.96875 9C4.96875 9 6.1875 -1.40625 16.2187 0.187497Z" fill="#827420"/>
<path d="M7.3125 7.03125C8.8658 7.03125 10.125 5.73008 10.125 4.125C10.125 2.51992 8.8658 1.21875 7.3125 1.21875C5.7592 1.21875 4.5 2.51992 4.5 4.125C4.5 5.73008 5.7592 7.03125 7.3125 7.03125Z" fill="#B74F88"/>
<path d="M7.3125 6.09375C8.39981 6.09375 9.28125 5.17034 9.28125 4.03125C9.28125 2.89216 8.39981 1.96875 7.3125 1.96875C6.22519 1.96875 5.34375 2.89216 5.34375 4.03125C5.34375 5.17034 6.22519 6.09375 7.3125 6.09375Z" fill="#ED5A9D"/>
<path d="M21.4688 17.25C23.4376 17.9062 25.2188 19.5937 25.7813 22.0312C26.4376 24.4687 25.5001 27.4688 23.8126 28.7812C22.6876 29.7188 21.2813 29.9062 19.8751 29.9062C16.5938 29.9062 13.3126 28.7812 10.0313 27.5625C8.90631 27.1875 7.78131 26.7187 6.84381 26.0625C5.90631 25.3125 5.06256 24.1875 4.87506 22.7812C4.68756 20.9062 5.71881 19.0312 7.12506 18C9.56256 16.3125 12.0001 15.6562 14.5313 15.6562C16.7813 15.6562 19.4063 16.5 21.4688 17.25Z" fill="#C98C75"/>
<path d="M20.625 17.4377C22.4062 18.0002 24 19.5002 24.5625 21.5627C25.125 23.7189 24.375 26.2502 22.7812 27.4689C21.75 28.2189 20.4375 28.5002 19.2187 28.5002C16.2187 28.5002 13.3125 27.4689 10.3125 26.4377C9.28122 26.0627 8.34372 25.7814 7.40622 25.1252C6.56247 24.4689 5.81246 23.4377 5.62496 22.3127C5.43746 20.6252 6.37496 19.0314 7.68746 18.1877C9.84371 16.7814 12.0937 16.1252 14.4375 16.2189C16.4062 16.1252 18.75 16.7814 20.625 17.4377Z" fill="#FAEACF"/>
<path d="M18.0937 18.2813C18.0937 18.2813 13.9687 19.9688 10.9687 24.75C10.9687 24.75 9.84373 20.625 10.5 17.625C10.5 17.7188 14.7187 19.5938 18.0937 18.2813Z" fill="#FAEACF"/>
<path d="M7.59375 17.7188C7.59375 17.7188 9.1875 21.75 11.1562 22.125C13.125 22.5 16.5 23.1563 20.9062 18.9375L7.59375 17.7188Z" fill="#E8CCAA"/>
<path opacity="0.28" d="M22.9068 25.6446C23.6096 23.4776 22.9816 21.3325 21.5041 20.8533C20.0266 20.3741 18.2591 21.7423 17.5563 23.9093C16.8534 26.0763 17.4814 28.2215 18.9589 28.7007C20.4364 29.1799 22.2039 27.8116 22.9068 25.6446Z" fill="white"/>
<path d="M25.2955 10.7853C25.3157 5.19341 20.799 0.643864 15.2072 0.623602C9.61528 0.60334 5.06574 5.12003 5.04548 10.7119C5.02521 16.3038 9.54191 20.8533 15.1338 20.8736C20.7257 20.8939 25.2752 16.3772 25.2955 10.7853Z" fill="#A67A65"/>
<path d="M24.8565 10.0977C24.8762 4.66115 20.4849 0.237985 15.0484 0.218286C9.61184 0.198587 5.18867 4.58981 5.16897 10.0264C5.14927 15.4629 9.5405 19.8861 14.9771 19.9058C20.4136 19.9255 24.8368 15.5343 24.8565 10.0977Z" fill="#E5A98C"/>
<path d="M24.7311 9.79607C24.75 4.56663 20.652 0.312419 15.5779 0.294033C10.5038 0.275647 6.37504 4.50005 6.35609 9.72949C6.33714 14.9589 10.4352 19.2131 15.5093 19.2315C20.5834 19.2499 24.7121 15.0255 24.7311 9.79607Z" fill="#E8CCAA"/>
<path d="M19.6833 11.0883C19.6972 7.2568 16.7284 4.13998 13.0522 4.12666C9.37608 4.11334 6.38472 7.20856 6.37084 11.04C6.35696 14.8715 9.32581 17.9883 13.002 18.0017C16.6781 18.015 19.6695 14.9198 19.6833 11.0883Z" fill="#FAEACF"/>
<path d="M16.2161 11.8291C16.2182 11.2595 15.8001 10.7963 15.2824 10.7944C14.7646 10.7925 14.3432 11.2527 14.3411 11.8223C14.3391 12.3918 14.7571 12.855 15.2749 12.8569C15.7927 12.8588 16.2141 12.3986 16.2161 11.8291Z" fill="#425763"/>
<path d="M15.6123 11.4008C15.6129 11.2454 15.5294 11.1192 15.4259 11.1188C15.3223 11.1185 15.2379 11.2441 15.2373 11.3994C15.2368 11.5547 15.3203 11.681 15.4238 11.6813C15.5274 11.6817 15.6118 11.5561 15.6123 11.4008Z" fill="white"/>
<path d="M8.95247 10.184C8.95453 9.6145 8.53647 9.15127 8.0187 9.14939C7.50094 9.14752 7.07953 9.6077 7.07747 10.1772C7.0754 10.7468 7.49346 11.21 8.01123 11.2119C8.529 11.2138 8.9504 10.7536 8.95247 10.184Z" fill="#425763"/>
<path d="M8.34868 9.8495C8.34924 9.69417 8.26575 9.56795 8.16219 9.56757C8.05864 9.5672 7.97424 9.69281 7.97368 9.84814C7.97311 10.0035 8.0566 10.1297 8.16016 10.1301C8.26371 10.1304 8.34811 10.0048 8.34868 9.8495Z" fill="white"/>
<path d="M21.6562 11.531C21.6562 11.531 22.5 10.8748 23.1563 11.156C23.8125 11.4373 23.7187 13.4998 22.0312 13.781L21.6562 11.531Z" fill="#FAEACF"/>
<path d="M13.3125 16.4062C13.3125 16.4062 12.375 16.3125 11.7187 15.75C11.0625 15.2812 10.4062 15.2812 10.3125 15.375C10.2187 15.4687 10.0312 15.1875 9.75 15.0938C9.5625 15 9.1875 15 9.1875 15.0938C9.1875 15.1875 9.46875 15.75 9.46875 15.75C9.46875 15.75 9.5625 16.125 9.46875 16.4062C9.375 16.5937 9.46875 17.25 10.125 17.4375C10.875 17.625 11.3437 17.5312 11.625 17.3437L13.3125 16.4062Z" fill="#B74F88"/>
<path d="M13.7812 3C13.7812 3 16.5937 4.40625 17.8125 6.46875C19.0312 8.53125 21.4687 11.8125 25.2187 11.0625C25.2187 11.0625 25.6875 0.1875 14.1562 0C14.25 0 11.4375 2.0625 13.7812 3Z" fill="#E3D146"/>
<path d="M15.375 0.187434C15.375 0.187434 14.1562 3.46868 11.9062 4.12493C9.65625 4.78118 5.625 6.65618 5.0625 9.28118C5.0625 9.28118 6.1875 -1.40632 15.375 0.187434Z" fill="#E3D146"/>
<path d="M12.2812 2.25C12.2812 2.25 14.5312 9.75 23.25 11.1563L25.0312 11.0625L19.7812 2.625C19.6875 2.625 15.375 0.187502 12.2812 2.25Z" fill="#E3D146"/>
<path d="M20.8125 8.25C20.8125 8.25 21.9375 5.8125 23.7187 5.8125C25.3125 5.8125 28.4062 7.6875 28.2187 13.0312C28.2187 14.0625 27.4688 14.9063 26.4375 15.0938C24.9375 15.375 22.6875 15.375 21.0937 14.1563C21.0937 14.1563 23.1562 10.6875 20.8125 8.25Z" fill="#827420"/>
<path d="M13.6875 2.0625C13.6875 2.0625 15.2812 9.375 24.2812 10.5C24.2812 10.5 24.2812 1.6875 15.375 0.84375C15.2812 0.84375 13.6875 1.40625 13.6875 2.0625Z" fill="#FFEF92"/>
<path d="M7.21875 4.96882C7.21875 4.96882 9.09375 1.03132 12.5625 0.937568C16.0312 0.843818 16.5 0.750068 16.5938 1.31257C16.6875 1.87507 17.0625 2.34382 15 2.25007C12.75 2.25007 8.71875 3.18757 7.21875 4.96882Z" fill="#FFEF92"/>
<path d="M23.1562 10.6875C24.7096 10.6875 25.9688 9.38633 25.9688 7.78125C25.9688 6.17617 24.7096 4.875 23.1562 4.875C21.6029 4.875 20.3438 6.17617 20.3438 7.78125C20.3438 9.38633 21.6029 10.6875 23.1562 10.6875Z" fill="#ED5A9D"/>
<path d="M21.9375 8.15625C21.9375 8.15625 22.7813 6.09375 24.0938 6.09375C25.2188 6.09375 27.4687 7.59375 27.4687 11.8125C27.4687 12.9375 26.625 13.875 25.5 13.9687C24.375 14.0625 23.0625 13.9688 22.125 13.125C22.125 13.2188 23.7188 10.2188 21.9375 8.15625Z" fill="#E3D146"/>
<path d="M23.0625 8.53125C23.0625 8.53125 23.625 7.21875 24.4688 7.21875C25.3125 7.21875 27 8.4375 26.5312 12C26.5312 12 24.4687 12.75 23.25 11.7188C23.25 11.625 24.2812 9.84375 23.0625 8.53125Z" fill="#FFEF92"/>
<path d="M5.15627 20.625C5.15627 20.625 6.28127 23.9063 12.9375 25.4062C19.5938 27 22.6875 27.375 24.0938 26.25C25.5 25.2187 25.9688 25.0313 25.9688 25.0313C25.9688 25.0313 25.6875 30.4687 19.7813 29.8125C13.9688 29.3437 6.56252 26.4375 6.56252 26.4375C6.56252 26.4375 3.37502 24.2812 5.15627 20.625Z" fill="#5CD9EA"/>
<path d="M19.125 26.625L16.6875 29.625C16.6875 29.625 19.3125 30.375 21.4688 30.0937C23.625 29.8125 25.6875 28.5938 26.0625 25.125C25.9688 25.125 24.1875 28.0313 19.125 26.625Z" fill="#188689"/>
<path d="M13.0312 4.125C13.0312 4.125 16.5938 9.75 22.0312 10.7812L22.125 12C22.125 12.0937 16.875 10.6875 13.0312 4.125Z" fill="#827420"/>
<path d="M5.53108 21.375C5.53108 21.375 4.59358 24 7.03108 25.3125C9.46858 26.5312 18.9373 29.25 18.9373 29.25L17.8123 29.8125L6.74983 26.8125C6.74983 26.8125 3.37483 25.6875 4.96858 20.7188L5.53108 21.375Z" fill="#188689"/>
<path d="M14.5312 1.5C14.5312 1.5 18.0937 1.5 20.5312 3.75L21.0938 4.40625L19.6875 6.75L14.5312 1.5Z" fill="#FFF6CA"/>
<path d="M20.625 19.125C20.625 19.125 23.4375 24 19.6875 26.8125C19.6875 26.8125 21.9375 27.5625 23.8125 26.5312C23.8125 26.5312 26.8125 21.6562 22.125 18.0938L20.625 19.125Z" fill="#E8CCAA"/>
</g>
<defs>
<clipPath id="clip0_1_5561">
<rect width="30" height="30" fill="white"/>
</clipPath>
</defs>
</svg>
