<svg width="30" height="30" viewBox="0 0 30 30" fill="none" xmlns="http://www.w3.org/2000/svg">
<g clip-path="url(#clip0_1_13924)">
<path d="M21.3748 9.65625L24.4685 9.9375C24.4685 9.9375 24.0935 14.3438 20.7185 15.375C17.3435 16.4062 21.3748 9.65625 21.3748 9.65625ZM5.81226 3.28125C5.81226 3.28125 3.84351 6.1875 3.37476 8.0625C2.90601 9.9375 7.31226 7.40625 7.31226 7.40625L5.81226 3.28125Z" fill="#999893"/>
<path d="M7.12498 4.40625C7.12498 4.40625 4.12498 6.5625 3.84373 7.59375C3.56248 8.625 2.24998 12.9375 5.62498 12C8.99998 11.0625 9.74998 5.8125 9.74998 5.8125L7.12498 4.40625Z" fill="#999893"/>
<path d="M6.84385 5.34375C6.84385 5.34375 4.40635 7.125 4.1251 7.96875C3.9376 8.8125 2.90635 12.2813 5.6251 11.5313C8.34385 10.7813 9.0001 6.46875 9.0001 6.46875L6.84385 5.34375Z" fill="#BFBDB4"/>
<path d="M14.1562 3.5627C14.1562 3.5627 14.625 5.53145 15.5625 6.28145C16.5 7.1252 16.9687 9.3752 18.0937 9.46895C19.2187 9.5627 21.1875 11.1564 22.5 10.5002C23.7187 9.84395 23.9062 7.40645 23.4375 6.84395C22.9687 6.28145 21.0937 4.5002 20.5312 3.46895C19.9687 2.4377 18.9375 1.59395 17.4375 0.843949C15.9375 0.0939487 12.6562 -0.374801 12.4687 0.468949C12.2812 1.3127 14.1562 3.5627 14.1562 3.5627Z" fill="#999893"/>
<path d="M20.4375 10.0312C22.5603 10.0312 24.2812 8.26837 24.2812 6.09375C24.2812 3.91913 22.5603 2.15625 20.4375 2.15625C18.3147 2.15625 16.5938 3.91913 16.5938 6.09375C16.5938 8.26837 18.3147 10.0312 20.4375 10.0312Z" fill="#999893"/>
<path d="M20.25 9.84375C22.114 9.84375 23.625 8.29074 23.625 6.375C23.625 4.45926 22.114 2.90625 20.25 2.90625C18.386 2.90625 16.875 4.45926 16.875 6.375C16.875 8.29074 18.386 9.84375 20.25 9.84375Z" fill="#E2E0D7"/>
<path d="M14.3438 0.843751C14.3438 0.843751 13.125 3.5625 10.9688 4.21875C8.8125 4.875 4.6875 6.46875 4.125 8.90625C4.125 8.90625 5.25 -0.656249 14.3438 0.843751Z" fill="#827420"/>
<path d="M19.2187 16.4063C21 17.0625 22.5937 18.5625 23.1562 20.7188C23.7187 22.9688 22.9687 25.6875 21.2812 26.9063C20.25 27.75 18.9375 27.9375 17.625 27.9375C14.625 27.9375 11.625 26.9062 8.62497 25.7812C7.59372 25.4062 6.56246 25.0312 5.71871 24.375C4.87497 23.7188 4.12496 22.5937 3.93746 21.375C3.74996 19.5937 4.68747 17.9063 5.99997 17.0625C8.15622 15.5625 10.5 14.9062 12.75 14.9062C14.9062 15 17.3437 15.75 19.2187 16.4063Z" fill="#614D6D"/>
<path d="M18.4688 16.5938C20.0626 17.1563 21.5626 18.4688 22.0313 20.3438C22.5001 22.3125 21.8438 24.6562 20.3438 25.7812C19.4063 26.5312 18.1876 26.7188 17.0626 26.7188C14.3438 26.7188 11.6251 25.7812 8.90633 24.8438C7.96883 24.5625 7.12508 24.1875 6.28133 23.625C5.43758 23.0625 4.78133 22.125 4.68758 21C4.50008 19.5 5.43758 18 6.56258 17.25C8.53133 15.9375 10.5938 15.375 12.6563 15.375C14.5313 15.375 16.6876 16.0313 18.4688 16.5938Z" fill="#957DA1"/>
<path d="M16.1252 17.4375C16.1252 17.4375 12.3752 18.9375 9.56273 23.3437C9.56273 23.3437 8.53148 19.5938 9.18773 16.875C9.18773 16.875 13.0315 18.5625 16.1252 17.4375Z" fill="#FAEACF"/>
<path d="M6.5625 16.875C6.5625 16.875 8.0625 20.625 9.84375 20.9062C11.625 21.2812 14.7188 21.8438 18.75 18L6.5625 16.875Z" fill="#E8CCAA"/>
<path d="M22.6845 10.5741C22.7031 5.4482 18.5628 1.27779 13.4369 1.25921C8.311 1.24064 4.14058 5.38094 4.12201 10.5068C4.10344 15.6327 8.24374 19.8031 13.3696 19.8217C18.4955 19.8403 22.6659 15.7 22.6845 10.5741Z" fill="#A67A65"/>
<path d="M22.2899 9.86649C22.3079 4.89593 18.2931 0.851894 13.3225 0.833883C8.35198 0.815872 4.30795 4.83071 4.28994 9.80127C4.27192 14.7718 8.28676 18.8159 13.2573 18.8339C18.2279 18.8519 22.2719 14.8371 22.2899 9.86649Z" fill="#E5A98C"/>
<path d="M22.1895 9.63683C22.2067 4.87337 18.4431 0.998142 13.7832 0.981257C9.12331 0.964372 5.33172 4.81223 5.31446 9.57568C5.2972 14.3391 9.0608 18.2144 13.7207 18.2313C18.3806 18.2481 22.1722 14.4003 22.1895 9.63683Z" fill="#E8CCAA"/>
<path d="M17.5584 10.8459C17.571 7.37688 14.8529 4.55478 11.4874 4.54259C8.12193 4.53039 5.38347 7.33272 5.3709 10.8018C5.35833 14.2708 8.07641 17.0929 11.4419 17.1051C14.8074 17.1173 17.5458 14.315 17.5584 10.8459Z" fill="#FAEACF"/>
<path d="M14.3397 11.5217C14.3417 10.9522 13.9657 10.4891 13.4997 10.4874C13.0337 10.4857 12.6542 10.9461 12.6522 11.5156C12.6501 12.0852 13.0262 12.5482 13.4922 12.5499C13.9582 12.5516 14.3376 12.0913 14.3397 11.5217Z" fill="#425763"/>
<path d="M13.8794 11.1142C13.88 10.9588 13.7965 10.8326 13.693 10.8322C13.5894 10.8318 13.505 10.9575 13.5044 11.1128C13.5039 11.2681 13.5874 11.3943 13.6909 11.3947C13.7945 11.3951 13.8789 11.2695 13.8794 11.1142Z" fill="white"/>
<path d="M15.2812 4.6877C15.2812 4.6877 15.75 6.65645 16.6875 7.40645C17.625 8.15645 18.0937 10.5002 19.2187 10.5939C20.3437 10.6877 22.3125 12.2814 23.625 11.6252C24.9375 10.9689 25.0312 8.53145 24.5625 7.96895C24.0937 7.40645 22.2187 5.6252 21.6562 4.59395C21.0937 3.5627 20.0625 2.71895 18.5625 1.96895C17.1562 1.21895 13.7812 0.750199 13.5937 1.59395C13.4062 2.4377 15.2812 4.6877 15.2812 4.6877Z" fill="#999893"/>
<path d="M7.74202 10.0628C7.74408 9.49321 7.36799 9.03014 6.902 9.02845C6.43601 9.02676 6.05658 9.4871 6.05452 10.0566C6.05245 10.6262 6.42854 11.0893 6.89453 11.0909C7.36052 11.0926 7.73995 10.6323 7.74202 10.0628Z" fill="#425763"/>
<path d="M7.18803 9.65468C7.18859 9.49935 7.1051 9.37312 7.00155 9.37275C6.898 9.37237 6.81359 9.49799 6.81303 9.65332C6.81247 9.80865 6.89596 9.93487 6.99951 9.93525C7.10306 9.93562 7.18747 9.81001 7.18803 9.65468Z" fill="white"/>
<path d="M19.4062 11.2502C19.4062 11.2502 20.1562 10.6877 20.8125 10.8752C21.4688 11.0627 21.375 13.0314 19.7812 13.2189L19.4062 11.2502Z" fill="#FAEACF"/>
<path d="M11.7188 15.6563C11.7188 15.6563 10.875 15.5625 10.3125 15.0938C9.75 14.625 9.09375 14.7188 9 14.7188C8.90625 14.7188 8.625 14.5312 8.4375 14.4375C8.25 14.3438 7.96875 14.3438 7.96875 14.4375C7.96875 14.5312 8.25 15 8.25 15C8.25 15 8.34375 15.375 8.25 15.5625C8.15625 15.75 8.25 16.4063 8.90625 16.5C9.5625 16.5938 10.0312 16.5938 10.3125 16.4063C10.5938 16.2188 11.7188 15.6563 11.7188 15.6563Z" fill="#A87483"/>
<path d="M4.21875 7.59376L6.75 6.00001C7.3125 5.62501 8.0625 5.06251 8.8125 4.78126C9.46875 4.31251 10.0312 3.93751 10.5938 3.75001C12.9375 3.09376 14.25 1.03228e-05 14.25 1.03228e-05C6.75 -0.37499 4.6875 4.12501 4.21875 7.59376Z" fill="#999893"/>
<path d="M12.1873 3.46875C12.1873 3.46875 14.7186 4.6875 15.9373 6.65625C17.1561 8.625 19.2186 11.5312 22.6873 10.7812C22.6873 10.7812 23.0623 0.84375 12.5623 0.65625C12.5623 0.65625 10.0311 2.53125 12.1873 3.46875Z" fill="#E2E0D7"/>
<path d="M13.5938 0.843783C13.5938 0.843783 12.4687 3.84378 10.5 4.50003C8.53125 5.15628 4.6875 6.75003 4.125 9.18753C4.125 9.18753 5.15625 -0.562467 13.5938 0.843783Z" fill="#E2E0D7"/>
<path d="M16.875 12.0936C16.875 13.5936 15.6563 14.8124 14.0625 14.8124C12.2813 14.8124 10.6875 13.4061 10.5938 11.5311C10.5 9.65611 12.0938 8.34361 13.9688 8.62486C15.6563 8.99986 16.875 10.4999 16.875 12.0936ZM9.46879 10.1249C9.46879 11.5311 8.43754 12.5624 7.03129 12.5624C5.53129 12.5624 4.12504 11.2499 4.03129 9.65611C3.93754 7.96861 5.34379 6.84361 6.93754 7.03111C8.43754 7.31236 9.46879 8.62486 9.46879 10.1249Z" stroke="#425763" stroke-width="0.623438" stroke-miterlimit="10"/>
<path d="M16.9688 11.625L19.5 11.25" stroke="#425763" stroke-width="0.623438" stroke-miterlimit="10" stroke-linecap="round"/>
<path d="M14.7189 5.0627C14.7189 5.0627 15.1877 7.03145 16.1252 7.78145C17.0627 8.6252 17.5314 10.8752 18.6564 10.9689C19.7814 11.0627 21.7502 12.6565 23.0627 12.0002C24.3752 11.344 24.4689 8.90645 24.0002 8.34395C23.5314 7.78145 21.6564 6.0002 21.0939 4.96895C20.5314 3.9377 19.5002 3.09395 18.0002 2.34395C16.5002 1.59395 13.3127 1.1252 13.1252 1.96895C12.9377 2.8127 14.7189 5.0627 14.7189 5.0627Z" fill="#E2E0D7"/>
<path d="M20.7188 11.4375C20.7188 11.4375 21.8437 13.5938 21.5625 14.1562C21.2812 14.7188 23.9062 12.8438 24 10.5938C24.0938 8.34375 21.5625 8.25 21.5625 8.25L20.7188 11.4375Z" fill="#E2E0D7"/>
<path d="M11.8125 3.5625C11.8125 3.5625 13.6875 4.875 14.0625 5.8125C14.4375 6.75 17.625 9.84375 17.625 9.84375C17.625 9.84375 16.125 7.78125 15.6563 6.5625C15.1875 5.53125 14.0625 4.125 12.1875 3.46875L11.8125 3.5625Z" fill="#C4C4C4"/>
<path d="M21 11.8125C21 11.8125 22.6875 13.2187 22.7812 13.9687L21.4688 15C21.375 15.0937 21.6562 12.6562 21 11.8125Z" fill="#999893"/>
<path d="M14.6249 1.87503C14.6249 1.87503 16.8749 1.96878 17.9999 3.28128C19.1249 4.50003 21.6562 7.68753 22.5937 8.06253C23.5312 8.43753 23.7187 10.6875 22.5937 10.4063C21.4687 10.0313 18.8437 7.87503 18.8437 7.87503C18.8437 7.87503 17.9062 7.31253 17.3437 5.62503C16.7812 3.75003 14.6249 1.87503 14.6249 1.87503ZM10.7812 1.68753C11.0624 1.59378 12.4687 1.31253 12.2812 2.06253C12.0937 2.81253 8.15617 3.37503 8.06242 3.46878C7.96867 3.46878 8.71867 2.15628 10.7812 1.68753Z" fill="#EFEFEF"/>
<path d="M19.219 10.875C19.219 10.875 20.8127 16.2188 19.3127 17.3438C17.8127 18.5625 24.469 15.0938 24.6565 13.125C24.844 11.1563 24.0002 8.90625 24.0002 8.90625L19.219 10.875Z" fill="#E2E0D7"/>
<path d="M24.2811 9.28125C24.2811 9.28125 23.8124 9.75 23.9999 10.5C24.1874 11.25 24.6561 13.4063 23.8124 13.9688L19.0311 17.25C19.0311 17.25 18.4686 17.625 19.4061 17.625C20.3436 17.625 21.9374 17.25 22.9686 16.0313C23.9999 14.8125 24.9374 14.625 25.1249 13.3125C25.3124 12 24.6561 9.375 24.6561 9.375L24.2811 9.28125Z" fill="#999893"/>
<path d="M19.6875 13.4062C19.6875 13.4062 20.1563 15.0937 19.7813 15.9375C19.3125 16.7812 19.2188 17.4375 19.2188 17.4375L21.75 16.4062L19.6875 13.4062Z" fill="#999893"/>
<path opacity="0.4" d="M19.7813 17.7187C19.7813 17.7187 21.0938 22.4062 18.4688 24C15.8438 25.5938 11.625 25.6875 11.625 25.6875C11.625 25.6875 14.1562 26.9062 15.75 27.1875C17.3437 27.4687 20.0625 28.125 21.6563 25.2187C23.25 22.3125 22.3125 18.1875 20.5312 17.5312L19.7813 17.7187Z" fill="#614D6D"/>
<path d="M7.78125 17.9063C7.78125 17.9063 7.5 19.3125 8.34375 20.25C9.1875 21.1875 8.25 20.3438 8.25 20.3438C8.25 20.3438 6.375 18.1875 6.375 16.9688L6.5625 16.875L7.78125 17.9063Z" fill="#614D6D"/>
<path d="M14.5313 21.1875L14.1563 26.5312L9.46878 25.3125C8.15628 24.8438 6.00003 23.4375 6.09378 23.5313L7.78128 19.5938C7.78128 19.5938 11.5313 21.75 14.5313 21.1875Z" fill="#DACCE2"/>
<path d="M8.0625 20.625L11.4375 21.75L10.4063 24.8438L7.125 23.4375L8.0625 20.625Z" fill="#E8DFEF"/>
<path d="M13.4062 21.375L13.875 26.7188L14.625 26.8125L15.0938 20.625L13.4062 21.375Z" fill="#614D6D"/>
<path d="M9.46875 10.3125L10.5937 10.5938" stroke="#425763" stroke-width="0.623438" stroke-miterlimit="10" stroke-linecap="round"/>
<path opacity="0.16" d="M20.8125 16.3125L19.6875 13.2188C19.6875 13.2188 21.9375 12.6562 22.5 12.1875L24.2812 10.5938L24.5625 12.5625C24.5625 12.5625 24.9375 14.1563 24 14.625C23.1563 15.1875 20.8125 16.3125 20.8125 16.3125Z" fill="#999893"/>
<path d="M15.5625 27.4687L15.2812 27.9375L16.875 29.0625L26.25 19.7813L24.75 17.8125L15.5625 27.4687Z" fill="#9A4C18"/>
<path d="M26.4373 22.4062C26.1561 26.0625 22.6873 29.25 18.8436 29.1563C15.0936 29.1563 12.6561 25.9688 13.4061 22.4062C14.0623 19.0312 17.3436 16.4062 20.7186 16.3125C24.1873 16.3125 26.7186 18.9375 26.4373 22.4062Z" fill="#9A4C18"/>
<path d="M27.3746 23.5313C27.0934 27.0938 23.7184 30.0938 19.9684 30C16.3121 30 13.9684 27 14.6246 23.5313C15.2809 20.3438 18.4684 17.8125 21.7496 17.7188C25.1246 17.7188 27.6559 20.25 27.3746 23.5313Z" fill="#9A4C18"/>
<path d="M16.6875 27.6562L18.2813 28.5L25.875 20.5312L24.6562 18.8438L16.6875 27.6562Z" fill="#F49937"/>
<path d="M26.6251 23.5312C26.3438 26.5312 23.5313 29.0625 20.4376 29.0625C17.3438 29.0625 15.3751 26.5312 15.9376 23.5312C16.5001 20.7187 19.1251 18.5625 21.9376 18.4688C24.8438 18.5625 26.9063 20.7187 26.6251 23.5312Z" fill="#F49937"/>
<path d="M25.6875 22.3125C25.4062 25.5 22.4062 28.2188 19.125 28.2188C15.8437 28.2188 13.6875 25.5 14.3437 22.3125C14.9062 19.3125 17.7187 16.9688 20.7187 16.9688C23.625 16.9688 25.9687 19.3125 25.6875 22.3125Z" fill="#FFEDC0"/>
<path d="M25.2188 22.5937C24.9376 25.5938 22.1251 28.125 19.0313 28.125C15.9376 28.125 13.9688 25.5938 14.5313 22.5937C15.0938 19.7812 17.7188 17.625 20.5313 17.5312C23.4376 17.5312 25.5001 19.6875 25.2188 22.5937Z" fill="#FFD766"/>
<path d="M23.9999 22.5938C23.7187 24.9375 21.5624 26.8125 19.2187 26.8125C16.8749 26.8125 15.2812 24.8438 15.7499 22.5938C16.1249 20.4375 18.1874 18.6562 20.4374 18.6562C22.5937 18.6562 24.2812 20.3438 23.9999 22.5938Z" fill="#FFEDC0"/>
<path d="M24.0937 22.0313C23.8124 24.2813 21.7499 26.25 19.3124 26.25C16.9687 26.25 15.3749 24.375 15.8437 22.0313C16.2187 19.875 18.2812 18.1875 20.5312 18.0938C22.6874 18.0938 24.2812 19.7813 24.0937 22.0313Z" fill="#F49937"/>
<path d="M23.3436 22.5938C23.1561 24.5625 21.2811 26.1562 19.3123 26.1562C17.3436 26.1562 16.0311 24.5625 16.3123 22.5938C16.5936 20.7188 18.3748 19.2188 20.2498 19.2188C22.2186 19.2188 23.6248 20.7188 23.3436 22.5938Z" fill="#FFD766"/>
<path d="M20.9062 18.8438L21.375 21L23.7187 21.5625L21.5625 23.0625L21.375 25.5L19.5 24.0938L17.0625 24.9375L18.0937 22.5938L16.875 20.8125L19.3125 20.7188L20.9062 18.8438Z" fill="#F49937"/>
</g>
<defs>
<clipPath id="clip0_1_13924">
<rect width="30" height="30" fill="white"/>
</clipPath>
</defs>
</svg>
