<svg width="30" height="30" viewBox="0 0 30 30" fill="none" xmlns="http://www.w3.org/2000/svg">
<g clip-path="url(#clip0_1_3826)">
<path d="M19.8752 28.5L19.7814 29.9063H23.3439C23.3439 29.9063 23.7189 29.4375 23.3439 29.25C22.9689 29.0625 21.3752 28.4062 21.3752 28.4062L19.8752 28.5ZM19.4064 28.5L19.5002 29.9063H15.9377C15.9377 29.9063 15.5627 29.4375 15.9377 29.25C16.3127 29.0625 17.9064 28.4062 17.9064 28.4062L19.4064 28.5Z" fill="#604E46"/>
<path d="M19.875 18.0938L19.3125 22.6875L19.5 28.7813H17.625L17.1562 22.6875L17.3438 18.375L19.875 18.0938Z" fill="#3D5E7F"/>
<path d="M19.5 18.0938L20.0625 22.6875L19.875 28.7813H21.75L22.2188 22.6875L22.0313 18.375L19.5 18.0938Z" fill="#3D5E7F"/>
<path d="M7.68751 2.15635C7.68751 2.15635 7.03126 1.78135 5.90626 2.0626C4.78126 2.34385 3.18751 4.03135 3.37501 6.09385C3.56251 8.0626 4.87501 10.6876 7.21876 10.6876C9.56251 10.6876 10.875 8.15635 10.9688 7.6876C11.0625 7.21885 11.7188 1.8751 7.68751 2.15635Z" fill="#7F5F52"/>
<path d="M10.7812 11.7189C10.125 11.2501 9.375 12.2814 9.375 12.2814C9.09375 12.5626 9 13.1251 9 13.1251L9.375 13.5001L11.1562 16.3126C11.3438 16.6876 12 16.7814 12.4688 16.5939C12.9375 16.4064 12.8437 15.9376 12.8437 15.9376C12.8437 15.9376 11.3438 12.0939 10.7812 11.7189ZM3.5625 11.9064C4.03125 11.3439 5.0625 12.0939 5.0625 12.0939C5.34375 12.2814 5.625 12.7501 5.625 12.7501L5.34375 13.2189L4.40625 16.4064C4.3125 16.8751 3.75 17.0626 3.28125 17.0626C2.71875 16.9689 2.71875 16.5001 2.71875 16.5001C2.71875 16.5001 3 12.4689 3.5625 11.9064Z" fill="#57934D"/>
<path d="M2.81266 16.5936C3.18766 15.9374 3.37516 16.1249 3.37516 16.1249L4.31266 16.8749C4.31266 16.8749 4.31266 17.4374 4.21891 17.9061L3.93766 19.6874C3.93766 19.8749 3.84391 20.1561 3.56266 20.1561C3.37516 20.1561 3.18766 20.2499 3.09391 20.1561C3.00016 20.0624 2.62516 19.8749 2.53141 19.5936C2.53141 19.3124 2.43766 17.2499 2.81266 16.5936Z" fill="#EFBF9E"/>
<path d="M3.09375 19.5938C3.09375 19.5938 3.75 19.9688 4.03125 20.25C4.3125 20.625 4.6875 21.1875 4.40625 21.4687C4.21875 21.75 4.125 21.9375 3.84375 21.75C3.5625 21.4688 3.1875 21.5625 3 21.0938C2.8125 20.625 2.71875 19.6875 2.71875 19.6875L3.09375 19.5938Z" fill="#EFBF9E"/>
<path d="M6.28125 8.90625C6.28125 8.90625 6.375 10.5938 5.8125 11.5312L9 11.625C9 11.625 8.25 10.5938 8.34375 8.71875C8.25 8.8125 6.9375 9.28125 6.28125 8.90625Z" fill="#E2A881"/>
<path d="M9.65616 3.75002C9.09366 2.71877 7.59366 2.81252 7.21866 2.81252C6.93741 2.81252 5.43741 2.71877 4.78116 3.75002C4.12491 4.96877 4.21866 9.18752 7.21866 9.56252C10.2187 9.18752 10.3124 4.87502 9.65616 3.75002Z" fill="#EFBF9E"/>
<path d="M9.18727 16.2187C8.99977 15.2812 9.37477 13.875 9.65602 13.4062C9.93727 12.9375 10.6873 11.8125 10.4998 11.5312C10.406 11.25 8.24977 10.9688 7.68727 10.875H6.56227C5.99977 10.9688 3.84352 11.3437 3.74977 11.5312C3.65602 11.8125 4.40602 12.9375 4.59352 13.4062C4.87477 13.875 5.24977 15.1875 5.06227 16.2187C5.06227 16.2187 4.21852 17.1563 4.12477 17.5313C4.03102 17.9063 3.74977 19.5 6.74977 19.5H7.31227C10.3123 19.5 10.031 17.9063 9.93727 17.5313C10.031 17.1563 9.18727 16.2187 9.18727 16.2187Z" fill="#417F38"/>
<path d="M6.65638 18.1876L7.03138 22.6876C7.03138 22.6876 6.75013 24.1876 7.12513 24.2813C7.50013 24.3751 8.81263 24.4688 9.00013 23.4376C9.18763 22.3126 10.1251 19.1251 10.1251 18.9376C10.1251 18.7501 10.5001 17.2501 9.28138 16.3126C9.28138 16.3126 6.37513 16.0313 6.65638 18.1876Z" fill="#3D5E7F"/>
<path d="M9.1875 29.3438C9 28.6876 8.625 27.8438 8.8125 27.4688C9 27.0938 9.28125 25.6876 9.09375 25.3126C8.90625 24.9376 9 23.8126 9 23.8126C8.53125 22.9688 7.03125 23.5313 7.03125 23.8126C6.9375 24.2813 6.84375 25.0313 6.84375 25.3126C6.84375 25.5938 6.84375 26.5313 7.125 26.8126C7.40625 27.0938 7.03125 28.7813 7.03125 28.7813C7.03125 28.7813 6.9375 29.0626 6.84375 29.5313C7.3125 29.4376 8.71875 29.3438 9.1875 29.3438Z" fill="#3D5E7F"/>
<path d="M8.99989 28.9687C8.90614 28.9687 8.90614 28.875 8.90614 28.875C8.24989 28.875 7.96864 28.6875 7.31239 28.6875C7.21864 28.7813 6.84364 29.0625 6.74989 29.25C6.65614 29.625 7.31239 30 7.31239 30C7.31239 30 8.24989 30.1875 9.28114 30C10.3124 29.7187 9.46864 29.25 8.99989 28.9687Z" fill="#604E46"/>
<path d="M7.59367 18.2814L6.84367 22.7814C6.84367 22.7814 7.03117 24.2814 6.56242 24.3751C6.09367 24.4689 4.87492 24.4689 4.78117 23.3439C4.68742 22.2189 4.12492 18.9376 4.12492 18.7501C4.12492 18.5626 3.84367 16.9689 5.15617 16.2189C5.15617 16.2189 8.06242 16.1251 7.59367 18.2814Z" fill="#3D5E7F"/>
<path d="M4.3125 29.1564C4.5 28.5002 4.96875 27.7502 4.875 27.2814C4.6875 26.9064 4.5 25.5002 4.6875 25.1252C4.875 24.7502 4.875 23.6252 4.875 23.6252C5.4375 22.8752 6.84375 23.4377 6.84375 23.7189C6.84375 24.1877 6.9375 24.9377 6.9375 25.2189C6.84375 25.5002 6.84375 26.4377 6.46875 26.7189C6.09375 27.0002 6.375 28.6877 6.375 28.6877C6.375 28.6877 6.46875 28.9689 6.5625 29.4377C6.1875 29.3439 4.78125 29.1564 4.3125 29.1564Z" fill="#3D5E7F"/>
<path d="M4.50002 28.7811C4.59377 28.7811 4.59377 28.6874 4.68752 28.6874C5.34377 28.7811 5.62502 28.4999 6.28127 28.5936C6.28127 28.6874 6.75002 29.0624 6.75002 29.1561C6.84377 29.5311 6.09377 29.9061 6.09377 29.9061C6.09377 29.9061 5.15627 30.0936 4.12502 29.9061C3.09377 29.6249 4.03127 29.0624 4.50002 28.7811Z" fill="#604E46"/>
<path d="M12.8438 15.6562C12.1875 15.1874 12.1875 15.4687 12.1875 15.4687L11.625 16.5937C11.625 16.5937 11.9063 17.1562 12.1875 17.5312L13.2188 19.0312C13.3125 19.2187 13.5 19.4062 13.7813 19.3124C13.9688 19.2187 14.1563 19.2187 14.1563 19.1249C14.25 19.0312 14.4375 18.6562 14.3438 18.3749C14.25 17.9062 13.5 16.0312 12.8438 15.6562Z" fill="#EFBF9E"/>
<path d="M12.9375 18.2812C12.9375 18.2812 12.9375 19.0312 13.125 19.4062C13.2187 19.875 13.6875 20.4375 13.9687 20.3438C14.25 20.25 14.5312 20.3437 14.4375 19.9687C14.3437 19.5937 14.625 19.3125 14.3438 18.9375C14.0625 18.5625 13.3125 18 13.3125 18L12.9375 18.2812Z" fill="#EFBF9E"/>
<path d="M8.53125 5.90625C8.84191 5.90625 9.09375 5.65441 9.09375 5.34375C9.09375 5.03309 8.84191 4.78125 8.53125 4.78125C8.22059 4.78125 7.96875 5.03309 7.96875 5.34375C7.96875 5.65441 8.22059 5.90625 8.53125 5.90625Z" fill="#604E46"/>
<path d="M6.1875 5.90625C6.49816 5.90625 6.75 5.65441 6.75 5.34375C6.75 5.03309 6.49816 4.78125 6.1875 4.78125C5.87684 4.78125 5.625 5.03309 5.625 5.34375C5.625 5.65441 5.87684 5.90625 6.1875 5.90625Z" fill="#604E46"/>
<path d="M9.46875 15.0938L9 16.3125C9 16.3125 7.40625 15.75 5.4375 16.3125L5.25 15.1875L5.4375 14.4375C5.4375 14.4375 6.28125 13.875 9.09375 14.25L9.46875 15.0938Z" fill="#417F38"/>
<path d="M7.59367 14.1563L8.34367 13.5938C8.62492 13.4062 9.37492 13.125 9.74992 13.125C10.2187 13.2188 10.5937 13.6875 10.4999 14.25C10.4062 14.7187 10.4999 15.375 9.74992 15.5625C8.99992 15.75 8.90617 15.6563 8.62492 15.5625C8.24992 15.4688 7.78117 14.9063 7.59367 14.1563ZM6.84367 14.1563L6.09367 13.5938C5.81242 13.4062 5.06242 13.125 4.68742 13.125C4.31242 13.125 3.84367 13.6875 3.93742 14.25C4.03117 14.7187 3.93742 15.375 4.68742 15.5625C5.43742 15.75 5.53117 15.6563 5.81242 15.5625C6.18742 15.4688 6.65617 14.9063 6.84367 14.1563Z" fill="#417F38"/>
<path d="M6.09375 7.5C6.09375 7.5 7.875 7.5 8.625 7.125C8.625 7.125 8.34375 8.15625 7.21875 8.15625C6.09375 8.25 6.09375 7.5 6.09375 7.5Z" fill="#AF664B"/>
<path d="M7.40644 2.34375C7.40644 2.34375 6.84394 4.5 10.0314 6.09375C10.0314 6.09375 10.6877 4.78125 10.4064 4.21875C10.0314 3.65625 9.56269 2.34375 7.40644 2.34375Z" fill="#604E46"/>
<path d="M7.78125 2.81258C7.78125 2.81258 7.03125 4.78133 4.3125 4.96883C4.3125 4.96883 4.5 3.00008 5.90625 2.81258C7.21875 2.62508 7.78125 2.81258 7.78125 2.81258Z" fill="#A37464"/>
<path d="M16.4998 10.125C17.1561 9.65625 17.9061 10.7813 17.9061 10.7813C18.1873 11.0625 18.2811 11.625 18.2811 11.625L17.9061 12L16.1248 15.0938C15.9373 15.4688 15.2811 15.5625 14.8123 15.375C14.3436 15.1875 14.4373 14.625 14.4373 14.625C14.4373 14.625 15.8436 10.5938 16.4998 10.125ZM23.1561 10.5C22.6873 9.84375 22.2186 10.5938 22.2186 10.5938C21.9373 10.7813 21.6561 11.3438 21.6561 11.3438L21.9373 11.8125L22.8748 15.2813C22.9686 15.75 23.5311 16.0313 23.9998 15.9375C24.5623 15.8438 24.5623 15.375 24.5623 15.375C24.5623 15.375 23.6248 11.1563 23.1561 10.5Z" fill="#EFBF9E"/>
<path d="M24.4688 15.3749C24.0938 14.7186 23.9063 14.9061 23.9063 14.9061L22.875 15.6561C22.875 15.6561 22.875 16.3124 22.9688 16.7811C23.0625 17.2499 23.25 18.7499 23.25 18.7499C23.25 19.0311 23.3438 19.2186 23.625 19.3124C23.8125 19.3124 24 19.4061 24.0938 19.3124C24.1875 19.2186 24.5625 19.0311 24.6562 18.6561C24.75 18.3749 24.8438 16.1249 24.4688 15.3749Z" fill="#EFBF9E"/>
<path d="M24.1875 18.6562C24.1875 18.6562 23.5312 19.0313 23.25 19.4063C22.9687 19.7813 22.5938 20.4375 22.875 20.7188C23.0625 21 23.1563 21.2812 23.4375 21C23.7188 20.7188 24.0938 20.8125 24.2812 20.3438C24.4688 19.875 24.5625 18.8438 24.5625 18.8438L24.1875 18.6562Z" fill="#EFBF9E"/>
<path d="M20.625 7.59375C20.625 7.59375 20.5313 9.28125 21.1875 10.2187L17.8125 10.3125C17.8125 10.3125 18.6563 9.28125 18.4688 7.40625C18.5625 7.40625 19.875 7.875 20.625 7.59375Z" fill="#E2A881"/>
<path d="M17.0626 2.34375C17.7189 1.3125 19.3126 1.40625 19.5939 1.40625C19.8751 1.40625 21.5626 1.21875 22.1251 2.34375C22.7814 3.5625 22.6876 7.875 19.5939 8.15625C16.5001 7.78125 16.3126 3.46875 17.0626 2.34375Z" fill="#EFBF9E"/>
<path d="M22.2186 18.8438L22.1248 15C21.9373 13.9688 22.3123 12.4688 22.5936 12C22.8748 11.5312 22.9686 10.4062 22.8748 10.0312C22.7811 9.75 21.2811 9.28125 20.7186 9.1875H19.5936C19.0311 9.28125 16.8748 9.65625 16.7811 9.9375C16.6873 10.2188 16.9686 11.625 17.2498 12.0937C17.5311 12.5625 17.3436 17.625 17.1561 18.6562L22.2186 18.8438Z" fill="#417F38"/>
<path d="M14.625 14.3437C15.0938 13.7812 15.2812 13.9687 15.2812 13.9687L16.125 15C16.125 15 16.0312 15.6562 15.75 16.125C15.5625 16.5937 15.1875 17.9062 15.1875 17.9062C15.1875 18.1875 15 18.375 14.7188 18.2812C14.5312 18.2812 14.3438 18.2812 14.25 18.1875C14.1562 18.0937 13.875 17.8125 13.7812 17.4375C13.7812 17.1562 14.1563 15 14.625 14.3437Z" fill="#EFBF9E"/>
<path d="M15.1877 17.8125C15.1877 17.8125 14.9064 18.5625 14.6252 18.9375C14.3439 19.3125 13.7814 19.6875 13.5002 19.5937C13.2189 19.4062 12.9377 19.4063 13.1252 18.9375C13.3127 18.5625 13.1252 18.1875 13.5939 17.9062C14.0627 17.625 14.9064 17.4375 14.9064 17.4375L15.1877 17.8125Z" fill="#EFBF9E"/>
<path d="M18.2813 4.5C18.5919 4.5 18.8438 4.24816 18.8438 3.9375C18.8438 3.62684 18.5919 3.375 18.2813 3.375C17.9706 3.375 17.7188 3.62684 17.7188 3.9375C17.7188 4.24816 17.9706 4.5 18.2813 4.5Z" fill="#604E46"/>
<path d="M20.7188 4.5C21.0294 4.5 21.2813 4.24816 21.2813 3.9375C21.2813 3.62684 21.0294 3.375 20.7188 3.375C20.4081 3.375 20.1562 3.62684 20.1562 3.9375C20.1562 4.24816 20.4081 4.5 20.7188 4.5Z" fill="#604E46"/>
<path d="M20.3438 6.1875C20.3438 6.1875 19.125 6.1875 18.5625 5.8125C18.5625 5.8125 18.75 6.65625 19.5 6.75C20.25 6.84375 20.3438 6.1875 20.3438 6.1875Z" fill="#AF664B"/>
<path opacity="0.4" d="M4.78125 14.0626C4.78125 14.0626 4.78125 13.5001 5.8125 13.4063C6.84375 13.3126 9.375 13.3126 9.65625 13.6876C9.9375 14.1563 9.65625 14.6251 9.09375 14.6251C8.53125 14.6251 5.53125 14.7188 5.15625 14.5313C4.875 14.5313 4.78125 14.0626 4.78125 14.0626Z" fill="#57934D"/>
<path d="M21.375 1.96878L18.0937 2.06253C17.25 1.96878 16.6875 1.31253 16.6875 1.03128C16.6875 0.750026 17.9063 -0.187474 19.2188 0.0937762C20.5313 0.375026 22.0313 1.03128 22.125 1.31253C22.2188 1.68753 21.75 1.96878 21.375 1.96878Z" fill="#604E46"/>
<path d="M21.1874 1.59375C21.1874 1.59375 22.0312 2.90625 22.0312 3.375C22.0312 3.84375 22.1249 5.0625 22.5937 4.59375C23.0624 4.125 23.9999 2.0625 22.0312 1.21875C22.1249 1.3125 21.2812 1.40625 21.1874 1.59375ZM17.9062 1.78125C17.9062 1.78125 17.2499 3.65625 16.9687 3.75C16.8749 3.75 16.2187 2.8125 17.2499 1.5L17.9062 1.78125Z" fill="#604E46"/>
<path d="M18.8438 11.3438L17.1562 13.2188L15.5625 11.5313L16.5 9.93751C16.6875 9.75001 18 10.125 18 10.125L18.8438 11.3438ZM21.0937 11.3438L22.4062 13.2188L23.8125 12.375C23.8125 12.375 23.7187 10.5938 22.7812 10.0313C22.5 9.84376 22.0312 10.125 22.0312 10.125L21.0937 11.3438Z" fill="#417F38"/>
<path d="M17.7188 10.2188C17.7188 10.2188 20.25 9.65626 21.4688 10.3125L21.1875 13.875L21.2813 17.9063L18 17.8125L18.375 13.6875L17.7188 10.2188Z" fill="#57934D"/>
<path d="M8.0625 17.5312H9.1875L9 19.7812L8.4375 25.3125L8.34375 27.6562L7.875 27.4687L7.78125 25.125V21L7.6875 17.625L8.0625 17.5312ZM5.53125 17.5312H6.65625L6.46875 19.7812L5.90625 25.3125L5.8125 27.6562L5.34375 27.4687L5.25 25.125V21L5.15625 17.625L5.53125 17.5312Z" fill="#426884"/>
<path d="M20.5312 15C20.625 15 20.625 15 20.625 14.7187C20.625 14.0625 20.5312 14.0625 20.0625 14.0625H18.75V15H19.875C20.25 15.0938 20.4375 15.0938 20.5312 15ZM20.625 12.4688C20.625 12.1875 20.5313 12.1875 19.875 12.1875H18.75V13.125H19.9687C20.5312 13.125 20.625 13.125 20.625 12.4688Z" stroke="#417F38" stroke-width="0.30075" stroke-miterlimit="10"/>
<path d="M7.40625 13.2188C7.21875 13.2188 7.03125 13.125 6.9375 13.125C6.5625 13.0313 6.5625 13.0313 6.5625 12.6563C6.5625 12.4688 6.65625 12.2813 7.3125 12.2813C7.875 12.2813 8.53125 12.4687 8.8125 12.5625H8.90625L9.1875 11.625H9.09375C8.625 11.4375 7.78125 11.3438 7.21875 11.3438C6.09375 11.3438 5.4375 11.9063 5.4375 12.75C5.4375 14.0625 6.09375 14.1563 7.6875 14.5312H7.78125C8.25 14.625 8.25 14.625 8.25 15C8.25 15.375 8.0625 15.4688 7.5 15.4688L5.625 15H5.53125V15.0938C5.4375 15.2813 5.4375 15.4687 5.34375 15.75L5.15625 15.9375H5.25C5.71875 16.125 6.5625 16.3125 7.3125 16.3125C8.25 16.3125 9.28125 16.125 9.28125 14.8125C9.28125 13.6875 8.34375 13.4063 7.40625 13.2188ZM21.375 12.9375C21.6562 12.75 21.8438 12.4688 21.8438 11.8125C21.8438 10.6875 21.2813 10.5 19.875 10.5H17.7188V15.4688H19.875C21.1875 15.4688 21.8438 15.2813 21.8438 14.1563C21.8438 13.5 21.6562 13.125 21.375 12.9375ZM18.8438 13.5H20.1563C20.625 13.5 20.7188 13.5 20.7188 14.1563C20.7188 14.3438 20.625 14.4375 20.625 14.4375H18.9375V13.5H18.8438ZM18.8438 12.4688V11.5313H19.9688C20.625 11.5313 20.7188 11.625 20.7188 11.8125C20.7188 12.4688 20.625 12.4688 20.1563 12.4688H18.8438Z" fill="white" stroke="#417F38" stroke-width="0.30075" stroke-miterlimit="10"/>
<path d="M17.625 27.4688L17.3438 27.9375L18.9375 28.9688L27.9375 20.0625L26.4375 18.1875L17.625 27.4688Z" fill="#9A4C18"/>
<path d="M28.1251 22.5938C27.8438 26.1563 24.5626 29.1563 20.8126 29.1563C17.1563 29.1563 14.8126 26.0626 15.5626 22.5938C16.2188 19.3126 19.3126 16.7813 22.5938 16.7813C25.8751 16.6876 28.4063 19.2188 28.1251 22.5938Z" fill="#9A4C18"/>
<path d="M29.0628 23.7189C28.7815 27.0939 25.594 30.0002 21.9378 30.0002C18.3753 30.0002 16.1253 27.0939 16.7815 23.8127C17.4378 20.7189 20.4378 18.2814 23.6253 18.1877C26.9065 18.0939 29.344 20.5314 29.0628 23.7189Z" fill="#9A4C18"/>
<path d="M18.6562 27.6562L20.1563 28.5L27.5625 20.8125L26.3438 19.125L18.6562 27.6562Z" fill="#F49937"/>
<path d="M28.3124 23.7187C28.0311 26.625 25.3124 29.0625 22.3124 29.0625C19.3124 29.0625 17.4374 26.625 17.9999 23.7187C18.4686 21 21.0936 18.9375 23.8124 18.8438C26.5311 18.8438 28.5936 21 28.3124 23.7187Z" fill="#F49937"/>
<path d="M27.3752 22.5C27.0939 25.5937 24.1877 28.2188 21.0002 28.2188C17.8127 28.2188 15.7502 25.5937 16.4064 22.5C16.9689 19.5938 19.6877 17.3438 22.5939 17.3438C25.4064 17.3438 27.6564 19.5938 27.3752 22.5Z" fill="#FFEDC0"/>
<path d="M26.9061 22.7812C26.6249 25.6875 23.9061 28.125 20.9061 28.125C17.9061 28.125 16.0311 25.6875 16.5936 22.7812C17.0624 20.0625 19.6874 18 22.4061 17.9062C25.2186 17.9062 27.1874 20.0625 26.9061 22.7812Z" fill="#FFD766"/>
<path d="M25.7811 22.7813C25.4998 25.0313 23.4373 26.9063 21.1873 26.9063C18.9373 26.9063 17.4373 25.0313 17.8123 22.8751C18.1873 20.7188 20.1561 19.1251 22.3123 19.0313C24.4686 18.9376 25.9686 20.6251 25.7811 22.7813Z" fill="#FFEDC0"/>
<path d="M25.8748 22.2188C25.6873 24.4688 23.5311 26.25 21.2811 26.25C19.0311 26.25 17.5311 24.375 17.9061 22.2188C18.2811 20.1562 20.2498 18.4688 22.4061 18.4688C24.4686 18.4688 26.0623 20.0625 25.8748 22.2188Z" fill="#F49937"/>
<path d="M25.1249 22.7813C24.9374 24.6563 23.1561 26.25 21.1874 26.25C19.3124 26.25 17.9999 24.6563 18.2811 22.7813C18.5624 21 20.2499 19.5938 22.1249 19.5C23.9999 19.5 25.3124 21 25.1249 22.7813Z" fill="#FFD766"/>
<path d="M22.6875 19.2188L23.25 21.2813L25.5 21.8437L23.4375 23.25L23.25 25.5937L21.375 24.1875L19.0312 25.0313L20.0625 22.875L18.8438 21.0937L21.1875 21L22.6875 19.2188Z" fill="#F49937"/>
</g>
<defs>
<clipPath id="clip0_1_3826">
<rect width="30" height="30" fill="white"/>
</clipPath>
</defs>
</svg>
