<svg width="30" height="30" viewBox="0 0 30 30" fill="none" xmlns="http://www.w3.org/2000/svg">
<g clip-path="url(#clip0_1_8725)">
<path d="M21.9375 18.6562C21.9375 18.6562 23.9063 13.9688 23.3438 9.28125L18.0938 16.3125L21.9375 18.6562Z" fill="#807CA5"/>
<path d="M20.8126 17.9063C22.7813 18.5625 24.5626 20.1562 25.1251 22.4062C25.7813 24.75 24.8438 27.4688 23.1563 28.7813C22.0313 29.625 20.5313 29.8125 19.2188 29.9062C15.9376 29.9062 12.6563 28.7812 9.37506 27.6562C8.25006 27.2812 7.12506 26.9062 6.18756 26.1562C5.25006 25.4062 4.40631 24.375 4.21881 23.0625C4.03131 21.2813 5.06256 19.5 6.46881 18.5625C8.90631 16.9687 11.3438 16.4062 13.8751 16.4062C16.0313 16.5 18.7501 17.25 20.8126 17.9063Z" fill="#8EA8AF"/>
<path d="M20.4376 16.5C22.2189 17.1563 23.9064 18.75 24.4689 21C25.0314 23.3438 24.2814 26.0625 22.5939 27.375C21.4689 28.2188 20.1564 28.4062 18.8439 28.5C15.7501 28.5 12.6564 27.375 9.56261 26.25C8.53136 25.875 7.50011 25.5 6.56261 24.75C5.62511 24 4.87511 22.9688 4.78136 21.6563C4.59386 19.875 5.62511 18.0937 6.93761 17.1562C9.18761 15.5625 11.5314 15 13.9689 15C15.9376 15.0938 18.4689 15.8438 20.4376 16.5Z" fill="#D3DEE2"/>
<path d="M17.2502 17.5313C17.2502 17.5313 13.3127 19.125 10.5002 23.625C10.5002 23.625 9.46898 19.7812 10.1252 16.9688C10.1252 16.9688 14.0627 18.75 17.2502 17.5313Z" fill="white"/>
<path d="M11.5312 26.9063L13.4062 21L15 20.7188L12.375 27.1875L11.5312 26.9063ZM7.40625 25.4063L8.53125 19.0312L10.125 18.75L8.25 25.7812L7.40625 25.4063Z" fill="#BDD1D6"/>
<path d="M13.5938 20.8125L11.7188 27C11.7188 27 9.09375 26.3437 7.96875 25.5937L8.90625 19.3125C9 19.3125 12.375 21 13.5938 20.8125Z" fill="#FCFCFC"/>
<path d="M15.0938 20.625C15.0938 20.625 20.25 20.625 22.875 21.375C22.875 21.375 24.5625 21.0937 24.0938 19.9687C23.7188 18.8437 22.5938 17.3438 20.7188 16.5C20.8125 16.5 17.0625 20.4375 15.0938 20.625Z" fill="#807CA5"/>
<path d="M23.1565 7.40625C23.1565 7.40625 25.1252 15.4687 17.719 19.9688C17.719 19.9688 14.6252 21.4688 11.8127 21C9.00023 20.5312 7.40648 18.1875 8.25023 16.2188L12.5627 9.84375L23.1565 7.40625Z" fill="#6A648E"/>
<path d="M8.71884 18.375C8.71884 18.375 4.40634 15.75 5.06259 9.09375L10.3126 10.125L8.71884 18.375Z" fill="#6A648E"/>
<path opacity="0.28" d="M21.5008 25.2675C22.012 23.6915 21.3084 22.0513 19.9294 21.6041C18.5504 21.1568 17.0182 22.0719 16.507 23.6479C15.9959 25.2239 16.6994 26.864 18.0784 27.3113C19.4574 27.7585 20.9897 26.8435 21.5008 25.2675Z" fill="white"/>
<path d="M23.5312 9.84375C23.5312 15 19.5 19.125 14.3437 19.125C9.1875 19.125 5.0625 14.9063 5.0625 9.84375C5.0625 4.78125 9.28125 0.5625 14.3437 0.5625C19.4062 0.5625 23.5312 4.6875 23.5312 9.84375Z" fill="#E5A98C"/>
<path d="M23.44 9.56983C23.4578 4.65104 19.6107 0.649587 14.8473 0.632327C10.0838 0.615066 6.20781 4.58854 6.18999 9.50732C6.17216 14.4261 10.0193 18.4276 14.7827 18.4448C19.5462 18.4621 23.4222 14.4886 23.44 9.56983Z" fill="#E8CCAA"/>
<path d="M18.7056 10.7452C18.7185 7.17264 15.9168 4.26629 12.4478 4.25372C8.97872 4.24115 6.15601 7.12712 6.14307 10.6997C6.13012 14.2723 8.93184 17.1786 12.4009 17.1912C15.8699 17.2038 18.6926 14.3178 18.7056 10.7452Z" fill="#FAEACF"/>
<path d="M15.4339 11.4085C15.436 10.8389 15.0599 10.3758 14.5939 10.3742C14.1279 10.3725 13.7485 10.8328 13.7464 11.4023C13.7443 11.9719 14.1204 12.435 14.5864 12.4367C15.0524 12.4383 15.4318 11.978 15.4339 11.4085Z" fill="#425763"/>
<path d="M14.8936 11.0878C14.8942 10.9325 14.8107 10.8062 14.7071 10.8059C14.6036 10.8055 14.5192 10.9311 14.5186 11.0864C14.518 11.2418 14.6015 11.368 14.7051 11.3684C14.8086 11.3687 14.893 11.2431 14.8936 11.0878Z" fill="white"/>
<path d="M8.5887 9.89674C8.59076 9.3272 8.21468 8.86412 7.74868 8.86243C7.28269 8.86074 6.90326 9.32108 6.9012 9.89062C6.89913 10.4602 7.27522 10.9232 7.74121 10.9249C8.2072 10.9266 8.58663 10.4663 8.5887 9.89674Z" fill="#425763"/>
<path d="M8.04838 9.57558C8.04894 9.42025 7.96545 9.29402 7.8619 9.29365C7.75835 9.29327 7.67395 9.41889 7.67338 9.57422C7.67282 9.72955 7.75631 9.85577 7.85986 9.85615C7.96342 9.85652 8.04782 9.73091 8.04838 9.57558Z" fill="white"/>
<path d="M12.6563 15.75C12.6563 15.75 11.8125 15.6563 11.1562 15.1875C10.5 14.7188 9.9375 14.8125 9.84375 14.8125C9.75 14.8125 9.5625 14.625 9.375 14.5312C9.1875 14.4375 8.90625 14.4375 8.8125 14.5312C8.8125 14.625 9.09375 15.0938 9.09375 15.0938C9.09375 15.0938 9.1875 15.4688 9.09375 15.6563C9 15.8438 9.09375 16.5 9.75 16.6875C10.4062 16.875 10.875 16.7813 11.1562 16.5938C11.4375 16.4063 12.6563 15.75 12.6563 15.75Z" fill="#A67A65"/>
<path d="M21.6562 13.3125C21.6562 13.3125 18.5625 9.2813 10.6875 7.87505C10.6875 7.87505 6.46875 7.2188 5.0625 10.125C5.0625 10.125 5.4375 -0.8437 16.125 1.7813C24.6563 3.8438 24.4688 12.0938 21.75 14.625C21.75 14.5313 22.2188 14.7188 21.6562 13.3125Z" fill="#D3DEE2"/>
<path d="M21.0938 11.1563C21.0938 11.1563 17.8125 6.0938 11.5313 6.0938C11.5313 6.0938 6.65625 5.81255 5.15625 8.7188C5.15625 8.7188 6.28125 -1.68745 16.5938 0.375053C25.3125 2.1563 24.375 12.7501 21.4688 15.3751C21.5625 15.3751 21.75 12.5626 21.0938 11.1563Z" fill="#6A648E"/>
<path d="M16.6877 1.96864C19.1252 2.90614 22.5002 5.15614 22.5002 10.3124C22.5002 10.3124 20.1565 6.46864 17.5315 5.71864C16.7815 5.53114 16.1252 5.24989 15.469 4.96864C13.594 4.12489 14.719 1.21864 16.6877 1.96864Z" fill="#807CA5"/>
<path d="M20.25 9.93746C20.25 9.93746 22.875 16.6875 15 19.875C15 19.875 22.4062 18.75 23.4375 11.1562C23.4375 11.1562 22.125 9.37496 20.25 9.93746Z" fill="#6A648E"/>
<path d="M6.84375 16.5C6.84375 16.5 8.34375 23.3438 10.875 23.625C13.4062 23.9063 16.7812 21.2812 20.25 17.7187C20.25 17.7187 15.2812 20.8125 12.6562 20.3438C10.0312 19.875 6.84375 16.5 6.84375 16.5Z" fill="#6A648E"/>
<path d="M21.2812 24.4688C21.4687 24.4688 23.8125 24.4688 25.5 27.0938C25.9687 27.8438 25.6875 28.7813 24.9375 29.1563C23.3437 29.9063 20.3437 30.9376 17.0625 29.1563C16.4062 28.7813 16.0312 27.6563 16.5 27.0001C17.3437 25.7813 18.8437 24.3751 21.2812 24.4688Z" fill="#425763"/>
<path d="M21.281 25.0314C21.4685 25.0314 23.4373 25.0314 24.9373 27.0939C25.3123 27.6564 25.1248 28.4064 24.4685 28.6876C23.0623 29.3439 20.531 30.0001 17.6248 28.5939C17.0623 28.3126 16.8748 27.4689 17.2498 27.0001C17.906 26.0626 19.1248 24.9376 21.281 25.0314Z" fill="#A2B6BA"/>
<path d="M21.281 25.1252C21.4685 25.1252 23.0623 25.1252 24.281 26.8127C24.5623 27.2814 24.4685 27.9377 23.906 28.1252C22.781 28.5939 20.7185 29.2502 18.3748 28.0314C17.906 27.7502 17.7185 27.1877 18.0935 26.7189C18.4685 25.9689 19.4998 25.0314 21.281 25.1252Z" fill="#87999B"/>
<path d="M20.9062 27.75C24.2717 27.75 27 25.0217 27 21.6562C27 18.2908 24.2717 15.5625 20.9062 15.5625C17.5408 15.5625 14.8125 18.2908 14.8125 21.6562C14.8125 25.0217 17.5408 27.75 20.9062 27.75Z" fill="#425763"/>
<path d="M20.9062 26.9062C23.9093 26.9062 26.3438 24.4718 26.3438 21.4687C26.3438 18.4657 23.9093 16.0312 20.9062 16.0312C17.9032 16.0312 15.4688 18.4657 15.4688 21.4687C15.4688 24.4718 17.9032 26.9062 20.9062 26.9062Z" fill="#A2B6BA"/>
<path d="M21.0937 25.9688C23.8379 25.9688 26.0625 23.7442 26.0625 21C26.0625 18.2558 23.8379 16.0312 21.0937 16.0312C18.3496 16.0312 16.125 18.2558 16.125 21C16.125 23.7442 18.3496 25.9688 21.0937 25.9688Z" fill="#CBDEE4"/>
<path d="M23.8125 20.625C24.4338 20.625 24.9375 20.1213 24.9375 19.5C24.9375 18.8787 24.4338 18.375 23.8125 18.375C23.1912 18.375 22.6875 18.8787 22.6875 19.5C22.6875 20.1213 23.1912 20.625 23.8125 20.625Z" fill="#425763"/>
<path d="M23.9063 20.0625C24.2687 20.0625 24.5625 19.7687 24.5625 19.4063C24.5625 19.0438 24.2687 18.75 23.9063 18.75C23.5438 18.75 23.25 19.0438 23.25 19.4063C23.25 19.7687 23.5438 20.0625 23.9063 20.0625Z" fill="#4ED154"/>
<path d="M19.875 19.0312C19.875 19.0312 20.1562 17.0625 21.6562 16.3125C21.8438 16.2187 21.8437 16.0312 21.5625 16.0312H21.2813C21.0938 16.0312 19.4062 16.125 18.8438 19.125L19.875 19.0312Z" fill="#A2B6BA"/>
<path d="M22.7045 22.2575C22.7114 20.3417 21.2899 18.7836 19.5295 18.7772C17.7691 18.7708 16.3364 20.3186 16.3295 22.2344C16.3225 24.1501 17.744 25.7083 19.5044 25.7147C21.2648 25.7211 22.6975 24.1732 22.7045 22.2575Z" fill="#425763"/>
<path d="M22.0867 22.0997C22.0919 20.6499 21.0049 19.4707 19.6587 19.4659C18.3125 19.461 17.2169 20.6323 17.2117 22.082C17.2064 23.5318 18.2935 24.711 19.6396 24.7159C20.9858 24.7207 22.0814 23.5494 22.0867 22.0997Z" fill="#3587C4"/>
<path d="M21.6235 21.9998C21.6279 20.8089 20.7079 19.8402 19.5688 19.8361C18.4298 19.832 17.5029 20.794 17.4985 21.9849C17.4942 23.1757 18.4141 24.1445 19.5532 24.1486C20.6923 24.1527 21.6192 23.1907 21.6235 21.9998Z" fill="#4DA3EC"/>
<path d="M20.7257 20.9797C20.7268 20.669 20.4759 20.4162 20.1652 20.4151C19.8545 20.414 19.6018 20.6649 19.6007 20.9756C19.5995 21.2862 19.8505 21.539 20.1611 21.5401C20.4718 21.5412 20.7245 21.2903 20.7257 20.9797Z" fill="white"/>
<path d="M20.9998 17.5313L21.7498 16.7813C21.8435 16.6875 22.031 16.6875 22.1248 16.6875C22.406 16.7812 22.9685 16.9688 23.6248 17.3438C23.9998 17.5313 23.8123 18.1875 23.3435 18.0938L21.281 18.1875C20.9998 18.2813 20.8123 17.8125 20.9998 17.5313Z" fill="#E1F0F4"/>
</g>
<defs>
<clipPath id="clip0_1_8725">
<rect width="30" height="30" fill="white"/>
</clipPath>
</defs>
</svg>
