<svg width="47" height="33" viewBox="0 0 47 33" fill="none" xmlns="http://www.w3.org/2000/svg">
<g clip-path="url(#clip0_1_2616)">
<path d="M13.3271 12.387L13.2801 13.76H11.2641L11.2461 12.387C11.2461 9.81999 13.3401 7.73799 15.9241 7.73799C16.8041 7.73799 17.6271 7.97999 18.3301 8.39899L20.5581 6.30799H20.0441C19.9184 6.30839 19.7939 6.28403 19.6776 6.2363C19.5614 6.18857 19.4557 6.1184 19.3665 6.02982C19.2774 5.94123 19.2065 5.83595 19.1581 5.71999C19.1096 5.60404 19.0845 5.47967 19.0841 5.35399C19.0841 4.82699 19.5141 4.39999 20.0441 4.39999H22.9231C23.1767 4.39999 23.4199 4.50031 23.5998 4.67905C23.7797 4.85779 23.8815 5.10043 23.8831 5.35399V8.21499C23.8831 8.74199 23.4531 9.16899 22.9231 9.16899C22.7974 9.16939 22.6729 9.14503 22.5566 9.0973C22.4404 9.04957 22.3347 8.9794 22.2455 8.89082C22.1564 8.80223 22.0855 8.69695 22.0371 8.58099C21.9886 8.46504 21.9635 8.34067 21.9631 8.21499V7.60799L19.7401 9.69799C20.3015 10.4825 20.6026 11.4233 20.6011 12.388C20.6011 14.952 18.5111 17.032 15.9261 17.036C15.6528 17.0357 15.3908 16.927 15.1977 16.7337C15.0046 16.5403 14.8961 16.2783 14.8961 16.005C14.8961 15.437 15.3561 14.975 15.9241 14.97C16.2643 14.971 16.6014 14.9051 16.9161 14.7758C17.2308 14.6466 17.5169 14.4566 17.7582 14.2167C17.9995 13.9768 18.1911 13.6918 18.3222 13.3778C18.4532 13.0639 18.5212 12.7272 18.5221 12.387C18.5212 12.0468 18.4532 11.7101 18.3222 11.3961C18.1911 11.0822 17.9995 10.7971 17.7582 10.5573C17.5169 10.3174 17.2308 10.1274 16.9161 9.99818C16.6014 9.86893 16.2643 9.80294 15.9241 9.80399C15.5839 9.80294 15.2469 9.86893 14.9323 9.9982C14.6176 10.1275 14.3315 10.3175 14.0903 10.5573C13.8492 10.7972 13.6576 11.0823 13.5267 11.3962C13.3957 11.7102 13.3279 12.0468 13.3271 12.387Z" fill="#2D87D4"/>
<path fill-rule="evenodd" clip-rule="evenodd" d="M8.20595 8.72L8.23995 8.721C8.37466 8.7242 8.50736 8.75432 8.63024 8.80959C8.75313 8.86486 8.86371 8.94416 8.95548 9.04282C9.04725 9.14148 9.11836 9.2575 9.1646 9.38406C9.21085 9.51062 9.23131 9.64515 9.22477 9.77973C9.21823 9.91431 9.18483 10.0462 9.12653 10.1677C9.06823 10.2892 8.98621 10.3978 8.88531 10.4871C8.78441 10.5764 8.66666 10.6446 8.53899 10.6877C8.41133 10.7308 8.27633 10.7479 8.14195 10.738C7.54837 10.7572 6.9736 10.9509 6.48934 11.2947C6.00508 11.6385 5.63278 12.1173 5.41889 12.6713C5.20499 13.2253 5.15897 13.8301 5.28657 14.4101C5.41416 14.9901 5.70973 15.5197 6.13638 15.9329C6.56304 16.346 7.1019 16.6243 7.68573 16.7332C8.26956 16.842 8.87252 16.7766 9.41938 16.5449C9.96624 16.3133 10.4328 15.9258 10.7608 15.4307C11.0888 14.9356 11.2638 14.3549 11.264 13.761H13.28C13.2798 14.9227 12.8784 16.0488 12.1437 16.9487C11.4091 17.8487 10.3861 18.4673 9.24795 18.7V19.809H10.256C10.5233 19.809 10.7797 19.9152 10.9687 20.1042C11.1578 20.2933 11.264 20.5497 11.264 20.817C11.264 21.0843 11.1578 21.3407 10.9687 21.5298C10.7797 21.7188 10.5233 21.825 10.256 21.825H9.24795V22.833C9.24795 23.1003 9.14175 23.3567 8.95271 23.5458C8.76368 23.7348 8.50729 23.841 8.23995 23.841C7.97261 23.841 7.71622 23.7348 7.52719 23.5458C7.33815 23.3567 7.23195 23.1003 7.23195 22.833V21.825H6.22395C5.95661 21.825 5.70022 21.7188 5.51119 21.5298C5.32215 21.3407 5.21595 21.0843 5.21595 20.817C5.21595 20.5497 5.32215 20.2933 5.51119 20.1042C5.70022 19.9152 5.95661 19.809 6.22395 19.809H7.23195V18.699C6.09409 18.4664 5.07144 17.848 4.3368 16.9485C3.60217 16.049 3.2006 14.9234 3.19995 13.762C3.19995 10.999 5.42295 8.755 8.20595 8.722V8.72Z" fill="#E34449"/>
</g>
<g clip-path="url(#clip1_1_2616)">
<g clip-path="url(#clip2_1_2616)">
<path d="M35 11.5L40 16.5L45 11.5H35Z" fill="white"/>
</g>
</g>
<defs>
<clipPath id="clip0_1_2616">
<rect width="24" height="24" fill="white" transform="translate(2 2)"/>
</clipPath>
<clipPath id="clip1_1_2616">
<rect width="10" height="10" fill="white" transform="translate(35 11.5)"/>
</clipPath>
<clipPath id="clip2_1_2616">
<rect width="10" height="5" fill="white" transform="translate(35 11.5)"/>
</clipPath>
</defs>
</svg>
