<svg width="30" height="30" viewBox="0 0 30 30" fill="none" xmlns="http://www.w3.org/2000/svg">
<g clip-path="url(#clip0_1_11849)">
<path d="M6.375 2.4375L27.1875 0L27 1.5H28.0312L27.9375 2.90625H28.7812V3.5625L30 3.65625L26.1562 29.9062L0.65625 27.0938L6.375 2.4375Z" fill="#608191"/>
<path d="M25.4063 28.4062L1.6875 26.4375L6.9375 3.5625L28.5938 4.40625L25.4063 28.4062Z" fill="#8FB8CC"/>
<path d="M24.8438 27.6562L1.875 25.875L7.03125 3L28.0312 3.65625L24.8438 27.6562Z" fill="#B7C6CE"/>
<path d="M24.0938 26.25L2.53125 25.875L7.6875 3.09375L27.375 2.25L24.0938 26.25Z" fill="#D6DFE5"/>
<path d="M23.25 24.9375L1.78125 25.875L7.03125 3L26.5312 1.03125L23.25 24.9375Z" fill="#9EC6DD"/>
<path d="M21.5625 22.7812L4.03125 23.5312L8.34375 4.96875L24.2812 3.28125L21.5625 22.7812Z" fill="white"/>
<path d="M21.5625 22.7812L4.03125 23.5312L8.34375 4.96875L24.2812 3.28125L21.5625 22.7812Z" fill="#CFEFFF"/>
<path d="M1.21875 26.3438L22.9688 26.1562L23.25 24.9375L1.40625 25.875L1.21875 26.3438Z" fill="#608191"/>
<path d="M22.9688 26.1562L24.0938 26.25L27.1875 0L26.5312 0.84375L22.9688 26.1562Z" fill="#608191"/>
<path d="M23.8125 26.0625H0.84375L5.0625 2.53125L27 0.1875L23.8125 26.0625Z" fill="#608191"/>
<path d="M12.6563 11.7188L4.6875 12.2812L6.1875 3.9375L13.9688 3.09375L12.6563 11.7188Z" fill="#CFEFFF"/>
<path d="M24.1875 11.0625L13.7812 11.7188L15.0938 3L25.3125 1.96875L24.1875 11.0625Z" fill="white"/>
<path d="M22.5 24.4688L2.53125 24.5625L4.59375 13.0312L24.0938 11.9062L22.5 24.4688Z" fill="#CFEFFF"/>
<mask id="mask0_1_11849" style="mask-type:luminance" maskUnits="userSpaceOnUse" x="2" y="11" width="23" height="14">
<path d="M22.5 24.4688L2.53125 24.5625L4.59375 13.0312L24.0938 11.9062L22.5 24.4688Z" fill="white"/>
</mask>
<g mask="url(#mask0_1_11849)">
<path d="M6.09407 25.5936C4.96907 25.0311 4.59407 23.5311 5.43782 22.1249C5.71907 21.6561 7.12532 20.3436 7.50032 20.1561C8.71907 19.4061 13.6878 18.7499 17.2503 20.9999C17.9066 21.4686 18.3753 22.1249 18.4691 22.9686V23.0624C18.7503 25.4061 17.5316 27.1874 15.0941 27.1874C12.3753 27.2811 8.15657 26.7186 6.09407 25.5936Z" fill="#913A3A"/>
<path d="M7.59376 13.0312C7.59376 13.0312 5.34376 16.2188 7.21876 17.4375L7.96876 15.0938L7.59376 13.0312ZM22.2188 15.4688C22.125 16.5 20.9063 17.4375 19.5938 17.4375C18.2813 17.5313 17.3438 16.6875 17.5313 15.6563C17.625 14.625 18.8438 13.7813 20.0625 13.6875C21.375 13.6875 22.4063 14.4375 22.2188 15.4688Z" fill="#E8A554"/>
<path d="M20.8126 12.3749C20.1564 10.9687 18.1876 9.65617 15.5626 9.46867C14.7189 9.37492 13.5939 9.37492 12.1876 9.65617C6.75014 10.7812 7.12514 14.9999 7.12514 14.9999C8.15639 13.9687 10.1251 13.1249 13.3126 13.1249C14.6251 13.1249 15.6564 12.7499 16.4064 12.3749C17.0626 13.2187 18.0001 14.9062 17.5314 17.7187C17.5314 17.7187 17.6251 18.8437 19.6876 18.8437C19.6876 18.8437 19.5939 17.9999 20.0626 17.4374C20.3439 16.8749 21.4689 13.8749 20.8126 12.3749Z" fill="#E8A554"/>
<path d="M22.125 15.9373C22.0312 16.9686 20.8125 17.9061 19.5 17.9061C18.1875 17.9061 17.25 17.1561 17.4375 16.1248C17.5312 15.0936 18.75 14.2498 19.9687 14.1561C21.2812 14.0623 22.3125 14.9061 22.125 15.9373Z" fill="#E8A554"/>
<path d="M23.0626 19.5938C22.8751 21.4688 20.9063 22.9688 18.8438 23.0625C16.7813 23.0625 15.3751 21.6563 15.6563 19.875C15.9376 18.0938 17.7188 16.5938 19.6876 16.5C21.8438 16.4063 23.3438 17.8125 23.0626 19.5938ZM10.5938 19.125C10.4063 20.4375 9.00006 21.4688 7.59381 21.5625C6.18756 21.5625 5.15631 20.625 5.34381 19.3125C5.53131 18.0938 6.84381 16.9688 8.25006 16.9688C9.75006 16.875 10.7813 17.9063 10.5938 19.125Z" fill="#E8A554"/>
<path d="M22.7819 19.4998C22.5944 21.1873 20.7194 22.5935 18.6569 22.5935C16.5944 22.5935 15.1881 21.281 15.3756 19.6873C15.5631 18.0935 17.3444 16.6873 19.4069 16.5935C21.4694 16.5935 22.9694 17.8123 22.7819 19.4998Z" fill="#FFEFAB"/>
<path d="M21.7505 15.5623C21.6567 16.5936 20.438 17.5311 19.1255 17.5311C17.813 17.6248 16.8755 16.7811 17.063 15.7498C17.1567 14.7186 18.3755 13.8748 19.5942 13.7811C21.0005 13.6873 21.938 14.5311 21.7505 15.5623ZM10.688 19.2186C10.5005 20.3436 9.2817 21.3748 7.87545 21.3748C6.56295 21.3748 5.62545 20.5311 5.81295 19.4061C6.00045 18.2811 7.2192 17.3436 8.5317 17.2498C9.8442 17.1561 10.8755 17.9998 10.688 19.2186Z" fill="#FFEFAB"/>
<path d="M6.28157 24.9375C5.15657 24.375 4.78157 22.9688 5.62532 21.5625C5.90657 21.0938 7.31282 19.7813 7.68782 19.5938C8.90657 18.8438 13.8753 18.0938 17.4378 20.4375C18.0941 20.9063 18.5628 21.5625 18.6566 22.4063V22.5C18.9378 24.75 17.7191 26.625 15.2816 26.625C12.5628 26.5313 8.34407 25.9688 6.28157 24.9375Z" fill="#E8A554"/>
<path d="M6.65642 23.6251C5.53142 23.1563 6.18767 22.0313 7.03142 20.8126C7.31267 20.4376 7.87517 19.9688 8.25017 19.7813C9.37517 19.1251 13.7814 18.4688 17.1564 20.3438C17.8127 20.7188 18.1877 21.2813 18.2814 22.0313V22.1251C18.5627 24.0001 16.5939 25.6876 14.6252 25.5001C12.0939 25.1251 8.53142 24.4688 6.65642 23.6251Z" fill="#E8A554"/>
<path d="M6.46908 23.5313C5.53158 23.0625 6.65658 22.4063 7.40658 21.1875C7.68783 20.7188 8.81283 19.7813 9.09408 19.5938C10.1253 18.9375 12.5628 18.1875 15.3753 20.1563C15.9378 20.5313 16.2191 21.1875 16.3128 21.9375V22.0313C16.5003 24 15.1878 25.5938 13.5003 25.3125C11.4378 24.8438 8.15658 24.4688 6.46908 23.5313Z" fill="#FFD097"/>
<path d="M6.37522 20.7188L3.56271 23.7187C3.56271 23.7187 2.43771 25.2187 3.93771 25.7812C5.53146 26.3437 7.12521 25.2187 7.12521 25.2187C7.12521 25.2187 7.03147 24 7.59397 23.4375L6.37522 20.7188Z" fill="#E8A554"/>
<path d="M6.09415 21.7499C6.1879 21.5624 6.46915 21.4687 6.65665 21.5624C7.40665 22.0312 9.28165 22.8749 13.8754 23.2499C15.0004 23.3437 16.4067 23.2499 18.3754 22.8749C18.3754 22.8749 18.3754 23.2499 18.2817 23.7187C17.9067 24.8437 16.5942 25.6874 15.2817 25.6874C13.6879 25.6874 12.1879 25.6874 10.2192 25.2187C6.84415 24.4687 4.96915 24.1874 6.09415 21.7499Z" fill="#E8BD89"/>
<path d="M20.0626 15.1873C19.6876 18.2811 16.2188 20.9061 12.4688 20.9998C8.90631 21.0936 6.46881 18.7498 6.93756 15.8436C7.40631 12.9373 10.5938 10.4998 14.1563 10.2186C17.7188 9.93733 20.4376 12.1873 20.0626 15.1873Z" fill="#8E4028"/>
<path d="M6.75 20.7188L3.9375 23.7187C3.9375 23.7187 3 24.9375 4.59375 25.5C6.09375 26.0625 7.5 25.3125 7.5 25.3125C7.5 25.3125 7.3125 24.1875 7.875 23.625L6.75 20.7188Z" fill="#E8BD89"/>
<path d="M19.7813 14.8125C19.4063 17.8125 16.0313 20.3438 12.4688 20.4375C9.00004 20.5313 6.65629 18.2813 7.12504 15.4688C7.59379 12.6563 10.6875 10.3125 14.0625 10.0313C17.625 9.75001 20.1563 11.9063 19.7813 14.8125Z" fill="#E8A554"/>
<path d="M19.7817 14.6249C19.4067 17.4374 16.3129 19.8749 12.9379 19.9686C9.65666 20.0624 7.50041 17.9061 7.96916 15.1874C8.43791 12.5624 10.5004 10.2186 14.5317 9.93737C17.7192 9.74987 20.1567 11.8124 19.7817 14.6249Z" fill="#E8BD89"/>
<path d="M16.2191 15.5625C15.9379 17.625 13.6879 19.3125 11.3441 19.4062C9.00039 19.5 7.40664 17.9062 7.68789 15.9375C7.96914 13.9687 10.1254 12.2812 12.4691 12.1875C14.8129 12 16.5941 13.5 16.2191 15.5625Z" fill="#FFD097"/>
<path d="M7.59375 15C7.59375 15 7.875 14.25 10.0312 14.1563C12.1875 14.0625 15.1875 14.0625 16.6875 12.8437L16.2187 12.4688C16.2187 12.4688 14.8125 13.125 12.6562 13.2188C10.5937 13.3125 7.875 13.875 7.6875 14.1563C7.5 14.3438 7.59375 15 7.59375 15Z" fill="#E8A554"/>
<path d="M13.8753 16.0313C13.7816 16.3125 13.5003 16.5938 13.2191 16.5938C12.9378 16.5938 12.6566 16.4063 12.7503 16.0313C12.8441 15.75 13.1253 15.4688 13.4066 15.4688C13.6878 15.4688 13.9691 15.75 13.8753 16.0313Z" fill="#8E4028"/>
<path d="M13.5938 15.8438C13.5938 15.9375 13.5 16.0313 13.4063 16.0313C13.3125 16.0313 13.3125 15.9375 13.3125 15.9375C13.3125 15.8438 13.4062 15.75 13.5 15.75C13.5 15.6563 13.5938 15.75 13.5938 15.8438Z" fill="white"/>
<path d="M9.28157 15.5625C9.18782 15.8438 8.90657 16.125 8.62532 16.125C8.34407 16.125 8.06282 15.9375 8.15657 15.5625C8.25032 15.2813 8.53157 15 8.81282 15C9.09407 15.0938 9.37532 15.2813 9.28157 15.5625Z" fill="#8E4028"/>
<path d="M9 15.4688C9 15.5625 8.90625 15.6563 8.8125 15.6563C8.71875 15.6563 8.71875 15.5625 8.71875 15.5625C8.71875 15.4688 8.8125 15.375 8.90625 15.375C8.90625 15.2813 9 15.375 9 15.4688Z" fill="white"/>
<path d="M12.375 23.3437C12.375 23.3437 15.5625 23.4375 15.5625 20.7188C15.5625 20.7188 16.5 20.25 17.25 20.7188C17.9062 21.2813 18.9375 21.75 18.2812 23.5312C18.1875 23.5312 12.6562 24.1875 12.375 23.3437ZM7.5 22.3125C7.5 22.3125 7.125 21.75 7.59375 21.0937C8.0625 20.4375 8.71875 19.9687 8.71875 19.9687L8.25 19.6875C8.25 19.6875 6.46875 20.5312 6 21.8437L7.5 22.3125Z" fill="#E8BD89"/>
<path d="M10.3125 23.6248C10.3125 23.6248 13.2188 23.1561 14.5312 23.8123C14.5312 23.8123 14.8125 24.3748 14.4375 24.4686C14.0625 24.5623 11.625 23.6248 10.3125 23.9061C10.3125 23.9998 10.0312 23.7186 10.3125 23.6248Z" fill="white"/>
<path d="M5.8125 22.3125C5.8125 22.3125 7.21875 22.2187 7.59375 22.875C7.59375 22.875 7.59375 23.25 7.40625 23.3437C7.21875 23.4375 6.375 22.5 5.71875 22.5937C5.71875 22.5937 5.625 22.4062 5.8125 22.3125Z" fill="#FCD6AE"/>
<path d="M17.5312 11.4375C17.5312 11.4375 16.2188 13.4063 13.2188 13.4063C10.3125 13.4063 8.15625 13.875 7.125 15C7.125 15 7.78125 10.9688 12.1875 10.0313C16.6875 9.18753 17.625 10.875 17.5312 11.4375Z" fill="#FFEFAB"/>
<path d="M15.5625 12.0937C16.0313 12.4687 17.8125 14.1563 17.1562 17.9062C17.1562 17.9062 17.1562 19.0313 19.125 18.9375C19.125 18.9375 19.0313 18.0938 19.4063 17.5313C19.7813 16.9688 20.9063 14.0625 20.25 12.6562C19.5938 11.25 17.625 9.84375 15 9.84375" fill="#FFEFAB"/>
<path d="M17.25 15.8438C17.25 15.8438 18.0938 15.4688 18.375 15.6563C18.9375 16.125 18.2812 16.875 17.1562 17.0625L17.25 15.8438Z" fill="#E8BD89"/>
<path d="M15.9375 13.0312C15.9375 13.0312 17.25 14.3437 17.25 15.8437C17.25 15.8437 17.4375 13.5 16.125 12.6562L15.9375 13.0312ZM17.625 17.0625C17.625 17.0625 17.25 18.375 18.1875 18.8438C18.1875 18.8438 17.625 18.9375 17.25 18.5625C16.875 18.0937 17.1562 17.1562 17.1562 17.1562L17.625 17.0625Z" fill="#E8A554"/>
<path d="M10.5 11.1562C10.5 11.1562 13.5 9.74993 15.8438 10.4062C15.8438 10.4062 16.5 11.1562 14.625 11.3437C12.8438 11.6249 12.9375 10.8749 10.5 11.1562ZM20.7188 17.8124C20.7188 17.8124 21.6563 19.5937 19.5938 20.8124C19.3125 20.9999 19.2188 21.2812 19.4063 21.4687C19.5938 21.7499 20.1562 21.8437 20.4375 21.5624C21.375 20.7187 22.5938 19.2187 20.7188 17.8124ZM19.9688 14.3437C19.9688 14.3437 20.8125 15.2812 20.0625 16.3124C20.0625 16.3124 19.9688 16.6874 20.3438 16.6874C20.625 16.6874 21.0938 16.4999 21.0938 16.1249C21.0938 15.8437 21.375 14.4374 19.9688 14.3437Z" fill="white"/>
<path d="M9.18755 26.4375C9.18755 26.4375 8.3438 25.875 8.43755 24.4688C8.5313 23.0625 10.2188 22.5 10.2188 22.5C10.2188 22.5 8.3438 22.5938 7.68755 24.0938C7.12505 25.6875 8.06255 26.0625 8.06255 26.0625L9.18755 26.4375Z" fill="#8E4028"/>
<path d="M12 18.375C12 18.375 11.4375 18.375 10.9687 18.0937C10.5937 17.8125 10.125 17.9063 10.125 17.9063C10.0313 17.9063 9.9375 17.8125 9.75 17.7188C9.65625 17.625 9.46875 17.625 9.375 17.7188C9.375 17.8125 9.5625 18 9.5625 18V18.375C9.5625 18.4688 9.5625 18.8438 10.0312 18.9375C10.5 19.0313 10.7812 18.9375 10.9687 18.8438C11.1562 18.8438 12 18.375 12 18.375Z" fill="#C6638C"/>
</g>
<mask id="mask1_1_11849" style="mask-type:luminance" maskUnits="userSpaceOnUse" x="13" y="1" width="13" height="11">
<path d="M24.1875 11.0625L13.7812 11.7188L15.0938 3L25.3125 1.96875L24.1875 11.0625Z" fill="white"/>
</mask>
<g mask="url(#mask1_1_11849)">
<path d="M17.3437 2.4375C16.5937 2.625 16.0312 3 15.5625 3.5625C15.375 3.75 15.1875 4.03125 14.9062 4.3125C13.875 5.34375 14.625 7.03125 16.3125 6.75C18.0937 6.46875 19.125 5.8125 19.7812 4.21875V4.125C20.25 2.90625 19.2187 1.96875 17.7187 2.25L17.3437 2.4375ZM23.5312 1.78125C24.2812 1.78125 24.8437 2.0625 25.125 2.625C25.2187 2.8125 25.4062 3.09375 25.5937 3.28125C26.4375 4.21875 25.125 6.09375 23.25 6.09375C21.375 6.09375 20.5312 5.625 20.25 4.125V4.03125C20.0625 2.90625 21.4687 1.6875 22.9687 1.6875L23.5312 1.78125Z" fill="#A3704D"/>
<path d="M23.7189 7.03129C23.7189 6.56254 23.8127 3.56254 24.0002 1.96879H23.6252C22.2189 1.87504 20.7189 1.87504 19.3127 2.15629C18.2814 2.34379 17.1564 2.62504 16.2189 3.28129C16.0314 4.68754 15.6564 6.75004 14.7189 8.62504C14.7189 8.62504 12.6564 12.2813 14.7189 12.5625C16.7814 12.8438 23.4377 12.75 24.5627 11.4375C25.6877 9.93754 23.7189 7.59379 23.7189 7.03129Z" fill="#A3704D"/>
<path d="M23.6253 1.87503C22.5003 1.68753 20.8128 1.59378 19.2191 1.78128C17.9066 1.87503 17.0628 2.25003 16.5941 2.53128C16.5003 3.46878 16.3128 6.00003 15.0941 8.34378C15.0941 8.34378 13.2191 11.625 15.0941 11.8125C16.9691 12.0938 22.8753 11.9063 23.9066 10.7813C24.9378 9.56253 23.2503 7.50003 23.1566 6.93753C23.2503 6.46878 23.3441 3.00003 23.6253 1.87503Z" fill="#E8BD89"/>
<path d="M17.3441 2.71875C16.6878 2.8125 16.1253 3.1875 15.8441 3.75C15.7503 3.9375 15.5628 4.12499 15.2816 4.40625C14.4378 5.34375 15.0003 6.75 16.5941 6.46875C18.1878 6.1875 19.1253 5.625 19.6878 4.3125V4.21875C20.1566 3.1875 19.2191 2.34375 17.9066 2.53125L17.3441 2.71875Z" fill="#E8AB82"/>
<path d="M17.3441 2.90631C16.7816 3.00006 16.3128 3.37506 16.0316 3.75006C15.9378 3.93756 15.7503 4.12506 15.5628 4.31256C14.8128 5.15631 15.2816 6.37506 16.6878 6.18756C18.0941 5.90631 18.8441 5.43756 19.4066 4.21881C19.7816 3.28131 18.9378 2.53131 17.8128 2.81256L17.3441 2.90631Z" fill="#FFD097"/>
<path d="M16.7816 5.0625C16.6878 5.34375 16.3128 5.625 16.0316 5.625C15.7503 5.625 15.4691 5.4375 15.5628 5.0625C15.6566 4.78125 16.0316 4.5 16.3128 4.40625C16.6878 4.5 16.8753 4.6875 16.7816 5.0625Z" fill="#A3704D"/>
<path d="M16.219 5.15625C16.219 5.25 16.1253 5.34375 15.9378 5.34375C15.844 5.34375 15.7503 5.25 15.844 5.15625C15.844 5.0625 15.9378 4.96875 16.1253 4.96875C16.219 4.96875 16.219 5.0625 16.219 5.15625ZM23.4378 2.0625C24.094 2.0625 24.5628 2.34375 24.844 2.8125C24.9378 3 25.0315 3.1875 25.219 3.375C25.969 4.21875 24.844 5.8125 23.1565 5.90625C21.5628 5.90625 20.719 5.53125 20.5315 4.21875V4.125C20.4378 3.09375 21.5628 2.0625 22.8753 2.0625H23.4378Z" fill="#E8AB82"/>
<path d="M23.3438 2.34375C23.9063 2.34375 24.3751 2.625 24.5626 3C24.6563 3.1875 24.7501 3.375 24.9376 3.5625C25.5938 4.3125 24.5626 5.71875 23.1563 5.71875C21.7501 5.71875 21.0001 5.34375 20.8126 4.21875C20.7188 3.28125 21.7501 2.34375 22.8751 2.34375H23.3438Z" fill="#FFD097"/>
<path d="M23.3438 4.40625C23.3438 4.6875 23.625 4.96875 24 4.96875C24.375 4.96875 24.6562 4.6875 24.6562 4.3125C24.6562 4.03125 24.375 3.75 24 3.75C23.625 3.84375 23.3438 4.125 23.3438 4.40625Z" fill="#A3704D"/>
<path d="M13.8751 10.7812C13.8751 10.7812 15.4689 10.5 16.6876 10.7812C17.9064 11.0625 22.4064 10.5938 24.6564 9.9375C24.6564 9.9375 25.1251 10.4062 24.7501 10.9687C24.3751 11.4375 19.5001 13.875 18.5626 14.1562C17.6251 14.4375 14.0626 12.6562 13.8751 12.1875C13.7814 11.7187 13.5939 10.9687 13.8751 10.7812Z" fill="#5D8993"/>
<path d="M23.9062 4.40625C23.9062 4.5 24 4.59375 24.0938 4.59375C24.1875 4.59375 24.2812 4.5 24.2812 4.40625C24.2812 4.3125 24.1875 4.21875 24.0938 4.21875C24 4.21875 23.9062 4.3125 23.9062 4.40625Z" fill="#E8AB82"/>
<path d="M14.3436 10.5938C14.3436 10.5938 15.8436 10.3125 16.8749 10.5938C17.9999 10.875 22.1249 10.4062 24.1874 9.84375C24.1874 9.84375 24.6561 10.3125 24.2811 10.7812C23.9061 11.25 19.4999 13.5 18.6561 13.6875C17.8124 13.9688 14.5311 12.2813 14.4374 11.8125C14.2499 11.3438 14.0624 10.7813 14.3436 10.5938Z" fill="#CBDEE4"/>
<path d="M21.1875 5.53125C21.1875 5.53125 22.5 6.1875 23.5312 5.90625L23.625 6.1875C23.625 6.09375 22.4062 6.375 21.1875 5.53125ZM18.1875 5.8125C18.1875 5.8125 16.6875 6.65625 15.75 6.5625L15.6562 6.84375C15.6562 6.84375 16.7812 6.84375 18.1875 5.8125Z" fill="#A3704D"/>
<path d="M15.0939 4.875C15.0939 4.875 14.9064 5.90625 16.4064 5.8125C18.0002 5.625 19.2189 4.40625 19.2189 4.40625C19.2189 4.40625 18.8439 6.09375 16.5002 6.46875C14.2502 6.65625 15.0939 4.875 15.0939 4.875ZM25.2189 3.9375C25.2189 3.9375 25.1252 5.0625 23.4377 5.15625C21.7502 5.34375 20.8127 4.21875 20.8127 4.21875C20.8127 4.21875 20.8127 5.8125 23.1564 5.8125C25.6877 5.71875 25.2189 3.9375 25.2189 3.9375Z" fill="#E8BD89"/>
<path d="M19.5 8.53125C19.5 8.625 19.4063 8.71875 19.3125 8.71875C19.2188 8.71875 19.125 8.625 19.125 8.53125C19.125 8.4375 19.2188 8.34375 19.3125 8.34375C19.4063 8.34375 19.5 8.4375 19.5 8.53125Z" fill="#A3704D"/>
<path d="M14.0625 10.9687C14.0625 10.9687 14.5312 10.6875 15 10.6875C15.4687 10.6875 18 11.1562 19.9687 10.7812L24.4688 10.0312L24.2812 9.84375L19.125 10.5938C17.3437 10.6875 15.4687 10.0312 14.0625 10.7812V10.9687Z" fill="#5D8993"/>
<path d="M21.4688 10.7813C20.9062 10.9688 19.5 11.1563 19.0312 11.2501C18.6562 11.9063 18.2812 12.5626 18.1875 13.2188C18.375 13.3126 18.5625 13.3126 18.6562 13.4063C19.125 13.5001 21.8437 12.0001 22.7812 11.4376C23.7187 10.7813 22.2188 10.5938 21.4688 10.7813Z" fill="#D5EAEF"/>
<path d="M22.0313 10.3125C22.0313 10.3125 21.9375 10.875 21.5625 11.5313L20.9062 12.5625L22.3125 11.625C22.5938 11.5312 24.4688 10.9687 23.7188 10.6875C23.0625 10.4062 22.0313 10.3125 22.0313 10.3125Z" fill="#CBDEE4"/>
<path opacity="0.4" d="M20.8125 12.7501C20.9063 12.6564 21.375 12.0939 21.5625 11.7189C21.75 11.3439 22.125 11.0626 22.4062 11.1564C22.7812 11.3439 22.6875 11.8126 22.6875 11.8126L20.8125 12.7501ZM18.4688 13.9689C18.375 13.8751 18.0938 13.4064 18 13.0314C17.9063 12.6564 17.625 12.3751 17.3438 12.5626C16.9687 12.7501 16.875 13.2189 16.875 13.2189L18.4688 13.9689Z" fill="#5D8993"/>
<path d="M19.6878 11.8125C19.6878 11.8125 19.7816 11.25 20.0628 11.1563C20.3441 11.0625 21.1878 10.6875 21.2816 10.875C21.3753 11.0625 21.7503 11.3438 21.2816 11.5313C20.7191 11.7188 20.9066 12.1875 20.5316 12.2813C20.0628 12.4688 19.5941 12.0938 19.6878 11.8125Z" fill="#EEFDFF"/>
<path d="M16.3125 3C16.3125 3 17.4375 2.34375 18 2.25C18.6562 2.15625 22.5 1.875 23.9062 2.0625V1.78125C23.9062 1.78125 20.4375 1.21875 18.2812 1.6875C16.2187 2.15625 16.125 2.625 16.125 2.625L16.3125 3Z" fill="#A3704D"/>
</g>
<path d="M19.125 4.3125L8.90625 5.25L9.28125 2.71875L19.5 1.59375L19.125 4.3125ZM25.3125 12.5625C25.5938 10.5 23.25 9.1875 20.3438 9.75L17.5313 10.3125C15.2813 10.7813 13.4063 12.375 13.2188 14.0625C13.0313 15.6563 14.5312 16.9688 16.7812 16.7812L19.5938 16.5938C19.5938 17.0625 19.125 17.8125 18.5625 18.5625C18.4688 18.6562 18.5625 18.8438 18.75 18.75C19.6875 18.4688 21.8438 17.5312 22.6875 15.75C24.0938 15 25.125 13.7813 25.3125 12.5625Z" fill="#4C6980"/>
<path d="M24.8439 12.4687C25.1251 10.5 22.9689 9.37496 20.3439 9.84371L17.7189 10.3125C15.6564 10.6875 13.8751 12.2812 13.7814 13.7812C13.5939 15.2812 15.0001 16.4062 17.0626 16.3125L19.5939 16.2187H20.0626C20.0626 16.5937 19.9689 17.1562 19.5001 17.7187C19.4064 17.8125 19.5001 17.9062 19.6876 17.8125C20.4376 17.4375 21.6564 16.6875 22.4064 15.375C23.7189 14.7187 24.6564 13.6875 24.8439 12.4687Z" fill="white"/>
<path d="M14.8125 15L14.9062 14.625C14.7188 14.625 14.625 14.625 14.4375 14.5313L14.5313 14.0625C14.625 14.1563 14.8125 14.1563 14.9062 14.1563C15 14.1563 15.0938 14.1563 15.0938 14.0625C15.1875 14.0625 15.1875 13.9687 15.1875 13.9687C15.1875 13.875 15.1875 13.875 15.0938 13.7812C15 13.7812 14.9062 13.6875 14.9062 13.6875C14.8125 13.6875 14.8125 13.5937 14.7188 13.5V13.125C14.7188 12.9375 14.8125 12.8438 15 12.6563C15.0938 12.5625 15.2813 12.4688 15.4688 12.375L15.5625 12L15.9375 11.9062L15.8438 12.2813H16.2187L16.125 12.75C16.0313 12.75 15.8437 12.6563 15.75 12.75C15.6562 12.75 15.6563 12.75 15.5625 12.8438C15.4688 12.8438 15.4688 12.9375 15.4688 13.0312C15.4688 13.125 15.4688 13.125 15.5625 13.125C15.6563 13.125 15.75 13.125 15.8438 13.2188C15.9375 13.2188 16.0313 13.3125 16.0313 13.4063C16.125 13.5 16.125 13.5938 16.0313 13.7812C16.0313 13.875 15.9375 14.0625 15.8438 14.1563L15.5625 14.4375C15.4688 14.5312 15.375 14.5313 15.2812 14.625L15.0938 15H14.8125Z" fill="#4C6980"/>
<path d="M17.25 12.1875L17.625 12.0937L17.4375 12.75H17.625L17.8125 12.0937L18.2813 12L18 12.6562H18.1875L18.0937 13.125H17.8125L17.7188 13.5H17.9063L17.8125 13.9687H17.5313L17.25 14.625H16.875L17.0625 13.9687H16.875L16.6875 14.625H16.3125L16.5 13.9687H16.3125L16.4063 13.5H16.6875L16.7812 13.2188H16.5938L16.6875 12.8437H16.9688L17.25 12.1875ZM17.4375 13.125H17.25L17.1562 13.4062H17.3438L17.4375 13.125ZM20.8125 13.6875H21.375L21 14.0625C20.9062 14.1562 20.7188 14.25 20.625 14.25C20.5313 14.3437 20.3438 14.3437 20.25 14.4375C20.1563 14.4375 19.9688 14.5312 19.875 14.5312C19.6875 14.5312 19.5 14.5312 19.3125 14.4375C19.125 14.3437 19.0313 14.25 18.9375 14.1562C18.8438 14.0625 18.75 13.875 18.75 13.7812V13.2188C18.8438 13.0312 18.8437 12.8437 19.0312 12.6562C19.125 12.4687 19.3125 12.2812 19.4063 12.1875C19.5938 12.0937 19.7812 11.9062 19.9687 11.8125C20.1562 11.7188 20.3438 11.625 20.625 11.625C20.8125 11.625 21.0938 11.5312 21.1875 11.625C21.375 11.625 21.4688 11.7188 21.6563 11.8125C21.75 11.9062 21.8437 12 21.8437 12.1875V12.6562C21.8437 12.8437 21.75 13.0312 21.5625 13.2188C21.4688 13.4062 21.2813 13.5 21.1875 13.5937C21 13.6875 20.9063 13.7812 20.7188 13.7812C20.625 13.875 20.4375 13.875 20.3438 13.875C20.1563 13.875 20.1563 13.7812 20.1563 13.6875C20.0625 13.7812 19.875 13.875 19.6875 13.875C19.5938 13.875 19.4063 13.875 19.4063 13.7812C19.3125 13.6875 19.3125 13.6875 19.2188 13.5V13.125C19.2188 13.0312 19.3125 12.9375 19.3125 12.8437C19.4063 12.75 19.4062 12.6562 19.5 12.5625C19.5937 12.4687 19.6875 12.375 19.7813 12.375C19.875 12.2812 19.9688 12.2812 20.1563 12.2812C20.3438 12.2812 20.5313 12.2812 20.625 12.4687L20.7188 12.2812L21.0938 12.1875L20.7188 13.125C20.7188 13.2187 20.625 13.2187 20.625 13.3125C20.625 13.4062 20.625 13.4062 20.7188 13.4062C20.8125 13.4062 20.9062 13.3125 21 13.2188C21.0938 13.125 21.1875 12.9375 21.1875 12.75V12.2812C21.0938 12.1875 21 12.0937 20.9062 12.0937H20.3438C20.1563 12.0937 20.0625 12.1875 19.875 12.2812C19.7813 12.375 19.5937 12.4687 19.5 12.5625C19.4062 12.6562 19.3125 12.75 19.2188 12.9375C19.125 13.0312 19.125 13.2187 19.0312 13.3125V13.7812L19.3125 14.0625C19.4063 14.1562 19.5938 14.1562 19.7813 14.1562C19.9688 14.1562 20.1563 14.1562 20.25 14.0625C20.5313 13.875 20.625 13.7812 20.8125 13.6875ZM19.9687 13.3125C20.0625 13.3125 20.1563 13.2188 20.25 13.2188C20.3438 13.125 20.3438 13.0312 20.3438 13.0312V12.8437C20.3438 12.8437 20.25 12.75 20.1563 12.75C20.0625 12.75 19.9688 12.8437 19.875 12.8437C19.7813 12.9375 19.7813 13.0312 19.6875 13.125V13.3125C19.7813 13.2187 19.875 13.3125 19.9687 13.3125ZM22.6875 11.1562L24.0938 10.875L23.4375 12.9375L22.4062 13.0312L22.6875 11.1562ZM22.3125 13.4062L23.4375 13.3125L23.25 14.1562L22.125 14.25L22.3125 13.4062Z" fill="#4C6980"/>
<path d="M18.5625 4.03125L9.46875 4.875L9.84375 3L18.8438 2.0625L18.5625 4.03125Z" fill="#FFEFAB"/>
<mask id="mask2_1_11849" style="mask-type:luminance" maskUnits="userSpaceOnUse" x="4" y="3" width="10" height="10">
<path d="M12.6563 11.7188L4.6875 12.2812L6.1875 3.9375L13.9688 3.09375L12.6563 11.7188Z" fill="white"/>
</mask>
<g mask="url(#mask2_1_11849)">
<path d="M13.2191 11.4376C15.4691 8.8126 13.1253 7.96885 13.1253 7.96885C13.1253 7.96885 11.9066 7.3126 10.3128 7.8751C10.4066 6.5626 9.28158 6.0001 9.28158 6.0001C9.28158 6.0001 7.59408 4.78135 5.34408 7.1251C3.09408 9.46885 5.06283 13.4064 5.15658 13.6876C5.53158 13.6876 11.0628 13.9689 13.2191 11.4376Z" fill="#4F1919"/>
<path d="M13.5003 11.0626C15.3753 8.8126 13.4066 7.59385 13.4066 7.59385C13.4066 7.59385 12.1878 6.84385 10.5941 7.40635C10.6878 6.09385 9.56283 5.53135 9.56283 5.53135C9.56283 5.53135 7.78158 4.3126 5.53158 6.65635C3.28158 9.0001 5.25033 12.9376 5.34408 13.2189C5.81283 13.2189 11.2503 13.6876 13.5003 11.0626Z" fill="#960F0F"/>
<path d="M13.0312 10.7814C13.9687 9.7502 13.875 9.0002 13.5937 8.53145C13.3125 8.0627 12.8437 7.78145 12.2812 7.78145C11.8125 7.78145 11.0625 7.6877 10.2187 7.96895C10.2187 7.40645 10.0312 6.84395 9.84374 6.5627C9.37499 6.0002 8.81249 5.6252 8.06249 5.71895C7.49999 5.71895 6.65624 6.0002 5.81249 6.9377C3.84374 8.90645 5.81249 12.3752 5.90624 12.6564C6.28124 12.5627 11.1562 12.9377 13.0312 10.7814Z" fill="#DD4545"/>
<path d="M11.625 10.0312C12.2813 9.28125 12.2813 8.71875 12.0938 8.34375C11.9063 8.0625 11.5313 7.78125 11.0625 7.78125C10.6875 7.78125 10.125 7.78125 9.5625 7.96875C9.5625 7.5 9.375 7.125 9.28125 6.9375C9 6.46875 8.53125 6.28125 7.96875 6.28125C7.5 6.375 6.9375 6.5625 6.375 7.21875C4.96875 8.71875 6.375 11.25 6.46875 11.4375C6.65625 11.3438 10.2188 11.625 11.625 10.0312Z" fill="#F96464"/>
<path d="M9.46916 11.6252C9.00041 11.5314 8.62541 11.3439 8.53166 11.0627C8.43791 10.7814 8.43791 10.3127 8.71916 9.93765C9.37541 8.81265 12.2817 6.93765 13.1254 8.81265C13.9692 10.6877 10.6879 11.7189 9.46916 11.6252Z" fill="#FFB3B3"/>
<path d="M5.25 12.8437C5.25 12.8437 9.09375 13.5938 12.6562 11.7188C12.6562 11.7188 10.5 13.5937 5.4375 13.3125L5.25 12.8437Z" fill="#DD4545"/>
<path d="M11.8125 9.65647C11.7188 9.65647 11.625 9.56272 11.5312 9.46897C11.5312 9.37522 11.5312 9.28147 11.625 9.18772C11.8125 8.90647 12.5625 8.43772 12.75 8.90647C12.9375 9.46897 12.0938 9.75022 11.8125 9.65647Z" fill="white"/>
<path d="M8.25031 7.59387C8.15656 7.68762 7.87531 7.78137 7.68781 7.78137C7.50031 7.78137 7.31281 7.78137 7.12531 7.68762C6.84406 7.50012 6.65656 6.65637 7.78156 6.46887C9.00031 6.18762 8.71906 7.21887 8.25031 7.59387Z" fill="#FFB3B3"/>
<path opacity="0.28" d="M4.50018 8.71875C4.50018 8.71875 5.06268 14.0625 11.7189 12.4688C11.7189 12.4688 8.43768 13.5938 5.53143 13.5938C5.53143 13.5938 3.46893 10.7813 4.50018 8.71875Z" fill="#4F1919"/>
</g>
<path d="M8.53145 13.7812L4.78145 13.9687C4.21895 13.9687 3.84395 13.5937 3.9377 13.125L4.1252 12C4.21895 11.5313 4.6877 11.0625 5.2502 11.0625L8.90645 10.7812C9.46895 10.7812 9.84395 11.1562 9.84395 11.625L9.65645 12.75C9.65645 13.3125 9.1877 13.7812 8.53145 13.7812Z" fill="white" stroke="#608191" stroke-width="0.595406" stroke-miterlimit="10"/>
</g>
<defs>
<clipPath id="clip0_1_11849">
<rect width="30" height="30" fill="white"/>
</clipPath>
</defs>
</svg>
