<svg width="30" height="30" viewBox="0 0 30 30" fill="none" xmlns="http://www.w3.org/2000/svg">
<g clip-path="url(#clip0_1_17025)">
<path d="M7.59375 2.4375C7.125 2.71875 6.75 3.46875 7.125 3.9375C6.5625 3.65625 5.71875 4.03125 5.625 4.6875C5.53125 5.0625 5.625 5.4375 5.4375 5.71875C5.34375 5.90625 5.15625 5.90625 5.0625 6.09375C4.875 6.28125 4.78125 6.65625 4.875 6.9375C4.96875 7.21875 5.25 7.40625 5.53125 7.5C5.0625 7.5 4.6875 7.875 4.59375 8.25C4.5 8.71875 4.6875 9.1875 5.0625 9.375C4.6875 9.5625 4.40625 9.84375 4.40625 10.3125C4.40625 10.7812 4.59375 11.0625 4.875 11.3438C4.6875 11.625 4.78125 12.0937 4.96875 12.375C5.15625 12.75 5.4375 12.9375 5.71875 13.2188C6.09375 13.5 6.375 13.875 6.84375 14.0625C7.21875 14.25 7.78125 14.4375 8.15625 14.25C8.71875 14.0625 9.1875 13.5 9.46875 13.0312C10.2188 12 10.875 10.875 11.25 9.65625C11.7188 8.4375 11.9063 7.21875 11.8125 5.90625C11.7188 5.34375 11.625 4.78125 11.25 4.3125C10.9688 3.9375 10.5938 3.5625 10.3125 3.1875C9.9375 2.8125 9.65625 2.34375 9.09375 2.25C8.71875 2.25 8.0625 2.25 7.59375 2.4375Z" fill="#4A3531"/>
<path d="M20.9064 18.6562C22.7814 19.2187 24.4689 20.8125 25.0314 22.9687C25.5939 25.2187 24.8439 27.8437 23.1564 29.0625C22.0314 29.9062 20.7189 30.0937 19.4064 30.0937C16.3126 30.0937 13.1251 29.0625 10.0314 28.0312C9.00011 27.6562 7.96886 27.2812 7.03136 26.625C6.09386 25.9687 5.34386 24.9375 5.15636 23.7187C4.96886 22.0312 6.00011 20.3437 7.31261 19.5C9.56261 18 12.0001 17.4375 14.3439 17.4375C16.4064 17.25 18.9376 18 20.9064 18.6562Z" fill="#305472"/>
<path d="M20.625 17.25C22.3125 17.8125 24 19.4062 24.4687 21.5625C25.0312 23.8125 24.2812 26.4375 22.6875 27.6562C21.6562 28.5 20.3437 28.6875 19.125 28.6875C16.2187 28.6875 13.2187 27.6562 10.3125 26.625C9.37497 26.25 8.34371 25.875 7.49996 25.2188C6.56246 24.4688 5.81246 23.4375 5.71871 22.2188C5.53121 20.5313 6.46872 18.8438 7.78122 18C9.93747 16.5 12.1875 15.9375 14.4375 15.9375C16.3125 15.9375 18.75 16.5937 20.625 17.25Z" fill="#997567"/>
<path d="M21.8619 24.8105C22.4848 22.8898 21.9118 20.9831 20.5821 20.5518C19.2523 20.1205 17.6694 21.328 17.0464 23.2487C16.4235 25.1695 16.9964 27.0762 18.3262 27.5075C19.6559 27.9387 21.2389 26.7313 21.8619 24.8105Z" fill="#A88378"/>
<path d="M23.9783 11.5234C23.9965 6.50108 19.9398 2.41492 14.9175 2.39672C9.89513 2.37852 5.80896 6.43518 5.79076 11.4575C5.77257 16.4799 9.82922 20.566 14.8516 20.5842C19.8739 20.6024 23.9601 16.5458 23.9783 11.5234Z" fill="#4A3531"/>
<path d="M23.5729 10.8314C23.5906 5.96443 19.6594 2.00464 14.7924 1.98701C9.92537 1.96937 5.96558 5.90057 5.94795 10.7676C5.93031 15.6346 9.86151 19.5944 14.7285 19.612C19.5955 19.6296 23.5553 15.6985 23.5729 10.8314Z" fill="#7A594F"/>
<path d="M23.5519 10.5974C23.569 5.88571 19.8892 2.05275 15.3328 2.03624C10.7765 2.01973 7.06898 5.82592 7.05191 10.5376C7.03484 15.2493 10.7146 19.0822 15.271 19.0987C19.8273 19.1153 23.5348 15.3091 23.5519 10.5974Z" fill="#7A594F"/>
<path d="M18.9892 11.7349C19.0016 8.31763 16.3253 5.53765 13.0116 5.52565C9.69793 5.51364 7.0016 8.27415 6.98922 11.6914C6.97683 15.1087 9.65309 17.8886 12.9668 17.9006C16.2805 17.9127 18.9768 15.1522 18.9892 11.7349Z" fill="#997567"/>
<path d="M15.8374 12.4509C15.8393 11.9332 15.463 11.5121 14.997 11.5104C14.531 11.5087 14.1518 11.9271 14.1499 12.4448C14.148 12.9626 14.5242 13.3837 14.9902 13.3854C15.4562 13.3871 15.8355 12.9687 15.8374 12.4509Z" fill="#362826"/>
<path d="M9.3408 10.9622C9.34268 10.4444 8.96644 10.0233 8.50045 10.0216C8.03446 10.0199 7.65518 10.4383 7.6533 10.9561C7.65142 11.4738 8.02766 11.8949 8.49365 11.8966C8.95964 11.8983 9.33892 11.4799 9.3408 10.9622Z" fill="#362826"/>
<path d="M8.77739 10.6522C8.77795 10.4969 8.69446 10.3707 8.59091 10.3703C8.48735 10.3699 8.40295 10.4955 8.40239 10.6509C8.40182 10.8062 8.48531 10.9324 8.58887 10.9328C8.69242 10.9332 8.77682 10.8076 8.77739 10.6522Z" fill="white"/>
<path d="M13.2188 16.5C13.2188 16.5 12.375 16.4063 11.8125 15.9375C11.25 15.4688 10.6875 15.5625 10.5 15.5625C10.4062 15.5625 10.2188 15.375 10.0312 15.2812C9.84375 15.1875 9.5625 15.1875 9.5625 15.2812C9.5625 15.375 9.84375 15.8438 9.84375 15.8438C9.84375 15.8438 9.9375 16.2188 9.84375 16.4063C9.75 16.5938 9.84375 17.1563 10.5 17.3438C11.1562 17.5313 11.625 17.4375 11.9062 17.25C12.0938 17.1563 13.2188 16.5 13.2188 16.5Z" fill="#4A3531"/>
<path d="M14.3437 10.7812C14.4375 10.9687 14.7187 10.9687 14.9062 10.9687L17.8125 10.7812C17.9062 10.7812 18.0937 10.7812 18.1875 10.6875C18.2812 10.5937 18.1875 10.4062 18.0937 10.3125C18 10.2187 17.8125 10.2187 17.7187 10.2187C16.9687 10.125 16.3125 10.125 15.5625 10.2187C15.2812 10.125 14.0625 10.125 14.3437 10.7812ZM9.375 9.5625H9.65625C9.75 9.5625 9.84375 9.46875 9.84375 9.28125C9.84375 9.09375 9.65625 9 9.46875 8.90625C9.09375 8.8125 8.53125 8.53125 8.0625 8.34375C7.96875 8.34375 7.78125 8.25 7.6875 8.25C7.5 8.25 7.40625 8.34375 7.40625 8.53125C7.40625 8.71875 7.59375 8.8125 7.78125 8.90625C8.0625 9 8.34375 9.09375 8.625 9.28125C8.8125 9.375 9.09375 9.46875 9.375 9.5625Z" fill="#362826"/>
<path d="M17.8123 9C17.6248 9 17.4373 9.09375 17.3435 9C17.156 9 16.9685 8.90625 16.781 8.8125L14.4373 7.5C14.2498 7.40625 13.9685 7.21875 13.781 7.03125C13.031 7.875 11.531 7.78125 10.8748 6.9375C10.5935 7.21875 10.2185 7.21875 9.84352 7.125C9.46852 7.03125 9.18727 6.75 9.09352 6.375C8.81227 6.46875 8.53102 6.5625 8.15602 6.5625C7.96852 6.09375 8.06227 5.4375 8.43727 5.0625C7.96852 5.25 7.40602 4.96875 7.31227 4.5C7.21852 4.21875 7.31227 3.9375 7.40602 3.65625C7.49977 3.28125 7.68727 2.90625 7.78102 2.53125C7.87477 2.15625 8.06227 1.78125 8.34352 1.59375C8.62477 1.40625 9.09352 1.40625 9.46852 1.3125C10.031 1.21875 10.4998 0.75 10.9685 0.46875C11.531 0.1875 12.281 0 13.031 0C13.4998 0 14.156 0.1875 14.3435 0.5625C14.531 0.1875 14.9998 0 15.4685 0C15.9373 0 16.3123 0.375 16.406 0.75C17.4373 0.46875 18.5623 0.46875 19.5935 0.65625C19.9685 0.75 20.3435 0.84375 20.531 1.125C20.7185 1.40625 20.7185 1.96875 20.3435 2.0625C20.6248 2.15625 20.9998 2.0625 21.281 2.0625C21.5623 2.0625 21.9373 1.96875 22.2185 2.0625C22.4998 2.15625 22.781 2.4375 22.8748 2.71875C22.9685 3 22.5935 3.375 22.3123 3.28125L25.031 4.40625C24.5623 4.96875 23.8123 5.34375 23.0623 5.34375C23.3435 5.4375 23.6248 5.4375 23.8123 5.53125C24.0935 5.625 24.281 5.90625 24.281 6.1875C24.281 6.46875 24.0935 6.75 23.8123 6.75L24.7498 7.3125C24.4685 7.59375 24.281 7.96875 23.9998 8.25C23.8123 8.4375 23.6248 8.71875 23.3435 8.8125C22.9685 9 22.4998 9 22.1248 8.71875C22.031 9 22.031 9.46875 21.656 9.46875C21.3748 9.46875 21.0935 9.09375 20.906 9C19.8748 8.4375 18.9373 8.8125 17.8123 9Z" fill="#4A3531"/>
<path d="M18.9375 7.59375C18.4688 7.5 17.9062 7.78125 17.8125 8.25C17.8125 8.625 18 9 18.375 9.09375C18.75 9.28125 19.125 9.375 19.5 9.375C19.3125 9.46875 19.125 9.65625 18.9375 9.75C19.0313 10.3125 19.5938 10.875 20.1562 10.9687C19.7812 10.9687 19.4063 11.3438 19.3125 11.8125C19.3125 12.1875 19.5937 12.6562 19.9687 12.75C19.7812 12.75 19.5938 12.75 19.4063 12.8437C19.2188 12.9375 19.0312 13.125 19.125 13.3125C19.125 13.6875 19.5937 13.875 19.5937 14.1562C19.5937 14.3438 19.4062 14.5312 19.125 14.625C18.9375 14.7188 18.6562 14.8125 18.6562 15.0938C18.5625 15.2812 18.8437 15.5625 19.0312 15.4688C18.75 15.5625 18.5625 15.8438 18.4688 16.125C18.4688 16.4063 18.6563 16.6875 18.9375 16.7812C18.6563 16.6875 18.375 16.875 18.375 17.1562C18.375 17.3437 18.5625 17.5313 18.8438 17.5313C19.125 17.5313 19.2187 17.5312 19.5 17.4375C19.5 17.625 19.5 17.9062 19.6875 18.0937C19.875 18.4687 20.25 18.6562 20.625 18.5625C21 18.4687 21.2813 18.0937 21.2813 17.7187C21.2813 17.8125 21.375 18 21.375 18.0937C22.2187 18.375 23.25 17.625 23.3437 16.7812C23.9062 16.9687 24.4688 16.7812 24.8438 16.3125C25.125 15.8437 25.125 15.1875 24.8438 14.8125C25.5 14.8125 26.0625 14.25 26.1562 13.6875C26.3438 13.125 26.0625 12.375 25.5 12.0937C25.875 12.0937 26.25 11.7188 26.25 11.3438C26.25 10.9688 26.0625 10.5 25.6875 10.3125C25.4062 10.0312 24.9375 9.9375 24.5625 9.75C25.2188 9.375 25.875 8.8125 25.875 8.0625C25.875 7.40625 25.2188 6.75 24.5625 6.84375L21.9375 5.71875C21.6562 5.625 21.2812 5.4375 21 5.34375C20.5312 5.15625 20.0625 4.96875 19.5 4.96875C19.0312 4.96875 18.4688 5.34375 18.375 5.8125C18.375 6.09375 18.4687 6.375 18.5625 6.75C18.6562 7.03125 18.6563 7.40625 18.4688 7.59375" fill="#4A3531"/>
<path d="M23.1562 4.12484C23.5312 3.74984 24.2812 3.93734 24.4687 4.40609C24.6562 4.87484 24.3749 5.53109 23.8124 5.62484C24.0937 5.43734 24.4687 5.81234 24.6562 6.18734L25.1249 6.93734C25.4062 7.40609 25.6874 7.87484 25.7812 8.34359C25.9687 9.18734 25.7812 10.1248 25.5937 10.9686C25.4999 11.4373 25.3124 11.9998 24.8437 12.1873C24.3749 12.3748 23.9062 11.9998 23.5312 11.6248C22.6874 10.6873 22.4999 9.37484 22.0312 8.24984C21.8437 7.49984 21.5624 6.93734 21.2812 6.37484C20.9062 5.62484 19.5937 3.74984 20.4374 2.90609C21.2812 2.06234 23.2499 2.90609 23.1562 4.12484Z" fill="#4A3531"/>
<path d="M18.1871 1.03125C18.5621 1.03125 18.9371 1.03125 19.3121 1.21875C19.6871 1.40625 19.8746 1.78125 19.6871 2.15625C19.9683 1.6875 20.5308 1.40625 21.0933 1.59375C21.6558 1.6875 22.0308 2.25 22.0308 2.71875C22.4058 2.625 22.7808 2.4375 23.1558 2.4375C23.5308 2.34375 23.9996 2.4375 24.2808 2.8125C24.5621 3.1875 24.4683 3.65625 24.0933 3.84375C24.3746 3.65625 24.7496 3.75 25.0308 3.84375C25.3121 4.03125 25.4996 4.40625 25.4058 4.6875C25.4058 4.875 25.3121 5.0625 25.3121 5.25C25.4058 5.625 25.7808 5.8125 25.9683 6.09375C26.2496 6.28125 26.2496 6.65625 26.3433 7.03125C26.4371 7.5 26.4371 7.96875 26.5308 8.4375C26.6246 9 26.6246 9.5625 26.7183 10.2187C26.7183 10.5937 26.8121 11.0625 26.5308 11.3438C26.4371 11.625 26.4371 12 26.3433 12.2812C26.2496 12.6562 26.1558 13.0312 25.9683 13.4062C25.6871 13.6875 25.3121 13.875 24.9371 13.6875C24.6558 13.5938 24.5621 13.3125 24.4683 13.0312C24.3746 12.75 24.3746 12.4688 24.3746 12.1875C24.2808 11.8125 24.0933 11.4375 23.8121 11.25C23.5308 11.0625 23.0621 10.9687 22.6871 11.1562C22.7808 10.7812 22.8746 10.4062 22.7808 10.0312C22.6871 9.65625 22.4996 9.28125 22.1246 9.1875C21.5621 9.09375 20.9996 9.46875 20.5308 9.1875C20.0621 8.8125 20.5308 8.0625 20.2496 7.59375C19.9683 7.125 19.3121 7.125 18.8433 7.21875C18.2808 7.3125 17.7183 7.40625 17.3433 7.03125C17.0621 6.75 16.9683 6.5625 16.8746 6.375C16.4058 5.25 16.1246 3.9375 16.0308 2.71875C15.9371 1.78125 17.3433 1.125 18.1871 1.03125Z" fill="#4A3531"/>
<path d="M6.28109 19.6875C6.28109 19.6875 7.21859 23.4375 10.2186 24.375C13.2186 25.3125 17.7186 25.875 20.7186 24.75C23.7186 23.625 24.5623 22.5938 24.5623 22.5938C24.5623 22.5938 25.2186 29.9062 17.3436 28.7812C9.46859 27.6562 6.65609 25.0313 6.37484 24.5625C6.09359 24 4.59359 22.4062 6.28109 19.6875Z" fill="#53A9B8"/>
<path d="M12.75 7.78102C12.8437 8.24977 13.125 8.53102 13.5 8.81227C13.875 9.09352 14.25 9.18727 14.7187 9.37477C14.4375 9.28102 14.0625 9.56227 14.0625 9.84352C13.9687 10.1248 14.1562 10.4998 14.3437 10.6873C14.5312 10.8748 14.8125 11.0623 15.1875 11.156C14.9062 11.2498 14.8125 11.531 14.9062 11.8123C15 12.0935 15.1875 12.281 15.375 12.3748C15.8437 12.7498 16.3125 13.031 16.7812 13.3123C17.3437 13.6873 18 13.9685 18.6562 14.2498C19.0312 14.4373 19.5 14.531 19.9687 14.4373C20.5312 14.2498 20.8125 13.781 21 13.3123C21.375 12.3748 21.6562 11.4373 21.6562 10.4998C21.6562 10.031 21.6562 9.65602 21.4687 9.18727C21.2812 8.62477 20.8125 8.15602 20.3437 7.87477C19.6875 7.49977 19.125 7.31227 18.5625 7.12477C17.7187 6.74977 16.7812 6.46852 15.8437 6.37477C14.9062 6.18727 12.4687 6.28102 12.75 7.78102Z" fill="#4A3531"/>
<path d="M6.46875 7.6875C6.46875 7.6875 10.4063 7.3125 14.625 9.375C14.625 9.375 13.5 5.90625 8.15625 4.96875C8.15625 4.96875 6.65625 6.28125 6.46875 7.6875Z" fill="#6A648E"/>
<path d="M10.7812 27.4687C10.7812 27.4687 9.5625 26.0625 9.5625 25.3125C9.5625 25.3125 8.71875 25.875 8.53125 26.5312C8.53125 26.625 10.3125 27.5625 10.7812 27.4687Z" fill="#305472"/>
<path d="M20.7524 23.5417C21.0079 22.7537 20.736 21.9596 20.145 21.7679C19.554 21.5762 18.8677 22.0596 18.6122 22.8476C18.3566 23.6356 18.6285 24.4298 19.2195 24.6215C19.8105 24.8132 20.4968 24.3297 20.7524 23.5417Z" fill="#A88378"/>
<path opacity="0.43" d="M20.9062 24.6562C20.9062 24.6562 21.375 29.25 18.375 29.5313C18.375 29.5313 25.3125 29.25 24.8437 22.4062C24.8437 22.4062 23.5312 23.9062 20.9062 24.6562Z" fill="#305472"/>
<path d="M7.96875 6.84375C7.96875 6.84375 8.15625 6.09375 8.8125 5.71875C8.8125 5.71875 12 6.84375 13.125 7.96875C13.0312 8.0625 10.2188 6.84375 7.96875 6.84375Z" fill="#807CA5"/>
<path d="M15.2812 2.81234C16.8749 2.99984 18.5624 3.28109 20.0624 3.84359C20.4374 4.03109 20.9062 4.21859 21.0937 4.59359C21.2812 4.96859 21.1874 5.53109 20.8124 5.71859C21.2812 6.09359 21.9374 6.28109 22.4999 6.18734C22.4999 6.56234 22.5937 6.84359 22.5937 7.21859C23.2499 8.06234 23.5312 9.18734 23.7187 10.2186C23.8124 10.7811 23.9999 11.4373 23.9062 11.9998C23.8124 12.5623 23.5312 13.2186 22.9687 13.4061C21.9374 13.2186 21.8437 11.5311 20.8124 11.2498C20.0624 11.0623 19.1249 11.9061 18.4687 11.4373C17.9999 11.0623 18.1874 10.2186 18.4687 9.65609C17.9999 9.74984 17.5312 9.37484 17.3437 8.99984C17.1562 8.62484 17.0624 8.06234 16.9687 7.59359C16.8749 7.12484 16.6874 6.65609 16.2187 6.37484C15.8437 6.09359 15.2812 6.18734 14.8124 5.90609C14.3437 5.62484 14.0624 5.15609 13.6874 4.68734C13.4062 4.21859 12.7499 3.84359 12.4687 3.28109C11.9062 2.34359 14.6249 2.71859 15.2812 2.81234Z" fill="#604845"/>
<path d="M22.5 15.75L18.8438 14.8125C18.4688 15.2812 18.5625 16.0312 18.75 16.6875C18.8437 17.1562 18.9375 17.5313 19.2187 17.9063C19.5937 18.375 20.3437 18.4688 20.9062 18.375C21.4687 18.2813 22.0312 17.9062 22.5938 17.625C23.3438 17.1562 24.1875 16.5937 24.6562 15.8437C24 16.0312 23.1562 16.0312 22.5 15.75Z" fill="#362826"/>
</g>
<defs>
<clipPath id="clip0_1_17025">
<rect width="30" height="30" fill="white"/>
</clipPath>
</defs>
</svg>
