<svg width="17" height="17" viewBox="0 0 17 17" fill="none" xmlns="http://www.w3.org/2000/svg">
<path fill-rule="evenodd" clip-rule="evenodd" d="M8.18025 2.14038C8.50317 1.55321 9.34688 1.55321 9.66979 2.14038L12.1624 6.67248H5.68759L8.18025 2.14038ZM3.74743 6.67248L6.69066 1.32111C7.65945 -0.440374 10.1906 -0.440366 11.1593 1.32111L14.1026 6.67248H16.15C16.4047 6.67248 16.6459 6.78663 16.8073 6.98358C16.9688 7.18052 17.0334 7.43943 16.9836 7.68916L15.5568 14.8226C15.3185 16.0145 14.2719 16.8725 13.0564 16.8725H3.94369C2.72814 16.8725 1.68158 16.0145 1.44319 14.8226L0.0165154 7.68916C-0.0334307 7.43943 0.0312206 7.18052 0.19267 6.98358C0.354119 6.78663 0.595358 6.67248 0.850011 6.67248H3.74743ZM4.25001 8.37248H1.88684L3.11019 14.4892C3.18965 14.8865 3.53851 15.1725 3.94369 15.1725H13.0564C13.4616 15.1725 13.8104 14.8865 13.8899 14.4892L15.1132 8.37248H13.6H4.25001Z" fill="#0E0E0E"/>
</svg>
