<svg width="30" height="30" viewBox="0 0 30 30" fill="none" xmlns="http://www.w3.org/2000/svg">
<g clip-path="url(#clip0_1_8613)">
<path d="M20.9062 18.0937C20.9062 18.0937 22.875 13.5938 22.3125 9.09375L17.1562 15.9375L20.9062 18.0937Z" fill="#807CA5"/>
<path d="M19.7814 17.4375C21.6564 18.0937 23.3439 19.5937 24.0001 21.75C24.5626 24 23.8126 26.7187 22.0314 27.9375C20.9064 28.7812 19.5001 28.9687 18.1876 28.9687C15.0001 28.9687 11.8126 27.9375 8.62511 26.8125C7.68761 26.5312 6.56261 26.1562 5.62511 25.4062C4.68761 24.75 3.93761 23.7187 3.75011 22.4062C3.56261 20.7187 4.59386 18.9375 5.90636 18.0937C8.25011 16.5937 10.5939 15.9375 13.0314 16.0312C15.2814 16.0312 17.8126 16.7812 19.7814 17.4375Z" fill="#8EA8AF"/>
<path d="M19.5 16.125C21.2812 16.7812 22.875 18.2812 23.4375 20.4375C24 22.6875 23.25 25.4062 21.6562 26.625C20.625 27.4687 19.3125 27.6562 18.0937 27.6562C15.0937 27.6562 12.0937 26.625 9.09372 25.5C8.06247 25.125 7.12496 24.75 6.18746 24.0937C5.34372 23.4375 4.59371 22.4062 4.40621 21.0937C4.21871 19.4062 5.15622 17.625 6.46872 16.7812C8.62497 15.2812 10.875 14.625 13.2187 14.7187C15.1875 14.7187 17.625 15.375 19.5 16.125Z" fill="#D3DEE2"/>
<path d="M16.4065 17.0625C16.4065 17.0625 12.6565 18.5625 9.93773 22.9687C9.93773 22.9687 8.90648 19.2188 9.56273 16.5C9.46898 16.5 13.3127 18.1875 16.4065 17.0625Z" fill="white"/>
<path d="M10.875 26.1562L12.6562 20.3438L14.25 20.1562L11.7188 26.3438L10.875 26.1562ZM6.9375 24.6562L7.96875 18.4688L9.46875 18.2812L7.6875 25.0313L6.9375 24.6562Z" fill="#BDD1D6"/>
<path d="M12.9375 20.25L11.0625 26.25C11.0625 26.25 8.53125 25.6875 7.5 24.9375L8.4375 18.75C8.4375 18.75 11.7188 20.4375 12.9375 20.25Z" fill="#FCFCFC"/>
<path d="M14.3438 20.0625C14.3438 20.0625 19.4062 20.0625 21.9375 20.8125C21.9375 20.8125 23.5313 20.5312 23.1563 19.5C22.7813 18.4687 21.6563 16.9688 19.875 16.125C19.875 16.125 16.2188 19.7812 14.3438 20.0625Z" fill="#807CA5"/>
<path d="M22.1248 7.3125C22.1248 7.3125 23.9998 15.0938 16.8748 19.4063C16.8748 19.4063 13.8748 20.9062 11.1561 20.4375C8.43732 19.9687 6.84357 17.7187 7.68732 15.8437L11.8123 9.65625L22.1248 7.3125Z" fill="#6A648E"/>
<path d="M8.15623 17.8125C8.15623 17.8125 4.03123 15.2812 4.59373 8.8125L9.65623 9.84375L8.15623 17.8125Z" fill="#6A648E"/>
<path opacity="0.28" d="M20.4781 24.5483C20.9733 23.0216 20.2967 21.4343 18.967 21.003C17.6372 20.5717 16.1579 21.4598 15.6627 22.9866C15.1675 24.5133 15.8441 26.1006 17.1738 26.5319C18.5036 26.9631 19.983 26.0751 20.4781 24.5483Z" fill="white"/>
<path d="M22.4063 9.56264C22.4063 14.5314 18.4688 18.5626 13.5 18.4689C8.53125 18.4689 4.59375 14.4376 4.59375 9.46889C4.59375 4.50014 8.625 0.468888 13.5938 0.562638C18.5625 0.562638 22.5 4.59389 22.4063 9.56264Z" fill="#E5A98C"/>
<path d="M22.4365 9.34465C22.4538 4.58119 18.7322 0.706109 14.124 0.689411C9.5159 0.672714 5.76629 4.52072 5.74903 9.28418C5.73177 14.0476 9.4534 17.9227 14.0615 17.9394C18.6697 17.9561 22.4193 14.1081 22.4365 9.34465Z" fill="#E8CCAA"/>
<path d="M17.9173 10.466C17.9299 6.997 15.2118 4.1749 11.8463 4.16271C8.48082 4.15051 5.74236 6.95284 5.72979 10.4219C5.71722 13.8909 8.4353 16.713 11.8008 16.7252C15.1663 16.7374 17.9047 13.9351 17.9173 10.466Z" fill="#FAEACF"/>
<path d="M14.6919 11.1282C14.6937 10.6104 14.3175 10.1893 13.8515 10.1876C13.3855 10.1859 13.0062 10.6043 13.0044 11.1221C13.0025 11.6398 13.3787 12.0609 13.8447 12.0626C14.3107 12.0643 14.69 11.646 14.6919 11.1282Z" fill="#425763"/>
<path d="M14.1348 10.8148C14.1354 10.6595 14.0519 10.5333 13.9483 10.5329C13.8448 10.5325 13.7604 10.6581 13.7598 10.8135C13.7592 10.9688 13.8427 11.095 13.9463 11.0954C14.0498 11.0958 14.1342 10.9702 14.1348 10.8148Z" fill="white"/>
<path d="M8.02586 9.70875C8.02773 9.19098 7.6515 8.76988 7.18551 8.76819C6.71952 8.76651 6.34023 9.18487 6.33836 9.70264C6.33648 10.2204 6.71272 10.6415 7.17871 10.6432C7.6447 10.6449 8.02398 10.2265 8.02586 9.70875Z" fill="#425763"/>
<path d="M7.56303 9.39589C7.56359 9.24056 7.4801 9.11434 7.37655 9.11396C7.273 9.11359 7.18859 9.2392 7.18803 9.39453C7.18747 9.54986 7.27096 9.67609 7.37451 9.67646C7.47806 9.67684 7.56247 9.55122 7.56303 9.39589Z" fill="white"/>
<path d="M12 15.375C12 15.375 11.1563 15.2812 10.5938 14.8125C10.0313 14.3437 9.375 14.4375 9.28125 14.4375C9.1875 14.4375 9 14.25 8.8125 14.1563C8.625 14.0625 8.34375 14.0625 8.34375 14.1563C8.34375 14.25 8.625 14.7187 8.625 14.7187C8.625 14.7187 8.71875 15.0937 8.625 15.2812C8.53125 15.4687 8.625 16.125 9.28125 16.2187C9.9375 16.3125 10.4062 16.3125 10.6875 16.125C10.875 16.0313 12 15.375 12 15.375Z" fill="#A67A65"/>
<path d="M20.625 12.9377C20.625 12.9377 17.625 9.00016 10.0312 7.68766C10.0312 7.68766 6 7.03141 4.59375 9.84391C4.59375 9.84391 4.96875 -0.749839 15.2812 1.78141C23.5313 3.75016 23.4375 11.7189 20.7188 14.1564C20.7188 14.1564 21.2813 14.2502 20.625 12.9377Z" fill="#D3DEE2"/>
<path d="M20.1562 10.8748C20.1562 10.8748 16.9688 5.99982 10.875 5.99982C10.875 5.99982 6.1875 5.71857 4.78125 8.53107C4.78125 8.53107 5.90625 -1.59393 15.8437 0.468572C24.2812 2.24982 23.3438 12.4686 20.625 14.9061C20.5312 14.9061 20.7188 12.1873 20.1562 10.8748Z" fill="#6A648E"/>
<path d="M15.9374 1.96896C18.3749 2.90646 21.5624 5.06271 21.5624 10.0315C21.5624 10.0315 19.3124 6.37521 16.7812 5.53146C16.1249 5.34396 15.3749 5.06271 14.8124 4.78146C12.8437 4.03146 13.9687 1.31271 15.9374 1.96896Z" fill="#807CA5"/>
<path d="M19.3125 9.65648C19.3125 9.65648 21.8438 16.1252 14.25 19.3127C14.25 19.3127 21.375 18.1877 22.4062 10.8752C22.4062 10.8752 21.0938 9.18773 19.3125 9.65648Z" fill="#6A648E"/>
<path d="M6.375 16.0312C6.375 16.0312 7.78125 22.6875 10.3125 22.875C12.8438 23.0625 16.0312 20.625 19.3125 17.1562C19.3125 17.1562 14.5312 20.1562 12 19.6875C9.46875 19.2187 6.375 16.0312 6.375 16.0312Z" fill="#6A648E"/>
<path d="M15.375 27.5625L15.0938 28.0312L16.6875 29.0625L25.5937 20.25L24.0938 18.375L15.375 27.5625Z" fill="#9A4C18"/>
<path d="M25.781 22.6875C25.4998 26.25 22.2185 29.1562 18.5623 29.1562C14.9998 29.1562 12.656 26.1563 13.3123 22.6875C13.9685 19.5 17.0623 16.9688 20.2498 16.875C23.531 16.9688 26.0623 19.4063 25.781 22.6875Z" fill="#9A4C18"/>
<path d="M26.6249 23.8125C26.3437 27.1875 23.1562 30 19.5937 30C16.1249 30 13.8749 27.0938 14.5312 23.8125C15.1874 20.7187 18.1874 18.375 21.2812 18.2812C24.5624 18.2812 26.9062 20.7187 26.6249 23.8125Z" fill="#9A4C18"/>
<path d="M16.4062 27.75L17.9063 28.5938L25.2188 20.9062L24 19.3125L16.4062 27.75Z" fill="#F49937"/>
<path d="M25.9687 23.8125C25.6874 26.7188 23.0624 29.0625 20.0624 29.0625C17.1562 29.0625 15.2812 26.625 15.7499 23.8125C16.2187 21.1875 18.7499 19.0312 21.4687 19.0312C24.1874 19.0312 26.2499 21.0938 25.9687 23.8125Z" fill="#F49937"/>
<path d="M24.9377 22.6875C24.6564 25.7813 21.8439 28.3125 18.6564 28.3125C15.5627 28.3125 13.5002 25.6875 14.0627 22.6875C14.6252 19.875 17.3439 17.625 20.1564 17.625C23.0627 17.625 25.2189 19.7813 24.9377 22.6875Z" fill="#FFEDC0"/>
<path d="M24.5624 22.9689C24.2812 25.8751 21.6562 28.2189 18.6562 28.2189C15.7499 28.2189 13.8749 25.7814 14.3437 22.9689C14.8124 20.3439 17.3437 18.1876 20.0624 18.1876C22.8749 18.0939 24.8437 20.1564 24.5624 22.9689Z" fill="#FFD766"/>
<path d="M23.4373 22.9686C23.2498 25.2186 21.1873 26.9998 18.8436 26.9998C16.5936 26.9998 15.0936 25.1248 15.4686 22.9686C15.8436 20.9061 17.8123 19.2186 19.9686 19.2186C22.1248 19.1248 23.6248 20.8123 23.4373 22.9686Z" fill="#FFEDC0"/>
<path d="M23.5311 22.4063C23.3436 24.5625 21.2811 26.4375 19.0311 26.4375C16.7811 26.4375 15.2811 24.6563 15.6561 22.5C16.0311 20.4375 17.9998 18.75 20.0623 18.75C22.1248 18.6563 23.7186 20.25 23.5311 22.4063Z" fill="#F49937"/>
<path d="M22.7814 22.9688C22.5939 24.8438 20.8127 26.3438 18.9377 26.3438C17.0627 26.3438 15.7502 24.75 16.1252 22.9688C16.4064 21.1875 18.0939 19.7813 19.8752 19.7813C21.7502 19.6875 22.9689 21.0938 22.7814 22.9688Z" fill="#FFD766"/>
<path d="M20.4375 19.4062L20.9062 21.375L23.1562 21.9375L21.0937 23.3437L20.9062 25.6875L19.125 24.375L16.7812 25.2187L17.8125 22.9687L16.5938 21.2812L18.9375 21.1875L20.4375 19.4062Z" fill="#F49937"/>
</g>
<defs>
<clipPath id="clip0_1_8613">
<rect width="30" height="30" fill="white"/>
</clipPath>
</defs>
</svg>
