<svg width="30" height="30" viewBox="0 0 30 30" fill="none" xmlns="http://www.w3.org/2000/svg">
<g clip-path="url(#clip0_1_11250)">
<path d="M0.28125 10.3125L6.84375 3.46875L27.4688 3.9375L30 12.75L29.1563 29.1562L1.125 27L0.28125 10.3125Z" fill="#1D260F"/>
<path d="M0.28125 9.28125L6.75 2.4375L27.375 2.90625L29.9062 11.625L29.0625 28.0312L1.125 25.9688L0.28125 9.28125Z" fill="#3B511C"/>
<path d="M28.5 22.6875L1.6875 20.5312L7.6875 13.5938L27 14.0625L28.5 22.6875Z" fill="#3B511C"/>
<path d="M25.5 20.5312L4.875 19.125L8.53125 14.5312L25.125 15L25.5 20.5312Z" fill="#B0BF71"/>
<path d="M9.84375 16.7812C9.5625 17.25 8.71875 17.625 7.96875 17.625C7.21875 17.625 7.03125 17.1562 7.40625 16.6875C7.78125 16.2187 8.53125 15.9375 9.1875 15.9375C9.84375 15.9375 10.125 16.3125 9.84375 16.7812ZM24.5625 17.4375C24.5625 18 23.9062 18.4688 22.9687 18.375C22.125 18.2813 21.375 17.8125 21.4688 17.25C21.5625 16.6875 22.2188 16.3125 23.0625 16.4063C23.9062 16.5 24.5625 16.9688 24.5625 17.4375Z" fill="#63942A"/>
<path d="M18.5625 17.1559C18.1875 18.8434 16.2188 20.2496 14.3438 20.0621C12.4688 19.9684 11.7188 18.3746 12.5625 16.8746C13.2188 15.4684 14.9063 14.5309 16.4063 14.6246C17.9063 14.6246 18.9375 15.6559 18.5625 17.1559Z" fill="#B0BF71"/>
<path d="M1.6875 20.5312L1.96875 25.125L28.2188 27.1875L28.5 22.6875L1.6875 20.5312Z" fill="#507224"/>
<path d="M28.4062 17.1562L1.125 14.8125L7.21875 7.6875L26.9062 8.15625L28.4062 17.1562Z" fill="#3B511C"/>
<path d="M25.4063 14.9062L4.40625 13.4063L8.0625 8.625L25.0312 9.09375L25.4063 14.9062Z" fill="#B0BF71"/>
<path d="M9.37485 10.9686C9.0936 11.4373 8.1561 11.9061 7.49985 11.8123C6.74985 11.8123 6.4686 11.3436 6.8436 10.7811C7.2186 10.3123 8.06235 9.93731 8.7186 10.0311C9.37485 10.0311 9.74985 10.4998 9.37485 10.9686ZM24.4686 11.7186C24.4686 12.2811 23.7186 12.7498 22.8749 12.7498C21.9374 12.6561 21.2811 12.1873 21.3749 11.6248C21.4686 11.0623 22.1249 10.6873 22.9686 10.6873C23.7186 10.6873 24.3749 11.1561 24.4686 11.7186Z" fill="#63942A"/>
<path d="M18.2813 11.3438C17.9063 13.0313 15.9375 14.5313 13.9688 14.3438C12.0938 14.2501 11.3438 12.6563 12.1875 10.9688C12.9375 9.56256 14.625 8.53131 16.125 8.62506C17.625 8.71881 18.6563 9.84381 18.2813 11.3438Z" fill="#B0BF71"/>
<path d="M1.125 14.8125L1.40625 19.6875L28.125 21.8437L28.4062 17.1562L1.125 14.8125Z" fill="#507224"/>
<path d="M28.6875 11.625L0.9375 9.5625L7.125 3.09375L27.0938 3.5625L28.6875 11.625Z" fill="#63942A"/>
<path d="M26.9063 10.5938L2.71875 8.90625L7.6875 3.5625L26.0625 4.03125L26.9063 10.5938Z" fill="#D2E1A3"/>
<path d="M25.6875 9.65625L4.3125 8.25L8.0625 3.9375L25.2188 4.5L25.6875 9.65625Z" fill="#B0BF71"/>
<path d="M19.4065 6.46834C18.9377 8.53084 16.4065 10.2183 13.6877 9.93709C11.0627 9.74959 10.0315 7.96834 11.2502 6.09334C12.2815 4.49959 14.4377 3.37459 16.4065 3.46834C18.3752 3.46834 19.7815 4.68709 19.4065 6.46834Z" fill="#507224"/>
<path d="M9.37485 6.09375C9.0936 6.5625 8.1561 6.84375 7.4061 6.84375C6.6561 6.84375 6.37485 6.375 6.74985 6C7.12485 5.53125 7.9686 5.25 8.62485 5.25C9.37485 5.25 9.6561 5.625 9.37485 6.09375ZM24.6561 6.75C24.6561 7.3125 23.9061 7.6875 22.9686 7.59375C22.0311 7.59375 21.3749 7.03125 21.3749 6.5625C21.4686 6.09375 22.1249 5.71875 22.9686 5.71875C23.9061 5.8125 24.6561 6.28125 24.6561 6.75Z" fill="#63942A"/>
<path d="M0.9375 9.5625L1.21875 13.875L28.5 15.8438L28.6875 11.625L0.9375 9.5625Z" fill="#507224"/>
<path d="M12.6562 10.5L12.4687 14.7188L15.5625 15L15.6563 10.875L12.6562 10.5ZM12.375 15.8438L12.4687 20.5312L15.5625 20.7188V16.2187L12.375 15.8438ZM12.2812 21.4688L12.375 26.1563L15.6563 26.3438L15.5625 21.6563L12.2812 21.4688Z" fill="#B4BAAB"/>
<path d="M14.8125 3.28125L12.6562 10.4063L15.5625 10.7812L17.8125 3.375L14.8125 3.28125Z" fill="white"/>
<path d="M1.03125 10.5938L9.9375 11.4375H1.03125V10.5938ZM1.3125 12.0937L10.2187 12.9375H1.21875L1.3125 12.0937ZM28.5 13.3125L19.125 13.4062L28.5 14.4375V13.3125ZM1.21875 15.75L9.75 16.5938H1.125L1.21875 15.75ZM1.5 18.0937L9.9375 18.9375H1.40625L1.5 18.0937ZM28.3125 18.9375H19.3125L28.3125 20.0625V18.9375ZM1.96875 22.3125L10.4062 23.25L1.875 23.1563L1.96875 22.3125ZM28.125 24.9375L19.2188 25.0313L28.125 26.0625V24.9375Z" fill="#3B511C"/>
</g>
<defs>
<clipPath id="clip0_1_11250">
<rect width="30" height="30" fill="white"/>
</clipPath>
</defs>
</svg>
