<svg width="30" height="30" viewBox="0 0 30 30" fill="none" xmlns="http://www.w3.org/2000/svg">
<g clip-path="url(#clip0_1_13756)">
<path d="M22.4062 10.3125L25.6875 10.5938C25.6875 10.5938 25.3125 15.2812 21.6562 16.4062C18.0937 17.5312 22.4062 10.3125 22.4062 10.3125ZM5.81248 3.46875C5.81248 3.46875 3.74998 6.5625 3.18748 8.625C2.62498 10.6875 7.31248 7.875 7.31248 7.875L5.81248 3.46875Z" fill="#999893"/>
<path d="M7.12478 4.6875C7.12478 4.6875 3.93729 7.03125 3.65604 8.0625C3.37479 9.09375 2.06229 13.7812 5.62478 12.8438C9.18728 11.9062 10.031 6.1875 10.031 6.1875L7.12478 4.6875Z" fill="#999893"/>
<path d="M6.93749 5.71875C6.93749 5.71875 4.31249 7.59375 4.03124 8.53125C3.74999 9.46875 2.71874 13.125 5.62499 12.375C8.53124 11.625 9.18749 6.9375 9.18749 6.9375L6.93749 5.71875Z" fill="#BFBDB4"/>
<path d="M14.625 3.74978C14.625 3.74978 15.1875 5.81228 16.125 6.65603C17.1562 7.49978 17.625 9.93728 18.75 10.031C19.9687 10.1248 22.125 11.8123 23.4375 11.0623C24.75 10.3123 24.9375 7.78103 24.4687 7.21853C23.9062 6.65603 22.0312 4.78103 21.375 3.65603C20.7187 2.53103 19.6875 1.68728 18.1875 0.937279C16.6875 0.093529 13.125 -0.375221 12.9375 0.562279C12.75 1.49978 14.625 3.74978 14.625 3.74978Z" fill="#999893"/>
<path d="M21.4687 10.6875C23.7469 10.6875 25.5937 8.7987 25.5937 6.46875C25.5937 4.1388 23.7469 2.25 21.4687 2.25C19.1906 2.25 17.3438 4.1388 17.3438 6.46875C17.3438 8.7987 19.1906 10.6875 21.4687 10.6875Z" fill="#999893"/>
<path d="M21.1875 10.5C23.155 10.5 24.75 8.86304 24.75 6.84375C24.75 4.82446 23.155 3.1875 21.1875 3.1875C19.22 3.1875 17.625 4.82446 17.625 6.84375C17.625 8.86304 19.22 10.5 21.1875 10.5Z" fill="#E2E0D7"/>
<path d="M14.9062 0.843729C14.9062 0.843729 13.5938 3.74998 11.25 4.40623C8.90625 5.06248 4.59375 6.84373 3.9375 9.46873C3.9375 9.56248 5.15625 -0.656271 14.9062 0.843729Z" fill="#827420"/>
<path d="M20.0626 17.5313C21.9376 18.1875 23.7188 19.875 24.2813 22.2188C24.8438 24.6562 24.0001 27.5625 22.3126 28.875C21.1876 29.7187 19.7813 30 18.4688 30C15.2813 30 12.0938 28.875 8.81256 27.6562C7.78131 27.2812 6.65631 26.9062 5.71881 26.1562C4.78131 25.4062 4.03131 24.2812 3.84381 22.9687C3.65631 21.0937 4.68756 19.2187 6.09381 18.2812C8.43756 16.6875 10.8751 16.0312 13.3126 16.0312C15.4688 16.0312 18.0938 16.875 20.0626 17.5313Z" fill="#614D6D"/>
<path d="M19.3125 17.8125C21 18.375 22.5938 19.875 23.1563 21.8437C23.7188 23.9062 22.9688 26.4375 21.375 27.6562C20.3438 28.4062 19.125 28.5938 17.9063 28.5938C15 28.5938 12.0938 27.5625 9.18752 26.625C8.25002 26.25 7.21877 25.9688 6.37502 25.3125C5.53127 24.6562 4.78127 23.7187 4.68752 22.5C4.50002 20.9062 5.43752 19.3125 6.65627 18.4688C8.81252 17.0625 10.9688 16.5 13.2188 16.5C15.0938 16.5 17.4375 17.1562 19.3125 17.8125Z" fill="#957DA1"/>
<path d="M16.7812 18.6563C16.7812 18.6563 12.7499 20.3438 9.74992 25.0313C9.74992 25.0313 8.71867 21 9.28117 18.0938C9.37492 18 13.4999 19.875 16.7812 18.6563Z" fill="#FAEACF"/>
<path d="M6.5625 18.0938C6.5625 18.0938 8.15625 22.0313 10.0312 22.4063C11.9062 22.7813 15.2812 23.4375 19.5938 19.2188L6.5625 18.0938Z" fill="#E8CCAA"/>
<path d="M23.8456 11.3298C23.8655 5.8415 19.4324 1.37621 13.9441 1.35632C8.45576 1.33643 3.99047 5.76948 3.97058 11.2578C3.95069 16.7461 8.38374 21.2114 13.8721 21.2313C19.3604 21.2512 23.8257 16.8182 23.8456 11.3298Z" fill="#A67A65"/>
<path d="M23.3949 10.5661C23.4142 5.23307 19.1066 0.894157 13.7736 0.874833C8.44059 0.855509 4.10168 5.16309 4.08235 10.4961C4.06303 15.8291 8.37061 20.168 13.7036 20.1873C19.0366 20.2067 23.3755 15.8991 23.3949 10.5661Z" fill="#E5A98C"/>
<path d="M23.3466 10.26C23.3652 5.13415 19.3508 0.964195 14.3802 0.946184C9.40969 0.928173 5.36519 5.06893 5.34662 10.1948C5.32805 15.3207 9.34243 19.4907 14.313 19.5087C19.2836 19.5267 23.328 15.3859 23.3466 10.26Z" fill="#E8CCAA"/>
<path d="M18.3775 11.5773C18.391 7.84942 15.4638 4.8167 11.8394 4.80356C8.21508 4.79043 5.26599 7.80186 5.25249 11.5298C5.23898 15.2577 8.16616 18.2904 11.7905 18.3036C15.4149 18.3167 18.364 15.3053 18.3775 11.5773Z" fill="#FAEACF"/>
<path d="M14.8797 12.2561C14.8818 11.6866 14.5057 11.2235 14.0397 11.2218C13.5737 11.2201 13.1943 11.6805 13.1922 12.25C13.1901 12.8195 13.5662 13.2826 14.0322 13.2843C14.4982 13.286 14.8776 12.8257 14.8797 12.2561Z" fill="#425763"/>
<path d="M14.3584 11.9267C14.359 11.7713 14.2755 11.6451 14.172 11.6447C14.0684 11.6443 13.984 11.77 13.9834 11.9253C13.9829 12.0806 14.0664 12.2068 14.1699 12.2072C14.2735 12.2076 14.3579 12.082 14.3584 11.9267Z" fill="white"/>
<path d="M15.9374 4.96853C15.9374 4.96853 16.4999 7.03103 17.4374 7.87478C18.3749 8.71853 18.9374 11.156 20.0624 11.2498C21.2811 11.3435 23.4374 13.031 24.7499 12.281C26.0624 11.531 26.2499 8.99978 25.7811 8.43728C25.2186 7.87478 23.3436 5.99978 22.6874 4.87478C22.1249 3.74978 20.9999 2.90603 19.4061 2.06228C17.9061 1.21853 14.3436 0.749779 14.1561 1.68728C13.9686 2.62478 15.9374 4.96853 15.9374 4.96853Z" fill="#999893"/>
<path d="M7.73274 10.7C7.7348 10.1304 7.35872 9.66734 6.89273 9.66566C6.42674 9.66397 6.0473 10.1243 6.04524 10.6938C6.04318 11.2634 6.41926 11.7265 6.88525 11.7282C7.35124 11.7298 7.73068 11.2695 7.73274 10.7Z" fill="#425763"/>
<path d="M7.21147 10.3705C7.21203 10.2152 7.12854 10.0889 7.02499 10.0886C6.92143 10.0882 6.83703 10.2138 6.83647 10.3691C6.83591 10.5245 6.9194 10.6507 7.02295 10.6511C7.1265 10.6514 7.21091 10.5258 7.21147 10.3705Z" fill="white"/>
<path d="M20.3438 11.9998C20.3438 11.9998 21.1875 11.3435 21.8437 11.6248C22.5 11.906 22.4062 13.9685 20.7187 14.156L20.3438 11.9998Z" fill="#FAEACF"/>
<path d="M12.0937 16.7812C12.0937 16.7812 11.1562 16.6875 10.4999 16.125C9.84366 15.5625 9.28116 15.6562 9.09366 15.75C8.99991 15.75 8.81241 15.5625 8.53116 15.4688C8.34366 15.375 8.06241 15.375 7.96866 15.4688C7.87491 15.5625 8.24991 16.0313 8.24991 16.0313C8.24991 16.0313 8.34366 16.4062 8.24991 16.6875C8.15616 16.875 8.24991 17.5312 8.90616 17.7187C9.56241 17.9062 10.1249 17.8125 10.4062 17.625C10.7812 17.5312 12.0937 16.7812 12.0937 16.7812Z" fill="#A87483"/>
<path d="M4.03125 8.06227L6.75 6.37477C7.40625 5.90602 8.15625 5.34352 8.90625 5.06227C9.5625 4.49977 10.2188 4.12477 10.875 3.93727C13.3125 3.18727 14.8125 -0.000229016 14.8125 -0.000229016C6.75 -0.375229 4.59375 4.40602 4.03125 8.06227Z" fill="#999893"/>
<path d="M12.5627 3.65625C12.5627 3.65625 15.2815 4.96875 16.5002 7.03125C17.719 9.09375 20.0627 12.1875 23.719 11.5312C23.719 11.5312 24.1877 0.9375 12.9377 0.75C13.0315 0.75 10.3127 2.71875 12.5627 3.65625Z" fill="#E2E0D7"/>
<path d="M14.1564 0.84396C14.1564 0.84396 12.9377 4.03146 10.7814 4.68771C8.62519 5.34396 4.59394 7.12521 4.03144 9.75021C3.93769 9.84396 5.06269 -0.65604 14.1564 0.84396Z" fill="#E2E0D7"/>
<path d="M17.6248 12.9374C17.6248 14.6249 16.3123 15.9374 14.531 15.9374C12.656 15.9374 10.8748 14.4374 10.781 12.4687C10.6873 10.4999 12.3748 9.0937 14.3435 9.37495C16.3123 9.6562 17.6248 11.2499 17.6248 12.9374ZM9.65603 10.7812C9.65603 12.2812 8.53103 13.4062 7.03103 13.4062C5.43728 13.4062 3.93728 11.9999 3.84353 10.3124C3.74978 8.5312 5.24978 7.2187 6.93728 7.49995C8.53103 7.7812 9.74978 9.2812 9.65603 10.7812Z" stroke="#425763" stroke-width="0.666844" stroke-miterlimit="10"/>
<path d="M17.7188 12.4688L20.3438 12" stroke="#425763" stroke-width="0.666844" stroke-miterlimit="10" stroke-linecap="round"/>
<path d="M15.2811 5.43728C15.2811 5.43728 15.8436 7.49978 16.7811 8.34353C17.8124 9.18728 18.2811 11.6248 19.4061 11.7185C20.6249 11.8123 22.7811 13.4998 24.0936 12.7498C25.4061 11.9998 25.5936 9.46853 25.1249 8.90603C24.5624 8.34353 22.6874 6.46853 22.0311 5.34353C21.3749 4.21853 20.3436 3.37478 18.7499 2.53103C17.2499 1.68728 13.6874 1.21853 13.4999 2.15603C13.3124 3.09353 15.2811 5.43728 15.2811 5.43728Z" fill="#E2E0D7"/>
<path d="M21.75 12.1875C21.75 12.1875 22.875 14.4375 22.5937 15.0938C22.3125 15.75 25.125 13.6875 25.2187 11.25C25.3125 8.8125 22.5937 8.71875 22.5937 8.71875L21.75 12.1875Z" fill="#E2E0D7"/>
<path d="M12.1875 3.84375C12.1875 3.84375 14.25 5.25 14.625 6.28125C15 7.3125 18.375 10.5938 18.375 10.5938C18.375 10.5938 16.6875 8.34375 16.2187 7.125C15.75 5.90625 14.625 4.40625 12.5625 3.65625L12.1875 3.84375Z" fill="#C4C4C4"/>
<path d="M22.0312 12.6562C22.0312 12.6562 23.8125 14.1562 23.9062 15L22.5 16.125C22.5 16.125 22.6875 13.5 22.0312 12.6562Z" fill="#999893"/>
<path d="M15.1876 1.96878C15.1876 1.96878 17.6251 2.06253 18.7501 3.46878C19.8751 4.78128 22.6877 8.15628 23.6252 8.62503C24.5627 9.00003 24.8439 11.4375 23.6252 11.1563C22.5939 10.6875 19.6876 8.34378 19.6876 8.34378C19.6876 8.34378 18.6564 7.78128 18.0939 5.90628C17.5314 4.03128 15.1876 1.96878 15.1876 1.96878ZM11.0626 1.87503C11.3439 1.78128 12.8439 1.50003 12.6564 2.25003C12.4689 3.00003 8.3439 3.65628 8.1564 3.65628C8.06265 3.75003 8.9064 2.25003 11.0626 1.87503Z" fill="#EFEFEF"/>
<path d="M20.1562 11.7187C20.1562 11.7187 21.8437 17.3437 20.2499 18.6562C18.6562 19.9687 25.6874 16.2188 25.9687 14.1562C26.2499 12.0938 25.2187 9.65625 25.2187 9.65625L20.1562 11.7187Z" fill="#E2E0D7"/>
<path d="M25.4999 9.9375C25.4999 9.9375 24.9374 10.5 25.2186 11.25C25.4999 12.0937 25.9686 14.3437 25.0311 14.9062L19.8749 18.4688C19.8749 18.4688 19.3124 18.8438 20.2499 18.8438C21.1874 18.8438 22.9686 18.4687 24.0936 17.1562C25.1249 15.8437 26.1561 15.6562 26.3436 14.25C26.5311 12.8437 25.8749 10.0312 25.8749 10.0312L25.4999 9.9375Z" fill="#999893"/>
<path d="M20.625 14.3438C20.625 14.3438 21.1875 16.125 20.7188 17.0625C20.25 18 20.1562 18.6562 20.1562 18.6562L22.875 17.5313L20.625 14.3438Z" fill="#999893"/>
<path opacity="0.4" d="M20.7188 18.9375C20.7188 18.9375 22.125 23.9062 19.3125 25.6875C16.5 27.4688 12 27.4687 12 27.4687C12 27.4687 14.7187 28.7812 16.4062 29.0625C18.0938 29.3438 21 30 22.6875 26.9063C24.375 23.8125 23.4375 19.3125 21.5625 18.75L20.7188 18.9375Z" fill="#614D6D"/>
<path d="M7.87517 19.125C7.87517 19.125 7.59392 20.625 8.53142 21.6563C9.46892 22.6875 8.43767 21.75 8.43767 21.75C8.43767 21.75 6.37517 19.4062 6.46892 18.1875H6.65642L7.87517 19.125Z" fill="#614D6D"/>
<path d="M15.0936 22.5938L14.7186 28.3125L9.74986 27C8.34361 26.5312 5.99986 25.0313 6.18736 25.0313L7.96861 20.9062C7.87486 20.9062 11.9061 23.25 15.0936 22.5938Z" fill="#DACCE2"/>
<path d="M8.15625 22.0312L11.8125 23.3437L10.6875 26.5312L7.21875 25.0313L8.15625 22.0312Z" fill="#E8DFEF"/>
<path d="M13.875 22.875L14.4375 28.5938L15.1875 28.6875L15.6563 22.0312L13.875 22.875Z" fill="#614D6D"/>
<path d="M9.65625 11.0625L10.875 11.3438" stroke="#425763" stroke-width="0.666844" stroke-miterlimit="10" stroke-linecap="round"/>
<path opacity="0.16" d="M21.8437 17.4375L20.625 14.1562C20.625 14.1562 23.0625 13.5937 23.625 13.0312L25.5 11.3438L25.875 13.4062C25.875 13.4062 26.25 15.0938 25.3125 15.6563C24.375 16.2188 21.8437 17.4375 21.8437 17.4375Z" fill="#999893"/>
</g>
<defs>
<clipPath id="clip0_1_13756">
<rect width="30" height="30" fill="white"/>
</clipPath>
</defs>
</svg>
