<svg width="30" height="30" viewBox="0 0 30 30" fill="none" xmlns="http://www.w3.org/2000/svg">
<g clip-path="url(#clip0_1_9534)">
<path d="M14.0625 2.21239C14.0625 2.21239 20.1 0.95614 21.9469 5.02489C23.7937 9.09364 20.9344 10.5374 20.9344 10.5374L18.8812 8.66239C18.8812 8.66239 21.9375 6.00926 19.275 4.38739C16.6125 2.76551 14.7187 3.30926 14.7187 3.30926L14.1 2.37176" fill="#962C2C"/>
<path d="M22.1531 18.6563C22.1531 18.6563 24.7031 25.9595 19.7531 26.2782L16.875 25.0782L16.6406 25.9595C17.1726 26.5074 17.8191 26.931 18.5338 27.2C19.2485 27.469 20.0138 27.5768 20.775 27.5157C23.2406 27.1876 26.7188 22.5845 23.4375 18.5532L22.1531 18.6563Z" fill="#962C2C"/>
<path d="M3.48773 11.147C3.48773 11.147 -1.19977 15.122 0.862734 19.1157C2.92523 23.1095 5.82211 21.7126 5.82211 21.7126L5.58773 18.9001C5.58773 18.9001 1.61273 19.6876 1.97836 16.5938C2.34398 13.5001 3.91898 12.3751 3.91898 12.3751L3.52523 11.2501" fill="#962C2C"/>
<path d="M11.9155 14.1654C12.6667 14.9896 13.1675 16.0107 13.3593 17.1092L15.6937 16.3123C15.6937 16.3123 13.5843 13.7904 13.7437 12.6279C13.7437 12.6279 12.6187 14.1561 11.9155 14.1654Z" fill="#962C2C"/>
<path d="M13.8281 16.8751C13.8281 16.8751 18.3844 9.69384 29.2969 11.1376L29.8687 11.4376C30.0831 13.1413 30.1739 14.8583 30.1406 16.5751C29.9906 18.3001 29.3344 23.3438 24.9563 23.7751C20.5781 24.2063 17.4 22.8376 13.5938 16.7813" fill="#962C2C"/>
<path d="M15.5812 16.8752C15.5812 16.8752 19.3312 10.9127 28.4155 12.1127L28.8937 12.3658C29.069 13.7774 29.141 15.1999 29.1093 16.6221C28.9874 18.0658 28.4437 22.2471 24.8155 22.6033C21.1874 22.9596 18.5437 21.8439 15.3843 16.8002" fill="#E52E2E"/>
<path d="M12.9093 16.0969C12.9093 16.0969 18.8437 11.0437 16.1343 1.32187L15.7874 0.84375C14.2169 0.865228 12.6501 1.00311 11.0999 1.25625C9.55307 1.6125 5.06244 2.85 5.23119 6.88125C5.39994 10.9125 7.02182 13.6219 13.0312 16.2563" fill="#962C2C"/>
<path d="M19.6876 18.4404C19.716 19.1153 19.8871 19.7766 20.1897 20.3806C20.4922 20.9846 20.9193 21.5176 21.4428 21.9445C21.9662 22.3715 22.5743 22.6826 23.2268 22.8575C23.8792 23.0324 24.5614 23.0671 25.2282 22.9592C23.2881 23.3099 21.2891 23.1285 19.4438 22.4342L19.6876 18.4404Z" fill="#962C2C"/>
<path d="M17.6063 16.7248C17.6063 16.7248 20.3157 12.4404 26.7751 13.2935L27.1126 13.4623C27.2394 14.4758 27.2895 15.4975 27.2626 16.5185C27.1688 17.5498 26.7751 20.5498 24.1876 20.8123C21.6001 21.0748 19.7157 20.2779 17.4751 16.6685" fill="#EF5858"/>
<path d="M13.978 2.24043C13.978 2.24043 17.1562 6.17793 14.278 12.0186L14.0062 12.2811C13.006 12.0745 12.0222 11.7956 11.0624 11.4467C10.1249 11.0342 7.40615 9.69355 7.9874 7.15293C8.56865 4.6123 9.92803 3.09355 14.0624 2.12793" fill="#E52E2E"/>
<path d="M10.9031 18.2437C11.3205 19.1059 11.5374 20.0514 11.5374 21.0093C11.5374 21.9672 11.3205 22.9127 10.9031 23.7749L9.46875 22.4999L10.9031 18.2437Z" fill="#A3704D"/>
<path d="M14.4279 19.8374C14.4279 19.8374 14.9623 25.8562 11.7748 26.9249C8.58732 27.9937 3.09357 28.1718 3.6467 21.8249C4.19982 15.478 11.6623 17.9624 11.6623 17.9624L14.4279 19.8374Z" fill="#734F36"/>
<path d="M13.7624 20.1655C13.7624 20.1655 14.2311 25.453 11.428 26.3998C8.6249 27.3467 3.79678 27.4873 4.28428 21.9092C4.77178 16.3311 11.3249 18.5248 11.3249 18.5248L13.7624 20.1655Z" fill="#A3704D"/>
<path d="M9.84368 6.08436C9.84368 6.08436 11.4937 12.7594 16.8749 16.725C17.2983 17.0188 17.659 17.3939 17.9359 17.8286C18.2127 18.2632 18.4003 18.7487 18.4876 19.2566C18.5748 19.7645 18.5601 20.2847 18.4442 20.7868C18.3282 21.2889 18.1135 21.763 17.8124 22.1812C17.5294 22.5863 17.1446 22.9097 16.6968 23.1187C14.3999 24.1312 11.7468 23.175 9.29055 20.925C6.8343 18.675 2.08118 15.3469 2.81243 6.56249C2.81243 6.56249 9.02805 4.92186 9.84368 6.08436Z" fill="#734F36"/>
<path d="M16.5189 20.5033C17.1314 20.9172 17.6193 21.4904 17.9299 22.1612C18.2405 22.832 18.362 23.5748 18.2814 24.3096C18.0752 26.0815 17.4564 28.219 15.6845 28.819C12.497 29.8971 6.9939 30.0658 7.54703 23.719C8.10015 17.3721 15.5627 19.8565 15.5627 19.8565L16.5189 20.5033Z" fill="#734F36"/>
<path d="M9.28103 6.97477C9.28103 6.97477 10.8935 13.481 16.2467 16.9779C16.7267 17.2972 17.1043 17.7485 17.3338 18.2775C17.5634 18.8064 17.6351 19.3904 17.5404 19.9591C17.5049 20.4352 17.3507 20.8948 17.092 21.296C16.8332 21.6972 16.4782 22.0273 16.0592 22.256C13.9873 23.1935 11.5873 22.3029 9.37479 20.2685C7.16229 18.2341 2.88729 15.2529 3.53416 7.3029C3.53416 7.3029 8.54041 5.9154 9.28103 6.97477Z" fill="#A3704D"/>
<path d="M5.05331 2.22168C4.45026 2.22779 3.85757 2.37925 3.32552 2.66323C2.79348 2.9472 2.33777 3.35531 1.99706 3.85293C1.05956 5.49355 1.05956 8.08105 2.82206 9.47793C2.82206 9.47793 4.08769 10.1342 4.39706 9.62793C4.69056 8.99432 4.9259 8.33537 5.10019 7.65918L5.05331 2.22168Z" fill="#734F36"/>
<path d="M4.43419 2.7002C3.98191 2.76623 3.55044 2.93379 3.17214 3.19032C2.79384 3.44685 2.47852 3.78569 2.24982 4.18145C1.80912 4.90972 1.63635 5.76894 1.76128 6.61095C1.88621 7.45297 2.30103 8.225 2.93419 8.79395C2.93419 8.79395 3.97482 9.3377 4.22794 8.91582C4.47001 8.39375 4.66454 7.85093 4.80919 7.29395L4.43419 2.7002Z" fill="#A3704D"/>
<path d="M3.64698 7.27486C3.64698 7.27486 3.29073 9.31861 6.7501 9.89986C10.2095 10.4811 12.272 9.89986 12.5438 8.96236C12.8157 8.02486 12.5438 7.59361 11.072 6.35611C9.6001 5.11861 9.27198 2.37174 6.5626 1.94986C3.85323 1.52799 2.99073 4.46236 3.64698 7.27486Z" fill="#A3704D"/>
<path d="M4.35921 7.11587C4.35921 7.11587 4.05921 8.83149 6.97483 9.31899C9.89046 9.80649 11.6623 9.31899 11.8311 8.56899C11.9998 7.81899 11.878 7.42524 10.603 6.37524C9.32796 5.32524 9.09358 2.99087 6.79671 2.62524C4.49983 2.25962 3.81546 4.75337 4.35921 7.11587Z" fill="#A3704D"/>
<path d="M16.0404 20.9624C16.5902 21.3325 17.0279 21.8464 17.3057 22.4482C17.5834 23.0499 17.6905 23.7164 17.6154 24.3749C17.4373 25.9312 16.8841 27.7874 15.3373 28.3124C12.5248 29.2499 7.70602 29.3999 8.19352 23.8218C8.68102 18.2437 15.2341 20.4374 15.2341 20.4374L16.0404 20.9624Z" fill="#A3704D"/>
<path opacity="0.53" d="M4.10638 4.92188C4.10638 4.92188 3.91888 7.2 7.44388 7.96875C9.03427 8.39114 10.6734 8.60233 12.3189 8.59687C12.1745 8.94996 11.921 9.24769 11.5956 9.44668C11.2701 9.64567 10.8896 9.73551 10.5095 9.70312C8.98138 9.76875 3.24388 11.0156 4.10638 4.92188Z" fill="#A3704D"/>
<path opacity="0.46" d="M2.01563 4.10645C2.01563 4.10645 1.65 7.5002 3.98438 7.59395C3.98438 7.59395 4.63125 8.22207 4.52813 8.66269C4.425 9.10332 4.37813 9.48769 3.88125 9.51582C3.38438 9.54394 0.440629 8.63457 2.01563 4.10645Z" fill="#734F36"/>
<path d="M5.79359 4.00316C5.79507 3.85764 5.83375 3.71492 5.90595 3.58857C5.97815 3.46222 6.08148 3.35644 6.20609 3.28128C6.35254 3.23259 6.50874 3.22081 6.66084 3.24697C6.81293 3.27314 6.95621 3.33645 7.07797 3.43128C7.73558 3.93168 8.27359 4.57217 8.65297 5.30628C8.71384 5.37677 8.76011 5.45865 8.78908 5.54716C8.81805 5.63568 8.82914 5.72907 8.82172 5.82191C8.77484 6.09378 8.44672 6.22503 8.16547 6.23441C7.86021 6.25647 7.5537 6.21497 7.2653 6.11251C6.97691 6.01006 6.7129 5.84889 6.48999 5.63918C6.26707 5.42948 6.09008 5.17581 5.97021 4.8942C5.85034 4.6126 5.7902 4.30919 5.79359 4.00316Z" fill="#A3704D"/>
<path d="M15.9375 17.325C15 16.4813 13.8563 15.9657 12.8719 15.2157C11.7947 14.3845 10.9543 13.2855 10.4344 12.0282C10.348 11.7867 10.2381 11.5544 10.1063 11.3344C10.0426 11.2222 9.95648 11.1242 9.85324 11.0468C9.74999 10.9694 9.63187 10.9141 9.50628 10.8844C9.38234 10.8729 9.25734 10.8861 9.13857 10.9234C9.01981 10.9606 8.90965 11.0212 8.81453 11.1014C8.7194 11.1817 8.64122 11.2802 8.58454 11.391C8.52786 11.5018 8.49382 11.6228 8.4844 11.7469C8.48179 12.2556 8.66899 12.747 9.0094 13.125C9.0094 13.125 10.1907 15.1875 11.0063 16.3313C11.8516 17.739 13.151 18.8169 14.6907 19.3875C15.0406 19.507 15.4164 19.5296 15.7782 19.4532C15.9593 19.4163 16.1282 19.3342 16.2692 19.2146C16.4102 19.0949 16.5186 18.9416 16.5844 18.7688C16.6196 18.4919 16.5779 18.2107 16.4638 17.956C16.3497 17.7014 16.1676 17.483 15.9375 17.325Z" fill="#A3704D"/>
<path d="M6.21565 9.72169C6.19627 9.89089 6.14874 10.0557 6.07503 10.2092C5.89221 10.8536 5.87288 11.5335 6.01878 12.1873C6.44036 14.7359 7.55991 17.1177 9.25315 19.0686C9.49352 19.2932 9.66297 19.5832 9.74065 19.9029C9.74065 20.2217 9.50628 20.6061 9.18753 20.5311C9.05111 20.4844 8.93079 20.3998 8.84065 20.2873L6.35628 17.8123C5.59676 17.0949 4.93767 16.2781 4.3969 15.3842C3.74995 13.9076 3.43014 12.3085 3.4594 10.6967C3.42145 10.402 3.44055 10.1029 3.51565 9.81544C3.59912 9.54778 3.771 9.3164 4.00315 9.15919C4.18628 9.04536 4.39312 8.97517 4.6077 8.95404C4.82228 8.9329 5.03884 8.9614 5.24065 9.03731C5.5219 9.08419 6.21565 9.37481 6.21565 9.72169Z" fill="#734F36"/>
<path d="M8.01561 20.6904C7.70347 21.0699 7.36847 21.4299 7.01249 21.7686C6.66604 22.183 6.4407 22.685 6.3613 23.2193C6.2819 23.7536 6.35152 24.2994 6.56249 24.7967C6.98312 25.5819 7.57998 26.259 8.30624 26.7748C7.88155 26.9809 7.40996 27.0713 6.93916 27.0367C6.46835 27.0021 6.01502 26.8439 5.62499 26.5779C4.95699 26.0475 4.47447 25.3188 4.24686 24.4967C4.03273 23.8933 3.90951 23.2613 3.88124 22.6217C3.87276 21.9321 4.00658 21.2481 4.27435 20.6126C4.54212 19.977 4.93808 19.4035 5.43749 18.9279C5.7087 18.6252 6.08314 18.4347 6.48749 18.3936C7.12499 18.3936 7.48124 18.9748 7.92186 19.3311C8.10776 19.503 8.22098 19.7395 8.23841 19.9921C8.25583 20.2448 8.17614 20.4946 8.01561 20.6904Z" fill="#734F36"/>
<path opacity="0.38" d="M9.17807 23.869C9.2378 24.3805 9.39969 24.8748 9.65415 25.3225C9.9086 25.7702 10.2504 26.1622 10.6593 26.4752C11.3576 26.9326 12.1779 27.1679 13.0124 27.1502C13.8392 27.1377 14.6637 27.0593 15.4781 26.9159C15.8437 26.869 16.3124 26.9159 16.4156 27.2252C16.5187 27.5346 16.2937 27.7877 16.0687 27.9752C15.2606 28.5958 14.2749 28.9408 13.2562 28.9596C12.2698 28.989 11.283 28.9136 10.3124 28.7346C9.84397 28.7024 9.38886 28.5646 8.9812 28.3315C8.56314 27.9931 8.26422 27.5299 8.12807 27.0096C7.6556 25.535 7.70526 23.9426 8.2687 22.5002C8.36245 22.2565 8.96245 20.7002 9.3187 21.3565C9.42182 21.5534 9.1687 22.294 9.14995 22.5096C9.10696 22.9623 9.1164 23.4185 9.17807 23.869Z" fill="#734F36"/>
<path d="M8.75645 20.0532C7.59174 21.3461 6.75282 22.8986 6.30957 24.5813C5.61582 27.3095 4.43457 24.8063 4.43457 24.8063C4.43457 24.8063 4.6877 26.8032 8.24082 27.1876C8.24082 27.1876 7.69707 22.397 8.70019 20.9251L9.29082 20.7001L8.75645 20.0532Z" fill="#A3704D"/>
<path d="M15.731 18.5907C15.731 18.5907 16.4904 24.5813 13.3498 25.772C10.2092 26.9626 4.68728 27.3376 5.03415 20.972C5.38103 14.6063 12.8998 16.8188 12.8998 16.8188L15.731 18.5907Z" fill="#A3704D"/>
<path d="M15.075 18.9468C15.075 18.9468 15.75 24.2061 12.9843 25.2561C10.2187 26.3061 5.39997 26.6249 5.68122 21.0374C5.96247 15.4499 12.5906 17.3905 12.5906 17.3905L15.075 18.9468Z" fill="#FCC097"/>
<path d="M10.6499 5.01545C10.6499 5.01545 12.525 11.6248 18.15 15.3936C18.58 15.6756 18.9496 16.0402 19.2375 16.4662C19.5254 16.8923 19.7258 17.3713 19.827 17.8755C19.9282 18.3797 19.9281 18.8989 19.8269 19.4031C19.7257 19.9072 19.5254 20.3863 19.2375 20.8123C18.9622 21.2136 18.5875 21.5367 18.15 21.7498C15.9 22.8467 13.2093 21.9936 10.6499 19.8748C8.09057 17.7561 3.23432 14.5592 3.6187 5.72795C3.6187 5.72795 9.78745 3.88107 10.6499 5.01545Z" fill="#A3704D"/>
<path d="M17.8125 19.1814C18.4367 19.5767 18.9412 20.1348 19.2716 20.7956C19.602 21.4565 19.7458 22.1949 19.6875 22.9314C19.5469 24.7033 19.0125 26.8689 17.2594 27.5346C14.175 28.7064 8.69065 29.0627 9.0094 22.7158C9.32815 16.3689 16.875 18.5721 16.875 18.5721L17.8125 19.1814Z" fill="#A3704D"/>
<path d="M10.1157 5.92486C10.1157 5.92486 11.9907 12.3655 17.4564 15.6655C17.9456 15.9667 18.3371 16.4033 18.5834 16.9225C18.8296 17.4416 18.9201 18.021 18.8439 18.5905C18.8316 19.0683 18.6978 19.5351 18.455 19.9468C18.2122 20.3585 17.8685 20.7016 17.4564 20.9436C15.422 21.9374 12.9939 21.1592 10.7064 19.2092C8.41886 17.2592 4.04074 14.4374 4.38761 6.46861C4.38761 6.46861 9.37511 4.89361 10.1157 5.92486Z" fill="#FCC097"/>
<path d="M5.7187 1.33105C5.11679 1.36003 4.53072 1.53364 4.01013 1.83718C3.48955 2.14072 3.04978 2.56524 2.72808 3.0748C1.87495 4.75293 1.87495 7.33105 3.74995 8.63418C3.74995 8.63418 5.03433 9.24356 5.32495 8.72793C5.59493 8.0829 5.80519 7.41448 5.95308 6.73105L5.7187 1.33105Z" fill="#A3704D"/>
<path d="M5.1189 1.875C4.67256 1.95114 4.24925 2.12733 3.88069 2.39035C3.51213 2.65337 3.20789 2.99641 2.99078 3.39375C2.57525 4.13725 2.43308 5.00274 2.5889 5.8401C2.74473 6.67747 3.18874 7.43387 3.8439 7.97813C3.8439 7.97813 4.90328 8.475 5.13765 8.05313C5.351 7.52266 5.51422 6.97339 5.62515 6.4125L5.1189 1.875Z" fill="#E8AB82"/>
<path d="M4.49983 6.43125C4.49983 6.43125 4.20921 8.48438 7.69671 8.94375C11.1842 9.40313 13.2186 8.75625 13.453 7.8375C13.6873 6.91875 13.453 6.46875 11.8873 5.2875C10.3217 4.10625 9.93733 1.32188 7.19983 1.00313C4.46233 0.684378 3.74983 3.64688 4.49983 6.43125Z" fill="#A3704D"/>
<path d="M5.21273 6.24385C5.21273 6.24385 4.96898 7.96885 7.89398 8.35322C10.819 8.7376 12.5346 8.19385 12.7315 7.41572C12.9284 6.6376 12.7315 6.2626 11.4096 5.26885C10.0877 4.2751 9.77836 1.9501 7.50023 1.6876C5.22211 1.4251 4.57523 3.90947 5.21273 6.24385Z" fill="#E8AB82"/>
<path d="M17.3908 19.6873C17.9518 20.033 18.4068 20.5263 18.7061 21.1134C19.0054 21.7004 19.1374 22.3584 19.0876 23.0155C18.9658 24.5717 18.4876 26.4467 16.9501 27.028C14.1939 28.078 9.36577 28.4061 9.64702 22.8092C9.92827 17.2123 16.5564 19.1623 16.5564 19.1623L17.3908 19.6873Z" fill="#FCC097"/>
<path opacity="0.53" d="M4.86566 4.06885C4.86566 4.06885 4.76254 6.34697 8.31566 6.98447C9.92029 7.34735 11.5655 7.49863 13.2094 7.43447C13.0791 7.7942 12.8364 8.1024 12.5173 8.31346C12.1982 8.52451 11.8196 8.62721 11.4375 8.60635C9.91879 8.72822 4.23754 10.1907 4.86566 4.06885Z" fill="#A3704D"/>
<path opacity="0.53" d="M2.75603 3.32812C2.75603 3.32812 2.5029 6.68438 4.84665 6.74063C4.84665 6.74063 5.51228 7.35 5.43728 7.79063C5.36228 8.23125 5.30603 8.625 4.81853 8.6625C4.33103 8.7 1.3404 7.9125 2.75603 3.32812Z" fill="#A3704D"/>
<path d="M6.56246 3.08453C6.55774 2.9385 6.59061 2.7937 6.65792 2.66402C6.72522 2.53433 6.8247 2.42411 6.94683 2.3439C7.09103 2.29129 7.24594 2.27489 7.39796 2.29614C7.54998 2.31739 7.69446 2.37564 7.81871 2.46578C8.49303 2.93094 9.05642 3.53914 9.46871 4.24703C9.59174 4.39044 9.65838 4.57371 9.65621 4.76265C9.65621 5.03453 9.29058 5.17515 9.00933 5.1939C8.70795 5.22766 8.40285 5.19883 8.11313 5.10922C7.82341 5.01961 7.55531 4.87115 7.32562 4.67314C7.09592 4.47512 6.90958 4.23182 6.77827 3.95847C6.64695 3.68511 6.57348 3.38759 6.56246 3.08453Z" fill="#FFE8D9"/>
<path d="M17.1843 16.0219C16.2468 15.2063 15.0562 14.7375 14.0437 14.025C12.9315 13.2387 12.0483 12.171 11.4843 10.9313C11.3914 10.6923 11.2752 10.4631 11.1374 10.2469C10.993 10.0302 10.772 9.87612 10.5187 9.81565C10.3909 9.80797 10.2629 9.82654 10.1426 9.8702C10.0223 9.91386 9.91217 9.9817 9.81907 10.0695C9.72597 10.1574 9.65184 10.2633 9.60125 10.3809C9.55065 10.4985 9.52467 10.6252 9.5249 10.7532C9.52861 11.2631 9.72639 11.7525 10.078 12.1219C10.078 12.1219 11.3249 14.1469 12.1874 15.2625C13.0873 16.6354 14.4256 17.6631 15.9843 18.1782C16.3407 18.2719 16.7153 18.2719 17.0718 18.1782C17.252 18.1335 17.4179 18.0439 17.554 17.9176C17.6901 17.7913 17.7919 17.6326 17.8499 17.4563C17.8814 17.1791 17.8359 16.8987 17.7185 16.6456C17.6011 16.3926 17.4162 16.1768 17.1843 16.0219Z" fill="#FFE8D9"/>
<path opacity="0.3" d="M7.15334 8.78435C7.13862 8.95432 7.10077 9.12148 7.04084 9.28122C6.87216 9.93616 6.87216 10.6232 7.04084 11.2781C7.56038 13.8088 8.76702 16.1475 10.5283 18.0375C10.7739 18.2551 10.9527 18.5379 11.044 18.8531C11.0908 19.1812 10.8377 19.5656 10.519 19.5C10.3822 19.4583 10.2591 19.3806 10.1627 19.275L7.59397 16.875C6.80336 16.1927 6.11506 15.4002 5.55022 14.5218C4.83398 13.0611 4.44677 11.461 4.41584 9.83435C4.35943 9.5433 4.35943 9.24414 4.41584 8.9531C4.48556 8.67886 4.64783 8.43711 4.87522 8.26872C5.05644 8.1513 5.26169 8.07603 5.47586 8.04845C5.69003 8.02087 5.90766 8.04168 6.11272 8.10935C6.44084 8.1656 7.13459 8.43747 7.15334 8.78435Z" fill="#A3704D"/>
<path opacity="0.38" d="M9.37481 19.6876C9.08772 20.0801 8.77451 20.4528 8.43731 20.8032C8.1091 21.2325 7.90496 21.7435 7.8471 22.2808C7.78924 22.818 7.8799 23.3608 8.10919 23.8501C8.5608 24.6054 9.17983 25.2469 9.91856 25.7251C9.50591 25.9456 9.04228 26.0531 8.57469 26.0366C8.1071 26.0202 7.65218 25.8804 7.25606 25.6313C6.55312 25.1394 6.02459 24.4368 5.74669 23.6251C5.51267 23.0248 5.37045 22.3927 5.32481 21.7501C5.28488 21.0631 5.38754 20.3753 5.62632 19.73C5.86511 19.0846 6.23486 18.4956 6.71231 18.0001C6.97257 17.6825 7.34535 17.4777 7.75294 17.4282C8.38106 17.4282 8.76544 17.972 9.21544 18.3095C9.41646 18.473 9.54563 18.7087 9.5754 18.9661C9.60517 19.2236 9.53319 19.4825 9.37481 19.6876Z" fill="#A3704D"/>
<path opacity="0.38" d="M10.6405 22.8094C10.7154 23.3161 10.8908 23.8026 11.1565 24.2405C11.4221 24.6784 11.7726 25.0588 12.1873 25.3594C12.9015 25.7881 13.7274 25.9938 14.5592 25.95C15.3889 25.9112 16.2138 25.8014 17.0248 25.6219C17.3811 25.5656 17.8498 25.5656 17.9623 25.9031C18.0748 26.2406 17.8592 26.4656 17.6342 26.6531C16.887 27.2764 15.9686 27.6587 14.9998 27.75C13.9986 27.8158 12.9933 27.7781 11.9998 27.6375C11.5276 27.6216 11.0655 27.4965 10.6498 27.2719C10.2051 26.958 9.87568 26.5068 9.71233 25.9875C9.19224 24.5326 9.19224 22.9424 9.71233 21.4875C9.7967 21.2438 10.3311 19.6125 10.7155 20.3063C10.828 20.4938 10.603 21.2438 10.5842 21.4688C10.5513 21.9163 10.5702 22.3662 10.6405 22.8094Z" fill="#A3704D"/>
<path d="M10.0779 19.0127C8.96213 20.3469 8.18109 21.9282 7.7998 23.6252C7.20918 26.3814 5.9248 23.9252 5.9248 23.9252C5.9248 23.9252 6.23418 25.9127 9.80605 26.1471C9.80605 26.1471 9.08418 21.3752 10.0311 19.8658L10.6123 19.6221L10.0779 19.0127Z" fill="#734F36"/>
<path d="M19.1249 16.3779C19.1249 16.3779 20.8312 18.1873 19.6968 23.5217L17.8218 21.8717L19.1249 16.3779Z" fill="#A3704D"/>
<path d="M18.4407 16.6689C18.4407 16.6689 20.147 18.4783 19.022 23.8127L17.147 22.1627L18.4407 16.6689Z" fill="#FCC097"/>
<path d="M14.6249 20.7467C15.0233 20.7709 15.4092 20.8953 15.7468 21.1083C16.0844 21.3214 16.3628 21.6162 16.5561 21.9654C16.7389 22.4301 16.7444 22.9459 16.5715 23.4144C16.3986 23.8829 16.0595 24.2714 15.6186 24.506C15.1635 24.7135 14.6598 24.7908 14.1634 24.7296C13.667 24.6684 13.1972 24.4709 12.8061 24.1592C12.3284 23.7877 11.9965 23.26 11.8686 22.6685C11.4092 20.8685 13.2374 20.6248 14.6249 20.7467Z" fill="#FFE8D9"/>
<path d="M4.6875 25.772C4.6875 25.772 7.75313 28.1251 8.68125 22.3032C8.79799 22.5124 8.88627 22.7363 8.94375 22.9688C8.94375 23.147 7.58437 26.597 9.88125 28.7157L8.22188 26.8407L8.40938 27.3001C8.11912 27.3208 7.82776 27.3208 7.5375 27.3001C7.28437 27.3188 5.16562 26.9813 4.6875 25.772Z" fill="#734F36"/>
<path d="M23.7375 24.4592C24.6005 24.5105 25.4375 24.7734 26.1749 25.2246C26.9122 25.6759 27.5272 26.3016 27.9656 27.0467C28.0692 27.2115 28.1381 27.3957 28.1682 27.5879C28.1983 27.7802 28.1889 27.9767 28.1407 28.1652C28.0925 28.3538 28.0064 28.5306 27.8876 28.6848C27.7689 28.839 27.62 28.9675 27.45 29.0623C26.2403 29.7204 24.885 30.0651 23.5078 30.0651C22.1307 30.0651 20.7754 29.7204 19.5656 29.0623C19.2125 28.8415 18.9599 28.4912 18.8618 28.0865C18.7636 27.6818 18.8279 27.2547 19.0406 26.8967C19.541 26.1163 20.237 25.4807 21.0595 25.053C21.8819 24.6254 22.802 24.4206 23.7281 24.4592H23.7375Z" fill="#425763"/>
<path d="M23.6998 25.0315C24.4231 25.0656 25.1283 25.2691 25.7585 25.6258C26.3887 25.9824 26.9263 26.4821 27.3279 27.0846C27.4228 27.2158 27.4872 27.3666 27.5163 27.5259C27.5455 27.6852 27.5387 27.8489 27.4965 28.0053C27.4542 28.1616 27.3776 28.3065 27.2722 28.4294C27.1669 28.5524 27.0353 28.6502 26.8873 28.7159C25.8156 29.217 24.6436 29.4665 23.4607 29.4454C22.2778 29.4243 21.1154 29.133 20.0623 28.594C19.922 28.5197 19.7993 28.416 19.7025 28.2901C19.6058 28.1642 19.5373 28.0189 19.5018 27.8641C19.4662 27.7094 19.4643 27.5487 19.4964 27.3932C19.5284 27.2377 19.5935 27.0909 19.6873 26.9627C20.1362 26.3325 20.7363 25.8252 21.4326 25.4878C22.1289 25.1503 22.8989 24.9934 23.6717 25.0315H23.6998Z" fill="#A2B6BA"/>
<path d="M23.6812 25.1157C24.2716 25.1408 24.8476 25.305 25.3625 25.595C25.8773 25.885 26.3163 26.2926 26.6437 26.7845C26.7132 26.8965 26.7583 27.022 26.776 27.1527C26.7937 27.2833 26.7837 27.4163 26.7465 27.5428C26.7094 27.6693 26.6459 27.7866 26.5604 27.8869C26.4748 27.9873 26.369 28.0684 26.25 28.1251C25.3768 28.533 24.4219 28.7358 23.4583 28.7179C22.4947 28.7 21.548 28.462 20.6906 28.022C20.5811 27.9577 20.4859 27.8718 20.4106 27.7696C20.3354 27.6674 20.2816 27.5509 20.2527 27.4273C20.2238 27.3037 20.2202 27.1755 20.2423 27.0505C20.2644 26.9255 20.3117 26.8063 20.3812 26.7001C20.746 26.1861 21.2344 25.7724 21.8014 25.4971C22.3683 25.2218 22.9955 25.0939 23.625 25.1251L23.6812 25.1157Z" fill="#87999B"/>
<path d="M23.3157 27.7594C26.6709 27.7594 29.3907 25.0395 29.3907 21.6844C29.3907 18.3292 26.6709 15.6094 23.3157 15.6094C19.9606 15.6094 17.2407 18.3292 17.2407 21.6844C17.2407 25.0395 19.9606 27.7594 23.3157 27.7594Z" fill="#425763"/>
<path d="M23.3155 26.8874C26.2979 26.8874 28.7155 24.4697 28.7155 21.4874C28.7155 18.5051 26.2979 16.0874 23.3155 16.0874C20.3332 16.0874 17.9155 18.5051 17.9155 21.4874C17.9155 24.4697 20.3332 26.8874 23.3155 26.8874Z" fill="#A2B6BA"/>
<path d="M23.5314 26.0248C26.286 26.0248 28.5189 23.7918 28.5189 21.0373C28.5189 18.2828 26.286 16.0498 23.5314 16.0498C20.7769 16.0498 18.5439 18.2828 18.5439 21.0373C18.5439 23.7918 20.7769 26.0248 23.5314 26.0248Z" fill="#CBDEE4"/>
<path d="M26.2688 20.6158C26.8798 20.6158 27.3751 20.1205 27.3751 19.5096C27.3751 18.8986 26.8798 18.4033 26.2688 18.4033C25.6579 18.4033 25.1626 18.8986 25.1626 19.5096C25.1626 20.1205 25.6579 20.6158 26.2688 20.6158Z" fill="#425763"/>
<path d="M26.3155 20.1096C26.6831 20.1096 26.9812 19.8116 26.9812 19.4439C26.9812 19.0763 26.6831 18.7783 26.3155 18.7783C25.9479 18.7783 25.6499 19.0763 25.6499 19.4439C25.6499 19.8116 25.9479 20.1096 26.3155 20.1096Z" fill="#4ED154"/>
<path d="M22.3124 19.0781C22.3996 18.5277 22.5984 18.0009 22.8967 17.5302C23.195 17.0594 23.5863 16.6546 24.0468 16.3406C24.2437 16.2281 24.2062 16.1062 23.9905 16.0781H23.6999C23.4655 16.0781 21.8249 16.1531 21.2437 19.1625L22.3124 19.0781Z" fill="#A2B6BA"/>
<path d="M25.1584 22.2373C25.1654 20.3423 23.7355 18.8008 21.9648 18.7943C20.194 18.7878 18.7529 20.3188 18.746 22.2138C18.739 24.1088 20.1689 25.6503 21.9396 25.6568C23.7104 25.6633 25.1515 24.1323 25.1584 22.2373Z" fill="#425763"/>
<path d="M24.4839 22.084C24.4892 20.6394 23.398 19.4643 22.0466 19.4594C20.6952 19.4544 19.5954 20.6215 19.5902 22.066C19.5849 23.5106 20.6761 24.6857 22.0274 24.6906C23.3788 24.6956 24.4786 23.5285 24.4839 22.084Z" fill="#3587C4"/>
<path d="M24.0713 21.9884C24.0757 20.7872 23.1685 19.81 22.0449 19.8059C20.9214 19.8018 20.007 20.7722 20.0026 21.9735C19.9982 23.1747 20.9054 24.1518 22.029 24.1559C23.1525 24.16 24.0669 23.1896 24.0713 21.9884Z" fill="#4DA3EC"/>
<path d="M23.1826 20.9857C23.1837 20.6699 22.916 20.4129 22.5847 20.4117C22.2533 20.4105 21.9837 20.6655 21.9826 20.9814C21.9814 21.2972 22.2491 21.5542 22.5805 21.5554C22.9118 21.5566 23.1814 21.3016 23.1826 20.9857Z" fill="white"/>
<path d="M23.4374 17.5124C23.6822 17.2473 23.9454 16.9999 24.2249 16.7718C24.2767 16.7299 24.3379 16.7012 24.4032 16.6882C24.4685 16.6751 24.536 16.6781 24.5999 16.6968C25.1364 16.8545 25.6501 17.0814 26.1281 17.3718C26.2067 17.4214 26.2667 17.4957 26.2987 17.583C26.3308 17.6703 26.3331 17.7658 26.3053 17.8545C26.2775 17.9433 26.2211 18.0204 26.145 18.0738C26.0689 18.1272 25.9772 18.154 25.8843 18.1499C25.1872 18.1056 24.4874 18.1245 23.7937 18.2061C23.7104 18.213 23.627 18.1951 23.554 18.1546C23.481 18.114 23.4217 18.0527 23.3835 17.9784C23.3454 17.9041 23.3301 17.8202 23.3397 17.7372C23.3493 17.6543 23.3833 17.576 23.4374 17.5124Z" fill="#E1F0F4"/>
</g>
<defs>
<clipPath id="clip0_1_9534">
<rect width="30" height="30" fill="white"/>
</clipPath>
</defs>
</svg>
