<svg width="30" height="30" viewBox="0 0 30 30" fill="none" xmlns="http://www.w3.org/2000/svg">
<g clip-path="url(#clip0_1_4670)">
<path d="M4.96875 11.1562C4.96875 11.1562 6.1875 17.7188 5.0625 21L8.71875 18.6562L8.15625 13.125L4.96875 11.1562ZM23.4375 22.7812C23.4375 22.7812 27.375 13.4063 22.9688 6.09375L19.2188 12.5625L19.6875 20.5313L23.4375 22.7812Z" fill="#77315B"/>
<path d="M19.7814 18.4687C21.6564 19.125 23.3439 20.625 23.9064 22.7812C24.4689 25.0312 23.7189 27.6562 21.9376 28.9687C20.8126 29.8125 19.4064 30 18.0939 30C14.9064 30 11.8126 28.9687 8.62511 27.8437C7.59386 27.4687 6.46886 27.0937 5.53136 26.4375C4.59386 25.7812 3.84386 24.75 3.65636 23.4375C3.46886 21.75 4.50011 19.9687 5.81261 19.125C8.15636 17.625 10.5001 16.9687 12.9376 17.0625C15.2814 17.0625 17.8126 17.8125 19.7814 18.4687Z" fill="#77315B"/>
<path d="M22.2188 6.375C22.2188 6.375 27 14.3437 21.6563 19.5L17.8125 17.5313L22.2188 6.375Z" fill="#425763"/>
<path d="M20.0626 17.3437C21.9376 18 23.6251 19.5 24.1876 21.6562C24.7501 23.9062 24.0001 26.5312 22.2189 27.8437C21.0939 28.6875 19.6876 28.875 18.3751 28.875C15.1876 28.875 12.0939 27.8437 8.90636 26.7187C7.87511 26.3437 6.75011 25.9687 5.81261 25.3125C4.87511 24.6562 4.12511 23.625 3.93761 22.3125C3.75011 20.625 4.78136 18.8437 6.09386 18C8.43761 16.5 10.7814 15.8437 13.2189 15.9375C15.4689 15.9375 18.0939 16.6875 20.0626 17.3437Z" fill="#B74F88"/>
<path d="M19.6875 15.9375C21.4687 16.5937 22.125 18.75 22.6875 20.9062C23.25 23.1562 23.4375 25.2187 21.8437 26.4375C20.8125 27.2812 19.5 27.4687 18.2812 27.4687C15.2812 27.4687 12.2812 26.4375 9.37497 25.3125C8.34372 24.9375 7.40622 24.5625 6.46872 23.9062C5.62497 23.25 4.87496 22.2187 4.68746 20.9062C4.49996 19.2187 5.43746 17.4375 6.74996 16.5937C8.90621 15.0937 11.1562 14.4375 13.5 14.5312C15.4687 14.5312 17.8125 15.2812 19.6875 15.9375Z" fill="#D19780"/>
<path opacity="0.28" d="M21.07 23.588C21.7089 21.618 21.1489 19.6714 19.8191 19.2402C18.4894 18.8089 16.8935 20.0563 16.2545 22.0263C15.6156 23.9963 16.1756 25.9429 17.5054 26.3742C18.8351 26.8054 20.4311 25.558 21.07 23.588Z" fill="white"/>
<path d="M9.75017 17.4375C9.75017 17.4375 10.2189 24.4687 14.0627 27C14.0627 27 8.62517 26.1562 7.59392 24.8437C6.56267 23.5312 4.87517 22.875 5.25017 19.7812C5.25017 19.7812 5.62517 16.875 8.25017 16.125L9.75017 17.4375Z" fill="#5077B5"/>
<path d="M8.25017 16.9688C8.25017 16.9688 7.31267 25.3125 13.4064 27.0938C13.4064 27.0938 7.96892 26.25 6.93767 24.9375C5.90642 23.625 4.21892 22.9688 4.59392 19.875C4.59392 19.875 4.96892 16.9687 7.59392 16.2188L8.25017 16.9688Z" fill="#B74F88"/>
<path d="M10.875 23.5313C10.875 23.5313 15.6562 25.7813 19.3125 25.0313C22.9688 24.2813 23.625 20.0625 23.625 20.0625C23.625 20.0625 24.75 25.125 21.75 26.9063C18.75 28.6875 13.125 26.9063 13.125 26.9063L10.875 23.5313Z" fill="#5077B5"/>
<path d="M6.09375 16.875C6.09375 16.875 6.84375 24.0938 9.5625 26.9063C9.5625 26.9063 6.5625 26.5312 5.90625 25.3125L4.5 20.0625C4.5 20.0625 4.5 18.5625 6.09375 16.875Z" fill="#CEB46B"/>
<path d="M17.5313 17.5313C17.5313 17.5313 20.8126 20.1563 18.1876 21.4688C15.6563 22.7813 19.4063 28.7813 19.4063 28.7813C19.4063 28.7813 17.8126 25.125 18.7501 24.4688C19.6876 23.8125 25.1251 21.0938 21.1876 15.2812C21.1876 15.2812 17.6251 16.7813 17.5313 17.5313Z" fill="#425763"/>
<path d="M23.1865 10.1476C23.205 5.02174 19.1067 0.851482 14.0326 0.833096C8.95848 0.81471 4.83004 4.95516 4.81146 10.0811C4.79289 15.2069 8.89122 19.3772 13.9653 19.3956C19.0394 19.414 23.1679 15.2735 23.1865 10.1476Z" fill="#A67A65"/>
<path d="M22.788 9.44589C22.806 4.47533 18.8331 0.431443 13.9143 0.413619C8.99556 0.395796 4.99349 4.41079 4.97548 9.38135C4.95747 14.3519 8.93034 18.3958 13.8491 18.4136C18.7679 18.4314 22.77 14.4165 22.788 9.44589Z" fill="#E5A98C"/>
<path d="M22.6826 9.21476C22.6999 4.45131 18.9783 0.576228 14.3701 0.55953C9.762 0.542833 6.01238 4.39084 5.99512 9.1543C5.97786 13.9178 9.69949 17.7928 14.3076 17.8095C18.9157 17.8262 22.6654 13.9782 22.6826 9.21476Z" fill="#E5A98C"/>
<path d="M18.1692 10.4319C18.1818 6.96282 15.4637 4.14072 12.0983 4.12853C8.73277 4.11633 5.99431 6.91866 5.98174 10.3877C5.96917 13.8567 8.68725 16.6788 12.0527 16.691C15.4182 16.7032 18.1567 13.9009 18.1692 10.4319Z" fill="#E8CCAA"/>
<path d="M14.9414 11.0886C14.9433 10.5709 14.567 10.1498 14.101 10.1481C13.635 10.1464 13.2558 10.5648 13.2539 11.0825C13.252 11.6003 13.6282 12.0214 14.0942 12.0231C14.5602 12.0248 14.9395 11.6064 14.9414 11.0886Z" fill="#425763"/>
<path d="M14.3838 10.682C14.3844 10.5267 14.3009 10.4005 14.1974 10.4001C14.0938 10.3997 14.0094 10.5253 14.0088 10.6807C14.0083 10.836 14.0918 10.9622 14.1953 10.9626C14.2989 10.963 14.3833 10.8374 14.3838 10.682Z" fill="white"/>
<path d="M8.28562 9.59108C8.2875 9.07331 7.91126 8.65221 7.44527 8.65052C6.97928 8.64883 6.6 9.06719 6.59812 9.58496C6.59625 10.1027 6.97249 10.5238 7.43848 10.5255C7.90447 10.5272 8.28375 10.1088 8.28562 9.59108Z" fill="#425763"/>
<path d="M11.8313 8.01208C11.8328 7.59787 11.5402 7.26102 11.1778 7.2597C10.8154 7.25839 10.5203 7.59311 10.5188 8.00732C10.5173 8.42154 10.8099 8.75839 11.1724 8.7597C11.5348 8.76102 11.8298 8.42629 11.8313 8.01208Z" fill="#B74F88"/>
<path d="M7.82182 9.2787C7.82238 9.12337 7.73889 8.99715 7.63534 8.99677C7.53179 8.9964 7.44738 9.12201 7.44682 9.27734C7.44626 9.43267 7.52975 9.5589 7.6333 9.55927C7.73685 9.55965 7.82126 9.43403 7.82182 9.2787Z" fill="white"/>
<path d="M12.2813 15.2812C12.2813 15.2812 11.4375 15.1875 10.875 14.7187C10.3125 14.25 9.65625 14.3438 9.5625 14.3438C9.46875 14.3438 9.28125 14.1562 9.09375 14.0625C8.90625 13.9688 8.625 13.9688 8.625 14.0625C8.625 14.1562 8.90625 14.625 8.90625 14.625C8.90625 14.625 9 15 8.90625 15.1875C8.8125 15.375 8.90625 16.0313 9.5625 16.125C10.2188 16.2188 10.6875 16.2188 10.9688 16.0313C11.25 15.8438 12.2813 15.2812 12.2813 15.2812Z" fill="#A67A65"/>
<path d="M12.7502 3.84398C12.7502 3.84398 11.5314 7.03148 13.4064 8.34398C15.2814 9.65648 22.2189 12.7502 20.9064 16.219C20.9064 16.219 27.0939 9.00023 21.8439 3.75023C15.2814 -2.99977 12.8439 3.46898 12.7502 3.84398Z" fill="#425763"/>
<path d="M4.87517 10.6877C4.87517 10.6877 5.25017 6.93768 6.46892 6.56268C7.68767 6.18768 10.8752 7.31268 12.5627 6.18768C12.5627 6.18768 16.5939 1.68768 15.7502 0.843928C15.0002 0.000177532 11.5314 0.187678 9.28142 1.40643C7.03142 2.62518 4.31267 5.90643 4.87517 10.6877Z" fill="#425763"/>
<path d="M15.6563 3.46873C15.6563 3.46873 13.9688 5.53123 15.5625 7.12498C17.1563 8.71873 21.1875 9.93748 22.2188 12C22.2188 12 22.875 4.21873 15.6563 3.46873ZM13.6875 2.24998C13.6875 2.24998 13.125 4.87498 11.7188 5.15623C10.3125 5.43748 6.46875 5.71873 6.46875 5.71873C6.46875 5.71873 10.125 1.49998 13.6875 2.24998Z" fill="#5E6D72"/>
<path d="M7.6875 2.43738C7.6875 2.43738 21.4687 0.749877 24.1875 9.18738C24.1875 9.18738 24.4688 1.96863 16.125 0.187377C10.9688 -0.843874 7.6875 2.43738 7.6875 2.43738Z" fill="#B74F88"/>
<path d="M21.8437 24.4688C22.0312 24.4688 24.375 24.4688 26.0625 27.0938C26.5312 27.8438 26.25 28.7813 25.5 29.1563C23.9062 29.9063 20.9062 30.9376 17.625 29.1563C16.9687 28.7813 16.5937 27.6563 17.0625 27.0001C17.9062 25.7813 19.4062 24.3751 21.8437 24.4688Z" fill="#425763"/>
<path d="M21.8435 25.0314C22.031 25.0314 23.9998 25.0314 25.4998 27.0939C25.8748 27.6564 25.6873 28.4064 25.031 28.6876C23.6248 29.3439 21.0935 30.0001 18.1873 28.5939C17.6248 28.3126 17.4373 27.4689 17.8123 27.0001C18.4685 26.0626 19.6873 24.9376 21.8435 25.0314Z" fill="#A2B6BA"/>
<path d="M21.8435 25.1252C22.031 25.1252 23.6248 25.1252 24.8435 26.8127C25.1248 27.2814 25.031 27.9377 24.4685 28.1252C23.3435 28.5939 21.281 29.2502 18.9373 28.0314C18.4685 27.7502 18.281 27.1877 18.656 26.7189C19.031 25.9689 20.0623 25.0314 21.8435 25.1252Z" fill="#87999B"/>
<path d="M21.4688 27.75C24.8342 27.75 27.5625 25.0217 27.5625 21.6562C27.5625 18.2908 24.8342 15.5625 21.4688 15.5625C18.1033 15.5625 15.375 18.2908 15.375 21.6562C15.375 25.0217 18.1033 27.75 21.4688 27.75Z" fill="#425763"/>
<path d="M21.4687 26.9062C24.4718 26.9062 26.9062 24.4718 26.9062 21.4687C26.9062 18.4657 24.4718 16.0312 21.4687 16.0312C18.4657 16.0312 16.0312 18.4657 16.0312 21.4687C16.0312 24.4718 18.4657 26.9062 21.4687 26.9062Z" fill="#A2B6BA"/>
<path d="M21.6563 25.9688C24.4004 25.9688 26.625 23.7442 26.625 21C26.625 18.2558 24.4004 16.0312 21.6563 16.0312C18.9121 16.0312 16.6875 18.2558 16.6875 21C16.6875 23.7442 18.9121 25.9688 21.6563 25.9688Z" fill="#CBDEE4"/>
<path d="M24.375 20.625C24.9963 20.625 25.5 20.1213 25.5 19.5C25.5 18.8787 24.9963 18.375 24.375 18.375C23.7537 18.375 23.25 18.8787 23.25 19.5C23.25 20.1213 23.7537 20.625 24.375 20.625Z" fill="#425763"/>
<path d="M24.4688 20.0625C24.8312 20.0625 25.125 19.7687 25.125 19.4063C25.125 19.0438 24.8312 18.75 24.4688 18.75C24.1063 18.75 23.8125 19.0438 23.8125 19.4063C23.8125 19.7687 24.1063 20.0625 24.4688 20.0625Z" fill="#4ED154"/>
<path d="M20.4375 19.0312C20.4375 19.0312 20.7188 17.0625 22.2188 16.3125C22.4062 16.2187 22.4062 16.0312 22.125 16.0312H21.8437C21.6562 16.0312 19.9688 16.125 19.4062 19.125L20.4375 19.0312Z" fill="#A2B6BA"/>
<path d="M23.2728 22.2633C23.2798 20.3476 21.8583 18.7894 20.0979 18.783C18.3375 18.7767 16.9048 20.3245 16.8978 22.2402C16.8909 24.156 18.3123 25.7142 20.0728 25.7205C21.8332 25.7269 23.2659 24.1791 23.2728 22.2633Z" fill="#425763"/>
<path d="M22.655 22.1056C22.6603 20.6558 21.5732 19.4766 20.227 19.4717C18.8808 19.4668 17.7853 20.6381 17.78 22.0879C17.7748 23.5376 18.8618 24.7168 20.208 24.7217C21.5542 24.7266 22.6498 23.5553 22.655 22.1056Z" fill="#3587C4"/>
<path d="M22.1914 22.0052C22.1957 20.8143 21.2758 19.8456 20.1367 19.8415C18.9976 19.8373 18.0707 20.7994 18.0664 21.9902C18.0621 23.1811 18.982 24.1498 20.1211 24.154C21.2602 24.1581 22.1871 23.196 22.1914 22.0052Z" fill="#4DA3EC"/>
<path d="M21.294 20.9855C21.2952 20.6749 21.0442 20.4221 20.7336 20.421C20.4229 20.4199 20.1702 20.6708 20.169 20.9814C20.1679 21.2921 20.4188 21.5449 20.7295 21.546C21.0402 21.5471 21.2929 21.2962 21.294 20.9855Z" fill="white"/>
<path d="M21.5623 17.5313L22.3123 16.7813C22.406 16.6875 22.5935 16.6875 22.6873 16.6875C22.9685 16.7812 23.531 16.9688 24.1873 17.3438C24.5623 17.5313 24.3748 18.1875 23.906 18.0938L21.8435 18.1875C21.5623 18.2813 21.3748 17.8125 21.5623 17.5313Z" fill="#E1F0F4"/>
</g>
<defs>
<clipPath id="clip0_1_4670">
<rect width="30" height="30" fill="white"/>
</clipPath>
</defs>
</svg>
