<svg width="30" height="30" viewBox="0 0 30 30" fill="none" xmlns="http://www.w3.org/2000/svg">
<g clip-path="url(#clip0_1_18398)">
<path d="M21.5813 17.8595C23.9527 17.8595 25.8751 15.9371 25.8751 13.5657C25.8751 11.1943 23.9527 9.27197 21.5813 9.27197C19.21 9.27197 17.2876 11.1943 17.2876 13.5657C17.2876 15.9371 19.21 17.8595 21.5813 17.8595Z" fill="#493426"/>
<path d="M17.2873 5.625L17.3998 5.71875C17.9717 6.28125 20.5873 9.15938 20.3342 14.8969C20.3342 14.8969 20.5779 16.65 22.9592 16.65C22.8459 15.9584 22.9072 15.2495 23.1373 14.5875C23.5217 13.7812 24.4311 9.3375 23.3811 7.02187C22.6898 5.62649 21.6619 4.42526 20.3902 3.52667C19.1184 2.62808 17.6428 2.06044 16.0967 1.875" fill="#302119"/>
<path d="M5.62485 26.6904C3.47797 25.4248 2.39985 22.3591 3.5436 19.3498C4.34645 17.8256 5.36297 16.4239 6.56235 15.1873C8.43735 13.6404 16.4998 12.4967 22.7998 17.4842C24.0492 18.5465 24.88 20.0186 25.1436 21.6373C25.1391 21.6746 25.1391 21.7124 25.1436 21.7498C25.978 26.3623 24.5623 30.0654 20.7655 30.0654C16.3686 30.0654 9.37485 28.8935 5.62485 26.6904Z" fill="#692A2A"/>
<path d="M6.41248 25.5748C5.39848 24.9176 4.65243 23.92 4.30868 22.7615C3.96493 21.6031 4.04607 20.36 4.53748 19.2561C5.25552 17.9428 6.15499 16.7372 7.20936 15.6748C8.90623 14.3436 16.0406 13.3592 21.6375 17.6529C22.7367 18.5544 23.4726 19.8231 23.7094 21.2248V21.3279C24.45 25.2936 23.1937 28.4811 19.8281 28.4811C15.9375 28.4811 9.73123 27.4686 6.41248 25.5748Z" fill="#BD4F53"/>
<path d="M5.90645 23.2873C3.9752 22.3498 4.64082 20.2123 5.70957 17.8967C6.13307 17.1356 6.73863 16.4914 7.47207 16.0217C9.20645 14.8685 16.0877 13.8185 21.7314 17.5779C22.7885 18.2908 23.5331 19.3808 23.8127 20.6248V20.7092C24.5533 24.1498 22.0033 27.206 18.9377 26.7467C15.0471 26.1935 9.24395 24.8904 5.90645 23.2873Z" fill="#E8A77B"/>
<path d="M5.71869 23.2875C4.05932 22.35 5.78432 21.3281 6.70307 19.0125C7.35772 17.9518 8.1774 17.0024 9.13119 16.2C10.6312 15.0375 14.3531 13.8 19.2281 17.5594C20.1763 18.3323 20.8152 19.4203 21.0281 20.625V20.7094C21.6656 24.15 19.9593 26.7562 17.2781 26.3344C13.9499 25.7437 8.60619 24.8906 5.71869 23.2875Z" fill="#FFDEC2"/>
<path d="M17.9999 17.3718C17.9999 17.3718 18.7968 21.5905 16.2749 22.8937C16.2749 22.8937 22.6687 22.678 24.3655 21.6937C24.3655 21.6937 24.9093 18.1405 19.978 16.5093L17.9999 17.3718Z" fill="#BD4F53"/>
<path d="M7.73437 15.9375C6.88693 16.6424 6.17253 17.4933 5.625 18.45L6.83437 19.1625L7.03125 21.0375C6.94864 20.2227 7.11271 19.4018 7.5022 18.6813C7.89168 17.9609 8.48862 17.374 9.21562 16.9969L7.73437 15.9375Z" fill="#BD4F53"/>
<path d="M5.6252 19.8281C5.6252 19.8281 10.3783 24.3469 24.1971 21.7031C24.1971 21.7031 23.2596 24.4594 22.5846 26.0063C19.0553 26.4977 15.4635 26.281 12.019 25.3687C6.31895 23.9625 3.8252 25.3125 5.6252 19.8281Z" fill="#8E4028"/>
<path d="M4.56565 19.5468C4.6594 19.1437 4.8469 20.2875 5.19378 20.4843C6.48753 21.3562 9.31878 23.0625 16.5563 23.8125C18.2344 23.9906 21.2438 22.6968 24.1219 21.9937C24.1708 22.4843 24.1551 22.9791 24.075 23.4656C23.8875 24.4407 23.3727 25.3226 22.6157 25.9653C21.8588 26.608 20.9051 26.973 19.9125 27C17.2077 27.0468 14.5087 26.7315 11.8875 26.0625C6.50628 24.8062 3.3844 24.225 4.56565 19.5468Z" fill="#E08484"/>
<path d="M8.52197 25.6219C9.34755 25.4338 10.0963 24.9989 10.6688 24.375C10.6688 24.375 10.9876 26.1375 12.2063 26.55C12.1876 26.5219 8.87822 25.7906 8.52197 25.6219Z" fill="#BD4F53"/>
<path d="M14.8408 23.7468C14.8408 23.7468 20.0158 23.0999 19.4064 18.0093C19.7959 17.7795 20.2453 17.6719 20.6965 17.7003C21.1478 17.7287 21.5802 17.8918 21.9377 18.1686C23.0533 19.1624 24.7502 20.2218 24.0471 23.353C24.0471 23.353 15.5533 25.4061 14.8408 23.7468Z" fill="#E08484"/>
<path d="M7.41572 21.9187C7.41572 21.9187 6.54385 19.5094 7.22822 18.2531C7.66327 17.4699 8.26106 16.789 8.98135 16.2563L8.04385 15.5156C8.04385 15.5156 4.92197 17.7656 4.44385 20.2031L7.41572 21.9187Z" fill="#E08484"/>
<path d="M19.4905 25.2C19.6648 25.9367 19.6648 26.7039 19.4905 27.4406H21.0749C20.814 25.9868 20.2133 24.6151 19.3218 23.4375L19.4905 25.2Z" fill="#BD4F53"/>
<path d="M5.45625 22.0969C5.34787 22.7211 5.3799 23.3616 5.55 23.9719L4.21875 24.0937C4.30044 23.3454 4.4899 22.6128 4.78125 21.9187C4.80698 21.8355 4.8631 21.765 4.93845 21.7212C5.01379 21.6775 5.10284 21.6637 5.1879 21.6826C5.27295 21.7015 5.34778 21.7517 5.3975 21.8232C5.44722 21.8948 5.46819 21.9824 5.45625 22.0687V22.0969Z" fill="#BD4F53"/>
<path d="M11.8314 23.9156C11.8314 23.9156 16.3596 23.0625 18.4877 24.4219C18.4877 24.4219 19.0408 25.4063 18.4877 25.6219C17.9346 25.8375 13.9502 23.9719 11.9252 24.5531C11.9158 24.5531 11.4658 24.1031 11.8314 23.9156Z" fill="#F4ABAB"/>
<path d="M5.75613 21.9189C5.75613 21.9189 9.0655 22.0221 10.3499 23.3158C10.3499 23.3158 10.5843 24.0939 10.1811 24.1596C9.778 24.2252 7.24675 22.2846 5.71863 22.3783C5.71863 22.3783 5.47488 21.9939 5.75613 21.9189Z" fill="#F4ABAB"/>
<path d="M9.8252 3.04682C9.8252 3.04682 13.6783 1.07807 16.9033 2.4187C16.9033 2.4187 17.8408 3.6562 15.4783 3.8812C13.1158 4.1062 13.1252 2.81245 9.8252 3.04682Z" fill="white"/>
<path d="M23.0685 10.4569C23.0858 5.72458 19.2678 1.8742 14.5406 1.85688C9.81341 1.83955 5.96721 5.66184 5.94986 10.3942C5.93252 15.1266 9.75059 18.9769 14.4778 18.9943C19.205 19.0116 23.0512 15.1893 23.0685 10.4569Z" fill="#8E4028"/>
<path d="M22.6837 9.84447C22.7005 5.25708 18.9995 1.52466 14.4173 1.50787C9.83507 1.49107 6.10683 5.19627 6.09001 9.78365C6.0732 14.371 9.77418 18.1035 14.3564 18.1203C18.9386 18.137 22.6668 14.4319 22.6837 9.84447Z" fill="#E8A77B"/>
<path d="M22.5823 9.60753C22.5985 5.20654 19.1488 1.62614 14.8772 1.61049C10.6057 1.59483 7.12981 5.14985 7.11368 9.55083C7.09755 13.9518 10.5472 17.5322 14.8188 17.5479C19.0903 17.5635 22.5662 14.0085 22.5823 9.60753Z" fill="#E8BD89"/>
<path d="M18.3466 10.6912C18.3584 7.48111 15.8453 4.86954 12.7336 4.85813C9.62183 4.84673 7.08971 7.43981 7.07794 10.6499C7.06618 13.8601 9.57922 16.4716 12.691 16.4831C15.8027 16.4945 18.3349 13.9014 18.3466 10.6912Z" fill="#FFDEC2"/>
<path d="M6.65645 9.12207C6.65645 9.12207 6.9377 7.8752 9.76895 7.8752C12.6002 7.8752 16.5846 8.19395 18.3377 6.3752L17.6908 5.79395C16.2823 6.44667 14.7428 6.7674 13.1908 6.73145C10.3783 6.73145 6.75957 7.43457 6.55332 7.7252C6.34707 8.01582 6.65645 9.12207 6.65645 9.12207Z" fill="#E8A77B"/>
<path d="M15.3816 11.3131C15.3835 10.8108 15.0408 10.4024 14.6162 10.4009C14.1917 10.3993 13.846 10.8052 13.8442 11.3074C13.8423 11.8097 14.185 12.2181 14.6096 12.2196C15.0341 12.2212 15.3798 11.8153 15.3816 11.3131Z" fill="#8E4028"/>
<path d="M14.9322 10.9819C14.9327 10.8525 14.8449 10.7472 14.7362 10.7468C14.6275 10.7464 14.5389 10.851 14.5385 10.9805C14.538 11.1099 14.6257 11.2152 14.7345 11.2156C14.8432 11.216 14.9317 11.1114 14.9322 10.9819Z" fill="white"/>
<path d="M9.15264 10.2779C9.15448 9.77568 8.81179 9.36728 8.38723 9.36572C7.96266 9.36416 7.61699 9.77004 7.61515 10.2723C7.61331 10.7745 7.95599 11.1829 8.38056 11.1845C8.80513 11.186 9.1508 10.7801 9.15264 10.2779Z" fill="#8E4028"/>
<path d="M8.7032 9.95603C8.70367 9.82659 8.61592 9.72134 8.50719 9.72094C8.39846 9.72054 8.30993 9.82515 8.30945 9.95459C8.30898 10.084 8.39674 10.1893 8.50547 10.1897C8.6142 10.1901 8.70273 10.0855 8.7032 9.95603Z" fill="white"/>
<path d="M19.2846 3.97501C18.7971 4.9329 18.0259 5.71704 17.0762 6.22039C16.1266 6.72374 15.0447 6.92179 13.9783 6.78751C10.0315 6.47814 7.2002 7.16251 6.04708 8.78439C6.04708 8.78439 5.85958 2.62501 11.6721 1.67814C17.4846 0.73126 19.2846 3.08439 19.2846 3.97501Z" fill="#493426"/>
<path d="M16.7907 5.18457C16.8316 5.21159 16.8693 5.24303 16.9032 5.27832C17.4751 5.84082 20.0907 8.71895 19.8376 14.4564C19.8376 14.4564 20.0813 16.2096 22.4626 16.2096C22.3494 15.518 22.4106 14.809 22.6407 14.1471C23.0251 13.3408 23.9345 8.89707 22.8845 6.58145C22.1933 5.18606 21.1653 3.98483 19.8936 3.08624C18.6218 2.18765 17.1462 1.62001 15.6001 1.43457" fill="#493426"/>
<path d="M19.6313 11.3342C19.6313 11.3342 20.5688 10.7529 21.0001 11.1842C21.722 11.9529 21.1126 13.1529 19.6782 13.3498L19.6313 11.3342Z" fill="#E8BD89"/>
<path d="M17.4936 6.72168C18.6053 8.04066 19.3433 9.63336 19.6311 11.3342C19.6311 11.3342 19.4342 7.58418 17.6904 6.25293L17.4561 6.64668" fill="#E8A77B"/>
<path d="M20.2969 13.125C20.2969 13.125 20.0344 15.1219 21.3094 15.9375C21.0843 15.9711 20.8543 15.9396 20.6466 15.8465C20.4389 15.7535 20.2623 15.6029 20.1375 15.4125C19.7996 14.7404 19.6598 13.9861 19.7344 13.2375L20.2969 13.125Z" fill="#E8A77B"/>
<path d="M11.9623 22.5656C11.7553 22.13 11.6671 21.6473 11.7066 21.1666C11.7461 20.6859 11.912 20.2241 12.1873 19.8281C12.1873 19.8281 10.8279 19.9781 10.7998 22.5656C10.8186 22.5656 11.5123 22.9688 11.9623 22.5656Z" fill="#A85038"/>
<path d="M13.4158 14.7842C12.935 14.7069 12.4773 14.5244 12.0751 14.2499C11.9099 14.1151 11.7196 14.0143 11.5153 13.9532C11.311 13.892 11.0967 13.8718 10.8845 13.8936C10.772 13.8936 10.6033 13.7342 10.4345 13.6405C10.2658 13.5467 9.9939 13.528 9.97515 13.6405C9.9564 13.753 10.2001 14.1655 10.2001 14.1655C10.2257 14.3427 10.2257 14.5227 10.2001 14.6999C10.1739 14.8003 10.1685 14.9051 10.1844 15.0078C10.2003 15.1104 10.237 15.2087 10.2924 15.2966C10.3477 15.3844 10.4205 15.46 10.5062 15.5186C10.592 15.5772 10.6888 15.6177 10.7908 15.6374C11.2143 15.7646 11.6693 15.7381 12.0751 15.5624C12.3376 15.403 13.4158 14.7842 13.4158 14.7842Z" fill="#A53829"/>
<path d="M19.5186 24.1968C19.5186 24.1968 21.7967 26.1562 23.9623 25.2093C26.1279 24.2624 20.5123 27.6374 20.5123 27.6374L19.5186 24.1968Z" fill="#BD4F53"/>
<path d="M16.5092 5.24043C16.0526 5.15041 15.6278 4.94191 15.2773 4.63585C14.9268 4.32978 14.663 3.93692 14.5123 3.49668C13.9873 1.95918 13.4529 0.487305 10.8185 0.487305C8.18417 0.487305 5.03417 2.42793 6.04667 5.24043C7.05917 8.05293 16.7154 8.0998 16.5092 5.24043Z" fill="#493426"/>
<path d="M15.6093 5.38145C15.229 5.30733 14.8752 5.13383 14.5837 4.8786C14.2922 4.62336 14.0736 4.29549 13.9499 3.92832C13.5093 2.65332 13.0687 1.43457 10.8749 1.43457C8.68117 1.43457 6.06554 3.04707 6.90929 5.38145C7.75304 7.71582 15.7874 7.7627 15.6093 5.38145Z" fill="#604637"/>
<path d="M20.3438 17.6812C20.3438 17.6812 25.3687 22.4437 22.0969 26.3812C22.0969 26.3812 22.7062 27.4499 23.5687 25.9124C24.4312 24.3749 25.8563 19.3124 20.3438 17.6812Z" fill="#BD4F53"/>
<path d="M23.8971 24.4592C24.76 24.5105 25.5971 24.7734 26.3345 25.2246C27.0718 25.6759 27.6868 26.3016 28.1252 27.0467C28.2288 27.2115 28.2977 27.3957 28.3278 27.5879C28.3579 27.7802 28.3485 27.9767 28.3003 28.1652C28.252 28.3538 28.1659 28.5306 28.0472 28.6848C27.9284 28.839 27.7796 28.9675 27.6096 29.0623C26.3952 29.727 25.033 30.0754 23.6487 30.0754C22.2643 30.0754 20.9021 29.727 19.6877 29.0623C19.3346 28.8415 19.082 28.4912 18.9838 28.0865C18.8857 27.6818 18.9499 27.2547 19.1627 26.8967C19.6631 26.1163 20.3591 25.4807 21.1815 25.053C22.0039 24.6254 22.9241 24.4206 23.8502 24.4592H23.8971Z" fill="#425763"/>
<path d="M23.8594 25.0315C24.5827 25.0656 25.2879 25.2691 25.9181 25.6258C26.5483 25.9824 27.0859 26.4821 27.4876 27.0846C27.5824 27.2158 27.6468 27.3666 27.6759 27.5259C27.7051 27.6852 27.6983 27.8489 27.6561 28.0053C27.6138 28.1616 27.5372 28.3065 27.4319 28.4294C27.3265 28.5524 27.195 28.6502 27.0469 28.7159C25.9752 29.217 24.8032 29.4665 23.6203 29.4454C22.4374 29.4243 21.275 29.133 20.2219 28.594C20.0808 28.5205 19.9572 28.4175 19.8596 28.292C19.7619 28.1664 19.6924 28.0213 19.656 27.8664C19.6195 27.7116 19.6168 27.5507 19.6481 27.3948C19.6795 27.2388 19.7441 27.0914 19.8376 26.9627C20.2864 26.3325 20.8866 25.8252 21.5829 25.4878C22.2791 25.1503 23.0491 24.9934 23.8219 25.0315H23.8594Z" fill="#A2B6BA"/>
<path d="M23.8406 25.1157C24.4309 25.1408 25.007 25.305 25.5218 25.595C26.0367 25.885 26.4757 26.2926 26.8031 26.7845C26.8736 26.8948 26.9201 27.0186 26.9399 27.148C26.9596 27.2775 26.9519 27.4096 26.9175 27.5358C26.8831 27.6621 26.8226 27.7798 26.7399 27.8813C26.6572 27.9828 26.5542 28.0658 26.4375 28.1251C25.5643 28.533 24.6094 28.7358 23.6458 28.7179C22.6822 28.7 21.7355 28.462 20.8781 28.022C20.7686 27.9577 20.6734 27.8718 20.5981 27.7696C20.5229 27.6674 20.4691 27.5509 20.4402 27.4273C20.4113 27.3037 20.4077 27.1755 20.4298 27.0505C20.4519 26.9255 20.4992 26.8063 20.5687 26.7001C20.9335 26.1861 21.4219 25.7724 21.9889 25.4971C22.5558 25.2218 23.183 25.0939 23.8125 25.1251L23.8406 25.1157Z" fill="#87999B"/>
<path d="M23.4749 27.7594C26.83 27.7594 29.5499 25.0395 29.5499 21.6844C29.5499 18.3292 26.83 15.6094 23.4749 15.6094C20.1198 15.6094 17.3999 18.3292 17.3999 21.6844C17.3999 25.0395 20.1198 27.7594 23.4749 27.7594Z" fill="#425763"/>
<path d="M23.4752 26.8874C26.4575 26.8874 28.8752 24.4697 28.8752 21.4874C28.8752 18.5051 26.4575 16.0874 23.4752 16.0874C20.4929 16.0874 18.0752 18.5051 18.0752 21.4874C18.0752 24.4697 20.4929 26.8874 23.4752 26.8874Z" fill="#A2B6BA"/>
<path d="M23.6906 26.0248C26.4451 26.0248 28.6781 23.7918 28.6781 21.0373C28.6781 18.2828 26.4451 16.0498 23.6906 16.0498C20.9361 16.0498 18.7031 18.2828 18.7031 21.0373C18.7031 23.7918 20.9361 26.0248 23.6906 26.0248Z" fill="#CBDEE4"/>
<path d="M26.428 20.6158C27.039 20.6158 27.5343 20.1205 27.5343 19.5096C27.5343 18.8986 27.039 18.4033 26.428 18.4033C25.8171 18.4033 25.3218 18.8986 25.3218 19.5096C25.3218 20.1205 25.8171 20.6158 26.428 20.6158Z" fill="#425763"/>
<path d="M26.4752 20.1096C26.8428 20.1096 27.1408 19.8116 27.1408 19.4439C27.1408 19.0763 26.8428 18.7783 26.4752 18.7783C26.1076 18.7783 25.8096 19.0763 25.8096 19.4439C25.8096 19.8116 26.1076 20.1096 26.4752 20.1096Z" fill="#4ED154"/>
<path d="M22.4999 19.0781C22.5871 18.5277 22.7859 18.0009 23.0842 17.5302C23.3825 17.0594 23.7738 16.6546 24.2343 16.3406C24.4312 16.2281 24.3937 16.1062 24.178 16.0781H23.8874C23.653 16.0781 22.0124 16.1531 21.4312 19.1625L22.4999 19.0781Z" fill="#A2B6BA"/>
<path d="M25.2377 22.1439C25.2377 20.2489 23.8022 18.7127 22.0314 18.7127C20.2607 18.7127 18.8252 20.2489 18.8252 22.1439C18.8252 24.039 20.2607 25.5752 22.0314 25.5752C23.8022 25.5752 25.2377 24.039 25.2377 22.1439Z" fill="#425763"/>
<path d="M24.6343 22.0932C24.6396 20.6487 23.5484 19.4736 22.197 19.4687C20.8456 19.4637 19.7458 20.6307 19.7405 22.0753C19.7352 23.5199 20.8265 24.6949 22.1778 24.6999C23.5292 24.7048 24.629 23.5378 24.6343 22.0932Z" fill="#3587C4"/>
<path d="M24.231 21.9884C24.2354 20.7872 23.3281 19.81 22.2046 19.8059C21.0811 19.8018 20.1667 20.7722 20.1623 21.9735C20.1579 23.1747 21.0651 24.1518 22.1887 24.1559C23.3122 24.16 24.2266 23.1896 24.231 21.9884Z" fill="#4DA3EC"/>
<path d="M23.3427 20.9857C23.3439 20.6699 23.0762 20.4129 22.7448 20.4117C22.4134 20.4105 22.1439 20.6655 22.1427 20.9814C22.1416 21.2972 22.4093 21.5542 22.7406 21.5554C23.072 21.5566 23.3416 21.3016 23.3427 20.9857Z" fill="white"/>
<path d="M23.6156 17.5124C23.8582 17.2451 24.1215 16.9974 24.4031 16.7718C24.455 16.7299 24.5161 16.7012 24.5814 16.6882C24.6467 16.6751 24.7142 16.6781 24.7781 16.6968C25.3147 16.8545 25.8284 17.0814 26.3063 17.3718C26.3849 17.4214 26.4449 17.4957 26.477 17.583C26.509 17.6703 26.5113 17.7658 26.4835 17.8545C26.4557 17.9433 26.3994 18.0204 26.3232 18.0738C26.2471 18.1272 26.1554 18.154 26.0625 18.1499C25.3654 18.1056 24.6657 18.1245 23.9719 18.2061C23.8887 18.213 23.8053 18.1951 23.7322 18.1546C23.6592 18.114 23.5999 18.0527 23.5617 17.9784C23.5236 17.9041 23.5083 17.8202 23.5179 17.7372C23.5275 17.6543 23.5615 17.576 23.6156 17.5124Z" fill="#E1F0F4"/>
</g>
<defs>
<clipPath id="clip0_1_18398">
<rect width="30" height="30" fill="white"/>
</clipPath>
</defs>
</svg>
