<svg width="30" height="30" viewBox="0 0 30 30" fill="none" xmlns="http://www.w3.org/2000/svg">
<g clip-path="url(#clip0_1_17156)">
<path d="M7.125 2.4375C6.65625 2.71875 6.28125 3.375 6.65625 3.84375C6.09375 3.5625 5.34375 3.9375 5.15625 4.59375C5.15625 4.875 5.25 5.34375 4.96875 5.625C4.96875 5.71875 4.78125 5.8125 4.6875 5.90625C4.5 6.09375 4.40625 6.46875 4.5 6.75C4.59375 7.03125 4.78125 7.21875 5.0625 7.3125C4.6875 7.3125 4.21875 7.6875 4.125 8.0625C4.125 8.53125 4.3125 9 4.6875 9.1875C4.3125 9.28125 4.03125 9.65625 4.03125 10.0312C4.03125 10.4062 4.21875 10.7812 4.5 10.9688C4.3125 11.25 4.40625 11.7188 4.59375 12C4.78125 12.2812 5.0625 12.5625 5.34375 12.8438C5.71875 13.125 6 13.5 6.375 13.6875C6.75 13.875 7.21875 13.9688 7.6875 13.875C8.25 13.6875 8.71875 13.2188 9 12.6562C9.65625 11.625 10.3125 10.5938 10.7812 9.375C11.25 8.25 11.4375 6.9375 11.25 5.71875C11.1562 5.15625 11.0625 4.59375 10.6875 4.125C10.4062 3.75 10.125 3.375 9.75 3.09375C9.375 2.71875 9.09375 2.34375 8.625 2.15625C8.15625 2.15625 7.59375 2.25 7.125 2.4375Z" fill="#4A3531"/>
<path d="M20.1564 18.1875C21.9377 18.75 23.6252 20.25 24.1877 22.3125C24.7502 24.4687 24.0002 27.0938 22.3127 28.2188C21.2814 28.9688 19.8752 29.25 18.6564 29.25C15.5627 29.25 12.5627 28.2188 9.46891 27.1875C8.43766 26.8125 7.40641 26.5313 6.56266 25.875C5.62516 25.2188 4.87516 24.1875 4.78141 22.9688C4.59391 21.2813 5.62516 19.6875 6.84391 18.8438C9.09391 17.4375 11.3439 16.7812 13.6877 16.7812C15.7502 16.7812 18.1877 17.5312 20.1564 18.1875Z" fill="#305472"/>
<path d="M19.7813 16.875C21.4688 17.4375 23.0625 18.9375 23.5313 21C24.0938 23.1562 23.3438 25.7813 21.75 26.9063C20.7188 27.6563 19.5 27.9375 18.2813 27.9375C15.375 27.9375 12.5625 26.9062 9.65627 25.875C8.71877 25.5 7.68752 25.2188 6.84377 24.5625C6.00002 23.9063 5.25002 22.875 5.15627 21.6563C4.96877 19.9688 5.90627 18.375 7.12502 17.5313C9.18752 16.125 11.4375 15.4688 13.5938 15.4688C15.6563 15.4688 18 16.2188 19.7813 16.875Z" fill="#997567"/>
<path d="M21.0545 24.1846C21.6615 22.3131 21.1155 20.4593 19.835 20.044C18.5545 19.6287 17.0244 20.8092 16.4174 22.6807C15.8104 24.5522 16.3564 26.406 17.6369 26.8213C18.9174 27.2366 20.4475 26.0561 21.0545 24.1846Z" fill="#A88378"/>
<path d="M23.1529 11.2481C23.1707 6.32935 19.1977 2.32744 14.2789 2.30962C9.36011 2.29179 5.3582 6.26481 5.34038 11.1836C5.32255 16.1024 9.29557 20.1043 14.2144 20.1221C19.1331 20.1399 23.1351 16.1669 23.1529 11.2481Z" fill="#4A3531"/>
<path d="M22.7344 10.5757C22.7516 5.81223 18.9041 1.9367 14.1406 1.91944C9.37717 1.90218 5.50164 5.74973 5.48438 10.5132C5.46712 15.2766 9.31467 19.1522 14.0781 19.1694C18.8416 19.1867 22.7171 15.3391 22.7344 10.5757Z" fill="#7A594F"/>
<path d="M22.6954 10.3358C22.7119 5.77942 19.1156 2.07269 14.6628 2.05656C10.21 2.04043 6.58693 5.72099 6.57042 10.2773C6.55391 14.8337 10.1502 18.5404 14.603 18.5566C19.0558 18.5727 22.6789 14.8921 22.6954 10.3358Z" fill="#7A594F"/>
<path d="M18.2185 11.5011C18.2305 8.1874 15.6379 5.49168 12.4278 5.48005C9.2176 5.46841 6.60553 8.14528 6.59352 11.459C6.58151 14.7727 9.17412 17.4684 12.3843 17.48C15.5944 17.4917 18.2065 14.8148 18.2185 11.5011Z" fill="#997567"/>
<path d="M15.1264 12.1505C15.1283 11.6327 14.7941 11.2117 14.3798 11.2102C13.9656 11.2087 13.6283 11.6273 13.6264 12.145C13.6246 12.6628 13.9588 13.0837 14.373 13.0852C14.7873 13.0867 15.1246 12.6682 15.1264 12.1505Z" fill="#362826"/>
<path d="M8.7573 10.6729C8.75918 10.1551 8.42491 9.7342 8.0107 9.7327C7.59649 9.7312 7.25918 10.1497 7.2573 10.6675C7.25543 11.1852 7.58969 11.6062 8.00391 11.6077C8.41812 11.6092 8.75543 11.1907 8.7573 10.6729Z" fill="#362826"/>
<path d="M8.36967 10.3685C8.37023 10.2132 8.28674 10.087 8.18319 10.0866C8.07964 10.0862 7.99523 10.2119 7.99467 10.3672C7.99411 10.5225 8.0776 10.6487 8.18115 10.6491C8.28471 10.6495 8.36911 10.5239 8.36967 10.3685Z" fill="white"/>
<path d="M12.6563 16.125C12.6563 16.125 11.8125 16.0313 11.25 15.5625C10.6875 15.0938 10.125 15.1875 10.0312 15.1875C9.9375 15.1875 9.75 15 9.5625 14.9062C9.375 14.8125 9.09375 14.8125 9.09375 14.9062C9.09375 15 9.375 15.4688 9.375 15.4688V16.0313C9.28125 16.2188 9.375 16.7813 10.0312 16.9688C10.6875 17.1563 11.0625 17.0625 11.3438 16.875C11.5313 16.7813 12.6563 16.125 12.6563 16.125Z" fill="#4A3531"/>
<path d="M13.6875 10.5C13.7813 10.6875 14.0625 10.6875 14.25 10.6875L17.0625 10.5C17.1563 10.5 17.3438 10.5 17.3438 10.4062C17.4375 10.3125 17.3438 10.125 17.25 10.0312C17.1562 9.9375 17.0625 9.9375 16.875 9.9375C16.2188 9.84375 15.4688 9.84375 14.8125 9.9375C14.625 9.84375 13.4063 9.9375 13.6875 10.5ZM8.90625 9.28125H9.1875C9.28125 9.28125 9.375 9.1875 9.375 9C9.375 8.8125 9.1875 8.71875 9.09375 8.71875L7.59375 8.15625C7.5 8.0625 7.3125 8.0625 7.21875 8.0625C7.125 8.0625 6.9375 8.15625 6.9375 8.34375C6.9375 8.53125 7.125 8.625 7.21875 8.625C7.5 8.71875 7.78125 8.8125 8.0625 9C8.34375 9.09375 8.53125 9.28125 8.90625 9.28125Z" fill="#362826"/>
<path d="M17.0623 8.8125C16.8748 8.8125 16.6873 8.90625 16.5935 8.8125C16.406 8.8125 16.2185 8.71875 16.031 8.625L13.781 7.3125C13.5935 7.21875 13.3123 7.03125 13.2185 6.84375C12.4685 7.59375 11.0623 7.59375 10.406 6.75C10.1248 6.9375 9.74977 7.03125 9.37477 6.9375C8.99977 6.84375 8.71852 6.5625 8.62477 6.28125C8.34352 6.375 7.96852 6.375 7.68727 6.46875C7.49977 5.90625 7.59352 5.25 7.96852 4.875C7.49977 5.0625 6.93727 4.78125 6.84352 4.3125C6.74977 4.03125 6.84352 3.75 6.93727 3.5625C7.12477 3.1875 7.21852 2.8125 7.31227 2.53125C7.40602 2.15625 7.59352 1.875 7.87477 1.6875C8.15602 1.5 8.62477 1.5 8.99977 1.40625C9.56227 1.3125 9.93727 0.9375 10.406 0.65625C10.9685 0.1875 11.7185 0 12.4685 0C12.9373 0 13.4998 0.1875 13.781 0.5625C13.9685 0.1875 14.3435 0 14.8123 0C15.281 0 15.656 0.375 15.7498 0.75C16.781 0.46875 17.8123 0.46875 18.8435 0.65625C19.2185 0.75 19.5935 0.84375 19.781 1.125C19.9685 1.40625 19.9685 1.96875 19.5935 2.0625C19.8748 2.15625 20.2498 2.0625 20.531 2.0625C20.8123 2.0625 21.1873 1.96875 21.4685 2.0625C21.7498 2.15625 22.031 2.4375 22.031 2.71875C22.031 3 21.7498 3.375 21.4685 3.28125L24.1873 4.3125C23.7185 4.875 22.9685 5.25 22.2185 5.25C22.4998 5.34375 22.781 5.34375 22.9685 5.4375C23.156 5.53125 23.4373 5.8125 23.4373 6.09375C23.4373 6.375 23.2498 6.65625 22.9685 6.65625L23.906 7.21875C23.6248 7.5 23.4373 7.78125 23.156 8.15625C22.9685 8.34375 22.781 8.625 22.5935 8.71875C22.2185 8.90625 21.7498 8.90625 21.3748 8.625C21.281 8.90625 21.281 9.375 20.9998 9.375C20.7185 9.375 20.4373 9 20.2498 8.90625C19.1248 8.25 18.1873 8.625 17.0623 8.8125Z" fill="#4A3531"/>
<path d="M18.1875 7.40625C17.7187 7.3125 17.1562 7.59375 17.0625 8.0625C17.0625 8.4375 17.25 8.71875 17.625 8.90625C17.9062 9.09375 18.2812 9.09375 18.6562 9.09375C18.4687 9.1875 18.2812 9.375 18.0937 9.46875C18.1875 10.0313 18.6562 10.5937 19.3125 10.6875C18.9375 10.6875 18.5625 11.0625 18.4688 11.4375C18.4688 11.8125 18.75 12.2812 19.125 12.375C18.9375 12.375 18.75 12.375 18.5625 12.4687C18.375 12.5625 18.2812 12.75 18.2812 12.9375C18.2812 13.2188 18.75 13.5 18.75 13.7812C18.75 13.9687 18.5625 14.1562 18.375 14.25C18.1875 14.3437 18 14.4375 17.9062 14.625C17.8125 14.8125 18.0937 15.0938 18.2812 15C18 15.0938 17.8125 15.2813 17.8125 15.6563C17.8125 15.9375 18 16.2188 18.2812 16.3125C18 16.2188 17.7187 16.4062 17.7187 16.6875C17.7187 16.875 17.9062 17.0625 18.0937 17.0625C18.2812 17.0625 18.4687 17.0625 18.6562 16.9688C18.6562 17.1563 18.6562 17.4375 18.8437 17.625C19.0312 18 19.4062 18.1875 19.7812 18.0938C20.1562 18 20.4375 17.625 20.4375 17.3438C20.4375 17.4375 20.5312 17.625 20.5312 17.7188C21.375 17.9062 22.3125 17.25 22.4062 16.4062C22.875 16.5938 23.5312 16.4062 23.8125 15.9375C24.0937 15.4688 24.0937 14.9062 23.8125 14.4375C24.4687 14.4375 24.9375 13.9687 25.125 13.3125C25.3125 12.75 25.0312 12 24.4687 11.7188C24.8437 11.7188 25.2187 11.3437 25.2187 10.9687C25.2187 10.5937 25.0312 10.2188 24.6562 9.9375C24.375 9.65625 24 9.5625 23.625 9.375C24.1875 9 24.9375 8.4375 24.9375 7.6875C24.9375 7.03125 24.2812 6.375 23.625 6.46875L21 5.34375C20.7187 5.25 20.4375 5.0625 20.0625 4.96875C19.5937 4.78125 19.125 4.59375 18.6562 4.59375C18.1875 4.59375 17.625 4.96875 17.5312 5.4375C17.5312 5.71875 17.625 6 17.7187 6.28125C17.8125 6.5625 17.8125 6.9375 17.625 7.125" fill="#4A3531"/>
<path d="M22.3121 4.03122C22.6871 3.65622 23.3433 3.84372 23.6246 4.31247C23.9058 4.78122 23.5308 5.43747 23.0621 5.53122C23.3433 5.43747 23.7183 5.71872 23.8121 5.99997L24.2808 6.74997C24.5621 7.21872 24.7496 7.59372 24.9371 8.15622C25.1246 8.99997 24.9371 9.84371 24.7496 10.6875C24.6558 11.1562 24.4683 11.7187 23.9996 11.8125C23.5308 12 23.0621 11.625 22.6871 11.25C21.9371 10.3125 21.6558 9.09372 21.2808 7.96872C21.0933 7.40622 20.8121 6.84372 20.5308 6.28122C20.1558 5.53122 18.9371 3.74997 19.6871 2.90622C20.4371 1.96872 22.4058 2.90622 22.3121 4.03122Z" fill="#4A3531"/>
<path d="M17.4374 0.9375C17.8124 0.9375 18.1874 0.9375 18.4686 1.125C18.7499 1.3125 18.9374 1.6875 18.8436 2.0625C19.1249 1.59375 19.6874 1.40625 20.1561 1.5C20.6249 1.59375 21.0936 2.15625 21.0936 2.625C21.4686 2.53125 21.8436 2.34375 22.2186 2.34375C22.5936 2.25 23.0624 2.34375 23.2499 2.71875C23.5311 3 23.4374 3.5625 23.0624 3.65625C23.3436 3.46875 23.7186 3.5625 23.9999 3.65625C24.2811 3.84375 24.3749 4.125 24.3749 4.5C24.3749 4.6875 24.2811 4.875 24.2811 5.0625C24.3749 5.4375 24.7499 5.53125 24.9374 5.8125C25.3124 6.09375 25.3124 6.46875 25.4061 6.84375C25.4999 7.3125 25.4999 7.78125 25.5936 8.25C25.6874 8.8125 25.6874 9.375 25.7811 9.9375C25.7811 10.3125 25.8749 10.7812 25.5936 11.0625C25.4999 11.3438 25.4999 11.625 25.4061 12C25.3124 12.375 25.2186 12.75 25.0311 13.125C24.7499 13.4062 24.3749 13.5938 23.9999 13.4062C23.7186 13.3125 23.6249 13.0312 23.5311 12.75C23.4374 12.4688 23.4374 12.1875 23.3436 11.9062C23.2499 11.5312 23.0624 11.1562 22.7811 10.9688C22.4999 10.7812 22.0311 10.6875 21.7499 10.875C21.8436 10.5 21.9374 10.125 21.8436 9.75C21.7499 9.375 21.5624 9.09375 21.1874 9C20.7186 8.90625 20.0624 9.28125 19.6874 9C19.3124 8.625 19.6874 7.875 19.4061 7.40625C19.1249 6.9375 18.4686 6.9375 17.9999 7.03125C17.5311 7.125 16.8749 7.21875 16.4999 6.84375C16.4061 6.65625 16.3124 6.46875 16.2186 6.375C15.8436 5.25 15.4686 4.03125 15.3749 2.8125C15.2811 1.6875 16.5936 1.03125 17.4374 0.9375Z" fill="#4A3531"/>
<path d="M5.90609 19.2188C5.90609 19.2188 6.84359 22.875 9.74984 23.7187C12.6561 24.5625 17.0623 25.125 19.9686 24.0938C22.8748 23.0625 23.7186 21.9375 23.7186 21.9375C23.7186 21.9375 24.3748 29.0625 16.6873 27.9375C9.09359 26.9062 6.28109 24.2812 5.99984 23.8125C5.71859 23.3437 4.21859 21.8438 5.90609 19.2188Z" fill="#53A9B8"/>
<path d="M12.1873 7.59395C12.2811 7.96895 12.5623 8.34395 12.9373 8.6252C13.3123 8.90645 13.6873 9.0002 14.0623 9.1877C13.7811 9.09395 13.4998 9.3752 13.4061 9.65645C13.3123 9.9377 13.4998 10.3127 13.6873 10.5002C13.8748 10.6877 14.1561 10.8752 14.4373 10.9689C14.1561 11.0627 14.0623 11.3439 14.1561 11.6252C14.2498 11.9064 14.4373 12.0939 14.6248 12.1877C15.0936 12.5627 15.4686 12.8439 16.0311 13.1252C16.5936 13.5002 17.2498 13.7814 17.8123 14.0627C18.1873 14.2502 18.6561 14.3439 19.0311 14.2502C19.4998 14.0627 19.8748 13.5939 20.0623 13.1252C20.4373 12.2814 20.6248 11.3439 20.7186 10.3127C20.7186 9.84395 20.7186 9.46895 20.5311 9.09395C20.3436 8.53145 19.8748 8.0627 19.4061 7.78145C18.9373 7.5002 18.3748 7.21895 17.8123 7.03145C16.9686 6.7502 16.0311 6.3752 15.1873 6.28145C14.2498 6.09395 11.9061 6.09395 12.1873 7.59395Z" fill="#4A3531"/>
<path d="M6 7.40625C6 7.40625 9.84375 7.125 13.9688 9.09375C13.9688 9.09375 12.8437 5.71875 7.6875 4.875C7.6875 4.875 6.1875 6.1875 6 7.40625Z" fill="#6A648E"/>
<path d="M10.2187 26.7188C10.2187 26.7188 9.09375 25.3125 9.09375 24.6562C9.09375 24.6562 8.25 25.2188 8.0625 25.875C8.0625 25.875 9.75 26.8125 10.2187 26.7188Z" fill="#305472"/>
<path d="M19.9832 23.0445C20.2228 22.3057 19.9379 21.5515 19.3469 21.3598C18.7559 21.1681 18.0826 21.6116 17.843 22.3504C17.6034 23.0891 17.8883 23.8434 18.4793 24.0351C19.0703 24.2267 19.7436 23.7832 19.9832 23.0445Z" fill="#A88378"/>
<path opacity="0.43" d="M20.1563 24C20.1563 24 20.625 28.5 17.7188 28.7813C17.7188 28.7813 24.5625 28.5 24 21.8438C23.9063 21.8438 22.6875 23.25 20.1563 24Z" fill="#305472"/>
<path d="M7.5 6.75C7.5 6.75 7.6875 6 8.34375 5.625C8.34375 5.625 11.4375 6.65625 12.5625 7.875C12.4687 7.875 9.65625 6.75 7.5 6.75Z" fill="#807CA5"/>
<path d="M14.625 2.81264C16.2188 3.00014 17.8125 3.28139 19.2188 3.84389C19.5938 4.03139 19.9688 4.21889 20.25 4.59389C20.4375 4.96889 20.3438 5.53139 19.9688 5.62514C20.4375 6.00014 21 6.18764 21.5625 6.09389C21.5625 6.46889 21.6563 6.75013 21.6563 7.12514C22.3125 7.96888 22.5 9.00013 22.7813 10.0314C22.875 10.5939 23.0625 11.1564 22.9688 11.8126C22.875 12.3751 22.5938 12.9376 22.0313 13.2189C21 13.0314 21 11.3439 19.9688 11.1564C19.2188 10.9689 18.375 11.7189 17.7188 11.3439C17.25 10.9689 17.4375 10.2189 17.7188 9.65639C17.25 9.75014 16.7813 9.46889 16.5938 9.00014C16.4063 8.62514 16.3125 8.15638 16.2188 7.68763C16.125 7.21888 15.9375 6.75014 15.5625 6.46889C15.1875 6.18764 14.625 6.28139 14.1563 6.00014C13.5938 5.62514 13.3125 5.15639 13.0313 4.68764C12.75 4.21889 12.0938 3.84389 11.9063 3.37514C11.3438 2.34389 14.0625 2.71889 14.625 2.81264Z" fill="#604845"/>
<path d="M21.6563 15.375L18.0937 14.5312C17.7187 15 17.8125 15.75 18 16.4062C18.0938 16.7812 18.1875 17.25 18.4688 17.625C18.8438 18.0937 19.5 18.1875 20.1562 18.0937C20.7188 18 21.2813 17.625 21.75 17.3438C22.5 16.875 23.3437 16.4063 23.8125 15.5625C23.1562 15.6563 22.3125 15.5625 21.6563 15.375Z" fill="#362826"/>
<path d="M15.4687 27.375L15.0938 27.75L16.5938 28.875L25.2187 20.3438L23.8125 18.5625L15.4687 27.375Z" fill="#9A4C18"/>
<path d="M25.4064 22.7814C25.1252 26.1564 22.0314 29.0627 18.4689 28.9689C15.0002 28.9689 12.8439 26.0627 13.5002 22.7814C14.1564 19.6877 17.0627 17.2502 20.1564 17.2502C23.2502 17.1564 25.5939 19.5939 25.4064 22.7814Z" fill="#9A4C18"/>
<path d="M26.2503 23.8125C25.9691 27 22.8753 29.8125 19.5003 29.7188C16.1253 29.7188 13.9691 27 14.6253 23.8125C15.1878 20.8125 18.0941 18.5625 21.1878 18.4688C24.1878 18.4688 26.5316 20.7187 26.2503 23.8125Z" fill="#9A4C18"/>
<path d="M16.4062 27.5625L17.8125 28.4062L24.8438 21L23.7187 19.5L16.4062 27.5625Z" fill="#F49937"/>
<path d="M25.5937 23.8125C25.3125 26.5312 22.7812 28.875 19.9687 28.875C17.1562 28.875 15.375 26.5312 15.8437 23.8125C16.3125 21.2812 18.75 19.2188 21.375 19.2188C23.9062 19.2188 25.7812 21.1875 25.5937 23.8125Z" fill="#F49937"/>
<path d="M24.6565 22.6876C24.3752 25.6876 21.6565 28.1251 18.5627 28.1251C15.5627 28.1251 13.594 25.5939 14.1565 22.7814C14.719 20.0626 17.2502 17.9064 20.0627 17.9064C22.7815 17.8126 24.844 19.8751 24.6565 22.6876Z" fill="#FFEDC0"/>
<path d="M24.2812 22.875C24 25.5937 21.4687 27.9375 18.6562 27.9375C15.8437 27.9375 14.0625 25.5937 14.5312 22.875C15 20.3437 17.4375 18.2812 20.0625 18.2812C22.5937 18.2812 24.4687 20.3437 24.2812 22.875Z" fill="#FFD766"/>
<path d="M23.1562 22.9687C22.9687 25.125 20.9999 26.9062 18.7499 26.8125C16.5937 26.8125 15.1874 25.0312 15.5624 22.9687C15.9374 21 17.8124 19.4062 19.8749 19.3125C21.8437 19.3125 23.3437 20.9062 23.1562 22.9687Z" fill="#FFEDC0"/>
<path d="M23.1562 22.4062C22.9687 24.4687 20.9999 26.25 18.8437 26.25C16.6874 26.25 15.2812 24.4687 15.6562 22.4062C16.0312 20.4375 17.9062 18.8438 19.8749 18.8438C21.9374 18.8438 23.4374 20.3437 23.1562 22.4062Z" fill="#F49937"/>
<path d="M22.4998 22.9687C22.3123 24.75 20.6248 26.25 18.8436 26.25C17.0623 26.25 15.8436 24.75 16.1248 22.9687C16.4061 21.2812 17.9998 19.875 19.7811 19.875C21.4686 19.875 22.6873 21.1875 22.4998 22.9687Z" fill="#FFD766"/>
<path d="M20.25 19.5L20.7187 21.4688L22.875 22.0313L20.9062 23.3438L20.7187 25.5938L19.0312 24.2813L16.6875 25.125L17.7187 22.9688L16.5938 21.2813H18.75L20.25 19.5Z" fill="#F49937"/>
</g>
<defs>
<clipPath id="clip0_1_17156">
<rect width="30" height="30" fill="white"/>
</clipPath>
</defs>
</svg>
