<svg width="30" height="30" viewBox="0 0 30 30" fill="none" xmlns="http://www.w3.org/2000/svg">
<g clip-path="url(#clip0_1_4180)">
<path d="M30 16.5938C30 13.5938 27.75 11.1562 25.0312 11.1562C24.9375 6.84375 21.6562 3.375 17.625 3.375C14.4375 3.375 11.8125 5.53125 10.7812 8.625C10.2188 7.6875 9.1875 7.125 8.0625 7.125C6.1875 7.125 4.78125 8.71875 4.78125 10.7812V11.1562C2.15625 11.4375 0.1875 13.875 0.1875 16.6875C0.1875 19.7812 2.53125 22.2188 5.34375 22.2188L25.0312 21.9375C27.75 22.0312 30 19.5938 30 16.5938Z" fill="#589AA5"/>
<path d="M30 15C30 12.4688 28.4062 10.3125 26.1562 9.75C25.5 9.5625 24.9375 9 24.8438 8.34375C24.1875 4.59375 21.1875 1.875 17.625 1.875C15.1875 1.875 13.0312 3.1875 11.625 5.25C11.1562 6 10.2188 6.28125 9.375 5.90625C9 5.71875 8.53125 5.625 8.0625 5.625C6.1875 5.625 4.6875 7.21875 4.6875 9.1875V9.5625C2.0625 9.84375 0.09375 12.2812 0.09375 15.0938C0.09375 18.1875 2.4375 20.625 5.25 20.625L24.9375 20.3438C27.75 20.4375 30 18 30 15Z" fill="#7BC9DB"/>
<path d="M28.6875 15.0938C28.6875 12.5625 26.625 10.5938 24.0938 10.5938C24 6.93751 21 4.03126 17.3438 4.12501C14.4375 4.12501 12 6.00001 11.0625 8.53126C10.5 7.78126 9.5625 7.21876 8.625 7.21876C7.03125 7.21876 5.625 8.53126 5.625 10.2188V10.5938C3.28125 10.875 1.40625 12.8438 1.40625 15.2813C1.40625 17.8125 3.5625 19.9688 6.09375 19.9688L24 19.7813C26.625 19.6875 28.6875 17.625 28.6875 15.0938Z" fill="#BAF2FF"/>
<path d="M26.9062 14.6249C26.9062 12.5624 25.125 10.8749 22.9688 10.8749C22.875 7.87493 20.25 5.43743 17.1562 5.53118C14.625 5.53118 12.5625 7.03118 11.7188 9.18743C11.25 8.53118 10.4062 8.15618 9.5625 8.15618C8.15625 8.15618 6.9375 9.28118 6.9375 10.6874V10.9687C4.875 11.1562 3.28125 12.8437 3.28125 14.8124C3.28125 16.9687 5.15625 18.6562 7.3125 18.6562L22.875 18.5624C25.125 18.3749 26.9062 16.6874 26.9062 14.6249Z" fill="#EBFCFF"/>
<path d="M21.2814 15.1875L22.8752 17.4375C22.8752 17.4375 25.2189 19.3125 25.3127 22.3125L21.4689 19.125L21.2814 15.1875ZM7.59391 23.3437C7.59391 23.3437 5.62516 23.5312 5.06266 21C4.50016 18.4687 7.68766 18.75 7.68766 18.75C7.68766 18.75 5.53141 19.7812 6.09391 21C6.75016 22.2187 7.59391 23.3437 7.59391 23.3437Z" fill="#996C42"/>
<path d="M7.21869 20.25C7.21869 20.25 4.87494 20.1563 5.06244 17.625C5.15619 15 7.96869 15.8438 7.96869 15.8438C7.96869 15.8438 5.62494 16.5938 6.09369 17.8125C6.56244 19.0313 7.21869 20.25 7.21869 20.25Z" fill="#996C42"/>
<path d="M7.59369 16.6875C7.59369 16.6875 5.24994 16.5938 5.43744 14.0625C5.53119 11.4375 8.34369 12.2813 8.34369 12.2813C8.34369 12.2813 5.99994 13.0313 6.46869 14.25C6.84369 15.4688 7.59369 16.6875 7.59369 16.6875Z" fill="#996C42"/>
<path d="M8.81242 13.4063C8.81242 13.4063 6.18742 14.1563 6.74992 10.3126C7.21867 7.68755 9.74992 8.43755 9.74992 8.43755C9.74992 8.43755 7.40617 9.18755 7.87492 10.4063L8.81242 13.4063ZM9.74992 22.6876C9.74992 22.6876 12.3749 24.8438 15.9374 25.7813C15.9374 25.7813 21.1874 26.4376 23.3437 24.5626C23.3437 24.5626 22.4999 27.7501 20.0624 27.8438C18.4687 27.9376 14.5312 27.2813 11.9062 26.7188C9.74992 26.3438 7.87492 24.9376 7.03117 22.8751C7.03117 22.7813 6.93742 22.7813 6.93742 22.6876H9.74992Z" fill="#996C42"/>
<path d="M6.28125 21.75C6.28125 21.75 7.96875 24.6562 8.71875 25.0312C9.375 25.4062 15.9375 28.0312 19.125 27.1875C22.3125 26.3437 24.1875 19.5937 24 19.3125C23.7188 19.0312 20.9062 16.5938 20.9062 16.5938C20.9062 16.5938 6.65625 20.0625 6.28125 21.75Z" fill="#996C42"/>
<path d="M5.8125 21.0938C5.8125 21.0938 6.28125 22.875 6.65625 22.9688C7.03125 23.0625 9.84375 23.25 9.84375 23.25C9.84375 23.25 12.0938 22.6875 12.6562 21.75C13.2188 20.8125 13.9688 20.625 14.0625 20.5312C14.1562 20.4375 15.4688 18 15.4688 18L15 12.8437L10.4063 12.2812L5.8125 21.0938Z" fill="#996C42"/>
<path d="M7.96875 22.6875C7.96875 22.6875 10.5 22.9688 11.0625 22.6875C11.625 22.4063 11.9062 21.9375 11.9062 21.4687C11.9062 21 11.9062 20.25 10.5 20.25C9.09375 20.25 6.5625 19.6875 6.5625 19.6875C6.5625 19.6875 5.625 20.1563 5.625 20.8125C5.625 21.4688 5.71875 23.0625 7.96875 22.6875Z" fill="#996C42"/>
<path d="M7.96875 22.4062C7.96875 22.4062 10.5 22.6875 11.0625 22.4062C11.625 22.2187 11.9062 21.6562 11.9062 21.1875C11.9062 20.7187 11.9062 19.9687 10.5 19.9687C9.09375 19.9687 6.5625 19.4062 6.5625 19.4062C6.5625 19.4062 5.625 19.875 5.625 20.5312C5.625 21.1875 5.71875 22.7812 7.96875 22.4062Z" fill="#996C42"/>
<path d="M8.06285 19.5937C8.06285 19.5937 11.0628 20.25 11.8128 20.0625C12.5628 19.875 12.9378 19.3125 13.0316 18.8438C13.1253 18.375 13.3128 17.5312 11.5316 17.25C9.8441 16.9687 6.8441 15.9375 6.8441 15.9375C6.8441 15.9375 5.62535 16.4062 5.5316 17.1562C5.43785 17.9062 5.25035 19.6875 8.06285 19.5937Z" fill="#996C42"/>
<path d="M8.1566 19.2187C8.1566 19.2187 11.1566 19.875 11.9066 19.6875C12.5628 19.5 13.0316 18.9375 13.1253 18.4688C13.2191 18 13.4066 17.1562 11.6253 16.875C9.93785 16.5937 6.93785 15.5625 6.93785 15.5625C6.93785 15.5625 5.7191 16.0312 5.62535 16.7812C5.5316 17.5312 5.3441 19.3125 8.1566 19.2187Z" fill="#996C42"/>
<path d="M8.43753 16.4063C8.43753 16.4063 11.625 17.4375 12.375 17.3438C13.125 17.25 13.6875 16.5938 13.6875 16.0313C13.7813 15.4688 14.0625 14.5313 12.2813 14.0625C10.5 13.5938 7.40628 12.1875 7.40628 12.1875C7.40628 12.1875 6.09378 12.5625 5.90628 13.4063C5.71878 14.25 5.53128 16.3125 8.43753 16.4063Z" fill="#996C42"/>
<path d="M8.62505 16.0313C8.62505 16.0313 11.8125 17.0625 12.5625 16.9688C13.3125 16.875 13.875 16.2188 13.875 15.6563C13.9688 15.0938 14.25 14.1563 12.4688 13.6875C10.6875 13.2188 7.5938 11.8125 7.5938 11.8125C7.5938 11.8125 6.2813 12.1875 6.0938 13.0312C5.9063 13.7812 5.62505 15.8438 8.62505 16.0313Z" fill="#996C42"/>
<path d="M12.2816 7.875C12.2816 7.875 8.43785 7.96875 7.87535 8.53125C7.31285 9.09375 6.6566 11.0625 8.43785 12.1875C10.2191 13.3125 13.7816 13.7813 14.9066 13.5938C14.9066 13.5938 16.3128 12.4688 15.4691 11.5313C14.6253 10.6875 12.2816 7.875 12.2816 7.875Z" fill="#996C42"/>
<path d="M12.9377 7.12503L8.43772 11.3438C8.43772 11.3438 8.06272 12.6563 8.71897 12.9375C9.37522 13.2188 11.8127 15 14.4377 11.25L16.4065 8.81253C16.4065 8.81253 13.6877 6.65628 12.9377 7.12503Z" fill="#996C42"/>
<path d="M12.9375 10.3125C12.9375 10.3125 14.0625 11.25 13.9687 12.375C13.875 13.5 13.9688 18.0938 14.8125 18.8438C15.6563 19.5938 16.7812 20.7187 18.6562 20.4375C20.5312 20.1562 21.9375 19.4062 21.8438 18.6562C21.75 17.9062 20.3438 13.7812 20.3438 13.7812C20.3438 13.7812 19.4063 10.6875 18.2812 9.9375L14.9062 7.78125L12.9375 10.3125Z" fill="#996C42"/>
<path d="M13.7815 25.6875L17.719 27.75C20.2502 29.0625 23.344 28.125 24.7502 25.7813C26.4377 22.9688 25.219 19.4063 22.3127 18.0938L18.844 16.5938L13.7815 25.6875ZM12.469 6.28128L7.96897 10.5C7.96897 10.5 7.59397 11.8125 8.25022 12.0938C8.90647 12.375 11.344 14.1563 13.969 10.4063L15.9377 7.96878C16.0315 7.96878 13.219 5.81253 12.469 6.28128Z" fill="#996C42"/>
<path d="M12.9377 6.46888L8.43772 10.7814C8.43772 10.7814 8.06272 12.0939 8.71897 12.3751C9.37522 12.6564 11.8127 14.4376 14.4377 10.6876L16.5002 8.06263C16.5002 8.06263 13.6877 6.09388 12.9377 6.46888Z" fill="#996C42"/>
<path d="M13.7812 10.0312C13.7812 10.0312 14.9063 10.9687 14.8125 12.0937C14.7188 13.2187 14.8125 17.8125 15.6563 18.5625C16.5 19.3125 17.625 20.4375 19.5 20.1562C21.375 19.7812 22.7812 19.125 22.6875 18.375C22.5938 17.625 21.1875 13.5 21.1875 13.5C21.1875 13.5 20.25 10.4063 19.125 9.65625L15.6563 7.5L13.7812 10.0312Z" fill="#996C42"/>
<path d="M12.8438 25.125L16.7812 27.1875C19.3125 28.5 22.4062 27.5625 23.8125 25.2187C25.5 22.4062 24.2812 18.8438 21.375 17.5313L17.9063 16.0312L12.8438 25.125Z" fill="#996C42"/>
<path d="M5.90625 21.2812C5.90625 21.2812 7.40625 23.9062 8.0625 24.1875C8.71875 24.5625 14.625 26.9062 17.5313 26.1562C20.4375 25.4062 22.125 19.3125 21.9375 19.0312C21.75 18.75 19.125 16.5938 19.125 16.5938C19.125 16.5938 6.28125 19.6875 5.90625 21.2812Z" fill="#996C42"/>
<path d="M5.53125 20.625C5.53125 20.625 6 22.2187 6.28125 22.3125C6.5625 22.4062 9.1875 22.5938 9.1875 22.5938C9.1875 22.5938 11.1563 22.125 11.7188 21.2812C12.2813 20.4375 12.8438 20.25 13.0312 20.25C13.125 20.1562 14.3438 17.9062 14.3438 17.9062L13.9688 13.2188L9.84375 12.6562L5.53125 20.625Z" fill="#996C42"/>
<path d="M7.40625 22.125C7.40625 22.125 9.75 22.3125 10.2188 22.125C10.6875 21.9375 10.9688 21.4687 10.9688 21.0937C10.9688 20.7187 10.9688 20.0625 9.75 19.9687C8.4375 19.9687 6.1875 19.4062 6.1875 19.4062C6.1875 19.4062 5.34375 19.875 5.34375 20.4375C5.34375 21 5.4375 22.4062 7.40625 22.125Z" fill="#996C42"/>
<path d="M7.50009 21.75C7.50009 21.75 9.84384 21.9375 10.3126 21.75C10.7813 21.5625 11.0626 21.0938 11.0626 20.7188C11.0626 20.3438 11.0626 19.6875 9.84384 19.5938C8.53134 19.5938 6.28134 19.0312 6.28134 19.0312C6.28134 19.0312 5.43759 19.5 5.43759 20.0625C5.34384 20.7188 5.43759 22.125 7.50009 21.75Z" fill="#996C42"/>
<path d="M7.5003 19.3125C7.5003 19.3125 10.219 19.875 10.8753 19.7812C11.5315 19.6875 11.9065 19.125 11.9065 18.6562C11.9065 18.1875 12.094 17.4375 10.594 17.25C9.09405 17.0625 6.3753 16.125 6.3753 16.125C6.3753 16.125 5.34405 16.5 5.15655 17.1562C4.96905 17.8125 5.0628 19.4062 7.5003 19.3125Z" fill="#996C42"/>
<path d="M7.5937 18.9375C7.5937 18.9375 10.3125 19.5 10.9687 19.4062C11.625 19.2188 12 18.75 12 18.2812C12 17.8125 12.1875 17.0625 10.6875 16.875C9.18745 16.6875 6.56245 15.6562 6.56245 15.6562C6.56245 15.6562 5.5312 16.0312 5.3437 16.6875C5.24995 17.3437 5.1562 19.0312 7.5937 18.9375Z" fill="#996C42"/>
<path d="M7.87514 16.4063C7.87514 16.4063 10.7814 17.3438 11.4376 17.25C12.0939 17.1563 12.5626 16.5938 12.6564 16.0313C12.7501 15.5625 13.0314 14.7188 11.3439 14.25C9.6564 13.875 6.93764 12.5625 6.93764 12.5625C6.93764 12.5625 5.81264 12.9375 5.62514 13.6875C5.43764 14.4375 5.25014 16.3125 7.87514 16.4063Z" fill="#996C42"/>
<path d="M7.96879 16.0313C7.96879 16.0313 10.875 16.9688 11.5313 16.875C12.1875 16.7813 12.6563 16.2188 12.75 15.6563C12.8438 15.1875 13.125 14.3438 11.4375 13.875C9.75004 13.5 7.03129 12.1875 7.03129 12.1875C7.03129 12.1875 5.81254 12.5625 5.71879 13.3125C5.62504 14.0625 5.34379 15.9375 7.96879 16.0313Z" fill="#996C42"/>
<path d="M11.3441 8.71875C11.3441 8.71875 7.87538 8.8125 7.31288 9.28125C6.75038 9.84375 6.18788 11.5312 7.78163 12.5625C9.37538 13.5937 12.6566 13.9687 13.5941 13.875C13.5941 13.875 14.8129 12.8437 14.0629 12L11.3441 8.71875Z" fill="#996C42"/>
<path d="M11.9065 7.9687L7.78147 11.8124C7.78147 11.8124 7.40647 13.0312 8.06272 13.2187C8.71897 13.4062 10.8752 15.0937 13.219 11.7187L15.0002 9.4687C15.094 9.56245 12.6565 7.5937 11.9065 7.9687Z" fill="#996C42"/>
<path d="M11.9062 10.875C11.9062 10.875 12.9375 11.7188 12.8438 12.75C12.75 13.7812 12.8438 17.9062 13.5938 18.6562C14.3438 19.3125 15.375 20.3437 17.0625 20.0625C18.75 19.7812 19.9688 19.125 19.875 18.4688C19.7813 17.8125 18.5625 14.0625 18.5625 14.0625C18.5625 14.0625 17.7187 11.25 16.6875 10.5938L13.6875 8.625L11.9062 10.875Z" fill="#996C42"/>
<path d="M11.5314 7.2187L7.12516 11.0624C7.12516 11.0624 6.37516 12.6562 7.03141 12.8437C7.68766 13.0312 10.5002 14.3437 12.9377 10.9687L14.7189 8.7187C14.7189 8.81245 12.2814 6.8437 11.5314 7.2187Z" fill="#996C42"/>
<path d="M12.0002 7.50003L7.87522 11.3438C7.87522 11.3438 7.50022 12.5625 8.15647 12.75C8.81272 12.9375 10.969 14.625 13.3127 11.25L15.094 9.00003C15.094 9.00003 12.6565 7.12503 12.0002 7.50003Z" fill="#996C42"/>
<path d="M12.5625 10.7812C12.5625 10.7812 13.5938 11.625 13.5 12.6562C13.4062 13.6875 13.5 17.8125 14.25 18.5625C15 19.2187 16.0312 20.25 17.7188 19.9687C19.4062 19.6875 20.625 19.0312 20.5312 18.375C20.4375 17.7188 19.2188 13.9687 19.2188 13.9687C19.2188 13.9687 18.375 11.1562 17.3438 10.5L14.25 8.4375L12.5625 10.7812Z" fill="#996C42"/>
<path d="M12.75 24.6562L16.3125 26.5312C18.5625 27.75 21.375 26.9062 22.6875 24.75C24.1875 22.2187 23.1562 19.0312 20.4375 17.8125L17.3437 16.5L12.75 24.6562Z" fill="#996C42"/>
<path d="M7.125 21.2812C7.125 21.2812 8.625 23.9062 9.28125 24.1875C9.9375 24.5625 15.8438 26.9062 18.75 26.1562C21.6562 25.4062 23.3438 19.3125 23.1562 19.0312C22.9688 18.75 20.3438 16.5938 20.3438 16.5938C20.3438 16.5938 7.59375 19.6875 7.125 21.2812Z" fill="#F4BBA2"/>
<path d="M6.84375 20.625C6.84375 20.625 7.3125 22.2187 7.59375 22.3125C7.875 22.4062 10.5 22.5938 10.5 22.5938C10.5 22.5938 12.4688 22.125 13.0312 21.2812C13.5938 20.4375 14.1563 20.25 14.3438 20.25C14.4375 20.1562 15.6563 17.9062 15.6563 17.9062L15.2812 13.2188L11.1562 12.6562L6.84375 20.625Z" fill="#996C42"/>
<path d="M8.71875 22.125C8.71875 22.125 11.0625 22.3125 11.5312 22.125C12 21.9375 12.2813 21.4687 12.2813 21.0937C12.2813 20.7187 12.2812 20.0625 11.0625 19.9687C9.75 19.9687 7.5 19.4062 7.5 19.4062C7.5 19.4062 6.5625 19.875 6.5625 20.4375C6.5625 21 6.65625 22.4062 8.71875 22.125Z" fill="#996C42"/>
<path d="M8.71875 21.75C8.71875 21.75 11.0625 21.9375 11.5312 21.75C12 21.5625 12.2813 21.0938 12.2813 20.7188C12.2813 20.3438 12.2812 19.6875 11.0625 19.5938C9.75 19.5938 7.5 19.0312 7.5 19.0312C7.5 19.0312 6.5625 19.5938 6.5625 20.1563C6.5625 20.7188 6.65625 22.125 8.71875 21.75Z" fill="#F4BBA2"/>
<path d="M8.81263 19.3125C8.81263 19.3125 11.5314 19.875 12.1876 19.7812C12.8439 19.6875 13.2189 19.125 13.2189 18.6562C13.2189 18.1875 13.4064 17.4375 11.9064 17.25C10.4064 17.0625 7.68763 16.125 7.68763 16.125C7.68763 16.125 6.65638 16.4062 6.56263 17.0625C6.46888 17.7188 6.28138 19.4062 8.81263 19.3125Z" fill="#996C42"/>
<path d="M8.90644 18.9375C8.90644 18.9375 11.6252 19.5 12.2814 19.4063C12.9377 19.2188 13.3127 18.75 13.3127 18.2813C13.3127 17.8125 13.5002 17.0625 12.0002 16.875C10.5002 16.6875 7.78144 15.75 7.78144 15.75C7.78144 15.75 6.75019 16.125 6.56269 16.7813C6.56269 17.3438 6.37519 19.0313 8.90644 18.9375Z" fill="#F4BBA2"/>
<path d="M9.18733 16.4063C9.18733 16.4063 12.0936 17.3438 12.7498 17.25C13.4061 17.1563 13.8748 16.5938 13.9686 16.0313C14.0623 15.5625 14.3436 14.7188 12.6561 14.25C10.9686 13.875 8.24983 12.5625 8.24983 12.5625C8.24983 12.5625 7.03108 12.9375 6.93733 13.6875C6.74983 14.4375 6.46858 16.3125 9.18733 16.4063Z" fill="#996C42"/>
<path d="M9.28108 16.0313C9.28108 16.0313 12.1873 16.9688 12.8436 16.875C13.4998 16.7813 13.9686 16.2188 14.0623 15.6563C14.1561 15.1875 14.4373 14.3438 12.7498 13.875C11.0623 13.5 8.34358 12.1875 8.34358 12.1875C8.34358 12.1875 7.12483 12.5625 7.03108 13.3125C6.84358 14.0625 6.56233 15.9375 9.28108 16.0313Z" fill="#F4BBA2"/>
<path d="M12.6561 8.71875C12.6561 8.71875 9.18739 8.8125 8.62489 9.28125C8.06239 9.84375 7.49989 11.5312 9.09364 12.5625C10.6874 13.5937 13.9686 13.9687 14.9061 13.875C14.9061 13.875 16.1249 12.8437 15.3749 12L12.6561 8.71875Z" fill="#F4BBA2"/>
<path d="M13.219 7.9687L9.09397 11.8124C9.09397 11.8124 8.71897 13.0312 9.37522 13.2187C10.0315 13.4062 12.1877 15.0937 14.5315 11.7187L16.3127 9.4687C16.3127 9.56245 13.8752 7.5937 13.219 7.9687Z" fill="#996C42"/>
<path d="M13.2188 10.875C13.2188 10.875 14.25 11.7188 14.1562 12.75C14.0625 13.7812 14.1562 17.9062 14.9062 18.6562C15.6562 19.3125 16.6875 20.3437 18.375 20.0625C20.0625 19.7812 21.2812 19.125 21.1875 18.4688C21.0938 17.8125 19.875 14.0625 19.875 14.0625C19.875 14.0625 19.0313 11.25 18 10.5938L15 8.625L13.2188 10.875Z" fill="#996C42"/>
<path d="M13.9688 24.75L17.5312 26.625C19.7812 27.8438 22.5938 27 23.9062 24.8438C25.4062 22.3125 24.375 19.125 21.6562 17.9062L18.5625 16.5938L13.9688 24.75Z" fill="#996C42"/>
<path d="M12.844 7.21864L8.71897 11.0624C8.71897 11.0624 8.34397 12.2811 9.00022 12.4686C9.65647 12.6561 11.8127 14.3436 14.1565 10.9686L15.9377 8.81239C15.9377 8.81239 13.5002 6.84364 12.844 7.21864Z" fill="#996C42"/>
<path d="M13.219 7.50003L9.09397 11.3438C9.09397 11.3438 8.71897 12.5625 9.37522 12.75C10.0315 12.9375 12.1877 14.625 14.5315 11.25L16.3127 9.00003C16.4065 9.00003 13.8752 7.12503 13.219 7.50003Z" fill="#F4BBA2"/>
<path d="M13.7812 10.7812C13.7812 10.7812 14.8125 11.625 14.7188 12.6562C14.625 13.6875 14.7188 17.8125 15.4688 18.5625C16.2188 19.2187 17.25 20.25 18.9375 19.9687C20.625 19.6875 21.8438 19.0312 21.75 18.375C21.6563 17.7188 20.4375 13.9687 20.4375 13.9687C20.4375 13.9687 19.5937 11.1562 18.5625 10.5L15.4688 8.4375L13.7812 10.7812Z" fill="#F4BBA2"/>
<path d="M13.6875 24.375L17.25 26.25C19.5 27.4688 22.3125 26.625 23.625 24.4688C25.125 21.9375 24.0937 18.75 21.375 17.5312L18.2812 16.2188L13.6875 24.375Z" fill="#F4BBA2"/>
<path d="M9.9375 22.2188C9.9375 22.2188 12.5625 24.375 16.125 25.3125C16.125 25.3125 21.5625 25.9687 23.7187 24.1875C23.7187 24.1875 22.6875 27.2812 20.25 27.4687C18.6562 27.5625 14.7187 26.9062 12.0937 26.3437C9.9375 25.9687 8.0625 24.5625 7.21875 22.5C7.21875 22.4062 7.125 22.4062 7.125 22.3125L9.9375 22.2188Z" fill="#E2AF81"/>
<path d="M13.0312 8.43754L10.3125 10.9688C10.3125 10.9688 10.125 11.8125 10.5 11.9063C10.875 12 12.375 13.125 13.9687 10.875L15.1875 9.37504C15.1875 9.46879 13.5 8.15629 13.0312 8.43754ZM9.65625 15.4688C9.65625 15.4688 11.3437 16.0313 11.7187 15.9375C12.0937 15.8438 12.375 15.5625 12.4688 15.2813C12.4688 15 12.6562 14.5313 11.7187 14.25C10.7812 13.9688 9.1875 13.3125 9.1875 13.3125C9.1875 13.3125 8.4375 13.5 8.34375 13.875C8.25 14.25 8.15625 15.375 9.65625 15.4688ZM9.28125 18.6563C9.28125 18.6563 10.875 18.8438 11.25 18.75C11.625 18.6563 11.8125 18.2813 11.8125 18C11.8125 17.7188 11.9062 17.25 10.9687 17.1563C10.0312 17.0625 8.4375 16.6875 8.4375 16.6875C8.4375 16.6875 7.875 16.9688 7.78125 17.3438C7.78125 17.8125 7.875 18.8438 9.28125 18.6563ZM9 21.1875C9 21.1875 10.5 21.375 10.875 21.2813C11.25 21.1875 11.3438 20.8125 11.3438 20.625C11.3438 20.4375 11.4375 19.9688 10.5 19.875C9.5625 19.7813 8.15625 19.4063 8.15625 19.4063C8.15625 19.4063 7.59375 19.6875 7.59375 20.0625C7.59375 20.4375 7.59375 21.375 9 21.1875ZM15.75 12C15.75 12 15.75 16.5938 16.4062 17.625C17.0625 18.6563 19.9688 18.2813 20.3438 17.7188C20.625 17.1563 18.8438 12.375 18.8438 12.375C18.8438 12.375 17.7187 11.1563 15.75 12Z" fill="#FFE1CA"/>
<path d="M8.0625 22.125C8.0625 22.125 9.9375 25.5937 13.875 26.0625C17.8125 26.5312 21.1875 27.375 22.9688 25.6875L23.1562 25.7812C23.1562 25.7812 22.0313 28.0313 19.3125 27.8438C16.5938 27.6563 11.25 26.7187 11.25 26.7187C11.25 26.7187 7.3125 24.75 6.75 22.125H8.0625Z" fill="#996C42"/>
<path d="M6.84375 22.875C6.84375 22.875 8.71875 24 11.9062 22.0312H6.84375V22.875ZM13.6875 12.4688L13.5 13.9687L14.625 14.25L14.3438 12.0938L13.6875 12.4688ZM13.6875 19.5937C13.6875 19.5937 15.375 20.3438 17.3438 20.1562C17.3438 20.1562 15.1875 18.4688 14.5312 16.9688L13.6875 19.5937Z" fill="#996C42"/>
<path d="M14.4374 19.5C14.4374 19.5 14.9062 23.25 9.18742 24.375L8.53117 22.875C8.53117 22.875 11.2499 23.0625 12.5624 21.375L14.4374 19.5ZM8.71867 11.0625C8.71867 11.0625 7.68742 13.5937 9.65617 14.25C11.5312 14.9062 13.1249 13.7812 13.9687 13.0312L13.6874 12.75C13.6874 12.75 12.0937 13.875 10.1249 13.3125C8.15617 12.75 9.18742 11.0625 9.18742 11.0625H8.71867Z" fill="#996C42"/>
</g>
<defs>
<clipPath id="clip0_1_4180">
<rect width="30" height="30" fill="white"/>
</clipPath>
</defs>
</svg>
