<svg width="30" height="30" viewBox="0 0 30 30" fill="none" xmlns="http://www.w3.org/2000/svg">
<g clip-path="url(#clip0_1_11147)">
<path d="M6.9375 6.75L6.75 4.40625L8.625 2.4375L9.65625 4.78125L6.9375 6.75Z" fill="#4E6178"/>
<path d="M14.531 28.5C5.53103 21.375 5.90603 15.8438 5.90603 15.6563L7.03103 4.875H8.06228C11.3435 4.875 16.4998 2.8125 17.2498 2.53125L17.3435 2.4375H17.4373L17.531 2.34375L17.7185 2.4375C17.8123 2.4375 23.6248 6.5625 26.906 6.84375H27.281L26.0623 17.625C26.0623 17.9062 25.1248 23.3438 14.906 28.3125H14.8123L14.531 28.5Z" fill="#4E6178"/>
<path d="M17.4375 2.90625C17.4375 2.90625 23.3437 7.03125 26.7187 7.40625L25.5937 17.8125C25.5937 17.8125 24.75 23.25 14.625 28.125C5.8125 21.1875 6.1875 15.6563 6.1875 15.6563L7.40625 5.25H8.15625C11.625 5.34375 17.3437 3 17.4375 2.90625ZM17.5312 2.0625L17.3437 2.15625H17.25L17.0625 2.25C16.4062 2.53125 11.25 4.59375 8.0625 4.59375H7.40625L6.75 4.5L6.65625 5.15625L5.53125 15.5625C5.53125 15.8438 5.25 21.5625 14.25 28.6875L14.4375 28.7812H14.8125L15 28.6875C25.3125 23.8125 26.3437 18.1875 26.3437 17.9062L27.4687 7.5L27.5625 6.75L26.8125 6.65625C23.625 6.28125 17.9062 2.34375 17.8125 2.25L17.5312 2.0625Z" fill="#4E6178"/>
<path d="M16.406 26.4375L16.3123 26.3438C7.40603 19.3125 7.68728 13.7813 7.78103 13.5L8.90603 2.8125H9.93728C13.406 2.8125 18.9373 0.5625 19.1248 0.46875L19.3123 0.375L19.4998 0.46875C19.5935 0.46875 25.406 4.59375 28.6873 4.875H29.0623L27.8435 15.6563C27.8435 15.9375 26.906 21.375 16.6873 26.3438H16.406V26.4375Z" fill="#A4AFB2"/>
<path d="M19.3125 0.84375C19.3125 0.84375 25.2187 4.96875 28.5937 5.34375L27.4687 15.75C27.4687 15.75 26.625 21.1875 16.5 26.0625C7.6875 19.125 8.0625 13.5938 8.0625 13.5938L9.28125 3.1875H10.0312C13.5 3.1875 19.2187 0.9375 19.3125 0.84375ZM19.4062 0L19.2187 0.09375H19.125L18.9375 0.1875C18.1875 0.46875 13.0312 2.53125 9.9375 2.53125H9.28125L8.625 2.34375L8.53125 3.09375L7.40625 13.5C7.40625 13.7812 7.125 19.5 16.125 26.625L16.3125 26.7188H16.6875L16.875 26.625C27.2812 21.6562 28.2187 15.9375 28.2187 15.75L29.3437 5.34375L29.4375 4.6875L28.6875 4.59375C25.5 4.21875 19.7812 0.28125 19.6875 0.1875L19.4062 0Z" fill="#4E6178"/>
<path d="M19.3125 0.84375L16.5 26.0625H16.5938C26.7188 21.1875 27.5625 15.75 27.5625 15.75L28.6875 5.34375C25.3125 4.96875 19.3125 0.84375 19.3125 0.84375Z" fill="#C1D6DB"/>
<path d="M19.1251 2.625C18.9376 2.71875 13.4063 4.96875 10.5001 4.6875L9.5626 13.5938C9.5626 13.5938 9.1876 18.2812 16.7813 24.2812C25.5001 20.0625 26.1563 15.375 26.1563 15.375L27.0938 6.46875C24.1876 6.1875 19.3126 2.71875 19.1251 2.625Z" fill="#FFE9BD"/>
<path d="M19.0314 3.5625C18.9376 3.65625 13.7814 5.71875 11.0626 5.4375L10.1251 13.5937C10.1251 13.5937 9.84387 17.9062 16.7814 23.4375C24.7501 19.5938 25.4064 15.2812 25.4064 15.2812L26.3439 7.125C23.7189 6.75 19.1251 3.5625 19.0314 3.5625Z" fill="url(#paint0_linear_1_11147)"/>
<path opacity="0.67" d="M19.0312 3.09375L16.5938 23.9062C16.5938 23.9062 24.0937 20.4375 25.5937 16.2187L26.0625 13.875L26.7187 6.84375C26.7187 6.84375 22.0312 5.25 18.75 3.09375" fill="#FFE9BD"/>
<path d="M19.5938 5.4375L17.7188 20.8125C17.7188 20.8125 23.5312 18.9375 24.2812 14.8125C25.0312 10.6875 25.125 7.96875 25.125 7.96875L19.5938 5.4375Z" fill="#FFF6E6"/>
<path d="M4.6875 12.9375L5.34375 11.4375L7.3125 13.9687L4.6875 12.9375Z" fill="#4E6178"/>
<path d="M13.7814 22.3129L11.1564 18.7504C11.6251 17.0629 11.2501 15.1879 10.0314 13.8754C8.90636 12.6566 7.21886 12.0004 5.62511 12.1879C5.25011 12.1879 4.96886 12.4691 4.87511 12.8441C4.78136 13.2191 4.78136 13.5941 5.06261 13.7816L6.37511 15.1879C6.46886 15.2816 6.46886 15.4691 6.37511 15.6566L4.59386 17.2504C4.50011 17.3441 4.31261 17.3441 4.12511 17.2504L2.90636 15.8441C2.62511 15.5629 2.25011 15.4691 1.96886 15.5629C1.59386 15.6566 1.40636 15.9379 1.31261 16.3129C0.937612 18.0004 1.50011 19.7816 2.71886 21.0004C3.84386 22.1254 5.53136 22.6879 7.12511 22.4066L10.5939 25.5004C10.4064 26.6254 10.6876 27.8441 11.5314 28.6879C12.9376 30.2816 15.3751 30.3754 16.9689 28.9691C18.5626 27.5629 18.6564 25.1254 17.2501 23.5316C16.2189 22.6879 15.0001 22.2191 13.7814 22.3129Z" fill="#4E6178"/>
<path d="M14.1564 21.1879L11.5314 17.6254C12.0001 15.9379 11.6251 14.0629 10.4064 12.7504C9.28136 11.5316 7.59386 10.8754 6.00011 11.0629C5.62511 11.0629 5.34386 11.3441 5.25011 11.7191C5.15636 12.0941 5.15636 12.4691 5.43761 12.6566L6.65636 14.0629C6.75011 14.1566 6.75011 14.3441 6.65636 14.5316L4.87511 16.1254C4.78136 16.2191 4.59386 16.2191 4.40636 16.1254L3.18761 14.7191C2.90636 14.4379 2.53136 14.3441 2.25011 14.4379C1.87511 14.5316 1.68761 14.8129 1.59386 15.1879C1.21886 16.8754 1.78136 18.6566 3.00011 19.8754C4.12511 21.0004 5.81261 21.5629 7.40636 21.2816L10.8751 24.3754C10.6876 25.5004 10.9689 26.7191 11.8126 27.5629C13.2189 29.1566 15.6564 29.2504 17.2501 27.8441C18.8439 26.4379 18.9376 24.0004 17.5314 22.4066C16.5939 21.4691 15.3751 21.0004 14.1564 21.1879Z" fill="#4E6178"/>
<path d="M13.9689 21.7499L10.9689 17.6249C11.5314 16.1249 11.2501 14.3437 10.0314 13.0312C9.00014 11.9062 7.50014 11.4374 6.09389 11.5312C5.81264 11.5312 5.71889 11.9062 5.90639 12.0937L7.21889 13.4999C7.59389 13.8749 7.50014 14.4374 7.12514 14.8124L5.34389 16.4062C4.96889 16.7812 4.40639 16.6874 4.03139 16.3124L2.81264 15.0937C2.62514 14.9062 2.25014 14.9999 2.25014 15.2812C1.96889 16.6874 2.34389 18.2812 3.46889 19.4062C4.59389 20.5312 6.18764 20.9062 7.59389 20.6249L11.5314 24.0937C11.2501 25.1249 11.4376 26.2499 12.2814 27.0937C13.5001 28.4062 15.4689 28.4999 16.8751 27.2812C18.1876 26.0624 18.2814 24.0937 17.0626 22.6874C16.2189 21.8437 15.0001 21.5624 13.9689 21.7499Z" fill="#C8D8E3"/>
<path opacity="0.3" d="M14.1562 21.8435L10.0312 17.3435C10.5 16.031 10.2187 14.531 9.28125 13.4997C8.4375 12.5622 7.21875 12.0935 6 12.281C5.8125 12.281 5.71875 12.5622 5.8125 12.7497L6.84375 13.9685C7.125 14.2497 7.125 14.8122 6.75 15.0935L5.25 16.4997C4.96875 16.781 4.40625 16.781 4.125 16.406L3.09375 15.281C2.90625 15.0935 2.625 15.1872 2.625 15.3747C2.4375 16.4997 2.8125 17.8122 3.75 18.7497C4.6875 19.6872 6 20.0622 7.21875 19.781L12.0938 23.8122C11.8125 24.656 12 25.6872 12.6562 26.3435C13.6875 27.4685 15.375 27.5622 16.5 26.531C17.625 25.4997 17.7187 23.8122 16.6875 22.6872C16.0312 21.9372 15.0938 21.656 14.1562 21.8435Z" fill="#8293AB"/>
<path d="M14.9062 25.5C15.5276 25.5 16.0313 24.9963 16.0313 24.375C16.0313 23.7537 15.5276 23.25 14.9062 23.25C14.2849 23.25 13.7812 23.7537 13.7812 24.375C13.7812 24.9963 14.2849 25.5 14.9062 25.5Z" fill="#4E6178"/>
<path d="M8.7186 18.75L9.0936 18.375C9.2811 18.1875 9.56235 18.1875 9.74985 18.375L12.7499 21.6563C12.9374 21.8438 12.8436 22.125 12.6561 22.3125C12.4686 22.4062 12.2811 22.4062 12.0936 22.3125L8.7186 19.4063C8.62485 19.2188 8.5311 18.9375 8.7186 18.75Z" fill="#CEDCEA"/>
<path d="M2.4375 15.4688L7.21875 20.0625C7.21875 20.1562 2.8125 21 2.4375 15.4688Z" fill="#C8D8E3"/>
</g>
<defs>
<linearGradient id="paint0_linear_1_11147" x1="15.9955" y1="25.5873" x2="19.6665" y2="1.17469" gradientUnits="userSpaceOnUse">
<stop stop-color="#FFA750"/>
<stop offset="1" stop-color="#FFDA58"/>
</linearGradient>
<clipPath id="clip0_1_11147">
<rect width="30" height="30" fill="white"/>
</clipPath>
</defs>
</svg>
