<svg width="30" height="30" viewBox="0 0 30 30" fill="none" xmlns="http://www.w3.org/2000/svg">
<g clip-path="url(#clip0_1_11391)">
<path d="M29.9999 11.7187C29.9999 2.71874 22.5936 3.37499 22.5936 3.37499C22.5936 3.37499 18.2811 3.28124 15.1874 6.65624C12.4686 3.18749 8.43739 3.28124 8.43739 3.28124C8.43739 3.28124 1.12489 2.53124 0.28114 11.5312C-0.56261 20.7187 13.6874 27.6562 14.5311 28.2187C15.5624 27.8437 29.9999 21 29.9999 11.7187Z" fill="#4F1919"/>
<path d="M29.8124 10.7812C29.9061 2.90624 22.3124 2.43749 22.3124 2.43749C22.3124 2.43749 17.9999 1.87499 14.9061 5.34374C12.1874 1.87499 8.15614 1.96874 8.15614 1.96874C8.15614 1.96874 0.84364 1.21874 -0.000109877 10.2187C-0.84386 19.4062 13.4061 26.3437 14.2499 26.9062C15.1874 26.4375 29.8124 19.9687 29.8124 10.7812Z" fill="#960F0F"/>
<path d="M28.0313 10.5C28.0313 6.65625 26.3438 4.96875 24.7501 4.125C23.1563 3.375 21.3751 3.375 19.7813 4.03125C18.4688 4.59375 16.5001 5.53125 14.9063 7.21875C13.5938 5.625 12.0001 4.6875 10.6876 4.125C8.71883 3.28125 6.46883 3.28125 4.68758 4.40625C3.18758 5.34375 1.68758 7.125 1.40633 10.4062C0.656331 18.1875 13.4063 24.0937 14.1563 24.5625C15.0001 24.0937 28.0313 18.2812 28.0313 10.5Z" fill="#DD4545"/>
<path d="M23.0624 10.5C23.0624 7.68751 21.8437 6.37501 20.6249 5.81251C19.4999 5.25001 18.0937 5.25001 16.9687 5.71876C15.9374 6.09376 14.5312 6.84376 13.3124 8.06251C12.3749 6.93751 11.1562 6.18751 10.2187 5.81251C8.81241 5.15626 7.12491 5.15626 5.71866 6.00001C4.59366 6.65626 3.56241 7.96876 3.28116 10.5C2.81241 16.2188 12.1874 20.625 12.8437 21C13.4062 20.625 23.0624 16.3125 23.0624 10.5Z" fill="#F96464"/>
<path d="M20.9999 17.25C19.5937 17.8125 18.2812 17.625 17.4374 17.1563C16.5937 16.6875 15.7499 15.5625 15.5624 14.0625C15.0937 10.5 18.2812 2.06253 24.1874 5.53128C30.0937 9.00003 24.3749 15.9375 20.9999 17.25Z" fill="#FFB3B3"/>
<path d="M12.8438 26.1562C12.8438 26.1562 24.1875 22.6875 29.0625 13.3125C29.0625 13.3125 27.5625 20.7187 14.25 27L12.8438 26.1562Z" fill="#DD4545"/>
<path d="M22.875 9.46876C22.5 9.56251 22.2188 9.56251 21.9375 9.46876C21.75 9.37501 21.5625 9.09376 21.4688 8.71876C21.375 7.87501 22.125 5.71876 23.625 6.56251C25.2188 7.40626 23.7188 9.09376 22.875 9.46876Z" fill="white"/>
<path d="M9.28104 8.81251C9.18729 9.37501 8.81229 9.93751 8.43729 10.2188C8.06229 10.5 7.40604 10.7813 6.84354 10.7813C5.34354 10.6875 2.90604 8.81251 5.53104 6.65626C8.15604 4.50001 9.56229 7.31251 9.28104 8.81251Z" fill="#FFB3B3"/>
<path opacity="0.28" d="M1.78125 16.875C1.78125 16.875 15 29.3438 28.5 16.3125C28.5 16.3125 22.6875 23.4375 15.375 27.6562C15.375 27.6562 3.84375 23.5313 1.78125 16.875Z" fill="#4F1919"/>
</g>
<defs>
<clipPath id="clip0_1_11391">
<rect width="30" height="30" fill="white"/>
</clipPath>
</defs>
</svg>
