<svg width="30" height="30" viewBox="0 0 30 30" fill="none" xmlns="http://www.w3.org/2000/svg">
<g clip-path="url(#clip0_1_5195)">
<path d="M19.9687 19.5937C21.6562 20.1562 23.25 21.5625 23.7187 23.5312C24.2812 25.5938 23.5312 27.9375 21.9375 29.1562C20.9062 29.9062 19.6875 30.0937 18.4688 30.0937C15.5625 30.0937 12.75 29.1562 9.84375 28.125C8.90625 27.8437 7.875 27.4688 7.03125 26.8125C6.1875 26.1562 5.53125 25.2188 5.34375 24.0938C5.34375 22.5 6.28125 21 7.5 20.1562C9.5625 18.8438 11.8125 18.2812 13.9687 18.2812C15.8437 18.2812 18.1875 18.9375 19.9687 19.5937Z" fill="#1D282C"/>
<path d="M19.9688 18.375C21.6563 18.9375 23.25 20.3437 23.7188 22.3125C24.2813 24.375 23.5313 26.7187 21.9375 27.9375C20.9063 28.6875 19.6875 28.875 18.4688 28.875C15.5625 28.875 12.75 27.9375 9.84377 26.9062C8.90627 26.625 7.87502 26.25 7.03127 25.5937C6.18752 24.9375 5.53127 24 5.34377 22.875C5.15627 21.2812 6.09377 19.7812 7.31252 18.9375C9.37502 17.625 11.625 17.0625 13.7813 17.0625C15.8438 17.0625 18.1875 17.7187 19.9688 18.375Z" fill="#3B3B3B"/>
<path d="M16.875 19.2188C16.875 19.2188 13.5 20.625 10.9688 24.5625C10.9688 24.5625 10.0313 21.1875 10.5938 18.75C10.6875 18.75 14.1563 20.25 16.875 19.2188Z" fill="#E5A98C"/>
<path d="M8.62494 17.5313C8.62494 17.5313 8.24994 18.5626 5.99994 18.5626C5.99994 18.5626 2.15619 11.7188 8.90619 7.03132L8.62494 17.5313ZM17.6249 6.65632C17.6249 6.65632 20.8124 12.1876 18.3749 20.5313C18.3749 20.5313 21.8437 20.5313 24.1874 17.7188C25.6874 15.9376 24.5624 11.2501 23.6249 8.15632C23.0624 6.28132 21.2812 5.53133 19.4062 6.09383L17.6249 6.65632Z" fill="#8F8A78"/>
<path d="M8.71886 16.875C8.71886 16.875 8.34386 17.8125 6.28136 17.8125C6.28136 17.8125 2.62511 11.4375 9.00011 7.03125L8.71886 16.875Z" fill="#F4EACD"/>
<path d="M7.78125 6.09391C7.78125 6.09391 8.25 8.15641 10.9687 8.34391C13.6875 8.53141 23.1563 7.12516 23.1563 7.12516C23.1563 7.12516 20.7187 2.43766 14.9062 2.15641C10.5 1.87516 8.15625 5.43766 7.78125 6.09391Z" fill="#8F8A78"/>
<path d="M19.4063 6.56257L20.3438 10.6876C20.3438 10.6876 15.0938 12.4688 7.03125 8.71882C7.03125 8.71882 7.03125 6.00007 9.5625 4.21882C12.0938 2.43757 19.4063 6.56257 19.4063 6.56257Z" fill="#6A8189"/>
<path d="M22.7548 12.4506C22.7715 7.84248 19.0495 4.09332 14.4413 4.07662C9.8332 4.05992 6.08404 7.78201 6.06734 12.3901C6.05065 16.9983 9.77273 20.7474 14.3809 20.7641C18.989 20.7808 22.7381 17.0587 22.7548 12.4506Z" fill="#A67A65"/>
<path d="M22.3984 11.825C22.4145 7.37223 18.8179 3.74945 14.3651 3.73332C9.91227 3.71718 6.28949 7.31381 6.27336 11.7666C6.25722 16.2194 9.85384 19.8422 14.3066 19.8583C18.7594 19.8745 22.3822 16.2778 22.3984 11.825Z" fill="#E5A98C"/>
<path d="M22.3158 11.571C22.3314 7.27349 18.9861 3.77754 14.844 3.76253C10.7019 3.74752 7.33136 7.21914 7.31579 11.5166C7.30022 15.8141 10.6455 19.31 14.7876 19.325C18.9297 19.34 22.3002 15.8684 22.3158 11.571Z" fill="#E8CCAA"/>
<path d="M18.2303 12.709C18.2416 9.60243 15.7743 7.07506 12.7195 7.06399C9.66465 7.05292 7.1791 9.56234 7.16784 12.6689C7.15659 15.7755 9.62389 18.3029 12.6787 18.314C15.7335 18.3251 18.2191 15.8156 18.2303 12.709Z" fill="#FAEACF"/>
<path d="M7.875 6.09376C7.875 6.09376 8.34375 7.96876 10.9688 8.15626C13.5938 8.34376 22.5 7.03126 22.5 7.03126C22.5 7.03126 20.25 2.62501 14.7188 2.34376C10.5 2.06251 8.25 5.43751 7.875 6.09376Z" fill="#F4EACD"/>
<path d="M15.34 13.2925C15.3417 12.8266 15.0072 12.4476 14.593 12.4461C14.1788 12.4446 13.8417 12.8211 13.84 13.2871C13.8383 13.7531 14.1727 14.1321 14.5869 14.1336C15.0011 14.1351 15.3383 13.7585 15.34 13.2925Z" fill="#3C505B"/>
<path d="M14.8308 13.0004C14.8311 12.8968 14.7475 12.8126 14.6439 12.8122C14.5404 12.8118 14.4561 12.8955 14.4558 12.999C14.4554 13.1026 14.539 13.1868 14.6426 13.1872C14.7461 13.1876 14.8304 13.1039 14.8308 13.0004Z" fill="white"/>
<path d="M9.33314 11.4078C9.33482 10.9418 9.00041 10.5628 8.58619 10.5613C8.17198 10.5598 7.83482 10.9364 7.83314 11.4023C7.83145 11.8683 8.16586 12.2473 8.58008 12.2488C8.99429 12.2503 9.33145 11.8738 9.33314 11.4078Z" fill="#3C505B"/>
<path d="M8.82392 11.1156C8.8243 11.0121 8.74065 10.9278 8.6371 10.9274C8.53355 10.9271 8.4493 11.0107 8.44892 11.1143C8.44855 11.2178 8.53219 11.3021 8.63574 11.3024C8.7393 11.3028 8.82355 11.2192 8.82392 11.1156Z" fill="white"/>
<path d="M19.7812 13.0314C19.7812 13.0314 20.4375 12.4689 21 12.7501C21.5625 12.9376 21.4687 14.7189 20.0625 14.9064L19.7812 13.0314Z" fill="#FAEACF"/>
<path d="M17.25 6.5625C17.25 6.5625 20.25 11.8125 18 19.7813C18 19.7813 21.2813 19.7813 23.5313 17.0625C24.9375 15.375 23.9063 10.875 22.9688 7.96875C22.4063 6.1875 20.8125 5.53125 18.9375 6L17.25 6.5625Z" fill="#F4EACD"/>
<path d="M18.8438 6.46876L19.7813 10.4063C19.7813 10.4063 14.4375 12.375 6.75 8.71876C6.75 8.71876 7.125 5.90626 9.5625 4.21876C12 2.53126 18.8438 6.46876 18.8438 6.46876Z" fill="#F4EACD"/>
<path d="M7.5 8.0625C7.5 8.0625 8.15625 7.125 9.09375 7.125C9.9375 7.125 13.5 9.5625 19.125 8.71875C19.125 8.71875 18 9.84375 16.6875 9.9375C15.2812 10.125 10.5 9.65625 7.5 8.0625ZM19.125 17.8125C19.125 17.8125 21.6562 17.1562 22.0312 16.0312C22.4062 14.8125 21.75 7.78125 21.75 7.78125C21.75 7.78125 23.1562 11.4375 23.0625 16.0312C23.0625 16.0312 21.5625 18.2812 19.0312 18.6562V17.8125H19.125Z" fill="white"/>
<path d="M12.0937 9.46884C11.1562 10.0313 9.84375 9.84384 9.1875 9.00009C9 8.71884 8.90625 8.43759 8.90625 8.25009C8.90625 7.59384 12.8437 6.00009 13.9687 6.93759C14.7187 7.59384 13.3125 8.71884 12.0937 9.46884Z" fill="#BF6922"/>
<path d="M20.1563 11.8125C22.8486 11.8125 25.0313 10.8051 25.0313 9.5625C25.0313 8.31986 22.8486 7.3125 20.1563 7.3125C17.4639 7.3125 15.2812 8.31986 15.2812 9.5625C15.2812 10.8051 17.4639 11.8125 20.1563 11.8125Z" fill="#CCCDD1"/>
<path d="M20.0625 11.25C22.7549 11.25 24.9375 10.2426 24.9375 9C24.9375 7.75736 22.7549 6.75 20.0625 6.75C17.3701 6.75 15.1875 7.75736 15.1875 9C15.1875 10.2426 17.3701 11.25 20.0625 11.25Z" fill="#1D282C"/>
<path d="M6.84361 8.25C6.84361 8.25 4.59361 9.9375 5.43736 11.1562C6.28111 12.375 9.28111 15.4687 17.5311 11.625L6.84361 8.25Z" fill="#3B3B3B"/>
<path d="M7.40625 5.71875L6.65625 9C6.65625 9 9.1875 13.2188 20.4375 11.9062L20.9062 10.6875L7.40625 5.71875Z" fill="#CCCDD1"/>
<path d="M7.59375 4.96875L6.84375 8.25C6.84375 8.25 9.375 12.4688 21 11.25C21.375 11.25 21.8438 10.875 22.0313 10.5L22.3125 9.84375L7.59375 4.96875Z" fill="#1D282C"/>
<path d="M6.84375 0.9375L5.8125 1.03125C5.8125 1.03125 6 5.71875 8.90625 7.21875C11.8125 8.71875 14.3438 9.46875 16.7812 9.75C19.2188 10.0312 22.5937 10.4062 24.6562 9.28125L6.84375 0.9375Z" fill="#3B3B3B"/>
<path d="M10.7813 3.65628C10.7813 3.65628 9.84376 2.25003 8.25001 1.96878C6.65626 1.68753 4.50001 1.03128 6.46876 0.281276C8.43751 -0.468724 12.75 2.59951e-05 16.3125 1.31253C19.875 2.62503 22.2188 4.50003 24 6.37503C25.7813 8.25003 24.75 9.46878 24 9.46878C23.25 9.46878 21.2813 8.81253 17.7188 6.65628C14.1563 4.50003 10.7813 3.65628 10.7813 3.65628Z" fill="#3B3B3B"/>
<path d="M10.3422 9.4209C11.0015 9.28533 11.3585 8.31207 11.1395 7.24705C10.9205 6.18203 10.2085 5.42855 9.54923 5.56411C8.88994 5.69968 8.53299 6.67294 8.75197 7.73796C8.97096 8.80298 9.68295 9.55646 10.3422 9.4209Z" fill="#CCCDD1"/>
<path d="M11.9061 3.46875C11.9061 3.46875 10.7811 2.8125 9.46857 2.53125C8.15607 2.25 6.28107 1.875 7.96857 1.3125C9.65607 0.75 13.3123 1.03125 16.3123 2.15625C19.3123 3.28125 21.1873 4.59375 22.6873 6.09375C24.1873 7.59375 23.9998 8.34375 23.4373 8.25C22.8748 8.25 20.4373 7.96875 17.5311 6.28125C14.6248 4.59375 11.9061 3.46875 11.9061 3.46875Z" fill="#898989"/>
<path d="M7.21875 9.75L7.40625 8.71875L6.84375 8.25L6.1875 9.375L7.21875 9.75ZM23.625 10.0312L23.25 11.3438C23.25 11.5313 23.25 11.7188 23.3437 11.8125C23.625 12.1875 24.0937 12.1875 24.375 11.8125C24.8437 11.1563 25.3125 9.9375 25.0312 8.34375L24 8.8125L23.625 10.0312Z" fill="#3B3B3B"/>
<path d="M18.1876 18.6562C18.1876 18.6562 18.0938 19.5938 18.7501 19.5938V20.5312C18.7501 20.5312 17.3438 20.625 17.6251 19.7813C17.8126 19.0313 18.1876 18.6562 18.1876 18.6562Z" fill="#8F8A78"/>
<path d="M17.0625 20.3438L16.9688 22.7812L14.7188 23.25L14.25 26.25L11.1562 26.8125C11.1562 26.7188 12.4688 21.4688 17.0625 20.3438ZM9.9375 19.0312L8.15625 20.7188L9.65625 21.4688L7.96875 22.875L10.5 24.6562C10.5 24.75 9.46875 20.3438 9.9375 19.0312Z" fill="#898989"/>
<path opacity="0.28" d="M22.0869 24.831C22.6619 23.058 22.1299 21.297 20.8987 20.8977C19.6674 20.4983 18.2031 21.6119 17.6281 23.3849C17.0531 25.1579 17.585 26.9189 18.8163 27.3183C20.0475 27.7176 21.5118 26.604 22.0869 24.831Z" fill="#898989"/>
<path d="M12.75 17.1562C12.75 17.1562 12 17.0625 11.4375 16.5938C10.875 16.2188 10.4063 16.2187 10.3125 16.2187C10.2188 16.2187 10.0313 16.0312 9.84375 15.9375C9.65625 15.9375 9.375 15.9375 9.375 16.0313C9.375 16.125 9.5625 16.5 9.5625 16.5V17.0625C9.5625 17.25 9.5625 17.8125 10.125 17.9063C10.6875 18 11.1563 18 11.3438 17.8125C11.7188 17.8125 12.75 17.1562 12.75 17.1562Z" fill="#ED949A"/>
</g>
<defs>
<clipPath id="clip0_1_5195">
<rect width="30" height="30" fill="white"/>
</clipPath>
</defs>
</svg>
