<svg width="30" height="30" viewBox="0 0 30 30" fill="none" xmlns="http://www.w3.org/2000/svg">
<g clip-path="url(#clip0_1_16041)">
<path d="M10.097 19.3687C9.3817 19.6489 8.75377 20.1144 8.27765 20.7173C7.80154 21.3203 7.49438 22.0391 7.38767 22.7999L7.32204 24.6749C6.90991 24.3652 6.6119 23.9277 6.47453 23.4308C6.33716 22.9339 6.36815 22.4055 6.56267 21.928C7.09704 19.9874 8.65329 19.6874 10.097 19.3687Z" fill="#F49937"/>
<path d="M18.0937 19.2655C18.8558 19.5487 19.5365 20.0149 20.076 20.6231C20.6154 21.2312 20.9971 21.9627 21.1875 22.753C21.4087 23.637 21.3926 24.5638 21.1407 25.4396C20.8888 26.3153 20.4102 27.1091 19.7531 27.7405C18.9402 28.3352 17.9464 28.63 16.9406 28.5749C14.5074 28.4192 12.1208 27.8352 9.89061 26.8499C9.07677 26.6 8.31008 26.2167 7.62186 25.7155C6.86577 25.127 6.3709 24.2652 6.24374 23.3155C6.19148 22.6438 6.31329 21.97 6.59739 21.3591C6.88149 20.7482 7.31829 20.2209 7.86561 19.828C9.39506 18.7202 11.2365 18.1261 13.125 18.1311C14.8308 18.2444 16.5078 18.6273 18.0937 19.2655Z" fill="#CCCCCC"/>
<path d="M17.7185 20.4376C18.3878 20.6519 18.9943 21.0273 19.4847 21.5308C19.975 22.0342 20.3343 22.6504 20.531 23.3251C20.7244 24.0662 20.7057 24.8468 20.4769 25.5777C20.2482 26.3087 19.8186 26.9607 19.2373 27.4594C18.4809 27.9598 17.5834 28.203 16.6779 28.1532C14.493 28.0252 12.3432 27.5439 10.3123 26.7282C9.58703 26.5222 8.89773 26.206 8.26853 25.7907C7.93593 25.5622 7.65369 25.2679 7.43924 24.9261C7.22479 24.5843 7.08267 24.2021 7.02165 23.8032C6.97678 23.2378 7.08447 22.6708 7.33347 22.1612C7.58248 21.6517 7.96367 21.2183 8.43728 20.9063C9.85819 19.9703 11.5265 19.4806 13.2279 19.5001C14.7623 19.5933 16.275 19.9091 17.7185 20.4376Z" fill="#CCCCCC"/>
<path d="M17.4938 19.5281C18.1336 19.7589 18.7072 20.1427 19.1647 20.646C19.6222 21.1493 19.9498 21.7568 20.1188 22.4156C20.3041 23.1507 20.2887 23.9221 20.0744 24.6493C19.86 25.3765 19.4545 26.0329 18.9001 26.55C18.2003 27.0508 17.3496 27.2957 16.4907 27.2437C14.4309 27.1093 12.4086 26.6275 10.5094 25.8187C9.82335 25.6096 9.1747 25.2932 8.58755 24.8812C8.26921 24.6452 8.00147 24.3476 7.80018 24.0062C7.59888 23.6648 7.46814 23.2865 7.41568 22.8937C7.37148 22.3338 7.47558 21.7721 7.71752 21.2652C7.95945 20.7582 8.33067 20.324 8.7938 20.0062C10.1089 19.0766 11.6834 18.5846 13.2938 18.6C14.7335 18.6897 16.1504 19.0029 17.4938 19.5281Z" fill="white"/>
<path d="M16.6783 20.2219C14.2697 21.38 12.2501 23.2139 10.8658 25.5C10.3727 23.6038 10.2485 21.6305 10.5002 19.6875C10.5002 19.6875 13.9221 21.2344 16.6783 20.2219Z" fill="#CCCCCC"/>
<path d="M15.4407 20.1938C13.6435 21.059 12.1357 22.4267 11.1001 24.1313C10.7353 22.7243 10.6431 21.2605 10.8282 19.8188C10.8282 19.8188 13.3876 20.9532 15.4407 20.1938Z" fill="#FAEACF"/>
<path opacity="0.28" d="M18.3865 24.6393C18.8098 23.3342 18.4264 22.0405 17.53 21.7498C16.6336 21.459 15.5638 22.2814 15.1405 23.5865C14.7172 24.8917 15.1007 26.1854 15.997 26.4761C16.8934 26.7668 17.9632 25.9445 18.3865 24.6393Z" fill="white"/>
<path d="M10.8188 19.0405L10.5376 20.2593C12.0481 20.7583 13.6354 20.9837 15.2251 20.9249L16.8751 20.6249L16.7063 19.4718L10.8188 19.0405Z" fill="#FAD395"/>
<path d="M15.7127 4.35002L16.2846 2.64377L15.9002 1.74377L18.0283 2.99065L19.4908 7.01252L15.1221 6.09377L15.7127 4.35002Z" fill="#9A4C18"/>
<path d="M6.22511 7.15313C5.44854 8.53884 5.23375 10.1699 5.62511 11.7094L7.01261 9.42188L6.42199 6.98438L6.22511 7.15313Z" fill="#9A4C18"/>
<path d="M8.57812 3.96563C8.44248 3.1744 8.06598 2.44431 7.5 1.875C8.64769 1.87988 9.78155 2.12582 10.8281 2.59687L10.95 3.38437L10.0125 4.92188L8.57812 3.96563Z" fill="#9A4C18"/>
<path d="M14.6662 20.3227C19.0911 19.7016 22.1847 15.6816 21.5758 11.3438C20.967 7.00604 16.8863 3.99307 12.4613 4.61417C8.03635 5.23527 4.9428 9.25524 5.55166 13.593C6.16053 17.9308 10.2412 20.9438 14.6662 20.3227Z" fill="#9A4C18"/>
<path d="M14.2587 19.7264C18.3492 19.1479 21.1815 15.2592 20.585 11.0405C19.9884 6.82193 16.1888 3.871 12.0983 4.44945C8.00787 5.0279 5.17551 8.91668 5.77208 13.1353C6.36865 17.3539 10.1682 20.3048 14.2587 19.7264Z" fill="#E5895B"/>
<path d="M13.7787 18.8834C17.6129 18.3412 20.2681 14.6979 19.7092 10.7458C19.1503 6.79375 15.589 4.02951 11.7549 4.57172C7.92071 5.11392 5.26556 8.75725 5.82444 12.7093C6.38332 16.6614 9.94458 19.4256 13.7787 18.8834Z" fill="#FAD395"/>
<path d="M16.9218 8.86873C17.7599 8.88447 18.5953 8.76739 19.3968 8.52185C19.978 8.18435 20.7374 8.1656 20.7468 7.58435C20.7562 7.0031 19.603 3.91873 15.7593 3.1781L18.0093 5.8406L16.9218 8.86873Z" fill="#9A4C18"/>
<path d="M6.5623 8.4375C6.33934 8.09628 6.19652 7.70901 6.14456 7.30472C6.09261 6.90044 6.13286 6.48963 6.2623 6.10313C6.459 5.04936 6.30764 3.9602 5.83105 3L9.25293 3.75C9.25293 3.75 11.2592 4.29375 11.1279 5.25C10.9225 6.14762 10.6076 7.01662 10.1904 7.8375L9.53418 8.91563C9.53418 8.91563 6.91855 8.55 6.5623 8.4375Z" fill="#9A4C18"/>
<path d="M6.99353 8.67183C6.99353 8.67183 6.61853 7.16245 7.14353 6.66558C7.66853 6.1687 6.91853 4.05933 6.91853 4.05933L10.3123 4.77183C10.3123 4.77183 12.3092 5.31558 12.1873 6.27183C11.9773 7.16811 11.6627 8.03657 11.2498 8.85933C11.1654 8.99058 10.706 9.53433 10.706 9.53433C10.706 9.53433 7.34978 8.76558 6.99353 8.67183Z" fill="#DB7D1F"/>
<path d="M15.7406 8.7187C16.5788 8.73444 17.4141 8.61737 18.2156 8.37183C18.7969 8.03433 19.5563 8.01558 19.5656 7.43433C19.2665 6.28729 18.6322 5.25546 17.7438 4.47062C16.8554 3.68577 15.7533 3.18355 14.5781 3.02808L16.8188 5.69058L15.7406 8.7187Z" fill="#DB7D1F"/>
<path d="M9.00947 8.67192C9.00947 8.67192 8.07197 8.49379 8.49385 6.79692C9.00675 5.3602 9.70314 3.99578 10.5657 2.73754L8.00635 0.309416C9.13185 0.12459 10.284 0.18469 11.3841 0.485617C12.4843 0.786544 13.5066 1.32122 14.3813 2.05317C14.3813 2.05317 17.6813 3.75004 17.8126 4.88442C17.9438 6.01879 19.3688 8.25004 18.2251 8.94379C17.0813 9.63754 9.3751 9.03754 9.00947 8.67192Z" fill="#9A4C18"/>
<path d="M9.48732 8.8406C9.29003 8.01155 9.29003 7.14777 9.48732 6.31872C9.93446 5.14345 10.5265 4.02859 11.2498 2.99997L10.0311 0.984347C10.0311 0.984347 11.8029 0.768722 14.0623 2.66247C14.0623 2.66247 16.6029 3.93747 16.7248 4.83747C16.8467 5.73747 16.7248 8.58747 15.8811 9.1031C15.0373 9.61872 9.78732 9.13122 9.48732 8.8406Z" fill="#F49937"/>
<path d="M11.1562 8.20312L12.0094 5.19375L11.6438 1.92188L13.7906 5.1375L13.4531 8.5875C13.4531 8.5875 11.7469 8.775 11.1562 8.20312Z" fill="#FDE049"/>
<path d="M19.0502 5.61572L18.8627 7.77197L17.1846 6.92822L18.0283 8.49385L20.4002 7.95947L19.0502 5.61572Z" fill="#9A4C18"/>
<path d="M16.0031 7.52822L17.4563 7.99697L18.9281 6.92822L18.8156 8.1751L17.9437 8.64385L15.375 9.2626L16.0031 7.52822Z" fill="#DB7D1F"/>
<path d="M8.56856 6.13135L8.76543 7.6876L10.0498 9.05635L9.75918 8.99072L8.00605 8.5876L7.37793 7.26572L8.56856 6.13135Z" fill="#DB7D1F"/>
<path d="M14.1094 9.52505L15.3562 6.56255L14.7656 3.75005L13.9219 2.55005C14.683 2.93617 15.4216 3.36497 16.1344 3.83442C16.5187 4.1813 17.1187 5.20317 17.025 5.55005C16.9312 5.89692 16.3875 8.85942 16.3875 8.85942L15.8437 9.25317C15.2912 9.46496 14.7002 9.55761 14.1094 9.52505Z" fill="#DB7D1F"/>
<path d="M9.06579 6.32822L9.52516 6.2251C9.31316 7.00869 9.33927 7.83765 9.60016 8.60635C9.60016 8.60635 8.43766 8.29697 8.59704 6.4501L9.06579 6.32822Z" fill="#9A4C18"/>
<path d="M16.978 8.13745C16.978 8.13745 18.6187 7.3687 18.3468 6.07495C18.6296 6.57236 18.7447 7.14765 18.6749 7.71558C18.4687 8.3812 17.3718 8.2687 17.3718 8.2687L16.978 8.13745Z" fill="#DB7D1F"/>
<path d="M9.73105 9.37495L10.8186 10.3218L14.9998 8.93433V7.4812L13.5186 9.17808L10.5561 8.93433L9.4873 8.4187L9.73105 9.37495Z" fill="#F49937"/>
<path d="M15.6655 9.17817C15.932 9.43404 16.1854 9.70313 16.4249 9.98442L15.6843 11.0532C15.6843 11.0532 17.6062 10.8563 17.9155 11.6532C18.0966 12.2621 18.1224 12.9067 17.9905 13.5282L21.1405 12.825C21.1405 12.825 20.6812 9.37505 19.4905 7.9688L18.2905 7.3313L17.1374 8.2688L15.6655 9.17817Z" fill="#DB7D1F"/>
<path d="M7.74383 8.57808L5.69071 11.25C5.63361 10.0965 5.86226 8.94687 6.35633 7.90308L7.74383 8.57808Z" fill="#DB7D1F"/>
<path d="M20.9812 13.7062L17.9905 13.5469L17.8687 13.1625L21.253 12.1875L20.9812 13.7062Z" fill="#9A4C18"/>
<path d="M18.6845 13.125L18.1876 11.25C17.4528 11.0463 16.6987 10.9206 15.9376 10.875L15.4595 10.9594L16.7907 11.4187L17.9063 13.4906L18.6845 13.125Z" fill="#9A4C18"/>
<path d="M16.4627 11.0155L16.9033 9.89053L15.4502 8.72803L13.7158 9.73115L15.7877 9.4874L15.5533 10.9687L16.4627 11.0155Z" fill="#9A4C18"/>
<path d="M15.253 9.25312L10.7343 10.8187L9.5249 9.15938L11.0062 10.0031L15.3562 8.71875L15.253 9.25312Z" fill="#9A4C18"/>
<path d="M10.8283 10.678L8.55957 10.4343L10.4721 9.99365L10.8283 10.678Z" fill="#9A4C18"/>
<path d="M10.0971 9.72187L7.7627 9.51562L5.60645 11.3813L7.2377 8.625L9.60957 9.08437L9.99395 9.6375" fill="#9A4C18"/>
<path d="M15.3936 8.8875L18.7686 8.48438L19.6592 10.0687L18.0467 11.8219L17.4279 11.6063L15.3936 8.8875Z" fill="#9A4C18"/>
<path d="M7.04053 9.65625L9.55303 10.4531L10.6593 10.0313L10.1437 9.5625L8.14678 9.28125L7.04053 9.65625Z" fill="#9A4C18"/>
<path d="M15.3469 9.65625L18.3938 8.76562L19.0594 9.9375L16.6219 11.8406L14.9531 11.3438L15.3469 9.65625Z" fill="#FAD395"/>
<path d="M10.8467 17.9907C10.8467 17.9907 15.0842 17.9907 17.1467 16.2563C17.0894 17.0833 16.7597 17.8679 16.2092 18.4876C14.4067 18.7086 12.5778 18.5391 10.8467 17.9907Z" fill="white" stroke="#9A4C18" stroke-width="0.346875" stroke-miterlimit="10"/>
<path d="M18.4968 11.8405C16.3055 11.4131 14.0682 11.2713 11.8405 11.4186C11.6039 11.5787 11.3287 11.6725 11.0436 11.6905C10.7363 11.6047 10.4494 11.4581 10.1999 11.2593C8.0619 10.6655 5.85614 10.3504 3.6374 10.3218C3.6374 10.3218 3.2624 10.2468 3.32802 10.8561C3.39365 11.4655 3.85302 11.5218 3.85302 11.5218C3.85302 11.5218 3.96552 14.0155 4.8749 14.7093C6.17058 15.453 7.58521 15.9668 9.05615 16.228C9.9374 16.378 10.3218 16.0874 10.5186 15.4968C10.673 14.8094 10.7671 14.1099 10.7999 13.4061C10.7999 13.0874 10.978 13.0124 11.0905 13.003H11.2499C11.3718 13.003 11.5311 13.1436 11.6155 13.4718C11.7796 14.2183 11.999 14.9515 12.2718 15.6655C12.3996 15.9906 12.6252 16.268 12.9174 16.4594C13.2096 16.6508 13.5539 16.7469 13.903 16.7343C15.2961 16.7988 16.6876 16.5754 17.9905 16.078C18.8343 15.553 18.4968 12.9936 18.4968 12.9936C18.4968 12.9936 18.9749 13.0499 18.9374 12.4124C18.8999 11.7749 18.4968 11.8405 18.4968 11.8405Z" fill="#4A4A4A"/>
<path d="M12.1875 11.7469C14.349 11.637 16.5158 11.7976 18.6375 12.225V12.4688C18.6375 12.4688 14.3531 11.8032 12.1875 11.7469Z" fill="#6F6F6F"/>
<path d="M17.6439 12.75C15.8548 12.3408 14.0069 12.2551 12.1877 12.4968C12.141 12.5078 12.0971 12.528 12.0585 12.5562C12.0198 12.5845 11.9873 12.6203 11.9628 12.6614C11.9383 12.7025 11.9223 12.7482 11.9159 12.7956C11.9094 12.843 11.9126 12.8913 11.9252 12.9375C12.0938 13.8174 12.3417 14.6803 12.6658 15.5156C12.7388 15.6893 12.8474 15.8458 12.9845 15.975C14.3922 14.6657 16 13.5897 17.747 12.7875L17.6439 12.75Z" fill="white"/>
<path d="M17.7469 12.7876C16.0024 13.5784 14.3948 14.6416 12.9844 15.9376C13.1541 16.1107 13.3803 16.2171 13.6219 16.2376C14.6156 16.3126 16.5937 16.3501 17.6531 15.6282C17.7005 15.5902 17.7389 15.5422 17.7656 15.4876C18.033 14.7304 18.1102 13.9191 17.9906 13.1251C17.9768 13.0546 17.9479 12.9879 17.9058 12.9296C17.8637 12.8713 17.8095 12.8229 17.7469 12.7876Z" fill="#CCCCCC"/>
<path d="M4.54671 11.4468C4.50545 11.4502 4.46533 11.462 4.42888 11.4816C4.39242 11.5013 4.36042 11.5282 4.33488 11.5608C4.30934 11.5934 4.29083 11.6309 4.28049 11.671C4.27016 11.711 4.26823 11.7528 4.27484 11.7937C4.3194 12.6299 4.52973 13.4489 4.89359 14.2031C4.93266 14.2626 4.98001 14.3163 5.03421 14.3624C5.23315 14.518 5.44307 14.659 5.66234 14.7843C6.90893 13.7671 8.26776 12.8959 9.71234 12.1874C8.04351 11.6556 6.29776 11.4053 4.54671 11.4468Z" fill="white"/>
<path d="M9.94687 12.3L9.7125 12.1875C8.25486 12.8934 6.88334 13.7648 5.625 14.7844C6.72252 15.3305 7.90507 15.6855 9.12187 15.8344C9.30705 15.8575 9.4942 15.8107 9.64676 15.7033C9.79932 15.5958 9.90632 15.4353 9.94687 15.2531C10.1599 14.4505 10.2825 13.6267 10.3125 12.7969C10.3133 12.6857 10.2781 12.5773 10.2122 12.4877C10.1463 12.3982 10.0532 12.3323 9.94687 12.3Z" fill="#CCCCCC"/>
<path d="M19.2939 20.8594C19.7 22.0714 19.9397 23.3329 20.0064 24.6094V26.4844C20.4208 26.189 20.7268 25.7658 20.8775 25.2798C21.0282 24.7938 21.0153 24.2717 20.8408 23.7937C20.7195 22.6538 20.1659 21.6036 19.2939 20.8594Z" fill="#F49937"/>
<path d="M16.8748 29.2687C16.8696 29.1914 16.8437 29.1169 16.7998 29.0531C16.9311 28.696 16.9311 28.3039 16.7998 27.9468L15.7311 24.7781C15.4945 23.9898 14.9687 23.32 14.2592 22.9031L14.1467 22.1999C14.1138 22.067 14.0446 21.9458 13.947 21.8499C13.8493 21.7539 13.727 21.6868 13.5936 21.6562L12.6561 21.4499L12.3654 21.1874C12.0718 21.1345 11.7692 21.167 11.4936 21.2812C11.2948 21.476 11.1718 21.7352 11.1467 22.0124L11.2498 22.4999L7.68731 21.7593L7.30293 21.5624L7.14356 20.7843C7.10481 20.6477 7.03064 20.5237 6.92857 20.4249C6.82651 20.3261 6.70015 20.2561 6.56231 20.2218L5.73731 20.0531L5.45606 19.8187C5.00606 19.7249 4.18106 20.0156 4.27481 20.4281L4.40606 21.1218C4.24405 21.181 4.09459 21.27 3.96543 21.3843C3.77033 21.5727 3.64197 21.8195 3.59981 22.0874V22.3031C3.59043 22.4028 3.59043 22.5033 3.59981 22.6031L3.74981 25.4999C3.78451 26.147 4.07446 26.7539 4.55606 27.1874C4.81512 27.4673 5.13623 27.6824 5.49356 27.8156C5.86354 27.999 6.29005 28.0326 6.68418 27.9093H6.75918C6.98997 27.893 7.21157 27.8123 7.39883 27.6765C7.58608 27.5406 7.73149 27.3549 7.81856 27.1406L7.99668 26.6999L8.29668 26.7562C8.50167 27.0367 8.80148 27.2332 9.14043 27.3093C9.23512 27.3377 9.33506 27.344 9.43257 27.3278C9.53008 27.3115 9.62257 27.2731 9.70293 27.2156C9.86006 27.2484 10.0238 27.2217 10.1623 27.1406L10.4529 27.2062C10.5431 27.3934 10.6741 27.558 10.8364 27.6878C10.9986 27.8176 11.188 27.9094 11.3904 27.9562C11.4854 27.9819 11.5848 27.9869 11.6819 27.9707C11.779 27.9545 11.8714 27.9176 11.9529 27.8624C12.0636 27.8963 12.1815 27.8993 12.2938 27.8712C12.4061 27.8431 12.5087 27.785 12.5904 27.7031L12.8904 28.1624C13.014 28.3366 13.1486 28.5025 13.2936 28.6593C13.7489 29.2633 14.4213 29.6667 15.1686 29.7843C15.415 29.8436 15.6721 29.8436 15.9186 29.7843C16.4811 29.8124 16.9311 29.6249 16.8748 29.2687Z" fill="#4A0751"/>
<path d="M15.9375 21.2343C15.9375 21.2343 18.7031 21.1031 19.6875 21.9374C20.2688 22.4249 20.4844 23.9343 20.5688 25.0874C20.5963 25.5114 20.4897 25.9332 20.2643 26.2932C20.0388 26.6533 19.7059 26.9333 19.3125 27.0937C18.7456 27.3583 18.1419 27.5354 17.5219 27.6187L15.9375 24.3749V21.2343Z" fill="#9A4C18"/>
<path d="M15.6748 21.3657C15.6748 21.3657 18.1873 21.2532 19.0873 22.0126C19.5936 22.4345 19.7998 23.7001 19.8748 24.722C19.9102 25.1508 19.8061 25.5796 19.578 25.9445C19.35 26.3094 19.0102 26.5909 18.6092 26.747C18.1403 26.9654 17.6408 27.1109 17.1279 27.1782L15.6748 24.2251V21.3657Z" fill="#E5895B"/>
<path d="M15.9375 21.7782C15.9375 21.7782 18.0937 21.6844 18.8719 22.3313C19.3007 22.9404 19.53 23.6676 19.5281 24.4125C19.5696 24.8508 19.4666 25.2905 19.2346 25.6646C19.0027 26.0388 18.6547 26.3267 18.2437 26.4844C17.9069 26.6313 17.5497 26.7261 17.1844 26.7657L15.9375 24.2344V21.7782Z" fill="#FAD395"/>
<path d="M13.7907 27.2719C13.622 27.4313 14.0532 28.0688 14.3907 28.5188C14.465 28.6388 14.5733 28.7341 14.7018 28.7926C14.8303 28.851 14.9733 28.8699 15.1126 28.8469L17.9251 28.1532C17.9954 28.1398 18.0596 28.1044 18.1084 28.0522C18.1573 28 18.1883 27.9335 18.197 27.8625C18.1971 27.4351 18.0626 27.0186 17.8126 26.6719C17.7277 26.5246 17.6043 26.4032 17.4557 26.3206C17.3071 26.238 17.1388 26.1974 16.9689 26.2032C15.8763 26.4518 14.8115 26.8099 13.7907 27.2719Z" fill="#9A4C18"/>
<path d="M14.0626 27.3094C13.922 27.45 14.3064 28.0031 14.6064 28.3875C14.6733 28.4872 14.7666 28.5663 14.8758 28.6159C14.9851 28.6656 15.1061 28.6839 15.2251 28.6688L17.6908 28.05C17.7523 28.0375 17.8085 28.0066 17.8521 27.9614C17.8956 27.9162 17.9243 27.8588 17.9345 27.7969C17.9366 27.4213 17.8146 27.0555 17.5876 26.7563C17.5185 26.6285 17.4153 26.5223 17.2896 26.4495C17.1638 26.3767 17.0204 26.3401 16.8751 26.3438C15.9066 26.567 14.964 26.8906 14.0626 27.3094Z" fill="#E5895B"/>
<path d="M13.5843 27.2812C13.4343 27.4219 13.8187 27.975 14.1187 28.3594C14.1855 28.4614 14.2802 28.5422 14.3915 28.592C14.5029 28.6419 14.6262 28.6587 14.7468 28.6406L17.2031 28.0219C17.2652 28.0107 17.3221 27.9802 17.3659 27.9347C17.4096 27.8893 17.438 27.8312 17.4468 27.7687C17.4523 27.3941 17.3336 27.0282 17.1093 26.7281C17.0379 26.5981 16.9316 26.4906 16.8024 26.4178C16.6732 26.3449 16.5263 26.3095 16.3781 26.3156C15.4151 26.537 14.4785 26.8607 13.5843 27.2812Z" fill="#E5895B"/>
<path d="M13.6217 27.3189C13.4811 27.4595 13.8655 28.0126 14.1655 28.397C14.229 28.5 14.3218 28.5818 14.432 28.6319C14.5422 28.682 14.6648 28.6981 14.7842 28.6782L17.2498 28.0689C17.3102 28.0559 17.3651 28.0246 17.407 27.9793C17.449 27.934 17.4759 27.8769 17.4842 27.8157C17.494 27.4376 17.375 27.0674 17.1467 26.7657C17.0757 26.636 16.9693 26.5292 16.8397 26.4578C16.7102 26.3864 16.5631 26.3534 16.4155 26.3626C15.4539 26.5848 14.5177 26.9052 13.6217 27.3189Z" fill="#FAD395"/>
<path d="M5.50321 24.2719C5.71883 24.3469 5.50321 25.1063 5.37196 25.6219C5.34096 25.7507 5.2772 25.8693 5.18686 25.9662C5.09651 26.0631 4.98266 26.1351 4.85633 26.175L3.34696 26.6438C3.27221 26.6644 3.19347 26.6657 3.11807 26.6477C3.04266 26.6296 2.97305 26.5928 2.91571 26.5406C2.64867 26.2078 2.52099 25.7844 2.55946 25.3594C2.54548 25.1725 2.59409 24.9863 2.69764 24.8302C2.80119 24.674 2.95377 24.5567 3.13133 24.4969C3.90188 24.2792 4.70548 24.203 5.50321 24.2719Z" fill="#9A4C18"/>
<path d="M5.17519 24.4313C5.36269 24.4969 5.17519 25.1625 5.06269 25.6032C5.03285 25.7148 4.97629 25.8176 4.89789 25.9025C4.81949 25.9874 4.72161 26.052 4.61269 26.0907L3.45019 26.4469C3.38568 26.4661 3.31734 26.4684 3.25169 26.4536C3.18604 26.4388 3.12528 26.4075 3.07519 26.3625C2.95439 26.2178 2.86393 26.0503 2.80917 25.8699C2.75441 25.6895 2.73648 25.5 2.75644 25.3125C2.74545 25.1503 2.78815 24.989 2.87795 24.8535C2.96775 24.7179 3.09965 24.6157 3.25331 24.5625C3.87794 24.3862 4.53239 24.3415 5.17519 24.4313Z" fill="#E5895B"/>
<path d="M4.93132 24.5343C5.08132 24.5343 4.93132 25.1343 4.82819 25.4718C4.80891 25.5627 4.76701 25.6473 4.70638 25.7177C4.64576 25.7882 4.56835 25.8422 4.48132 25.8749L3.54382 26.2593C3.49855 26.2825 3.44813 26.2938 3.3973 26.2921C3.34646 26.2905 3.29687 26.276 3.25319 26.2499C3.07673 26.0024 2.99671 25.699 3.02819 25.3968C3.02015 25.2641 3.05378 25.1322 3.12438 25.0196C3.19498 24.9069 3.29902 24.8192 3.42194 24.7686C3.90525 24.5939 4.41779 24.5143 4.93132 24.5343Z" fill="#FAD395"/>
<path d="M16.8752 28.6313C16.8732 28.5533 16.847 28.478 16.8002 28.4156C16.9313 28.0553 16.9313 27.6603 16.8002 27.3L15.7314 24.1313C15.494 23.3434 14.9685 22.6739 14.2596 22.2563L14.0627 21.5625C14.0303 21.4283 13.9615 21.3057 13.8639 21.2081C13.7663 21.1105 13.6437 21.0418 13.5096 21.0094L12.5721 20.8125L12.2814 20.5406C11.9869 20.4906 11.6843 20.5264 11.4096 20.6438C11.2127 20.8362 11.0899 21.0917 11.0627 21.3656L11.1658 21.8625L7.6033 21.1219L7.2658 20.8781L7.10643 20.1C7.06947 19.9624 6.99589 19.8375 6.89354 19.7384C6.79118 19.6394 6.66387 19.5699 6.52518 19.5375L5.70018 19.3594L5.41893 19.1344C4.96893 19.0406 4.14393 19.3313 4.23768 19.7344L4.36893 20.4281C4.20639 20.4905 4.05695 20.5827 3.9283 20.7C3.73389 20.8851 3.60546 21.1288 3.56268 21.3938V21.6094C3.55333 21.706 3.55333 21.8034 3.56268 21.9L3.75018 24.8531C3.76321 25.3994 3.96156 25.925 4.31268 26.3438L4.5283 26.5594C4.78791 26.8363 5.10907 27.0483 5.4658 27.1781C5.83508 27.3628 6.26089 27.3997 6.65642 27.2813H6.73143C6.96265 27.2625 7.18437 27.181 7.3727 27.0455C7.56102 26.91 7.70882 26.7257 7.80017 26.5125L7.96892 26.0625L8.26892 26.1281C8.47679 26.4056 8.77537 26.6013 9.11268 26.6813C9.20799 26.7091 9.30848 26.7142 9.40614 26.6963C9.5038 26.6784 9.59592 26.6379 9.67517 26.5781C9.83131 26.6089 9.99326 26.5857 10.1346 26.5125L10.4252 26.5688C10.5136 26.7581 10.644 26.9249 10.8064 27.0565C10.9688 27.188 11.1591 27.2809 11.3627 27.3281C11.4583 27.3525 11.5581 27.3559 11.6552 27.3381C11.7523 27.3203 11.8444 27.2817 11.9252 27.225C12.0359 27.2588 12.1537 27.2619 12.266 27.2338C12.3784 27.2057 12.4809 27.1476 12.5627 27.0656L12.8627 27.5156C12.9839 27.6915 13.1186 27.8577 13.2658 28.0125C13.7178 28.6203 14.3918 29.0247 15.1408 29.1375C15.3879 29.1913 15.6437 29.1913 15.8908 29.1375C16.4533 29.1656 16.8752 28.9781 16.8752 28.6313Z" fill="#780364"/>
<path d="M13.4343 25.1062C13.228 25.3031 13.7155 26.0437 14.0999 26.5593C14.1862 26.6965 14.3124 26.8041 14.4614 26.8678C14.6105 26.9314 14.7755 26.9481 14.9343 26.9156L18.3093 25.9781C18.3928 25.9572 18.4684 25.9124 18.5267 25.8491C18.585 25.7858 18.6235 25.7068 18.6374 25.6218C18.6508 25.1214 18.4919 24.6316 18.1874 24.2343C18.0966 24.0679 17.9601 23.9309 17.794 23.8396C17.6278 23.7482 17.4391 23.7063 17.2499 23.7187C15.9358 24.0556 14.6578 24.5203 13.4343 25.1062Z" fill="#9A4C18"/>
<path d="M13.7813 25.1437C13.6032 25.3124 14.0345 25.9499 14.372 26.3906C14.4503 26.508 14.5613 26.5998 14.6912 26.6548C14.8212 26.7098 14.9644 26.7255 15.1032 26.6999L18.0282 25.8843C18.1024 25.8664 18.1699 25.8278 18.223 25.7731C18.2761 25.7183 18.3126 25.6496 18.3282 25.5749C18.3425 25.1455 18.2139 24.7234 17.9626 24.3749C17.8838 24.2209 17.7599 24.0944 17.6076 24.0124C17.4552 23.9303 17.2815 23.8966 17.1095 23.9156C15.9609 24.2096 14.8456 24.6211 13.7813 25.1437Z" fill="#E5895B"/>
<path d="M13.8939 25.2376C13.7533 25.3688 14.1189 25.9032 14.4002 26.2782C14.4622 26.3708 14.548 26.445 14.6487 26.4928C14.7493 26.5407 14.8611 26.5605 14.972 26.5501L17.2877 26.0251C17.3462 26.0116 17.3995 25.9813 17.4411 25.938C17.4827 25.8948 17.5108 25.8403 17.522 25.7813C17.5356 25.4172 17.4303 25.0585 17.222 24.7594C17.161 24.6284 17.0626 24.5185 16.9391 24.4434C16.8156 24.3683 16.6727 24.3315 16.5283 24.3376C15.6209 24.5439 14.7379 24.8456 13.8939 25.2376Z" fill="#FAD395"/>
<path d="M12.6657 23.4375C12.4595 23.625 12.947 24.375 13.3313 24.8812C13.4173 25.0192 13.543 25.1279 13.6919 25.1932C13.8408 25.2584 14.006 25.2771 14.1657 25.2468L17.5313 24.3093C17.6148 24.2885 17.6904 24.2436 17.7487 24.1803C17.807 24.117 17.8455 24.038 17.8595 23.9531C17.887 23.4321 17.7311 22.9179 17.4188 22.5C17.3255 22.3358 17.1885 22.2007 17.023 22.1096C16.8575 22.0186 16.67 21.9753 16.4813 21.9843C15.1629 22.3364 13.8843 22.8233 12.6657 23.4375Z" fill="#9A4C18"/>
<path d="M13.0031 23.4375C12.8344 23.6063 13.2656 24.2438 13.6031 24.6844C13.6799 24.801 13.7893 24.8925 13.9176 24.9475C14.0459 25.0025 14.1876 25.0186 14.325 24.9938L17.2594 24.1781C17.3323 24.1597 17.3985 24.1208 17.45 24.066C17.5015 24.0111 17.5362 23.9427 17.55 23.8688C17.5717 23.4355 17.4425 23.0081 17.1844 22.6594C17.1062 22.5069 16.9838 22.3816 16.8333 22.2997C16.6828 22.2177 16.5111 22.183 16.3406 22.2C15.1901 22.5016 14.0722 22.9162 13.0031 23.4375Z" fill="#E5895B"/>
<path d="M5.12818 20.625C5.38131 20.7094 5.12818 21.5625 4.97818 22.2C4.93805 22.3498 4.86137 22.4873 4.75502 22.6002C4.64867 22.7131 4.51597 22.7979 4.36881 22.8469L2.59693 23.4375C2.51129 23.4616 2.421 23.4639 2.33423 23.4443C2.24746 23.4246 2.16697 23.3836 2.10006 23.325C1.94114 23.1333 1.82198 22.9119 1.74955 22.6737C1.67711 22.4355 1.65285 22.1852 1.67818 21.9375C1.65373 21.7188 1.70701 21.4984 1.82871 21.315C1.95041 21.1316 2.13275 20.9968 2.34381 20.9344C3.24493 20.6605 4.18892 20.5556 5.12818 20.625Z" fill="#9A4C18"/>
<path d="M4.74389 20.8405C4.96889 20.9155 4.74389 21.6843 4.61264 22.2093C4.57971 22.3412 4.51318 22.4623 4.41953 22.5609C4.32589 22.6595 4.20832 22.7321 4.07827 22.7718L2.71889 23.1937C2.64348 23.2163 2.56359 23.2196 2.48658 23.2032C2.40957 23.1868 2.33793 23.1513 2.27827 23.0999C1.99524 22.7626 1.85112 22.3302 1.87514 21.8905C1.86596 21.7021 1.91748 21.5158 2.0221 21.3588C2.12673 21.2019 2.27896 21.0827 2.45639 21.0187C3.19695 20.7941 3.9775 20.7333 4.74389 20.8405Z" fill="#E5895B"/>
<path d="M4.46261 20.953C4.63136 21.0187 4.46261 21.6562 4.34073 22.0968C4.3145 22.2047 4.26238 22.3047 4.18888 22.388C4.11538 22.4713 4.0227 22.5354 3.91886 22.5749L2.81261 23.0155C2.75624 23.0338 2.69597 23.0365 2.6382 23.0233C2.58042 23.0101 2.52731 22.9815 2.48448 22.9405C2.27309 22.6548 2.17612 22.3004 2.21261 21.9468C2.20522 21.7914 2.24518 21.6373 2.3272 21.5051C2.40923 21.3729 2.52945 21.2686 2.67198 21.2062C3.24795 21.0113 3.85519 20.9254 4.46261 20.953Z" fill="#FAD395"/>
<path d="M4.89379 22.6313C5.10942 22.6969 4.89379 23.4563 4.76254 23.9719C4.72807 24.1016 4.66212 24.2208 4.57054 24.3189C4.47896 24.4171 4.36458 24.4911 4.23754 24.5344L2.72817 24.9938C2.65501 25.0154 2.57742 25.0173 2.5033 24.9992C2.42919 24.9811 2.36121 24.9436 2.30629 24.8906C2.03502 24.5597 1.90382 24.1358 1.94067 23.7094C1.93139 23.5234 1.9819 23.3393 2.0848 23.1841C2.18771 23.0289 2.33761 22.9107 2.51254 22.8469C3.28555 22.6253 4.09355 22.5521 4.89379 22.6313Z" fill="#9A4C18"/>
<path d="M4.56568 22.7906C4.75318 22.8468 4.56568 23.5124 4.45318 23.9531C4.42566 24.0673 4.3688 24.1723 4.28823 24.2578C4.20767 24.3433 4.10618 24.4063 3.99381 24.4406L2.81256 24.7968C2.74653 24.8159 2.67679 24.8181 2.60966 24.8034C2.54253 24.7887 2.48015 24.7574 2.42818 24.7124C2.19601 24.421 2.0822 24.0528 2.10943 23.6812C2.10208 23.5208 2.14638 23.3623 2.23582 23.229C2.32527 23.0957 2.45513 22.9946 2.60631 22.9406C3.24006 22.745 3.90955 22.6937 4.56568 22.7906Z" fill="#E5895B"/>
<path d="M4.32205 22.8843C4.46267 22.9405 4.32205 23.4936 4.21892 23.8218C4.19704 23.9141 4.15323 23.9998 4.09122 24.0716C4.02921 24.1434 3.95082 24.1992 3.86267 24.2343L2.92517 24.6093C2.87521 24.6246 2.82211 24.6266 2.77114 24.6151C2.72016 24.6036 2.67308 24.5789 2.63455 24.5436C2.4619 24.2944 2.38227 23.9925 2.40955 23.6905C2.41243 23.5636 2.45205 23.4403 2.5236 23.3355C2.59515 23.2306 2.69556 23.1488 2.81267 23.0999C3.29739 22.9322 3.80976 22.859 4.32205 22.8843Z" fill="#FAD395"/>
<path d="M13.1252 23.522C12.9939 23.6532 13.3596 24.1876 13.6408 24.5532C13.7013 24.6473 13.7869 24.7227 13.888 24.7707C13.989 24.8188 14.1015 24.8376 14.2127 24.8251L16.5189 24.3001C16.578 24.2877 16.6319 24.2579 16.6737 24.2144C16.7155 24.1709 16.7433 24.1158 16.7533 24.0563C16.771 23.6931 16.6689 23.334 16.4627 23.0345C16.3984 22.9067 16.2989 22.8 16.176 22.7269C16.0531 22.6538 15.9119 22.6174 15.7689 22.622C14.857 22.8227 13.9702 23.1246 13.1252 23.522Z" fill="#FAD395"/>
<path d="M6.42165 19.3594C6.63727 19.4907 6.26227 20.2969 5.98102 20.8032C5.91571 20.9362 5.81789 21.0506 5.69663 21.1359C5.57537 21.2211 5.43457 21.2743 5.28727 21.2907L3.11227 21.4688C3.02709 21.477 2.94127 21.4622 2.86377 21.4259C2.78626 21.3896 2.71991 21.3332 2.67165 21.2626C2.45047 20.8411 2.40335 20.3497 2.5404 19.8938C2.56554 19.6878 2.65835 19.4959 2.80426 19.3483C2.95017 19.2007 3.14093 19.1057 3.34665 19.0782C4.3798 19.0253 5.41522 19.12 6.42165 19.3594Z" fill="#9A4C18"/>
<path d="M6.0281 19.4624C6.2156 19.5749 5.88748 20.2593 5.64373 20.7093C5.58799 20.8257 5.5038 20.9263 5.39894 21.0017C5.29407 21.0771 5.17191 21.1248 5.04373 21.1405L3.27185 21.2811C3.19655 21.2869 3.12101 21.2736 3.0522 21.2424C2.98339 21.2113 2.92352 21.1634 2.8781 21.103C2.68434 20.737 2.64063 20.31 2.75623 19.9124C2.78109 19.7322 2.86416 19.5651 2.99278 19.4364C3.1214 19.3078 3.28854 19.2247 3.46873 19.1999C4.33037 19.1514 5.19424 19.24 6.0281 19.4624Z" fill="#E5895B"/>
<path d="M5.31557 19.5188C5.4562 19.6125 5.18432 20.1844 4.98745 20.5594C4.94473 20.6555 4.87857 20.7393 4.79503 20.8032C4.7115 20.8671 4.61326 20.909 4.50932 20.925L3.40307 21.1313C3.34604 21.1367 3.28857 21.1275 3.23609 21.1045C3.18361 21.0815 3.13783 21.0456 3.10307 21C2.97591 20.7036 2.95602 20.3721 3.04682 20.0625C3.06836 19.9172 3.13376 19.7818 3.23427 19.6746C3.33479 19.5674 3.46563 19.4934 3.60932 19.4625C4.17647 19.3725 4.75559 19.3916 5.31557 19.5188Z" fill="#FAD395"/>
<path d="M12.1127 20.0813C11.869 20.0813 11.9533 20.9438 12.0377 21.5063C12.0522 21.6457 12.102 21.7791 12.1824 21.8939C12.2628 22.0087 12.3711 22.1012 12.4971 22.1625L15.3752 22.8938C15.4473 22.9324 15.5278 22.9525 15.6096 22.9525C15.6914 22.9525 15.7719 22.9324 15.844 22.8938C16.1815 22.6782 16.4252 22.6125 16.5002 22.1719C16.5345 21.9795 16.5077 21.7811 16.4237 21.6046C16.3396 21.4281 16.2025 21.2823 16.0315 21.1875C14.7635 20.6947 13.4513 20.3242 12.1127 20.0813Z" fill="#9A4C18"/>
<path d="M12.3658 20.2969C12.1596 20.2969 12.2252 21.0469 12.3002 21.5344C12.3168 21.6562 12.3631 21.7721 12.435 21.8718C12.507 21.9715 12.6023 22.052 12.7127 22.1063L15.2721 22.6031C15.3377 22.6354 15.4099 22.6522 15.483 22.6522C15.5561 22.6522 15.6283 22.6354 15.6939 22.6031C15.9846 22.4156 16.1721 22.4906 16.2283 22.1156C16.2647 21.9478 16.2439 21.7726 16.1692 21.6179C16.0944 21.4633 15.97 21.3382 15.8158 21.2625C14.7006 20.8273 13.5449 20.5038 12.3658 20.2969Z" fill="#E5895B"/>
<path d="M12.4124 20.4375C12.2531 20.4375 12.3093 21.0656 12.3656 21.4688C12.3768 21.5681 12.4116 21.6632 12.4671 21.7464C12.5225 21.8296 12.597 21.8983 12.6843 21.9469L14.8781 22.35C14.9268 22.3771 14.9817 22.3913 15.0374 22.3913C15.0932 22.3913 15.1481 22.3771 15.1968 22.35C15.4218 22.1906 15.3093 22.275 15.3562 21.9563C15.3848 21.8191 15.3694 21.6763 15.3122 21.5484C15.255 21.4204 15.1588 21.3138 15.0374 21.2438C14.1936 20.8824 13.3136 20.6121 12.4124 20.4375Z" fill="#FAD395"/>
<path d="M7.01251 22.2468L6.88126 22.7811C6.866 22.8354 6.86229 22.8923 6.87038 22.9481C6.87846 23.0039 6.89816 23.0573 6.9282 23.1051C6.95824 23.1528 6.99795 23.1936 7.04477 23.225C7.09159 23.2564 7.14448 23.2777 7.20001 23.2874L11.2313 24.0561C11.3014 24.0707 11.3742 24.0667 11.4424 24.0446C11.5106 24.0225 11.5718 23.983 11.62 23.93C11.6683 23.877 11.7019 23.8123 11.7176 23.7424C11.7333 23.6725 11.7304 23.5996 11.7094 23.5311L11.5125 22.9124C11.4909 22.8405 11.4495 22.776 11.3932 22.7263C11.3369 22.6766 11.2678 22.6437 11.1938 22.6311L7.50001 21.9374C7.39465 21.9173 7.28561 21.9381 7.19505 21.9956C7.10449 22.0531 7.03922 22.1429 7.01251 22.2468Z" fill="#8D2299"/>
<path d="M4.3127 26.2499C4.74846 26.5446 5.27129 26.6828 5.79576 26.6419C6.32023 26.6011 6.81534 26.3835 7.2002 26.0249L7.76269 25.0874C7.76269 25.0874 9.96582 25.5937 10.5189 25.6218C11.0721 25.6499 12.6658 25.8937 12.6658 25.8937C12.7761 26.6405 13.1363 27.3279 13.6877 27.8437C14.4846 28.3687 15.0002 29.1468 15.8439 29.0812C16.6877 29.0155 16.7814 29.4187 16.7814 29.4187C16.5858 29.5131 16.3856 29.5976 16.1814 29.6718C16.1252 29.6718 13.4721 29.5687 12.8533 28.0499C12.4466 28.2607 11.9873 28.3486 11.5314 28.303C11.2439 28.2426 10.9721 28.1231 10.7332 27.952C10.4943 27.781 10.2937 27.5621 10.1439 27.3093C10.1439 27.3093 9.71269 28.0312 9.04707 27.9655C8.38144 27.8999 7.89395 26.8593 7.89395 26.8593C7.89395 26.8593 8.00645 28.2187 6.68457 28.1718C6.15598 28.1307 5.64403 27.968 5.18868 27.6964C4.73333 27.4249 4.34691 27.0517 4.05957 26.6062L4.3127 26.2499Z" fill="#4A0751"/>
<path d="M7.0877 22.3218L11.5596 23.1374C11.5313 22.9762 11.4841 22.8188 11.4189 22.6687C11.3533 22.5562 7.3502 21.8999 7.3502 21.8999C7.26133 21.9067 7.17799 21.9456 7.11584 22.0095C7.05369 22.0734 7.01701 22.1578 7.0127 22.2468" fill="#AA3C98"/>
<path d="M18.0939 27.4218L17.7471 27.8905L19.3971 29.0249L28.7533 19.7343L27.2158 17.7749L18.0939 27.4218Z" fill="#9A4C18"/>
<path d="M28.95 22.3689C28.7351 24.2272 27.8484 25.9428 26.4567 27.1929C25.065 28.443 23.2644 29.1413 21.3938 29.1564C20.5537 29.1789 19.7198 29.0074 18.9568 28.6552C18.1938 28.303 17.5223 27.7796 16.9944 27.1257C16.4666 26.4718 16.0966 25.705 15.9133 24.8849C15.73 24.0647 15.7383 23.2134 15.9375 22.397C16.3146 20.7233 17.2341 19.2211 18.5532 18.1242C19.8723 17.0272 21.5169 16.3969 23.2313 16.3314C24.0208 16.2903 24.8098 16.421 25.5439 16.7144C26.278 17.0078 26.9397 17.457 27.4833 18.031C28.027 18.6049 28.4396 19.29 28.6929 20.0389C28.9461 20.7878 29.0338 21.5827 28.95 22.3689Z" fill="#225E22"/>
<path d="M29.8877 23.5125C29.6591 25.3087 28.7821 26.9594 27.4216 28.1542C26.0611 29.3489 24.3109 30.0054 22.5002 30C21.6906 30.0362 20.8835 29.8842 20.1426 29.5558C19.4016 29.2274 18.7469 28.7316 18.23 28.1075C17.713 27.4833 17.3478 26.7477 17.1632 25.9585C16.9786 25.1694 16.9795 24.3481 17.1659 23.5594C17.563 21.9531 18.4758 20.5213 19.7643 19.4834C21.0529 18.4454 22.6462 17.8585 24.3002 17.8125C25.0567 17.7624 25.815 17.8764 26.5233 18.1468C27.2315 18.4171 27.873 18.8373 28.4037 19.3787C28.9343 19.9201 29.3417 20.5698 29.5979 21.2833C29.854 21.9968 29.9529 22.7572 29.8877 23.5125Z" fill="#225E22"/>
<path d="M19.1436 27.6657L20.7279 28.5188L28.3779 20.4938L27.1217 18.8157L19.1436 27.6657Z" fill="#949494"/>
<path d="M29.1561 23.5501C28.9659 25.0602 28.2355 26.4505 27.0998 27.4638C25.9641 28.4771 24.4999 29.0451 22.9779 29.0626C22.2931 29.0829 21.6127 28.9459 20.9891 28.6622C20.3655 28.3784 19.8153 27.9555 19.3807 27.4258C18.9461 26.8962 18.6387 26.2739 18.4822 25.6069C18.3257 24.9399 18.3243 24.2459 18.4779 23.5782C18.7768 22.1918 19.5288 20.9444 20.6152 20.0329C21.7017 19.1213 23.0607 18.5974 24.4779 18.5438C25.1288 18.5138 25.7784 18.6255 26.3819 18.8712C26.9853 19.1168 27.5282 19.4906 27.9731 19.9667C28.4179 20.4427 28.7541 21.0097 28.9583 21.6284C29.1626 22.2471 29.2301 22.9028 29.1561 23.5501Z" fill="#358761"/>
<path d="M28.1248 22.3313C27.9263 23.9413 27.1529 25.4254 25.9472 26.5106C24.7414 27.5958 23.1843 28.2091 21.5623 28.2376C20.8289 28.2601 20.1002 28.1135 19.4326 27.8092C18.7649 27.5049 18.1762 27.051 17.7122 26.4827C17.2481 25.9144 16.921 25.2469 16.7563 24.5319C16.5916 23.8168 16.5937 23.0735 16.7623 22.3594C17.0839 20.883 17.8878 19.5555 19.0471 18.5863C20.2064 17.617 21.6553 17.0612 23.1655 17.0063C23.8566 16.976 24.5461 17.096 25.1864 17.3581C25.8267 17.6202 26.4025 18.0181 26.874 18.5244C27.3455 19.0306 27.7015 19.6332 27.9175 20.2905C28.1334 20.9477 28.2042 21.644 28.1248 22.3313Z" fill="#75EF75"/>
<path d="M23.0531 17.5686C21.6357 17.6168 20.2752 18.1377 19.188 19.0482C18.1008 19.9588 17.3493 21.2068 17.0531 22.5936C16.8645 23.4414 16.9243 24.3256 17.2253 25.1403C17.5262 25.955 18.0555 26.6657 18.7499 27.1874C20.3481 23.8944 22.181 20.7206 24.2343 17.6905C23.8471 17.6014 23.4503 17.5605 23.0531 17.5686Z" fill="#75EF75"/>
<path d="M18.75 27.1876C19.563 27.7931 20.5488 28.1218 21.5625 28.1251C22.7614 28.1295 23.934 27.7735 24.9281 27.1032C24.0721 25.205 22.9377 23.445 21.5625 21.8813C20.537 23.602 19.5983 25.373 18.75 27.1876Z" fill="#4ED154"/>
<path d="M24.2248 17.6907C23.2873 19.0688 22.4248 20.4563 21.5811 21.8813C22.9391 23.433 24.0606 25.1769 24.9092 27.0563C25.6812 26.5627 26.3341 25.9039 26.8204 25.1273C27.3068 24.3507 27.6147 23.4757 27.7217 22.5657C27.8599 21.462 27.5766 20.3469 26.9283 19.4431C26.28 18.5393 25.3145 17.9135 24.2248 17.6907Z" fill="#75EF75"/>
<path d="M24.5439 18.8906C22.9579 21.2166 21.5478 23.6578 20.3252 26.1938C20.9541 26.6429 21.7086 26.8824 22.4814 26.8781C23.6443 26.8555 24.76 26.4147 25.6243 25.6365C26.4887 24.8583 27.0437 23.7947 27.1877 22.6406C27.2941 21.7984 27.0819 20.9469 26.5928 20.2531C26.1037 19.5593 25.3729 19.0733 24.5439 18.8906Z" fill="#4ED154"/>
<path d="M26.5125 22.5655C26.3556 23.7284 25.7869 24.7965 24.9096 25.5757C24.0322 26.355 22.9046 26.7938 21.7313 26.8124C21.2014 26.8288 20.6748 26.7242 20.1914 26.5066C19.708 26.2889 19.2806 25.9639 18.9416 25.5563C18.6027 25.1487 18.3612 24.6691 18.2354 24.1541C18.1096 23.6391 18.1028 23.1023 18.2157 22.5843C18.4422 21.4973 19.0276 20.5181 19.8777 19.804C20.7279 19.0899 21.7934 18.6823 22.9032 18.6468C23.4108 18.6218 23.9177 18.7087 24.3881 18.9013C24.8584 19.0939 25.2807 19.3875 25.6251 19.7613C25.9694 20.1352 26.2274 20.5801 26.3807 21.0647C26.5341 21.5493 26.5791 22.0616 26.5125 22.5655Z" fill="#75EF75"/>
<path d="M26.5689 21.9937C26.4117 23.1473 25.8452 24.206 24.9728 24.9769C24.1003 25.7478 22.98 26.1796 21.8158 26.1937C21.2906 26.2144 20.7677 26.1145 20.2871 25.9016C19.8066 25.6888 19.3812 25.3687 19.0435 24.9659C18.7059 24.5631 18.4651 24.0883 18.3394 23.578C18.2138 23.0676 18.2068 22.5353 18.3189 22.0218C18.5433 20.9362 19.1289 19.9588 19.9802 19.2488C20.8315 18.5388 21.8982 18.1382 23.0064 18.1124C23.508 18.0905 24.0082 18.1785 24.4721 18.3704C24.936 18.5623 25.3523 18.8533 25.6918 19.2232C26.0313 19.593 26.2857 20.0327 26.4372 20.5113C26.5888 20.9899 26.6337 21.4959 26.5689 21.9937Z" fill="#358761"/>
<path d="M22.8095 19.2376C21.8693 19.2677 20.9669 19.6147 20.2487 20.2223C19.5305 20.8298 19.0388 21.6623 18.8532 22.5845C18.7663 23.0237 18.7775 23.4767 18.8861 23.911C18.9947 24.3454 19.198 24.7503 19.4814 25.097C20.8689 23.1751 22.3876 21.4032 23.6064 19.322C23.3446 19.2647 23.0774 19.2364 22.8095 19.2376Z" fill="#C0FFC0"/>
<path d="M23.6064 19.3218C22.3877 21.403 20.8689 23.1749 19.4814 25.0968C19.773 25.4301 20.1337 25.6959 20.5385 25.8757C20.9433 26.0554 21.3824 26.1447 21.8252 26.1374C22.8106 26.1185 23.7571 25.7497 24.4956 25.0971C25.2341 24.4445 25.7165 23.5505 25.8564 22.5749C25.9613 21.8488 25.7876 21.1099 25.3702 20.5065C24.9529 19.9031 24.3228 19.4799 23.6064 19.3218Z" fill="#75EF75"/>
<path d="M23.3627 18.8345L23.8971 20.9813L26.2314 21.5813L24.0846 23.0345L23.9158 25.4907L21.9846 24.0845L19.4814 24.9657L20.5596 22.6313L19.2939 20.8126L21.7596 20.747L23.3627 18.8345Z" fill="#358761"/>
<path d="M23.1469 19.8374L22.0406 21.1499L20.3438 21.1968L21.2156 22.4999L20.475 24.103L22.0969 23.5312C22.4344 22.3687 22.8281 21.2249 23.1937 20.0718L23.1469 19.8374Z" fill="#75EF75"/>
<path d="M23.5123 21.3093L23.1936 20.0249C22.8279 21.178 22.4342 22.3218 22.0967 23.4843H22.1998L23.5311 24.4218L23.6436 22.7249L25.1248 21.7218L23.5123 21.3093Z" fill="#4ED154"/>
</g>
<defs>
<clipPath id="clip0_1_16041">
<rect width="30" height="30" fill="white"/>
</clipPath>
</defs>
</svg>
