<svg width="30" height="30" viewBox="0 0 30 30" fill="none" xmlns="http://www.w3.org/2000/svg">
<g clip-path="url(#clip0_1_12086)">
<path d="M6.375 2.34375L26.0625 0.09375L25.875 1.5H26.9062L26.8125 2.8125H27.5625V3.46875H28.6875L25.125 28.4062L0.9375 25.6875L6.375 2.34375Z" fill="#608191"/>
<path d="M24.375 26.9062L1.96875 25.0312L6.84375 3.46875L27.375 4.21875L24.375 26.9062Z" fill="#8FB8CC"/>
<path d="M23.8125 26.25L2.0625 24.4688L7.03125 2.90625L26.9062 3.5625L23.8125 26.25Z" fill="#B7C6CE"/>
<path d="M23.1563 24.8438L2.71875 24.5625L7.59375 3L26.25 2.25L23.1563 24.8438Z" fill="#D6DFE5"/>
<path d="M22.4062 23.625L1.96875 24.4688L6.9375 2.90625L25.4062 1.03125L22.4062 23.625Z" fill="#9EC6DD"/>
<path d="M20.8125 21.6562L4.125 22.3125L8.15625 4.6875L23.25 3.1875L20.8125 21.6562Z" fill="white"/>
<path d="M20.8125 21.6562L4.125 22.3125L8.15625 4.6875L23.25 3.1875L20.8125 21.6562Z" fill="#CFEFFF"/>
<path d="M1.40625 24.9375L22.0312 24.8437L22.4062 23.625L1.59375 24.5625L1.40625 24.9375Z" fill="#608191"/>
<path d="M22.0312 24.8438H23.1563L26.0625 0.09375L25.4063 0.84375L22.0312 24.8438Z" fill="#608191"/>
<path d="M22.875 24.75H1.125L5.15625 2.53125L25.875 0.28125L22.875 24.75Z" fill="#608191"/>
<path d="M12.2813 11.1562L4.78125 11.625L6.1875 3.75L13.5938 3L12.2813 11.1562Z" fill="#CFEFFF"/>
<path d="M23.1562 10.5L13.4062 11.1562L14.625 2.90625L24.2812 1.96875L23.1562 10.5Z" fill="white"/>
<path d="M21.6563 23.1562L2.71875 23.3437L4.6875 12.4687L23.1563 11.3438L21.6563 23.1562Z" fill="#CFEFFF"/>
<mask id="mask0_1_12086" style="mask-type:luminance" maskUnits="userSpaceOnUse" x="2" y="11" width="22" height="13">
<path d="M21.6563 23.1562L2.71875 23.3437L4.6875 12.4687L23.1563 11.3438L21.6563 23.1562Z" fill="white"/>
</mask>
<g mask="url(#mask0_1_12086)">
<path d="M6.09407 24.2811C4.96907 23.7186 4.59407 22.4061 5.43782 20.9999C5.71907 20.5311 7.03157 19.3124 7.40657 19.1249C8.53157 18.3749 13.2191 17.7186 16.6878 19.9686C17.3441 20.3436 17.8128 21.0936 17.9066 21.8436V21.9374C18.0941 24.0936 17.0628 25.8749 14.7191 25.8749C12.0003 25.8749 7.96907 25.3124 6.09407 24.2811Z" fill="#913A3A"/>
<path d="M7.50007 12.375C7.50007 12.375 5.34382 15.375 7.21882 16.5938L7.87507 14.3438L7.50007 12.375ZM21.3751 14.7188C21.2813 15.75 20.1563 16.5938 18.9376 16.5938C17.7188 16.5938 16.8751 15.8437 16.9688 14.9062C17.0626 13.9687 18.1876 13.125 19.4063 13.0312C20.6251 13.0312 21.4688 13.7812 21.3751 14.7188Z" fill="#E8A554"/>
<path d="M19.9689 11.8124C19.3127 10.4999 17.4377 9.18742 15.0002 9.09367C14.2502 8.99992 13.1252 8.99992 11.8127 9.28117C6.65644 10.3124 7.03144 14.3437 7.03144 14.3437C8.06269 13.3124 9.93769 12.5624 12.8439 12.5624C14.1564 12.5624 15.0939 12.1874 15.7502 11.8124C16.4064 12.5624 17.2502 14.1562 16.7814 16.8749C16.7814 16.8749 16.8752 17.9999 18.7502 17.9062C18.7502 17.9062 18.6564 17.0624 19.0314 16.5937C19.5939 16.0312 20.7189 13.2187 19.9689 11.8124Z" fill="#E8A554"/>
<path d="M21.2815 15.1874C21.1878 16.2186 20.0628 17.0624 18.844 17.0624C17.6253 17.0624 16.7815 16.3124 16.8753 15.3749C16.969 14.4374 18.094 13.5936 19.3128 13.4999C20.4378 13.4061 21.3753 14.1561 21.2815 15.1874Z" fill="#E8A554"/>
<path d="M22.2188 18.6561C22.0313 20.4373 20.2501 21.8436 18.2813 21.9373C16.3126 21.9373 15.0001 20.6248 15.2813 18.8436C15.5626 17.1561 17.2501 15.7498 19.1251 15.6561C21.0001 15.5623 22.4063 16.8748 22.2188 18.6561ZM10.3126 18.1873C10.1251 19.4061 8.81255 20.4373 7.50005 20.4373C6.0938 20.4373 5.25005 19.4998 5.43755 18.2811C5.62505 17.0623 6.8438 16.1248 8.25005 16.0311C9.56255 16.0311 10.5001 16.9686 10.3126 18.1873Z" fill="#E8A554"/>
<path d="M21.844 18.5624C21.6565 20.1562 19.8752 21.4687 17.9065 21.4687C15.9377 21.4687 14.6252 20.2499 14.8127 18.7499C15.0002 17.2499 16.6877 15.9374 18.6565 15.8437C20.6252 15.7499 22.0315 16.9687 21.844 18.5624Z" fill="#FFEFAB"/>
<path d="M20.9064 14.8124C20.8126 15.8436 19.6876 16.6874 18.4689 16.6874C17.2501 16.6874 16.4064 15.9374 16.5001 14.9999C16.5939 14.0624 17.7189 13.2186 18.9376 13.1249C20.1564 13.0311 21.0939 13.7811 20.9064 14.8124ZM10.4064 18.1874C10.2189 19.3124 9.09388 20.1561 7.78138 20.2499C6.46888 20.2499 5.62513 19.4061 5.81263 18.3749C6.00013 17.3436 7.12513 16.4061 8.43763 16.4061C9.65638 16.3124 10.5939 17.1561 10.4064 18.1874Z" fill="#FFEFAB"/>
<path d="M6.28157 23.6248C5.15657 23.0623 4.78157 21.7498 5.62532 20.3435C5.90657 19.8748 7.21907 18.656 7.59407 18.4685C8.71907 17.7185 13.4066 17.0623 16.8753 19.2185C17.5316 19.5935 18.0003 20.3435 18.0941 21.0935V21.1873C18.2816 23.3435 17.2503 25.1248 14.9066 25.1248C12.1878 25.2185 8.25032 24.656 6.28157 23.6248Z" fill="#E8A554"/>
<path d="M6.56275 22.4061C5.5315 21.9374 6.094 20.9061 6.844 19.7811C7.12525 19.4061 7.68775 19.0311 7.969 18.8436C9.094 18.2811 13.219 17.6249 16.4065 19.4061C16.969 19.7811 17.4378 20.3436 17.5315 20.9999C17.8128 22.7811 15.9378 24.3749 14.0628 24.1874C11.719 23.9061 8.43775 23.2499 6.56275 22.4061Z" fill="#E8A554"/>
<path d="M6.46873 22.3123C5.62498 21.8436 6.65623 21.2811 7.40623 20.0623C7.59373 19.6873 8.71873 18.7498 8.99998 18.5623C9.93748 17.9061 12.2812 17.2498 14.9062 19.1248C15.375 19.4998 15.75 20.0623 15.8437 20.8123V20.9061C16.0312 22.7811 14.7187 24.2811 13.125 23.9998C11.1562 23.6248 7.96873 23.1561 6.46873 22.3123Z" fill="#FFD097"/>
<path d="M6.37522 19.5938L3.65646 22.4062C3.65646 22.4062 2.53146 23.8125 4.03146 24.375C5.53147 24.9375 7.03147 23.9063 7.03147 23.9063C7.03147 23.9063 6.93772 22.7812 7.50022 22.3125L6.37522 19.5938Z" fill="#E8A554"/>
<path d="M6.09408 20.6249C6.18783 20.4374 6.46907 20.3437 6.65657 20.4374C7.31282 20.8124 9.18782 21.6562 13.5003 22.0312C14.5316 22.1249 15.8441 22.0312 17.7191 21.6562C17.7191 21.6562 17.7191 21.9374 17.6253 22.4062C17.2503 23.4374 16.0316 24.2812 14.7191 24.2812C13.2191 24.2812 11.8128 24.2812 9.84408 23.8124C6.84408 23.1562 5.06283 22.8749 6.09408 20.6249Z" fill="#E8BD89"/>
<path d="M19.3126 14.4374C18.9376 17.3436 15.6563 19.7811 12.0938 19.8749C8.71885 19.9686 6.3751 17.7186 6.84385 14.9999C7.3126 12.2811 10.3126 9.93736 13.5938 9.65611C17.1563 9.46861 19.6876 11.5311 19.3126 14.4374Z" fill="#8E4028"/>
<path d="M6.65641 19.6875L3.93766 22.5C3.93766 22.5 3.09391 23.625 4.59391 24.1875C6.09391 24.75 7.40641 24 7.40641 24C7.40641 24 7.21891 22.875 7.78141 22.4062L6.65641 19.6875Z" fill="#E8BD89"/>
<path d="M19.0315 14.0624C18.6565 16.8749 15.469 19.3124 12.094 19.3124C8.81272 19.4061 6.56272 17.2499 7.03147 14.6249C7.50022 11.9999 10.4065 9.74987 13.594 9.46862C16.969 9.28112 19.4065 11.3436 19.0315 14.0624Z" fill="#E8A554"/>
<path d="M19.0312 13.9686C18.6562 16.6874 15.75 18.9374 12.5625 19.0311C9.46874 19.1249 7.40624 17.0624 7.78124 14.5311C8.15624 12.0936 10.2187 9.84364 13.9687 9.56239C17.0625 9.28114 19.3125 11.2499 19.0312 13.9686Z" fill="#E8BD89"/>
<path d="M15.7503 14.7188C15.469 16.6875 13.4066 18.2813 11.0628 18.375C8.8128 18.4688 7.3128 16.9688 7.6878 15.0938C7.96905 13.2188 9.9378 11.625 12.1878 11.5313C14.3441 11.4375 16.0315 12.8438 15.7503 14.7188Z" fill="#FFD097"/>
<path d="M7.5 14.25C7.5 14.25 7.78125 13.5 9.75 13.4063C11.7187 13.3125 14.625 13.3125 16.0313 12.1875L15.5625 11.9062C15.5625 11.9062 14.25 12.5625 12.1875 12.6563C10.2188 12.75 7.59375 13.3125 7.40625 13.5C7.40625 13.5937 7.5 14.25 7.5 14.25Z" fill="#E8A554"/>
<path d="M13.5003 15.1875C13.5003 15.4688 13.1253 15.75 12.8441 15.75C12.5628 15.75 12.2816 15.5625 12.3753 15.1875C12.3753 14.9063 12.7503 14.625 13.0316 14.625C13.3128 14.7188 13.5003 14.9063 13.5003 15.1875Z" fill="#8E4028"/>
<path d="M13.125 15.0938C13.125 15.1875 13.0313 15.2813 12.9375 15.2813C12.8438 15.2813 12.8438 15.1875 12.8438 15.1875C12.8438 15.0938 12.9375 15 13.0312 15C13.125 14.9063 13.2188 15 13.125 15.0938Z" fill="white"/>
<path d="M9.09375 14.8125C9 15.0938 8.8125 15.375 8.4375 15.375C8.15625 15.375 7.96875 15.1875 7.96875 14.9062C8.0625 14.625 8.25 14.3438 8.625 14.3438C9 14.3438 9.1875 14.5312 9.09375 14.8125Z" fill="#8E4028"/>
<path d="M8.8125 14.625C8.8125 14.7188 8.71875 14.7188 8.625 14.8125C8.53125 14.8125 8.53125 14.7187 8.53125 14.7187C8.53125 14.625 8.625 14.625 8.71875 14.5312C8.8125 14.5312 8.8125 14.625 8.8125 14.625Z" fill="white"/>
<path d="M12 22.125C12 22.125 15 22.2188 15 19.5938C15 19.5938 15.9375 19.125 16.5938 19.5938C17.25 20.0625 18.1875 20.625 17.5312 22.2188C17.5312 22.3125 12.2812 22.9688 12 22.125ZM7.40625 21.1875C7.40625 21.1875 7.03125 20.7188 7.5 20.0625C7.96875 19.4062 8.625 19.0312 8.625 19.0312L8.15625 18.6562C8.15625 18.6562 6.46875 19.4063 6.09375 20.7188L7.40625 21.1875Z" fill="#E8BD89"/>
<path d="M10.0316 22.4061C10.0316 22.4061 12.8441 21.9373 14.0628 22.5936C14.0628 22.5936 14.3441 23.0623 13.9691 23.2498C13.5941 23.3436 11.3441 22.4061 10.0316 22.7811C10.0316 22.7811 9.84408 22.4998 10.0316 22.4061Z" fill="white"/>
<path d="M5.8125 21.1875C5.8125 21.1875 7.125 21.0938 7.5 21.6563C7.5 21.6563 7.5 22.0312 7.3125 22.125C7.125 22.2188 6.28125 21.2812 5.71875 21.4687C5.71875 21.375 5.625 21.2813 5.8125 21.1875Z" fill="#FCD6AE"/>
<path d="M16.9688 10.969C16.9688 10.969 15.6562 12.844 12.8438 12.844C10.0312 12.844 8.0625 13.3127 7.125 14.344C7.125 14.344 7.78125 10.5002 11.9062 9.65648C16.125 8.71898 16.9688 10.4065 16.9688 10.969Z" fill="#FFEFAB"/>
<path d="M15 11.5313C15.4688 11.9063 17.1563 13.5 16.5 16.9688C16.5 16.9688 16.5 18 18.375 18C18.375 18 18.2812 17.25 18.6562 16.6875C19.0312 16.2187 20.0625 13.4062 19.4063 12.0937C18.75 10.7812 16.875 9.375 14.4375 9.375" fill="#FFEFAB"/>
<path d="M16.5938 15.0936C16.5938 15.0936 17.3437 14.7186 17.625 14.9999C18.0937 15.4686 17.5312 16.2186 16.4062 16.4061L16.5938 15.0936Z" fill="#E8BD89"/>
<path d="M15.375 12.375C15.375 12.375 16.5938 13.5938 16.5938 15.0938C16.5938 15.0938 16.7813 12.8438 15.5625 12.0938L15.375 12.375ZM16.9688 16.2187C16.9688 16.2187 16.5938 17.4375 17.5313 17.9063C17.5313 17.9063 17.0625 18 16.6875 17.625C16.3125 17.25 16.5938 16.3125 16.5938 16.3125L16.9688 16.2187Z" fill="#E8A554"/>
<path d="M10.2188 10.5938C10.2188 10.5938 13.125 9.28125 15.2812 9.84375C15.2812 9.84375 15.9375 10.5 14.1563 10.7813C12.4688 11.0625 12.5625 10.3125 10.2188 10.5938ZM19.875 16.9688C19.875 16.9688 20.7188 18.6563 18.8438 19.7813C18.5625 19.9688 18.4688 20.1563 18.6563 20.4375C18.8438 20.7188 19.3125 20.8125 19.6875 20.5313C20.5313 19.6875 21.6563 18.1875 19.875 16.9688ZM19.2188 13.5938C19.2188 13.5938 20.0625 14.5313 19.2188 15.375C19.2188 15.375 19.125 15.75 19.5 15.75C19.7812 15.75 20.25 15.5625 20.25 15.2813C20.25 15 20.5313 13.7813 19.2188 13.5938Z" fill="white"/>
<path d="M9.0938 25.0313C9.0938 25.0313 8.25005 24.5625 8.3438 23.1563C8.43755 21.8438 10.0313 21.375 10.0313 21.375C10.0313 21.375 8.25005 21.4688 7.68755 22.875C7.12505 24.375 8.06255 24.75 8.06255 24.75L9.0938 25.0313Z" fill="#8E4028"/>
<path d="M11.625 17.4374C11.625 17.4374 11.0625 17.4374 10.6875 17.1562C10.3125 16.8749 9.9375 16.9687 9.84375 16.9687C9.75 16.9687 9.65625 16.8749 9.5625 16.8749C9.375 16.8749 9.1875 16.7812 9.1875 16.8749C9.1875 16.9687 9.375 17.1562 9.375 17.1562V17.4374C9.375 17.5312 9.375 17.9062 9.75 17.9062C10.125 17.9999 10.5 17.9062 10.6875 17.8124C10.875 17.8124 11.625 17.4374 11.625 17.4374Z" fill="#C6638C"/>
</g>
<mask id="mask1_1_12086" style="mask-type:luminance" maskUnits="userSpaceOnUse" x="13" y="1" width="12" height="11">
<path d="M23.1562 10.5L13.4062 11.1562L14.625 2.90625L24.2812 1.96875L23.1562 10.5Z" fill="white"/>
</mask>
<g mask="url(#mask1_1_12086)">
<path d="M16.7812 2.34375C16.125 2.53125 15.4687 2.90625 15.0937 3.46875C15 3.65625 14.7187 3.9375 14.5312 4.21875C13.5937 5.15625 14.25 6.75 15.9375 6.46875C17.625 6.1875 18.6562 5.53125 19.2187 4.125V4.03125C19.6875 2.90625 18.6562 1.96875 17.25 2.25L16.7812 2.34375ZM22.5 1.78125C23.1562 1.78125 23.7187 2.0625 24 2.625C24.0937 2.8125 24.2812 3 24.4687 3.28125C25.2187 4.125 24.0937 6 22.3125 6C20.5312 6 19.6875 5.53125 19.5 4.125V4.03125C19.3125 2.90625 20.625 1.78125 22.0312 1.78125H22.5Z" fill="#A3704D"/>
<path d="M22.7812 6.65617C22.7812 6.18742 22.7813 3.37492 23.0625 1.87492H22.6875C21.375 1.78117 19.9687 1.78117 18.5625 2.06242C17.625 2.24992 16.5 2.53117 15.6563 3.09367C15.4688 4.40617 15.0937 6.37492 14.25 8.15617C14.25 8.15617 12.2812 11.6249 14.25 11.9062C16.2187 12.1874 22.5 12.0937 23.625 10.7812C24.5625 9.46867 22.7812 7.31242 22.7812 6.65617Z" fill="#A3704D"/>
<path d="M22.6877 1.8749C21.6564 1.78115 19.9689 1.59365 18.5627 1.78115C17.3439 1.8749 16.5002 2.15615 16.0314 2.4374C16.0314 3.28115 15.7502 5.71865 14.6252 7.96865C14.6252 7.96865 12.8439 11.0624 14.6252 11.2499C16.4064 11.5312 22.0314 11.3437 22.9689 10.2187C23.9064 9.09365 22.3127 7.1249 22.3127 6.65615C22.3127 6.1874 22.4064 2.90615 22.6877 1.8749Z" fill="#E8BD89"/>
<path d="M16.7816 2.62501C16.2191 2.71876 15.6566 3.09376 15.3753 3.56251C15.1878 3.75001 15.0003 3.93751 14.8128 4.21876C13.9691 5.06251 14.5316 6.46876 16.0316 6.18751C17.5316 5.90626 18.3753 5.43751 18.9378 4.12501V4.03126C19.3128 3.00001 18.4691 2.25001 17.2503 2.43751L16.7816 2.62501Z" fill="#E8AB82"/>
<path d="M16.6875 2.81259C16.125 2.90634 15.6563 3.28134 15.375 3.65634C15.2813 3.84384 15.0938 4.03134 14.9063 4.21884C14.1563 4.96884 14.625 6.18759 15.9375 6.00009C17.25 5.81259 18 5.34384 18.4688 4.21884C18.8438 3.28134 18.0938 2.62509 16.9688 2.81259H16.6875Z" fill="#FFD097"/>
<path d="M16.2187 4.87496C16.125 5.15621 15.8437 5.43747 15.4687 5.43747C15.1875 5.43747 15 5.24997 15.0937 4.96872C15.1875 4.68747 15.4687 4.40621 15.8437 4.40621C16.125 4.31246 16.3125 4.49996 16.2187 4.87496Z" fill="#A3704D"/>
<path d="M15.6565 4.96875C15.6565 5.0625 15.5628 5.15625 15.469 5.15625C15.3753 5.15625 15.2815 5.0625 15.3753 4.96875C15.3753 4.875 15.469 4.78125 15.5628 4.78125C15.6565 4.78125 15.6565 4.875 15.6565 4.96875ZM22.5003 2.0625C23.0628 2.0625 23.6253 2.34375 23.8128 2.71875C23.9065 2.90625 24.0003 3.09375 24.1878 3.28125C24.844 4.03125 23.8128 5.625 22.3128 5.625C20.8128 5.625 20.0628 5.25 19.8753 4.03125C19.7815 3.09375 20.9065 2.0625 22.1253 2.0625H22.5003Z" fill="#E8AB82"/>
<path d="M22.4063 2.25C22.9688 2.25 23.3438 2.53125 23.5313 2.90625C23.6251 3.09375 23.7188 3.1875 23.9063 3.375C24.4688 4.03125 23.6251 5.4375 22.2188 5.4375C20.9063 5.4375 20.1563 5.0625 20.0626 4.03125C19.9688 3.1875 21.0001 2.25 22.0313 2.34375L22.4063 2.25Z" fill="#FFD097"/>
<path d="M22.4062 4.21883C22.4062 4.50008 22.6875 4.78133 22.9688 4.68758C23.3438 4.68758 23.5313 4.40633 23.5313 4.12508C23.5313 3.84383 23.25 3.56258 22.9688 3.65633C22.6875 3.65633 22.4062 3.93758 22.4062 4.21883Z" fill="#A3704D"/>
<path d="M13.4065 10.3125C13.4065 10.3125 14.9065 10.0313 16.0315 10.3125C17.1565 10.5938 21.469 10.125 23.6252 9.5625C23.6252 9.5625 24.094 10.0312 23.719 10.5C23.344 10.9688 18.7502 13.2187 17.9065 13.5C17.0627 13.7812 13.6877 12 13.5002 11.625C13.4065 11.1562 13.1252 10.5 13.4065 10.3125Z" fill="#5D8993"/>
<path d="M22.9688 4.3125C22.9688 4.40625 23.0625 4.5 23.1563 4.5C23.25 4.5 23.3437 4.40625 23.3437 4.3125C23.3437 4.21875 23.25 4.125 23.1563 4.125C23.0625 4.125 22.9688 4.21875 22.9688 4.3125Z" fill="#E8AB82"/>
<path d="M13.8751 10.0313C13.8751 10.0313 15.2814 9.75 16.3126 10.0313C17.3439 10.3125 21.2814 9.84375 23.2501 9.28125C23.2501 9.28125 23.7189 9.75 23.3439 10.125C22.9689 10.5 18.7501 12.6563 18.0001 12.9375C17.1564 13.2188 14.0626 11.625 13.9689 11.1562C13.8751 10.875 13.6876 10.2188 13.8751 10.0313Z" fill="#CBDEE4"/>
<path d="M20.3438 5.34375C20.3438 5.34375 21.5626 5.90625 22.5938 5.71875L22.6876 5.90625C22.6876 5.90625 21.4688 6.09375 20.3438 5.34375ZM17.5313 5.53125C17.5313 5.53125 16.1251 6.375 15.2813 6.28125L15.1876 6.5625C15.0938 6.46875 16.2188 6.5625 17.5313 5.53125Z" fill="#A3704D"/>
<path d="M14.6252 4.6875C14.6252 4.6875 14.4377 5.71875 15.9377 5.53125C17.4377 5.4375 18.6564 4.125 18.6564 4.125C18.6564 4.125 18.2814 5.71875 16.0314 6C13.7814 6.375 14.6252 4.6875 14.6252 4.6875ZM24.1877 3.75C24.1877 3.75 24.0939 4.78125 22.5002 4.96875C20.9064 5.0625 20.0627 4.03125 20.0627 4.03125C20.0627 4.03125 20.0627 5.53125 22.3127 5.53125C24.5627 5.4375 24.1877 3.75 24.1877 3.75Z" fill="#E8BD89"/>
<path d="M18.75 8.15625C18.75 8.25 18.6562 8.34375 18.5625 8.34375C18.4687 8.34375 18.375 8.25 18.375 8.15625C18.375 8.0625 18.4687 7.96875 18.5625 7.96875C18.75 7.96875 18.75 8.0625 18.75 8.15625Z" fill="#A3704D"/>
<path d="M13.5938 10.4063C13.5938 10.4063 14.0625 10.125 14.4375 10.125C14.9062 10.125 17.25 10.5938 19.125 10.2188L23.4375 9.46875L23.25 9.28125L18.375 10.0313C16.6875 10.125 14.9062 9.5625 13.5938 10.2188V10.4063Z" fill="#5D8993"/>
<path d="M20.625 10.3126C20.0625 10.5001 18.75 10.6876 18.2812 10.7813C17.9062 11.3438 17.5312 12.0001 17.4375 12.6563C17.625 12.7501 17.8125 12.7501 17.8125 12.8438C18.2812 12.9376 20.8125 11.5313 21.75 10.9688C22.7813 10.3126 21.2812 10.1251 20.625 10.3126Z" fill="#D5EAEF"/>
<path d="M21.1875 9.84375C21.1875 9.84375 21.0938 10.4062 20.7188 10.9687C20.3438 11.5312 20.1562 12 20.1562 12C20.1562 12 21.2812 11.1562 21.4687 11.1562C21.6562 11.0625 23.5312 10.5937 22.875 10.2187C22.125 9.9375 21.1875 9.84375 21.1875 9.84375Z" fill="#CBDEE4"/>
<path opacity="0.4" d="M19.9687 12.1876C20.0625 12.0939 20.5313 11.6251 20.7188 11.2501C20.9063 10.8751 21.1875 10.5939 21.5625 10.7814C21.8438 10.9689 21.8437 11.4376 21.8437 11.4376L19.9687 12.1876ZM17.8125 13.3126C17.7188 13.2189 17.4375 12.7501 17.3438 12.3751C17.25 12.0001 17.0625 11.8126 16.6875 12.0001C16.3125 12.1876 16.3125 12.6564 16.3125 12.6564L17.8125 13.3126Z" fill="#5D8993"/>
<path d="M19.0316 11.25C19.0316 11.25 19.1253 10.7813 19.4066 10.6875C19.6878 10.5938 20.4378 10.2188 20.5316 10.4063C20.6253 10.5938 21.0003 10.875 20.5316 11.0625C20.0628 11.25 20.1566 11.7188 19.7816 11.8125C19.3128 11.8125 18.8441 11.5313 19.0316 11.25Z" fill="#EEFDFF"/>
<path d="M15.75 2.90625C15.75 2.90625 16.7812 2.34375 17.3437 2.15625C17.9062 2.0625 21.5625 1.78125 22.875 1.96875V1.78125C22.875 1.78125 19.5937 1.21875 17.625 1.6875C15.6562 2.15625 15.6562 2.625 15.6562 2.625L15.75 2.90625Z" fill="#A3704D"/>
</g>
<path d="M18.4688 4.125L8.71875 5.0625L9.09375 2.625L18.75 1.59375L18.4688 4.125ZM24.2812 11.9063C24.5625 9.9375 22.3125 8.71875 19.5937 9.28125L16.875 9.75C14.7188 10.125 12.9375 11.7188 12.75 13.3125C12.5625 14.8125 14.0625 16.0313 16.125 15.9375L18.75 15.75C18.75 16.125 18.2812 16.875 17.7187 17.625C17.625 17.7188 17.7188 17.8125 17.9062 17.8125C18.8438 17.5312 20.8125 16.6875 21.6562 15C23.1562 14.25 24.0937 13.125 24.2812 11.9063Z" fill="#4C6980"/>
<path d="M23.8127 11.9062C24.0002 10.1249 22.0314 8.9999 19.5002 9.46865L17.0627 9.9374C15.0939 10.3124 13.4064 11.7187 13.3127 13.2187C13.1252 14.6249 14.5314 15.7499 16.4064 15.6562L18.8439 15.5624H19.3127C19.3127 15.9374 19.2189 16.4062 18.8439 16.9687C18.7502 17.0624 18.8439 17.1562 19.0314 17.1562C19.6877 16.7812 20.9064 16.1249 21.5627 14.9062C22.7814 14.0624 23.7189 13.0312 23.8127 11.9062Z" fill="white"/>
<path d="M14.3438 14.25L14.4375 13.875C14.25 13.875 14.1562 13.875 13.9688 13.7812L14.0625 13.3125C14.1563 13.4062 14.3437 13.4062 14.4375 13.4062C14.5312 13.4062 14.5313 13.4062 14.625 13.3125C14.7188 13.3125 14.7188 13.2188 14.7188 13.2188C14.7188 13.125 14.7188 13.125 14.625 13.125C14.5313 13.125 14.5312 13.0312 14.4375 13.0312C14.3437 13.0312 14.3438 12.9375 14.25 12.8437V12.4687C14.25 12.2812 14.3437 12.1875 14.4375 12.0937C14.5312 12 14.7188 11.9062 14.8125 11.8125L14.9062 11.4375L15.1875 11.3438L15.0938 11.7187H15.4688L15.375 12.1875C15.2812 12.1875 15.0938 12.0937 15 12.1875C14.9063 12.1875 14.9063 12.1875 14.8125 12.2812C14.8125 12.2812 14.7188 12.375 14.7188 12.4687C14.7188 12.5625 14.7188 12.5625 14.8125 12.5625C14.9063 12.5625 15 12.5625 15.0938 12.6562C15.1875 12.6562 15.2812 12.75 15.2812 12.75C15.375 12.8438 15.375 12.9375 15.2812 13.125C15.2812 13.2187 15.1875 13.3125 15.0938 13.4062L14.8125 13.6875C14.7188 13.7812 14.625 13.7812 14.5313 13.7812L14.4375 14.1562L14.3438 14.25ZM16.5938 11.625L16.9688 11.5312L16.7812 12.0937H16.9688L17.1562 11.5312L17.5313 11.4375L17.3438 12.0937H17.5313L17.4375 12.5625H17.1562L17.0625 12.8437H17.25L17.1562 13.3125H16.875L16.6875 13.9687H16.3125L16.5 13.4062H16.3125L16.125 13.9687H15.75L15.9375 13.4062H15.75L15.8437 13.0312H16.0313L16.125 12.75H15.9375L16.0313 12.375H16.2187L16.5938 11.625ZM16.7812 12.4687H16.5938L16.5 12.75H16.6875L16.7812 12.4687Z" fill="#4C6980"/>
<path d="M19.9687 13.0312H20.4375C20.3437 13.125 20.25 13.2188 20.0625 13.3125C19.9687 13.4062 19.875 13.5 19.6875 13.5C19.5938 13.5937 19.4063 13.5938 19.3125 13.5938C19.2188 13.5938 19.0313 13.6875 18.9375 13.6875C18.75 13.6875 18.5625 13.6875 18.375 13.5938C18.1875 13.5 18.0938 13.4062 18 13.3125C17.9063 13.2188 17.8125 13.0313 17.8125 12.9375V12.4688C17.8125 12.2813 17.9063 12.0937 18 11.9062C18.0938 11.7187 18.1875 11.625 18.375 11.4375C18.5625 11.3437 18.6563 11.1563 18.8438 11.0625C19.0313 10.9688 19.2188 10.875 19.4063 10.875H19.9687C20.1562 10.875 20.25 10.9688 20.3438 11.0625C20.4375 11.1563 20.5312 11.25 20.5312 11.4375V11.9062C20.5312 12.0937 20.4375 12.2812 20.25 12.375C20.1563 12.5625 19.9688 12.6563 19.875 12.75C19.6875 12.8438 19.5937 12.9375 19.5 12.9375C19.4062 13.0313 19.2188 13.0312 19.2188 13.0312C19.125 13.0312 19.0312 13.0312 19.0312 12.8438C18.9375 12.9375 18.75 13.0312 18.5625 13.0312C18.4687 13.0312 18.375 13.0313 18.2812 12.9375L18.0937 12.75V12.4688C18.0937 12.375 18.1875 12.2813 18.1875 12.1875C18.2812 12.0938 18.2813 12 18.375 11.9062C18.4688 11.8125 18.5625 11.7188 18.6562 11.7188C18.75 11.625 18.8438 11.625 18.9375 11.625C19.125 11.625 19.3125 11.625 19.3125 11.8125L19.4063 11.625L19.7813 11.5313L19.4063 12.4688C19.4063 12.5625 19.4063 12.5625 19.3125 12.6563C19.3125 12.75 19.3125 12.75 19.4063 12.75C19.5 12.75 19.5938 12.6562 19.6875 12.5625C19.7812 12.4687 19.875 12.2812 19.875 12.0937V11.7188C19.7813 11.625 19.6875 11.5313 19.5937 11.5313H19.125C18.9375 11.5313 18.8437 11.625 18.6562 11.625C18.5625 11.7187 18.375 11.8125 18.2812 11.9062C18.1875 12 18.0938 12.0938 18 12.2813C17.9063 12.375 17.9062 12.5625 17.8125 12.6563V13.125C17.9062 13.2188 17.9062 13.3125 18.0937 13.4063C18.1875 13.5 18.375 13.5 18.5625 13.5C18.75 13.5 18.9375 13.5 19.0312 13.4063C19.6875 13.125 19.875 13.125 19.9687 13.0312ZM19.2188 12.6563C19.3125 12.6563 19.4062 12.6562 19.5 12.5625C19.5937 12.4687 19.5937 12.4688 19.5937 12.375V12.1875C19.5937 12.1875 19.5 12.0938 19.4063 12.1875C19.3125 12.1875 19.2188 12.2813 19.2188 12.2813C19.125 12.375 19.125 12.375 19.125 12.4688V12.6563C19.0312 12.6563 19.125 12.6563 19.2188 12.6563ZM21.75 10.5938L23.0625 10.3125L22.5 12.375L21.5625 12.4688L21.75 10.5938ZM21.375 12.75L22.4062 12.6563L22.2188 13.5L21.1875 13.5938L21.375 12.75Z" fill="#4C6980"/>
<path d="M17.9063 3.84375L9.28125 4.6875L9.5625 2.90625L18.1875 1.96875L17.9063 3.84375Z" fill="#FFEFAB"/>
<mask id="mask2_1_12086" style="mask-type:luminance" maskUnits="userSpaceOnUse" x="4" y="3" width="10" height="9">
<path d="M12.2813 11.1562L4.78125 11.625L6.1875 3.75L13.5938 3L12.2813 11.1562Z" fill="white"/>
</mask>
<g mask="url(#mask2_1_12086)">
<path d="M12.8435 10.8749C14.906 8.43739 12.7497 7.59364 12.7497 7.59364C12.7497 7.59364 11.6247 6.93739 10.1247 7.49989C10.2185 6.28114 9.18722 5.71864 9.18722 5.71864C9.18722 5.71864 7.49972 4.59364 5.34347 6.74989C3.18722 8.99989 5.15597 12.7499 5.15597 13.0311C5.53097 13.0311 10.781 13.3124 12.8435 10.8749Z" fill="#4F1919"/>
<path d="M13.0313 10.5936C14.8125 8.53114 12.9375 7.31239 12.9375 7.31239C12.9375 7.31239 11.9063 6.56239 10.3125 7.03114C10.4063 5.81239 9.37501 5.24989 9.37501 5.24989C9.37501 5.24989 7.68751 4.12489 5.62501 6.28114C3.46876 8.53114 5.43751 12.2811 5.53126 12.5624C5.81251 12.5624 10.9688 13.0311 13.0313 10.5936Z" fill="#960F0F"/>
<path d="M12.6561 10.2187C13.4998 9.1875 13.4998 8.53125 13.2186 8.0625C12.9373 7.6875 12.4686 7.40625 11.9061 7.3125C11.4373 7.3125 10.6873 7.3125 9.93733 7.5C9.93733 6.9375 9.74983 6.46875 9.56233 6.1875C9.18733 5.71875 8.62483 5.4375 7.96858 5.4375C7.40608 5.53125 6.65608 5.8125 5.81233 6.5625C3.93733 8.4375 5.81233 11.7188 5.90608 12C6.28108 12 10.8748 12.375 12.6561 10.2187Z" fill="#DD4545"/>
<path d="M11.3438 9.5625C12 8.8125 11.9063 8.34375 11.7188 7.96875C11.5313 7.6875 11.1563 7.5 10.7813 7.40625C10.4063 7.40625 9.9375 7.40625 9.375 7.5C9.375 7.125 9.1875 6.75 9 6.5625C8.8125 6.1875 8.4375 6 7.875 6C7.40625 6 6.9375 6.1875 6.28125 6.84375C4.875 8.25 6.28125 10.6875 6.375 10.875C6.65625 10.875 10.0313 11.0625 11.3438 9.5625Z" fill="#F96464"/>
<path d="M9.28117 11.0625C8.81242 10.9687 8.53117 10.7812 8.43742 10.5C8.34367 10.2187 8.34367 9.84372 8.62492 9.46872C9.28117 8.43747 11.9999 6.65622 12.7499 8.43747C13.4999 10.125 10.4062 11.1562 9.28117 11.0625Z" fill="#FFB3B3"/>
<path d="M5.25 12.1875C5.25 12.1875 8.90625 12.9375 12.2813 11.1562C12.2813 11.1562 10.2188 12.9375 5.4375 12.6563L5.25 12.1875Z" fill="#DD4545"/>
<path d="M11.5312 9.18748C11.4375 9.18748 11.3438 9.09373 11.3438 9.09373C11.3438 8.99998 11.3437 8.90623 11.4375 8.81248C11.625 8.53123 12.2812 8.06248 12.4687 8.53123C12.5625 8.99998 11.8125 9.28123 11.5312 9.18748Z" fill="white"/>
<path d="M8.15606 7.21858L7.59356 7.49983C7.49981 7.49983 7.31231 7.49983 7.12481 7.40608C6.74981 7.21858 6.56231 6.37483 7.68731 6.18733C8.81231 5.90608 8.53106 6.84358 8.15606 7.21858Z" fill="#FFB3B3"/>
<path opacity="0.28" d="M4.59355 8.25C4.59355 8.25 5.15605 13.3125 11.4373 11.8125C11.4373 11.8125 8.34355 12.8438 5.53105 12.9375C5.53105 12.9375 3.65605 10.3125 4.59355 8.25Z" fill="#4F1919"/>
</g>
<path d="M8.43769 13.125L4.96894 13.3125C4.40644 13.3125 4.12519 12.9375 4.21894 12.4688L4.40644 11.4375C4.50019 10.9687 4.96894 10.5937 5.53144 10.5L8.90644 10.3125C9.46894 10.3125 9.84394 10.5937 9.75019 11.1562L9.56269 12.1875C9.46894 12.6562 9.00019 13.125 8.43769 13.125Z" fill="white" stroke="#608191" stroke-width="0.563344" stroke-miterlimit="10"/>
<path d="M16.9687 27.5625L16.5938 27.9375L18.1875 29.0625L27.1875 20.1562L25.6875 18.2812L16.9687 27.5625Z" fill="#9A4C18"/>
<path d="M27.3751 22.6874C27.0939 26.2499 23.8126 29.2499 20.1564 29.2499C16.5001 29.2499 14.2501 26.2499 14.9064 22.7812C15.5626 19.4999 18.6564 16.9687 21.9376 16.9687C25.1251 16.8749 27.6564 19.3124 27.3751 22.6874Z" fill="#9A4C18"/>
<path d="M28.3128 23.8124C27.9378 27.1874 24.7503 29.9999 21.1878 29.9999C17.6253 29.9999 15.3753 27.0937 16.0315 23.8124C16.6878 20.7187 19.6878 18.2812 22.8753 18.2812C26.1565 18.1874 28.5003 20.6249 28.3128 23.8124Z" fill="#9A4C18"/>
<path d="M17.9062 27.75L19.5 28.5938L26.8125 20.9062L25.5937 19.3125L17.9062 27.75Z" fill="#F49937"/>
<path d="M27.5624 23.8125C27.2811 26.7188 24.6561 29.1563 21.6561 29.1563C18.7499 29.1563 16.7811 26.7188 17.3436 23.9063C17.8124 21.1875 20.4374 19.125 23.0624 19.0313C25.7811 18.9375 27.8436 21.0938 27.5624 23.8125Z" fill="#F49937"/>
<path d="M26.6249 22.5937C26.3437 25.6875 23.4374 28.3125 20.2499 28.3125C17.0624 28.3125 15.0937 25.6875 15.6562 22.6875C16.2187 19.7812 18.9374 17.625 21.8437 17.5312C24.6562 17.5312 26.8124 19.6875 26.6249 22.5937Z" fill="#FFEDC0"/>
<path d="M26.1561 22.875C25.8749 25.7813 23.2499 28.2188 20.2499 28.2188C17.3436 28.2188 15.3749 25.7813 15.9374 22.9688C16.4061 20.25 19.0311 18.1875 21.6561 18.0938C24.3749 18 26.4374 20.1563 26.1561 22.875Z" fill="#FFD766"/>
<path d="M25.0311 22.8751C24.7498 25.1251 22.6873 27.0001 20.4373 26.9063C18.1873 26.9063 16.6873 25.0313 17.0623 22.8751C17.4373 20.8126 19.4061 19.1251 21.5623 19.1251C23.7186 19.0313 25.2186 20.7188 25.0311 22.8751Z" fill="#FFEDC0"/>
<path d="M25.1248 22.3125C24.9373 24.4688 22.8748 26.3438 20.5311 26.3438C18.2811 26.3438 16.7811 24.4688 17.1561 22.3125C17.5311 20.25 19.4998 18.5625 21.6561 18.5625C23.7186 18.5625 25.3123 20.1562 25.1248 22.3125Z" fill="#F49937"/>
<path d="M24.3752 22.875C24.1877 24.75 22.4064 26.3438 20.5314 26.25C18.6564 26.25 17.3439 24.6562 17.7189 22.875C18.0002 21.0937 19.6877 19.6875 21.5627 19.6875C23.2502 19.6875 24.5627 21.0937 24.3752 22.875Z" fill="#FFD766"/>
<path d="M22.0313 19.3125L22.5 21.375L24.75 21.9375L22.6875 23.3437L22.5 25.6875L20.7188 24.2812L18.2813 25.125L19.3125 22.9687L18.0938 21.1875L20.4375 21.0937L22.0313 19.3125Z" fill="#F49937"/>
</g>
<defs>
<clipPath id="clip0_1_12086">
<rect width="30" height="30" fill="white"/>
</clipPath>
</defs>
</svg>
